<svg xmlns="http://www.w3.org/2000/svg" width="86" height="26" fill="none" viewBox="0 0 86 26"><mask id="a" width="52" height="16" x="0" y="0" fill="#000" maskUnits="userSpaceOnUse"><path fill="#fff" d="M0 0h52v16H0z"/><path d="M1.79 7.822V12H.746V1.555h4.342c1.85 0 3.208 1.284 3.208 3.134 0 1.358-.88 2.402-1.984 2.865v.149l.537.597 1.88 3.625V12H7.625L5.52 7.822zm0-.97h3.134c1.268 0 2.328-.805 2.328-2.163s-1.06-2.164-2.328-2.164H1.79zm12.194 5.372c-2.417 0-3.91-1.76-3.91-3.954 0-2.179 1.493-3.954 3.76-3.954 2.254 0 3.746 1.775 3.746 3.969 0 .149-.015.298-.03.447h-6.446c.164 1.463 1.179 2.597 2.88 2.597 1.417 0 2.268-.761 2.7-1.836l.85.433c-.581 1.358-1.76 2.298-3.55 2.298m-2.88-4.387h5.476c-.164-1.477-1.179-2.626-2.745-2.626-1.582 0-2.582 1.149-2.731 2.626m11.217 4.387c-1.596 0-2.507-1.015-2.507-2.119 0-1.626 1.269-2.119 2.955-2.223 1.328-.09 2.387-.12 2.387-1.224 0-.955-.88-1.447-1.775-1.447-1.403 0-2.075.806-2.373 1.701l-.91-.343c.448-1.224 1.462-2.253 3.283-2.253 1.447 0 2.76.88 2.76 2.566v1.985l.448 3.058V12h-.985l-.12-.85-.03-.821h-.149l-.432.82c-.597.657-1.492 1.075-2.552 1.075m-1.507-2.194c0 .776.671 1.299 1.686 1.299 1.642 0 2.656-1.15 2.656-2.612v-.641c-.507.462-1.313.567-2.387.626-1.254.075-1.955.448-1.955 1.328m9.28 1.97-.97-.015V.66h.985zm3.123 0V4.54h.985V12zm-.493-9.848c0-.537.433-.97.985-.97.537 0 .97.433.97.97a.97.97 0 0 1-.97.985.974.974 0 0 1-.985-.985M41.774 12H38.34V5.42h-1.79v-.88h1.79V2.197h.985V4.54h2.298v.88h-2.298l-.015 5.7h2.462zm3.6 2.984v-.074l1.389-3.208-3.194-7.088V4.54h1.134l2.283 5.282.254.895h.15l.238-.895 2.208-5.282h1.104v.074l-4.536 10.37z"/></mask><path fill="#0b4b5f" d="M1.79 7.822V12H.746V1.555h4.342c1.85 0 3.208 1.284 3.208 3.134 0 1.358-.88 2.402-1.984 2.865v.149l.537.597 1.88 3.625V12H7.625L5.52 7.822zm0-.97h3.134c1.268 0 2.328-.805 2.328-2.163s-1.06-2.164-2.328-2.164H1.79zm12.194 5.372c-2.417 0-3.91-1.76-3.91-3.954 0-2.179 1.493-3.954 3.76-3.954 2.254 0 3.746 1.775 3.746 3.969 0 .149-.015.298-.03.447h-6.446c.164 1.463 1.179 2.597 2.88 2.597 1.417 0 2.268-.761 2.7-1.836l.85.433c-.581 1.358-1.76 2.298-3.55 2.298m-2.88-4.387h5.476c-.164-1.477-1.179-2.626-2.745-2.626-1.582 0-2.582 1.149-2.731 2.626m11.217 4.387c-1.596 0-2.507-1.015-2.507-2.119 0-1.626 1.269-2.119 2.955-2.223 1.328-.09 2.387-.12 2.387-1.224 0-.955-.88-1.447-1.775-1.447-1.403 0-2.075.806-2.373 1.701l-.91-.343c.448-1.224 1.462-2.253 3.283-2.253 1.447 0 2.76.88 2.76 2.566v1.985l.448 3.058V12h-.985l-.12-.85-.03-.821h-.149l-.432.82c-.597.657-1.492 1.075-2.552 1.075m-1.507-2.194c0 .776.671 1.299 1.686 1.299 1.642 0 2.656-1.15 2.656-2.612v-.641c-.507.462-1.313.567-2.387.626-1.254.075-1.955.448-1.955 1.328m9.28 1.97-.97-.015V.66h.985zm3.123 0V4.54h.985V12zm-.493-9.848c0-.537.433-.97.985-.97.537 0 .97.433.97.97a.97.97 0 0 1-.97.985.974.974 0 0 1-.985-.985M41.774 12H38.34V5.42h-1.79v-.88h1.79V2.197h.985V4.54h2.298v.88h-2.298l-.015 5.7h2.462zm3.6 2.984v-.074l1.389-3.208-3.194-7.088V4.54h1.134l2.283 5.282.254.895h.15l.238-.895 2.208-5.282h1.104v.074l-4.536 10.37z"/><path fill="#0b4b5f" d="M1.79 7.822V7.57h-.253v.253zm0 4.178v.254h.254V12zM.746 12H.493v.254h.253zm0-10.445v-.253H.493v.253zm5.566 5.999-.098-.234-.156.065v.169zm0 .149h-.254V7.8l.065.072zm.537.597.225-.117-.015-.029-.022-.024zm1.88 3.625h.253v-.061l-.028-.055zm0 .075v.254h.253V12zm-1.104 0-.227.114.07.14h.157zM5.52 7.822l.226-.114-.07-.14H5.52zm-3.73-.97h-.254v.254h.254zm0-4.327v-.253h-.254v.253zm-.254 5.297V12h.507V7.822zm.254 3.924H.746v.508h1.045zM1 12V1.555H.493V12zM.746 1.809h4.342v-.507H.746zm4.342 0c1.718 0 2.954 1.177 2.954 2.88h.507c0-1.998-1.479-3.387-3.461-3.387zm2.954 2.88c0 1.238-.8 2.2-1.828 2.63l.195.468c1.181-.494 2.14-1.62 2.14-3.098zM6.058 7.554v.149h.507v-.15zm.065.318.537.597.377-.339-.537-.597zm.5.544 1.88 3.626.45-.233-1.88-3.626zm1.852 3.51V12h.507v-.075zm.254-.18H7.625v.508h1.104zm-.878.14L5.747 7.708l-.453.228 2.104 4.178zm-2.33-4.317H1.79v.507h3.73zm-3.73-.463h3.133v-.507H1.79zm3.133 0c.686 0 1.33-.218 1.806-.636.48-.42.775-1.031.775-1.781h-.507c0 .608-.235 1.078-.602 1.4-.37.325-.89.51-1.472.51zm2.581-2.417c0-.75-.295-1.361-.775-1.782-.476-.417-1.12-.635-1.806-.635v.507c.582 0 1.102.185 1.472.51.367.321.602.792.602 1.4zM4.924 2.272H1.79v.507h3.134zm-3.387.253v4.327h.507V2.525zM17.55 8.732v.254h.23l.022-.228zm-6.446 0V8.48h-.284l.032.282zm5.58.761.115-.226-.246-.125-.104.257zm.85.433.234.1.093-.218-.211-.108zm-6.43-2.089-.252-.025-.028.279h.28zm5.476 0v.254h.283l-.031-.282zm-2.596 4.133c-1.144 0-2.053-.415-2.677-1.075-.626-.662-.979-1.586-.979-2.625h-.507c0 1.154.393 2.207 1.117 2.973.727.769 1.772 1.234 3.046 1.234zm-3.656-3.7c0-2.06 1.399-3.7 3.507-3.7v-.508c-2.429 0-4.014 1.91-4.014 4.208zm3.507-3.7c2.091 0 3.491 1.639 3.491 3.715h.507c0-2.311-1.584-4.223-3.998-4.223zm3.491 3.715c0 .134-.013.27-.028.422l.504.05c.015-.146.031-.308.031-.472zm.224.194h-6.446v.507h6.446zm-6.698.282c.088.78.404 1.488.94 2 .538.516 1.282.821 2.192.821v-.507c-.791 0-1.406-.262-1.841-.68-.438-.419-.71-1.01-.787-1.69zm3.132 2.821c.756 0 1.377-.204 1.869-.564.49-.358.837-.86 1.067-1.43l-.47-.19c-.203.504-.498.92-.896 1.211-.396.29-.91.466-1.57.466zM16.57 9.72l.85.433.23-.452-.85-.433zm.732.107c-.545 1.271-1.636 2.144-3.318 2.144v.507c1.899 0 3.165-1.007 3.784-2.451zm-6.198-1.735h5.476v-.507h-5.476zm5.728-.282c-.175-1.579-1.277-2.851-2.998-2.851v.507c1.413 0 2.341 1.025 2.494 2.4zm-2.998-2.851c-1.736 0-2.823 1.273-2.982 2.854l.504.05c.139-1.373 1.052-2.397 2.479-2.397zm8.935 2.924.015.253h.002zm-1.76-.97-.09.237.246.093.084-.25zm-.911-.343-.238-.087-.086.235.235.089zm6.043 2.298h-.254v.018l.003.018zm.448 3.058h.253v-.018l-.003-.018zm0 .075v.254h.253V12zm-.985 0-.251.035.03.219h.22zm-.12-.85-.253.009v.013l.002.013zm-.03-.821.254-.01-.01-.244h-.244zm-.149 0v-.254h-.153l-.071.136zm-.432.82.187.171.022-.024.015-.028zm.283-3.073h.254v-.574l-.425.386zm-2.387.626-.014-.253h-.001zm-.448 3.268c-1.478 0-2.253-.921-2.253-1.865h-.507c0 1.264 1.045 2.372 2.76 2.372zm-2.253-1.865c0-.733.278-1.18.728-1.47.472-.302 1.157-.449 1.988-.5l-.03-.506c-.856.053-1.648.205-2.232.58-.605.39-.961 1.003-.961 1.896zm2.718-1.97c.645-.044 1.288-.074 1.761-.246.245-.09.467-.223.625-.434q.239-.32.238-.797h-.507c0 .234-.056.386-.136.492-.081.108-.207.195-.393.262-.389.142-.94.17-1.622.217zm2.624-1.477c0-.566-.266-1-.657-1.286-.383-.28-.882-.414-1.372-.414v.507c.405 0 .793.112 1.073.316.274.2.449.489.449.877zm-2.03-1.7c-.753 0-1.33.217-1.76.572-.428.352-.693.823-.852 1.302l.48.16c.14-.417.36-.796.693-1.07.33-.272.79-.457 1.44-.457zm-2.282 1.717-.91-.343-.18.474.91.343zm-.762-.02c.21-.575.55-1.095 1.042-1.47.49-.374 1.143-.616 2.003-.616v-.507c-.961 0-1.725.273-2.31.72-.583.445-.974 1.052-1.211 1.7zm3.045-2.086c.674 0 1.303.206 1.759.591.45.381.747.951.747 1.722h.507c0-.915-.359-1.628-.927-2.109-.562-.476-1.314-.71-2.086-.71zm2.506 2.313v1.985h.507V6.882zm.003 2.021.448 3.06.501-.074-.447-3.06zm.445 3.022V12h.507v-.075zm.253-.179h-.984v.508h.985zm-.733.219-.12-.85-.502.07.12.85zm-.117-.825-.03-.82-.507.018.03.82zm-.284-1.065h-.149v.507h.15zm-.373.136-.433.82.449.237.432-.82zm-.396.768c-.547.602-1.373.991-2.364.991v.507c1.128 0 2.092-.445 2.74-1.157zm-4.124-.949c0 .47.206.867.56 1.141.35.27.83.411 1.38.411v-.507c-.467 0-.83-.12-1.07-.305a.9.9 0 0 1-.363-.74zm1.94 1.552c.881 0 1.613-.31 2.124-.834.51-.522.785-1.24.785-2.03h-.507c0 .671-.233 1.258-.64 1.676s-1.004.681-1.763.681zm2.909-2.865v-.641h-.507v.641zm-.425-.829c-.21.192-.492.32-.867.405-.376.086-.827.127-1.363.156l.028.507c.538-.03 1.027-.072 1.449-.169s.797-.253 1.095-.524zm-2.231.561c-.64.039-1.182.154-1.57.402-.407.261-.623.657-.623 1.18h.507c0-.358.134-.59.39-.753.277-.177.713-.286 1.326-.322zm7.34 3.55-.004.254.257.003V12zm-.97-.015h-.253v.25l.25.004zm0-11.325V.407h-.253V.66zm.985 0h.253V.407h-.253zm-.011 11.087-.97-.015-.008.507.97.014zm-.72.238V.66h-.507v11.325zM29.124.914h.985V.407h-.985zm.732-.254L29.84 12h.506L30.363.66zM33.216 12h-.253v.254h.254zm0-7.46v-.254h-.253v.254zm.986 0h.253v-.254h-.253zm0 7.46v.254h.253V12zm-.732 0V4.54h-.507V12zm-.253-7.207h.985v-.507h-.985zm.731-.253V12h.507V4.54zm.254 7.206h-.985v.508h.985zm-1.224-9.594c0-.394.317-.716.731-.716V.929c-.69 0-1.238.544-1.238 1.223zm.731-.716c.397 0 .717.32.717.716h.507c0-.677-.547-1.223-1.224-1.223zm.717.716a.72.72 0 0 1-.717.732v.507c.68 0 1.224-.55 1.224-1.239zm-.717.732a.72.72 0 0 1-.731-.732h-.507c0 .692.546 1.239 1.238 1.239zM41.773 12v.254h.254V12zm-3.432 0h-.253v.254h.253zm0-6.58h.254v-.254h-.254zm-1.79 0h-.254v.253h.254zm0-.88v-.254h-.254v.254zm1.79 0v.253h.254V4.54zm0-2.343v-.253h-.253v.253zm.985 0h.254v-.253h-.254zm0 2.343h-.253v.253h.253zm2.298 0h.253v-.254h-.253zm0 .88v.253h.253V5.42zm-2.298 0v-.254h-.253v.253zm-.015 5.7-.253-.001-.001.254h.254zm2.462 0h.254v-.254h-.254zm0 .627h-3.432v.507h3.432zM38.595 12V5.42h-.507V12zm-.254-6.834h-1.79v.507h1.79zm-1.537.254v-.88h-.507v.88zm-.253-.627h1.79v-.507h-1.79zm2.044-.253V2.197h-.507V4.54zm-.254-2.09h.985v-.506h-.985zm.732-.253V4.54h.507V2.197zm.253 2.596h2.298v-.507h-2.298zm2.044-.253v.88h.507v-.88zm.254.626h-2.298v.507h2.298zm-2.551.253-.015 5.7.507.001.015-5.7zm.238 5.954h2.462v-.507h-2.462zm2.209-.253V12h.507v-.88zm3.855 3.864h-.254v.254h.254zm0-.074-.233-.101-.02.048v.053zm1.388-3.208.232.1.045-.102-.046-.102zm-3.194-7.088h-.253v.055l.022.05zm0-.074v-.254h-.253v.254zm1.134 0 .233-.101-.066-.153h-.167zm2.283 5.282.244-.07-.004-.016-.007-.015zm.254.895-.244.069.052.184h.192zm.15 0v.253h.194l.05-.188zm.238-.895-.234-.098-.007.016-.004.016zm2.208-5.282v-.254h-.169l-.065.156zm1.104 0h.254v-.254h-.254zm0 .074.233.102.02-.049v-.053zm-4.536 10.37v.254h.166l.067-.152zm-.776 0v-.074h-.507v.074zm-.02.026 1.387-3.208-.465-.201-1.388 3.208zm1.386-3.412L43.8 4.51l-.463.208 3.193 7.088zm-3.171-6.984V4.54h-.507v.074zm-.254.18h1.134v-.508H43.57zm.902-.154 2.283 5.282.465-.201-2.283-5.282zm2.271 5.25.254.896.488-.138-.254-.896zm.498 1.08h.15v-.507h-.15zm.394-.188.239-.895-.49-.13-.239.895zm.228-.863 2.208-5.282-.468-.195-2.208 5.282zm1.974-5.126h1.104v-.507h-1.104zm.85-.253v.074h.508V4.54zm.022-.027-4.536 10.37.465.203 4.536-10.37zM46.404 14.73h-1.03v.507h1.03z" mask="url(#a)"/><mask id="b" width="38" height="12" x="0" y="14.737" fill="#000" maskUnits="userSpaceOnUse"><path fill="#fff" d="M0 14.737h38v12H0z"/><path d="M.7 25.737v-9.802h6.442v.91H1.68v3.459h5.042v.91H1.68v3.613h5.742v.91zm15.157 0L13.49 22.25l-.406-.84h-.14l-.406.84-2.353 3.487H9.107v-.07l3.36-4.93-3.22-4.732v-.07h1.078l2.297 3.374.406.84h.14l.406-.84 2.283-3.374h1.078v.07l-3.291 4.831 3.29 4.831v.07zm6.685-4.831c1.19 0 2.184-.756 2.184-2.03 0-1.275-.994-2.031-2.184-2.031H20.02v4.061zm-3.501 4.831v-9.802h3.655c1.736 0 3.01 1.204 3.01 2.94 0 1.75-1.274 2.941-3.01 2.941H20.02v3.921zm13.257.21c-2.941 0-5.056-2.268-5.056-5.111 0-2.815 2.115-5.111 5.056-5.111 2.913 0 5.027 2.296 5.027 5.125s-2.114 5.097-5.027 5.097m-4.033-5.111c0 2.437 1.652 4.201 4.033 4.201 2.352 0 4.047-1.764 4.047-4.187 0-2.45-1.695-4.215-4.047-4.215-2.381 0-4.033 1.764-4.033 4.201"/></mask><path fill="#0b4b5f" d="M.7 25.737v-9.802h6.442v.91H1.68v3.459h5.042v.91H1.68v3.613h5.742v.91zm15.157 0L13.49 22.25l-.406-.84h-.14l-.406.84-2.353 3.487H9.107v-.07l3.36-4.93-3.22-4.732v-.07h1.078l2.297 3.374.406.84h.14l.406-.84 2.283-3.374h1.078v.07l-3.291 4.831 3.29 4.831v.07zm6.685-4.831c1.19 0 2.184-.756 2.184-2.03 0-1.275-.994-2.031-2.184-2.031H20.02v4.061zm-3.501 4.831v-9.802h3.655c1.736 0 3.01 1.204 3.01 2.94 0 1.75-1.274 2.941-3.01 2.941H20.02v3.921zm13.257.21c-2.941 0-5.056-2.268-5.056-5.111 0-2.815 2.115-5.111 5.056-5.111 2.913 0 5.027 2.296 5.027 5.125s-2.114 5.097-5.027 5.097m-4.033-5.111c0 2.437 1.652 4.201 4.033 4.201 2.352 0 4.047-1.764 4.047-4.187 0-2.45-1.695-4.215-4.047-4.215-2.381 0-4.033 1.764-4.033 4.201"/><path fill="#0b4b5f" d="M.7 25.737H.462v.238H.7zm0-9.802v-.238H.462v.238zm6.442 0h.238v-.238h-.238zm0 .91v.238h.238v-.238zm-5.462 0v-.238h-.238v.238zm0 3.459h-.238v.238h.238zm5.042 0h.238v-.238h-.238zm0 .91v.238h.238v-.238zm-5.042 0v-.238h-.238v.238zm0 3.613h-.238v.238h.238zm5.742 0h.238v-.238h-.238zm0 .91v.238h.238v-.238zm-6.484 0v-9.802H.462v9.802zM.7 16.173h6.442v-.476H.7zm6.204-.238v.91h.476v-.91zm.238.672H1.68v.476h5.462zm-5.7.238v3.459h.476v-3.46zm.238 3.697h5.042v-.476H1.68zm4.804-.238v.91h.476v-.91zm.238.672H1.68v.476h5.042zm-5.28.238v3.613h.476v-3.613zm.238 3.851h5.742v-.476H1.68zm5.504-.238v.91h.476v-.91zm.238.672H.7v.476h6.722zm8.435.238-.197.134.07.104h.127zM13.49 22.25l-.214.104.007.016.01.014zm-.406-.84.214-.103-.065-.135h-.15zm-.14 0v-.238h-.15l-.064.135zm-.406.84.197.133.01-.014.007-.015zm-2.353 3.487v.238h.127l.07-.105zm-1.078 0h-.238v.238h.238zm0-.07-.197-.134-.041.06v.074zm3.36-4.93.197.135.092-.134-.092-.134zm-3.22-4.732h-.238v.073l.041.06zm0-.07v-.238h-.238v.238zm1.078 0 .197-.134-.071-.104h-.126zm2.297 3.374.214-.103-.008-.016-.01-.014zm.406.84-.214.104.065.135h.149zm.14 0v.239h.15l.064-.135zm.406-.84-.197-.133-.01.015-.007.015zm2.283-3.374v-.238h-.127l-.07.104zm1.078 0h.238v-.238h-.238zm0 .07.197.134.04-.061v-.073zm-3.291 4.831-.197-.134-.09.134.09.134zm3.29 4.831h.239v-.073l-.041-.06zm0 .07v.238h.239v-.238zm-.88-.133-2.367-3.487-.394.267 2.367 3.487zm-2.35-3.457-.406-.84-.428.207.406.84zm-.62-.975h-.14v.476h.14zm-.354.135-.407.84.429.207.406-.84zm-.39.81-2.352 3.487.394.266 2.353-3.487zM10.186 25.5H9.107v.476h1.078zm-.84.238v-.07H8.87v.07zm-.042.064 3.361-4.929-.393-.268-3.36 4.93zm3.361-5.197-3.22-4.733-.394.268 3.221 4.733zm-3.18-4.6v-.07H9.01v.07zm-.237.168h1.078v-.475H9.247zm.881-.104 2.297 3.375.393-.267-2.296-3.375zm2.28 3.345.406.84.428-.207-.406-.84zm.62.975h.14v-.476h-.14zm.354-.135.406-.84-.428-.207-.406.84zm.39-.81 2.282-3.375-.394-.267-2.283 3.375zm2.085-3.27h1.078v-.476h-1.078zm.84-.238v.07h.476v-.07zm.041-.064-3.29 4.831.393.268 3.29-4.831zm-3.29 5.099 3.29 4.831.394-.268-3.291-4.831zm3.249 4.697v.07h.476v-.07zm.238-.168h-1.078v.476h1.078zm3.086-8.654v-.238h-.238v.238zm0 4.061h-.238v.238h.238zm-.98 4.831h-.238v.238h.238zm0-9.802v-.238h-.238v.238zm.98 5.881v-.238h-.238v.238zm0 3.921v.238h.238v-.238zm2.52-4.593c.645 0 1.25-.205 1.696-.596.45-.395.727-.969.727-1.673h-.476c0 .57-.22 1.013-.564 1.315-.348.305-.836.478-1.382.478zm2.423-2.269c0-.703-.277-1.277-.727-1.672-.447-.391-1.051-.596-1.695-.596v.476c.546 0 1.034.173 1.382.478.344.302.564.744.564 1.314zm-2.422-2.268H20.02v.476h2.52zm-2.759.238v4.061h.476v-4.061zm.238 4.299h2.52v-.476h-2.52zm-.742 4.593v-9.802h-.476v9.802zm-.238-9.564h3.655v-.476H19.04zm3.655 0c1.612 0 2.773 1.105 2.773 2.702h.476c0-1.875-1.389-3.178-3.25-3.178zm2.773 2.702c0 .816-.296 1.488-.782 1.956-.487.47-1.178.747-1.991.747v.476c.923 0 1.737-.317 2.321-.88.586-.565.928-1.363.928-2.299zm-2.773 2.703H20.02v.476h2.675zm-2.913.238v3.921h.476v-3.92zm.238 3.683h-.98v.476h.98zm12.277.21c-2.803 0-4.818-2.155-4.818-4.873h-.476c0 2.968 2.215 5.35 5.294 5.35zm-4.818-4.873c0-2.69 2.015-4.873 4.818-4.873v-.476c-3.08 0-5.294 2.41-5.294 5.349zm4.818-4.873c2.773 0 4.79 2.18 4.79 4.887h.475c0-2.952-2.213-5.363-5.265-5.363zm4.79 4.887c0 2.704-2.016 4.86-4.79 4.86v.475c3.05 0 5.265-2.382 5.265-5.335zm-9.061-.014c0 1.273.432 2.384 1.19 3.178.757.796 1.83 1.261 3.08 1.261V24.8c-1.128 0-2.073-.417-2.736-1.113-.665-.697-1.058-1.686-1.058-2.85zm4.27 4.439c2.493 0 4.286-1.88 4.286-4.425h-.476c0 2.3-1.596 3.95-3.81 3.95zm4.286-4.425c0-2.573-1.792-4.453-4.285-4.453v.476c2.212 0 3.809 1.648 3.809 3.977zm-4.285-4.453c-1.252 0-2.324.465-3.082 1.26-.757.795-1.19 1.906-1.19 3.179h.477c0-1.164.393-2.153 1.058-2.85.663-.696 1.608-1.113 2.737-1.113z" mask="url(#b)"/><path fill="#0b4b5f" d="M80.841 2.007h-19.19v4.785h12.132L61.65 16.393h-6.22a9.45 9.45 0 0 0-5.863 2.038L39.996 26h9.52l12.147-9.606h6.222a9.45 9.45 0 0 0 5.863-2.037l7.1-5.623v7.66h4.785V2.007z"/><path fill="#0b4b5f" d="M76.064 20.01V26h4.785v-9.605h-1.17a3.615 3.615 0 0 0-3.615 3.615"/></svg>