<svg width="86" height="26" viewBox="0 0 86 26" fill="none" xmlns="http://www.w3.org/2000/svg">
<mask id="path-1-outside-1_1_1503" maskUnits="userSpaceOnUse" x="0" y="0" width="52" height="16" fill="black">
<rect fill="white" width="52" height="16"/>
<path d="M1.7905 7.82217L1.7905 12H0.746042L0.746042 1.55541L5.08801 1.55541C6.93819 1.55541 8.29599 2.8386 8.29599 4.68879C8.29599 6.04659 7.41566 7.09104 6.31151 7.55359V7.7028L6.84867 8.29963L8.72869 11.9254V12H7.62455L5.52071 7.82217L1.7905 7.82217ZM1.7905 6.85231L4.92388 6.85231C6.19215 6.85231 7.25153 6.04659 7.25153 4.68879C7.25153 3.33099 6.19215 2.52527 4.92388 2.52527L1.7905 2.52527L1.7905 6.85231ZM13.9837 12.2238C11.5666 12.2238 10.0745 10.4632 10.0745 8.26979C10.0745 6.09135 11.5666 4.31577 13.8345 4.31577C16.0876 4.31577 17.5797 6.09135 17.5797 8.28471C17.5797 8.43392 17.5647 8.58313 17.5498 8.73234L11.104 8.73234C11.2681 10.1946 12.2828 11.3286 13.9837 11.3286C15.4012 11.3286 16.2517 10.5676 16.6844 9.4933L17.5349 9.926C16.953 11.2838 15.7742 12.2238 13.9837 12.2238ZM11.104 7.83709L16.58 7.83709C16.4158 6.35992 15.4012 5.21102 13.8345 5.21102C12.2529 5.21102 11.2532 6.35992 11.104 7.83709ZM22.3211 12.2238C20.7246 12.2238 19.8144 11.2092 19.8144 10.1051C19.8144 8.47868 21.0827 7.98629 22.7687 7.88185C24.0967 7.79232 25.1561 7.76248 25.1561 6.65834C25.1561 5.70341 24.2757 5.21102 23.3805 5.21102C21.9779 5.21102 21.3065 6.01674 21.0081 6.91199L20.0979 6.56881C20.5455 5.34531 21.5601 4.31577 23.3805 4.31577C24.8278 4.31577 26.1408 5.1961 26.1408 6.88215V8.86662L26.5885 11.9254V12H25.6037L25.4843 11.1495L25.4545 10.3289H25.3053L24.8726 11.1495C24.2757 11.806 23.3805 12.2238 22.3211 12.2238ZM20.8141 10.0304C20.8141 10.8063 21.4855 11.3286 22.5002 11.3286C24.1415 11.3286 25.1561 10.1797 25.1561 8.71742V8.07582C24.6488 8.53837 23.843 8.64281 22.7687 8.70249C21.5154 8.7771 20.8141 9.15012 20.8141 10.0304ZM30.094 12L29.1242 11.9851V0.660162L30.109 0.660162L30.094 12ZM33.2168 12V4.53958H34.2016V12H33.2168ZM32.7244 2.15225C32.7244 1.6151 33.1571 1.18239 33.7092 1.18239C34.2464 1.18239 34.6791 1.6151 34.6791 2.15225C34.6791 2.70432 34.2464 3.13702 33.7092 3.13702C33.1571 3.13702 32.7244 2.70432 32.7244 2.15225ZM41.7731 12L38.3413 12V5.41991L36.5508 5.41991V4.53958L38.3413 4.53958V2.19701H39.3261V4.53958L41.6239 4.53958V5.41991L39.3261 5.41991L39.3112 11.1197H41.7731V12ZM45.3749 14.9842V14.9096L46.7625 11.7016L43.5694 4.61418V4.53958H44.7034L46.9863 9.82156L47.24 10.7168H47.3892L47.6279 9.82156L49.8362 4.53958H50.9403V4.61418L46.4044 14.9842H45.3749Z"/>
</mask>
<path d="M1.7905 7.82217L1.7905 12H0.746042L0.746042 1.55541L5.08801 1.55541C6.93819 1.55541 8.29599 2.8386 8.29599 4.68879C8.29599 6.04659 7.41566 7.09104 6.31151 7.55359V7.7028L6.84867 8.29963L8.72869 11.9254V12H7.62455L5.52071 7.82217L1.7905 7.82217ZM1.7905 6.85231L4.92388 6.85231C6.19215 6.85231 7.25153 6.04659 7.25153 4.68879C7.25153 3.33099 6.19215 2.52527 4.92388 2.52527L1.7905 2.52527L1.7905 6.85231ZM13.9837 12.2238C11.5666 12.2238 10.0745 10.4632 10.0745 8.26979C10.0745 6.09135 11.5666 4.31577 13.8345 4.31577C16.0876 4.31577 17.5797 6.09135 17.5797 8.28471C17.5797 8.43392 17.5647 8.58313 17.5498 8.73234L11.104 8.73234C11.2681 10.1946 12.2828 11.3286 13.9837 11.3286C15.4012 11.3286 16.2517 10.5676 16.6844 9.4933L17.5349 9.926C16.953 11.2838 15.7742 12.2238 13.9837 12.2238ZM11.104 7.83709L16.58 7.83709C16.4158 6.35992 15.4012 5.21102 13.8345 5.21102C12.2529 5.21102 11.2532 6.35992 11.104 7.83709ZM22.3211 12.2238C20.7246 12.2238 19.8144 11.2092 19.8144 10.1051C19.8144 8.47868 21.0827 7.98629 22.7687 7.88185C24.0967 7.79232 25.1561 7.76248 25.1561 6.65834C25.1561 5.70341 24.2757 5.21102 23.3805 5.21102C21.9779 5.21102 21.3065 6.01674 21.0081 6.91199L20.0979 6.56881C20.5455 5.34531 21.5601 4.31577 23.3805 4.31577C24.8278 4.31577 26.1408 5.1961 26.1408 6.88215V8.86662L26.5885 11.9254V12H25.6037L25.4843 11.1495L25.4545 10.3289H25.3053L24.8726 11.1495C24.2757 11.806 23.3805 12.2238 22.3211 12.2238ZM20.8141 10.0304C20.8141 10.8063 21.4855 11.3286 22.5002 11.3286C24.1415 11.3286 25.1561 10.1797 25.1561 8.71742V8.07582C24.6488 8.53837 23.843 8.64281 22.7687 8.70249C21.5154 8.7771 20.8141 9.15012 20.8141 10.0304ZM30.094 12L29.1242 11.9851V0.660162L30.109 0.660162L30.094 12ZM33.2168 12V4.53958H34.2016V12H33.2168ZM32.7244 2.15225C32.7244 1.6151 33.1571 1.18239 33.7092 1.18239C34.2464 1.18239 34.6791 1.6151 34.6791 2.15225C34.6791 2.70432 34.2464 3.13702 33.7092 3.13702C33.1571 3.13702 32.7244 2.70432 32.7244 2.15225ZM41.7731 12L38.3413 12V5.41991L36.5508 5.41991V4.53958L38.3413 4.53958V2.19701H39.3261V4.53958L41.6239 4.53958V5.41991L39.3261 5.41991L39.3112 11.1197H41.7731V12ZM45.3749 14.9842V14.9096L46.7625 11.7016L43.5694 4.61418V4.53958H44.7034L46.9863 9.82156L47.24 10.7168H47.3892L47.6279 9.82156L49.8362 4.53958H50.9403V4.61418L46.4044 14.9842H45.3749Z" fill="#0B4B5F"/>
<path d="M1.7905 7.82217V7.56867H1.537V7.82217H1.7905ZM1.7905 12V12.2535H2.044V12H1.7905ZM0.746042 12H0.492545L0.492545 12.2535H0.746042L0.746042 12ZM0.746042 1.55541V1.30192H0.492545L0.492545 1.55541H0.746042ZM6.31151 7.55359L6.21357 7.31978L6.05802 7.38494V7.55359H6.31151ZM6.31151 7.7028H6.05802V7.80007L6.12309 7.87238L6.31151 7.7028ZM6.84867 8.29963L7.07371 8.18294L7.05878 8.15415L7.03709 8.13005L6.84867 8.29963ZM8.72869 11.9254H8.98219V11.8636L8.95373 11.8087L8.72869 11.9254ZM8.72869 12V12.2535H8.98219V12H8.72869ZM7.62455 12L7.39814 12.114L7.46838 12.2535H7.62455V12ZM5.52071 7.82217L5.74712 7.70815L5.67688 7.56867H5.52071V7.82217ZM1.7905 6.85231H1.537V7.10581H1.7905V6.85231ZM1.7905 2.52527V2.27177L1.537 2.27177V2.52527L1.7905 2.52527ZM1.537 7.82217L1.537 12H2.044L2.044 7.82217H1.537ZM1.7905 11.7465H0.746042L0.746042 12.2535H1.7905V11.7465ZM0.999539 12L0.999539 1.55541L0.492545 1.55541L0.492545 12H0.999539ZM0.746042 1.80891L5.08801 1.80891V1.30192L0.746042 1.30192L0.746042 1.80891ZM5.08801 1.80891C6.80619 1.80891 8.04249 2.98648 8.04249 4.68879H8.54948C8.54948 2.69073 7.07019 1.30192 5.08801 1.30192V1.80891ZM8.04249 4.68879C8.04249 5.92664 7.24105 6.88935 6.21357 7.31978L6.40946 7.7874C7.59027 7.29274 8.54948 6.16653 8.54948 4.68879H8.04249ZM6.05802 7.55359V7.7028H6.56501V7.55359H6.05802ZM6.12309 7.87238L6.66024 8.46921L7.03709 8.13005L6.49994 7.53322L6.12309 7.87238ZM6.62362 8.41632L8.50365 12.0421L8.95373 11.8087L7.07371 8.18294L6.62362 8.41632ZM8.47519 11.9254V12H8.98219V11.9254H8.47519ZM8.72869 11.7465H7.62455V12.2535H8.72869V11.7465ZM7.85096 11.886L5.74712 7.70815L5.2943 7.93618L7.39814 12.114L7.85096 11.886ZM5.52071 7.56867L1.7905 7.56867V8.07566H5.52071V7.56867ZM1.7905 7.10581L4.92388 7.10581V6.59881L1.7905 6.59881L1.7905 7.10581ZM4.92388 7.10581C5.61033 7.10581 6.25434 6.88769 6.73041 6.47034C7.21011 6.04981 7.50502 5.4388 7.50502 4.68879H6.99803C6.99803 5.29657 6.76325 5.76732 6.3962 6.0891C6.02551 6.41407 5.5057 6.59881 4.92388 6.59881V7.10581ZM7.50502 4.68879C7.50502 3.93878 7.21011 3.32776 6.73041 2.90723C6.25434 2.48988 5.61033 2.27177 4.92388 2.27177V2.77876C5.5057 2.77876 6.02551 2.96351 6.3962 3.28847C6.76325 3.61026 6.99803 4.081 6.99803 4.68879H7.50502ZM4.92388 2.27177L1.7905 2.27177L1.7905 2.77876L4.92388 2.77876V2.27177ZM1.537 2.52527L1.537 6.85231H2.044L2.044 2.52527L1.537 2.52527ZM17.5498 8.73234V8.98583H17.7792L17.8021 8.75756L17.5498 8.73234ZM11.104 8.73234V8.47884H10.8205L10.8521 8.76061L11.104 8.73234ZM16.6844 9.4933L16.7994 9.26736L16.5527 9.14186L16.4493 9.39859L16.6844 9.4933ZM17.5349 9.926L17.7679 10.0259L17.8614 9.8077L17.6499 9.70007L17.5349 9.926ZM11.104 7.83709L10.8518 7.81161L10.8236 8.09058H11.104V7.83709ZM16.58 7.83709V8.09058H16.8632L16.8319 7.80909L16.58 7.83709ZM13.9837 11.9703C12.84 11.9703 11.9309 11.5554 11.3069 10.8952C10.681 10.233 10.328 9.30905 10.328 8.26979H9.82098C9.82098 9.4239 10.214 10.477 10.9384 11.2434C11.6647 12.0119 12.7103 12.4773 13.9837 12.4773V11.9703ZM10.328 8.26979C10.328 6.21014 11.7269 4.56926 13.8345 4.56926V4.06227C11.4062 4.06227 9.82098 5.97256 9.82098 8.26979H10.328ZM13.8345 4.56926C15.926 4.56926 17.3262 6.20878 17.3262 8.28471H17.8332C17.8332 5.97391 16.2491 4.06227 13.8345 4.06227V4.56926ZM17.3262 8.28471C17.3262 8.41915 17.3127 8.55575 17.2976 8.70711L17.8021 8.75756C17.8168 8.61051 17.8332 8.44869 17.8332 8.28471H17.3262ZM17.5498 8.47884L11.104 8.47884V8.98583L17.5498 8.98583V8.47884ZM10.8521 8.76061C10.9398 9.54153 11.2563 10.2486 11.7922 10.7619C12.3303 11.2772 13.0738 11.5821 13.9837 11.5821V11.0751C13.1927 11.0751 12.5784 10.8129 12.1429 10.3957C11.7052 9.97645 11.4324 9.38538 11.3559 8.70406L10.8521 8.76061ZM13.9837 11.5821C14.7402 11.5821 15.361 11.3781 15.853 11.0184C16.343 10.6602 16.6896 10.1589 16.9196 9.58801L16.4493 9.39859C16.2465 9.90196 15.9515 10.3184 15.5538 10.6092C15.1579 10.8985 14.6447 11.0751 13.9837 11.0751V11.5821ZM16.5695 9.71924L17.42 10.1519L17.6499 9.70007L16.7994 9.26736L16.5695 9.71924ZM17.3019 9.82615C16.7571 11.0973 15.6659 11.9703 13.9837 11.9703V12.4773C15.8826 12.4773 17.1488 11.4703 17.7679 10.0259L17.3019 9.82615ZM11.104 8.09058L16.58 8.09058V7.58359L11.104 7.58359V8.09058ZM16.8319 7.80909C16.6565 6.2302 15.5555 4.95752 13.8345 4.95752V5.46452C15.2469 5.46452 16.1752 6.48965 16.328 7.86508L16.8319 7.80909ZM13.8345 4.95752C12.0979 4.95752 11.0114 6.23127 10.8518 7.81161L11.3562 7.86256C11.495 6.48857 12.4079 5.46452 13.8345 5.46452V4.95752ZM22.7687 7.88185L22.7844 8.13486L22.7858 8.13477L22.7687 7.88185ZM21.0081 6.91199L20.9186 7.14919L21.1652 7.24217L21.2486 6.99216L21.0081 6.91199ZM20.0979 6.56881L19.8598 6.48172L19.7736 6.71745L20.0085 6.80601L20.0979 6.56881ZM26.1408 8.86662H25.8873V8.88507L25.89 8.90333L26.1408 8.86662ZM26.5885 11.9254H26.842V11.9069L26.8393 11.8887L26.5885 11.9254ZM26.5885 12V12.2535H26.842V12H26.5885ZM25.6037 12L25.3527 12.0352L25.3833 12.2535H25.6037V12ZM25.4843 11.1495L25.231 11.1587L25.2315 11.1718L25.2333 11.1847L25.4843 11.1495ZM25.4545 10.3289L25.7078 10.3197L25.6989 10.0754H25.4545V10.3289ZM25.3053 10.3289V10.0754H25.1524L25.081 10.2106L25.3053 10.3289ZM24.8726 11.1495L25.0601 11.32L25.0818 11.2962L25.0968 11.2677L24.8726 11.1495ZM25.1561 8.07582H25.4096V7.50164L24.9853 7.8885L25.1561 8.07582ZM22.7687 8.70249L22.7547 8.44939L22.7537 8.44945L22.7687 8.70249ZM22.3211 11.9703C20.8435 11.9703 20.0679 11.049 20.0679 10.1051H19.5609C19.5609 11.3694 20.6057 12.4773 22.3211 12.4773V11.9703ZM20.0679 10.1051C20.0679 9.37187 20.3462 8.92547 20.7964 8.63594C21.2682 8.33256 21.9529 8.18637 22.7844 8.13486L22.7531 7.62884C21.8985 7.68177 21.1061 7.834 20.5222 8.20952C19.9167 8.59889 19.5609 9.21186 19.5609 10.1051H20.0679ZM22.7858 8.13477C23.4307 8.09129 24.0736 8.06095 24.547 7.88881C24.7918 7.79978 25.0136 7.666 25.1723 7.45521C25.3326 7.24236 25.4096 6.97627 25.4096 6.65834H24.9026C24.9026 6.89248 24.8471 7.04418 24.7673 7.15026C24.6859 7.2584 24.5598 7.3447 24.3738 7.41234C23.9855 7.55354 23.4347 7.58288 22.7517 7.62893L22.7858 8.13477ZM25.4096 6.65834C25.4096 6.09209 25.1442 5.65723 24.7535 5.37187C24.3698 5.09164 23.8706 4.95752 23.3805 4.95752V5.46452C23.7856 5.46452 24.1742 5.57659 24.4545 5.78129C24.7277 5.98086 24.9026 6.26965 24.9026 6.65834H25.4096ZM23.3805 4.95752C22.6272 4.95752 22.0499 5.17528 21.6191 5.53011C21.1917 5.88203 20.9271 6.35324 20.7676 6.83183L21.2486 6.99216C21.3874 6.5755 21.6077 6.19622 21.9414 5.92147C22.2715 5.64962 22.7312 5.46452 23.3805 5.46452V4.95752ZM21.0975 6.6748L20.1873 6.33162L20.0085 6.80601L20.9186 7.14919L21.0975 6.6748ZM20.336 6.65591C20.5467 6.07996 20.8869 5.56031 21.3783 5.18492C21.8674 4.81129 22.5209 4.56926 23.3805 4.56926V4.06227C22.4197 4.06227 21.6557 4.33501 21.0705 4.78203C20.4877 5.22729 20.0967 5.83417 19.8598 6.48172L20.336 6.65591ZM23.3805 4.56926C24.0552 4.56926 24.684 4.77465 25.1397 5.16021C25.5901 5.54132 25.8873 6.11124 25.8873 6.88215H26.3943C26.3943 5.96701 26.0351 5.25374 25.4672 4.77317C24.9045 4.29705 24.1531 4.06227 23.3805 4.06227V4.56926ZM25.8873 6.88215V8.86662H26.3943V6.88215H25.8873ZM25.89 8.90333L26.3376 11.9621L26.8393 11.8887L26.3917 8.82992L25.89 8.90333ZM26.335 11.9254V12H26.842V11.9254H26.335ZM26.5885 11.7465H25.6037V12.2535H26.5885V11.7465ZM25.8547 11.9648L25.7354 11.1143L25.2333 11.1847L25.3527 12.0352L25.8547 11.9648ZM25.7377 11.1403L25.7078 10.3197L25.2012 10.3381L25.231 11.1587L25.7377 11.1403ZM25.4545 10.0754H25.3053V10.5824H25.4545V10.0754ZM25.081 10.2106L24.6483 11.0313L25.0968 11.2677L25.5295 10.4471L25.081 10.2106ZM24.685 10.979C24.1382 11.5805 23.312 11.9703 22.3211 11.9703V12.4773C23.4489 12.4773 24.4133 12.0316 25.0601 11.32L24.685 10.979ZM20.5606 10.0304C20.5606 10.4991 20.7666 10.8969 21.1217 11.1711C21.4714 11.4411 21.9519 11.5821 22.5002 11.5821V11.0751C22.0338 11.0751 21.6712 10.9549 21.4316 10.7698C21.1973 10.5889 21.0676 10.3377 21.0676 10.0304H20.5606ZM22.5002 11.5821C23.3825 11.5821 24.114 11.2718 24.625 10.7484C25.1347 10.2263 25.4096 9.50769 25.4096 8.71742H24.9026C24.9026 9.38938 24.6701 9.9764 24.2622 10.3943C23.8555 10.8108 23.2592 11.0751 22.5002 11.0751V11.5821ZM25.4096 8.71742V8.07582H24.9026V8.71742H25.4096ZM24.9853 7.8885C24.7753 8.07995 24.4931 8.20735 24.1184 8.29313C23.742 8.37933 23.2906 8.41962 22.7547 8.44939L22.7828 8.9556C23.3212 8.92569 23.8098 8.88391 24.2316 8.78733C24.6552 8.69033 25.0295 8.53423 25.3269 8.26314L24.9853 7.8885ZM22.7537 8.44945C22.1134 8.48756 21.572 8.60283 21.1847 8.85086C20.7766 9.11224 20.5606 9.50795 20.5606 10.0304H21.0676C21.0676 9.67262 21.2023 9.44166 21.4581 9.27779C21.7348 9.10057 22.1707 8.99204 22.7838 8.95554L22.7537 8.44945ZM30.094 12L30.0902 12.2535L30.3472 12.2574L30.3475 12.0003L30.094 12ZM29.1242 11.9851H28.8707V12.2347L29.1203 12.2385L29.1242 11.9851ZM29.1242 0.660162V0.406665H28.8707V0.660162H29.1242ZM30.109 0.660162L30.3625 0.660496L30.3628 0.406665H30.109V0.660162ZM30.0979 11.7465L29.1281 11.7316L29.1203 12.2385L30.0902 12.2535L30.0979 11.7465ZM29.3777 11.9851V0.660162H28.8707V11.9851H29.3777ZM29.1242 0.913659L30.109 0.913659V0.406665L29.1242 0.406665V0.913659ZM29.8555 0.659829L29.8406 11.9997L30.3475 12.0003L30.3625 0.660496L29.8555 0.659829ZM33.2168 12H32.9633V12.2535H33.2168V12ZM33.2168 4.53958V4.28608H32.9633V4.53958H33.2168ZM34.2016 4.53958H34.4551V4.28608H34.2016V4.53958ZM34.2016 12V12.2535H34.4551V12H34.2016ZM33.4703 12V4.53958H32.9633V12H33.4703ZM33.2168 4.79308H34.2016V4.28608H33.2168V4.79308ZM33.9481 4.53958V12H34.4551V4.53958H33.9481ZM34.2016 11.7465H33.2168V12.2535H34.2016V11.7465ZM32.9779 2.15225C32.9779 1.75762 33.2946 1.43589 33.7092 1.43589V0.928895C33.0197 0.928895 32.4709 1.47257 32.4709 2.15225H32.9779ZM33.7092 1.43589C34.1064 1.43589 34.4256 1.7551 34.4256 2.15225L34.9326 2.15225C34.9326 1.47509 34.3864 0.928895 33.7092 0.928895V1.43589ZM34.4256 2.15225C34.4256 2.56685 34.1038 2.88352 33.7092 2.88352V3.39052C34.3889 3.39052 34.9326 2.84178 34.9326 2.15225L34.4256 2.15225ZM33.7092 2.88352C33.2971 2.88352 32.9779 2.56431 32.9779 2.15225H32.4709C32.4709 2.84432 33.0171 3.39052 33.7092 3.39052V2.88352ZM41.7731 12V12.2535H42.0266V12H41.7731ZM38.3413 12H38.0878V12.2535H38.3413V12ZM38.3413 5.41991H38.5948V5.16641H38.3413V5.41991ZM36.5508 5.41991H36.2973V5.67341H36.5508V5.41991ZM36.5508 4.53958V4.28608H36.2973V4.53958H36.5508ZM38.3413 4.53958V4.79308H38.5948V4.53958H38.3413ZM38.3413 2.19701V1.94351H38.0878V2.19701H38.3413ZM39.3261 2.19701H39.5796V1.94351L39.3261 1.94351V2.19701ZM39.3261 4.53958H39.0726V4.79308H39.3261V4.53958ZM41.6239 4.53958H41.8774V4.28608H41.6239V4.53958ZM41.6239 5.41991V5.67341H41.8774V5.41991H41.6239ZM39.3261 5.41991V5.16641H39.0732L39.0726 5.41925L39.3261 5.41991ZM39.3112 11.1197L39.0577 11.119L39.057 11.3732H39.3112V11.1197ZM41.7731 11.1197H42.0266V10.8662H41.7731V11.1197ZM41.7731 11.7465L38.3413 11.7465V12.2535L41.7731 12.2535V11.7465ZM38.5948 12V5.41991H38.0878V12H38.5948ZM38.3413 5.16641L36.5508 5.16641V5.67341L38.3413 5.67341V5.16641ZM36.8043 5.41991V4.53958H36.2973V5.41991H36.8043ZM36.5508 4.79308L38.3413 4.79308V4.28608L36.5508 4.28608V4.79308ZM38.5948 4.53958V2.19701H38.0878V4.53958H38.5948ZM38.3413 2.45051H39.3261V1.94351H38.3413V2.45051ZM39.0726 2.19701V4.53958H39.5796V2.19701H39.0726ZM39.3261 4.79308L41.6239 4.79308V4.28608L39.3261 4.28608V4.79308ZM41.3704 4.53958V5.41991H41.8774V4.53958H41.3704ZM41.6239 5.16641L39.3261 5.16641V5.67341L41.6239 5.67341V5.16641ZM39.0726 5.41925L39.0577 11.119L39.5647 11.1203L39.5796 5.42057L39.0726 5.41925ZM39.3112 11.3732H41.7731V10.8662H39.3112V11.3732ZM41.5196 11.1197V12H42.0266V11.1197H41.5196ZM45.3749 14.9842H45.1214V15.2377H45.3749V14.9842ZM45.3749 14.9096L45.1422 14.8089L45.1214 14.8571V14.9096H45.3749ZM46.7625 11.7016L46.9952 11.8022L47.0396 11.6995L46.9936 11.5975L46.7625 11.7016ZM43.5694 4.61418H43.3159V4.66865L43.3383 4.71831L43.5694 4.61418ZM43.5694 4.53958V4.28608H43.3159V4.53958H43.5694ZM44.7034 4.53958L44.9361 4.43901L44.87 4.28608H44.7034V4.53958ZM46.9863 9.82156L47.2302 9.75245L47.2256 9.73635L47.219 9.72099L46.9863 9.82156ZM47.24 10.7168L46.9961 10.7859L47.0483 10.9703H47.24V10.7168ZM47.3892 10.7168V10.9703H47.5839L47.6341 10.7821L47.3892 10.7168ZM47.6279 9.82156L47.394 9.72378L47.3874 9.73963L47.383 9.75624L47.6279 9.82156ZM49.8362 4.53958V4.28608H49.6674L49.6023 4.4418L49.8362 4.53958ZM50.9403 4.53958L51.1938 4.53958V4.28608L50.9403 4.28608V4.53958ZM50.9403 4.61418L51.1726 4.71577L51.1938 4.6672V4.61418L50.9403 4.61418ZM46.4044 14.9842V15.2377H46.5702L46.6366 15.0858L46.4044 14.9842ZM45.6283 14.9842V14.9096H45.1214V14.9842H45.6283ZM45.6075 15.0102L46.9952 11.8022L46.5298 11.6009L45.1422 14.8089L45.6075 15.0102ZM46.9936 11.5975L43.8006 4.51006L43.3383 4.71831L46.5314 11.8057L46.9936 11.5975ZM43.8229 4.61418V4.53958H43.3159V4.61418H43.8229ZM43.5694 4.79308H44.7034V4.28608H43.5694V4.79308ZM44.4707 4.64015L46.7536 9.92213L47.219 9.72099L44.9361 4.43901L44.4707 4.64015ZM46.7424 9.89066L46.9961 10.7859L47.4839 10.6477L47.2302 9.75245L46.7424 9.89066ZM47.24 10.9703H47.3892V10.4633H47.24V10.9703ZM47.6341 10.7821L47.8728 9.88687L47.383 9.75624L47.1442 10.6515L47.6341 10.7821ZM47.8618 9.91934L50.0701 4.63736L49.6023 4.4418L47.394 9.72378L47.8618 9.91934ZM49.8362 4.79308H50.9403V4.28608H49.8362V4.79308ZM50.6868 4.53958V4.61418L51.1938 4.61418V4.53958L50.6868 4.53958ZM50.7081 4.5126L46.1721 14.8826L46.6366 15.0858L51.1726 4.71577L50.7081 4.5126ZM46.4044 14.7307H45.3749V15.2377H46.4044V14.7307Z" fill="#0B4B5F" mask="url(#path-1-outside-1_1_1503)"/>
<mask id="path-3-outside-2_1_1503" maskUnits="userSpaceOnUse" x="-6.10352e-05" y="14.7373" width="38" height="12" fill="black">
<rect fill="white" x="-6.10352e-05" y="14.7373" width="38" height="12"/>
<path d="M0.70013 25.7373L0.70013 15.9346L7.14189 15.9346V16.8449H1.6804L1.6804 20.3038H6.72178V21.2141H1.6804L1.6804 24.8271H7.42197V25.7373H0.70013ZM15.8566 25.7373L13.49 22.2504L13.0839 21.4101H12.9439L12.5377 22.2504L10.1851 25.7373H9.1068V25.6673L12.4677 20.7379L9.24684 16.0046V15.9346H10.3251L12.6218 19.3095L13.0279 20.1498H13.1679L13.574 19.3095L15.8566 15.9346L16.9349 15.9346V16.0046L13.644 20.836L16.9349 25.6673V25.7373L15.8566 25.7373ZM22.5417 20.906C23.732 20.906 24.7263 20.1498 24.7263 18.8754C24.7263 17.6011 23.732 16.8449 22.5417 16.8449H20.021V20.906H22.5417ZM19.0408 25.7373V15.9346H22.6958C24.4322 15.9346 25.7066 17.139 25.7066 18.8754C25.7066 20.6259 24.4322 21.8162 22.6958 21.8162H20.021V25.7373H19.0408ZM32.2977 25.9474C29.3569 25.9474 27.2423 23.6787 27.2423 20.836C27.2423 18.0212 29.3569 15.7246 32.2977 15.7246C35.2105 15.7246 37.3251 18.0212 37.3251 20.85C37.3251 23.6787 35.2105 25.9474 32.2977 25.9474ZM28.2646 20.836C28.2646 23.2726 29.917 25.0371 32.2977 25.0371C34.6503 25.0371 36.3448 23.2726 36.3448 20.85C36.3448 18.3993 34.6503 16.6348 32.2977 16.6348C29.917 16.6348 28.2646 18.3993 28.2646 20.836Z"/>
</mask>
<path d="M0.70013 25.7373L0.70013 15.9346L7.14189 15.9346V16.8449H1.6804L1.6804 20.3038H6.72178V21.2141H1.6804L1.6804 24.8271H7.42197V25.7373H0.70013ZM15.8566 25.7373L13.49 22.2504L13.0839 21.4101H12.9439L12.5377 22.2504L10.1851 25.7373H9.1068V25.6673L12.4677 20.7379L9.24684 16.0046V15.9346H10.3251L12.6218 19.3095L13.0279 20.1498H13.1679L13.574 19.3095L15.8566 15.9346L16.9349 15.9346V16.0046L13.644 20.836L16.9349 25.6673V25.7373L15.8566 25.7373ZM22.5417 20.906C23.732 20.906 24.7263 20.1498 24.7263 18.8754C24.7263 17.6011 23.732 16.8449 22.5417 16.8449H20.021V20.906H22.5417ZM19.0408 25.7373V15.9346H22.6958C24.4322 15.9346 25.7066 17.139 25.7066 18.8754C25.7066 20.6259 24.4322 21.8162 22.6958 21.8162H20.021V25.7373H19.0408ZM32.2977 25.9474C29.3569 25.9474 27.2423 23.6787 27.2423 20.836C27.2423 18.0212 29.3569 15.7246 32.2977 15.7246C35.2105 15.7246 37.3251 18.0212 37.3251 20.85C37.3251 23.6787 35.2105 25.9474 32.2977 25.9474ZM28.2646 20.836C28.2646 23.2726 29.917 25.0371 32.2977 25.0371C34.6503 25.0371 36.3448 23.2726 36.3448 20.85C36.3448 18.3993 34.6503 16.6348 32.2977 16.6348C29.917 16.6348 28.2646 18.3993 28.2646 20.836Z" fill="#0B4B5F"/>
<path d="M0.70013 25.7373H0.462213L0.462213 25.9752H0.70013L0.70013 25.7373ZM0.70013 15.9346V15.6967H0.462213L0.462213 15.9346H0.70013ZM7.14189 15.9346H7.37981V15.6967H7.14189V15.9346ZM7.14189 16.8449V17.0828H7.37981V16.8449H7.14189ZM1.6804 16.8449V16.607H1.44248V16.8449H1.6804ZM1.6804 20.3038H1.44248V20.5417H1.6804V20.3038ZM6.72178 20.3038H6.95969V20.0659H6.72178V20.3038ZM6.72178 21.2141V21.452H6.95969V21.2141H6.72178ZM1.6804 21.2141V20.9762H1.44248V21.2141H1.6804ZM1.6804 24.8271H1.44248V25.065H1.6804V24.8271ZM7.42197 24.8271H7.65988V24.5891H7.42197V24.8271ZM7.42197 25.7373V25.9752H7.65988V25.7373H7.42197ZM0.938048 25.7373L0.938048 15.9346H0.462213L0.462213 25.7373H0.938048ZM0.70013 16.1725H7.14189V15.6967L0.70013 15.6967L0.70013 16.1725ZM6.90397 15.9346V16.8449H7.37981V15.9346H6.90397ZM7.14189 16.607H1.6804V17.0828H7.14189V16.607ZM1.44248 16.8449L1.44248 20.3038H1.91832L1.91832 16.8449H1.44248ZM1.6804 20.5417H6.72178V20.0659H1.6804V20.5417ZM6.48386 20.3038V21.2141H6.95969V20.3038H6.48386ZM6.72178 20.9762H1.6804V21.452H6.72178V20.9762ZM1.44248 21.2141L1.44248 24.8271H1.91832L1.91832 21.2141H1.44248ZM1.6804 25.065H7.42197V24.5891H1.6804L1.6804 25.065ZM7.18405 24.8271V25.7373H7.65988V24.8271H7.18405ZM7.42197 25.4994H0.70013L0.70013 25.9752H7.42197V25.4994ZM15.8566 25.7373L15.6598 25.8709L15.7306 25.9752H15.8566V25.7373ZM13.49 22.2504L13.2758 22.3539L13.2834 22.3696L13.2931 22.384L13.49 22.2504ZM13.0839 21.4101L13.2981 21.3066L13.2331 21.1722H13.0839L13.0839 21.4101ZM12.9439 21.4101L12.9439 21.1722H12.7946L12.7296 21.3066L12.9439 21.4101ZM12.5377 22.2504L12.735 22.3834L12.7445 22.3693L12.7519 22.3539L12.5377 22.2504ZM10.1851 25.7373V25.9752H10.3116L10.3823 25.8704L10.1851 25.7373ZM9.1068 25.7373H8.86889V25.9752H9.1068V25.7373ZM9.1068 25.6673L8.91023 25.5333L8.86889 25.5939V25.6673H9.1068ZM12.4677 20.7379L12.6643 20.872L12.7556 20.7381L12.6644 20.6041L12.4677 20.7379ZM9.24684 16.0046H9.00892V16.0779L9.05014 16.1385L9.24684 16.0046ZM9.24684 15.9346V15.6967H9.00892V15.9346H9.24684ZM10.3251 15.9346L10.5218 15.8008L10.451 15.6967H10.3251V15.9346ZM12.6218 19.3095L12.836 19.206L12.8283 19.1902L12.8185 19.1757L12.6218 19.3095ZM13.0279 20.1498L12.8137 20.2533L12.8786 20.3877H13.0279V20.1498ZM13.1679 20.1498V20.3877H13.3172L13.3821 20.2533L13.1679 20.1498ZM13.574 19.3095L13.3769 19.1763L13.3673 19.1905L13.3598 19.206L13.574 19.3095ZM15.8566 15.9346V15.6967H15.7303L15.6596 15.8013L15.8566 15.9346ZM16.9349 15.9346H17.1729V15.6967H16.9349V15.9346ZM16.9349 16.0046L17.1316 16.1386L17.1729 16.078V16.0046H16.9349ZM13.644 20.836L13.4474 20.702L13.3562 20.836L13.4474 20.9699L13.644 20.836ZM16.9349 25.6673H17.1729V25.594L17.1316 25.5333L16.9349 25.6673ZM16.9349 25.7373V25.9752H17.1729V25.7373H16.9349ZM16.0535 25.6037L13.6869 22.1167L13.2931 22.384L15.6598 25.8709L16.0535 25.6037ZM13.7042 22.1468L13.2981 21.3066L12.8697 21.5137L13.2758 22.3539L13.7042 22.1468ZM13.0839 21.1722H12.9439L12.9439 21.648H13.0839L13.0839 21.1722ZM12.7296 21.3066L12.3235 22.1468L12.7519 22.3539L13.1581 21.5137L12.7296 21.3066ZM12.3405 22.1173L9.98787 25.6042L10.3823 25.8704L12.735 22.3834L12.3405 22.1173ZM10.1851 25.4994H9.1068V25.9752H10.1851V25.4994ZM9.34472 25.7373V25.6673H8.86889V25.7373H9.34472ZM9.30338 25.8013L12.6643 20.872L12.2711 20.6039L8.91023 25.5333L9.30338 25.8013ZM12.6644 20.6041L9.44354 15.8708L9.05014 16.1385L12.271 20.8718L12.6644 20.6041ZM9.48476 16.0046V15.9346H9.00892V16.0046H9.48476ZM9.24684 16.1725H10.3251V15.6967H9.24684V16.1725ZM10.1284 16.0685L12.4251 19.4434L12.8185 19.1757L10.5218 15.8008L10.1284 16.0685ZM12.4076 19.4131L12.8137 20.2533L13.2421 20.0462L12.836 19.206L12.4076 19.4131ZM13.0279 20.3877H13.1679V19.9119H13.0279V20.3877ZM13.3821 20.2533L13.7882 19.4131L13.3598 19.206L12.9537 20.0462L13.3821 20.2533ZM13.7711 19.4428L16.0537 16.0679L15.6596 15.8013L13.3769 19.1763L13.7711 19.4428ZM15.8566 16.1725H16.9349V15.6967L15.8566 15.6967V16.1725ZM16.697 15.9346V16.0046H17.1729V15.9346H16.697ZM16.7383 15.8707L13.4474 20.702L13.8407 20.9699L17.1316 16.1386L16.7383 15.8707ZM13.4474 20.9699L16.7383 25.8012L17.1316 25.5333L13.8407 20.702L13.4474 20.9699ZM16.697 25.6673V25.7373H17.1729V25.6673H16.697ZM16.9349 25.4994L15.8566 25.4994V25.9752L16.9349 25.9752V25.4994ZM20.021 16.8449V16.607H19.7831V16.8449H20.021ZM20.021 20.906H19.7831V21.1439H20.021V20.906ZM19.0408 25.7373H18.8028V25.9752H19.0408V25.7373ZM19.0408 15.9346V15.6967H18.8028V15.9346H19.0408ZM20.021 21.8162V21.5783H19.7831V21.8162H20.021ZM20.021 25.7373V25.9752H20.259V25.7373H20.021ZM22.5417 21.1439C23.186 21.1439 23.7904 20.9392 24.2372 20.5475C24.6874 20.1528 24.9642 19.5793 24.9642 18.8754H24.4884C24.4884 19.4459 24.2681 19.8877 23.9236 20.1897C23.5757 20.4947 23.0878 20.6681 22.5417 20.6681V21.1439ZM24.9642 18.8754C24.9642 18.1715 24.6874 17.5981 24.2372 17.2034C23.7904 16.8117 23.186 16.607 22.5417 16.607V17.0828C23.0878 17.0828 23.5757 17.2562 23.9236 17.5612C24.2681 17.8632 24.4884 18.305 24.4884 18.8754H24.9642ZM22.5417 16.607H20.021V17.0828H22.5417V16.607ZM19.7831 16.8449V20.906H20.259V16.8449H19.7831ZM20.021 21.1439H22.5417V20.6681H20.021V21.1439ZM19.2787 25.7373V15.9346H18.8028V25.7373H19.2787ZM19.0408 16.1725H22.6958V15.6967H19.0408V16.1725ZM22.6958 16.1725C24.3084 16.1725 25.4687 17.2777 25.4687 18.8754H25.9445C25.9445 17.0002 24.5561 15.6967 22.6958 15.6967V16.1725ZM25.4687 18.8754C25.4687 19.6906 25.1732 20.3625 24.6872 20.831C24.2004 21.3003 23.5089 21.5783 22.6958 21.5783V22.0542C23.6191 22.0542 24.433 21.737 25.0175 21.1735C25.6028 20.6093 25.9445 19.8108 25.9445 18.8754H25.4687ZM22.6958 21.5783H20.021V22.0542H22.6958V21.5783ZM19.7831 21.8162V25.7373H20.259V21.8162H19.7831ZM20.021 25.4994H19.0408V25.9752H20.021V25.4994ZM32.2977 25.7094C29.4947 25.7094 27.4802 23.5539 27.4802 20.836H27.0044C27.0044 23.8036 29.2191 26.1853 32.2977 26.1853V25.7094ZM27.4802 20.836C27.4802 18.1452 29.4955 15.9625 32.2977 15.9625V15.4867C29.2182 15.4867 27.0044 17.8972 27.0044 20.836H27.4802ZM32.2977 15.9625C35.0705 15.9625 37.0871 18.1439 37.0871 20.85H37.563C37.563 17.8985 35.3504 15.4867 32.2977 15.4867V15.9625ZM37.0871 20.85C37.0871 23.5543 35.0722 25.7094 32.2977 25.7094V26.1853C35.3488 26.1853 37.563 23.8032 37.563 20.85H37.0871ZM28.0267 20.836C28.0267 22.1087 28.4589 23.2199 29.2162 24.0144C29.9743 24.8099 31.0461 25.275 32.2977 25.275V24.7992C31.1686 24.7992 30.2239 24.3821 29.5606 23.6861C28.8965 22.9893 28.5025 21.9999 28.5025 20.836H28.0267ZM32.2977 25.275C34.7897 25.275 36.5827 23.3959 36.5827 20.85H36.1069C36.1069 23.1494 34.5109 24.7992 32.2977 24.7992V25.275ZM36.5827 20.85C36.5827 18.2771 34.7907 16.3969 32.2977 16.3969V16.8727C34.5099 16.8727 36.1069 18.5215 36.1069 20.85H36.5827ZM32.2977 16.3969C31.0461 16.3969 29.9743 16.862 29.2162 17.6575C28.4589 18.4521 28.0267 19.5632 28.0267 20.836H28.5025C28.5025 19.672 28.8965 18.6826 29.5606 17.9858C30.2239 17.2899 31.1686 16.8727 32.2977 16.8727V16.3969Z" fill="#0B4B5F" mask="url(#path-3-outside-2_1_1503)"/>
<path d="M80.8411 2.00684L61.6518 2.00684V6.79202L73.7829 6.79202L61.6514 16.3934L55.4286 16.3934C53.3007 16.3934 51.2349 17.1114 49.5658 18.4312L39.9966 25.9988H49.5159L61.6626 16.3934L67.8854 16.3934C70.0133 16.3934 72.0791 15.6753 73.7482 14.3556L80.8478 8.73291V16.3934H85.633V2.00684L80.8411 2.00684Z" fill="#0B4B5F"/>
<path d="M76.0635 20.0097V26.0004H80.8487V16.395H79.6783C77.6818 16.395 76.0635 18.0133 76.0635 20.0097Z" fill="#0B4B5F"/>
</svg>
