<svg xmlns="http://www.w3.org/2000/svg" xml:space="preserve" id="Layer_1" x="0" y="0" viewBox="0 0 4000 4000"><style>.st0{fill:#f3d311}.st1{fill:#020305}.st4{fill:#f4b889}</style><path d="M1002.85 2621.07c-30.93-35.07-68.27-82.8-103.73-143.77-27.8-47.81-44.45-86.56-64.39-133-19.11-44.5-41.71-101.81-63.69-170.23l-149.34-5.71c-8.92-.34-15.98-7.67-16-16.6l-.39-253.87c-.03-20.67 16.14-37.74 36.79-38.82 45.58-2.38 91.16-4.75 136.74-7.13.16-2.13.15-5.56-1.33-9.21-3.83-9.44-14.62-13.24-17.56-14.36-25.84-9.84-70.45-50.68-80.24-59.63-7.68-7.03-32.68-30.98-50.11-68.84-11.09-24.1-14.85-44.57-18.26-67.44-9.49-63.52-15.54-103.98-13.58-158.29 2.58-71.54 6.03-167.43 56.2-242.59 93.6-140.23 302.37-137.23 327.82-136.51 53.68-67.14 377.68-458.95 934.79-498.01 686.59-48.14 1109.25 482.81 1142.34 525.88 4.53-.19 11.62-.49 20.29-.94 34.43-1.75 45.93-3.18 68.06-3.75 9.66-.25 19.95-.51 33.09 0 21.83.84 49.3 1.91 79.3 11.55 11.5 3.7 35.39 11.61 59.63 30.6 36.73 28.77 51.63 65.27 59.63 85.55s13.19 41.35 18.11 105.84c4.49 58.87 4.94 103.86 5.13 127.83 1.36 168.57.03 201.78-8.09 248.38-9.22 52.9-19.24 77.46-30.44 97.41-24.76 44.11-58.42 71.26-80.55 86.17-1.62 2.8-3.82 7.04-5.62 12.49-2.66 8.06-2.84 13.89-3.75 23.42-.78 8.15-2.09 16.23-3.12 24.35 0 0-1.62 12.79-5 34.34-3.36 21.46-15.11 83.1-26.54 126.13-29.48 111.06-94.13 238.89-103.34 256.95-31.38 61.52-76.03 139.69-138.15 225.39-110.17 90.55-215 176.72-325.17 267.27l-198.56 91.79-979.71 91.79-108.65-54.32-18.73-103.03-170.93-122.7c-64.32-54.8-128.64-109.59-192.95-164.38" class="st0"/><path d="M690.48 1939.67v143.3c193.02-8.42 340.2-15.88 422.11-17.17 11.54-.18 65.97-.94 126.13-26.85 41.19-17.74 59.33-36.19 68.22-46.7 19.03-22.51 26.25-44.81 33.56-68.19 6.94-22.18 15.24-58.06 13.11-104.28-3.95-64.52-7.91-129.05-11.86-193.57 0 0-21.85-93.04-114.89-97.41s-322.82 3.75-322.82 3.75c-12.81-.15-21.03-3.91-26.47-8.47-7.53-6.32-11.26-15.47-13.49-83 0 0-.65-19.71.27-53.66.72-26.35 1.75-32.58 5.35-39.07 10.06-18.16 32.25-24.09 44.33-26.23 57.52-6.93 117.08-13.04 178.58-18.11 71.27-5.87 140.23-9.93 206.68-12.49l.94-146.11s-417.74 30.91-435.53 40.27c0 0-156.42 14.99-174.21 154.54 0 0-37.47 250.08 48.7 324.07 0 0 52.45 59.94 227.6 34.66 28.41-2.21 58.55-3.72 90.27-4.21 31.89-.5 62.22.07 90.81 1.41 3.6-.34 11.27-.52 17.17 4.37 5.42 4.48 6.69 11.02 7.49 15.92 3.83 23.41 2.34 43.01 2.5 63.69.07 8.95.35 5.32.94 24.66.69 22.63.71 40.94.62 52.92-2 8.86-5.8 19.48-13.21 29.75-26.87 37.26-77.22 36.77-83.89 36.6-129.67 5.21-259.34 10.41-389.01 15.61m1239.87-616.76s-316.58-3.75-402.75 29.04c0 0-106.16 18.73-107.71 155.48 0 0-9.37 392.44 17.79 443.02 0 0 38.4 73.05 140.5 65.56 0 0 344.68-19.67 383.08-38.4 0 0 86.17-6.32 99.29-144.6v-375.22c0-.01-9.38-126.45-130.2-134.88m-62.2 520.31c-25.79 27.91-61.31 25.04-65.33 24.64-4.97.52-13.25 1.38-23.47 2.47-123.26 13.1-147.92 18.01-166.7 2.41-8.41-6.97-20.27-21.91-21.26-57.15-.56-96.06-1.14-192.11-1.7-288.17-.33-3.1-2.65-29.16 17.49-48.41 17.78-16.98 39.86-16.07 43.59-15.85 62.32-2.1 124.64-4.19 186.96-6.3 21.51 1.47 40.01 13.06 47.77 30.6 5.37 12.13 4.07 23.64 2.97 29.34l-.16 264.12c.51 4.66 3.68 36.5-20.16 62.3m245.07-499.24v141.43l88.98-6.56v468.31l177.96-12.18c-.16-159.23-.31-318.45-.47-477.68l191.11-11.97c-.07-46.79-.13-93.59-.2-140.38-63.79 4.85-127.59 9.7-191.38 14.54-3.48-25.75-4.7-47.93-5-65.43-.38-22.43.75-37.57 10.3-51.51 3.69-5.39 7.49-8.92 9.68-10.93 15.7-14.41 34.3-18.99 45.89-20.61l183.58-7.81v-125.82c-61.18-1.99-112.31 1.06-149.94 4.68-78.74 7.59-128.72 20.61-169.92 35.9-43.32 16.09-55.8 26.84-61.37 32.12-44.63 42.32-42.24 109.39-40.25 133.35v96.78zm1179.21 46.1c-1.25-30.97-3.28-59.96-17.32-93.19a210 210 0 0 0-15.93-30.44c-11.94-11.54-31.29-27.45-58.54-38.87-32.71-13.71-61.09-14.35-79.13-14.52-120.68-1.14-192.48 8.9-192.48 8.9-142.31 19.9-214.1 30.52-246.03 63.7-34.29 35.63-45.09 80.81-48.92 111.73.25 127.79-.39 223.74-3.85 283.05-1.14 19.64-4.34 65.37 9.38 122.69 4.18 17.53 8.87 31.59 12.17 40.75 5.8 10.18 18.42 29.2 41.68 44.48 25.58 16.83 50.47 20.22 62.28 21.08 14.06 12.18 321.27-17.79 321.27-17.79 4.41-.42 107.37-10.77 155.36-46.01 20.46-15.02 31.97-32.36 31.97-32.36 10.18-15.34 14.36-29.64 17.81-41.76 5.47-19.28 6.89-34.9 7.78-48.14 3.05-44.4 1.63-79.36 1.57-80.86-2.02-49.6 1.26-99.29 1.88-148.93.34-29.03.75-60.86-.95-103.51m-202.32 346.13c-25.79 27.91-61.31 25.04-65.33 24.64-4.97.52-13.25 1.38-23.48 2.47-123.26 13.1-147.92 18.01-166.7 2.41-8.41-6.97-20.27-21.91-21.26-57.15-.56-96.06-1.14-192.11-1.7-288.17-.33-3.1-2.65-29.16 17.49-48.41 17.78-16.98 39.86-16.07 43.59-15.85 62.32-2.1 124.64-4.19 186.96-6.3 21.51 1.47 40.01 13.06 47.77 30.6 5.37 12.13 4.07 23.64 2.97 29.34l-.16 264.12c.52 4.66 3.69 36.51-20.15 62.3m-309.4 979.9-33.46 9.49s-8.36 8.02-11.48-2.75c0 0 15.61-18.58 15.3-29.19 0 0 2.5-59.94-.62-62.44 0 0-14.67-46.21-59.01-51.2 0 0-70.56-16.55-100.53 26.85 0 0-16.55 14.36-22.48 46.52 0 0-7.96 52.92 1.41 144.24l8.9 104.9-1104.28 91.79s-34.66 8.43-32.78-27.47c0 0-4.68-206.21-10.77-215.58 0 0-15.92-77.27-90.85-83.36 0 0-71.65-7.96-93.66 45.89 0 0-.71 34.94-19.73 25.52l2.4-5.39c17.79-6.55-.94-31.84-.94-31.84l-2.18-161.11c-34.66-53.38-40.28-72.11-40.28-72.11 33.71 2.81 41.52-20.3 41.52-20.3 1.25-26.22 8.12-28.71 8.12-28.71 11.86-5.94 5.61-29.04 5.61-29.04-3.74-9.37-4.06-40.28-4.06-40.28 10.92-1.24 19.71-1.84 25.68-2.15 9.63-.5 14.19-.4 18.66-3.79 4.44-3.38 8.07-9.67 7.25-14.26-2.57-14.41-49.78-16.46-55.02-16.65-15.61-30.9-39.34-43.4-39.34-43.4-64.62-32.47-108.33 31.54-108.33 31.54-17.55 42.25-13.25 66.49-5.51 80.98 6.78 12.69 25.95 36.19 19.55 47.95-.8 1.47-3.5 5.51-5.86 12.02-1.8 4.97-2.63 9.25-3.04 12.02-101.62 34.19-80.42 158.3-80.42 158.3 4.8 29.5-3.4 95.31-3.4 95.31 2.64 9.55 4.74 22.28 3.27 36.99-.36 3.74-.94 7.26-1.63 10.53-15.61 36.53-17.71 66.24-17.54 83.31.16 16.08 2.4 26.63 3.28 30.44 5.59 24.35 17.12 41.96 25.12 52.2l-5 169.83-123.35 219.19c-9.37 4.37-8.86 18.26-8.86 18.26.94 6.67 31.96 28.57 31.96 28.57 2.34 4.68 14.99 2.34 14.99 2.34 19.67 23.88 51.52 40.73 51.52 40.73 59.93 13.75 55.57-9.98 55.57-9.98-.63-13.12-29.34-33.1-29.34-33.1-30.6-26.24-13.73-45.58-13.73-45.58l95.53-157.97c38.08-51.21 22.47-68.07 22.47-68.07l-22.77-81.23c-9.4-25.68-10.43-32.55-9.09-33.18 1.33-.62 5.64 4.56 9.72 9.45 2.12 2.55 3.79 4.82 5 6.56 25.49 45.08 50.99 90.16 76.48 135.23l19.66 196.7c-.62 5.67-1.35 19.95 7.61 32.55 2.14 3 4.48 5.4 6.71 7.33-.21 14.78-.44 29.56-.66 44.34 23.68 1.13 43.02 1.29 57.13 1.18 28.46-.23 33.81-1.51 52.38-1.33 1.9.01 5.35-.15 12.25-.47 12.09-.58 17.3-1.14 22.48-4.29 2.24-1.37 3.82-2.81 4.76-3.75 5.96-6.99 6.06-12.13 5.79-14.46-1.34-12.07-20.31-23.27-48.08-23.76a72 72 0 0 1-15.93-2.84c-10.16-3.05-12.72-6.35-13.43-7.34-1.74-2.41-2.38-4.9-2.65-6.55-9.98-89.14-11.99-136.29-11.87-163.05.04-6.66.27-26.91-2.18-54.09-2.16-23.96-5.48-43.2-7.8-55.11l-33.1-104.9c-46.51-121.56-38.21-131.62-38.1-131.75 0 0 27.94 12.18 41.52 12.18 0 0 36.06 57.6 44.96 59.94 0 0 11.24 13.11 45.43 14.52 0 0 9.83 90.38 9.83 181.24 0 0-.62 48.39 42.77 44.65l21.85.21s8.12.11 9.37 13.84c1.25 13.74-2.19 22.48 6.87 25.29 0 0 41.21 3.43 65.25 0 0 0 13.43 1.56 11.24-19.36l.24-15.3s-3.05-14.99 26.61-11.24 1034.04-87.42 1034.04-87.42 13.43-2.19 13.43 26.38v14.99s-1.87 9.37 19.43 6.32l51.98-1.87s18.26 3.28 13.82-21.31l.7-27.86c.7-1.14 1.97-3.01 3.95-4.89 7.88-7.48 18.1-7.16 40.59-8.6.52-.03 1.07-.07 1.65-.11 10.88-.72 19.2-10.01 18.7-20.9-.07-1.42-.13-2.85-.21-4.28-.56-11.26-1.27-22.27-2.11-33.02-.07-1.05-.16-2.65-.23-4.61-.16-4.12-.16-7.17-.16-7.96 0-5.11-.38-11.63-.78-20.68-1.15-26.14-.74-34.88 4.68-43.32 3.24-2.77 8.33-7 14.83-11.86 6.23-4.66 10.7-7.61 12.36-8.76 15.05-10.35 20.51-23.93 29.29-32.78 7.61-7.67 21.67-15.76 50.01-15.05l16.39 2.32z" class="st1"/><path d="M1051.39 2717.86a57.3 57.3 0 0 1-9.83-17.75s-.3-.88-.57-1.77c-4.25-14.02-6.14-64.94-6.14-64.94-4.48-59.17-2.34-70.76 0-79.3 1.51-5.5 17.24-60.17 55.68-67.23 18.86-3.46 35.07 6.03 36.11 6.66 15.31 9.25 20.94 23.68 22.48 28.1 3.27 6.66 7.8 16.96 11.4 30.13 4.16 15.22 5.19 27.4 7.02 50.42.68 8.51 1.46 20.25 1.87 34.34-24.49 1.88-48.99 3.77-73.48 5.65a9.3 9.3 0 0 1-9.69-6.86l-16.36-61.22c-.87-3.26-3.58-5.83-6.93-6.2-5.68-.63-12.02 4.83-1.88 41.16l17.17 56.51s8.73 24.86 9.63 47.8c.13 3.29-2.32 6.12-5.6 6.42l-23.24 2.13c-3.12.28-6.12-1.3-7.64-4.05" style="fill:#f3d40f"/><path d="M1159.18 2509.7c4.04 7.09 8.07 14.96 11.88 23.61a259.5 259.5 0 0 1 15.3 45.91l16.94.51c.53.02 2.04-1.42 3.38-3.59 4.83-7.82.86-20.57-2.68-29.92-3.48-9.21-9.16-22-18.47-36.52z" style="opacity:.87;fill:#f3d311"/><path d="M1103.2 2467.12c.43-6.71.87-13.42 1.3-20.13 1.86-2.67 3.76-5.71 5.56-9.12a87 87 0 0 0 7.38-19.22c2-1.74 3.96-3.99 5.43-6.88 6.32-12.41-1.58-26.31-2.57-27.99 0 0-6.46-24.42 12.21-24.42a8.9 8.9 0 0 1 3.01.81c7.36 3.51 6.84 16.49 6.81 17.15 0 0 11.73 19.39 18.44-14.13 2-2.17 3.92-3.33 5.18-3.97 6.42-3.23 13.84-1.85 21.15-.49.94.17 1.7.34 2.16.44a67.8 67.8 0 0 0 21.79-9.15h16.52s-2.39 36.15 0 39.75c1.09.8 2.61 2.16 3.71 4.28 2.81 5.43.35 11.06-.04 11.92-3.85-.23-9.17.07-11.97 3.51-1.91 2.35-1.67 4.96-.74 16.98.94 12.13 1.35 18.27-1.86 22.23-1.26 1.56-2.58 2.39-3.94 3.25-6.66 4.21-13.99 3.59-17.72 3.35-7.4-.47-17.27-.47-31.45.64 2.47 2.23 5.34 5.48 7.5 9.95 1.34 2.78 3.64 7.69 2.87 13.84-.3 2.4-.57 4.54-2.08 6.23-3.05 3.4-9.82 3.42-16.92.16a85.5 85.5 0 0 0-18.42-11.34c-13.31-6.04-25.47-7.42-33.31-7.65m-14.65 195.63 8.9 59.19s37.47 79.9 134.41 113.61c0 0 43.7 64.16 56.74 65.1 0 0 12.57 10.3 15.85 0 0 0 20.14 15.45 20.14-.47 0 0 31.58 17.06 21.41-6.92 0 0 22.61-4.78-16.73-38.5 0 0 37.47 4.21 3.75-23.42 0 0-34.66-29.5-49.64-20.61 0 0-100.39-81.47-109.12-156.42-.01.01-72.13-2.33-85.71 8.44" class="st4"/><path d="M2727.33 3402.06h63.07s28.1 6.24 15.61-24.98c0 0-5.62-12.49-1.87-24.35 0 0 16.86-.62 20.61-111.15l15.61-126.13 81.17-144.87c6.42-11.36 10.26-16.77 11.53-16.22 1.63.71-1.02 11.32-7.96 31.85l-23.55 86.16s-14.99 36.22 8.74 71.81l109.9 175.46s17.48 11.86-18.73 31.22c-5.98 3.14-19.97 11.62-25.6 27.94-1.76 5.09-4.82 13.97-.51 20.33 4.98 7.34 18.46 9.36 32.98 3.44 0 0 34.34-4.88 59.32-32.98 0 0 51.83-23.1 55.57-33.09 0 0 19.36-3.12-29.35-68.06l-104.9-183.58c1.09-31.86.55-57.7-.18-75.7-1.77-43.69-5.37-60.21 4.84-82.11 3.35-7.2 7.89-14.3 12.02-27.94 5.92-19.53 5.76-35.08 5.62-39.81-.36-12.59-2.67-21.74-5.15-31.38-2.73-10.57-7.49-25.36-16.21-42.16l-5.15-151.11s19.2-109.59-25.29-145.65c0 0-33.25-31.85-52.92-40.27 0 0-23.88-20.14-3.28-51.98 8.34-22.17 10.45-41.17 10.89-53.8.78-22.74 1.64-47.52-15.1-66.09-11.2-12.42-25.81-17.12-32.78-19.36-16.88-5.42-30.94-4.13-37.78-3.43-18.5 1.89-32.56 8.56-40.9 13.42-3.95 2.96-8.31 7.04-12.82 12.12-6.61 7.43-13.64 17.62-15.28 28.63l-41.21 4.21c-8.47 3.99-14.57 10.69-14.05 16.55.69 7.75 13.17 16.39 30.44 13.43l21.54-.47s5.62 27.63-4.68 38.4c0 0-9.37 19.2 5.15 26.69 0 0 15.92 22.48 12.64 38.87 0 0-.94 15.45 37 15.92v21.07s-53.86 50.11-39.34 106.78c0 0-6.56 17.33 5.15 44.49 0 0 7.96 47.3 1.87 56.67 0 0-21.54 32.31-27.16 34.19l69.78 97.88c2.3 3.81 4.85 9.2 6.03 15.98 3.29 18.99-6.77 34.02-9.53 37.89-13.06 34.15-25.9 69.8-38.34 106.92-9.9 29.56-19.04 58.51-27.47 86.79-2.41 23.11-4.64 46.52-6.67 70.23-5.17 60.2-8.8 118.84-11.12 175.79 0 0 7.02 40.74-36.53 39.34 0 0-73.06 8.9-35.12 41.21-.01-.01 6.85 9.05 69.45 4.99" class="st1"/><path d="M2829.74 2631.53s9.37-120.51 23.1-130.5c0 0 57.86-65.46 96.78 14.99 0 0 16.86 5.62 15.61 47.46 0 0 9.99 84.92-8.74 128.63-1.21 5.06-2.87 8.98-4.18 11.63-2.15 4.36-3.54 7.11-6.67 9.13-2.86 1.85-5.82 2.21-7.6 2.28-1.21.27-17.89 3.79-23.78-4.5-1.82-2.57-2.23-5.73-2.81-10.19-.82-6.35-.3-11.69.31-15.29.13-8.51-.39-19.04-.26-27.55l10.16.06 17.96-87.96-28.1 70.56a133.3 133.3 0 0 1-51.35-.7c-10.14-2.69-20.29-5.37-30.43-8.05" style="fill:#f4d40f"/><path d="M2784.31 2581.96s-.7-52.69 20.37-74.23c0 0 22.95-6.09 25.05-3.04l-22.71 77.27z" class="st0"/><path d="m2819.67 2453.65 4.68 29.04s2.11 14.79 27.86-6.77c0 0 31.38-20.39 43.08-20.39 0 0-16.16-59.01-25.52-65.1 8.01-16.03 12.03-29.14 11.26-35.18-.19-1.48-.6-4.65-3.04-6.79-2.02-1.77-4.47-2-5.62-2.11-9-.84-25.43 10.4-26.71 11.29a34.7 34.7 0 0 0-7.9-6.09c-7.31-4.11-14.35-4.55-18.07-4.5a88 88 0 0 0-10.31-4.02c-15.72-5.02-30.05-4.74-40.29-3.42.45 7.95.48 17.11-.38 27.19-.97 11.38-2.85 21.44-4.95 29.92a94 94 0 0 0 12.36 21.34s7.02 17.09 4.45 22.95c-.01-.01-1.88 13.1 39.1 12.64m10.07 193.17s-11.71 70.72-110.52 147.99c-7.46.28-16.28 1.58-25.64 4.98-4.25 1.54-18.33 7.05-31.26 20.02-.49.5-.89.91-1.15 1.18-2.82 3.15-4.1 7.14-2.81 9.83 1.81 3.77 9.08 5.82 15.9 1.46 0 0-23.15 26.89-16.86 40.27 0 0 3.75 17.33 54.32 12.64 0 0 28.42-12.18 31.3-34.66 0 0 8.5-20.14 28.64-26.69 0 0 82.42-48.24 92.26-67.44 0 0 22.95-19.67 29.04-34.66 0 0 17.8-65.1 10.3-66.97 0 .02-73.05-2.79-73.52-7.95" class="st4"/><path d="M1465.54 2880.82v85.86l1080.4-85.86v-90.69s-6.56-24.33-48.39-23.72l-456.45 34.96s-40.05 6.56-41.1 44.02l-1.91 27.63s-4.29 7.02-5.7-15.92c0 0-.47-44.02-66.5-41.21 0 0-343.74 9.83-411.8 27.32 0-.01-48.55 9.04-48.55 37.61" class="st1"/><path d="M1384.52 2658.06s92.73 15.92 81.02 187.33c0 0 78.31-40.59 135.34-29.04 0 0 189.2-29.04 220.11-16.86 0 0 92.73-23.42 160.16 4.68l-18.73-282.86s4.68-51.51-60.88-51.51l-445.83 33.25s-83.36.47-71.18 69.78v85.23zm603.19-136.74 18.03 274.43s93.43-32.45 133.7-29.34c0 0 134.87-7.19 146.11-12.81 0 0 118.01-6.56 132.06-8.43 0 0 84.3-9.37 123.63 15.92 0 0-26.23-145.65 56.2-186.15l-3.75-105.14s-6.56-59.94-76.8-50.58L2053.26 2452c.01.01-77.73 1.88-65.55 69.32" class="st1"/><path d="M1396.73 2357.11s9.37 29.5 125.51 10.77c4.75-1.11 37.68-9.33 48.35-36.11 5.22-13.09 4.13-28.16 3.63-35.08-.62-8.59-1.21-16.81-5.19-24.56-10.82-21.07-39.57-24.92-44.92-25.55-18.65-.03-33.74-2.82-44.31-5.5-21.12-5.36-36.98-9.39-43.26-23.06-3.4-7.42-3.86-17.39.3-25.2 7.75-14.55 28.98-16.74 49.17-18.82 4.11-.42 12.11-1.06 22.51-.47 17.11.97 30.98 4.71 40.42 7.96l4.68-32.78s-51.98-24.82-116.61 0c0 0-41.21 13.58-42.62 62.29-.12 5.88.54 15.65 5.68 25.99 11.15 22.45 34.14 29.08 38.34 30.21 0 0 60.88 10.3 69.31 9.83 12.82 1.16 23.73 8.19 27.74 18.48 3.49 8.98.71 17.79-.11 20.39-2.71 8.57-8.13 14.01-10.89 16.39-3.22 2.78-11.3 8.7-56.55 9.37-11.49.17-17.34.23-23.01-.7-16.26-2.69-28.5-9.6-36-14.75zm1012.96-101.15s9.37 29.5 125.51 10.77c4.75-1.11 37.68-9.33 48.35-36.11 5.22-13.09 4.13-28.16 3.63-35.08-.62-8.59-1.21-16.81-5.19-24.56-10.82-21.07-39.57-24.92-44.92-25.55-18.65-.03-33.74-2.82-44.31-5.5-21.12-5.36-36.98-9.39-43.26-23.06-3.4-7.42-3.86-17.39.3-25.2 7.75-14.55 28.98-16.74 49.17-18.82 4.11-.42 12.11-1.06 22.51-.47 17.11.97 30.98 4.71 40.42 7.96l4.68-32.78s-51.98-24.82-116.61 0c0 0-41.21 13.58-42.62 62.29-.12 5.88.54 15.65 5.68 25.99 11.15 22.45 34.14 29.08 38.34 30.21 0 0 60.88 10.3 69.31 9.83 12.82 1.16 23.73 8.19 27.74 18.48 3.49 8.98.71 17.79-.11 20.39-2.71 8.57-8.13 14.01-10.89 16.39-3.22 2.78-11.3 8.7-56.55 9.37-11.49.17-17.34.23-23.01-.7-16.26-2.69-28.5-9.6-36-14.75zm-790.51-123.64v226.66l171.87-12.18v-33.72l-131.12 10.29c-3.27.26-6.04-2.36-5.98-5.64l1.17-58.44a6.226 6.226 0 0 1 5.79-6.09l106.25-7.56v-30.44l-107.31 8.05a4.733 4.733 0 0 1-5.09-4.72v-56.96c0-2.23 1.73-4.08 3.96-4.23l126.7-8.17-1.4-29.04zm356.53 120.98c-.5-1.29-1.39-4.19 0-6.4.7-1.1 1.69-1.58 3.06-2.26 1.8-.9 4.49-2.25 8.11-4.13 5.48-3.07 28.97-16.98 36.93-45.6 7.61-27.43-1.8-58.34-21.85-74.77-5.83-4.77-10.92-6.98-17.49-9.83-21.34-9.27-41.13-9.9-70.88-8.43-21.75 1.07-48.68 3.28-79.6 7.81v227.29c12.74-.16 25.5-.32 38.24-.47.58-22.95 1.15-45.91 1.72-68.84l58.07-6.24 56.2 63.07 41.84-3.12zm-58.31-21.23c-14.9 2.14-27.95 2.56-38.22 2.37-3.78-.07-6.79-3.16-6.78-6.94.08-28.29.18-56.57.27-84.86.01-3.13 2.4-5.75 5.52-6.06 17.17-1.68 31.87-2.52 43.34-2.98 32.76-1.3 42.23.48 49.46 7.21 6.27 5.84 8.21 12.96 10.34 20.73 1.49 5.45 8.32 30.42-4.22 48.49-10.39 14.97-28.8 17.61-59.71 22.04m122.79-142.36 103.03 218.23h37.47l96.47-240.24-36.53-1.88-77.27 184.99-81.49-166.26zm274.59-31.85h37.47v233.53h-37.47z" style="fill:#0c0b09"/></svg>