<?xml version="1.0" encoding="utf-8"?>
<!-- Generator: Adobe Illustrator 24.0.2, SVG Export Plug-In . SVG Version: 6.00 Build 0)  -->
<svg version="1.1" id="Layer_1" xmlns="http://www.w3.org/2000/svg" xmlns:xlink="http://www.w3.org/1999/xlink" x="0px" y="0px"
	 viewBox="0 0 4000 4000" style="enable-background:new 0 0 4000 4000;" xml:space="preserve">
<style type="text/css">
	.st0{fill:#F3D311;}
	.st1{fill:#020305;}
	.st2{fill:#F3D40F;}
	.st3{opacity:0.87;fill:#F3D311;}
	.st4{fill:#F4B889;}
	.st5{fill:#F4D40F;}
	.st6{fill:#0C0B09;}
</style>
<g>
	<g>
		<path class="st0" d="M1002.85,2621.07c-30.93-35.07-68.27-82.8-103.73-143.77c-27.8-47.81-44.45-86.56-64.39-133
			c-19.11-44.5-41.71-101.81-63.69-170.23l-149.34-5.71c-8.92-0.34-15.98-7.67-16-16.6c-0.13-84.62-0.26-169.24-0.39-253.87
			c-0.03-20.67,16.14-37.74,36.79-38.82c45.58-2.38,91.16-4.75,136.74-7.13c0.16-2.13,0.15-5.56-1.33-9.21
			c-3.83-9.44-14.62-13.24-17.56-14.36c-25.84-9.84-70.45-50.68-80.24-59.63c-7.68-7.03-32.68-30.98-50.11-68.84
			c-11.09-24.1-14.85-44.57-18.26-67.44c-9.49-63.52-15.54-103.98-13.58-158.29c2.58-71.54,6.03-167.43,56.2-242.59
			c93.6-140.23,302.37-137.23,327.82-136.51c53.68-67.14,377.68-458.95,934.79-498.01c686.59-48.14,1109.25,482.81,1142.34,525.88
			c4.53-0.19,11.62-0.49,20.29-0.94c34.43-1.75,45.93-3.18,68.06-3.75c9.66-0.25,19.95-0.51,33.09,0
			c21.83,0.84,49.3,1.91,79.3,11.55c11.5,3.7,35.39,11.61,59.63,30.6c36.73,28.77,51.63,65.27,59.63,85.55
			c8,20.28,13.19,41.35,18.11,105.84c4.49,58.87,4.94,103.86,5.13,127.83c1.36,168.57,0.03,201.78-8.09,248.38
			c-9.22,52.9-19.24,77.46-30.44,97.41c-24.76,44.11-58.42,71.26-80.55,86.17c-1.62,2.8-3.82,7.04-5.62,12.49
			c-2.66,8.06-2.84,13.89-3.75,23.42c-0.78,8.15-2.09,16.23-3.12,24.35c0,0-1.62,12.79-5,34.34c-3.36,21.46-15.11,83.1-26.54,126.13
			c-29.48,111.06-94.13,238.89-103.34,256.95c-31.38,61.52-76.03,139.69-138.15,225.39c-110.17,90.55-215,176.72-325.17,267.27
			l-198.56,91.79l-979.71,91.79l-108.65-54.32l-18.73-103.03l-170.93-122.7C1131.48,2730.65,1067.16,2675.86,1002.85,2621.07z"/>
		<path class="st1" d="M690.48,1939.67v143.3c193.02-8.42,340.2-15.88,422.11-17.17c11.54-0.18,65.97-0.94,126.13-26.85
			c41.19-17.74,59.33-36.19,68.22-46.7c19.03-22.51,26.25-44.81,33.56-68.19c6.94-22.18,15.24-58.06,13.11-104.28
			c-3.95-64.52-7.91-129.05-11.86-193.57c0,0-21.85-93.04-114.89-97.41c-93.04-4.37-322.82,3.75-322.82,3.75
			c-12.81-0.15-21.03-3.91-26.47-8.47c-7.53-6.32-11.26-15.47-13.49-83c0,0-0.65-19.71,0.27-53.66c0.72-26.35,1.75-32.58,5.35-39.07
			c10.06-18.16,32.25-24.09,44.33-26.23c57.52-6.93,117.08-13.04,178.58-18.11c71.27-5.87,140.23-9.93,206.68-12.49l0.94-146.11
			c0,0-417.74,30.91-435.53,40.27c0,0-156.42,14.99-174.21,154.54c0,0-37.47,250.08,48.7,324.07c0,0,52.45,59.94,227.6,34.66
			c28.41-2.21,58.55-3.72,90.27-4.21c31.89-0.5,62.22,0.07,90.81,1.41c3.6-0.34,11.27-0.52,17.17,4.37
			c5.42,4.48,6.69,11.02,7.49,15.92c3.83,23.41,2.34,43.01,2.5,63.69c0.07,8.95,0.35,5.32,0.94,24.66
			c0.69,22.63,0.71,40.94,0.62,52.92c-2,8.86-5.8,19.48-13.21,29.75c-26.87,37.26-77.22,36.77-83.89,36.6
			C949.82,1929.27,820.15,1934.47,690.48,1939.67z"/>
		<path class="st1" d="M1930.35,1322.91c0,0-316.58-3.75-402.75,29.04c0,0-106.16,18.73-107.71,155.48c0,0-9.37,392.44,17.79,443.02
			c0,0,38.4,73.05,140.5,65.56c0,0,344.68-19.67,383.08-38.4c0,0,86.17-6.32,99.29-144.6v-375.22
			C2060.55,1457.78,2051.17,1331.34,1930.35,1322.91z M1868.15,1843.22c-25.79,27.91-61.31,25.04-65.33,24.64
			c-4.97,0.52-13.25,1.38-23.47,2.47c-123.26,13.1-147.92,18.01-166.7,2.41c-8.41-6.97-20.27-21.91-21.26-57.15
			c-0.56-96.06-1.14-192.11-1.7-288.17c-0.33-3.1-2.65-29.16,17.49-48.41c17.78-16.98,39.86-16.07,43.59-15.85
			c62.32-2.1,124.64-4.19,186.96-6.3c21.51,1.47,40.01,13.06,47.77,30.6c5.37,12.13,4.07,23.64,2.97,29.34l-0.16,264.12
			C1888.82,1785.58,1891.99,1817.42,1868.15,1843.22z"/>
		<path class="st1" d="M2113.22,1343.98v141.43l88.98-6.56v468.31l177.96-12.18c-0.16-159.23-0.31-318.45-0.47-477.68
			c63.7-3.99,127.41-7.98,191.11-11.97c-0.07-46.79-0.13-93.59-0.2-140.38c-63.79,4.85-127.59,9.7-191.38,14.54
			c-3.48-25.75-4.7-47.93-5-65.43c-0.38-22.43,0.75-37.57,10.3-51.51c3.69-5.39,7.49-8.92,9.68-10.93
			c15.7-14.41,34.3-18.99,45.89-20.61l183.58-7.81v-125.82c-61.18-1.99-112.31,1.06-149.94,4.68
			c-78.74,7.59-128.72,20.61-169.92,35.9c-43.32,16.09-55.8,26.84-61.37,32.12c-44.63,42.32-42.24,109.39-40.25,133.35v96.78
			L2113.22,1343.98z"/>
		<path class="st1" d="M3292.43,1390.08c-1.25-30.97-3.28-59.96-17.32-93.19c-5.56-13.14-11.51-23.46-15.93-30.44
			c-11.94-11.54-31.29-27.45-58.54-38.87c-32.71-13.71-61.09-14.35-79.13-14.52c-120.68-1.14-192.48,8.9-192.48,8.9
			c-142.31,19.9-214.1,30.52-246.03,63.7c-34.29,35.63-45.09,80.81-48.92,111.73c0.25,127.79-0.39,223.74-3.85,283.05
			c-1.14,19.64-4.34,65.37,9.38,122.69c4.18,17.53,8.87,31.59,12.17,40.75c5.8,10.18,18.42,29.2,41.68,44.48
			c25.58,16.83,50.47,20.22,62.28,21.08c14.06,12.18,321.27-17.79,321.27-17.79c4.41-0.42,107.37-10.77,155.36-46.01
			c20.46-15.02,31.97-32.36,31.97-32.36c10.18-15.34,14.36-29.64,17.81-41.76c5.47-19.28,6.89-34.9,7.78-48.14
			c3.05-44.4,1.63-79.36,1.57-80.86c-2.02-49.6,1.26-99.29,1.88-148.93C3293.72,1464.56,3294.13,1432.73,3292.43,1390.08z
			 M3090.11,1736.21c-25.79,27.91-61.31,25.04-65.33,24.64c-4.97,0.52-13.25,1.38-23.48,2.47c-123.26,13.1-147.92,18.01-166.7,2.41
			c-8.41-6.97-20.27-21.91-21.26-57.15c-0.56-96.06-1.14-192.11-1.7-288.17c-0.33-3.1-2.65-29.16,17.49-48.41
			c17.78-16.98,39.86-16.07,43.59-15.85c62.32-2.1,124.64-4.19,186.96-6.3c21.51,1.47,40.01,13.06,47.77,30.6
			c5.37,12.13,4.07,23.64,2.97,29.34l-0.16,264.12C3110.78,1678.57,3113.95,1710.42,3090.11,1736.21z"/>
		<path class="st1" d="M2780.71,2716.11l-33.46,9.49c0,0-8.36,8.02-11.48-2.75c0,0,15.61-18.58,15.3-29.19c0,0,2.5-59.94-0.62-62.44
			c0,0-14.67-46.21-59.01-51.2c0,0-70.56-16.55-100.53,26.85c0,0-16.55,14.36-22.48,46.52c0,0-7.96,52.92,1.41,144.24l8.9,104.9
			l-1104.28,91.79c0,0-34.66,8.43-32.78-27.47c0,0-4.68-206.21-10.77-215.58c0,0-15.92-77.27-90.85-83.36
			c0,0-71.65-7.96-93.66,45.89c0,0-0.71,34.94-19.73,25.52l2.4-5.39c17.79-6.55-0.94-31.84-0.94-31.84l-2.18-161.11
			c-34.66-53.38-40.28-72.11-40.28-72.11c33.71,2.81,41.52-20.3,41.52-20.3c1.25-26.22,8.12-28.71,8.12-28.71
			c11.86-5.94,5.61-29.04,5.61-29.04c-3.74-9.37-4.06-40.28-4.06-40.28c10.92-1.24,19.71-1.84,25.68-2.15
			c9.63-0.5,14.19-0.4,18.66-3.79c4.44-3.38,8.07-9.67,7.25-14.26c-2.57-14.41-49.78-16.46-55.02-16.65
			c-15.61-30.9-39.34-43.4-39.34-43.4c-64.62-32.47-108.33,31.54-108.33,31.54c-17.55,42.25-13.25,66.49-5.51,80.98
			c6.78,12.69,25.95,36.19,19.55,47.95c-0.8,1.47-3.5,5.51-5.86,12.02c-1.8,4.97-2.63,9.25-3.04,12.02
			c-101.62,34.19-80.42,158.3-80.42,158.3c4.8,29.5-3.4,95.31-3.4,95.31c2.64,9.55,4.74,22.28,3.27,36.99
			c-0.36,3.74-0.94,7.26-1.63,10.53c-15.61,36.53-17.71,66.24-17.54,83.31c0.16,16.08,2.4,26.63,3.28,30.44
			c5.59,24.35,17.12,41.96,25.12,52.2l-5,169.83L891.23,3310.9c-9.37,4.37-8.86,18.26-8.86,18.26c0.94,6.67,31.96,28.57,31.96,28.57
			c2.34,4.68,14.99,2.34,14.99,2.34c19.67,23.88,51.52,40.73,51.52,40.73c59.93,13.75,55.57-9.98,55.57-9.98
			c-0.63-13.12-29.34-33.1-29.34-33.1c-30.6-26.24-13.73-45.58-13.73-45.58l95.53-157.97c38.08-51.21,22.47-68.07,22.47-68.07
			c-7.59-27.08-15.18-54.15-22.77-81.23c-9.4-25.68-10.43-32.55-9.09-33.18c1.33-0.62,5.64,4.56,9.72,9.45
			c2.12,2.55,3.79,4.82,5,6.56c25.49,45.08,50.99,90.16,76.48,135.23l19.66,196.7c-0.62,5.67-1.35,19.95,7.61,32.55
			c2.14,3,4.48,5.4,6.71,7.33c-0.21,14.78-0.44,29.56-0.66,44.34c23.68,1.13,43.02,1.29,57.13,1.18
			c28.46-0.23,33.81-1.51,52.38-1.33c1.9,0.01,5.35-0.15,12.25-0.47c12.09-0.58,17.3-1.14,22.48-4.29c2.24-1.37,3.82-2.81,4.76-3.75
			c5.96-6.99,6.06-12.13,5.79-14.46c-1.34-12.07-20.31-23.27-48.08-23.76c-6.78-0.44-12.21-1.73-15.93-2.84
			c-10.16-3.05-12.72-6.35-13.43-7.34c-1.74-2.41-2.38-4.9-2.65-6.55c-9.98-89.14-11.99-136.29-11.87-163.05
			c0.04-6.66,0.27-26.91-2.18-54.09c-2.16-23.96-5.48-43.2-7.8-55.11l-33.1-104.9c-46.51-121.56-38.21-131.62-38.1-131.75l0,0
			c0,0,27.94,12.18,41.52,12.18c0,0,36.06,57.6,44.96,59.94c0,0,11.24,13.11,45.43,14.52c0,0,9.83,90.38,9.83,181.24
			c0,0-0.62,48.39,42.77,44.65l21.85,0.21c0,0,8.12,0.11,9.37,13.84c1.25,13.74-2.19,22.48,6.87,25.29c0,0,41.21,3.43,65.25,0
			c0,0,13.43,1.56,11.24-19.36l0.24-15.3c0,0-3.05-14.99,26.61-11.24c29.66,3.75,1034.04-87.42,1034.04-87.42
			s13.43-2.19,13.43,26.38v14.99c0,0-1.87,9.37,19.43,6.32l51.98-1.87c0,0,18.26,3.28,13.82-21.31l0.7-27.86
			c0.7-1.14,1.97-3.01,3.95-4.89c7.88-7.48,18.1-7.16,40.59-8.6c0.52-0.03,1.07-0.07,1.65-0.11c10.88-0.72,19.2-10.01,18.7-20.9
			c-0.07-1.42-0.13-2.85-0.21-4.28c-0.56-11.26-1.27-22.27-2.11-33.02c-0.07-1.05-0.16-2.65-0.23-4.61
			c-0.16-4.12-0.16-7.17-0.16-7.96c0-5.11-0.38-11.63-0.78-20.68c-1.15-26.14-0.74-34.88,4.68-43.32l0,0c0,0,0,0,0,0
			c3.24-2.77,8.33-7,14.83-11.86c6.23-4.66,10.7-7.61,12.36-8.76c15.05-10.35,20.51-23.93,29.29-32.78
			c7.61-7.67,21.67-15.76,50.01-15.05l16.39,2.32L2780.71,2716.11z"/>
		<path class="st2" d="M1051.39,2717.86c-3.24-3.99-7.14-9.84-9.83-17.75c0,0-0.3-0.88-0.57-1.77c-4.25-14.02-6.14-64.94-6.14-64.94
			c-4.48-59.17-2.34-70.76,0-79.3c1.51-5.5,17.24-60.17,55.68-67.23c18.86-3.46,35.07,6.03,36.11,6.66
			c15.31,9.25,20.94,23.68,22.48,28.1c3.27,6.66,7.8,16.96,11.4,30.13c4.16,15.22,5.19,27.4,7.02,50.42
			c0.68,8.51,1.46,20.25,1.87,34.34c-24.49,1.88-48.99,3.77-73.48,5.65c-4.46,0.34-8.53-2.54-9.69-6.86l-16.36-61.22
			c-0.87-3.26-3.58-5.83-6.93-6.2c-5.68-0.63-12.02,4.83-1.88,41.16l17.17,56.51c0,0,8.73,24.86,9.63,47.8
			c0.13,3.29-2.32,6.12-5.6,6.42l-23.24,2.13C1055.91,2722.19,1052.91,2720.61,1051.39,2717.86z"/>
		<path class="st3" d="M1159.18,2509.7c4.04,7.09,8.07,14.96,11.88,23.61c7.35,16.68,12.14,32.31,15.3,45.91
			c5.65,0.17,11.29,0.34,16.94,0.51c0.53,0.02,2.04-1.42,3.38-3.59c4.83-7.82,0.86-20.57-2.68-29.92c-3.48-9.21-9.16-22-18.47-36.52
			H1159.18z"/>
		<path class="st4" d="M1103.2,2467.12c0.43-6.71,0.87-13.42,1.3-20.13c1.86-2.67,3.76-5.71,5.56-9.12
			c3.72-7.04,5.97-13.68,7.38-19.22c2-1.74,3.96-3.99,5.43-6.88c6.32-12.41-1.58-26.31-2.57-27.99c0,0-6.46-24.42,12.21-24.42
			c1.21,0.11,2.2,0.43,3.01,0.81c7.36,3.51,6.84,16.49,6.81,17.15c0,0,11.73,19.39,18.44-14.13c2-2.17,3.92-3.33,5.18-3.97
			c6.42-3.23,13.84-1.85,21.15-0.49c0.94,0.17,1.7,0.34,2.16,0.44c2.71-0.61,5.71-1.47,8.91-2.67c5.2-1.96,9.5-4.3,12.88-6.48h16.52
			c0,0-2.39,36.15,0,39.75c1.09,0.8,2.61,2.16,3.71,4.28c2.81,5.43,0.35,11.06-0.04,11.92c-3.85-0.23-9.17,0.07-11.97,3.51
			c-1.91,2.35-1.67,4.96-0.74,16.98c0.94,12.13,1.35,18.27-1.86,22.23c-1.26,1.56-2.58,2.39-3.94,3.25
			c-6.66,4.21-13.99,3.59-17.72,3.35c-7.4-0.47-17.27-0.47-31.45,0.64c2.47,2.23,5.34,5.48,7.5,9.95c1.34,2.78,3.64,7.69,2.87,13.84
			c-0.3,2.4-0.57,4.54-2.08,6.23c-3.05,3.4-9.82,3.42-16.92,0.16c-4.54-3.66-10.66-7.83-18.42-11.34
			C1123.2,2468.73,1111.04,2467.35,1103.2,2467.12z"/>
		<path class="st4" d="M1088.55,2662.75l8.9,59.19c0,0,37.47,79.9,134.41,113.61c0,0,43.7,64.16,56.74,65.1c0,0,12.57,10.3,15.85,0
			c0,0,20.14,15.45,20.14-0.47c0,0,31.58,17.06,21.41-6.92c0,0,22.61-4.78-16.73-38.5c0,0,37.47,4.21,3.75-23.42
			c0,0-34.66-29.5-49.64-20.61c0,0-100.39-81.47-109.12-156.42C1174.25,2654.32,1102.13,2651.98,1088.55,2662.75z"/>
		<path class="st1" d="M2727.33,3402.06h63.07c0,0,28.1,6.24,15.61-24.98c0,0-5.62-12.49-1.87-24.35c0,0,16.86-0.62,20.61-111.15
			l15.61-126.13l81.17-144.87c6.42-11.36,10.26-16.77,11.53-16.22c1.63,0.71-1.02,11.32-7.96,31.85
			c-7.85,28.72-15.7,57.44-23.55,86.16c0,0-14.99,36.22,8.74,71.81l109.9,175.46c0,0,17.48,11.86-18.73,31.22
			c-5.98,3.14-19.97,11.62-25.6,27.94c-1.76,5.09-4.82,13.97-0.51,20.33c4.98,7.34,18.46,9.36,32.98,3.44
			c0,0,34.34-4.88,59.32-32.98c0,0,51.83-23.1,55.57-33.09c0,0,19.36-3.12-29.35-68.06l-104.9-183.58
			c1.09-31.86,0.55-57.7-0.18-75.7c-1.77-43.69-5.37-60.21,4.84-82.11c3.35-7.2,7.89-14.3,12.02-27.94
			c5.92-19.53,5.76-35.08,5.62-39.81c-0.36-12.59-2.67-21.74-5.15-31.38c-2.73-10.57-7.49-25.36-16.21-42.16l-5.15-151.11
			c0,0,19.2-109.59-25.29-145.65c0,0-33.25-31.85-52.92-40.27c0,0-23.88-20.14-3.28-51.98c8.34-22.17,10.45-41.17,10.89-53.8
			c0.78-22.74,1.64-47.52-15.1-66.09c-11.2-12.42-25.81-17.12-32.78-19.36c-16.88-5.42-30.94-4.13-37.78-3.43
			c-18.5,1.89-32.56,8.56-40.9,13.42c-3.95,2.96-8.31,7.04-12.82,12.12c-6.61,7.43-13.64,17.62-15.28,28.63l-41.21,4.21
			c-8.47,3.99-14.57,10.69-14.05,16.55c0.69,7.75,13.17,16.39,30.44,13.43l21.54-0.47c0,0,5.62,27.63-4.68,38.4
			c0,0-9.37,19.2,5.15,26.69c0,0,15.92,22.48,12.64,38.87c0,0-0.94,15.45,37,15.92v21.07c0,0-53.86,50.11-39.34,106.78
			c0,0-6.56,17.33,5.15,44.49c0,0,7.96,47.3,1.87,56.67c0,0-21.54,32.31-27.16,34.19l69.78,97.88c2.3,3.81,4.85,9.2,6.03,15.98
			c3.29,18.99-6.77,34.02-9.53,37.89c-13.06,34.15-25.9,69.8-38.34,106.92c-9.9,29.56-19.04,58.51-27.47,86.79
			c-2.41,23.11-4.64,46.52-6.67,70.23c-5.17,60.2-8.8,118.84-11.12,175.79c0,0,7.02,40.74-36.53,39.34c0,0-73.06,8.9-35.12,41.21
			C2657.87,3397.06,2664.73,3406.12,2727.33,3402.06z"/>
		<path class="st5" d="M2829.74,2631.53c0,0,9.37-120.51,23.1-130.5c0,0,57.86-65.46,96.78,14.99c0,0,16.86,5.62,15.61,47.46
			c0,0,9.99,84.92-8.74,128.63c-1.21,5.06-2.87,8.98-4.18,11.63c-2.15,4.36-3.54,7.11-6.67,9.13c-2.86,1.85-5.82,2.21-7.6,2.28
			c-1.21,0.27-17.89,3.79-23.78-4.5c-1.82-2.57-2.23-5.73-2.81-10.19c-0.82-6.35-0.3-11.69,0.31-15.29
			c0.13-8.51-0.39-19.04-0.26-27.55l10.16,0.06l17.96-87.96l-28.1,70.56c-7.44,1.35-16.76,2.4-27.47,2.11
			c-9.19-0.25-17.24-1.41-23.88-2.81C2850.03,2636.89,2839.88,2634.21,2829.74,2631.53z"/>
		<path class="st0" d="M2784.31,2581.96c0,0-0.7-52.69,20.37-74.23c0,0,22.95-6.09,25.05-3.04l-22.71,77.27H2784.31z"/>
		<path class="st4" d="M2819.67,2453.65l4.68,29.04c0,0,2.11,14.79,27.86-6.77c0,0,31.38-20.39,43.08-20.39
			c0,0-16.16-59.01-25.52-65.1c8.01-16.03,12.03-29.14,11.26-35.18c-0.19-1.48-0.6-4.65-3.04-6.79c-2.02-1.77-4.47-2-5.62-2.11
			c-9-0.84-25.43,10.4-26.71,11.29c-1.85-1.91-4.45-4.15-7.9-6.09c-7.31-4.11-14.35-4.55-18.07-4.5c-3.13-1.45-6.57-2.83-10.31-4.02
			c-15.72-5.02-30.05-4.74-40.29-3.42c0.45,7.95,0.48,17.11-0.38,27.19c-0.97,11.38-2.85,21.44-4.95,29.92
			c1.19,2.88,2.65,5.98,4.43,9.22c2.6,4.73,5.34,8.76,7.93,12.12c0,0,7.02,17.09,4.45,22.95
			C2780.56,2441,2778.69,2454.11,2819.67,2453.65z"/>
		<path class="st4" d="M2829.74,2646.82c0,0-11.71,70.72-110.52,147.99c-7.46,0.28-16.28,1.58-25.64,4.98
			c-4.25,1.54-18.33,7.05-31.26,20.02c-0.49,0.5-0.89,0.91-1.15,1.18c-2.82,3.15-4.1,7.14-2.81,9.83c1.81,3.77,9.08,5.82,15.9,1.46
			c0,0-23.15,26.89-16.86,40.27c0,0,3.75,17.33,54.32,12.64c0,0,28.42-12.18,31.3-34.66c0,0,8.5-20.14,28.64-26.69
			c0,0,82.42-48.24,92.26-67.44c0,0,22.95-19.67,29.04-34.66c0,0,17.8-65.1,10.3-66.97
			C2903.26,2654.79,2830.21,2651.98,2829.74,2646.82z"/>
		<path class="st1" d="M1465.54,2880.82v85.86l1080.4-85.86v-90.69c0,0-6.56-24.33-48.39-23.72l-456.45,34.96
			c0,0-40.05,6.56-41.1,44.02l-1.91,27.63c0,0-4.29,7.02-5.7-15.92c0,0-0.47-44.02-66.5-41.21c0,0-343.74,9.83-411.8,27.32
			C1514.09,2843.2,1465.54,2852.25,1465.54,2880.82z"/>
		<path class="st1" d="M1384.52,2658.06c0,0,92.73,15.92,81.02,187.33c0,0,78.31-40.59,135.34-29.04c0,0,189.2-29.04,220.11-16.86
			c0,0,92.73-23.42,160.16,4.68l-18.73-282.86c0,0,4.68-51.51-60.88-51.51l-445.83,33.25c0,0-83.36,0.47-71.18,69.78V2658.06z"/>
		<path class="st1" d="M1987.71,2521.32l18.03,274.43c0,0,93.43-32.45,133.7-29.34c0,0,134.87-7.19,146.11-12.81
			c0,0,118.01-6.56,132.06-8.43c0,0,84.3-9.37,123.63,15.92c0,0-26.23-145.65,56.2-186.15l-3.75-105.14c0,0-6.56-59.94-76.8-50.58
			l-463.63,32.78C2053.27,2452.01,1975.53,2453.88,1987.71,2521.32z"/>
	</g>
	<g>
		<path class="st6" d="M1396.73,2357.11c0,0,9.37,29.5,125.51,10.77c4.75-1.11,37.68-9.33,48.35-36.11
			c5.22-13.09,4.13-28.16,3.63-35.08c-0.62-8.59-1.21-16.81-5.19-24.56c-10.82-21.07-39.57-24.92-44.92-25.55
			c-18.65-0.03-33.74-2.82-44.31-5.5c-21.12-5.36-36.98-9.39-43.26-23.06c-3.4-7.42-3.86-17.39,0.3-25.2
			c7.75-14.55,28.98-16.74,49.17-18.82c4.11-0.42,12.11-1.06,22.51-0.47c17.11,0.97,30.98,4.71,40.42,7.96l4.68-32.78
			c0,0-51.98-24.82-116.61,0c0,0-41.21,13.58-42.62,62.29c-0.12,5.88,0.54,15.65,5.68,25.99c11.15,22.45,34.14,29.08,38.34,30.21
			c0,0,60.88,10.3,69.31,9.83c12.82,1.16,23.73,8.19,27.74,18.48c3.49,8.98,0.71,17.79-0.11,20.39
			c-2.71,8.57-8.13,14.01-10.89,16.39c-3.22,2.78-11.3,8.7-56.55,9.37c-11.49,0.17-17.34,0.23-23.01-0.7
			c-16.26-2.69-28.5-9.6-36-14.75L1396.73,2357.11z"/>
		<path class="st6" d="M2409.69,2255.96c0,0,9.37,29.5,125.51,10.77c4.75-1.11,37.68-9.33,48.35-36.11
			c5.22-13.09,4.13-28.16,3.63-35.08c-0.62-8.59-1.21-16.81-5.19-24.56c-10.82-21.07-39.57-24.92-44.92-25.55
			c-18.65-0.03-33.74-2.82-44.31-5.5c-21.12-5.36-36.98-9.39-43.26-23.06c-3.4-7.42-3.86-17.39,0.3-25.2
			c7.75-14.55,28.98-16.74,49.17-18.82c4.11-0.42,12.11-1.06,22.51-0.47c17.11,0.97,30.98,4.71,40.42,7.96l4.68-32.78
			c0,0-51.98-24.82-116.61,0c0,0-41.21,13.58-42.62,62.29c-0.12,5.88,0.54,15.65,5.68,25.99c11.15,22.45,34.14,29.08,38.34,30.21
			c0,0,60.88,10.3,69.31,9.83c12.82,1.16,23.73,8.19,27.74,18.48c3.49,8.98,0.71,17.79-0.11,20.39
			c-2.71,8.57-8.13,14.01-10.89,16.39c-3.22,2.78-11.3,8.7-56.55,9.37c-11.49,0.17-17.34,0.23-23.01-0.7
			c-16.26-2.69-28.5-9.6-36-14.75L2409.69,2255.96z"/>
		<path class="st6" d="M1619.18,2132.32v226.66l171.87-12.18v-33.72l-131.12,10.29c-3.27,0.26-6.04-2.36-5.98-5.64l1.17-58.44
			c0.06-3.22,2.57-5.86,5.79-6.09l106.25-7.56v-30.44l-107.31,8.05c-2.75,0.21-5.09-1.97-5.09-4.72v-56.96
			c0-2.23,1.73-4.08,3.96-4.23l126.7-8.17l-1.4-29.04L1619.18,2132.32z"/>
		<path class="st6" d="M1975.71,2253.3c-0.5-1.29-1.39-4.19,0-6.4c0.7-1.1,1.69-1.58,3.06-2.26c1.8-0.9,4.49-2.25,8.11-4.13
			c5.48-3.07,28.97-16.98,36.93-45.6c7.61-27.43-1.8-58.34-21.85-74.77c-5.83-4.77-10.92-6.98-17.49-9.83
			c-21.34-9.27-41.13-9.9-70.88-8.43c-21.75,1.07-48.68,3.28-79.6,7.81v227.29c12.74-0.16,25.5-0.32,38.24-0.47
			c0.58-22.95,1.15-45.91,1.72-68.84l58.07-6.24l56.2,63.07l41.84-3.12L1975.71,2253.3z M1917.4,2232.07
			c-14.9,2.14-27.95,2.56-38.22,2.37c-3.78-0.07-6.79-3.16-6.78-6.94c0.08-28.29,0.18-56.57,0.27-84.86
			c0.01-3.13,2.4-5.75,5.52-6.06c17.17-1.68,31.87-2.52,43.34-2.98c32.76-1.3,42.23,0.48,49.46,7.21
			c6.27,5.84,8.21,12.96,10.34,20.73c1.49,5.45,8.32,30.42-4.22,48.49C1966.72,2225,1948.31,2227.64,1917.4,2232.07z"/>
		<polygon class="st6" points="2040.19,2089.71 2143.22,2307.94 2180.69,2307.94 2277.16,2067.7 2240.63,2065.82 2163.36,2250.81 
			2081.87,2084.55 		"/>
		<rect x="2314.78" y="2057.86" class="st6" width="37.47" height="233.53"/>
	</g>
</g>
</svg>
