<svg xmlns="http://www.w3.org/2000/svg" width="665" height="128"><path fill="#E95456" d="M73.196 36.566c.172.108.327.221.472.365l27.184 27.398 12.405 12.445c2.277 2.291 4.749 4.494 6.814 6.977.929 1.118 1.848 2.208 1.848 3.703.001 7.681-7.124 16.889-12.422 22.163 2.216 4.721 4.595 9.675 9.242 12.462 1.122.672 3.226 1.529 3.975 2.556-.33.113-.672.213-1.015.279-9.497 1.837-20.145-.275-28.168-5.654l-2.69.854a59.8 59.8 0 0 1-12.628 2.53c-13.947 1.213-28.846-2.808-39.65-11.92-7.861-6.631-12.984-14.917-13.859-25.215 15.89-16.577 32.645-32.314 48.492-48.943m1.987 51.092c6.034-1.009 10.126-6.696 9.168-12.741S77.74 64.73 71.69 65.64c-6.119.92-10.317 6.653-9.347 12.769.97 6.115 6.735 10.268 12.839 9.248"/><path fill="#014067" d="M218.666 54.091c3.221-.355 6.229-.327 9.148 1.255 2.984 1.616 4.927 4.426 5.883 7.636 1.621 5.448 1.28 13.268-1.472 18.326-1.559 2.863-4.02 5.097-7.18 6.023-4.838 1.416-8.287-.032-12.458-2.317q.08.258.138.521c.41 1.85.528 8.252-.489 9.816.164.222.291.469.377.731.545 1.708.339 4.165-.445 5.751-2.641-.424-5.868-.128-8.573-.157.079-.157.143-.314.207-.477.374-.961.494-43.5-.341-46.583q.774-.034 1.547-.052c3.513-.074 5.197.201 7.774 2.673 2.031-1.09 3.648-2.446 5.884-3.146m-6.011 24.794c2.549 1.119 5.34 2.426 8.132 1.327.405-.16.501-.209.749-.583 1.71-1.008 2.438-2.893 2.915-4.73.855-3.288.913-8.334-.888-11.334a5.9 5.9 0 0 0-1.712-1.817c-2.054-1.336-4.651-1.201-6.974-.835-1.513 1.262-1.819 2.621-1.989 4.502-.331 3.662.856 10.403-.233 13.47"/><path fill="#E95456" d="M441.747 39.147c1.055-.149 2.136-.165 3.199-.116 1.907.087 3.655.491 4.983 1.954 1.129 2.783 1.041 12.897.411 15.968.877-.225 1.746-.945 2.618-1.294 2.938-1.174 6.797-1.356 9.882-.762 2.733.527 5.017 1.93 6.586 4.256 3.029 4.488 3.111 11.42 2.122 16.542-.435 2.25-1.504 6.316-3.503 7.665-.116.522-.579 1.034-.95 1.403-6.027 6.01-15.403.164-16.666.512-.888.245-1.849 1.03-2.76 1.372-1.688.634-4.518.337-6.352.347.374-.723.455-43.9.43-47.847m16.486 41.26c1.55-.412 2.226-.817 3.041-2.215 2.033-3.488 2.064-9.006 1.028-12.806-.505-1.852-1.597-3.547-3.296-4.506-1.643-.928-3.346-.865-5.15-.616-1.524.857-2.476 1.49-2.976 3.275-1.343 4.788.341 10.342-.166 15.27 1.901 1.15 4.036 2.633 6.378 2.053.37-.092.845-.211 1.141-.456"/><path fill="#014067" d="M309.266 54.091c4.977-.33 9.729-.218 13.69 3.212 3.372 2.92 4.79 6.936 5.097 11.289.363 5.118-.281 10.387-3.765 14.388-2.77 3.182-6.249 4.433-10.362 4.721-4.07.145-7.744-.084-11.19-2.48-3.47-2.413-5.374-6.11-6.099-10.204-.905-5.106-.151-10.702 2.883-15.01 2.404-3.413 5.695-5.207 9.746-5.916m3.021 26.89c1.31-.158 3.152-.353 4.02-1.459 2.396-2.503 2.86-5.945 2.791-9.284-.058-2.788-.501-5.833-2.616-7.86-1.094-1.05-2.688-1.604-4.199-1.569a9 9 0 0 0-1.086.104c-2.065.633-3.434 1.506-4.477 3.484-1.763 3.347-1.834 7.988-.715 11.55.567 1.804 1.727 3.597 3.435 4.502.862.457 1.891.481 2.847.533"/><path fill="#014067" d="M253.945 54.091c4.796-.307 9.527-.215 13.382 3.027 3.325 2.796 4.872 6.878 5.227 11.12.429 5.132-.201 10.568-3.639 14.628-2.682 3.169-6.066 4.49-10.12 4.821-4.177.156-7.872.029-11.435-2.422-3.284-2.259-5.301-5.734-6.007-9.621-.93-5.123-.501-11.095 2.536-15.478 2.504-3.611 5.818-5.317 10.056-6.075m3.312 26.965c1.865-.276 3.114-.818 4.265-2.365 2.229-2.997 2.377-7.632 1.831-11.177-.339-2.203-1.222-4.368-3.074-5.726-1.606-1.179-3.179-1.14-5.052-.875-1.978.733-3.259 1.594-4.174 3.572-1.607 3.474-1.61 8.383-.291 11.948.613 1.658 1.618 3.39 3.279 4.166.696.325 2.33.773 3.055.525.085-.028.09-.033.161-.068"/><path fill="#E95456" d="M476.243 55.39c2.26-.21 4.973-.587 7.149.138 1.217.405 1.712 1.368 2.257 2.448 1.469 2.91 7.154 19.952 6.424 22.17 2.21-2.16 4.642-15.035 5.841-18.805.491-1.543 1.886-3.711 2.022-5.208 2.698-.683 4.963-.975 7.757-.78.04.105.036.089.062.182l.029.108c.064.227.12.444.136.68.105 1.56-7.365 25.81-8.135 26.69.428 1.745-2.434 9.618-3.299 11.409-1.502 3.11-3.951 5.633-7.259 6.769-2.723.935-6.888 1.393-9.532.058-.869-.438-1.576-1.156-1.874-2.094-.46-1.444.1-2.703.764-3.971 1.111-.662 2.092-.427 3.332-.265 1.898.248 3.633.408 5.243-.856 1.858-1.459 2.782-4.615 3.071-6.887-.883-.326-2.123.108-3.036-.324-.741-.351-1.073-1.16-1.384-1.879-1.58-3.657-2.534-7.736-3.703-11.546a580 580 0 0 0-5.865-18.036"/><path fill="#014067" d="M416.409 54.416c4.1-.523 9.053-.525 12.617 1.833 2.619 1.733 4.333 4.592 4.941 7.649.412 2.072 1.086 6.748-.092 8.504-6.76.247-13.608.033-20.378.034 1.487 1.356 1.564 4.125 2.781 5.854 1.061 1.508 2.781 2.35 4.561 2.66 3.798.665 7.326-.623 10.401-2.788 1.047.656 1.979 1.704 2.408 2.874.321.875.302 1.789-.103 2.633-.785 1.637-2.529 2.623-4.182 3.19-4.704 1.61-11.505 1.422-15.994-.79a13.98 13.98 0 0 1-7.218-8.23c-1.465-4.323-1.698-11.251.36-15.42 2.176-4.408 5.348-6.45 9.898-8.003m-3.3 12.874 7.305-.01 5.531-.015c.493-1.177.325-2.788-.157-3.96-.544-1.323-1.807-2.392-3.114-2.92-1.108-.448-2.39-.573-3.576-.446-1.572.484-2.774 1.05-3.571 2.578-.809 1.55-1.071 3.583-2.418 4.773"/><path fill="#E95456" d="M556.643 54.741c3.478-.376 7.669-.309 10.788 1.477 2.005 1.147 3.354 3.037 3.935 5.261 1.269 4.854.281 10.84.49 15.87.116 2.783.725 5.568.726 8.345 0 .491-.14.922-.385 1.343-1.372.229-3.13.418-4.507.184-1.6-.272-2.556-1.385-3.437-2.631-.726-.124-6.319 2.687-9.674 2.8-3.934.133-6.425-.975-9.275-3.641-.002-.897-.804-2.198-.946-3.215-.322-2.301-.169-4.525-.313-6.823 1.059-.74 1.852-1.935 2.921-2.73 5.644-4.194 9.579-3.887 16.299-4.584q.055-.096.1-.196c.401-.903.23-3.34-.138-4.25-2.084-5.165-13.1.447-15.263.614-.107.009-.573-.253-.701-.31-.642-.755-.987-1.672-1.113-2.655-.114-.877-.074-1.666.513-2.365 1.557-1.857 7.633-2.256 9.98-2.494m-1.422 26.898c2.858.156 5.908-.183 8.081-2.29a1.2 1.2 0 0 0 .267-.436c.837-1.647.465-5.687-.109-7.475a5 5 0 0 0-.153-.42l-2.66-.033c-3.082.503-6.135 1.013-8.104 3.724-.661.911-1.101 1.931-.897 3.07.216 1.214 1.262 2.52 2.278 3.19.404.265.856.473 1.297.67"/><path fill="#014067" d="M383.988 54.091c3.072-.148 6.624-.406 9.335 1.344 2.061 1.33 3.175 3.415 3.69 5.754.558 2.54 1.085 23.656-.134 25.566l-8.768.113q.034-.067.064-.136c.784-1.823.295-17.55.068-20.157-.124-1.414-.334-2.76-.873-4.081-.343-.356-.709-.664-1.172-.85-2.379-.96-5.554-.216-7.831.737-3.304 4.59.508 21.22-1.736 24.442l-9.051.055q.24-.388.387-.82c.726-2.163.448-26.182.154-29.867a4.3 4.3 0 0 0-.484-1.654c2.224.051 5.035-.148 7.079.828 1.098.524 1.731 1.462 2.138 2.575 2.273-2.05 4.079-3.217 7.134-3.849"/><path fill="#E95456" d="M597.021 54.741c3.005-.335 7.245-.373 9.874 1.305 1.591 1.015 2.069 2.803 2.463 4.55.671 2.975 1.128 24.759.133 26.34-2.588-.007-5.172.032-7.76-.05.721-2.84-.119-16.62-.342-20.388-.076-1.267-.092-3.786-1.095-4.656-1.708-1.482-5.501-.85-7.635-.703-.578.167-2.066.56-2.394 1.07-1.823 2.841 1.171 21.04-1.122 24.562-2.841-.082-5.691.006-8.533.046.163-.28.313-.58.401-.893.231-.824.331-26.185.193-28.732-.034-.629-.169-1.149-.479-1.7 1.596-.017 3.262-.1 4.851.047 1.674.155 2.913.698 3.986 1.996 2.56-.656 4.836-2.131 7.459-2.794"/><path fill="#014067" d="M182.831 54.091a85 85 0 0 1 3.275-.046c3.01.037 7.707.503 9.92 2.815.584.61.87 1.336.839 2.183-.05 1.39-1.472 3.41-2.467 4.307-.028-.052-.033-.063-.07-.117-.961-1.398-4.963-2.631-6.646-2.938-1.627-.297-4.341-.324-5.739.681-.666.479-.907 1.13-1.044 1.91 1.285 3.483 10.037 4.27 13.388 7.146 1.716 1.473 2.776 3.348 2.937 5.62.186 2.616-.752 5.962-2.481 7.939-2.361 2.7-6.194 3.859-9.656 4.073-1.229.064-2.467.123-3.698.054-2.565-.144-6.937-.762-8.723-2.813-1.952-2.242.815-4.27.951-6.45q.002-.028.003-.055c2.937 1.392 5.974 3.082 9.298 3.121 1.782.02 3.493-.233 4.81-1.526.427-.95.699-1.919.547-2.973-.467-3.248-10.206-3.938-13.081-6.134-1.809-1.382-2.961-3.913-3.243-6.143a8.24 8.24 0 0 1 1.719-6.16c2.321-2.984 5.546-4.045 9.161-4.494"/><path fill="#E95456" d="M509.997 55.39c1.879-.543 5.045-.429 6.904.204 1.328.451 1.906.968 2.523 2.223 1.251 2.545 6.407 18.514 5.745 20.457.132-.14.249-.292.375-.438 1.091-1.26 7.263-20.306 7.151-21.788 2.704-.54 5.153-.794 7.922-.75.049.223.085.449.073.677-.085 1.657-.929 5.478-2.114 6.561.055.15.089.3.092.46.041 1.97-7.151 22.618-8.397 23.882-2.755.753-7.051.183-9.937.142.41-1.264-9.123-28.072-10.337-31.63"/><path fill="#014067" d="M348.366 54.091c3.734-.349 9.042-.061 12.087 2.424.823.672 1.423 1.525 1.526 2.604.156 1.648-.972 3.624-1.995 4.84a1.6 1.6 0 0 0-.271-.35c-2.056-1.863-5.775-3.204-8.509-2.987-2.088.166-4.03 1.1-5.384 2.712-2.104 2.505-2.324 6.039-2.065 9.159.224 2.697.806 5.026 2.986 6.849 3.314 2.772 6.867 2.071 10.425.28.819-.413 1.626-1.062 2.554-1.14l.278.624q.073.044.144.092c.798.551 1.762 2.203 1.916 3.172.112.701-.103 1.391-.511 1.96-1.363 1.9-4.549 2.817-6.76 3.172-4.767.766-9.996.472-14.024-2.452-3.318-2.409-5.355-6.096-5.992-10.111-.782-4.924-.233-10.597 2.765-14.725 2.701-3.719 6.405-5.426 10.83-6.123"/><path fill="#014067" d="M280.522 39.147c2.215-.089 5.588-.558 7.399.928 1.253 1.028 1.289 2.377 1.427 3.9.744 8.2.134 16.995.087 25.24-.03 5.324.464 10.948.016 16.238-.058.685-.252 1.246-.694 1.776-.045.046-.048.052-.105.096-.597.459-3.014.29-3.718.183-1.411-.214-3.011-1.024-3.85-2.212-.548-.775-.628-1.622-.699-2.541-.639-8.301-.147-16.973-.144-25.33.002-5.245-.603-13.256.281-18.278"/><path fill="#E95456" d="M620.509 55.066c1.241-.078 2.577-.105 3.814.032.985.11 2.344.48 2.962 1.331 1.833 2.525 1.163 25.01.617 29.33-.111.877-.121.922-.831 1.47a23 23 0 0 1-3.376-.103c-1.16-.126-2.109-.418-2.858-1.353-1.035-3.462-1.277-28.792-.328-30.707"/><path fill="#014067" d="M356.06 39.03a42 42 0 0 1 5.036.239c.026.135.037.264.024.4-.126 1.341-1.409 2.58-2.394 3.372a1 1 0 0 1-.041.515c-.738 2.093-3.352 5.407-5.378 6.397-1.536.182-3.207.048-4.757.028-2.366-3.104-5.572-5.483-7.228-9.203-.321-.721-.388-.897-.11-1.63 1.519-.126 2.934-.056 4.448.096.523.187.917.47 1.334.826 1.117.951 3.354 2.865 3.475 4.379 1.648-.895 4.675-3.79 5.591-5.419"/><path fill="#014067" d="M425.813 38.822c.983-.19 1.926-.105 2.91.018 1.261.157 1.862.391 2.641 1.39.089.667.021 1.183-.284 1.787-1.153 2.281-5.364 6.717-7.761 7.526-1.404.904-4.587-.124-6.179-.454 3.305-2.119 4.677-7.737 8.673-10.267"/><path fill="#E95456" d="M497.167 38.822q.62-.135 1.251-.212c1.861-.212 3.332.619 4.73 1.742a1 1 0 0 1-.01.489c-.701 2.242-6.011 7.393-8.168 8.46-1.707 1.113-4.263.267-6.151-.074 2.934-2.468 5.057-7.441 8.348-10.405"/><path fill="#E95456" d="M622.231 39.464a4.4 4.4 0 0 1 4.426.849 4.412 4.412 0 0 1-1.753 7.549 4.41 4.41 0 0 1-5.373-2.913 4.41 4.41 0 0 1 2.7-5.485"/><path fill="#014067" d="M70.798 0h5.097c7.058 3.975 12.866 11.272 18.476 17.035-3.942-.985-7.288-1.656-10.984.56-3.567 2.139-6.683 6.02-9.592 8.99-5.71 4.703-10.962 10.54-16.19 15.798L30.364 69.765c-4.023 4.042-9.127 10.248-13.73 13.328-1.857 1.242-4.18 1.749-6.396 1.544-3.172-.293-5.831-2-7.818-4.43C1.26 78.788.627 77.271 0 75.564v-3.71a19.7 19.7 0 0 1 3.619-5.929c3.157-3.615 6.871-6.815 10.253-10.225a2721 2721 0 0 1 22.2-22.383l19.574-19.714c3.237-3.284 6.333-6.815 9.754-9.903 1.69-1.527 3.373-2.66 5.398-3.701"/><path fill="#E95456" d="M73.795 26.584c2.91-2.97 6.025-6.85 9.592-8.989 3.696-2.216 7.042-1.545 10.984-.56a4309 4309 0 0 0 33.422 33.61c4.581 4.585 13.267 12.515 16.661 17.385 1.204 1.727 1.752 3.763 1.734 5.853a11.36 11.36 0 0 1-3.359 8.027c-1.895 1.855-4.508 3.03-7.18 3.005-3.955-.038-7.235-2.788-9.845-5.483a1875 1875 0 0 0-33.394-34.01c-4.563-4.556-9.18-9.02-13.666-13.659-1.626-1.68-3.486-3.362-4.95-5.179"/><path fill="#E95456" d="M664.555 84.119c-1.034.998-2.476 1.857-3.807 2.393-4.402 1.774-11.028 1.87-15.41-.022a14.36 14.36 0 0 1-7.666-7.845c-1.869-4.733-1.776-11.451.256-16.123 1.448-3.328 4.047-5.708 7.414-7.017 3.908-1.52 8.91-1.991 12.823-.251 3.097 1.377 5.266 4.024 6.469 7.153.646 1.808.848 7.884.068 9.548a4 4 0 0 1-.267.485l-19.64.003c2.305 4.374 1.63 7.158 7.407 8.94.634.196 1.435.317 2.024.599 2.333-.567 6.485-1.882 7.844-4.023l.04-.07c1.039.666 1.807 1.298 2.436 2.377.525 1.26.646 2.307.121 3.593a8 8 0 0 1-.112.26m-20.367-17.162c2.755.015 5.654-.146 8.392.077 1.482.015 3.274.22 4.691-.208.444-.706.724-1.188.527-2.061-.405-1.8-2.193-3.462-3.729-4.396-1.54-.936-3.404-.626-5.101-.43-3.395 1.972-2.59 4.573-4.78 7.018"/></svg>