<?xml version="1.0" encoding="utf-8"?>
<!-- Generator: Adobe Illustrator 24.0.2, SVG Export Plug-In . SVG Version: 6.00 Build 0)  -->
<svg version="1.1" id="Layer_1" xmlns="http://www.w3.org/2000/svg" xmlns:xlink="http://www.w3.org/1999/xlink" x="0px" y="0px"
	 viewBox="0 0 1080 1080" style="enable-background:new 0 0 1080 1080;" xml:space="preserve">
<style type="text/css">
	.st0{fill:#1B130D;}
	.st1{fill:#ECA920;}
	.st2{fill:#3E3B3D;}
	.st3{fill:#9D9994;}
	.st4{fill:#51544F;}
	.st5{fill:#F8D175;}
	.st6{fill:#F5E3A4;}
	.st7{fill:#605B53;}
	.st8{fill:#F3C517;}
	.st9{fill:#D39229;}
	.st10{fill:#2F1E0F;}
	.st11{fill:#F0C11A;}
	.st12{fill:#26160D;}
	.st13{fill:#683C17;}
	.st14{fill:#FDD71E;}
	.st15{fill:#3F403D;}
	.st16{fill:#86805D;}
	.st17{fill:#EAB120;}
	.st18{fill:#E3AC39;}
	.st19{fill:#979896;}
	.st20{fill:#B5B2B0;}
	.st21{fill:#3A3A3A;}
	.st22{fill:#5A5854;}
	.st23{fill:#FCCE09;}
	.st24{fill:#F7CB11;}
	.st25{fill:#E2A325;}
	.st26{fill:#D69629;}
	.st27{fill:#DDA126;}
	.st28{fill:#D19A2A;}
	.st29{fill:#4D4E4E;}
	.st30{fill:#1F1209;}
	.st31{fill:#868480;}
	.st32{fill:#62605E;}
	.st33{fill:#DF9826;}
	.st34{fill:#A6772B;}
	.st35{fill:#A8A499;}
	.st36{fill:#2E2D2B;}
	.st37{fill:#3C3C3A;}
	.st38{fill:#9F9B98;}
	.st39{fill:#60625E;}
	.st40{fill:#ADADA8;}
	.st41{fill:#151515;}
	.st42{fill:#28231B;}
	.st43{fill:#FFFFFF;}
	.st44{fill:#0A0907;}
	.st45{opacity:0.64;fill:#969695;enable-background:new    ;}
	.st46{fill:#898783;}
	.st47{opacity:0.63;fill:#878581;enable-background:new    ;}
	.st48{fill:#171815;}
	.st49{fill:#6F4A1D;}
	.st50{fill:#CEA571;}
	.st51{opacity:0.5;fill:#E6C299;enable-background:new    ;}
	.st52{fill:#AB885E;}
	.st53{opacity:0.69;fill:#956E46;enable-background:new    ;}
	.st54{fill:#583A20;}
	.st55{fill:#E1C6A1;}
	.st56{opacity:0.72;fill:#1B130D;enable-background:new    ;}
	.st57{fill:#684923;}
	.st58{fill:#CFA472;}
	.st59{fill:#3A2411;}
	.st60{fill:#3B2A17;}
	.st61{fill:#F0F0EE;}
	.st62{opacity:0.47;fill:#89683C;enable-background:new    ;}
	.st63{fill:#AD895D;}
	.st64{opacity:0.43;fill:#1B130D;enable-background:new    ;}
	.st65{fill:#89663D;}
	.st66{fill:#D1B07A;}
	.st67{fill:#D1B17F;}
	.st68{fill:#CDA573;}
	.st69{opacity:0.56;fill:#E8C79D;enable-background:new    ;}
	.st70{fill:#B1885D;}
	.st71{opacity:0.9;fill:#1B130D;enable-background:new    ;}
	.st72{fill:#8D6A47;}
	.st73{fill:#7C5631;}
	.st74{opacity:0.39;fill:#B0926F;enable-background:new    ;}
	.st75{fill:#CEA674;}
	.st76{opacity:0.76;fill:#EFD2AD;enable-background:new    ;}
	.st77{fill:#A98151;}
	.st78{opacity:0.5;fill:#906C47;enable-background:new    ;}
	.st79{fill:#40403E;}
	.st80{fill:#9B9691;}
	.st81{fill:#555554;}
	.st82{fill:#706D6C;}
	.st83{fill:#F5E197;}
	.st84{fill:#ECD696;}
	.st85{opacity:0.63;fill:#9F9E9F;enable-background:new    ;}
	.st86{fill:#5A5856;}
	.st87{opacity:0.93;fill:#FDD71E;enable-background:new    ;}
	.st88{fill:#F8D856;}
	.st89{opacity:0.56;fill:#ADADA9;enable-background:new    ;}
	.st90{fill:#020202;}
	.st91{fill:#D8C5AB;}
	.st92{opacity:0.89;fill:#D8C5AB;enable-background:new    ;}
	.st93{fill:#5D5E59;}
</style>
<path class="st0" d="M866.1,490.3c-0.7,8.3-2,17.8-4.4,28.2c-1.7,7.1-3.7,13.6-5.7,19.4c-2.8,5-5.6,10.3-8.4,15.8
	c-2.7,5.4-5.2,10.7-7.5,15.8c-5.6,8.8-11.2,17.6-16.7,26.4c-5.3,6.1-10.7,12.2-16,18.2c-7,7.6-13.7,3.9-13.7,3.9l-33.5,36.2
	c-0.8,27.6-13.7,33.5-13.7,33.5l-1.8,19.8c0.6,0.8,4.1,12.7,4.1,12.7c4.3,14.9-5.3,42.5-5.3,42.5l0.7,35.1
	c6.6,0.7,8.8,11.7,8.8,11.7c1,9.1,11.9,10.6,11.9,10.6c21.4,8.1,20.3,35.8,20.3,35.8c4.4,2.6,16.4,22,16.4,22
	c13.5,10.4,12.3,22.1,12.3,22.1c2.9,29.8-12.3,35.5-12.3,35.5v15.8c-2.9,38.7-37.8,37-37.8,37c-24.1,5.9-67-2.1-67-2.1
	c-18.5-2.5-20.7-11.9-20.7-11.9l-0.7-17.3c2.1-26.4,24.2-35.9,24.2-35.9c3.8-9.3,0-10.9,0-10.9c-22-1.8-23.9-22.7-23.9-22.7
	l-24.2-14.4c-9-2.9-19.1-16.7-19.1-16.7l-15.3-24.4c-11.7-22.7-35.7-48.6-35.7-48.6c-8.7-9.1-19.4,1.9-19.4,1.9L519.5,811
	c1.2,8.8-3.5,9.1-3.5,9.1c-3.2,2.9-1.8,5.4-1.8,5.4c3.5,2.3,2.3,23.2,2.3,23.2s4.3-4.5,0.7,0c-3.5,4.5-2.9,6.5-2.9,6.5l3.5,4.4
	c5.3,17-4.1,28.5-4.1,28.5c-5.9,2.1-4.4,5.3-4.4,5.3c0.3,2,3.2,7,3.2,7c1.8,3.8,5,31.1,5,31.1c4.1,20-5.9,24.1-5.9,24.1
	c-9.1,9.4-46.6,6.5-46.6,6.5c-6.8-3.8-14.7-0.6-14.7-0.6c-2.6,0.3-39,9.1-39,9.1c-43.1,5.6-76.3-8.2-76.3-8.2
	C321.1,960.5,324,942,324,942c-0.2-8.9,5.9-10.6,5.9-10.6c-0.3-22,16.4-29,16.4-29c8.5-6.8,37.9-7.9,37.9-7.9l13.5-7.9
	c7.6-2.9,3.2-4.1,3.2-4.1l-5.3-7.6c-6.2-14.1,0.6-25.8,0.6-25.8c4.1-3.5,2.9-7.3,2.9-7.3l-6.5-19.1c-7.9-26.7-1.2-46.7-1.2-46.7
	c2-13.8,43.8-63.3,43.8-63.3c-5.5-2.3-6.5-11.3-6.5-11.3l-53.2,1l-79-19.8c-15.1,19.8-38.1,7.8-38.1,7.8c-25,3.3-30.1-8.8-30.1-8.8
	c-28.4,1.6-28.4-24.3-28.4-24.3l-28-7.2c-10.6-1.6-7.2-10.4-7.2-10.4l19.4-164.5c0.2-11,5.9-11.5,5.9-11.5l14.3,1.8l20.5-163.1
	c-0.4-9.4,9.2-7.8,9.2-7.8l30.1,1c6.3,0.2,4.9-1.4,4.9-1.4l16.4-130.8c-0.1-10.4,13.6-8.8,13.6-8.8l156.1-5.4
	c7.5-1.6,14.1,2.1,14.1,2.1l108.7,47.1c8.2,3.3,3.5,17,3.5,17L570.8,299c0.1-0.6,0.3-1.2,0.4-1.9l-4.9,45.3l11.2,4.5
	c0,0-10.5-47.9,7.1-71.3l3.6-6.1l0,0c3.4-4.3,5.9-7.1,5.9-7.1c2.7-2.1,2.6-4.5,2.6-4.5l0.2-17.8c1.6-11.7,13.5-15.1,13.5-15.1
	l5.1-9.8c7.2-10.4,6.8-14.9,6.8-14.9c4.9-25.4,21.3-43.4,21.3-43.4c15.8-20.1,56.3-19.2,56.3-19.2c29.3-1,61.4,21.9,61.4,21.9
	c19.8,9.8,31.7,40.5,31.7,40.5c6.5,16.8,0.8,47.3,0.8,47.3c-3.1,9-2,13.9-2,13.9l23.1,29.9c22.7,25,12.3,33.1,12.3,33.1
	c-8.8,11.3-29,4.5-29,4.5c-6.8-2.4-6.8,0-6.8,0c1.4,0.8,8.4,23.1,8.4,23.1l0.6,8.4l13.7,13.9c13.5,12.7,37,51.5,37,51.5
	c4.6,10.2,9.4,23.5,12.3,39.4C865.1,474.3,865.8,482.8,866.1,490.3z"/>
<path class="st1" d="M331.6,936.8v10c0,0-0.9,9.1,8.5,9.7c0,0,37,13.8,85.4,5c0,0,20.8-3.5,24.4-5.6c0,0,16.7-4.7,18.8,0.9l29.9-3.5
	c0,0,12.3,0.3,12.9-10.9v-7.6c0,0-1.8-4.1-6.2-2c0,0-19.6,6.2-44.9,8.5c0,0-15.6,3.8-18.2,4.4c0,0-38.7,9.1-68.1,2.7
	C374.2,948.2,354.8,946.4,331.6,936.8z"/>
<path class="st2" d="M337,932.1c0.1,0.5,0.3,1,0.5,1.5c6.3,15.7,46.1,13.4,61.8,12c0,0,32.9,0.2,43-5.1c0,0,16.1-6,34-5.5
	c0,0,28.8-4.1,31.5-9.6c0,0,1.8-21.7-4.3-31.5c0,0-24.3,8.4-61.4,2.7c0,0-2.1,0.4,0.8,4.5c0,0,4.7,6.3-2,8.2c0,0-4.1,5.1-8.8,2.3
	c0,0-13.9-13.7-9.4-4.3l5.7,5.3c0,0,1.6,6.3-5.7,7l-17.4-9.8c0.9,1,2.2,2.5,4,4.1c1.6,1.4,2.7,2.2,3.3,2.7c1.8,1.4,4,3.9,6,8.4
	c1.2,6.3,1.3,9.6,0.4,9.9c-0.6,0.2-1.8-1.1-3.5-4c-1.4-3.1-3.7-7.3-7.5-11.6c-0.6-0.7-4.6-5.2-10.2-8.7c-12.3-7.8-26.3-7.3-30.8-6.9
	c-13.7,1.1-25,7.8-28.8,17.9C337.4,924.2,336.5,927.6,337,932.1z"/>
<path class="st3" d="M337.9,932.1l7.2,1.2c0,0,1.2-15,13.2-19.1c3.6-1.1,7.8-2.1,12.4-2.6c14.2-1.7,26.1,1.5,33.4,4.2
	c-2-1.5-5-3.5-8.8-5.4c-9.6-4.8-18.1-5.6-21.2-5.8c-7.5-0.5-13.7,0.6-18.2,1.8c-2.3,0.6-5.6,1.8-8.8,4.5c-0.5,0.4-0.9,0.8-1.3,1.2
	c-2.5,2.3-5.6,5.4-7.2,9.1C337.9,922.6,336.6,926.5,337.9,932.1z"/>
<path class="st4" d="M345.1,933.2c0,0,1.1-17.2,14.9-19.6c0,0,15.6-4.5,29.8-1.7c0,0,12.8,2.9,17.4,5.4c0,0,6.7,6.5,7.4,12.3
	c-1.3,1-2.8,2-4.5,2.9c-7.2,3.8-14.3,3.8-18.3,3.4C391.8,936,347.2,937.3,345.1,933.2z"/>
<path class="st5" d="M388.7,899.3c0,0-0.5-6.7,10.2-4.8c0,0,19.2,6.2,25.2,17.5c0,0,3.1,14.1-21.6-6.8
	C402.4,905.2,395.2,901.3,388.7,899.3z"/>
<path class="st6" d="M403.6,890.8c0,0-0.5-5.3,6.5-3.1c0,0,27.7,10.4,29.5,14c0,0,3.7,14.4-11,2.3
	C428.6,904,405.4,891.3,403.6,890.8z"/>
<path class="st7" d="M497.8,895.6c0,0,5.4,29.2,3.1,34.1l7-4.2c0,0,1.4-24.7-4.3-31.5L497.8,895.6z"/>
<path class="st8" d="M406.4,842.3c0,0-14.7-45.2-8.5-60.7c0,0,14.7-29.9,19-32.9l23.1-30.3c0,0,6.6,8.2,14.1,8.4l5.3,0.2l2.9,2.9
	c0,0,6.9,7.6,11.7,9c0,0,15.6,2.3,20.3,1.2c0,0,6.9,8.6,31.3,3.9l19.2-8.2l22.7-17.4c0,0,12.5,2.2,22.5-3.3c0,0,60.8,6.1,69.3,3.7
	c0,0,63.1,0,78.6-9.4c0,0,2.8,5.1,2.5,28.8c0,0-2.2,18.6-4.7,24.8l2.2,35l4.3,7.4c0,0,6.1,2,7,15.5c0,0,2.7,7.4,5.9,6.5
	c0,0,11.7-1.6,18,10.4c0,0,11.7,14.9-2.5,42.1c0,0-24.1,32.7-65.9,24.8c0,0-17.4-3.5-19.8-16.2c0,0-3.1-4.5-0.8-3.9
	c0,0-46.2-22.3-50.5-39.7c0,0-36.2-60.3-43.8-63c0,0-14.7-16-25.8-7.5l-40.5,26.7c0,0-9,6.5-10.4,11.5c0,0-7,5.3-5.3,19.4
	c0,0,3.9,9,1.4,17c0,0-0.2,11.7,1.8,16c0,0,5.9,11.7-2.9,19.2c0,0-14.9,12.3-56.2,7.2c0,0-38.1-6.1-42.8-12.5c0,0-10.8-3.9-8-18.6
	c0,0,2.9-16.6,7-5.1C408.1,855.1,410,854.7,406.4,842.3z"/>
<path class="st9" d="M420.8,750.7c0,0,17.9-23.5,19.2-32.4c0,0,6.8,7.9,12.3,8.2l7.1,0.4c0,0,7.9,8,10.1,9.5l4.5,2.5
	c0,0,17.1,2,20.3,1.2c0,0,3.9,6.4,23.2,5.1c0,0,12.5-0.5,21.6-6.9c0,0,13.7-6.2,15.8-10.2l12.6-9.7c0,0,17.3,1.2,22.5-3.3
	c0,0,58.1,5.3,69.3,3.7l36.5-1.4c0,0,33.6-3.2,36.6-5.6c0,0,3.8,34.6-1.6,47.3c0,0-3.1,6.5-1,19.6c0,0,4.1,35.2-0.4,49.1
	c-4.5,13.9,1.9,1.2,1.9,1.2s-0.3,16,6.8-1.5c0,0-3.5,9.2,0,11.6c0,0,1.3-0.9,2.3-8.4c0,0,9.1,1.5,11.6,15.8c0,0,1.8,4.5,4.5,1
	c0,0,4.1-3.4,1.5-16.1c0,0,13.1-0.6,13.3,19.4c0,0,4,19.6-9.1,37.5c0,0-19.7,19.2-49,17.3c0,0-20.1-0.4-27-13.2l-2.2-8
	c0,0-41.5-21.3-45.4-30.9l-36.1-57c0,0-16-23-23.7-22.9c0,0-4.4-10.1-34.8,13.7c0,0-26.7,15.3-27.1,19.3c0,0-9,11.1-9.3,18.4
	c0,0,2.5,17.8,2,21.8c0,0-1.2,12.7,0.8,16.5c0,0,6.1,10.9-0.5,18.8c0,0-15,16.9-67.8,7.3c0,0-26.6-4.7-30.1-8.5l-5.6-3.8
	c0,0,62.5,12.3,82.1,1c0,0,6.6-11.2-0.4-7.8c0,0-18.6,4.5-22.1,0.4c0,0,12.1-2.2,17.6-5.3l-15.6-4.7c0,0-4.3-2,2-4.3
	c0,0,11-17.6-8.4-25.2c0,0-11.7-5.1-1-7.6l18.1-9.2l-11-6.8c0,0-6.9-4.5,1.4-8.8c0,0,20.7-12.3,23.7-15.3c0,0,6.5-5.7-2.4-8.8
	c0,0-16.6-11.2-18.4-13.9c0,0-16.4-11-22.5-11.2c0,0-13.3-9.2-25,1.8C424.3,751.4,418.1,754.3,420.8,750.7z"/>
<path class="st9" d="M404,786.2c0,0-3.5,18.2,4.9,24.3c0,0,6.6,7.4,14.7,2.9c0,0,0.2-4.7-8-9C415.5,804.4,403.6,792.3,404,786.2z"/>
<path class="st0" d="M415.5,856.1c0,0,10,10.4,44.9,12.1c0,0,5.7-3.5-2.3-4.1C458.2,864.1,421,859.8,415.5,856.1z"/>
<path class="st0" d="M511.8,846.2c0,0-25.7,27.7-45.8,24.5c0,0,22.1,3.5,44.9-12.8L511.8,846.2z"/>
<path class="st0" d="M509,824.1c0,0-19.5,5.9-22.7,5c0,0,8.4,13.3,6,27c0,0-7.6-26.7-10.1-27.3c0,0-1.2-2.8,6-4.1
	c0.2,0,0.5-0.1,0.7-0.1c8.1-1.3,19.1-7.5,25.5-10.9L509,824.1z"/>
<path class="st0" d="M529,797.3c0,0-14.3,11-33.7,10.3c0,0-8.7-1.9-9.4,7.3l-1.3,8c0,0,2.8,4.5,5.1-10c0,0,18.3-2,22-0.4l4,1.2
	c0,0,3.1-8.2,5.9-8.4L529,797.3z"/>
<path class="st0" d="M491.5,809.6c0,0-15.4,3.1-21.3-3.8c0,0-5.4-2.3-1.4,2.6c0,0,8.8,8.4,29.4,3.8L491.5,809.6z"/>
<path class="st0" d="M486.7,805.2c0,0,14.5-17.2,25.7-19l25.5-13.8c0,0,9.7-2.8,1.6,2.8c0,0-28.8,15.1-30.2,16.7
	c0,0-13.5,6.7-16.9,13.3C492.4,805.2,482.9,811.2,486.7,805.2z"/>
<path class="st0" d="M508.5,761.2c0,0-6.6-4.4,3.4-3.4l24.5,7.2c0,0,9.5,2.6,12.3,1.2L529,753.4c0,0-3-6.2,3.6-2l21,9.8l27.1,12.8
	l-9.5,2.6l-16.9-6.8c0,0-10.4,1.6-15.5-0.4L508.5,761.2z"/>
<path class="st0" d="M544.5,733.7c0,0,0.2,19.9,17.1,31.2c0,0-14-20.1-13.6-34.6L544.5,733.7z"/>
<path class="st0" d="M581.6,771c0,0-5.7-4.6-9.2-21.1c0,0-18.9-2-22.7-9.1c0,0,19.8,8.1,22,4.5l-1.2-14.2l-13.3-5.4l3.2-1.9
	c0,0,8.4,4.3,10.6,3.2c0,0,0.9-8.8,1.8-10.3l3.8,2c0,0-2.3,6.9-1.5,9.8l46.1,1.8c0,0-9.2,7.8-46.8,2.2c0,0,1.2,26.1,9.4,35.5
	C583.7,768,583,772.4,581.6,771z"/>
<path class="st10" d="M658.1,718.1c0,0-0.8,5-1.9,6.3c0,0,1,4,5.4,0l0.7-6.6L658.1,718.1z"/>
<path class="st10" d="M676.8,717.1c0,0.7,0,1.8-0.4,2.9c-0.6,1.8-1.7,3-2.2,3.5l0,0c1.7,0.2,3.4,0.3,5.1,0.5
	c0.2-2.3,0.4-4.6,0.6-6.9C678.9,717.2,677.9,717.1,676.8,717.1z"/>
<path class="st11" d="M574.9,740.2c0,0,73.6,6.8,110-13.9c1.1,3.4,3,8.1,6.5,12.9c5.9,8.1,13.2,12.2,17.2,14.1
	c-2.1,6.2-4.5,16-4.3,28c0.2,11.2,2.7,20.3,4.9,26.3c0,0,5,16.5-4.4,32.4c0,0-13.2,18.5-42.5,10.3c0,0-21.7-5.6-27.6-21.1
	c0,0-21.4-38.1-29.3-41.1c0,0,22.3,4.7,26.7,12.3c0,0-22.3-32.9-33.7-34c0,0,27.9-7.9,28.8-8.2c0.9-0.3-51.4-12.7-51.4-12.7
	C575.4,743.7,575.2,741.9,574.9,740.2z"/>
<path class="st0" d="M650.8,854.3c0,0,26.7,19.6,52.7-2C703.5,852.3,676.1,867.7,650.8,854.3z"/>
<path class="st12" d="M655.2,867.8c0.6,0,20.3,16.8,53.6,13.3c0,0-2.9,5.9-29.2,5.3L655.2,867.8z"/>
<path class="st13" d="M688.2,885c0.8,0.4,42.3,9,58.9-13.3c0,0-21.9,20.3-58.1,13.7L688.2,885z"/>
<path class="st14" d="M691.3,887c0,0,58.4,21.6,65-29.6c0,0-9.6,38.6-62.8,28.6L691.3,887z"/>
<path class="st0" d="M737.5,791.7c0,0-1.1,34.9-9.3,40.3c0,0,1.1,6.9,5.1-3.2l3.6-8.8c0,0,2.3-7.3,1.5,1c0,0-0.7,10.8-1,15.3
	c-0.1,0.8-0.1,1.4-0.1,1.7c-0.2,2.1,2.5,3.2,3.7-9.8l1.1-22.3c0,0,3.3-1,5,5.1c0,0,7.7,27.2,7,36.7c0,0,5,2.5,3.6-10.4
	c0,0-2.2-16.6-3.8-17.9c0,0-8.3-15.9-8.6-16.2s-5.9-7-5.9-7.3C739.4,795.5,737.5,791.7,737.5,791.7z"/>
<path class="st15" d="M739.3,690.4c0,0-104.3,18-133.4,19.8c0,0,73.3,11.7,133.4-7V690.4z"/>
<polygon class="st16" points="731.4,691.7 731.4,705.4 739.3,703.1 739.3,690.4 "/>
<polygon class="st17" points="662.3,702.9 662.3,718.6 676.9,718.4 676.9,700.6 "/>
<polygon class="st10" points="658.5,703.8 658.5,718.6 662.3,718.6 662.3,702.9 "/>
<polygon class="st10" points="676.9,700.8 679.9,700.2 679.9,717.3 676.9,717.5 "/>
<path class="st18" d="M726.3,674c0,0-18.2,17.7-26.3,16.4c0,0,37.6,1.8,47-11.8c0,0,4.7-7.9,5-13.3c0,0-0.4-4.4-7,2.8
	c0,0-9.1,12-15,12.3C729.9,680.3,724.2,684.1,726.3,674z"/>
<path class="st19" d="M435.9,701.2c0,0,5.9,15.8,22.5,18.8c0,0,7.8,2.2,20-2.2c0,0,14.1-5.7,19.2-4c0,0-12.1,9.1-29,11.4
	c0,0-1.8,9.2,24.3,7.8l21.5-5.3c0,0,5.1-1.1-0.1,2.6l-11.7,4.8c0,0-2.4,2.3,6.5,2.5c0,0,12.3,3.3,30.5-5.7l24.8-20.3
	c0,0,8.4-7.1,12.7-7.9c0,0,1.4-3.7-7-0.6c0,0-6.4,6.1-8.5-5.1l-3.5-18.2c0,0-2.3-7.8-3.7-2.9c0,0-2.9-17,1.4-25.2
	c0,0-4.5-5.7-7.8-5.7c0,0-3.7,1-4.7-4.1l-17.4-7.2c0,0-3.7-2.7-8.4-1.2l-24.8,0.6l-13.9-8c0,0-10.6-4.7-11.5,8c0,0-3.9,11.5,10,17
	c0,0,8.4,4.1,13.1,4.3c0,0,11.1,2,9.2,9.8c0,0-2.4,8.8-12.7,16.5c0,0-12.9,13-15.8,13.6C470.9,695.5,468.4,701.7,435.9,701.2z"/>
<path class="st20" d="M463.4,699.1c-1.7-0.6-9.7,8.8,2.5,11.8c0,0,19,2.5,27.8,1.8c0,0,16-1.8-3.9,7c0,0,20.3,5.5,35.4-3
	c0,0,22.9-13.6,24.5-16c0,0,9.3-3.5,5.4-18.8c0,0-5.7-6.1-2.9-23.2c0,0,5.7-9.4-0.6-9.4l-26.8-9.2c0,0-7-2-14.7-1
	c0,0-22.7,3.7-35.2-8.4c0,0-11.9-6.5-6.5,13.5c0,0,1.6,6.6,15,9.7c0,0,12.1,2.3,14.9,5.8s0.6,0.8,0.6,0.8s3.9,6.4-5.3,15.2
	l-16.6,15.6C476.8,691.2,466.6,700.3,463.4,699.1z"/>
<path class="st21" d="M659.2,564l26.7-39.4c0,0,8.3-4.5,17.2-2.4c0.7,0.2,1.4,0.4,2.2,0.6c9.7,3.5,61.6,23.8,80.1,64.7
	c0,0,11,18,0,29.5L766,635.6l6-12.3l-10.8,6.5c0,0-12,32.7-29.8,41.5l3.9-13.6c0,0-33.2,36.6-82.4,40.3c0,0-30.4,7.8-43.6,7.5
	c0,0-25.6,2-28.6,6.4h-5.8c0,0,5.3-8.6,5.8-11.6c0,0-7-3.7-11.9,0c0,0-8.4-7.8-5.3-32.9c0,0-3.7,0.2-4.8,2.8c0,0-2.7-11.3,3.9-25
	c0,0-13.5-0.8-20.7-7.4c0,0,35.6-18.3,45.1-30.9C587,606.7,614.2,576.5,659.2,564z"/>
<path class="st22" d="M547.6,636.6c0,0,9.7,4.4,29.6-13.5c0,0,40.8-45.8,92.4-47.5c0,0,30-0.9,30.4,0s0.4,0.9,0.4,0.9
	s4.4-11.7-30.8-15.8l20.8-37.7c0,0,60.5,21.6,73.4,53.9c0,0-1.8,14.1-5,16.7c0,0,0-9.4-2.9-12c0,0-4.9,41.1-24.5,52.2
	c0,0,6.5-12.9,7.8-21.4c0,0-10.4,17.6-15.7,23.2c0,0,2.6-10.4,2.3-18.7c0,0-16.4,37.5-41.1,43.1c0,0,12.6-9.4,15.1-15
	c0,0-44.2,32.4-99,37l51-18c0,0-53.1,20.7-74.8,13.3c0,0,9.1,8.1,13.5,8.1c0,0-12.3,2.3-17.6,0l-5.9,12.6c0,0-5.5-10.8-4.2-17.6
	l0.6-13c0,0-4.8,1.6-4.8,2.8c0,0-1.9-17.1,3.9-25c0,0-16.5-2.4-16.6-4.5C546.1,640.5,544.8,636.1,547.6,636.6z"/>
<path class="st23" d="M683.4,517.5c0,0,33.7-6.2,75.1,26.7c0,0,37.3,29.1,40.5,66.2c0,0,12.6-12.8,13.2-16.9c0,0-3.2-35.8-40.2-64.5
	c0,0-41.1-33.5-81.6-25.2C690.5,503.7,683.1,514.2,683.4,517.5z"/>
<path class="st24" d="M694.3,499.7c2.8-2.8,5.8-5.9,8.8-9.5c3-3.6,5.6-7,7.8-10.3c0,0,3.7-7.2,5.1-12.1c0,0,13.9-23.5,19-24.6
	c0,0-21.6,20.2-21.9,26.6c0,0,1.4-15.6,10.4-26.6l-5.1,4.1l-0.2-2.4c0,0-16.2,24.7-14.5,35c0.2,1.2-15.5,12.7-17.6,19.8
	c0,0-8.6,7.6-9.8,13.7v11.7c0,0-1.8,2.9-4.1,4.9c0,0-11.8,14.5-17.4,31.5c0,0-44.4,2.3-79.7,47.8l10.6-83.1c0,0,0-7-8.5-7l-10.8-1.2
	l10.8-81.6l24.4-20.5c0,0,9.1,0.6,12.6,15.5c0,0,0.3-11.1-7-19.7c0,0-3.5-5.9-12.9,0l-11.7,11.7c0,0-0.6-23.5,2-27.6
	c0,0,4.4-16.1,4.7-20.8l15.5,17.6c0,0,42.3,32.6,104.2,4.4c0,0,37-16.7,51.9-29.6c0,0,23.8-15,26.1-23.5c0,0,0.4-10.3,3.3-5.3
	l4.3,20.5c0,0-20,28.9-55.9,51.7c0,0-33.7,23.9-54.2,32.3c0,0-12.3,10.4-13.3,2.5c0,0-7.4-20-14.3-22.7c0,0-8-4.1-21.5,8.8
	c0,0,15.3-6.6,18-5.1c0,0,6.8,5.7,12.7,19.8l3.9,8.4c0,0,2.7,1,8.4-2.5c0,0,51.6-24.8,57.5-31.7c0,0,51.6-38.3,60.3-54.2
	c0,0,32.7,33.8,35.2,40.5c0,0,7.6,9.4-1.4,4.3c0,0-17.8-15.5-60.6-1.2c0,0,53.3-14.9,73.3,17.2c0,0,17.8,27.8,13.9,62
	c-0.9,10.3-2.8,22.2-6.5,35c-8.7,30.4-23.6,52.7-35,66.7c-2.6-10.8-11-38.8-37-61.7C743.9,499.2,703.6,499.4,694.3,499.7z"/>
<path class="st25" d="M776.7,562.3c0,0,9.1-17.3,11.4-16.4c2.4,0.9,1,0,1,0s17.9,20.1,20.7,36.7c0,0-12.2,15.3-12.2,19.3
	C797.7,601.9,793.7,579.6,776.7,562.3z"/>
<path class="st26" d="M789.2,540.6c0,0,43.9-43.3,34.2-101.4c0,0-5.7-41.5-54-28.9c0,0,45.2-19.3,66,13.3c0,0,20,29,13.8,60.4
	c0,0-2,36.3-16.4,61.9l-20.5,30C812.2,575.9,790.9,542.5,789.2,540.6z"/>
<path class="st26" d="M782.1,390.1c1.5,0.7,3.5,1.8,5.3,3.5c4.3,3.9,5.9,8.6,6.5,10.9c3.6-0.4,8-0.6,12.8-0.2
	c7.3,0.6,13.4,2.3,17.9,4l-28.1-34.2c0,0-1.2-3.9-6.7,0c0,0-39.5,38.6-56.1,48.6l-57.4,31c0,0-5.7,4.9-7,0c0,0-10.4-23.9-14.6-25.4
	c0,0-1.9-2.5-5,0.6c0,0-12.8,19.7-14.4,24.9l16.9-11.4c0,0,3.7-3.1,4.7,1.5l10.6,18.8c0,0,3.1,6.6,8.8,0.6l40.2-23.3
	c0,0,24.9-15.5,30.4-20.8C747,419,781.9,393.1,782.1,390.1z"/>
<path class="st27" d="M716.3,393.7c0,0-1.9,6.2-1.3,6.2s26.7-13.7,32.8-13.7c0,0,4.8-1,0,4.5l-24.5,30.7l32.8-22.8l12.1-10.3
	c0,0,16.9-15.7,17.7-18.1l8.7-10.9l-4-18.6c0,0-1.4-6.2-3.1-1.4c0,0-0.9,3.5-0.6,4.8c0,0-2.4,6.6-13.4,14.5L747.5,377
	C747.5,377,717.6,394,716.3,393.7z"/>
<path class="st28" d="M604.5,425.6l-11.7,11.4l-9.1,63.1c0,0-2,9.1,6.2,12.3c0,0,10-0.3,8.5,15.3c0,0-2.3,10,11.7,10.6
	c0,0,22.9,10.3,43.1,2.9c0,0,14.4-12.4,14.7-19.5c0,0,5.9-19.5,10-22.1c0,0,17.9-21.1,22.9-33.9c0,0,17-24.2,19.1-25.1l-4.9,9.6
	c0,0-11.3,21.2-11.3,28.4c0,7.2,0,0.6,0,0.6l-16.7,18.7c0,0-9.9,12.4-10.6,17.3c-0.6,4.8,0,0.7,0,0.7v9.2c0,0-16.8,16.4-21.5,36.4
	c0,0-45.1,2.6-79.5,47.1l10.3-81.4c0,0,2.5-5.9-3.9-7l-15.4-2.1l10.8-81.6l22.1-18.6c0,0,3.4-3.2,6.7-0.2c0,0,7.5,7,8.2,15.1
	c0,0-6.2-7.3-9-7L604.5,425.6z"/>
<path class="st0" d="M619.3,434.3c0,0-20.2,21.3-20.5,55.6c4.3,0.4,11.4,1,11.4,1l0,0c0,0,8.4,1.4,12.3,2.1c2.2-8.9,5.3-19.1,9.8-30
	c5.8-14.1,12.5-25.8,18.7-35.1c0,0-2.2-7.2-19.9,28.1c0,0-10.1,25.8-10.7,32.9c-2.7-0.1-5.8-0.3-9.2-0.9c-3.7-0.6-7-1.5-9.8-2.4
	c0,0,11.6-46.1,24.3-51.2L619.3,434.3z"/>
<path class="st0" d="M619.8,445.1c-2.2,2-3.2,5.7-1.7,8.4c1,1.6,2.5,2.3,3.2,2.6c2.7,1.1,5.6,0.6,7.5-1.2c1.6-1.6,1.8-3.7,1.9-4.5
	c0-2.8-1.7-6-4.8-6.9C622.6,442.6,620,444.9,619.8,445.1z"/>
<path class="st24" d="M621.9,447.1c-1.7,1.2-1.6,3.8-0.6,5.2c0.4,0.5,0.8,0.8,1.2,1c1.5,0.7,3.3,0.4,4.4-0.7
	c0.8-0.9,1.2-2.3,0.7-3.5c-0.4-1-1.1-1.6-1.4-1.8C625.1,446.6,623.3,446.1,621.9,447.1z"/>
<path class="st0" d="M610.8,469.2c-2.2,2-3.2,5.7-1.7,8.4c1,1.6,2.5,2.3,3.2,2.6c2.7,1.1,5.6,0.6,7.5-1.2c1.6-1.6,1.8-3.7,1.9-4.5
	c0-2.8-1.7-6-4.8-6.9C613.7,466.7,611.1,469,610.8,469.2z"/>
<path class="st24" d="M613,471.2c-1.7,1.2-1.6,3.8-0.6,5.2c0.4,0.5,0.8,0.8,1.2,1c1.5,0.7,3.3,0.4,4.4-0.7c0.8-0.9,1.2-2.3,0.7-3.5
	c-0.4-1-1.1-1.6-1.4-1.8C616.2,470.7,614.4,470.2,613,471.2z"/>
<path class="st29" d="M610.3,399.2c0,0,10.5,20.8,12.3,29.6c0.2,0.5,0.5,0.8,0.7,0.9c1.8,0.8,5.5-4.5,6.3-5.6c1.8-2.4,4.7-5.5,9-8
	c9.7-5.7,19.6-4.3,22.8-3.8c0.7-1.3,0.8-2.7,0.2-3.4c-0.5-0.5-1.3-0.7-2.2-0.7c-3.3-0.1-0.6,0-0.6,0s-19.4,2.5-48.3-11.6
	C610.3,396.5,609.1,396.7,610.3,399.2z"/>
<path class="st30" d="M660.1,408.6c0,0,1.6,2.6,1.2,3.2c0,0-15.8-5.5-32.9,13c0,0-4.2,6.8-5.1,3.3c0,0-5.8-17.2-7.6-19.7l-4.2-8.8
	c0,0-1.1-2.7,0.6-1.9c0,0,0-1-0.9-1l-3.3-4.9l-5.7-4c0,0,16.9,37.1,17.2,46.4l6.3,0.1c0,0,15.7-19.5,43-22c0,0,33-8.7,45.2-17.5
	c0,0-22.8,10.7-33.1,11.5C680.7,406.4,661.7,409.4,660.1,408.6l1.2,2.9v0.7"/>
<path class="st31" d="M207.4,658.8c0,0,0.4,12.1,10.8,14.7c0,0,18.1,4.9,24.3-6.1L207.4,658.8z"/>
<path class="st31" d="M248.4,668.4c0,0-6.9,10.9-14.2,9.9c0,0,3.2,7.9,21.9,5.2c0,0,11.4-3.8,12.9-7.2L248.4,668.4z"/>
<path class="st31" d="M273.4,675.4c0,0-4.5,9.3-9.2,8c0,0-0.1,6.1,16.5,3.5c0,0,8.6-3.1,8.9-6.2
	C289.6,680.8,273.5,677.4,273.4,675.4z"/>
<path class="st24" d="M627.2,201.9c0,0,10.4-37.4,32-49c0,0,15.4-12.2,56.3-8.8c0,0,31.4,5.4,55.9,31.4c0,0,18.9,11.4,19.2,47.1
	l-2.8,36.5l-1.3,11.5c0,0-15.5-26-55.2-51.4C731.4,219.2,689,194.3,627.2,201.9z"/>
<path class="st0" d="M638.7,200.8c0,0,7.7-46,45.6-42.5c0,0,29.6,4.4,28,32.6c0,0-0.2,17.1-1.3,19.5
	C711.1,210.4,677.9,198.7,638.7,200.8z"/>
<path class="st24" d="M646.7,184.3c-0.8,1.4-1.7,3.1-2.3,5.1c-1.3,3.8-1.6,7.3-1.6,9.7c0,0,31-2.6,65.1,9.8c0.5-1.1,0.9-2.5,1.2-4
	c0.8-3.9,0.4-7.3-0.1-9.6C709,195.2,694.5,181.9,646.7,184.3z"/>
<path class="st32" d="M649.5,180.7c0,0,10-19.1,28.5-18.3c0,0,17.2,0.7,27.1,15.6c0,0,2.9,5.8,3.9,11.9v1.5c0,0-22.2-15.2-59.4-8.9
	C649.5,182.5,649.4,181.9,649.5,180.7z"/>
<path class="st33" d="M737.9,151.6c0,0,23,10.2,20.3,41c0,0-2.1,25.2-8.1,30.2c0,0-36-22.5-39.1-12.5c0,0,23.9,7.9,36,19.7
	l15.8,13.3l14.3,14.8l5.3,6.6c0,0,6.4-45.9,2.3-56.6c0,0-3.7-21.1-19.4-36.2C765.4,172,746.6,154.2,737.9,151.6z"/>
<path class="st0" d="M763,169.7c0,0,11.8,24,2.2,66.8l22.6,24.1l0.3-3.9l-19.3-20.5c1.6-6.9,3-15.1,3.3-24.5
	c0.6-17.5-2.6-32-5.7-42.1c-2.2-2.3-3.6-3.2-4-2.9C762,167,762.2,167.9,763,169.7z"/>
<path class="st34" d="M786.1,274.8c-0.4,0.8-0.6,1.5-0.7,2c-0.1,0.6-0.2,1.1-0.2,1.8c0,0.2,0,0.7-0.1,1.5c0,1,0,1.7,0.1,1.9
	c0,0.8,0.1,2.4-0.1,5.8c0.4,9.6,0.8,19.2,1.1,28.8c0,0,2.6,11,22.1,10.2c0,0,13.3-1.5,13.9-2.7C810.2,307.6,798.2,291.2,786.1,274.8
	z"/>
<path class="st35" d="M601.6,259.1c0,0-1.4-23.7,7-27.8C608.6,231.3,611.9,252.3,601.6,259.1z"/>
<path class="st36" d="M609.1,254.7c0,0-29.5,30.5-31.6,43.9c0,0,1.8,0.8,4.7-2c0,0-6.7,15.6-0.2,45.4c0,0,4.4,20.3,27.1,45.9
	c0,0,25.6,22.1,70.5,9.7c0,0,38.7-12.5,54-30.4c0,0,17.2-19.8,18.4-34.6c0,0,3.1,10.8-5.9,23.9c0,0,12.7-10.3,12.3-28.4
	c0,0-0.5-14.6-3.7-18.1c0,0-7.9-10.4-5.3-23.9c0,0,0.8-14.7,10.6-22.3c0,0,15.1-10.8,21.3,6.9c0,0-14.9-31.5-60.4-52
	c0,0-23.3-11.7-45.3-13.4c0,0-14.1-4.1-38.3-0.7c0,0,29.3,3.4,31.3,5c0,0,38.3,3.4,40.5,5.3c0,0,26.7,15.3,34.2,32.7
	c0,0,8.1,20.7-7,36.5c0,0-4.7,6.4-0.7,9.4c0,0,12.2,13.3,2.5,40.6c0,0,7.4,15.1-7.8,26.5c0,0-34.6,25.8-75.4,31.4
	c0,0-50.2,1.5-68.7-44c0,0-10-41,1.2-54.5c0,0,1.3-15.6,21.9-28.6L609.1,254.7L609.1,254.7z"/>
<path class="st37" d="M758,309.7c0,0,7.4,14.9,2.5,31.5c0,0-5.3,10.3-8.7,13.2c0,0-25.7,31-35.5,31.5c0,0,48.7-20.7,64.9-44.2
	l-2.1-39.5c0,0-3.8,7.8-10.7,7.5C768.5,309.7,758.3,310.5,758,309.7z"/>
<path class="st38" d="M761.7,267.2c0,0-10.9,8.1-9.9,22.3c0,0,0,13.2,6.9,15.6c0,0,14.6,2.8,19-8.8c0,0,5.8-7.5,3-21.5
	C780.7,274.8,778.3,257.4,761.7,267.2z"/>
<path class="st0" d="M778.5,280c0,0.2-0.1,0.3-0.1,0.5c-1-2.8-3.9-4.8-7.3-4.8c-0.3,0-0.6,0-0.9,0c-3.4,0.4-6.2,2.9-6.5,6l-0.2,1.9
	l2-0.5c0.5-0.1,0.9-0.2,1.4-0.2c1.1,0,2,0.4,2.5,1c0.3,0.4,0.4,1,0.4,1.3l0,0.1l0,0.1c0.3,1.5,0.3,2.9,0,4.3
	c-0.8,5-4.7,8.4-7.1,10.1c0,0-0.1,0-0.1,0c0.1-0.3,0.4-1,1.6-2.2c1.3-0.7,2.9-2,3.8-4c1.1-2.4,0.8-5.1,0-6.6c-0.6-1-1.3-1.4-1.9-1.6
	c-0.2-0.1-0.5-0.1-0.7-0.1c-1,0-1.9,0.6-2.5,1c-1.1,0.8-1.5,1.9-1.6,2.8c-0.5-0.1-0.9-0.3-1.2-0.6c-0.4-0.5-0.2-1.2-0.2-1.3l0.1-0.2
	l0-0.2c-0.1-1.4,0.1-4.1,2-6.8c2.8-3.9,7.4-5,9.1-5.2C772.3,275,777.4,275.9,778.5,280z"/>
<path class="st39" d="M713.2,217.3c0,0,24.4,13.2,21.9,36.8c0,0-2.3,25.8-24.9,31.8c0,0,20.5,7.3,21,30.1c0,0,1.2,16.7-11,32.3
	c0,0-13.6,23.2-43.3,31.1c0,0-21.7,7.9-51.2-1.5c0,0-22.6-11.1-28.6-25.4c0,0-10.9-22.7-10.1-34.2c0,0,0.2-20.8,3.1-24.5
	c0,0,6.6-19.5,20.5-26.7v-2.4h-1.4c0,0-17.5,11-20.7,23.7l-1.2,4.8c0,0-3.2,3.9-4,8.9c0,0-3.2,21,1.5,39.4c0,0,2.1,18.7,23,34.8
	c0,0,24,19.6,54.4,14.2c0,0,35-8.6,46.7-17.1c0,0,24.5-13.7,25.4-16.7c0,0,5.9-5.5,5.5-15.2c0,0-0.8-6.8-1.8-7.7
	c0,0,5.4-14.1,3.4-25.6c0,0-1.4-10-6.7-15.9c0,0-3.7-4,4.5-12.1c0,0,7.9-10.6,6.2-22.9c0,0,0.6-11.5-9.1-21c0,0-11.4-12.2-14.1-13
	L713.2,217.3z"/>
<path class="st40" d="M613.4,270.6c-6.3,0.9-10.7,7.2-14.5,12.6c-1.2,1.6-4.7,6.9-6.9,16.1c-3.9,16.5-0.3,31.7,2.3,40
	c1.4,4.4,3.9,9.7,7.7,15.3c5.5,8.2,14.3,17.4,27.8,21.6c0,0,33.1,9.4,56.1-3.9c0,0,14.7-4.7,25.9-19c0,0,14.4-18,15-30.5
	c0,0,1.8-17.6-6.9-27.4c0,0-8-8.9-14.6-9c0,0-2.6-2.8,2.3-2.7c0,0,8.8,0.7,15.7-9.8c0,0,10-7.9,8.1-24.8c0,0,0.7-12.6-5-18.1
	c0,0-7.1-9.2-21.1-13.1c0,0-16.1-2.6-23.9,3c0,0-16.1,9.5-26.5,0.3c0,0-7.3-14.8-22.7-14.2c0,0-10.1,1.7-14.2,15.7
	c0,0-5.3,18.5-5,28l-0.4,15.3c1.3,0,2.4,0,3.3,0c1.7,0,2.2,0.1,2.6,0.5c0.5,0.5,0.8,1.4,0.5,2C618.2,270.2,614.9,270.4,613.4,270.6z
	"/>
<path class="st41" d="M682.3,230.2c0,0-1.5-8.8,12-10.1c0,0,15.3-0.7,21,9.1c0,0,4.1,8.5,4,10.6c-0.2,2.1-3.6-1.5-5.1-3.4
	c0,0-16.4-15.1-28-5.5C686.1,230.8,682.2,231.9,682.3,230.2z"/>
<path class="st41" d="M622.3,223c0,0,3-14.6,15.8-12.6c1.4,0.3,3.3,0.9,5.2,2.2c4.9,3.1,6.6,8.1,7.1,9.8c0.7,1.8-0.3,3.4-1.4,3.7
	c-0.8,0.2-1.7-0.3-2.3-1c0,0-8.1-10-16.3-6c0,0-5,1.1-6.2,4.8C624.3,223.8,622.3,226.4,622.3,223z"/>
<path class="st42" d="M609,342.4c0,0.2-0.1,0.4-0.1,0.7c-0.1,0.7,0.2,1.3,0.4,2c0.2,0.5,0.4,1.2,0.7,2.1c2.5,2,5.3,3.9,8.5,5.8
	c10.9,6.3,21.4,8.4,28.9,9.1c0,0,8.8,0.1,11.3-2.8c-2.6-0.4-5.2-0.7-7.7-1.1c-4-0.1-8.6-0.5-13.7-1.7
	C624.2,353.5,614.6,347,609,342.4z"/>
<path class="st0" d="M600,297c0,0,8.3,7.6,8.7,23.1c0,0-2.9,3.1-4.3,1.4c0,0-1.7,2.7,1.7,5.7c0,0,8.9,15,40.8,20.3
	c0,0,34.5,4.2,53.7-21.6c0,0,8.5-11.3,8.7-18.1c0,0,5.5,1.3,5.7,11c0,0,3.4-2,1.5-8.8c0,0-6.3-13.1-18.5-13c0,0-3.4,1.1-0.5,4.5
	c0,0,5.2,1.7,4.4,3.9c0,0-11,8.4-51.7,4.1c0,0-38.1-2.6-46.4-16.3C603.8,293.3,597.1,292.1,600,297z"/>
<path class="st43" d="M607.6,302.8c0,0,4.1,6.8,4.7,12.3l13.5,6.5c0,0,2.2,4.4-5.9,1.2l-6.6-4l-1.2,8c0,0,1.6,6.6,32.7,15.1
	c0,0,24.9,4.5,46.1-13.1c-4.5,1.1-10.4,2.1-17.3,2.1c-3.9,0-7.5-0.4-10.5-0.9c-0.8-0.5-1.2-0.8-1.1-1.1c0.1-0.4,1-0.7,3.8-0.6
	c0,0,29,2.6,39.6-18.3c0,0-25.9,9.4-47.2,6.2c0,0-38.6-2.8-49.5-13.8C608.6,302.2,607.2,301.5,607.6,302.8z"/>
<path class="st43" d="M630.9,263.4c0,0-11.7-1.3-11.3-12.7c0,0,3.9-16.7,9.7-17.2c0,0,11.6-2.4,13.9,5.7c0,0,3.1,6.8,1.2,10.4
	l-6.5-5.9c0,0,1.9,11.8-4.3,8c0,0-6.3-4.5-2.3,3.2l3.5,5.1L630.9,263.4z"/>
<path d="M675.8,262.6c-0.1-2.5,0.2-7.6,3.2-12.9c1.3-2.2,3.8-6.5,9.1-8.7c3.9-1.6,7.4-1.3,9.2-1c1.8,0.4,6.8,1.9,10.6,6.7
	c6,7.7,3.4,17,3.1,18c0,0-1.8,10.9-8.3,10c0,0,9.2-10.9,2.5-24.8c-0.8-1.2-2.5-3.4-5.3-4.7c-6.2-3-12.5,0.3-13.3,0.7
	c-1.3,0.9-2.9,2.3-4.3,4.3c-4.1,5.7-3.7,12.1-3.5,14.2c-0.1,0.8-0.1,1.9,0.3,3.1c0.7,2.6,2.2,4.3,3,5l-4.9,0.4
	c-0.3-1.1-0.6-2.3-0.8-3.6c-0.4-2.2-0.6-4.3-0.6-6.1L675.8,262.6L675.8,262.6z"/>
<path class="st43" d="M680.3,271c-0.9-2.1-1.8-4.9-2-8.3c-0.1-2.1-0.3-5.8,1.7-10c1.1-2.3,2.4-3.9,3.4-4.9c0.8-0.9,3.9-3.7,8.8-4.2
	c5-0.6,8.7,1.7,9.7,2.3c1.1,0.8,2.3,1.9,3.5,3.3c3.8,4.9,3.6,10.5,3.5,12.5c-0.1,1.1-0.2,2.5-0.5,3.9c-0.8,3.5-2.3,6.1-3.5,7.8
	c-1.6,1.2-4.6,3.1-8.8,3.5C687.3,277.7,681.2,271.9,680.3,271z"/>
<path class="st44" d="M688.4,254.9c0,0-5.7,7.3-0.6,16.2c0,0,2.3,3.6,6.6,4.8c0,0,5.3,1.8,9-6.5c0,0,4.3-10-1.3-15.1
	c0,0-7.4-8.4-7-0.9l0.9,4.5c0,0,0.8,5.4-4.2,0.7C691.7,258.5,691.6,254.3,688.4,254.9z"/>
<path class="st45" d="M626,281c0.9,1.1,2.3,2.3,4.1,3.3c5.5,3.1,11.2,1.8,12.9,1.4c1.2-0.3,2.8-0.5,4.2,0.3c0.7,0.4,1,0.9,1.3,1.3
	c1.3,1.7,3.5,2.1,6.6,2.6c2.8,0.5,5.7,1.1,9.1-0.1c1.6-0.5,2.8-1.3,3.6-1.8c-1.9-0.6-3.8-1.2-5.7-1.8c0,0-9.8-3-10.7-3
	s-11.9-1.8-13.6-2.2c-1.7-0.4-6.8-1.2-6.8-1.2L626,281z"/>
<path class="st46" d="M628.5,281.9c0,0-6.3-5.7-5-11.9c0.5-2.5,4-5.6,3.8-5.8c0,0,0,0-0.4,0c2.7,0.1,4.8,0.7,6.1,1.2
	c0.5,0.2,3.1,1.2,5.9,3.4c1.8,1.5,1.5,1.7,2.9,2.7c1.1,0.8,3.8,2.8,7.6,2.7c3.1-0.1,5.3-1.6,6.3-2.4c4.4-1.9,9.1-1.2,11.4,1.5
	c1.2,1.4,1.6,3,1.7,4.2c0,0-0.4,3.8-0.6,4.8c0,0,5.1,0.2,5.6-1.7c0,0-2.7,6.5-9.6,9c-1.8,0.2-4,0.3-6.6-0.1
	c-1.4-0.2-3.3-0.6-5.5-1.7c-2.7-1.5-2.9-2.6-5-3.5c-1.3-0.5-3.3-1-6.2-0.2c-1.2,0.3-2.9,0.5-4.9,0.4
	C632.4,284.2,629.8,282.8,628.5,281.9z"/>
<path class="st0" d="M627.2,269.8c-0.4,0.7,4.5,1.9,7.6,8.3c0,0,6.3,1.9,2-4.2C636.9,274,630.4,263.7,627.2,269.8z"/>
<path class="st47" d="M642.6,265.3c0,0,19.8,0.3,20.7,1.6c0,0,6.4-6.8-23.4-3L642.6,265.3z"/>
<path class="st48" d="M635.7,263.4l8.1,6.5c0,0,5,4,9.7,0c0,0,13.9-3,18.2,5c0,0,4.7,10.2-7.9,14.5c0,0,14.2-1,11-14.5
	c0,0-4.3-10.3-13.9-8.2l-8.7,1.6c0,0-4.9,1.9-10.1-3.3l-3.2-2.9L635.7,263.4z"/>
<path d="M652.3,277.8c0,0,8.4-3.6,10.6,4.5c0,0,8.4-5.1-3.1-8.3C659.8,274.1,652.8,274.6,652.3,277.8z"/>
<path class="st46" d="M718.3,302c0,0,21.2,54.3-67.4,72.6c0,0,88.5-4.8,71.9-72.4c0,0-2.1-8.1-5.8-8.9
	C717,293.3,717.9,300.6,718.3,302z"/>
<path class="st49" d="M587.5,537.2l41.5,17.6C628.9,554.8,592,532.5,587.5,537.2z"/>
<path class="st24" d="M596.3,550.1c0,0-2.9,28.6-4.9,32.5c0,0,25.5-18.6,33.5-18.6C624.9,564,597.8,552.9,596.3,550.1z"/>
<path class="st50" d="M567.9,615.3c0,0-14.2,10.9-31.5,14.4c0,0,0.4,3.6-3.7,1.6c0,0-3.9-6.8-30.9-2.7c0,0-6.6,1.4-16.8-4.9
	c0,0-22.6-16-25.8,15.5c0,0,1.1,17,25.2,22.3c0,0,11.4,0.2,4.9,7.4l-26.4,23.3c0,0-1,1.4-9.2,1.4L379,696l10.8-71.6
	c0,0,1-16.6-3.9-5.5l-9.4,77.1l-93.7-24.8l3.9-44.4l-7.2,4.9c0,0-3.5,4.9-5.9-0.2c0,0-1.8-5.3-3.1-1.6c-0.5,2.1-1.3,2.5-1.6,2.5
	c-2,0.4-4.7-5.5-5-6.2c-1,0-2.4,0-4-0.6c-3-1.1-4.6-3.3-5.2-4.2c-1.2,14.1-2.5,28.3-3.7,42.4L170,643.2l22.5-172.5l0.2,0l83.1,9.2
	c0,0-3.3,3.4-4.4,5.9c-0.2,0.5-0.3,0.9-0.3,1.3l-3.5,40.3l-0.8,3.3c0,0,3.9,0,6.9-3.7c1.1,0.6,1.9,1.3,2.5,1.8
	c2,1.8,2.3,3.4,4.2,4.1c0.7,0.3,1.3,0.3,1.7,0.3c2,0.1,3.6-0.9,4.2-1.3c0,0,6.9-4.3,11.9,5.7l5.1-45.4c0,0,0.7-1.8,1.5-3.6
	c1-2.1,2.2-4.3,3-4.2l72.5,8.1h0l21.2,2.4l-7.6,65l-9.6,15.1c0,0,1.2,2.2,9.8-10.2l-1,11.3l2.9-1l5.3-47.3l4.6-33l72.6,13.2
	c0,0,7.2,0.3,6.2,9.7l-4.8,38.1l8.7-7.2v6.8c0,0,0.7,0.9,4.7-2.6c0,0,6.2-3.8,5-0.2c0,0,10.3-1.9,13.1,5.6l6.2-42.8l61.9,11.2
	L567.9,615.3z"/>
<path class="st51" d="M275.9,479.9c0,0-3.3,3.4-4.4,5.9c-25.6-2.4-50.2-5.4-73.8-8.7l-14.4,102.1c5.5,4.9,3,13.2,2.9,13.5l1.1-1.4
	c-1.3,1.7-5.8,9.7-5.8,9.7c2.9,9.5-7.9,22.2-7.9,22.2l19.1-152.5L275.9,479.9z"/>
<path class="st51" d="M305.9,483.7l-2.8,4.8l0,0c-5.2-0.4-10.4-0.8-15.7-1.3c-4.2-0.4-8.3-0.7-12.5-1.1l2.5-5.2L305.9,483.7z"/>
<path class="st51" d="M380.2,492.5c-24.1-0.7-49.3-1.9-75.4-3.9c1-2.1,2.2-4.3,3-4.2L380.2,492.5z"/>
<path class="st52" d="M485.6,509.4l30.2,5.3c-1.8,13.2-3.5,26.4-5.3,39.6c-0.8-0.6-1.7-1.3-2.7-2c-1.5-0.9-3-1.6-4.3-2
	c-1.2,1.5-3,1.8-4,1c-0.8-0.6-0.8-1.9-0.8-2c-0.5-0.6-1-0.8-1.3-0.8c-2-0.2-3.3,4.1-5.5,3.9c-0.4,0-0.6-0.2-0.8-0.3
	c-2-1.1-2-4.3-1.9-4.7c-2.6,2-5.3,4.1-7.9,6.2c1.4-5.8,2.5-12.4,3.4-19.5C485.5,524.8,485.8,516.6,485.6,509.4z"/>
<path class="st53" d="M425.1,689.2c0,0,19.2-0.4,28.2-7.4c0,0,8.8-10.8,8.4-14.9c0,0,2-4.9-5.1-9.4c0,0-12.5-13.9-2.7-31.1
	c0,0,9.6-21.5,31.9-8c0,0,16.4,14.3,46.9-21.9l44.5-69.4l2.1-0.5l-11.3,88.7c0,0-13.6,10.8-31.5,14.4c0,0,0.2,4.5-6-0.2
	c0,0-5.9-3.9-25.1-1.5c0,0-10.5,2.8-20.3-4.4c0,0-14-12.5-22.6,3.1c0,0-7.6,9,0.8,22.1c0,0,6.4,10.6,23.9,12.9c0,0,8.6,1.5,1.4,7.8
	l-25,22.1l-39,2.8C424.4,694.5,414.5,695.3,425.1,689.2z"/>
<path class="st54" d="M398.5,564c0,0-1.9-11.7,3.7,0l0.9,20.3c0,0,7.3,2.8,8.1,6.6c-0.2,3.4-0.4,7-0.5,10.6
	c-0.2,4.7-0.2,9.3-0.2,13.8c-1.3,1.3-1.8,1.4-2,1.3c-0.2-0.1-0.1-0.6,0-1.5c0.2-1.1,0.2-2.1,0.2-2.8c-0.2-1.1-0.3-2.3-0.4-3.6
	c-0.1-2.2-0.1-4.2,0.1-5.9c0,0-0.7,1.3-0.9-4.3c0,0,2.1-8.4-2.4-9.4c0,0-6.5-0.6-6.3-5.8l0.4-5.8c0,0-1.3-4.1-6.2-1.5l2.9-1l0.2-1.9
	c0,0,2.5,1.4,2.7-1.5C398.9,571.8,399.4,565.4,398.5,564z"/>
<path class="st55" d="M383.1,579.1l10.9-14.3l-5.5,41.6c0,0-1.9,2.6-2.2-5.9C386.3,600.5,386,581.1,383.1,579.1z"/>
<path class="st56" d="M385.8,619l-1.8-23c0,0,3.2-2,5.2,19.8l-3.5,3.8"/>
<polygon class="st57" points="296.8,628 292.9,661.4 367.2,679.3 371.4,643.5 "/>
<polygon class="st58" points="299.3,631.7 296,659.6 365.1,675.4 367.9,646.7 "/>
<polygon class="st0" points="299.5,655.4 301.1,638.5 309.3,639.3 309,642.1 303.9,641.7 303.6,646.1 308,646.1 307.6,649.5 
	303.5,649.2 302.9,655.2 302.8,656.1 299.2,656.1 "/>
<path class="st0" d="M308.2,657.7c0.5-5.8,1-11.6,1.5-17.3c3.4-0.8,6.6,0,8,2c0.9,1.2,1.1,2.8,1.1,2.8c0.2,1.5-0.2,2.6-0.3,2.8
	c-0.5,1.4-1.4,2.3-1.9,2.7c0,2.5,0,5.1,0,7.6c-0.9,0-1.8,0-2.7,0c-0.1-2.3-0.2-4.6-0.3-6.9c0-0.1-0.2-0.3-0.4-0.5
	c-0.4-0.3-0.9-0.4-1.4-0.1c-0.3,0.2-0.4,0.5-0.5,0.7c-0.1,2-0.2,4.1-0.2,6.1C310.2,657.6,309.2,657.7,308.2,657.7z"/>
<path class="st50" d="M312,643.4c-0.2,0.1-0.3,4.3-0.3,4.3s5,1.7,4.6-1.4C316.3,646.2,316.6,641.9,312,643.4z"/>
<path class="st0" d="M324.4,642.4c-2.3,5.6-4.5,11.2-6.8,16.8l4.1,0.8l0.4-3.2l3,0.2v5.1h3.1c-0.2-6.5-0.5-12.9-0.7-19.4
	C326.5,642.6,325.5,642.5,324.4,642.4z"/>
<polygon class="st50" points="324.2,649.1 322,653.7 325,654 325,648.3 "/>
<path class="st0" d="M336.5,650.9c0,0,3.7,2,3.5-0.6c0,0-0.9-8.3-6.6-5.5c0,0-4.2,1.6-3.9,11.3c0,0,0,10,8.2,5.9c0,0,2-0.4,1.5-8.5
	l-4.4-0.2v3.1h1.4c0,0,0.3,2.6-0.1,3.6c0,0-4.8,1.8-3.5-3.9c0,0-0.2-6.2,1-6.6C333.6,649.5,336.7,646,336.5,650.9z"/>
<polygon class="st0" points="342,646.2 340.1,664.5 343.8,665 345.3,646.2 "/>
<path class="st0" d="M347.2,647.1c0,0.3-1.5,17.9-1.5,17.9l6.9,1v-3.2l-3.7-0.7l1.6-15L347.2,647.1L347.2,647.1z"/>
<polygon class="st0" points="355.6,648.4 354.1,667.3 363.2,668.1 363.2,665 357.2,664.4 357.3,660.4 362.7,660.5 363.2,656.5 
	358.1,656.5 358.7,653.6 364.7,653.7 364.7,649.1 "/>
<path class="st59" d="M176.4,589.9c0,0,8.8,4,6.5,22.1c0,0,10.4-12.2-6.9-25.5L176.4,589.9z"/>
<path class="st60" d="M202.1,492.7c0.3,0.4,54,6.6,54,6.6l-5.1,47.8l-53.6-7L202.1,492.7z"/>
<polygon class="st61" points="203.7,496.2 253.4,501.3 249.5,544.8 199.1,538.2 "/>
<path class="st60" d="M207.4,501.9l41.4,4.7c0,0,1.8,3.4-0.9,3.4l-40.5-4.8C207.4,505.1,206.5,501.8,207.4,501.9z"/>
<path class="st60" d="M207,509c0,0,36.6,4.4,37.6,5c0,0-0.9,2.2-9.1,1c0,0-27.9-2.8-28.5-2C207,512.9,205,509.5,207,509z"/>
<path class="st60" d="M206.1,517.3c0,0-0.9,3.3,0.9,3.8c1,0.3,39.4,3.5,39.4,3.5s-5.7-2.5-9.1-2.8
	C237.3,521.9,209.2,517.6,206.1,517.3z"/>
<path class="st60" d="M205.9,524.1l0.2,2.9c0,0,18.3,2.2,20,1.9c1.8-0.3,1.2-1.9-7.2-3.2C218.9,525.7,207.1,523.3,205.9,524.1z"/>
<path class="st60" d="M205.9,530.5v3.1l23,1.6c0,0-3.7-3.7-13.4-3.8C215.6,531.4,206.9,529.6,205.9,530.5z"/>
<path class="st62" d="M180.3,623.6l2.6-9.7c0,0,4.1-0.1,5-2.3s0-0.5,0-0.5s-0.5,3.9,0.9,12.5c0,0,5.7,7.6,6.6,2c0,0,0.5-2.5-1.7-4.4
	c0,0-3.2-1.7-2.8-10l-0.4-5.5c0,0-1.9-2.5-3.4,1.1c0,0,0.2,6.6-2,0.8c0,0-1.4,3.8-2.3,4.4c0,0,1.1-7.2-2.5-0.8
	C180.3,611.3,178,617.3,180.3,623.6z"/>
<path class="st62" d="M194.4,620.5c0,0,6-4.4,8.4-4.3l0,0c2.4,0.1,2.5-6.8-1.7-4.6c0,0-8.4,4.5-9,5.2c-0.6,0.7,0-0.6,0-0.6l-1.9,3
	l2.3,3.2L194.4,620.5z"/>
<path class="st62" d="M199.4,622.5c0,0-3.2,6.5,4.3,13.3c0,0,5.2,1.4,0.8-4.2c0,0-2-6.1-1.3-9.2
	C203.2,622.5,200.8,619.4,199.4,622.5z"/>
<path class="st62" d="M435.9,658.2h-9.8c0,0-7.4-8.3,0.9-11.3c0,0,8.5-4.6,9.3,11.3"/>
<path class="st62" d="M395.4,674.5c0,0-2.1,3.1,1,5.7c0,0,2.8,1.8,2.5-4.7C399,675.4,398.4,670.3,395.4,674.5z"/>
<path class="st62" d="M412.7,669.6c0,0-4,11.9,7.5,8.1c0,0,1.1-2.9,2.1-3.7c0,0,2.6-1.9,3.7-1.2c0,0,2.4-9.4-3.5-4
	c0,0-4.3,5.5-4.1,6.5c0.1,1.1-0.1-1.1-0.1-1.1s-3.4,1.3-2.5-3.4C415.7,670.9,414.4,667.1,412.7,669.6z"/>
<path class="st62" d="M404.4,668.1c0,0-2.8,12-0.9,12.3c0,0,2.6,3.4,4.3-10.8C407.8,669.6,405.2,664,404.4,668.1z"/>
<path class="st62" d="M422.2,634.7c0,0,1.6,3,1.7,7.3c0,0,4.2,2,4.4-5.6C428.3,636.5,423.8,629.8,422.2,634.7z"/>
<path class="st62" d="M418.7,617.4l4.4,4.9c0,0,2.4,0,1.1-5.7c0,0-1.6-4.5-2.5-0.8C421.6,615.9,418.2,616.9,418.7,617.4z"/>
<path class="st63" d="M342.7,616.3c0,0-8.7,8.2-0.6,6.1l8.3-5.7c0,0,2.7-1.5,2.2,2.9c0,0,5.6,0.5,6.8-5.2c0,0,3.8-2.3,3.2,3.3
	c0,0,1.1,6.6,4.5,0.6v-1.6c0,0,1.1-3.2-0.8-3.6l0.1-8.5c0,0,4.3-0.2,3.1-4.7c0,0,2-2.3,3.9-2.3c0,0,2.4-3.3-5-3.3c0,0-5.1,1-6.2,3.3
	c0,0-1.9,6.8-8.2,3.3c0,0-1.5,1.1-1.5,1.8c0,0-3.4-1-3.5,0.6C349.1,603.2,346.8,615.1,342.7,616.3z"/>
<path class="st64" d="M355.5,589.7c0,0-1.9,4.7-2.9,7.8c0,0-0.3,3.8,5.1,0C357.7,597.4,360.4,587.5,355.5,589.7z"/>
<path class="st65" d="M393,576.2l-4.5,30.2l0.3,6.6l5.8-22.7c0,0-1,15.4-3.1,21.1c0,0,10.9-18.8,10.4-22c0,0-4.1-3.1-3.3-5.9
	l0.3-4.2c0,0,0.4-3.2-1.6-3.6c0,0-1.9-0.9-4.3,0.5C390.8,577.5,393,576.2,393,576.2z"/>
<path class="st66" d="M252.6,663l3.7-37.5c0,0,5,4.6,6.6,2.5c0,0,4.7,10.5,8.7,5.2c0,0,2,7,9.4,0l3.4-2.5l-3.7,40L252.6,663z"/>
<path class="st67" d="M305.9,483.7l-2.8,4.8l0,0l-0.3,0.5l-0.3,0.6c0,0-5.5,36-4.9,44c-0.7-0.9-1.9-2.2-3.6-3.4
	c-1.8-1.2-3.8-2.5-5.9-2.1c-2.5,0.5-2.4,2.9-4.7,3.2c-2.4,0.3-5.5-1.8-6.6-4.3c-0.4-0.8-0.3-1.3-0.8-1.6c-1.3-0.8-3.9,1.1-6,2.9
	l4.9-41.7l0.2-0.5l0-0.1l0,0l2.5-5.2L305.9,483.7z"/>
<path class="st68" d="M232.1,301.8l201,7.6c0,0-22.6,179.9-24.6,179.6c-2-0.3-198.9-22.9-198.9-22.9L232.1,301.8z"/>
<polygon class="st60" points="240.2,314.6 234.5,369.1 287.9,372.7 293.9,316.3 "/>
<polygon class="st61" points="242.4,317.9 237.3,366.8 285,369.4 291.4,318.8 "/>
<polygon class="st0" points="246.2,322.4 245.4,336 261.5,336.6 261.5,323.1 "/>
<path class="st0" d="M263.1,326.2c0,0-0.3,2,1.9,2h17.3c0,0,3.8-1.9-4.7-2C277.6,326.2,263.1,325.6,263.1,326.2z"/>
<polygon class="st69" points="214.8,466.7 237.3,308.5 432.5,314.6 433.1,309.4 232.1,301.8 209.6,466.1 "/>
<polygon class="st70" points="216.4,458.2 410.8,477 408.5,489 214.8,466.7 "/>
<polygon class="st57" points="324,465.5 327.4,434.3 403.2,441.3 399.7,474.3 324,466.7 "/>
<polygon class="st68" points="329.4,437.5 326.5,464.5 397.2,472.1 400.5,443.7 "/>
<polygon class="st0" points="330,460.1 331.4,442.5 339.8,442.5 339.8,446.6 334.5,446.3 334.3,449.9 338.4,450.3 338.2,454.3 
	333.7,453.8 333.5,460.1 "/>
<path class="st0" d="M339.8,460.5l1.2-17.2c0,0,8.5-0.1,8.7,3.4c0,0,0.9,6.3-2.1,7.6l0.6,6.2h-3.3l-0.8-5.8c0,0-1.5-0.8-1.4,0.4
	l0.7,5.8L339.8,460.5z"/>
<path class="st68" d="M343.8,447l-0.5,4.4c0,0,3.6,0.8,3.3-2.2C346.7,449.3,346.5,445.9,343.8,447z"/>
<path class="st0" d="M354.5,444.8c-1.7,5.4-3.5,10.7-5.2,16.1c1.3,0,2.6,0,3.9,0v-3.1l3.1,0.4v3.6h3.7c-0.5-5.5-1.1-10.9-1.6-16.4
	c-0.1-0.1-0.7-0.9-1.8-1.1C355.4,444,354.6,444.7,354.5,444.8z"/>
<polygon class="st68" points="355.5,449.8 353.5,455.7 357.1,456.2 356.1,449.2 "/>
<path class="st0" d="M371.8,451.3c0,0,0.9-8.4-7.1-5.5c0,0-4.7,1.9-3.4,13.1c0,0,4.1,9.8,9.6,1c0,0,2.7-8.5-4.9-5.8
	c0,0-1.5,1.2-0.4,3.6c0,0,3.2-1.3,2.9,0.8c0,0-4.7,4.4-5-2.8c0,0-0.5-5.8,3.2-6c0,0,1.6-0.7,1.8,1.8
	C368.5,451.5,371,453,371.8,451.3z"/>
<polygon class="st0" points="373.3,446.4 372.2,463.7 375.3,463.7 376.8,446.4 "/>
<polygon class="st0" points="378.4,447.2 377.4,464.3 384.5,464.8 384.5,460.7 380.6,460.7 381.5,446.4 378.3,446.2 "/>
<polygon class="st0" points="386.7,447.8 386.2,465.2 394.5,465.8 394.5,462.5 389.8,461.8 389.7,458.5 394.9,458.2 394.9,455.1 
	390.1,454.8 390,451.2 396.1,451.2 396.1,447.9 "/>
<path class="st71" d="M416.6,355.8c0,0,0.4,13.1-6.2,23.3c0,0,1.8,8.8,0,14.5c0,0,0.3,12.9-5.4,14.2c0,0,9.4-2.8,10.6-16.1
	c0,0-2.8-12.6,1-16C416.6,375.8,421.3,357.1,416.6,355.8z"/>
<path class="st0" d="M244.5,470.7c0,0-1.5-12.2-5.2-11.7c0,0,7.2-5.9,9.4,13.2L244.5,470.7z"/>
<path class="st0" d="M227.1,437.3c0,0-1.9,6.3,0,11.1c0,0,5.6,1.6,6.3,8.4c0,0,4.6,3.6,5.4,0c0,0-3.5-2-4.6-8.1c0,0-2.7-3.8-4.5-2.6
	c0,0-1.5-8.4,0.6-8.7C230.4,437.3,228.3,434.8,227.1,437.3z"/>
<path class="st0" d="M213.4,421.5l10.8,9.6c0,0,3.7,1,0.8-3.5l-10.6-8.6L213.4,421.5z"/>
<path class="st0" d="M311.1,302.4c0,0-5.4,12.9-6.9,44.5c0,0,0,1.9,6.9-2.6c0,0,7.2-6.2,6.8-2.8c0,0-1.2,5,3.5,3.5
	c0,0,7-1.9,8.1,1.3c0,0,4.3,5.7,7.5,5.1c0,0,1.9-39.9,6.9-45.4l-3.6-1.6c0,0-3.7,9.9-4.7,20.4l-0.9,19.8c0,0-0.6,2-3.7-1.8
	c0,0-3.1-3.4-6-1.2c0,0-2.6,2.5-4.6-2c0,0-2.4-4.2-7.7,0.4l-4.5,3.6c0,0-0.5-0.6,0.1-4.9c0,0,3.3-33.5,5.6-35.1L311.1,302.4z"/>
<polygon class="st68" points="435.6,310.2 411.8,490.2 560.2,516.3 583.5,354.8 "/>
<polygon class="st70" points="411.8,490.2 413.2,479.9 561.5,507.3 560.2,516.3 476.6,501.6 "/>
<path class="st0" d="M476.6,501.6c0,0,6.2-33,6.4-36.8c0,0,0.3-7.4,3.6-4.1l5.3,3.5c0,0,3.5,1.8,1.7-2.1c0,0,2.7-2.6,5.4,2.3
	c0,0,1.1,5.5,7.6,1.9c0,0,3.1,0.1,1.5,2.7l4.9-1l-4.8,39.1l-4.1-0.9l4.8-34.2c0,0-7.4,1.8-10.4-2.4c0,0-3-7.2-3.6-2.5
	c0,0,1,3.1-9-3.4c0,0-3.5,26-6.4,38.7L476.6,501.6z"/>
<path class="st0" d="M500.7,329.8l-6.2,43.8c0,0,1.3,4.8,5.8-2.4c0,0,5.8-5.3,5.3,1.2c0,0-1.5,6.3,1.3,4.4c0,0-0.4,7.6,5.7,0.1
	l4.2-4c0,0,0.8-1.8,1.6,1.1l5,12.1c0,0,1.8,1.6,2.2-8l4.9-39.3l-3.3-1l-4.4,38.5l-3.3-6c0,0-1.5-1.3-3.5-0.1l-5.8,4.7
	c0,0-1.7,1-1.5-3.7c0,0-0.8-2.8-1.5-1.9l-0.7-3.4c0,0-1.4-2.3-2.9-0.7l-3.6,2.7c0,0-2.1,2.6-1.2-4l5.1-33.2L500.7,329.8z"/>
<path class="st72" d="M540.2,444.3l-10.9,10.4c0,0-2.6,0.6-3.4,4.3c-0.7,3.7,0,0.9,0,0.9s-1.8,7,3.1,10.1c0,0,5.1-0.8,5.7,4.1
	c0,0,5.8,13.8,7.1,14.1c0,0,4.7-2.4,3.9-5.6c0,0,0.3-4.8,3.8-3.8l1.3-12.5c0,0,7.4,5.9,10.5,3.1c0,0,2.1-9.4,1-12.8
	c0,0-9.4-0.2-9-5.6l1.6-11.3c0,0-2.9-4.5-5.4,0.6l-1.2,5.3c0,0-3.1,7.8-5.6,2C543,447.6,541.3,443.2,540.2,444.3z"/>
<path class="st72" d="M560.2,442.1c0,0-4.7,2.8-1.2,6.4c0,0,5.1,2.7,6.8-2.6C565.9,445.8,565.8,440.1,560.2,442.1z"/>
<polygon class="st73" points="544.3,489.2 543.1,503.2 546.8,504.6 545.8,491.4 "/>
<path class="st72" d="M552,495c0,0-1.3-15.7,1.6-18.8c0,0,3.2-0.6,2.8,3.6C556.4,479.9,554.2,498,552,495z"/>
<path class="st74" d="M556.4,447.9c0,0-3.8,4.9,1.3,7.9c0,0,8.5,1.7,10.7-2.1c0,0,3.8-12.6,0.7-15.8c0,0-7.3-2-9.1,0
	c0,0-2.5,2.2,3.8,4.1c0,0,5.5,3.9-0.3,7.1c0,0-5.9,0.4-5.9-1.5L556.4,447.9z"/>
<polygon class="st0" points="456.5,404.5 461.3,440.9 551.7,424.9 547.4,387.9 "/>
<polygon class="st68" points="460.5,407.3 463.9,437 548,422.1 545,393.4 "/>
<polygon class="st0" points="464.7,411.2 466.7,431.2 470.4,431.2 470.4,422.4 474.8,422.4 474.8,419 469.1,418.3 468.6,414.4 
	473.6,414.4 473.5,409.8 "/>
<path class="st0" d="M476.6,408.8l0.6,20.3h5.3l-1.8-7.4c0,0,2-2.8,2.6,1.2l3.2,5.3l3.3-0.8l-4.3-6.8c0-0.4-0.1-1,0.1-1.7
	c0.2-0.8,0.6-1.4,0.9-1.6c0,0,3.6-6.5-3.4-8.4C483.3,408.8,476.6,407.6,476.6,408.8z"/>
<path class="st68" d="M479.5,411.1c0,0-1,7,1.5,6.4c0,0,3.5,0.2,3.5-3C484.5,414.5,484.3,409.2,479.5,411.1z"/>
<path class="st0" d="M492.4,406.2l-1.7,20h3.2l0.5-4l3.1-0.3l2,3.7l4-0.9l-7.2-18.5C496.4,406.2,492.5,404.7,492.4,406.2z"/>
<path class="st68" d="M494,412v7h4.2l-3.7-7C494.5,412,494.2,411.8,494,412z"/>
<path class="st0" d="M510.5,409.8c0,0-2.6-5.8-5.1-0.4c0,0-0.8,6.1,1.4,9.3c0,0,2.7,3.6,5,0c0,0,0.4-3.5-3.3-2.8
	c0,0-0.9-2.2,0.9-2.5c0.3,0,0.5-0.1,0.9,0c2.9,0.3,4.1,0,4,3.2c0,0,0.2,7.1-3.1,7.1c0,0-7.6,3.6-8.8-7.4c0,0-1.5-12.7,4.3-12.2
	c0,0,6.5-1.5,7.6,4.4c0,0.1,0,0.3,0.1,0.4C514.3,408.7,512,411.5,510.5,409.8z"/>
<polygon class="st0" points="515.2,402 516.6,422.1 521.8,421.4 519.3,402 "/>
<polygon class="st0" points="521.3,401.4 523.5,420.1 532.3,419.5 531.7,415.5 526.8,416.4 525,401.4 "/>
<polygon class="st0" points="531.7,399.6 533.8,419 543.6,418.5 543.7,414.4 537.4,414.4 537.5,410.8 542.1,410.2 542.6,406 
	537,406.1 536.9,403.5 542.2,402.8 542.5,399 532.3,399 "/>
<path class="st0" d="M245.4,341.3l36.8,2.4c0,0,1.3,2.2-1.2,2.2l-34.8-2.1C246.2,343.7,242.6,342.3,245.4,341.3z"/>
<path class="st0" d="M244.7,347.9l36.4,1.3c0,0,3.6,2.5-1.8,2.1l-32.9-1.1C246.4,350.3,242.2,349.7,244.7,347.9z"/>
<path class="st0" d="M245.6,355.6l16.9,0.6c0,0,1.9,2.2-1.6,1.9l-13.5,0C247.3,358.1,244.6,358.2,245.6,355.6z"/>
<path class="st0" d="M245.8,360.8l17.6,1c0,0,1.5,2.9-1.4,2.6l-13.9-0.9C248.1,363.6,243.8,363.2,245.8,360.8z"/>
<polygon class="st75" points="274.7,296.2 293.9,162.1 462.5,156.6 441.9,304.4 "/>
<polygon class="st76" points="274.7,296.2 293.9,162.1 462.5,156.6 462.1,159.6 299,167.4 280.6,296.2 "/>
<path class="st0" d="M356,158.3l-5.9,43.7c0,0,0.1,1.9,2.9-1.8l6.2-5c0,0,2.2-1.5,2.6,1.6l1.5,5.6c0,0,0.4,3,4-2.7l2.9-4
	c0,0,0.9-1.8,3.1,0.4l5.6,6.3c0,0,2.5,2.6,2.8-5.7c0,0,4-35.6,6.3-39.2h-4.3l-4.5,38.9c0,0-1.2,2.6-3.8-2.8c0,0-4-4.7-6.8-1.2
	l-2.6,2.9c0,0-0.9,4.4-2.6-1.6c0,0,0.7-6.2-5.3-2.9l-4.1,3.8l5.6-36.5L356,158.3L356,158.3z"/>
<path class="st77" d="M294.3,205c0,0,9.8,36.9,21.9,46C316.2,250.9,297.7,206.8,294.3,205z"/>
<path class="st77" d="M295.5,233.7c0,0,1.8,10.1,6.2,15.3c0,0-3.6-11.3-3.9-15.8C297.8,233.2,295.2,232.3,295.5,233.7z"/>
<polygon class="st0" points="380.9,253.4 377.5,291.5 433.1,294.2 437.2,254.7 "/>
<polygon class="st61" points="383,256.3 380,289.5 430.6,291.7 434.5,258.1 "/>
<path class="st0" d="M387.1,261v3.2l26.1,0.6c0,0-1-3.8-5.8-3.1L387.1,261z"/>
<path class="st0" d="M386.2,268.1v3.2h40.5c0,0-0.4-2.5-5.6-2.5l-34-0.7L386.2,268.1L386.2,268.1z"/>
<path class="st0" d="M386.2,273.8v4l41.1,1.1c0,0,0.4-2.9-4-2.6L386.2,273.8z"/>
<path class="st0" d="M385.2,281.3v2.6l23.5,0.6c0,0,1-2.8-6.9-3.2H385.2z"/>
<polygon class="st75" points="464.4,156.6 445.3,305.4 557.5,339.9 576.3,207 "/>
<path class="st0" d="M514.3,176.8l-5.9,43.2c0,0,22.7,6.1,24.8,11.2c1-3.3,1.8-7,2.5-11.1c0.9-5,1.3-9.7,1.5-13.8
	c0.7-2.1,1.5-5.2,1.7-8.9c0.2-5.1-1-9.2-1.9-11.7l-1.2,8.2c0,0-3.9,22.9-3.9,30.3c0,0-18.2-8.3-19.5-7.2l5.6-41.5L514.3,176.8z"/>
<path class="st78" d="M458,309.3l63.3,1.8c0,0,7.9,5.4,20-21.8l34.3-77.6l-18.1,128.1L458,309.3z"/>
<path class="st0" d="M494.1,322l5.7-34c0,0,1.6-5.2,3.3-0.9l3.3,6.1c0,0,2.7,4,5.1-1c0,0,2.3-1.3,4.5,3.6c0,0,1.5,3.9,5.6-1.7
	c0,0,5-5.2,4.5,0.3l-5.3,35.3l-3.8-1.4l4.8-27.9c0,0,1.1-5.5-1.2-1.6c0,0-4,3.9-6.2,0c0,0-3-2.5-6.2-0.6c0,0-4.1-1-5.1-6.2
	c0,0-1-2.3-1.6,2.7l-4.9,29.4L494.1,322z"/>
<path class="st79" d="M759.2,901.3c0,0,22-17.3,23.3-37.8c0,0,12.5,11.3,11.9,20.9c0,0-10,51.3-10,55.9c0,0-3.3,20.3-23.9,20.2
	c-20.5-0.2-1.4,0-1.4,0s-65.7,1.8-73.5-9.4c0,0,2.7-26.2,29.7-26c0,0,42.6-4,52.2,12.5c0,0-11-10.8-7.4-10.2c0,0,5.9-2.5,5.1-7.8
	c0,0,1-12.3-1.4-13.8L759.2,901.3z"/>
<path class="st80" d="M685.7,951.1c0.6,0.6,1.3,1.4,2.3,2.1c1.5,1.1,3,1.6,4.1,1.9c0.4-2.7,1.7-6.6,4.1-11c3-5.6,7.9-11.3,15.5-11.9
	c5.1,0,10.4,0.2,16,0.5c6.5,0.3,12.6,0.9,18.5,1.5c0,0,6.8-1.2-3.9-5.3c-1.5-1.1-4-2.5-7.2-3.4c-3.7-1-6.1-0.7-14.9-0.4
	c-8.7,0.3-7.8,0-9.2,0.2c-3.5,0.5-9.1,2-15.5,7C695.2,932.2,686.1,940.4,685.7,951.1z"/>
<path class="st81" d="M692.1,955.1c0,0,3.7-26,24.9-23l26.3,1.2c0,0,5,1.2,4.8-0.8c0,0-0.2-3.3-13.3-6.1c0,0,2.2-2,5.7-1.1
	c3,0.9,7.4,2.5,12.3,5.4c5.2,3.1,14.7,8.7,14.2,15.3c-0.2,2.8-2.2,4.7-4.2,6.6c-7.4,7-17.4,7.5-21.7,7.4c-4.8,0.1-9.9,0.1-15.3-0.2
	C713,959.2,701.8,957.4,692.1,955.1z"/>
<path class="st82" d="M781.6,871.7c0,0,9.7,25.4,9.4,30.4l3.4-18.3c0,0-6.4-17.9-12-19.3l-0.8,7.7"/>
<path class="st83" d="M708.8,920.2c0.8,1.1,3.2,0.5,5.5,0c0,0,1.1-0.2,10.6-1.4c6.2-0.7,11.2,0.1,14.2,0.6c1.3,0.2,7.3,1.2,11.5,2.8
	c0.7,0.3,2.3,0.7,5.3,1.5c0.9,0.2,1.6,0.4,2.5,0.3c1.7-0.1,3-1,3.7-1.6c0.1-0.3,0.2-0.6,0.2-1.1c-0.1-1.4-1.2-2.4-2.4-3.2
	c-2.4-1.7-4.9-2.5-8-3.3c-1.6-0.4-3.7-1-6.3-1.5c0,0-11.8-2.4-28.7,0.1c-3.3,0.5-6.8,1.4-8,4C708.8,917.6,708,919.3,708.8,920.2z"/>
<path class="st84" d="M749.6,903.4c0,0-9.8,2-7.9,5.1c0,0,11.3,3.5,19.8,3.1c0,0,3.8-6.8-4.8-8.2L749.6,903.4L749.6,903.4z"/>
<path class="st1" d="M682.1,956.9c0,4.5,0,9,0,13.6c0,0,2.2,5.6,10,6.8c0,0,18.5,7.9,68.3,3.2c0,0,23.5-1,29.2-16.4
	c0,0,6.6-15.3,5.9-35.2c0.3-3,0.7-6,1-9c0.1,4,2.1,6.7,3.8,6.8c1.8,0.1,4.4-2.8,4.4-7.4l1.2-23.2c-0.1-2.3-0.5-4.2-1-5.3
	c-1-2.9-3.1-6.8-4.8-6.5c-0.4,0-0.8,0.3-0.9,0.4c-0.7,0.5-0.9,1.2-1.2,2c-0.3,0.9-0.6,2.1-0.8,3.6c-0.8,4-1.6,8-2.5,12.1
	c-1.4,6.4-2.9,13.3-3.8,15.8c0,0-4.3,28.7-6.5,31.4c-1.2,2.3-4.7,8.7-12.5,12.9c-7.2,3.9-13.9,3.7-16.6,3.4
	c-7.8,0.4-16.2,0.4-25.2,0.1c-11.6-0.5-22.2-1.7-31.7-3.2c-2.5-0.8-5.1-1.6-7.7-2.5C687.8,959.1,684.9,958,682.1,956.9z"/>
<path class="st0" d="M689.4,716.2c0,0-1,28.6,28.2,31.5c0,0-24.1-7-26.2-32.3L689.4,716.2z"/>
<path class="st85" d="M559.7,627.9c-7.7,4.5-11.5,6.8-13.6,7.5c-1.3,0.4-3.9,1.1-3.9,2.1c0,0.8,1.6,1.7,2.9,2
	c2.9,0.7,5-0.8,10.5-3.1c4-1.7,3.6-1.2,6.2-2.3c2.8-1.3,6.8-3.5,11.2-7.3c5.9-4.6,11.9-9.3,17.9-14c7-5.6,14-11.1,20.9-16.7
	c6.5-4.7,15.7-10.4,27.6-14.7c17.2-6.2,32.4-6.7,42-6.2c6.4,0.4,12.8,0.8,19.2,1.2c0.1-0.8,0.2-2.2-0.4-3.7
	c-0.8-2.1-2.3-3.3-3.6-4.2c-4.5-3.1-9.5-4.5-11.4-5.1c-6.5-1.8-9.7-2.7-13.3-2.6c-2.7,0.1-7.3,0.6-12.5,3.1
	c-5.5,1.6-11.5,3.6-17.8,6.1c-12.1,5-22.2,10.9-30.2,16.3c-4.5,3-9.5,6.7-14.5,11.1c-6.2,5.3-11.3,10.7-15.5,15.5
	c-2.3,1.7-5.7,4.1-9.7,6.9C565.5,624.2,562.6,626.2,559.7,627.9z"/>
<polygon class="st85" points="659.2,564 685.9,524.7 690.4,522.9 669.6,560.6 "/>
<path class="st86" d="M785.7,588.7c0,0,8.7,20,5,24.1l-28.2,26.6c0,0-0.5-3.4,2.3-5.9l9.8-9.6l-15.5,7.5c0,0-6.1,29.1-24.1,41.9
	c0,0,0.2-1.6,2.3-3.6c0,0-8.9,9.8-6.6,1.6l3.9-7.7c0,0,2.2-5.7-4.2-0.5c0,0-34.2,34.6-74.7,38.9l-29.1,5c0,0,83.5-19.1,114.9-56.9
	c0,0,3.2,5.9-3.9,15.7c0,0,11.4-10.2,21.8-37.3l26.8-22.8C786.2,605.7,784.3,585.2,785.7,588.7z"/>
<path class="st87" d="M786.6,270.6c8.8,12.3,17.7,24.6,26.5,37c1.5,1.8,1.9,3.4,1.9,4.4c0.3,5-5.9,10.6-15.5,13
	c7.8,2.1,13.8,1.7,17.4,1.2c4.1-0.6,5.8-1.6,6.9-3c2.5-3.2,1.2-7.8,0.9-8.7l-15.7-22.9l-16.4-20.9l-5-8L786.6,270.6z"/>
<path class="st88" d="M694.3,499.7c2.6-0.1,5.3-0.1,8.3,0c3.1,0.1,6,0.4,8.7,0.7c1.2-5.4,3-11.4,5.5-17.9c2.8-7.4,6-13.7,9.1-19
	c0,0,10-17.2,14.9-19.4c-4.3,2.8-7.8,5.4-10.3,7.4c-5,4-8.2,6.7-11.3,11.2c-2.5,3.8-3.9,7.3-4.7,9.7c-0.4,1-0.9,2-1.4,3
	c-1.6,3.1-3.3,5.9-4.9,8.4C703.5,489.1,698.9,494.4,694.3,499.7z"/>
<path class="st89" d="M776.8,346.3c-0.8-12.8-1.6-25.6-2.4-38.4c0.8-0.6,1.7-1.4,2.7-2.5c1-1.2,1.7-2.3,2.2-3.2
	c1.2,13.4,2.3,26.8,3.5,40.2C780.7,343.7,778.7,345,776.8,346.3z"/>
<path class="st44" d="M622.3,258.4c0,0-3.9-17.9,8.5-23.6c0,0,8.8-2.7,11.2,5.6c0,0,1.6,1.6,1.5,6c0,0-3.7-7.4-9.1-6
	c0,0-1.2,2.2,1.2,6c0,0,1.5,8.5-4-1.2c0,0-5.3-1.2-4.3,6.8c0,0-0.7,6.3,4.3,8.7c0,0-2,2.8-1.2,3.6c0,0,13.8-0.1,16.4-15.9
	c0,0,1.6-14-7.5-17c0,0-10.8-4.2-17,6.1c0,0-10.3,17.1,1,23.2C623.3,260.6,621.6,259.5,622.3,258.4z"/>
<path class="st90" d="M626,280.8c0,0-10.4-9.8-0.5-16.6c0,0,4.3-0.6,1.7,3.7c0,0-5.8,5.2,0.8,11.6
	C628.1,279.5,628.1,282.2,626,280.8z"/>
<polygon class="st91" points="305.9,483.7 303.1,488.5 302.8,489 274.9,486.3 275,486.1 277.4,481 "/>
<polygon class="st92" points="252.6,663 252.6,664.3 280.6,671.2 281.2,665.6 253,658.8 "/>
<path class="st93" d="M637,206.4c1.5,0.2,3.6,0.7,6,1.8c3.4,1.6,5.5,3.7,7.4,5.6c1.3,1.3,2.9,3.1,4.5,5.6c1.2,1,3.2,2.5,6,3.4
	c4.7,1.6,8.9,0.7,11.3,0.2c2.9-0.6,3.5-1.3,8-3c1.5-0.6,7.3-2.9,11.9-3.8c3.4-0.7,9-1.2,16.6,1c-4.3-2.7-9.2-5.3-15-7.6
	C670.3,200.6,648.4,203.7,637,206.4z"/>
<path class="st0" d="M705.3,138.2c0,0,16.5-24.1,30.5,9.3C735.8,147.5,712.3,137.4,705.3,138.2z"/>
<path class="st33" d="M715.1,134.1c0,0,0,2.6,9.1,5.5c0,0,4.8-0.9-1.1-3.6C723.1,136,715.6,131.9,715.1,134.1z"/>
</svg>
