<svg xmlns="http://www.w3.org/2000/svg" xml:space="preserve" id="Layer_1" x="0" y="0" version="1.1" viewBox="171 87 721 928"><style>.st0{fill:#050606}.st1{fill:#010101}.st14{fill:#040202}.st15{fill:#fece08}.st16{fill:#cc962b}.st25{fill:#3b3d38}.st30{fill:none;stroke:#ed1c24;stroke-miterlimit:10}.st32{fill:#d0972a}.st33{fill:#fcef49}.st36{fill:#50524e}.st40{fill:#7a7b77}.st46{fill:#fff}.st52{fill:#383c36}.st63{fill:#cd992b}.st85{opacity:.93;fill:#fffffc}.st93{fill:#494b46}.st114{fill:#e6b558}.st123{fill:#030202}</style><path d="M473 688.69s32.72-3.65 33.97 5.31l1.69 35.37-19.59 4.05-7.48 1.74-6.96-12.43-1.63-21.25z" class="st0"/><path d="M415.96 544.77s39.97-16.58 84.24 0l.35 7.63s-76.12-10.26-84.58-4.22c-.01 0-5.09-1.64-.01-3.41" class="st1"/><path d="M445.56 914.47c1.19 3.89 1.97 7.32 2.49 10.08.96 5.08 1.63 8.57 1.57 13.3-.04 3.17-.37 4.34.15 6.95.56 2.78 1.29 3.22 2.12 6.84.73 3.19.8 5.63.81 6.36.04 2.62-.28 4.69-.49 5.77-.33 1.72-.6 3.16-1.27 4.55-1.72 3.58-5.27 5.22-8.73 6.77-3.1 1.39-5.64 2.02-8.1 2.57-8.87 1.99-13.3 2.99-18.34 3.45-4.4.4-10.03.61-16.56.1l-4.65-3.99s-38.66 19.08-79.6 15.55c0 0-37.86-2.86-48.2-11.52-.71-.5-1.46-1.07-2.22-1.73-.39-.34-.76-.68-1.11-1.01-.06-.06-.15-.14-.24-.24 0 0-.33-.36-.59-.81-.52-.91-.64-2.08-.64-2.08-.31-3.04-.07-5.39-.07-5.39.4-3.86.63-8.47 1.56-11.48.08-.27.25-.76.62-1.32.87-1.29 2.14-1.8 2.68-1.98.02-2.9.32-15.95 7.8-23.55 1.31-1.33 4.01-3.68 7.49-5.9 3.37-2.14 6.46-3.51 8.78-4.38 1.99-.48 4.13-.9 6.41-1.24 3.84-.58 8.96-1.07 14.06-.74 0 0 3.96-1.1 5.43-.29 0 0 1.47-2.79 3.96-3.3 0 0 2.93-2.71 7.26-3.23l13.06-8.14c-.94-1.3-2.17-3.28-3.08-5.91-1.14-3.29-1.23-6.01-1.32-9.76-.05-2.21 0-5.18.44-8.69 0-1.19.3-2.88.94-4.86.83-2.55 2.37-5.34 5.23-6.29.18-.02.43-.07.7-.22.91-.51 1.08-1.71 1.16-2.23.11-.75.01-1.18-.2-2.53-.11-.7-.19-1.41-.28-2.12-.06-.46-.12-.8-.12-.83-.13-.85-.42-6.99-1-23.9-1.52-3.47-1.67-6.21-1.49-8.11.13-1.47.87-4.21 2.35-9.68.27-1 .51-1.86.75-3.14.41-2.19.42-3.51.61-5.66.11-1.34.32-3.25.7-5.59 0 0 .92-6.54 2.35-13.79 1.66-8.42 3.41-14.23 4.7-18.78 5.66-19.95 3.31-18.16 7.7-32.03 1.13-3.58 10.71-33.43 11.76-36.17.09-.22.19-.44.17-.64-.04-.56-.33-1.6-1.33-3.53a91 91 0 0 1-.31-10.29c.1-3.7.41-6.91.64-9.24.16-1.65.32-3.02.44-3.99-.04-.42-.13-1.08-.37-1.85-.44-1.45-1.11-2.41-1.28-2.68-.68-1.03-1.52-3.09-2.16-7.61-.04-1-.02-2.47.29-4.21.21-1.14.47-1.99.7-2.71.48-1.49 1.36-4.08 2.84-7.68.32-1.13.72-2.86.79-4.98.12-3.19-.55-5.59-.84-6.68-1.14-4.22-2.98-11.71-5.44-21.48-1.43-5.27-2.49-9.7-3.22-12.94-.8-3.56-1.38-6.45-2.53-12.23-1.27-6.39-1.91-9.58-2.16-11.3-.7-4.7-.93-8.47-1.36-15.81-.18-3.08-.4-7.32-.55-12.4.02-4.83.05-9.66.07-14.49a66 66 0 0 1-4.59-10.55 66.3 66.3 0 0 1-3.37-18.91s1.1-2.05-4.62.37c-7.76 1.55-14.59 2.43-20.18 2.96-6.01.57-10.93.65-20.79.83-4.88.09-8.55.08-13.3-.88-3.47-.7-6.26-1.65-8.17-2.4-.6-.49-1.25-1.05-1.83-1.76-1.06-1.28-2.42-3.37-3.6-6.6-5.08-.45-10.56-1.2-16.34-2.38-14.59-2.98-26.75-7.8-36.24-12.53 1.63 2.48 3.26 4.96 4.89 7.43 0 0-22.74-3.67-40.35-30.08l-2.35 10.12s-14.38-21.13-9.83-49.01l-5.28 6.46s2.64-34.63 12.33-49.6l-3.08-.73c3.07-8.15 7.69-18.16 14.78-28.67 12.49-18.51 26.62-29.62 38.58-38.88 9.86-7.63 19.25-13.62 27.49-18.29 6.96-4.94 12.62-9.3 16.73-12.57 10.75-8.54 16.24-12.96 21.77-19.96a79.3 79.3 0 0 0 9.34-15.02c1.2 1.62 2.05 3.08 2.64 4.21.83 1.6 1.33 2.89 1.76 4.01.65 1.71 1.11 3.19 1.42 4.33 11.02-11.73 22.08-23.85 33.16-36.37 4.46-5.03 8.85-10.06 13.18-15.06.68-.89 1.81-2.17 3.52-3.25 4.03-2.54 6.49-.91 11.57-2.57 1.74-.57 1.07-.64 9.88-6.02 4.92-3 4.33-2.49 6.85-4.11 6.51-4.17 6.58-5.09 9.83-6.26 3.34-1.21 6.65-1.46 8.07-1.57 1.96-.14 3.63-.09 4.87 0 6.2.54 12.41 1.08 18.61 1.61a165 165 0 0 1 15.85 10.96l-.93 20-4.06 2.64c-1.55.21-3.45.28-5.57-.05-6.53-1-10.74-5.08-12.36-6.84-3.92.19-7.84.38-11.75.58 0 0-5.5 1.39-.37 2.57 0 0 12.25 4.11 12.55 12.77l.15 17.68c-.19 1.88-.68 3.27-1.1 4.19-.28.62-.7 1.4-3.49 5.2-.65.89-1.2 1.62-1.58 2.13.68.2 1.43.46 2.22.79.75.31 1.43.65 2.04.97l3.72 14.11-6.41 10.59c-5.91 1.69-10.46 3.61-13.59 5.09-2.85 1.35-4.31 2.25-5.39 2.98a34.1 34.1 0 0 0-7.39 6.8c-2.73 3.52-5.51 5.9-7.56 7.42-5.33 3.94-10.42 5.53-13.37 6.43-2.52.76-4.69 1.2-6.26 1.47-1.56.25-3.11.51-4.67.76.06.69.11 1.39.17 2.08 0 0-20.79 4.35-35.75 48.96 0 0 7.68.98 9.44 2.89l24.5 9.54 32.43 27.88 12.62 78.06 69.11 161.99 10.12 139.98-1.61 8.22-24.8 31.69c-.78 1.24-1.57 2.12-2.16 2.7-1.65 1.62-2.85 2.01-3.44 3.56-.22.57-.24 1.08-.27 2.08-.09 2.68.47 3.26.46 4.94-.01 2.4-1.15 5.57-2.89 7.23-.28.27-.96.86-1.3 1.88-.29.86-.2 1.62-.13 2.09.26 1.7 1.32 5.93 2.97 11.48.86 2.77.95 5.14.89 6.68-.11 3.12-.23 6.16-2.29 8.42-1.36 1.48-3.14 2.17-3.04 3.58.02.25.08.38.79 1.87 1 2.07-.35-.56 1.15 2.4.75 1.47 2.82 7.25 2.05 14.66-.24 2.29-.41 3.93-1.25 6.02-1.9 4.76-5.6 7.45-7.53 8.64" class="st0"/><path d="M444.54 950.81s1.61 8.36 0 12.91c0 0 .29 2.05-5.14 3.82-4.21 1.53-9.11 3.03-14.64 4.22-6.16 1.32-11.79 1.98-16.65 2.27-3.72.4-5.53-.49-6.49-1.47-1.08-1.09-1.64-2.85-3.37-3.23-.49-.11-.96-.08-1.58-.04-1.43.09-2.48.48-2.99.66-1.62.59-4.06 1.45-7.1 2.57-2.38.99-5.39 2.19-8.91 3.45-5.32 1.9-9.43 3.1-10.49 3.41-2.78.8-11.34 3.18-22.85 4.73-5.35.72-11.94 1.34-19.52 1.47-6.57-.14-13.91-.9-21.9-1.93-11.89-1.54-25.64-4.23-33.13-8.83-.39-2.09-.6-3.87-.73-5.22-.03-.3-.17-1.82.04-3.79.18-1.74.45-2.16.77-2.4.59-.44 1.42-.27 2.81.16 1.3.4 3.11 1.04 5.23 2.05 3.67 1.49 9.05 3.42 15.75 4.92 8.92 1.99 15.77 2.21 25.19 2.47 6.68.18 15.55.16 26.07-.64 3.35-.13 6.97-.5 10.83-.97 5.94-.72 12.94-1.92 17.14-3.83 0 0 26.31-8.8 43.92-10.47 0 .02 26.71-4.58 27.74-6.29" style="fill:#ecb740"/><path d="M275.35 958.59s20.54 12.62 75.42 8.36c0 0 14.82-2.79 20.1-4.62 0 0 27.95-9.61 41.82-10.2 0 0 27.88-4.11 30.01-7.34l-3.08-27s-.07-2.35-2.49-.37c0 0-1.91 4.4-42.11 2.64 0 0-8.07 19.81-35.99 28.83l-4.51 1.39c.21.75.44 1.89.34 3.28a9.5 9.5 0 0 1-.59 2.72c-.09.11-.23.24-.39.23-.36 0-.62-.62-.9-1.35-.73-1.84-.78-2.29-1.12-2.96-.25-.48-.67-1.15-1.47-1.83-.1.01-.25.02-.43.05-.42.08-.8.24-1.33.56-.4.24-.96.63-1.59 1.2-3.74 1.67-7.98 3.44-12.85 4.43-8.76 1.79-22.18 2.72-40.86-.69l-13.23-3.44-3.72-.97s1.17 0 0 3.15z" style="fill:#2a2e2b"/><path d="M280.1 952.51s-.42-12.41 19.32-19.53c0 0 14.09-4.84 34.92 0 0 0 10.96 6.07 16.04 17.41 0 0-1.76.22-3.35 1.81 0 0-12.16 7.42-33.78 5.97.01 0-13 .39-33.15-5.66" style="fill:#52564f"/><path d="M347.33 937.97s6.92 8.34 7.19 12.33c0 0 17.18-3.66 31.04-17.16 0 0 8.51-9.39 9.46-13.06-2.31-.2-4.19-.4-5.48-.54-4.14-.46-4.65-.63-7.11-.78-1.03-.06-1.41-.06-2.12-.19-2.02-.37-3.56-1.23-4.58-1.92 0 0-2.42-1.99-.44.57 0 0 5.06 2.64 4.26 7.26 0 0-2.93 5.6-6.68 6.36 0 0-3.3 2.59-10.27-3.64 0 0-2.35-2.05-.59 1.25 0 0 2.64 4.4 2.49 5.8 0 0-.16 2.93-7.38 5.65 0 0-3.99 2.64-9.35-3.08 0-.02-2.36-1.31-.44 1.15" style="fill:#4c4e48"/><path d="M275.35 958.59s-4.11-1.03-1.03-9.49c0 0 2.3-16.24 19.81-20.93 0 0 20.29-6.5 39.79 4.72-6.54-1.7-14.73-2.82-23.9-1.81-9.95 1.09-15.91 4.12-18.24 5.43-4.32 2.42-6.26 4.55-7.25 5.79-3.09 3.85-4.07 7.94-4.43 10.21-1.58 2.02-3.16 4.05-4.75 6.08" style="fill:#abaca5"/><path d="M327.44 920.97s16.39 6.8 20.64 11.2l4.26 2.89s3.37 2.49 5.04.39l1.65-2.05s1.33-.49-1.8-3.37c0 0-10.13-10.37-23.31-11.69h-3.74l-3.52 1.42c0-.01-1.12.82.78 1.21" style="fill:#b7894b"/><path d="m344.24 913.54 19.44 8.31c.86.6 2.02 1.5 3.23 2.76 1.9 1.98 2.52 3.42 3.82 3.43.93.01 1.68-.73 2.23-1.27 1.01-1 1.36-2.16 1.49-2.71.1-.35.24-.99 0-1.68-.16-.48-.47-.84-1.3-1.5-1.06-.83-1.92-1.3-2.91-1.86-1.51-.85-1.18-.72-2.42-1.42-1.32-.74-3.13-1.7-5.4-2.74l-11.59-4.94c-.54-.25-1.19-.48-1.93-.66-1.79-.42-3.34-.3-4.38-.12l-4.26 2.64c-.12.19-.4.68-.22 1.09s.72.51 1.44.65c.53.1.95.1 1.44.1.56-.01 1.01-.05 1.32-.08" style="fill:#dcb36b"/><path d="M350.87 876.32s-12.42 8.02-.98 24.36c0 0 23.58 11.15 43.53 11.25 0 0 31.6 3.62 43.92-1.66 0 0 7.14-1.66 6.55-9.88l-1.2-9.49-.56-2.64s-9.78 3.91-13.21 2.64l.1 10.76s-2.93 8.71-4.89 9.59c0 0 2.05-7.04 1.96-11.93l.1-5.77s1.76-2.64-7.43-1.76c0 0-21.42-1.17-30.32-3.13 0 0-24.6-3.82-29.13-8.31 0-.02-5.11-4.82-8.44-4.03" style="fill:#fed409"/><path d="M350.38 898.33s18.29 8.9 24.85 10.08c0 0 41.38 7.24 62.12 1.86 0 0 10.37-.39 4.79-22.01 0 0-7.43 3.62-13.21 2.64 0 0 2.35 16.92-4.79 20.35 0 0 1.78-5.19 1.97-12.52l.09-5.18s.38-1.98-4.6-1.94l-15.65-.12s8.02 3.23 8.71 4.3c0 0 2.35 8.22-3.13 8.22 0 0-10.66 4.21-40.3-1.08 0 0-21.33-7.19-22.01-8.24z" style="fill:#d9a329"/><path d="m487.97 786.32-4.55-1.76c-2.15.2-5.77-1.37-5.77-1.37-.29-.68-11.35-3.33-11.35-3.33-4.85-1.46-27.91-13.6-28.27-13.79 15.26 15.16 38.93 23.97 38.93 23.97 2.64-.78 2.64.68 2.64.68l-28.76 36.59c-9.39 13.6-18.1 12.91-18.1 12.91 7.14 1.66 11.04-2.74 11.04-2.74 3.21-3.62 4.11.88 4.11.88 2.72 2.64-6.44 9.39-6.44 9.39l-7.83 8.61c3.42 0 10.31-4.01 10.31-4.01.82-.59 3.9 15.85 3.9 15.85 1.1 12.33-14.6 16.58-14.6 16.58-3.38.29-5.43 1.61-5.43 1.61-3.15 1.17-22.08 1.17-22.08 1.17-2.74.16-18.27-3.16-27.18-5.13-.15-.03-.3-.07-.44-.1l.42.02 12.25.51c27.78 2.45 28.37-8.02 28.37-8.02.78-2.35-.68-7.04-.68-7.04-.88-7.34-9.1-12.62-9.1-12.62 10.86-8.71 16.14-8.02 16.14-8.02 4.4-1.08 2.64-2.15 2.64-2.15s-5.77 1.27-6.26 1.17c-6.55-1.31-13.69-2.45-13.69-2.45-6.36-.2-3.23-3.91-3.23-3.91l18.88-13.6 18.1-30.72c3.52-6.56-5.48-7.83-5.48-7.83l-13.89-2.35 17.71-2.06c4.6.2 3.52-1.66 3.52-1.66l-2.74-4.3c-.59-3.03-12.23-12.33-12.23-12.33-6.99-4.56-15.52-17.31-15.65-17.51l11.35 6.16c15.55 9.49 31.99 11.44 31.99 11.44l4.21 4.21c5.67 5.87 17.61 6.75 17.61 6.75l-15.85-8.61c-4.72-3.27-6.31-11.29-6.36-11.54 5.19 10.95 21.91 17.31 21.91 17.31.88 4.7 4.7 7.44 4.7 7.44.1-1.27-1.17-7.34-1.17-7.34 1.17-.68 1.57-3.5 1.57-3.5.66 4.7 3.97 4.5 3.97 4.5z" style="fill:#ca952c"/><path d="m378.55 882.44-.02-.08" style="fill:none"/><path d="m430.51 843.36-5.08 1.03s7.62-4.75 11.24-4.36c0 0 4.01 0 0 2.15 0 0-1.27 3.62-5.38 4.79 0 0-.2 9.49 2.74 16.04 2.93 6.55-.07 14.67-2.09 16.24 0 0-1.34 4.79-3.19 3.62 0 0 1.17-2.54 2.35-5.28 0 0 3.03-6.75 0-14.58 0 0-1.86-9.98-1.86-15.85 0 0-6.56-.81-9.44.9 0 0 5.14-2.38 7.36-2.56 0 0 1.99-.02 3.05-.83 0 0 2.46-1.61-.7-1.37l-3.15.56" style="fill:#110809"/><path d="M429.13 841.66s1.86-5.65 1.57-7.9c0 0 3.42-7.53 11.84-19.17 0 0 16.98-22.41 22.69-24.75l-16.63 22.21s-13.5 18.1-13.99 20.25c0 0-3.03 9.34-5.48 9.36" class="st14"/><path d="M428.36 785.66c4.75.16 8.64.18 11.34.17 5.53-.02 7.89-.18 12.17-.01 4.13.17 7.5.54 9.69.83.01.15 0 .37-.11.59-.26.51-.93.64-1.8.81-.4.07-.96.15-1.65.15-1.11-.08-2.79-.19-4.84-.26-3.01-.1-4.61-.16-6.69-.05 0 0-6.79.34-10.89-.35-.46-.08.52-.34.52-.34l-9.33-1.15-4.19-.71c1.92.11 3.85.21 5.78.32" class="st0"/><path d="M353.22 849.71s.74 24.79.42 26.92c0 0 21.87 4.97 24.91 6.44l-1.07-1.37s22.79 2.37 27 .74c0 0 17.17.64 14.55-12.38 0 0-1.44-10.08-9.66-14.87 0 0 8.91-7.22 13.6-7.62 0 0 12.5-3.65-.4-1.44l-16.85-2.76s-4.38-1.87.81-4.66c0 0 16.05-10.32 17.32-12.47l18.1-30.72s4.64-7.81-8.05-8.26c0 0-21.61-2.09-6.78-2.44l14.95-1.57s3.49-.35.7-3.24c0 0-4.14-7.35-7.42-9.42 0 0-14.15-10.97-15.12-13.81l-7.43-9.98 12.39 7.24s18.87 9.08 22.66 9.29l8.68 1.77s-6.26-11.25-5.28-18.98c0 0-18.29-2.49-22.11-6.46 0 0 14.53 1.47 21.57 3.08l-2.05-6.75-5.28-1.47s2.79 3.37-6.16-1.32l-14.62-7.63-11.49-5.87s-.1 3.52-6.21 1.91l-7.65-1.91c-.31-.11-.74-.3-1.2-.59-1.22-.77-1.57-1.57-2.01-1.47s-.52 1-.68 1.76c-.23 1.06-.77 2.55-2.2 4.26-.69 1.19-1.51 2.44-2.47 3.73-1.57 2.12-3.81 4.74-6.48 6.76-.96.46-2.01.91-3.16 1.32a31.8 31.8 0 0 1-8.97 1.76c-.22 2.98-.65 7.36-1.57 12.62-.31 1.8-1.03 5.68-3.62 15.46-2.88 10.88-3.12 10.32-4.99 17.9-1.86 7.52-2.95 13.46-3.52 16.73-.59 3.35-1.12 6.84-1.57 10.44-1.17 9.46-1.6 18.31-1.57 26.41 0 0 17.07 18.2 36.59 3.96 0 0-6.75 15.55-22.89 18.34 0 0-8.22.59-8.95-4.26z" class="st15"/><path d="M352.7 836.72s5.49 11.52 6.44 15.48c0 0 1.25 5.43-.95 2.05 0 0 1.89 9.4 17.82 1.58 0 0 9.33-4.88 13.8-15.08 0 0-18.78 10.49-33.02-2.13l-4.84-4.92z" class="st16"/><path d="M455.18 748.76c-.44.32-.25 1.13.58 5.1.07.32.2.93.44 1.72.21.7.43 1.25.52 1.47.66 1.59 2.02 3.06 2.55 3.62 1.89 1.86 4.23 3.76 6.85 5.8 3.85 2.98 8.54 6.12 11.91 6.75l-3.81-20.64a2.94 2.94 0 0 0-.8-1.26c-.6-.55-1.29-.66-3.11-.87-1.23-.14-2.27-.24-3.05-.32L456 748.69c-.45-.12-.69-.03-.82.07" style="fill:#fad40e"/><path d="M454.08 742.59s.1 3.82 6.6 3.57l12.33 1.32v-7.93s-.93-.54-9.46-.78c0 0-10.36-1.91-9.86.64.04.25.39 3.18.39 3.18" style="fill:#fed623"/><path d="m451.53 730.61 2.36 10.45s-1.09-3 2.92-2.97c.54 0 8.66.75 8.81.76s6.89.58 6.89.58l.49.14-.78-6.7s.24-1.32-1.96-.83c.01-.01-17.85-.75-18.73-1.43" style="fill:#c7932c"/><path d="M410.35 721.19v-3.54l8.36 2.25s7.48 1.45 10.08 1.29c0 0 1.37.62 3.28 3.7 0 0 1.57 4.01 16.53 5.23l.17 6.27-5.4-1.86s2.27 2.62-3.32.09l-28.96-14.91c-.01-.01-.42 1.22-.74 1.48" style="fill:#c38f30"/><path d="m379.53 706.62-8.71 27.1s-2.25 3.52 3.23.59c0 0 10.08-1.86 15.65-13.26l3.52-7.77s.2-1.47-2.25-1.57c0 0-7.04-2.64-7.83-4.5 0 0-3.33-1.96-4.01-.59" style="fill:#fee65b"/><path d="M378.36 679.5c-.55 4.73-.6 8.72-.51 11.67.2 6.77 1.12 8.28 1.91 9.17 1.27 1.44 3.15 2.16 6.9 3.6 2.25.86 5.58 1.89 5.58 1.89l.71-18.03s-7.09-3.31-11.43-5.93c-1.56-.95-2.75-1.8-3.16-2.37" style="fill:#74756d"/><path d="M381.51 681.85v19.88l10.72 4.4.71-18.34z" style="fill:#484740"/><path d="M398.32 682.92c-.41 1.37-.93 3.37-1.28 5.82-.41 2.84-.22 3.72-.37 7.59 0 2.66.2 7.52.62 14.86.18 1.07.45 1.86.66 2.13.15.18.34.39.34.39l.29.29c.48.42 1.1.86 1.85 1.25 2.11 1.09 4.15 1.14 5.27 1.08a99 99 0 0 1-1.09-11.1s.36-15.55 1.83-17.12c0 0 1.38-1.93-2.35-3.42-.49-.2-5.57-2.8-5.77-1.77" style="fill:#fde9a2"/><path d="M409.84 692.56v17.83s-.37 2.64 4.18 2.79c0 0 15.16 3.01 15.54 4.18 0 0-2.63-16.51-1.01-21.2-.01-.01-17.54-2.14-18.71-3.6" class="st25"/><path d="M436.37 692.56s-4.21 2.74-3.33 12.4.35 11.75 1.6 15.53c.26.78.85 4.01 12.19 4.4 0 0 18.78 2.54 22.3 2.54 0 0 10.08.39 10.66.39s5.48.68 5.09-7.73l-1.57-22.79s-.49-3.62-7.73-2.84c.02 0-36.76-3.32-39.21-1.9" style="fill:#a5b5c6"/><path d="M489.07 701.51v21.27l11.96-.36.95-.66 6.17-.15-.88-20.59z" style="fill:#40433d"/><path d="m373.74 584.05 11.64 53.92s3.99 20.91-8.78 24.65c0 0 .22 14.38 17.39 16.87 0 0 13.31-3.54 17.39 5.58 0 0-1.83 1.76 18.18 5.97 0 0 3.85-6.55 13.89-4.4l34.59 2.4s9.78.54 9.39 6.7h19.37l-7.61-145.14s-96.92-13.43-127.29 11.23z" class="st15"/><path d="M381.51 661.3s8.52 12.47 17.69 13.94c0 0 11.3 4.48 6.16 0 0 0-11.45-12.4-6.97-9.98 0 0 12.47 12.75 28.25 17.42 0 0 6.75 3.79 23.48 3.93 0 0-18.1-1.96-20.03 4.77 0 0-16.06-3.67-17.97-5.36 0 0-1.45-1.16-1.61-2.52 0 0-7.86-5.03-11.53-5.03 0 0-3.82.07-4.48 1.76 0 0-10.65-1.39-12.99-8.14 0 0-3.24-10.05 0-10.79" style="fill:#ba822c"/><path d="M409.25 328.34c-.55-1.88-1.17-4.61-1.25-7.92 0-.19-.01-.42-.01-.7.07-7.34 4.85-17.13 4.85-17.13 2.32-4.72 5.76-10.99 10.71-18.1.14-.24 1.57-2.62 1.72-2.86 2.13-3.54 2.23-3.71 2.3-3.82.95-1.63 1.66-4.72.43-11.12-.6-2.29-1.21-4.59-1.81-6.88.21-1.65.72-4.04 2.05-6.62 2.11-4.07 5.13-6.38 6.75-7.45 0 0-1.66-7.92 5.97-15.65 0 0 4.35-3.52 5.55-9 0 0-.36-1.35-1.05-1.27 0 0 4.99-27.98 11.05-38.54 0 0 12.52-34.34 60.55-38.93 1.82-.16 3.83-.25 6-.22 2.54.04 4.87.24 6.93.51 0 0 4.18-9.02 17.17-6.09 0 0 7.04 2.42 10.27 10.27 0 0 47.17 13.13 59.06 45.93 0 0 6.6 14.97 5.5 57.45 0 0 3.74 8.36 14.75 18.05 0 0 25.97 24.21 29.71 34.56 0 0 3.25 15.19-18.71 18.27 0 0-12.33-.44-15.63-1.32 0 0-8.01-.88-1.8 2.42 2.22 4.43 4.09 7.99 5.4 10.44 1.98 3.7 3.03 5.54 4.11 8.51a41.4 41.4 0 0 1 1.98 7.68c5.36 2.84 10.71 5.67 16.07 8.51l17.39 10.64s-2.42 1.98 17.17 4.4l-6.6 5.5s-29.93-.88-32.58-2.86c0 0 11.67-3.08 16.95-1.1 0 0-5.94-6.6-29.05-19.81L619 452.47l-124.72 64.34h-74.59l-34.32-51.94 7.66-52.79-46.37-10.89-26.07-6.16 4.94-11.84.2-9.39-.88-3.62 12.52.29 2.54-.84c3.63-2.43 7.98-4.96 13.07-7.22 10.2-4.54 19.6-6.36 26.65-7.1 0 0 14.38-1.47 34.24 2.54l2.54-2.64s-5.18-12.81-4.3-26.61c0 .01-.15-4.64-2.86-.26" class="st0"/><path d="M485.48 689.77h11.93l-5.97-132.35s-44.56-21.13-107.8 4.7c0 0-8.22 2.05-8.66 9.24 0 0 1.37 18.01.98 23.02l-10.52-47.43h-1.03v-3.91s10.13 7.37 15.65 9.39c0 0-19.91-15.55-21.37-36.1 0 0 13.21 18.05 22.16 17.17 0 0 10.56 6.6 52.68-.59 0 0 26.27-3.82 41.82.59l24.94 4.84c-.12 1.42-.19 2.97-.18 4.63.01 1.48.08 2.86.19 4.15a122 122 0 0 0-25.37-6.71c-24.63-3.73-45.18.97-57.54 4.98 7.84-1.26 16.61-2.16 26.18-2.32 22.96-.39 42.42 3.57 56.97 7.92 2.09 48.25 4.17 96.5 6.26 144.76h-19.71s1.86-1.72-2.18-4.65c0-.02.71-.52.57-1.33" style="fill:#ce992b"/><path d="m494.28 450.3 12.52-9.39c.12-.23.27-.38.44-.47 1.78-.89 6.38 4.87 8.66 7.9 4.92 5.64 9.85 11.28 14.77 16.92 0 0 3.52 5.28 15.26-7.34 0 0 44.61-32.87 57.81-50.48l24.36-29.35s3.52-2.05 9.1 2.64l28.76 12.03s12.62 4.99 14.38 4.99c0 0 12.33-1.17 29.35 14.67 0 0 43.43 38.15 7.63 42.55l5.58 4.99s15.85-4.4 24.65 0c0 0 15.85-5.58 17.61-5.58h-1.76s8.55-3.33-3.23-4.4c-3.23-.29-5.58 1.17-7.63-7.92 0 0-4.11-24.36-41.97-48.13l-20.84-8.22s-21.42-6.16-33.75-11.15l2.69-1.86s-19.32-9.34-21.96-15.11l-.44-.78s-13.45 27.88-23.28 34.92c0 0-29.35 32.28-47.54 44.46l-31.11 21.28s-3.82 4.11-10.12-10.12l-13.5-15.99s-1.17-3.96-6.9 3.67c0 .01-8.95 9.84-9.54 15.27z" class="st30"/><path d="M294.43 494.15c5.31-5.13 7.56-10.5 11.15-19.37a135.6 135.6 0 0 0 6.6-21.13 127.7 127.7 0 0 0 3.08-34.63l-1.47-14.09c2.5-6.92 4.56-12.87 6.16-17.61.82-2.41 1.68-4.98 2.41-8.54.82-4.02 1.09-7.42 1.19-9.78 2.62.38 5.23.76 7.85 1.15 1.27.28 2.54.56 3.82.83 1.29.7 3.31 1.6 5.87 1.81 5 .4 7.55-2.2 14.31-5.36 7.48-3.5 13.98-4.8 17.61-5.5 1.54-.3 5.63-1.04 11.01-1.32 6.53-.34 11.42.19 15.63.66 4.25.48 9.66 1.31 15.85 2.86 1.51-1.06 3.69-2.21 5.75-1.6 3.32.98 4.49 5.94 4.96 7.54 2.74 9.29 19.96 22.84 19.96 22.84s9.24 8.07 9.98 8.8c.73.73 47.91 29.13 102.27-9.39 0 0 51.96-34.29 59.22-50.84.17-.38.31-.75.43-1.11l5.94-17.61s6.82 1.76 10.78 14.97 0 1.1 0 1.1a79 79 0 0 0 7.34 9.51c3.95 4.39 11.66 11.98 28.32 20.42 9.81 4.97 25.75 11.77 47.47 15.82a168.8 168.8 0 0 1 38.81 39.87c2.79 6.16 5.58 12.33 8.36 18.49l16.21 10.71 12.91 17.9s-1.47 2.35-4.7 2.64-9.54 0-10.42 0-15.26-2.49-17.61-2.93-15.85-7.34-15.85-7.34-6.16-2.49-7.04-2.35c-.88.15-6.6 1.03-8.8 1.61-4.15 1.11-6.34 1.18-8.07.88-4.3-.74-4.83-3.24-10.27-4.21-.49-.09-.09 0-4.33-.51-4.77-.58-5.09-.67-5.8-.41-2.46.91-2.17 3.37-4.77 4.74-1.48.78-2.61.52-5.36.39-2.04-.1-8.15-.35-13.79 1.17-1.02.27-3.71 1.06-6.82 2.83-2.15 1.22-4.06 2.31-5.87 4.44-1.56 1.84-1.35 2.45-3.15 4.22-.76.74-1.68 1.5-3.33 3.15-.36.36-.87.88-1.47 1.61-.76.93-.68 1.01-1.32 1.81-1.23 1.55-1.9 1.77-2.54 3.06-.24.48-.37.9-.44 1.17 0 0-8.22 16.14-8.36 17.31-.15 1.17-.29 8.8-.29 8.8s-7.92 2.05-14.53 2.2c-6.6.15-9.39-.59-12.18-.59s-10.86-.73-13.5-.44-87.75 6.6-87.75 6.6l-13.65 19.66s-63.1-10.34-76.08-3.74l-50.4.44-12.33-2.42s-10.78-16.29-10.78-17.17.44-17.61.44-17.61c-10.66 4.28-19.68 5.98-26.14 6.72-9.27 1.07-43.4.48-30.42.54l-12.11-1.98-2.2-3.96c3.22-1.2 7.87-3.51 12.25-7.73" style="fill:#fecf09"/><path d="m295.6 496.52 17.75 2.05s17.02-24.06 18.49-45.19c0 0-9.68-.73-9.68 0 0 0-4.26 4.04-3.37-.33 0 0 7.48-39.88 4.26-55.14 0 0-5.28 3.96-6.75 8.51 0 0 4.99 20.84-2.57 51.36-.01 0-5.8 27-18.13 38.74" class="st32"/><path d="M318.49 496.67s12.18.44 17.46-.73c0 0 13.5-3.82 13.94 0 0 0 1.32-18.64 6.46-33.75 0 0 3.08-6.6 2.35-17.46l1.61-19.22 1.03-5.58s-.15-3.52-6.6 20.25c0 0-1.76 10.12-6.6 10.71 0 0-9.83 5.14-8.22-1.32 0 0 .29-29.79-.73-35.07 0 0-2.69-17.22-4.65-21.62 0 0 6.99 36.73 1.42 56.1-.01 0-1.33 25.68-17.47 47.69" class="st32"/><path d="M318.49 496.67s15.97.72 21.78-1.74c0 0 9.91-2.36 9.62 1.01s.01.81.01.81l-.79 3.15-33.75 5.28s-6.55 1.37 0-3.03c0-.01 2.94-3.33 3.13-5.48" class="st33"/><path d="M352.83 317.65s-23.11 14.11-33.02 57.3c0 0-6.33 39.4-32.44 57.01l21.39-60.97 20.07-48.2z" style="fill:#4d5248"/><path d="M295.6 496.52s-5.58 7.78-10.27 5.92c0 0 21.13 3.04 21.62 2.94s6.41-6.8 6.41-6.8z" class="st33"/><path d="M484.45 441.05s11.01-12.47 26.85-15.7c0 0 20.25 18.78 19.96 22.6 0 0 .59 5.72 8.51-2.2 0 0 40.21-22.3 74.25-65l16.32-23.92c.14-1.05.43-2.39 1.04-3.84a15.2 15.2 0 0 1 3.85-5.39l3.99 6.24c-.73.45-1.54 1.04-2.33 1.84-2.49 2.5-3.3 5.46-3.59 6.98 0 0-17.32 31.55-44.62 53.94 0 0-43.97 38.88-56.93 41.2 0 0-15.01-21.98-19.71-24.87 0 0-2.33-4.57-5.28-1.23l-3.38-.48c-2.5.74-5.34 1.78-8.36 3.23-4.38 2.1-7.89 4.48-10.57 6.6"/><path d="m322.99 308.04 15.85-.66-5.97 10.27s25.53-2.84 19.96 0c0 0-20.25 4.48-28.17 28.69 0 0-17.17 60.53-30.59 76.15 0 0-11.23 21.13-32.8 27.07 0 0 35-7.92 50.18-33.9 0 0 7.92 32.35-18.71 74.39 0 0-55.03-8.58-59.65-16.07 0 0-11.89-6.82-18.49-4.62 0 0-4.84-3.52-5.06-2.42s6.38 9.68 6.38 9.68 3.74 5.72-3.08 1.32c0 0-22.89-15.63-25.02-38.74s63.76-56.57 63.76-56.57 23.55-21.57 24.21-22.67 47.2-51.92 47.2-51.92" style="fill:#383a34"/><path d="M186.33 437.89 197 462.55s-5.94-19.15 0-40.28c0 0 3.52 16.51 21.35 21.57 0 0-3.52-10.56-2.64-16.07 0 0 12.33 30.15 60.53-15.19 0 0 26.41-37.86 33.9-67.57 0 0-9.68 12.11-12.33 13.87l34.04-50.84h-10.27s4.18-16.29 3.52-20.69l-9.24 3.52s-6.16 2.86-1.1-5.06c.85-2.05 1.7-4.1 2.55-6.14.2-.82.53-2.45-.06-2.79-.39-.23-1.07.19-2.9 1.78-3.53 3.08-6.42 6.27-6.42 6.27s4.62-11.67 2.2-19.81l-34.34 31.47s-24.21 17.17-25.53 18.71-14.88 12.46-21.57 14.97-22.45 23.99-22.45 23.99v8.58s-9.24 14.09-9.68 14.97-4.62 13.84-5.28 15.06-4.94 10.69-4.94 10.69l2.08 5.06s.35 13.22.22 13.84c-.14.63-2.31 15.43-2.31 15.43" class="st36"/><path d="M308.81 260.94s-17.61 25.97-49.96 43.36c0 0-39.18 22.89-64.71 60.97 0 0 13.87-9.9 9.24-3.52 0 0-19.49 31.23-23.55 53.7 0 0 8.8-11.45 7.04-5.06 0 0-7.7 21.35-.44 41.6 0 0-3.3-21.57 9.46-52.6l-7.48 9.24s4.84-29.93 30.59-56.35l-13.43 6.82s25.31-31.69 47.54-41.38l-10.56 13.87s15.63-18.71 26.41-23.99c0 0 28.17-21.57 41.16-42.48z" style="fill:#92928b"/><path d="M282.89 449.03s17.22-7.92 24.94-22.3c0 0 4.11 11.84-4.89 26.8 0 0-12.67-.19-20.05-4.5" style="fill:#585a53"/><path d="m322.31 268.05 35.07-38.3 6.9-8.22s5.28-13.94 19.52-10.56c0 0 31.76 7.19 38 17.02 0 0 1.17 18.93.73 19.22 0 0-1.61 2.79-1.47-5.28 0 0 1.91-6.46-8.8-12.33l-16.87-8.8s-17.31-6.9-10.42-1.76l15.99 8.51s14.23 7.34 14.67 10.86l1.03 3.37s-.73 4.4.15 7.63c0 0-1.76 15.11-8.51 16.87 0 0 4.84-12.33 1.32-18.78 0 0 .44-2.35-8.22-6.75 0 0-20.4-12.03-21.42-12.03 0 0-.3 4.66 15.11 12.91 0 0 8.07 5.14 9.54 6.9 0 0-3.82 5.72-6.31 6.02 0 0-2.35 2.05-9.83-1.03l-14.38-7.63s-.73 6.16-2.79 8.66l-4.55 3.96s2.2 19.22-18.2 33.02c0 0-14.45 4.1-18.93.59 0 0 .59-10.71-.73-12.33l-7.34 3.82s-2.2 1.47 0-3.52c0 0 4.41-10.86.74-12.04" style="fill:#ababa4"/><path d="M360.85 237.39s5.14-15.6 14.28-7.83c0 0-7.97-1.61-14.28 7.83m3.74-15.39c.91-2.5 2.72-3.86 3.52-4.45 1.24-.9 3.3-2.41 5.99-2.03 1.79.25 3.04 1.23 3.62 1.76-1.35-.12-3.39-.11-5.67.66-4.84 1.62-7.27 5.47-7.97 6.68.03-.65.14-1.58.51-2.62" class="st0"/><path d="M329.64 292.12s-.29 9.88-1.47 10.76l19.96-1.66-5.77 9.49s7.14.68 15.16-1.86c0 0 18.68 1.76 32.38-11.15 0 0 12.81-14.87 22.5-15.95 0 0 14.87-1.66 13.5-12.91 0 0-2.93-11.05-7.53-5.58 0 0-9.78 11.64-11.93 8.9 0 0-1.76 12.23-20.25 10.66 0 0-8.41-.49-9.98-4.21 0 0-.49 21.03-20.25 26.02 0 0-10.47 2.25 4.79-4.89 0 0 9.39-7.63 10.86-19.86l1.61-16.9 5.8-3.3s-6.68-5.43-4.92-13.79c0 0 1.61 12.55 12.03 12.47l4.92.95s2.86.88 0 1.39c0 0-4.55-.81-3.23 4.7 0 0 4.99 7.34-.73 2.79 0 0-2.49-3.74-1.91-5.94 0 0-7.08-1.07-8.1 8.51 0 0-1.44 4.84 4.36 5.43 0 0 14.23 4.48 18.56-2.57 0 0 6.53-14.6 6.09-19.08 0 0 .62-3.67-1.25-5.58 0 0-3.89 12.78-21.01 3.02l-9.78-6.73s2.25 5.48-7.29 13.25c.01.02-.33 41.05-37.12 33.62" class="st40"/><path d="m388.56 206.61 19.59-12.55 24.43-.66 13.94 8s2.71 1.03 2.2 3.01c0 0-2.27 7.7-1.91 10.34 0 0-6.09 1.83-16.21-5.72 0 0-1.39-.66-1.54-3.23l-1.32-4.26s1.39 3.23-.51 4.92c0 0-2.27 2.93-10.42 1.17 0 0-3.6-.44-5.87-1.91 0 0 2.05 1.47 1.54 2.57l-3.74 4.26s.22.37-2.2-.22z" style="fill:#878782"/><path d="M418.71 361.79c.78 1.67 1.57 3.34 2.35 5.02 0 0-13.43 31.43 3.3 78.01 0 0 2.42 2.33 7.7-7.79l14.75-12.55s2.64-2.42 5.28 0l9.46 13.21s.88-12.11-11.45-19.81c0 0-7.48 0-22.67 16.51 0 0-8.09-17.83-4.82-58.33 0 0-.03-8.58 6.36 4.62 0 0 5.06 8.8 15.85 18.05 0 0 3.08 2.42 6.6 11.67 0 0 16.07 23.31 15.85 34.66 0 0-13.87 17.29-13.21 58.89 0 0 16.51 6.86 26.19 1.45 0 0 1.78-48.94 25.31-73.42l-2.2-.73s-14.18 18.73-16.63 29.59c0 0-7.53 19.12-8.41 43.09 0 0-17.8 1.27-19.47-1.27 0 0 1.96-41.62 11.2-51.45 0 0 17.02-23.62 35.51-29.49l3.05-9.71c-23.95-9.13-47.89-18.27-71.84-27.4-4.53-7.74-9.07-15.49-13.6-23.23-1.47.12-2.97.26-4.46.41" class="st14"/><path d="m424.06 443.97 3.6 5.75 21.86-14.56s2.05-3.63 6.02 1.21l10.89 9.9s3.83-1.41-5.43-19.89c0 0-9.71-24.94-24.82-36.16 0 0 9.53 20.3 13.09 27.78 1.55.82 3.29 1.97 4.98 3.57 5.9 5.61 7.05 12.9 7.33 15.76.13.3.26.64.22.66s-.26-.32-.36-.48c-.44-.69-.97-1.33-1.43-2-.45-.65-1.52-2.16-4.14-5.78-1.25-1.75-2.51-3.5-3.76-5.25 0 0-3.16-4.03-7.48 1.87l-12.55 10.67c-.01 0-4.14 9.42-8.02 6.95" style="fill:#bb8b2d"/><path d="m432.16 386.22-6.55-11.46s-1.55-3.5-2.54 3.24c0 0-3.75 36.92 3.89 55.14 0 0-.53 3.11 3.61-2.05 0 0-2.75 1.47-3.41-11.14v-34.81l7.06 5.06z" style="fill:#fbf4a3"/><path d="M430.01 369.89s-19.22-27.29-9.24-60.6c0 0-4.77 5.58-4.8 8.22 0 0-4.68-2.35 6.66-20.4 0 0 10.17-17.02 12.96-17.61 0 0 4.99-6.31 4.84-9.1 0 0 .88 4.55 1.76 5.87 0 0-24.1 25.04-20.05 59.43 0 0-3.57 12.18 7.87 34.19" style="fill:#9a9b95"/><path d="M442.19 276.27s3.13 6.46 5.82 6.95c0 0-20.76 17.56-22.02 39.57 0 0 .06 12.91-1.26 15.55 0 0-3.42 6.88-1.99 12.26 0 0-4.3-29.51 3.83-48.47.01 0 9.75-22.92 15.62-25.86" style="fill:#4b4a43"/><path d="M450.06 286.93s-21.72 16.34-19.37 46.07c0 .31.05 2.89.68 3.01.48.08 1.2-1.24 1.84-3.19.04-.69.1-1.7.21-2.92.07-.74.87-8.94 3.62-16.85 4.19-12.06 12.23-21.51 14.38-23.97.01.01 1.09-2.34-1.36-2.15" class="st46"/><path d="M431.6 257.32s-1.4 12.34-.49 13.41l2.47 5.35s4.94-10.12 4.36-16.05c0 0-6.42-1.07-6.34-2.71" style="fill:#7f827a"/><path d="M435.49 250.63s-3.71 5.89-3.57 6.69c0 0 4.94-.22 5.6 1.15z" style="fill:#d9d9cf"/><path d="M480.69 226.43a25.8 25.8 0 0 1-5.54 4.18c-5.42 3.02-10.65 3.32-13.44 3.26 0 0-15.55-.15-18.34 9.39 0 0-1.03 17.9 1.03 22.89 0 0 2.64 8.51 10.56 12.47 0 0 3.45-5.5 5.43-5.72 0 0-7.16-.88-8.71-9.54 0 0-.9-10.27 4.09-13.21 0 0 1.69-1.1-2.79-.73l-5.28.29s.81-3.84 5.72-4.45c0 0 15.19-.32 21.42-5.16 0 0 6.24-4.04 7.85-8 0 0 .15 6.85 0 7.43 0 0-1.22 3.33-6.65 6.26 0 0 6.9 11.2 3.67 19.17s-.1.44-.1.44 18.59-9.2 31.79 11.45l2.05-.2-3.72-7.14s-3.23-4.4 1.17-15.16c0 0 1.76-3.62 2.54-3.52 0 0 .67-.81-1.4-.78 0 0-11.71-3.72-12-12.63 0 0 1.03-6.8 4.45-9.54 0 0-3.03-4.08-2.08-6.21 0 0-8.07 5.43-10.49 4.77 0 0-7.12-2.2-8.88-4.77-.22.69-.51 1.47-.91 2.3-.45.98-.96 1.8-1.44 2.46" style="fill:#afb2ac"/><path d="M455.74 227.36s3.52-8.22 3.13-8.8c0 0 17.95-8.76 40.84-7.14 0 0 36.24.88 66.76 17.02 0 0 31.84 16.89 36.24 23.56 0 0-15.55 1.53-19.37 21.34 0 0-2.93 19.08 5.72 28.47 0 0 10.4 11.13 6.31 38.88 0 0-2.05-12.03-3.96-13.79 0 0 3.08 28.32-29.86 55.61 0 0-23.84 16.75-35 20.55l21.72-34.05s16.14-16.73 7.48-47.54c0 0-4.26-17.31-20.98-31.25 0 0 29.64-1.61 30.72-30.28 0 0 1.17-17.12-10.08-25.53 0 0-5.87-3.62-16.24-4.11 0 0-17.71.88-31.69-9.68 0 0-4.89-4.79-12.62 1.08 0 0-2.93 3.42-9.39-1.57 0 0-4.21-4.5-9 .88.01-.01-6.65 7.72-20.73 6.35" style="fill:#545750"/><path d="M448.78 227.95s7.49-9.15 10.08-9.39l-3.13 8.8c.01 0-6.27 1.32-6.95.59" style="fill:#b0b0a9"/><path d="M474.47 216.99s37.27-7.04 70.73 7.78c0 0 24.21 5.87 28.03 22.3 0 0 4.99 10.56-.73 33.31l-4.99-7.04s.73 3.82 3.82 8.51c0 0-5.43-.41-1.76 5.08 0 0 11.59 11.51 10.27 31.31 0 0-7.19-19.22-14.23-23.33 0 0 5.14 7.19 1.61 22.01 0 0-18.1-20.44-27.47-22.13 0 0 40.2 38.85 3.02 82.87l-16.2 25.4s40.08-19.81 46.53-31.66c0 0 18.11-18.83 18.33-44.5 0 0 4.18 10.56 3.96 13.79 0 0 4.79-23.5-5.16-37.35 0 0-9.49-8.15-7.08-28.24 0 0 .22-17.87 19.58-23.1 0 0-27.73-25.19-64.12-34.35-.02-.01-51.37-13.87-64.14-.66" class="st52"/><path d="M551.65 301.79s25.9 34.86-5.57 79.54c0 0 37.97-20.09 29.55-72.66 0 0-4.46-9.9-10.04-13.76 0 0 5.77 9.93 1.61 22.01.01 0-14.23-15.34-15.55-15.13" style="fill:#3c413d"/><path d="M503.96 213.3c-1.43.04-2.9.68-3.35.88-1.55.69-2.32 1.03-2.98 1.47-.87.58-2.26 1.68-3.5 3.58a34.8 34.8 0 0 1 10.67-4.49c.17-.05.41-.13.71-.24.4-.15.44-.2.46-.25.06-.22-.45-.55-.84-.72-.54-.24-1.03-.24-1.17-.23" style="fill:#070705"/><path d="M588.85 268.05s-4.7 8.29-1.1 23.77c0 0 2.64 6.16 7.12 6.31 0 0 7.7 1.39 13.87-6.68 0 0 6.6-6.68 4.48-20.91 0 0-1.61-10.86-6.97-10.93 0 0-7.41-2.71-9.9-.37-.02.01-4.71 2.58-7.5 8.81" class="st46"/><path d="M592.3 265.19s6.02-4.77 15.99-2.13c0 0 10.85 5.99 1.61 26.87 0 0-8.36 13.11-18.85 6.51 0 0-5.24-2.43-4.64-17.02 0 0-.49-10.63 5.89-14.23" style="fill:#888984"/><path d="M593.69 282.14s-.73 7.48-1.54 1.98c0 0-1.9-5.52 4.4-15.48 0 0 5.36-7.04 9.83-1.17 0 0 2.79 2.64 1.91 7.63s-.15.54-.15.54 0-5.45-5.43-5.53c0 0-4.62.37-5.21 1.39 0 0-1.98 1.17 1.69 1.91 0 0 2.71 0 2.71 5.28l.44 4.55s.81 2.42-1.83 4.77l-3.59 3.52s-3.6 2.79-1.54-.95c0 0 4.26-4.11 3.37-7.41l-.81-4.34s-1.25-3.38-2.93 0c0 0-1.08 1.47-1.32 3.31"/><path d="M440.19 703.25s-.24-4.84 1.59-5.28c0 0 1.54-1.25 7.41-.37l26.05 2.2s2.79.29 2.35 2.64l1.3 15.69s.32 4.26-2.54 4.56c0 0-18.42.37-19.66-.66 0 0-9.24-1.25-11.15-1.25 0 0-3.45.59-4.04-2.71l-.22-4.4s.51-.2-2.13-1.34c0 0-1.69.43-1.98-3.3 0 0-.82-3.43 1.57-3.65-.01 0 2.28.22 1.45-2.13" class="st0"/><path d="M597.97 304.84c1.66-.18 4.2-.67 6.98-2.08a20.4 20.4 0 0 0 6.32-4.96c-.05 2.51-.13 5.11.06 7.78.4 5.77 1.55 15.31 4.54 30.37 0 0-13.6 20.84-26.31 30.33l-13.21 10.96s17.31-20.05 15.95-27.19c0 0 3.13 4.01 4.79-.88 1.53-3.11 3.25-7.41 4.26-12.73 1.54-8.13.66-14.58.12-18.26a61.5 61.5 0 0 0-3.5-13.34" class="st25"/><path d="M610.2 300.56s1.91-7.48 3.01-1.17c0 0 3.23 21.2 5.58 27.51 0 0 1.59 5.92-2.91 9.05-.01-.01-6.34-31.36-5.68-35.39" style="fill:#6d746d"/><path d="M618.22 266.88s3.13 10.66-1.08 22.69l4.5 20.84s-.98 1.76 5.97 2.25c0 0 16.92 3.33 23.97.49l7.53-3.23z" style="fill:#a6762b"/><path d="M452.61 214.77s3.52-50.89 44.31-63.07c0 0 34.48-11.3 65 2.35 0 0 31.17 12.03 14.92 65.19 0 0-37.52-11.78-40.31-10.6 0 0 4.55-28.03-13.94-38.88 0 0-15.7-11.3-38.15-1.61 0 0-11.74 7.78-15.41 18.34 0 0-7.04 14.97-5.14 23.04z" style="fill:#ffcd17"/><path d="M536.54 208.63s-1.17 3.23 3.37 3.96c0 0 44.83 15.55 56.2 28.98l43.24 43.7s16.69 16.51 17.15 21.9l2.61 2.75s3.52-2.84 0-7.83a74 74 0 0 0-3.71-6.13 77 77 0 0 0-8.72-10.77c-3.4-3.28-6.83-6.7-10.27-10.27-7.75-8.04-14.76-16-21.11-23.74q-2.1-1.92-4.32-3.84c-4.99-4.31-9.94-8.18-14.77-11.64-.54-.24-1.45-.75-2.05-1.76-.44-.74-.53-1.45-.59-2.35-.08-1.25-.09-3.02.2-5.21.37-4.81.46-10.03.44-15.63-.02-8.58-.54-18.71-2.49-24.87 0 0-7.04-23.28-17.41-26.41l-11.06-4.8s11.26 4.8 15.76 19.77c0 0 7.05 16.66-2.15 44.79-.01 0-35.99-11.85-40.32-10.6" style="fill:#d89d29"/><path d="M582.76 164.75c22.45 17.52 26.44 33.46 27.39 38.75.85 4.68 1.5 13.08 1.73 20.02.28 8.56-.06 15.69-.44 20.69L594.7 232.3c.01 0 10-40.25-11.94-67.55" class="st16"/><path d="M582.76 164.75c.55-.66 8.82 4.75 15.77 11.59 3.56 3.5 5.56 6.26 6.16 7.12 3.79 5.35 5.49 10.05 5.89 11.23.22.64.6 1.96 1.37 4.6 1.27 4.37 1.9 6.55 2.35 8.71.68 3.26.87 5.73 1.08 8.51.38 5.13.25 9.02.2 10.66-.15 4.72-.25 11.61-.1 21.52-1.34-1.49-2.69-2.98-4.04-4.48.58-6.45 1-15.51.18-26.32-.63-8.29-1.05-13.86-2.85-19.77-6.55-21.5-26.84-32.36-26.01-33.37" style="fill:#faf394"/><path d="M453.7 400.91q1.44 2.22 2.88 4.53c1.57 2.53 3.05 5.02 4.46 7.47 1.74 2.69 3.49 5.68 5.17 8.96 3.24 6.33 5.49 12.3 7.07 17.56 4.95-6.83 10.01-10.47 13.85-12.54 3.56-1.92 6.68-2.83 11.3-6.06 3.78-2.64 6.49-5.39 8.22-7.35-6.98.39-16.92.18-28.38-2.67a95.4 95.4 0 0 1-24.57-9.9" style="fill:#3c403c"/><path d="M625.17 332.62s5.78 9.68 4.55 24.21c0 0-42.26 58.55-62.07 66.84 0 0 29.48-20.79 34.12-44.53 0 0-25.75 7.92-31.91 14.75 0 0-1.32-2.2 10.12-9.24 0 0 5.21-5.14 8.22-8.95-.01-.02 33.15-27.09 36.97-43.08" style="fill:#e3a924"/><path d="M641.99 439.73c-.27 4.22-.17 9.81 1.26 16.14 2.52 11.17 7.88 19.06 11.36 23.38 0 0-10.96 13.79-11.54 16.83 0 0-1.66-.68-3.03-1.47 0 0-7.04-26.02-4.11-38.74 0 0-4.3 25.04-.2 38.15 0 0-2.64 1.37-4.11-4.4 0 0-8.51-24.26-8.12-32.87 0 0 .68 24.85 6.06 37.27-.91.02-8.03.32-12.62 6.4-3.94 5.22-3.22 11-3.06 12.11-9.1.46-18.19.93-27.29 1.39 7.64-.92 12.39-4 14.65-5.74 3.61-2.78 5.61-5.6 9.17-11.45 1.95-3.19 4.52-7.83 6.97-13.79.91-2.37 1.72-5.02 2.58-7.88 1.26-4.21 2.45-8.96 2.19-11.12 0 0 4.03 14.89 8.18 1.91.01 0 8.17-25.75 11.66-26.12" class="st63"/><path d="M613.89 512.53s-1.19-16.87 15.68-18.51c0 0-6.41-20.13-6.65-37.88l3.12 15.31s5.72 19.17 7.12 21.67c0 0 1.11 2.26 2.58.91 0 0-4.37-24.08.2-38.15 0 0-2.15 19.1 4.11 38.74l3.03 1.47 11.54-16.83 1.81 4.95s-7.78 13.21-7.92 13.26c-.15.05-3.08 8.62-3.08 8.62l-.59 6.45s-26.85 2.3-27.59 2.15-3.36-2.16-3.36-2.16"/><path d="M480.98 507.46s1.27 8.15-27.49 0c0 0 25.53 5.02 27.49 0z" class="st30"/><path d="M484.2 229.27s-3.13 16.68 2.98 15.55c0 0-2.51-12.62-1.89-15.55.01 0-.96-.74-1.09 0m10.77-1.62c-.77.77-1.78 1.98-2.52 3.68-1.4 3.24-1.94 8.65 1.5 12.14 2.71 2.75 6.41 2.82 7.42 2.81-1.4-.74-3.31-2.01-4.85-4.17-4.35-6.05-1.88-13.51-1.55-14.46"/><path d="m477.26 255.34-3.82-7.92s-6.55 2.64-10.76 2.35c0 0-10.86 4.21-6.95 16.92 0 0-.49 9.2 14.67 4.7 0 0-6.06-4.5-5.99-8.68 0 0-.88-7.34 3.01-1.83 0 0 .95 1.32 2.2-1.25 0 0 3.3.22 1.83-1.98l-1.91-2.79s-.51-2.01 3.82-.71c.01-.01 2.87 1.82 3.9 1.19m36 15.16c-2.11-3.07-1.59-6.83-1.27-9.1.7-5.07 3.42-8.47 4.7-9.88 0 0 8.9 2.64 16.43 2.05 0 0 12.42 7.14 5.48 17.61 0 0-2.25.78-1.27 2.35-1.92.6-4.93 1.36-8.68 1.47-4.44.13-12.06.36-15.39-4.5" class="st46"/><path d="M522.5 260.28s-2.2 7.97 3.89 11.15c2.97 2.05 6.54 2.39 9.13.81 1.51-.92 2.32-2.27 2.71-3.12.4-.75.95-1.98 1.1-3.6.24-2.5-.6-4.43-1.03-5.26 0 0-.63-3.27-6.41-5.09 0 0-3.57-.68-4.89 1.71 0 0-.2 1.42 1.22 1.27 0 0 2.4.44 1.76 2.15 0 0-1.13 2.45-3.6 2.05 0 0-.46 1.22-2.66-2.01-.4 0-.81-.03-1.22-.06" style="fill:#080505"/><path d="M505.04 227.65s-3.33 11.79 12.72 16.56c0 0 6.95 3.2 17.9 3.69 0 0 12.13-1.08 16.43 6.16 0 0 5.09 8.22 5.18-1.08 0 0 1.76-9.29-4.4-14.38 0 0 4.99 4.21 6.65 7.68 0 0-1.37-9.44-12.81-12.08 0 0-13.35-2.05-17.49-1.08 0 0-12.74 2.15-24.72-5.23z" style="fill:#b2b3ad"/><path d="M472.47 272.62c.43.36 3.15 2.67 5.08 3.69.52.27.95.44 1.38.55 0 0 1.06.27 2.23.15 1.97-.21 4.16-1.53 4.91-1.96 2.35-1.33 4.41-1.65 7.67-2.16 2.26-.35 4.59-.69 7.52-.1 2.32.47 4.11 1.33 5.27 2 4.44 2.21 7.09 6.91 6.65 11.8-.45 5.07-4.13 9.34-9.14 10.57.54.04 5.91.3 9.54-4.06 3.86-4.65 2.21-10.28 2.09-10.68-.4-1.36-1.01-2.93-1.95-4.56-2.82-4.88-6.98-7.4-9.21-8.52 0 0-10.92-11.45-25.49-2.64-.01-.02-.2 4.32-6.55 5.92" style="fill:#adada8"/><path d="m479.72 265.12-.82 2.13s9.46-3.56 19.44-1.06c0-.01-6.49-5.86-18.62-1.07" style="opacity:.75;fill:#1f1f17"/><path d="m477.26 270.55 7.87.29s-.29 2.09-4.35 1.78l-4.6-.26s-.49-.49 1.08-1.57z" style="fill:#1a1b16"/><path d="M538.71 252.21s9.57 9.29 4.29 18.34c0 0-1.66 2.89-5.67 2.98 0 0-14.15 4.92-26.5-1.93 0 0 8.21 8.77 26.11 8.63 0 0 7.92-.93 14.97-6.4 0 0 3.52-2.49 6.26-2.23l2.84-9.33s1.52-6.25.47-10.06l-1.93-5.92s-3.09-5.25-4.75-5.94c0 0 2.97 3.35 2.97 11.86 0 0-.51 4.78-1.69 5.14 0 0-1.18.56-3.25-2.25 0 0-5.34-2.67-7.76-2.38-.02 0-6.1 0-6.36-.51" style="fill:#83867f"/><path d="M460.42 291.4c-.72-1.11-3.21-4.96-1.82-8.58.25-.66.81-1.77 2.13-2.85.76-.54 1.92-1.19 3.43-1.5 3.91-.81 7.06 1.27 7.78 1.77 3.86 2.7 4.24 2.25 5.91 2.65 2.01.48 5.04.5 9.3-1.83 1.42-.9 3.41-1.92 5.94-2.56 5.37-1.35 9.91-.15 12.01.56.91.84 2.57 2.62 3.38 5.39.32 1.11 1.2 4.7-.67 8.29-.44.86-1.32 2.49-3.23 3.65-2.82 1.71-5.79 1.11-6.53.93.25-.27.59-.65.95-1.15.75-1.03 1.18-1.62 1-2.15-.2-.62-1.12-.84-1.44-.91 2.86-2.92 3.85-6.5 2.55-8.86-.27-.5-.79-1.21-1.84-1.82 0 0-5.09-1.96-11.3 2.45-1.23.93-2.07 1.84-2.6 2.48-1.4 1.67-3.26 3.91-2.82 6.18.23 1.2.96 1.63.66 2.42-.41 1.08-2.17 1.33-2.69 1.4-1.66.23-3.03-.36-3.75-.75.23-.62.15-1.08.1-1.29-.05-.22-.13-.4-.2-.55-.13-.29-.28-.52-.41-.7 0 0-.07-.1-.15-.19-.39-.48-1.68-1.63-1.79-1.72.26-.91.47-2.14.24-3.55-.73-4.61-5.38-6.81-5.92-7.06 0 0-5.97-2.45-6.55 2.74.18.75.51 1.77 1.12 2.86.73 1.28 1.57 2.17 2.2 2.74.84.13 1.73.3 2.65.52 2.02.47 3.81 1.08 5.37 1.71l1.96 1.42c-.7.12-1.47.2-2.31.21-3.01.04-5.45-.86-7.01-1.62-.57-.1-1.52-.18-2.64.08-.79.19-1.42.49-1.84.75-.3-.35-.73-.87-1.17-1.56" class="st40"/><path d="M475.4 187.16s6.16-18.29 28.56-17.12c0 0 13.7-.1 20.93 9.29 0 0 5.77 8.8 6.26 10.76 0 0 1.86 2.74-3.91 0 0 0-13.87-4.79-20.73-3.03 0 0-21.63.59-21.73-.1.01 0-8.3-.78-9.38.2" style="fill:#555c61"/><path d="m475.4 187.16-1.59 4.15s11.15-3.44 12.84-3.59c0 0-8.12-1.64-11.25-.56" style="fill:#75573c"/><path d="m511.82 188.16 19.3 5.28s1.13-1.93.59-2.64c0 0-.18.69-1.03.51-.01 0-17.18-4.84-18.86-3.15" style="fill:#62523d"/><path d="M467.57 206.65s0-8.93 2.64-11.37c0 0 45.24-4.41 55.98 2.45 0 0-.22 9.88-1.4 10.76 0 0-23.6-3.42-28.43-2.54 0 0-27.33 1.37-28.79 2.54z" style="fill:#f6c116"/><path d="M532.63 210.63v-11.35s.15-2.84-3.4-3.33c0 0-28.1-9.39-59.01-.68 0 0 40.62-3.59 50.44.36 0 0 5.56 1.4 5.54 2.09 0 0-.42 10.08-1.4 10.76z" style="fill:#fded6e"/><path d="M443.56 262.39s-4.74 15.65 9.34 19.85c0 0 1.27 1.17 2.05-3.62.01 0-9.39-5.08-11.39-16.23" style="fill:#f8f8ef"/><path d="M450.06 286.93s2.54-3.59 4.01-.01c0 0 1.47 7.31 6.6 6.62l1.62-1.01s3.39-1.29 8.3 1.06l4.81-.05s1.76 2 1.37 3.08c0 0 4.85 2.25 6.63-.98 0 0 13.32-2.95 14.84-2.1 0 0 3.59.39-1.87 4.25 0 0 4.06-.04 7.01-.94 0 0-.1 2.9 8.31-1.95 0 0 5.82-2.8 3.52-16.08 0 0 8.42 5.07 12.96 4.19 0 0-11.48-3.12-14.62-9.19 0 0 13.98 10.8 31.79 4.19 0 0 10.81-6.99 12.81-6.42 0 0-1.52 6.44-8.12 10.77 0 0-9.05 7.13-25.97 3.44 0 0 18.78 16.58 22.01 23.33 0 0 12.62 23.62 7.48 38.44 0 0-4.65 29.49-38.35 36.98 0 0-29.44 11.89-55.71-4.4 0 0-17.75-12.77-19.96-21.72l-2.2-3.67s-8.36-3.08-7.48-11.74c0 0 1.47-7.04 3.08-9.1 0 0 1.08-4.03.97-5.8-.01-.11-.02-.22-.04-.31-.29-1.56 2.53-17.17 8.32-25.87l7.12-10.38s2.45-2.51 2.36-3.27c.01.01.12-1.8-1.6-1.36" style="fill:#afb1a8"/><path d="M536.33 298.31s13.42 18.76 8.72 42.38c-2.66 7.48-6.15 13-8.8 16.6-9.16 12.4-20.28 17.92-23.33 19.35-2.9 1.35-8.22 3.56-14.97 4.72-18.75 3.23-34.44-4.01-40.94-7.5 0 0-11.15-7.49-13.5-11.89 0 0 3.37 14.12 30.96 24.67 0 0 25.8 6.29 50.9-5.3 0 0 21.29-6.98 28.04-33.02 0 0 4.6-13.77-4.9-34.02 0 0-8-13.91-12.18-15.99" style="fill:#8f8f88"/><path d="M439.26 341.13s7.73-9.32 16.48-10.97c0 0 29.59-11.19 36.05-10.01 0 0 17.02-1.91 24.65 3.67 0 0 12.62 5.43 19.08 21.86 0 0 5.18 12.47-6.29 7.19 0 0-44.25-14.53-50.9-13.21 0 0-17.64-1.63-37.24 3.66-.08.05-.76.52-1.35.26-.64-.27-1.02-1.36-.48-2.45" class="st1"/><path d="M458.67 333.79s26.16-9.98 40.35-9.1c2.45-.15 5.81-.05 9.57 1.03 8.28 2.37 13.17 7.94 15.05 10.36a36 36 0 0 0-5.79-1.59c-6.77-1.26-13.71-.5-13.79.49-.06.72 3.55 1.56 10.76 3.23 4.76 1.1 8.71 1.85 11.37 2.33 0 0 3.52 3.64 4.21 8.36 0 0-41.12-17.17-67.24-13.94.01.01-8.25 1.33-4.49-1.17" class="st46"/><path d="M457.69 354.17s5.19-7.17 19.42-4.53c0 0 14.97 3.82 18.93 10.12 0 0-20.1-9.09-34.48-5.35 0 0-6.8 2.24-3.87-.24"/><path d="M496.04 359.76s1.17 3.52-5.72 1.47c0 0-24.26-4.11-34.58-2.05l4.83-4.46c0-.01 14.15-4.4 35.47 5.04" style="fill:#878886"/><path d="M639.18 501.21s-15.68-3.74-18.22 5.87c0 0-2.03 3.67-.56 4.59l20.4-.92s-.22-6.16.66-8c-.01.01-1.18-2.05-2.28-1.54" style="fill:#9ea19d"/><path d="M632.21 500.85s-10.42 8.71-10.71 10.77c0 0-1.72.53-1.63 0 0 0 .14-4.14 1.75-6.24-.01 0 2.31-5.25 10.59-4.53" style="fill:#f8f5ea"/><path d="m487.97 786.32-1.61 8.22 6.02 1.32s1.91.15 2.79 2.64l18.64 23.04 1.17 12.91s-.29 4.26 6.31 3.08c0 0 4.84-1.47 7.04 2.79l7.78 10.56s8.66 5.72 9.24 16.58l2.79 14.82s1.32 5.14 4.7 7.78l3.23 2.35s-1.76 4.24-1.61 7.84l.15 3.6s.59 15.85 13.79 21.13v27s-2.2.29-1.47 21.13c0 0 4.84 6.02 16.43 13.5 0 0 3.77 16.39 12.96 19.42 0 0 21.37 9.2 50.13 7.73 0 0 35.8-2.05 45.19-6.75 0 0 15.55-2.2 17.61-12.91 0 0 .29-15.26-3.82-20.98 0 0-1.03-12.03-6.31-20.1 0 0-24.06-14.38-30.08-31.69l-4.11-8.22s-.29-1.61 3.52-5.58c0 0 8.51-7.04 1.32-30.37 0 0-4.84-6.9-5.38-6.6 0 0-.1-.1 1.08-4.06 0 0 1.76-10.91-4.6-19.32 0 0-5.67-11.64-6.85-13.01l.49-5.14s.15-1.03 5.14-.88l203.81-14.09s5.5 2.2 11.23-8.14l13.87-14.75s2.64 2.42 2.64-7.04l-11.23-287.67-63.17 3.74s-14.67-23.09-18.29-23.28c-.13-1.63-.49-4.02-1.59-6.68-.76-1.85-1.98-4.07-5.06-7.48-2.35-2.6-6.12-6.25-11.67-9.83-1.95.5-3.9 1-5.84 1.49l-5.97.78-8.8 1.27s-9.05 1.93-9.32 2.58-4.08 2.12-4.08 2.12-5.87-.98-8.61-.98-9.59 1.57-9.59 1.57-6.26.98-6.85.98-2.25-1.57-4.5-2.05c-2.25-.49-7.43-2.41-8.12-2.42s-8.32-.02-8.32-.02l-3.03 2.15-1.66 3.03-18.83.98-10.61 5.36-4.94 5.96s-5.64 4.94-6.05 5.91-3.78 4.78-3.19 5.37-2.07 5.84-2.35 6.41-4.26 4.6-4.55 5.48-.16 6.22-.96 7.22-1.53 4.99-1.53 4.99l-126.19 6.42s-3.67 0-4.84 2.64c0 0-10.39 19.7-11.43 20.64 2.41 53.23 4.83 106.47 7.25 159.7.32 6.98.98 21.51 2.08 40.84 1.64 28.96 3.32 52.39 4.45 67.3.09.33.08.53-.01.59-.37.25-2.33-1.22-10.99-13.21 0 0-3.96-6.6-7.78-7.48z" class="st1"/><path d="m517.74 524.38 355.14-20.34 11.44 280.62-349.52 22.99z" class="st46"/><path d="m520.4 825.64-13.88-283.19 6.94-13.5 16.92 282.02z" style="fill:#c0a173"/><path d="m510.57 542.74.51 27.37 2.35 10.85v-17.53l-.44-25.38z" style="opacity:.57;fill:#f8f5ea"/><path d="m534.41 813.39 344.9-22.23-14.09 16.73-342.47 22.01z" style="fill:#ae8554"/><path d="m871.58 797.57-1.27 2.84-43.24 3.42s-37.56 4.5-42.06 1.37c0 0 34.24.23 41.28-3.26z" style="fill:#392512"/><path d="M777.62 478.62h-4.11s-2.2-7-16.87-2.92c0 0-8.36-8.68-13.35-9.34s-.73 0-.73 0-12.62.08-15.7 2.57c0 0-20.54-7.2-26.41-2.57l-4.55 3.89-13.5 30.53s-3.08 3.37-2.49-.89-.07-1.03-.07-1.03l13.87-28.61s-3.23 1.17-11.3-.29c0 0-10.71 2.35-13.5 6.6 0 0-16.29 21.62-17.61 25.48 0 0 9.93-.49 11.35.49 0 0-10.27 1.13-11.89 1.52l2.98 22.55-.29 7.34s-5.87-14.52-6.46-24.36c0 0-3.13-5.28 8.8-21.33l11.93-15.75s3.62-5.87 13.21-4.4c0 0 9.44 3.42 11.52.88 0 0 8.98-9.49 16.75-7.78 0 0 6.38 1.48 8.36 3.52 0 0 7.39 5.62 12.86 1.03 0 0 8.51-2.84 12.81.15l12.18 7.73c.01 0 11.84-4.79 22.21 4.99" class="st85"/><path d="M643.36 517.18c.89 6.56 2.13 12 3.23 16.09 2 7.43 3.61 10.63 4.89 12.81 1.55 2.63 3.15 4.64 4.35 6.01 1.71 1.04 4.6 2.23 8.33 2.75 4.77.66 10.75-.11 15.59-5.83.5 1.07 3.7 7.65 11.42 10.03 1.35.42 7.98 2.29 14.5-1.55 4.42-2.6 6.44-6.45 7.15-8.01 2.45 2.97 5.07 4.36 6.56 5 7.38 3.18 14.46-.15 16.04-.9 1.22-.57 2.82-1.34 4.45-2.94 3.18-3.12 4.02-6.95 4.28-8.66 1.61 1.04 7.54 4.61 14.95 3.15 3.3-.65 5.6-2.04 6.59-2.7 6.29-4.19 8.03-11.18 9.11-15.53.69-2.78 1.47-7.3.85-13.01.31-.42.62-.93.94-1.5.48-.87.97-1.96 1.05-2.89-44.77 2.57-89.53 5.12-134.28 7.68"/><path d="M670.77 474.67s8.09-5.91 13.82-4.35c0 0 7.53.82 9.11-.06 0 0-6.41 11.64-8.46 7.63 0 0-11.25 18-12.72 26.8 0 0 .49 16.34 2.93 23.58 0 0 4.3 9.59 1.57 13.79 0 0-2.84 7.92-15.16 4.79 0 0-3.33.2-5.38-5.72l-3.03-7.19s.36-6.23.28-7.09-2.25-17.34-2.25-17.34-1.37-2.51-.69-5.21l9.55-1.13 2.3-.64-1.39-.38 3.49.58s-.2-1.86-3.18-2.74c0 0-3.4-.8-8.79-.72l10.89-15.65 5.44-7.34z" style="fill:#9d9e97"/><path d="M650.6 505.42s8.36.54 9.09 0c0 0 3.2-1.78-.24-1.76l-8.67.64zm.69-3.37s9.05-1.42 13.45.68c0 0-.79-4.69-12.11-3.23z" class="st1"/><path d="M684.84 471.43s-7.73 19.5-13.89 26.04c0 0-4.7 6.3-2.64 14.39l1.47 14.06-.2 2.93s-7.92-2.05-10.17-.68c0 0-4.31-1.36-5.72.68 0 0-2.11 2.84 2 10.42 0 0 1.47 6.01 6.16 7.58 0 0 8.69 3.11 13.88-2.75 0 0 3.06-2.91 1.83-9.18 0 0-3.76-10.85-3.76-14.53l-1.28-15.71s2.28-9.57 4.42-11.83l8.3-14.97s.59 5.28 8.46-7.63c0 0-3.88.9-9.11.06z" style="fill:#7a7b74"/><path d="M656.32 538.39s-1.57-6.26 3.86-7.34c0 0 7.48-1.91 10.03 2.64 0 0 1.47 4.4.83 6.16 0 0-.05 2.74-11.69 3.13 0 0-.78 1.52 8.46.93 0 0 4.7-.54 5.33-3.13 0 0 1.42-3.82-.73-8.07 0 0-1.02-4.65-7.55-4.6 0 0-7.93-2.13-8.75 2.59-.08.5-1.84 3.63.21 7.69"/><path d="M709.2 464.91s2.89.33 6.17.86c3.65.59 7.79 1.43 8.98 2.35l-5.28 6.83s-5.67 1.66-15.55 23.18c0 0-3.42 1.37-2.45 21.42 0 0 .39 13.11 1.96 15.46 0 0 5.77 7.63 2.64 12.57 0 0-3.33 6.6-11.25 4.75 0 0-7.14-1.27-9.29-7.04l-6.65-33.61s-1.42-4.25 0-8.01c.57-1.85 1.14-3.71 1.72-5.56.99 2.04 1.66 3 2.01 2.9.08-.02.14-.09.18-.22l13.5-30.53s5.27-6.56 12.25-5.41z" style="fill:#979992"/><path d="M682.2 502.24s13.5.15 14.82 1.42c0 0 1.47 1.36-2.59 1l-11.4-.56s-3.57-.59-.83-1.86m.98 4.4s10.96-.78 11.98-.24c0 0 .39 1.12-3.67 1.12h-7.09s-2.1.3-1.22-.88" class="st1"/><path d="m719.17 475.7-.59 2.87s-4.3 3.13-7.14 10.47l-6.16 15.69s-.78 5.35 0 7.79l3.52 27.1s3.72 9.17-9.2 13.05c0 0 7.24-2.07 6.95-9.42 0 0-.3-4.51-3.52-8.23 0 0-1.32-2.8-1.68-10.17l-.41-9.1c-.02-.84-.04-1.97-.03-3.3 0-.37.01-1.46.04-2.49.13-3.9.69-7.48.69-7.48s.66-2.32.7-2.47c1-3.49 6.08-11.81 7.83-14.66 2.06-3.36 2.93-4.74 4.55-6.54a31.6 31.6 0 0 1 3.8-3.58c.03-.03.18-.12.65.47" style="fill:#7d7e77"/><path d="M687.16 537.46s6.04-3.82 12.45.29c0 0 3.76 2.52 3.18 8 0 0-.15 1.83-5.06 2.42 0 0-7.16 3.25-10.56-3.3 0 0 .22 5.43 6.53 5.72 0 0 8.07-.73 9.83-3.52 0 0 3.74-4.11-1.17-10.71 0 0-4.99-4.48-12.77-2.42l-3.3 1.91c-.01-.01-.89 1.98.87 1.61" class="st0"/><path d="M719.08 474.95s-1.27 7.83-2.54 10.76l-5.87 19.01s-.59 4.56 0 8.08l3.52 20.59s.29 14.43 8.12 14.82c0 0 6.07 2.93 11.93-2.45 0 0 4.99-5.58 4.89-12.38 0 0-1.66-25.09 0-27.83 0 0 5.18-18.49 10.37-20.45l-.68 5.18s-4.89 13.4-4.79 15.16l1.47 25.83s-1.37 6.95 8.41 7.73c0 0 8.8 1.86 12.72-6.46l3.03-17.71s-1.27-2.35 0-3.33c0 0 6.95-14.77 6.75-21.03 0 0 2.64 1.66 3.42 9 0 0 3.91-7.2 2.84-2.04l-1.96 4.77h8.12s.39-9.98-11.2-23.62h-4.11s-2.3-6.56-16.87-2.92c0 0-9.98-9.91-13.35-9.34 0 0-15.21.57-16.43 2.57l-2.5-.81z" style="fill:#8e8f88"/><path d="M738.59 522.74s1.93 14.21-.96 17.57c0 0-3.38 8.53-9.89 8.71 0 0-5.12-.13-6.91-1.06l-2.43-3.65s11.79 1.32 13.06.2c0 0 4.01-2.01 1.42-11.4l.54-23.38s.99-5.67 2.24-7.73c.05-.09.11-.17.16-.24 1.32-1.81 6.95-17.71 12.52-20.25l1.29 2.15-1.73 2.58s-6.01 8.37-8.75 19.33c0 0-.99 7.9-.56 16.92" style="fill:#72756f"/><path d="m710.41 508.68 22.99 1.58-.48 21.03s-13.83-5.29-19.42-1.94c-.01.01-3.11-20.1-3.09-20.67" style="fill:#757574"/><path d="M717.24 534.08s-.99-1.1 0-2.13c0 0 5.87-3.45 12.62-.66 0 0 3.62-.29 3.53 9.83 0 0-.08 5.28-7.49 3.78l-7.11-.55s-1.55-.38 2.63-.3c0 0 6.97.4 8.02-.43 0 0 2.98-.1 2.03-5.18 0 0-.05-5.21-4.33-5.6.01 0-7.99-1.47-9.9 1.24"/><path d="M714.48 505.23s-.44-1.77 1.86-1.74l13.01 1.74s1.32 1.83-3.86 2.33c0 0-10.24-.08-11.04-2.04z" class="st1"/><path d="M747.98 525.57s-3.01 13.57 10.12 10.79c0 0 2.49-.73 2.49-2.93 0 0 .66-7.34-4.77-8.22.01 0-7.69-.51-7.84.36" class="st93"/><path d="M747.45 525.5s-.64-2.4 3.2-2.57c0 0 6.97-1.35 10.32 2.76 0 0 3.16 4.23-.34 9.39 0 0-1.76 2.23-5.11 1.52 0 0 6.19-.22 5.01-6.29 0 0-1.05-4.6-4.08-4.77 0 .01-7.88-.65-9-.04"/><path d="M744.14 507.56s11.13 7.79 18.66 3.88c0 0 2.48 0 3.59-5.92l6.49-17.17s1.08-4.01.49-6.85c0 0 .68-2.89 1.66-2.89h-2.05s-.39-3.63-7.53-4.19l-8.8 1.27-7.03 7.95-.11 1.47-.68 5.18-4.4 13.17z" style="fill:#ababab"/><path d="m748.96 506.06 11.25.64s.83 2.17-2.25 1.99l-7.43-.47c0-.01-1.47.38-1.57-2.16" class="st1"/><path d="M784.62 476.71h4.6c2.96 2.81 6.12 6.12 9.29 9.98 3.86 4.69 6.94 9.22 9.39 13.3-3.88.62-8.86-.11-12.74.51-.43-2.85-.08-4.88-1.44-8.53-2.58-6.93-6.26-12-9.1-15.26" class="st93"/><path d="M749.61 461s5.41 5.95 5.85 5.95 13.21-1.47 15.92.66l5.06 2.57s1.03 1.1 5.65.81l7.26.05s.54-1-.54-2.25c0 0-7.75-10.12-10.62-11.01 0 0-2.49-2.57-7.34-1.83 0 0-2.55.48-5.33.99-3.28.6-6.88 1.25-7 1.21-.19-.07-8.91 2.85-8.91 2.85" style="fill:#d3a02a"/><path d="M765.54 456.94s7.47-1.89 13.3 14l10.52.1s.57-.88-1-2.85c0 0-6.82-9.23-10.15-10.41 0 0-2.54-3.59-12.67-.84" style="fill:#fbf286"/><path d="M656.47 553.7s3.95 8.02 15.67 8.51c0 0 5.95-.29 10.35-2.35 0 0 2.15-.88 3.13 1.37 0 0 9.88 12.33 27.59 3.23 0 0 3.72-2.35 6.55-.68 0 0 17.14 6.85 27.64-4.99 0 0 1.8-5.38 8.94-2.54 0 0 14.67 2.05 25.09-15.11 0 0 8.17-17.63 7.39-27.23l.05-4.39h-11.26s-.66 3.58-1.98 4.39c0 0 2.13 10.52-5.06 23.79 0 0-6.02 9.52-18.24 7.48 0 0-4.65-.69-8.2-3.18 0 0-2.08 9.65-8.73 11.6 0 0-9.68 5.26-19.86-.94l-2.74-3.17s-2.26 9.2-15.06 9.98c0 0-9.67 1.74-15.85-6.81l-2.15-3.64s-8.41 11.43-22.79 2.92c.01 0-2.25-.7-.48 1.76" style="fill:#cdced2"/><path d="M873.59 530.9c-2.08 25.88-9.67 73.45-42.26 119.4-7.66 10.8-25.44 33.83-62.07 59.43-83.95 58.66-184.1 72.92-235.95 77.04.73 7.19 1.47 14.37 2.2 21.56l349.52-22.99z" style="fill:#eaedea"/><path d="m591.2 647.66 1.76 21.95 42.92-3.25 1.76 23.33 26.85-1.32-1.32-23.55 11.67-1.1-.88-22.67-12.33 1.32-3.3-65.15-30.37 2.2z"/><path d="m633.02 609.58-16.07 35.44 18.71-1.1-1.1-34.34s-.82-1.59-1.54 0" class="st46"/><path d="M688.78 588.23s-14.16 19.59-7.78 56.79c0 0 1.76 28.61 23.11 38.52 0 0 25.53 13.43 44.46-11.45 0 0 13.87-17.17 8.14-54.59 0 0-1.98-24.65-16.07-35.88 0 0-11.01-11.23-26.85-8.36 0 0-19.01 1.47-25.01 14.97"/><path d="M709.17 601.65s-6.82 30.59 1.76 51.94c0 0 3.52 13.21 12.33 8.36 0 0 7.26-2.64 7.92-16.95 0 0-.66-28.61-2.2-31.25 0 0-2.69-15.63-10.26-17.17 0 .01-5.81-.87-9.55 5.07" class="st46"/><path d="m764.56 639 2.06 19.95 43.14-2.42 1.27 23.85 27-1.18-1.57-23.18 12.43-.59-.88-23.67-13.01.68-2.74-64.63-31.6 1.64z"/><path d="M806.73 601.24s.68-2.84.98 0c.29 2.84 0 .49 0 .49l1.47 32.18-18.98 1.66s0-1.47.59-2.25z" class="st46"/><path d="m574.91 714.35 3.3 65.37 38.96-1.32s-.22-12.11 0-14.31l-22.67 1.1-.88-13.21 16.95-.66-.66-13.21-17.17 1.54-.66-12.77 21.13-.44-.66-13.65zm46-1.54 3.08 65.15 16.51-1.1-1.54-20.69s-1.54-5.28 5.94-1.98l9.02 21.79 18.05-1.1-12.55-25.53s-.88-2.2 1.54-3.08c0 0 11.01-7.04 3.96-26.63 0 0-5.5-9.46-17.39-8.14z" class="st0"/><path d="m637.4 724.2.83 15.99s10.42.54 11.98-3.86c0 0 2.98-6.07-2.45-11.05 0 0-1.41-2.35-10.36-1.08" class="st46"/><path d="m674.18 709.58 3.67 64.71h16.43L692.21 751s.28-1.17 1.7-1.22c0 0 3.08-.81 3.96 1.32l10.56 21.94 18.64-.73L713.42 747s-1.76-1.83.73-3.37c0 0 7.85-4.33 7.04-16.07 0 0 .88-11.26-8.51-16.19 0 0-3.74-3.91-19.59-2.96z"/><path d="m691.15 721.61.93 15.75s8.12.34 10.22-1.61c0 0 3.13-2.35 2.4-7.34 0 0-.44-5.18-3.62-6.21 0 0-2.3-1.32-5.77-.88l-4.16-.09z" style="fill:#fffffd"/><path d="M728.76 723.37s-4.4 18.49 2.05 32.72c0 0 5.72 17.9 26.85 15.7 0 0 16.14-1.32 21.42-19.22 0 0 4.7-10.86 0-26.85 0 0-2.59-14.43-15.99-20.3 0 0-13.21-5.67-25.34 3.62.01 0-6.44 4.6-8.99 14.33" class="st0"/><path d="M745.1 725.96s-2.93 10.47 1.37 24.36c0 0 1.76 5.77 5.77 6.65 0 0 6.07 2.35 9.49-4.7 0 0 4.01-7.47 1.76-19.68 0 0-1.26-11.11-7.48-14.06 0 .01-8.37-2.74-10.91 7.43" class="st46"/><path d="m786.21 703.71 3.08 65.23h16.51l-1.54-24.27s3.89-3.09 5.43-.16 0 .37 0 .37l10.2 21.86 18.27-1.17-13.35-26.78s10.12-6.24 8.51-18.2c0 0-.88-12.18-8.95-15.63 0 0-3.96-4.18-21.06-2.71l-17.09.73v.73z" class="st0"/><path d="m802.86 715.37.66 15.99s7.34.81 10.86-2.86c0 0 4.26-3.95 1.17-10.3 0 0-1.03-2.9-6.16-3.34h-6.53z" class="st46"/><path d="m642.48 829.9-4.99 28.03s9.39-27.29 9.39-29.35v17.02s1.47 4.55 2.2-2.93c0 0 19.22 18.34 1.76 42.85 0 0 7.48-4.99 8.36-8.36 0 0 9.68 1.91 4.7 24.36 0 0-20.54 20.98-62.22 20.4 0 0-25.39 1.03-33.46-4.99 0 0-6.75-3.96-7.04-17.17 0 0 .73-5.72 4.4-4.11 0 0 21.57 10.86 49.45 3.96 0 0 21.28-4.11 25.24-8.8 0 0-37.12 7.92-44.61 6.16 0 0-11.57-.24-14.96-.29-.33 0-.58-.01-.74-.01-1.76 0-8.22-.44-15.55-7.04 0 0-10.42-5.66-11.01-14.35l-2.59-17.05s1.27 3.52 19.17 11.05c0 0 4.99 1.08-1.27-2.84 0 0-26.22-17.8-28.08-21.62 0 0-6.55-8.02-6.75-8.32-.18-.29 108.96-8.59 108.6-6.6" style="fill:#dc9927"/><path d="M561.92 850s52.82-8.8 61.33-4.4c0 0-2.93 10.56-16.43 15.85.01 0-30.96 1.9-44.9-11.45" class="st15"/><path d="M574.25 869.81s1.03-2.64 22.6 4.11l13.65 1.35-20.54-4.88s16.14 4.4 28.17.44c0 0 8.51-4.4 9.83-9.98 0 0 2.35 12.77 0 18.49 0 0-2.64 17.61-25.24 14.09 0 0-14.38.73-27.59-9.54 0 0-6.31-4.19-4.84-8.62 0 0-.73-3.84 3.96-5.46" style="fill:#fed216"/><path d="M582.71 902.24s1.57 9.29 6.07 11.84c0 0 21.81 5.09 34.82 0 0 0 19.47-7.04 22.3-12.42 0 0 4.99-8.02 3.13-13.3 0 0-22.22 10.08-32.09 10.86 0 0-21.53 4.43-33.08 1.72 0-.01-1.36.25-1.15 1.3" style="fill:#fdce12"/><path d="M657.98 879.34s5.6 16.81 2.39 25.19l3.54-3.02s4.79-20.4-4.7-24.36c0 0-.56 1.41-1.23 2.19m-96.06 17.93s1.14-3.8 5.34-.88c0 0 3.32 17.32 2.8 21.64 0 0-7.84-3.84-8.73-15.68.01-.01-.47-4.55.59-5.08" style="opacity:.5;fill:#fed409"/><path d="M577.04 927.33s-2.05 21.13-.88 24.94c0 0 10.86 6.75 14.67 12.47 0 0 .88-1.47 5.87 11.3 0 0-.59 6.46 15.41 7.78 0 0 27.37 6.6 53.01 1.03 0 0 26.82-2.93 29.16-6.02 0 0 5.87-2.49 3.52-8.51l-4.99-13.11s-6.46-8.02-13.5-8.75c0 0-13.94-5.72-32.28-4.26 0 0-31.45 3.33-34.58 7.34 0 0-7.24-3.03-5.28-10.37 0 0-6.26-1.17-5.48-6.85l1.96-5.67h-22.4z" style="fill:#33342f"/><path d="M577.04 927.33s-1.37 21.57-.88 24.94l4.73 3.22.35-26.85z" style="fill:#5b5f59"/><path d="M601.69 934.33s-10.27 3.91-10.56 13.5l2.25 14.38s-2.64-5.19-2.64-6.71c0 0-1.97 3.24-.59 8.3 0 0 2 1.75 3.29 4.59 0 0 1.36 2.96 1.87 4.2 0 0 7.56-12.34 8.73-12.83 0 0 6.11-6.46 7.92-7.83l.49-.39s-7.73-3.03-5.28-10.37c0 0-6.07-1.17-5.48-6.84" style="fill:#525951"/><path d="M602.86 971.35s8.93-29.75 48.13-23.33c0 0 20.84 1.5 24.94 9.19 0 0 8.22 8.42-1.47 14.14 0 0-6.9 6.9-25.02 7.78 0 0-30.45 1.61-39.54-3.52.01 0-5.42-2.35-7.04-4.26" style="fill:#535850"/><path d="M657.3 950.81s-30.52.44-39.32 8.51c0 0-8.95 4.84-10.42 9.98l-2.01 4.09-2.68-2.03s6.99-15.41 13.77-17.57c0 0 12.71-9.43 33.18-5.94-.01-.01 8 1.42 7.48 2.96" style="opacity:.52;fill:#c5cbce"/><path d="M605.99 933.44s1.57 3.62 3.03 3.62c0 0 17.71-9.1 26.51-8.31 0 0 18.2-.78 19.86.39 0 0 2.35-3.33-5.48-5.28 0 0-23.77 0-30.33 3.47.01 0-11.92 2.4-13.59 6.11" style="fill:#fcf8c7"/><path d="M614.99 940s-5.38 4.89-2.54 6.46c0 0 2.35.59 8.22-3.23 0 0 16.63-5.58 24.36-4.3 0 0 13.87-1.55 16.52-.19 0 0 5.47-2.06 0-3.53 0 0-6.64-2.54-22.88-1.27 0-.01-22.65 5.02-23.68 6.06" style="fill:#fade8d"/><path d="m653.83 918.77 5.38-4.4s1.91 9.68 4.77 12.96c0 0 2.08 3.57 2.18 4.35 0 0 1.66 4.86 6.36 8.35 0 0-1.57 2.41-5.48.94 0 0 2.46-6.54-5.49-9.39 0 .01 2.06-7.13-7.72-12.81" style="fill:#51514e"/><path d="M574.79 958.68s-1.76 7.63 0 13.01c0 0 2.45 3.72 9.1 6.46 0 0 .98.29 0-2.74l.43-4.79s.23.2.6.61c.86.95 2.44 2.99 3.46 6.14 0 0 1.76 13.79 6.85 19.08 0 0 14.53 8.95 30.37 8.66 0 0 30.23 1.61 46.07-1.61 0 0 25.39-3.67 29.93-9.39 0 0 1.03-2.2 0-2.93l.46-8.22s2.41-4.49-3.72-.85c0 0-20.8 14.2-66.73 9.95 0 0-27.37.04-35.58-8.07 0 0-5.21-6.6-7.63-14.01.01-.02-7.86-9-13.61-11.3" style="fill:#ffcf0d"/><path d="M584.18 969.15s4.89 1.32 6.95 9.1c0 0 2.93 8.51 13.21 12.18 0 0 19.69 9.98 36.7 8.51 0 0 23.32 2.2 48.56-10.71 0 0 7.78-3.02 9.83-6.13 0 0 4.04-2.53 2.46 4.37 0 0-.68 3.99-.26 4.7s1.37 1.67 0 2.93c0 0-21.06 10.42-45.89 7.48 0 0-45.52.04-45.96.52 0 0-9.48-2.98-10.83-3.67 0 0-5.35-.58-7.64-9.04l-2.41-9.03s.43-5.15-2.45-7.16l-2.1-2.59z" style="opacity:.46;fill:#d89628"/><path d="M542.31 344.16s3.52 18-14.09 16.83c0 0-1.74 1.86 8.18 1.86 0 0 9.53-1.47 9.23-10.27.01-.01-1.36-9.79-3.32-8.42m-76.69 138.91s-4.7 7.92 2.35 10.96c0 0 6.95 1.76 7.73-6.46-.01 0-.1-11.25-10.08-4.5"/><path d="M466.84 484.44s-2.2 5.62.93 7.09c0 0 4.11 2.98 6.02-2.64 0 0 .97-4.9-2.93-5.77-.01 0-3.48 0-4.02 1.32" class="st114"/><path d="M471.88 456.31s-2.01 2.59 0 6.95c0 0 3.57 5.58 8.85.29 0 0 1.96-2.1 1.03-7.24 0 0-.29-3.67-4.99-3.33 0 .01-4.12 1.39-4.89 3.33" class="st14"/><path d="M472.82 458.22s1.62-2.89 3.52-2.84c.05 0 .1 0 .16.01 1.97.22 1.6-.44 3.73 2.02 0 0 .95 2.53-.44 3.89 0 0-1.87 3.08-4.29 2.64 0 0-2.49-.55-2.68-3.15 0 0-.4-2.46 0-2.57" class="st114"/><path d="M481.59 752.79h18.34l.88 20.42-12.03 1.08s-4.7.63-5.43-3.39c0 0-1.18-17.16-1.76-18.11m-5.21-13.06s18.19-1.39 21.94-2.71c0 0 .44-.29.59 1.36l.66 9.11-22.3-.49c-.01-.01-1.33-5.07-.89-7.27" class="st15"/><path d="m467.95 731.93 1.9 7.16 3.15.47-.78-6.7-.28-.73z" style="fill:#edbd64"/><path d="m476.38 739.73-.09-7.81s7.62.49 9.19-1.32l2.45-2.2s.29-1.27 3.71-.98l16.92-.41 5.22 82.2-14.22-17.5s.46-1.59-8.36-4.38l-7.78-2.77-.68-3.91s-1.03-6.63-1.1-6.98l1.67-3.41s-.07 2.49 2.52 3.68c0 0 1.63.61 3.54.3l11.44-1.02-.88-20.42h-18.34l1.56 15.32s-.29 4.14-1.59 5.19l-3.52-21.03-.78-5.28 22.3.49-.95-10.49s-18.79 3.43-22.23 2.73" style="fill:#c08f2c"/><path d="M370.52 528.95s-17.03-31.18 8.51-108.99c0 0 6.38-11.99-3.74-.99 0 0-12.11 24.87-12.77 28.17 0 0 .07 4.98-1.17-7.02v-20.2l-8.51 24.89s-1.35 4.19-2.32 4.9c0 0-10.61 5.92-10.59 1.57 0 0 1.28-35.24-2.59-47.31l-5.48-20.43s3.37-7.4 26.27 5.21c0 0-3.74-4.55-5.28-9.17 0 0 14.75-14.75 49.52-8.36l-4.62 11.45s8.79-11.13 22.33-13.05c0 0-11.99 35.02 4.3 75.21l3.82 6.46 21.35-16.13s2.31-4.35 8.16 3.16l8.74 7.94s-11.47 13.44-12.35 57.68c0 0 14.97 6.86 26.19 1.45 0 0 5.37-51.41 13.5-56.1l13.03-8.37s1.78-1.2 4.56 1.99l19.97 23.46s3.92 1.35 10.79-4.69c0 0 44.71-34.03 53.99-45.13l31.12-37.4s3.14-2.46 8.12.22l31.85 13.89 13.14 4.5s11.06 1.43 16.94 5.32c0 0 18.49 12.84 25.06 22.63s0 .96 0 .96 16.48 17.75 4.35 25.59l-9.37 2.73 5.58 4.99s-11.3-6.24-15.26-5.36c0 0-8.65-.22-18.41 7.92 0 0-11.74-4.27-22.31 2.16l-12.3 14.55s-13.77-13.48-12.62-39.52c0 0-8.18 10.18-11.66 24.97 0 0-4.07 13.84-8.18-.76 0 0-7.7 50.55-34.85 47.69l-71.02 5.87s-3.18-.45-5.87 4.58l-9.68 17.64s-38.7-12.73-61.39-7.5c0 0-55.78 9.33-63.36.25z" style="fill:#fdd207"/><path d="M442.14 703.56v-2.54l8.02.59 22.01 1.47s1.76-.78 1.37 4.21l.06 8.9s-18.64.2-22.07-1.08c0 0-8.51.59-9.39-1.37 0 0 9.39.39 9.39.88l.59-6.01s.14-3.58-3.35-4.16z" style="fill:#3e4039"/><path d="M452.12 716.77s17.12 2.15 21.91 1.96v-1.37c0-.01-21.72-.94-21.91-.59" style="fill:#4a4743"/><path d="M438.27 708.59c3.18-1.15 4.24-1.26 4.24-1.26 3.31-.27 5.25-.43 6.04.73.16.23.24.46.28.62.06.15.38.95-.02 1.52-.21.3-.56.46-1.14.55-1.7.25-3.77-.4-4.7-.73-1.05-.38-1.9-.44-2.47-.42-1.23.03-2.14.42-2.47-.02-.13-.17-.21-.52-.06-.76.09-.14.22-.2.3-.23" class="st46"/><path d="M647.96 516.92s.08 14.65 6.65 25.84c0 0 1.99 2.86 4.71 2.99a8.4 8.4 0 0 1-1.06-1.15c-.48-.62-.79-1.22-1.17-1.94-.18-.34-.32-.62-.34-.67-.27-.55-.26-.6-.56-1.22-.05-.1-.1-.2-.15-.35-.05-.14-.1-.28-.18-.56-.07-.24-.07-.25-.11-.35-.22-.66-.48-1.08-.68-1.44-.18-.24-.24-.47-.27-.56-.06-.18-.06-.11-.29-.65-.03-.07-.36-.85-.61-1.58-.28-.83-.63-1.85-.72-3.16-.04-.52-.05-1.25.09-2.14.03-.19.07-.34.11-.45.05-.16.11-.29.13-.34.04-.08.08-.16.08-.17.06-.12.06-.11.08-.15.04-.1.03-.16.04-.36l.02-.26c.02-.34.03-.83-.01-1.24-.01-.06-.02-.21-.04-.38-.01-.13-.03-.22-.03-.24-.02-.17-.06-.56-.15-1.45-.36-2.76-.73-5.51-1.09-8.27z" class="st85"/><path d="m494.61 450.3 12.52-9.39c.14-.08.34-.17.6-.22 1.24-.23 2.47.82 4.5 3.1 1.7 1.91 2.46 3.01 3.96 4.84 1.32 1.62 1.78 2.06 2.98 3.45 2.39 2.78 7.77 9.41 11.68 13.72.25.28.73.79 1.5 1.05 1.89.63 3.9-.81 6.03-2.39 3.36-2.49 6.12-4.6 8.2-6.22 9.57-7.47 17.83-14.03 24.52-19.4 10.73-8.61 15.02-12.2 20.32-17.46 3.8-3.77 6.58-6.88 12.64-13.93 6.04-7.04 14.28-16.77 24.08-28.79.61-.24 1.6-.55 2.84-.54 1.41.01 2.44.43 3.43.83.79.32 1.91.87 3.11 1.79 9.59 4.01 19.17 8.02 28.76 12.03 0 0 12.62 4.99 14.38 4.99 3.75.4 6.66 1.24 8.57 1.9 5.22 1.81 8.88 4.37 14.29 8.2 2.84 2.02 5.09 3.79 6.55 4.99 4.47 4.77 12.8 14.19 18.1 24.14 1.88 3.53 3.81 7.95 2.07 11.42-1.11 2.22-3.17 3.48-3.17 3.48-1.39.85-2.45.89-5.21 1.69-1.84.53-3.3 1.06-4.22 1.42 1.86 1.66 3.72 3.33 5.58 4.99 0 0 15.85-4.4 24.65 0 0 0 15.85-5.58 17.61-5.58h-1.76s8.55-3.33-3.23-4.4c-3.23-.29-5.58 1.17-7.63-7.92 0 0-4.11-24.36-41.97-48.13l-20.84-8.22s-21.42-6.16-33.75-11.15l2.69-1.86s-19.32-9.34-21.96-15.11l-.44-.78c-.37.49-.92 1.25-1.55 2.22-1.73 2.69-2.23 4.28-3.71 6.97-.54.99-1.23 2.06-2.6 4.19-2.83 4.39-5.18 7.75-5.9 8.77-2.32 3.29-5.49 7.65-9.53 12.77a273 273 0 0 1-16.95 17.66c-5.13 4.89-9.69 8.83-18.8 16.71-4.91 4.25-8.99 7.72-11.8 10.09-2 1.4-5.22 3.7-9.13 6.65-5.81 4.38-7.63 6.06-11.25 8.39-2.49 1.61-6.34 3.85-11.54 5.96-1 .72-1.61.64-1.89.55-.56-.17-.76-.67-1.63-2-.39-.6-.84-1.16-1.23-1.76-.7-1.07-2.01-2.99-4.56-6.64l-13.5-15.99s-1.17-3.96-6.9 3.67c.02-.01-8.93 9.82-9.51 15.25" class="st63"/><path d="m388.12 206.65-3.23-.81s-1.98 0 .66-1.47l21.28-13.72s2.2-.88 5.28-.44l18.93.73s3.08.59 5.43 2.93l10.05 7.34-13.94-8-24.43.66z" style="fill:#a6a7a1"/><path d="M443.13 258.19s-5.19-11.54-1.57-19.37c0 0 2.67-9.36 22.4-8.12 0 0 7.43.1 17.22-9.98l1.79.88c-.23 1.09-.74 2.78-1.99 4.46-.84 1.13-1.65 1.77-2.73 2.61 0 0-3.57 2.76-8.06 4.11-.89.27-2.89.75-3.42.85 0 0-.71.16-1.41.26-1.5.22-2.76.2-5.99.49-3.25.28-6.1.66-6.11.59 0-.01.09-.03.17-.05-3.02.73-5.02 2.05-6.1 2.91-.59.47-1.37 1.09-2.14 2.12-1.63 2.18-1.95 4.51-2.02 5.72-.02 4.17-.03 8.35-.04 12.52" class="st46"/><path d="M524.5 264.69s1.69 9.76 10.71 6.08c.52-.45 2.85-2.6 3.01-6.04.03-.55.21-4.55-2.74-6.43-1.45-.93-3-.92-3.74-.86 3.02 3.35 3.92 7.05 2.52 8.98-.28.39-.81.92-1.84 1.27 0 0-2.93 2.05-6.9-3.67.01 0-1.23-.18-1.02.67" style="opacity:.68;fill:#684422"/><path d="M466.58 262.54s1.43 8.25 9.05 5.13c.44-.38 2.41-2.2 2.54-5.1.02-.46.18-3.84-2.31-5.43-1.23-.78-2.54-.77-3.16-.72 2.55 2.83 3.31 5.96 2.13 7.59-.24.33-.68.77-1.55 1.07 0 0-2.48 1.74-5.83-3.1 0-.01-1.05-.16-.87.56" style="opacity:.69;fill:#5e482c"/><path d="M628.16 319.26s6.51 6.77 7.29 11.32c0 0 3.12 6.9 4.17 7.94 0 0 2.47 7.29 2.47 8.98 0 0 30.91 15.36 32.28 18.29 0 0 2.93 4.3 12.5 4.3 0 0 27.14 2.93 52.72 26.94 0 0 21.67 23.62 25.19 39.44 0 0 28.11 19.72 31.04 29.68 0 0 2.15 5.66 1.76 8.4l16.4 22.26 2.15 1.82-8.79.81s-10.64-17.47-19.62-24.8l1.56-5.17s-10.15-14.84-15.72-15.03l1.07-2.59-2.25.49s-8.3-7.52-9.86-7.91c0 0-3.37-.54-4.98-6.15 0 0-7.74-18.99-15.49-27.12 0 0-14.45-19.91-33.84-26.55-9.53-3.88-22.28-7.87-37.65-9.53-8.07-.87-15.45-.95-21.91-.62a75.8 75.8 0 0 1 21.52-1.72s2.73 0-2.93-3.03c0 0-26.16-16.11-28.41-15.91l-4.1-7.03s-6.25-19.62-8.88-18.84l-2.93-9.18z" class="st123"/><path d="M710.53 378.41s-34.06-8.16-55.13 43.73c0 0 12.26-37.56 55.13-43.73" class="st0"/><path d="M623.93 468.63s-1.99-16.35-.62-11.36l2.5 13.3s-1.46.12-1.88-1.94"/><path d="M311.27 279.2s1.76-6.16 3.52-11.15c0 0 38.15-39.03 42.55-48.13 1.11-1.66 4.42-6.13 10.55-8.19 3.4-1.14 6.41-1.11 8.3-.93-1.8.47-4.26 1.41-6.58 3.34a17.5 17.5 0 0 0-3.29 3.69c-1.01 1.52-1.08 2.16-2.05 3.71-1.21 1.93-2.44 3.09-3.3 3.93-.94.92 1.38-1.29-7.87 8.96-4.98 5.51-8.05 8.81-13.61 14.86-3.26 3.55-5.95 6.49-7.8 8.52-.37.41-.74.81-1.12 1.22a125 125 0 0 1-6.6 7.21c-1.3 1.31-2.89 2.86-5 5.27a93 93 0 0 0-2.73 3.3c-1.65 1.45-3.31 2.92-4.97 4.39" style="fill:#e1e3e4"/><path d="M536.08 142.29s4.48-4.4 12.62 0c0 0 1.76 1.61 2.42 1.69 0 0 .66 1.54-3.74.51 0 0-10.93-1.83-11.3-1.32 0 0-.63-.39 0-.88" style="fill:#ebeced"/><path d="M322.37 378.79s35.74 71.06-17.96 130.48h4.36c2.4-2.71 5.5-6.47 8.75-11.21 3.36-4.89 10.27-15.79 15.14-31.16 6.46-20.42 5.72-37.45 5.36-42.8-1.51-22.8-9.61-39.95-14.97-49.3-.23 1.33-.46 2.66-.68 3.99" class="st0"/><path d="M322.06 376.44s-.59-2.93 1.61-2.64c0 0 11.59-1.03 30.81 19.08 0 0-15.99-31.11-32.5-23.33zm95.95-15.15s-20.53 13.45-24.42 14.02a572 572 0 0 0 31.58-8.38c-2.39-1.88-4.77-3.76-7.16-5.64" class="st14"/><path d="M384.09 553.86s-38.71-19.16-22.61-73.59c0 0 9.58-46.38 22.61-61.71 0 0-16.1 18.78-20.31 34.5-.81-11.04-1.62-22.09-2.44-33.13-.14 4.85-.4 9.91-.82 15.16-.62 7.74-1.52 15.04-2.59 21.87-2.51 7.06-4.91 15.65-6.39 25.58-2.46 16.59-1.43 30.87.2 41.27 1.45 4.03 4.25 10.17 9.71 16.15 8.35 9.15 18.1 12.61 22.64 13.9" class="st123"/><path d="M479.73 298.03a20.5 20.5 0 0 0-4.04 7.52c-1.31 4.48-.76 8.29-.36 10.16a59.8 59.8 0 0 1 4.4-17.68"/><path d="M749.12 120.18c-7.8-18.92-23.52-24.67-23.52-24.67-16.36-7.67-28.76-8.31-28.76-8.31-11.25-2.68-26.59 4.73-26.59 4.73-16.74 7.41-22.37 27.86-22.37 27.86-3.07 7.41 2.3 8.82 2.3 8.82l29.91 10.61 5.88-11.25c4.98-7.16 15.98-3.07 15.98-3.07 10.1 3.71 6.65 13.17 6.65 13.17-1.79 9.59-19.56 12.4-19.56 12.4-11.89 2.68-17.26 12.14-17.26 12.14-5.75 9.2-7.29 21.6-7.29 21.6-1.02 3.2.38 4.22.38 4.22l24.54 7.41c1.83 1.35 5.58 1.42 6.6 1.41l.05.12c.07-.04.14-.08.21-.13 0 0 .01 0 .01-.01.04-.03.09-.06.13-.09.06-.04.12-.09.18-.14.01 0 .01-.01.02-.01 2.26-1.8 2.69-6.42 2.69-6.42.09-.68.11-1.13.11-1.13 1.69-6.52 8.03-8.69 8.03-8.69l17.77-6.26c16.1-4.47 23.9-23.77 23.9-23.77 6.27-13.93.01-30.54.01-30.54m-11.83 36.52c-4.98 10.16-35.41 17.99-35.41 17.99-6.77 3.64-9.14 14.25-9.14 14.25l.11.27c-.45.95-1.9.56-3.13.02-.54-.34-1.18-.68-1.88-1.01l-.03-.01c-.04-.02-.08-.04-.12-.05l-.06-.03c-5.86-2.67-16.23-4.8-16.23-4.8 2.17-8.18 3.58-11.63 3.58-11.63 4.98-10.61 17.38-15.08 17.38-15.08 10.61-1.92 17.51-7.8 17.51-7.8 7.8-6.01 6.77-16.74 6.77-16.74-.89-13.42-18.79-15.72-18.79-15.72-14.83-2.68-21.09 12.78-21.09 12.78-.64 1.92-1.79 1.02-1.79 1.02l-20.07-7.54c4.6-19.56 24.41-26.2 24.41-26.2 36.68-8.44 56.37 16.74 56.37 16.74 18.42 22.48 1.61 43.54 1.61 43.54m-44.28 51.92c-.96-1.78-3.23-5.46-7.67-8.26-1.69-1.07-6.27-3.63-12.54-3.38-1.84.08-8.12.43-13.29 5.3-2.44 2.3-3.77 4.78-4.46 6.37-.81 2.48-1.71 6.31-1.41 10.96.16 2.5.63 4.66 1.15 6.39 1.14 2.17 3.74 6.3 8.69 9.01 3.79 2.08 7.37 2.46 9.51 2.69 1.48.16 3.8.39 6.79-.14 2.55-.46 4.57-1.28 5.94-1.97 7.54-4.79 9.36-11.54 9.3-17.08-.05-4.33-1.05-7.8-2.01-9.89m-11.13 20.65c-12.8 5.08-18.88-4.22-18.88-4.22-5.61-7.91.81-16.39.81-16.39 3.4-4.65 10.69-4.36 10.69-4.36 10.88.72 12.99 11.03 12.99 11.03 1.59 8.57-5.61 13.94-5.61 13.94" class="st1"/><path d="M422.07 346.94c.93 2.82 13.38 38.29 51.2 48.73 38.3 10.58 67.46-14.23 69.55-16.08 3.17-2.8 9.05-8.73 10.6-17.94.78-4.65.17-8.59-.41-11.04-2.9 6.87-10.5 22.27-25.39 29.79-6.74 3.4-15.76 5.59-17.19 5.93-3.51.84-9.25 2.17-16.76 2.36-4.35.11-11.89.23-21.05-2.6 0 0-15.52-4.8-25.25-15.73-2.08-2.34-3.83-4.8-3.83-4.8-3.03-4.54-2.57-5.18-4.64-7.69-3.62-4.38-6.39-3.49-8.51-7.52-.63-1.2-.64-1.47-1.76-5.87-.75-2.94-1.74-6.45-3.08-10.4-.76 2.09-1.49 4.39-2.15 6.89a89 89 0 0 0-1.33 5.97" class="st36"/><path d="M420.96 355.59c1.97 4.69 16.65 38.14 53.88 49.13 27.42 8.1 50.45-.89 57.18-3.81 1.59-1.84 3.43-4.32 5.05-7.48 2.44-4.77 3.41-9.17 3.82-12.25-2.95 2.41-29.6 23.47-65.1 14.93-35.97-8.66-50.05-40.26-51.49-43.64-.96-5.88-1.72-8.8-2.27-8.76-.63.04-.99 4-1.07 11.88" class="st52"/><path d="M496.52 297.75s4.9-3.11 1.83-4.14c0 0-4.54-.68-15.11 2.29 0 0 2.07 2.36 13.28 1.85" style="opacity:.32;fill:#383a34"/><path d="M461.17 292.45c-.47-.05-1.2-.18-1.95-.64-.55-.33-1.29-.96-2.01-2.53-.56-1.22-2.2-4.84-.52-8.74.84-1.95 2.13-3.09 2.71-3.58.4-.34 3.09-2.59 6.99-2.67 4.56-.1 8.72 2.8 9.09 3.07 1.06.76 2.18 1.74 4.02 2.01 1.31.19 2.44-.06 3.19-.31 1.03-.42 2.61-1.07 4.54-1.88 2.95-1.24 3.31-1.43 4.4-1.8 2.09-.71 3.76-1.28 6.02-1.34 2.8-.07 5 .71 5.7 1a13.7 13.7 0 0 1 5.42 4.02c.61.76 2.96 3.89 2.88 7.78-.1 4.84-3.96 9.47-9.65 11.48.35-.15 5.9-2.67 6.85-8.86.93-6.09-3.45-10.11-3.76-10.39-1.48-.57-3.86-1.28-6.85-1.27-.49 0-2.66.02-5.42.79-3.01.84-5.38 2.19-7.11 3.44-1.14.49-3.67 1.38-6.91 1.01-3.5-.4-5.88-2.04-6.86-2.8-.27-.19-5.02-3.43-9.61-1.27-1.8.85-2.89 2.2-3.45 3.06-.33.83-.67 2.02-.67 3.47 0 .54.04 2.51 1.22 4.66a10.3 10.3 0 0 0 1.74 2.29" style="fill:#c6c6c2"/></svg>