<svg xmlns="http://www.w3.org/2000/svg" xml:space="preserve" id="Layer_1" x="0" y="0" viewBox="0 0 1080 1080"><style>.st0{fill:#040303}.st12{fill:#f6c613}.st13{fill:#c68d2b}.st18{fill:#f7c613}.st31{fill:#2b2c2a}.st40{fill:#3e3e3b}.st42{fill:#aeb3b6}.st52{fill:#cb962b}.st56{fill:#fff18e}.st57{fill:#feef89}.st60{fill:none;stroke:#fff;stroke-miterlimit:10}.st74{fill:#abaca4}.st75{fill:#fff}.st83{fill:#a7aaa3}.st94{fill:#7d807a}.st97{fill:#a7aba4}</style><path d="m214.56 646.97-57.57 126.69s-4.89 16.67-23.56 8.45c0 0-27.78-8.22-24.45-25.56l35.56-76.9 52.23-113.58 37.12-79.79s-17.34-24.67-13.11-42.67c0 0 1.56-6 6.67-12.59 0 0-2.22-16.15 10.74-25.86 0 0 0-20.45 16.45-23.78 0 0 2.89-26.1 24.03-23.93l9.34 1.63s.35.59 1.04-.99l14.03-30.67s.4-1.28-1.78-1.58l-53.84-34.48s-2.67-2.22-4-7.26l-3.24-8.77s-.25-5.66.74-7.43c0 0 6.05-25.88 21.91-48.85 0 0 5.33-9.53 17.19-9.68l26.28-2.77s6.03-1.78 13.63 3.06l25.68 15.31s1.43 1.19 2.42-1.98c0 0 5.19-8.5 20.2-1.88 0 0 26.67 9.48 29.83 22.62 0 0 1.78 3.36-3.16 10.27l37.64 26.97s11.36 5.56 10.99 12.74c0 0 1.04 11.93.96 14.37 0 0-7.04 21.56-8.3 23.71 0 0-6.15 13.11-6.3 14 0 0-.52 3.7-16.67 16.67 0 0-2.67 1.48-7.26 1.85l-28.89.96s-4.67-.82-7.93-2.44c0 0-18.15-9.48-18.23-9.85l.07.37-8.96 18.97s-6.89 17.11-9.41 18.89c0 0-.17.96 1.09.94 0 0 10.72.25 17.34 14.57 0 0 5.43 8.64 3.65 25.76 0 0-.74 5.26-6.74 22.08 0 0-1.19 6.3-7.48 13.26 0 0-6.22 5.7-5.04 7.04 0 0 .3 2.3 6.15-4.52 0 0 4.74-5.56 9.11-7.78 0 0 1.85-1.26 2.07-6.22 0 0 .37-5.33 2.44-9.78 0 0 7.33-18.82 12.15-24.37 2.85-4.15 6.85-9.4 12.22-14.97 9.11-9.42 17.57-14.98 20.6-16.89 1.93-1.22 5.26-3.24 19.02-9.58 6.5-3 15.43-7.01 26.28-11.56 2.58-1.65 5.17-3.29 7.75-4.94a80 80 0 0 1-3.39-11.39 81 81 0 0 1-1.72-22.02c-.34.05-.87.14-1.48.37-1.32.49-1.89 1.15-2.3.92-.24-.14-.26-.5-.29-1.21-.04-.9.05-1.64.15-2.15.12-5.51.87-10.01 1.58-13.21 2.92-13.22 9.18-22.57 12.57-27.54 1.66-2.44 3.16-4.38 4.22-5.7-2.2-4.9-3.36-9.12-4-12.19 0 0-1.59-7.55-1.63-15.82-.01-1.09-.07-2.17-.1-3.26-.06-2.21-.05-2.5-.25-3.01-.57-1.52-1.66-1.61-2.47-2.86-.68-1.05-.64-2.11-.34-5.01.54-5.22.83-7.85 1.48-8.57 1.12-1.25 2.46-1.36 7.66-1.98 2.21-.26 5.76-.69 10.29-1.27l.3-4.11c-2.21-.08-4.83-.17-7.78-.26-3.58-.11-4.82-.12-7.08-.26-4.15-.25-6.3-.58-7.78-.85-4.18-.77-5.28-1.51-5.78-1.89-1.78-1.35-2.61-3.16-3-4.3-.32-1.26-.56-3.07.15-4.89 1.1-2.85 3.87-4.09 8.56-6.11 5.46-2.35 9.89-4.2 12.89-5.45-.03-1.08-.04-2.67.07-4.59.2-3.28.3-4.92.96-6.56 1.16-2.85 2.41-2.27 4-5.48.69-1.38.52-1.62 1.93-6.3.64-2.13.78-2.42 1.44-4.56 1.72-5.51 1.89-7.02 3.14-11.08 0 0 1.12-3.65 2.87-8.05 2.08-5.24 7.57-15.99 17.73-26.21 9.75-9.81 19.9-15.2 26.52-18.08 1.41-.58 2.92-1.34 4.53-2.22 2.47-1.35 5.36-3.19 7.03-5.11a79.7 79.7 0 0 1 17.14-6.25c19.39-4.64 36.01-.89 45.02 1.95 1.45.16 3.24.5 5.2 1.19 2.79.98 4.91 2.32 6.35 3.4 0 0 12 10.67 14.45 10 0 0 28.97 14.37 41.64 44.6 0 0 8.67 16 8.89 50.45 0 0 3.85 4.96 3.63 8.37l-.89 10.22s-.07 1.11 3.04 3.48c0 0 7.85 4.74 5.41 13.56 0 0-1.33 7.93-10.08 9.19l-7.78 1.63c-.03.16-.04.35-.02.55.09.89.72 1.46.94 1.64.77.83 1.88 2.19 2.84 4.06 1.5 2.92 1.85 5.58 2.33 9.44.17 1.38.36 3.31.42 5.66-.1 2.13-.36 4.48-.83 7.01-.78 4.12-2.28 9.47-5.17 14.4l-3.78 5.26s0 .74.74 1.93l2.44 6.15s0 .96 2.22.82c0 0 8-.37 14.22 14.67 0 0 5.38 12.22 8.15 14.69 0 0 2.27 7.51 8.1 9.09l28.5 16s22.03 13.24 29.78 15.11c0 0 34.08 15.11 51.71 46.68 0 0 11.21 20.7 12.99 36.4 0 0-.69 8.69 6.03 18.08 0 0 21.95 31.09 25.29 53.99 0 0-.89 5.11-2.89 7.56 0 0 6.89 13.11 8.89 26.89 0 0-.44 2-4-.89 0 0 13.71 25.26 9.26 54.6 0 0-1.09.99-1.78-1.19 0 0-1.48-2.37-1.48.69 0 0 .99 30.03-10.97 47.81 0 0-1.58.79-2.27-1.68 0 0-.99-3.56-2.27-.3a84.2 84.2 0 0 1-11.17 13.11c-13.38 12.76-26.44 16.64-28.34 15.29-.99-.7-1.11-1.56-1.11-1.56-.11-.74.3-1.38.54-1.7.09-.29.21-.6.35-.91.26-.59.54-1.1.82-1.53.15-.33.36-.72.64-1.14.33-.47.67-.84.96-1.11 0 0 .67-2.15-3.56.44 0 0-39.04 16.45-79.94-6.67l-35.86-19.26c.63 1.5 1.43 3.96 1.41 7.04-.04 5.18-2.38 8.89-3.41 10.34-.42.37-1.01.98-1.44 1.89-.41.86-.5 1.63-.56 2.52-.08 1.23-.1 2.99.15 5.19.16 3.15.22 6.42.28 9.8.09 5.13.09 10.72-.28 12.58 0 0 8.45 38.38 8.15 45.19l6.37 55.12 2.82 26.67s5.19 8.3 4.15 18.23c0 0 1.93 9.63 6.22 17.19 0 0 7.41 11.56.89 25.93 0 0 6.52 4.3 7.26 17.63 0 0 1.78 14.82-7.85 20.74 0 0-.74.27.22 2.44l8.45 15.34s3.56 4.37 6.22 6c0 0 11.11 8.96 13.11 13.85 0 0 3.78 5.04 4.82 12.59 0 0 .67 4.74 2.15 6.96 0 0 3.19 8.3 1.26 18.89 0 0-1.26 9.19-14.37 12.22 0 0-18.3 7.41-52.23 6.52 0 0-26.97 1.04-38.23-5.19 0 0-10.37-3.75-15.61-14.13l-1.19-3.65s.4-2.27-3.06-2.27c0 0-11.85-3.46-11.46-13.53l.49-15.02s1.7-2.44 1.33-6.08l.74-24.97s-11.26-4.22-11.78-21.12c0 0-.52-9.85.15-10.89 0 0-8.37-6.22-8.96-20.37 0 0 .22-17.93-5.85-25.63l-18.23-30.67-14.37-22.74s-4.07-5.41-8.08-4.37c0 0-6 9.71-9.85 18.6l-11.93 25.63s1.48 11.56-2.96 14.97c0 0-.37 2.07 2.37 10.45 0 0 2.37 7.41 2.37 12.6 0 0 1.41 6.89-3.85 14.15 0 0-.74 1.26.3 3.19 0 0 2.74 8.96 1.19 16.6 0 0-.3 7.04-4.3 11.48l-2.37 2.59.52 3.19s3.28 15.63 3.38 27.19c0 0 .1 2.27 1.58 5.73 0 0 2.07 18.87-2.57 21.73 0 0-1.58 3.16-7.9 5.04 0 0-26.38 6.82-26.67 6.62-.3-.2-7.41 2.17-11.26-1.48l-2.86-2.77s-.99-.4-2.17.49c0 0-30.13 16.5-55.91 14.27 0 0-34.23 2.67-65.2-8.59 0 0-8.59-3.61-8.1-14.18 0 0-.89-11.16 4.54-16.3 0 0-3.56-18.97 20.74-31.41 0 0 8.4-5.63 24.4-5.83 0 0 10.08-6.72 11.85-7.31 0 0 1.28-.69 6.22-5.04 0 0 2.57-.59-.59-3.36 0 0-3.75-2.96-3.26-8.79 0 0-.99-11.06 2.47-17.88 0 0 1.19-3.06 2.47-4.15 0 0 0-.69-2.07-3.56 0 0-4.05-5.14-1.58-12.55 0 0 2.86-13.63 1.28-18.57 0 0-5.14-15.02-4.64-19.16l1.78-33.39 2.57-33.39 3.95-33.19 4.45-30.33 1.23-4.94s1.04-1.41-.44-5.26l-.07-26.6s-5.56-6.22-3.19-13.63c0 0 4.74-9.48 2.82-13.78l-3.7-29.71-2.74-21.34s-.44-1.7-1.33-.44c0 0-10.3 13.71-21.56 21.93 0 0-23.41 16.89-31.12 17.63 0 0-.96.15 3.11 3.19 0 0 2.82.74-2.59 4 0 0-1.33 2.82-13.48 3.63 0 0-13.41.52-20-1.04 0 0-3.56-1.04-2.52.74 0 0 5.33 5.19-.74 4.45 0 0-11.04-1.26-24.23-10.37 0 0-10.82-7.93-14.45-13.71 0 0-.74-1.33-1.7.67 0 0 .7 5.7-3.41 1.82 0 0-12.59-8.71-21.93-34.04l-1.93-9.63s-.44-3.7-2.67 0l-1.33 3.85s-1.93-.44-3.41-7.85c0 0-.89-6.52-2.52-.74z" class="st0"/><path fill="#ebb41f" d="M619.39 980.74s-1.7 7.04 0 13.93c0 0 1.19 4.52 8.3 5.11l-.59-6.22s.22-4.15 2.07-1.19c0 0 1.85 4.07 2.15 6.3 0 0 .52 9.48 3.48 13.63 0 0 5.78 9.48 27.49 10.97 0 0 36.01 2.89 61.49-2.74 0 0 9.93-1.19 14.97-9.78 0 0 2.82-12.74-1.33-10.52 0 0-4.3 9.19-69.64 9.04 0 0-16.74 1.33-32.45-9.48 0 0-4.26-5.63-5.67-10.26-.01-.01-6.94-8.05-10.27-8.79"/><path fill="#bd7d2b" d="m716.58 1006.75-.64 15.2s18.25-2.71 21.54-9.33c0 0 2.49-2.37 2.2-9.78 0 0 .31-4.98-3.15-1.73-.01.01-7.45 4.57-19.95 5.64"/><path fill="#484c46" d="M647.02 963.13s2.37-2.86-.49-3.06c0 0-14.72-4.05-15.02-1.68 0 0-1.88 8.1 1.88 15.02 0 0 2.47.74 2.47 7.33 0 0-.49 13.31 2.86 15.68 0 0 6.82 5.33 18.97 7.31 0 0 35.46 3.51 52.36-1.36 0 0 3.58-2.3 4.91-9.93 0 0 3.19-20.97-16.08-29.71 0 0-25.12-2.15-43.27 9.56 0 0-10.15 9.71-11.48 12.22 0 0-1.33-.96 2.3-6.96 0 0 4.59-6.59 7.19-7.33 0 0 2.15-.22-2.74-1.56 0 0-4.97-1.95-3.86-5.53"/><path fill="#979a92" d="M653.84 978.05s-5.63 6.87-2.27 7.61c0 0 3.31 1.88 8.5-3.8 0 0 4.35-3.75 1.98-6.82 0 0-1.35-3.36-5.42.25z"/><path fill="#2d3130" d="M646.07 959.94s-5.47-2.25-2.9-9.56c0 0-17.19-.3-21.14-1.48 0 0-.99.59-.49 3.06l-.14 23.51s9.62 4.54 11.7 11.66l.64 2.47-.34-16.2z"/><path fill="#2c2e2e" d="M698.89 962.74s13.48 5.31 15.63 19.77c0 0 2.92 12.83-3.7 19.2 0 0 16.15-2.08 24.74-7.56 0 0-2.67-24.82-22.52-30.01 0 0-12.52-2.22-14.15-1.4"/><path fill="#c29657" d="M656.62 964.59s10.7-7.19 33.37-7.48l11.34 1.19s2.89-.15.74-2.37c0 0-8.08-6.08-30.3-2.07 0 0-10.97 2.07-15.93 5.56 0 0-4.36 1.66-3.63 5.78 0-.02 1.42 2.28 4.41-.61"/><path fill="#f5d29b" d="M653.32 949.84s-6.08 1.26-5.04 4.15c0 0 .74 2.96 4.67.37 0 0 20.74-9.41 44.23-5.78 0 0-.07-3.33-6.52-4.3 0 0-6.45-.59-12.82 1.48 0 0-13.48 2.15-15.85 1.85 0 .01-7.93 1.57-8.67 2.23"/><path fill="#d1932a" d="M609.49 917.59s-1.28 12.05 2.77 20.74c0 0 4.74 3.46 17.88 3.85 0 0 37.54-1.68 45.24-3.85 0 0 25.29-1.88 31.91-10.17 0 0 5.53-8.5-.89-23.12 0 0-.3-.99-2.47 1.58 0 0-22.42 14.72-55.02 14.22 0 0-22.32 1.98-39.61-4.35z"/><path fill="#f6c415" d="M630.63 920.76s-7.32 2.36-4.75 10.66c0 0 3.36 6.22 25.49 3.56 0 0 20.25-2.07 32.4-9.78 0 0 6.32-6.42 2.07-10.27.01-.01-18.16 8.11-55.21 5.83"/><path fill="#fde472" d="M701.08 908.29s5.1 12.15 1.79 23.37c0 0 7.83-3.45 6.63-14.93 0 0-1.13-9.36-3.65-11.87 0 0-3.83 2.92-4.77 3.43"/><path d="M599.71 877.88s1.48 7.21 1.38 15.51c0 0 .3 11.16 5.93 14.92 0 0 3.95 5.93 31.02 6.62 0 0 16.74 1.37 42.28-4.35l18.27-6.72s2.23-.4 4.28-6.22c0 0 2.83-8.59 2.49-9.09s.84-3.85-1.43-9.68c0 0-2.47-6.42-4.84-9.38 0 0-2.96-5.33-4.54-21.63 0 0-1.68-5.14-1.88.89 0 0-.2 13.04-8.1 26.28 0 0 7.71-17.39 7.21-28.75l-4.84-46.92-3.01-28.05s-16.74 5.48-33.64-5.19c0 0-22.23-9.78-27.12-38.53l-12.45 1.48s1.33 4.79-5.19 6.57c0 0 .99 1.09-11.76 0 0 0-3.36 0-3.36-3.65v-1.58s-.59-1.09-1.78-.3l-36.65 3.06s-5.63 7.71-14.92 6.22l.96 17.31s22.52.96 29.71-.52c0 0-9.85 5.63-29.26 3.56 0 0-.22 4.15 1.56 16.08 0 0 1.26 10.59 3.63 17.48l1.19 4s1.33 2.59-3.26 0c0 0-3.11-15.26-4.52-16.82 0 0-5.43 2.96-20.05-5.33 0 0 4.25 18.28 12.45 22.42 0 0-1.28.89 16.5 4.94 0 0 9.88 1.38 12.55 5.63 0 0 11.76 13.68 17.98 27.68l11.95 21.21s3.36 9.19 15.61 19.66c0 0 7.61 8.2 10.96 9.78 0 0-2.67.99-15.31-8.59" class="st12"/><path d="M542.53 789.42s47.3-7.85 57.37-15.36l-25.19 22.33 27.96 30.33-27.46-14.03s-3.26-2.07-.99 1.68c0 0 22.13 42.28 39.61 51.91 0 0 29.04 21.19 46.53 4.74 0 0 13.48-18.37 7.71-37.04 0 0-14.5-66.06-17.78-67.86 0 0 12.94 8.93 27.84 6.31l6.04 47.77s1.29 27.91 7.06 33.31c0 0-3.61 16.67-6.67 21.51 0 0 5.24-6.91 8.1-20.94 0 0 1.48 15.21 2.96 18.08 0 0 4.64 9.38 4.45 13.34 0 0 .2 13.24-8.79 20.35l-1.76 1.36s-15.43 7.23-46.84 7.73c0 0-31.22.41-37.14-7.89 0 0-5.17-3.84-4.45-15.72l-1.38-13.43s9.5 8.22 14.73 8.6c0 0-24.95-21.77-27.45-32.03 0 0-16.28-30.2-20.9-36.43l-7.58-9.89s-2.72-4.35-9.56-5.04c0 0-16.35-3.13-19.48-5.53 0 0-6.48-3.7-10.6-16.22 0 0 12.58 8.32 14.95 8.72 0 0 4.5 1.89 6.6 1.78l1.18 5.45s1.09 1.77 3.42.82c0 0-.64-2.45-.99-3.64-.36-1.19-1.5-5.07-1.5-5.07" class="st13"/><path fill="#f1c418" d="M616.99 889.73s-8.89 1.19-6.62 7.51c0 0-1.98 8.59 29.83 12.84l9.88 1.09s4.64 1.68 4.54-2.67l4.25-11.66s-.17-.79-2.55-.79c0 0-20.86-3.46-27.28-8.2 0 0-3.85-5.73-11.06-2.47 0 0-3.56-.1-1.68 2.67 0 .01 1.09.5.69 1.68"/><path d="M620.7 878.72c0 .42 8.45 5.14 9.19 5.88 0 0 13.88 6.37 27.07 1.09 0 0 1.53-1.48-4.99-.2 0 0-10.82 1.43-21.24-3.16-.01 0-10.03-5.09-10.03-3.61"/><path d="M675.29 859.01s-4.15 16.74-10.63 21.82c0 0-1.74 2.74 2.04-.33 0 0 8.04-6.71 9.15-20.26-.01 0 .4-3.89-.56-1.23" class="st0"/><path d="m537.12 740.17.32 5.71s37.87-9.34 55.13-6.89c0 0 12.15 3.63 25.12-3.26 0 0 4.37-1.81 5.85-6.17l.44-.95-.3-1.04-12.48 1.85s-.57 7.84-10.04 6.66l-7.38-.46s-2.9-.05-3.29-2.83l-.06-2.41-38.53 3.7c0 .02-2.88 4.7-14.78 6.09m.92 16.53-.22-3.93s41.19 3.11 47.93-.81c0 0-21.63 11.34-37.41 10.67l-9.78.03-.07-2.92s16.67 2.44 29.26-3.56z" class="st13"/><path fill="#cd942b" d="M636.95 725.16s4.94 22.33 18.67 27.56c0 0 10.87 6.72 21.53 6.82l-6.72-43.46c.01-.01-31.6 9.38-33.48 9.08"/><path d="M670.44 716.07s5.04-2.57 4.94 0l3.88 22.18s3.7 21.49 3.41 22.97c0 0-.86 1.33-5.51-1.26z" class="st12"/><path fill="#ffd16a" d="M625.98 727.58s6.52-3.9 6.91 0c0 0 3.46 18.72 15.51 26.52 0 0 12.94 12.35 34.67 8.1l.84 9.09s-25.73 2.77-44.21-15.41c.01 0-10.65-9.38-13.72-28.3"/><path fill="#f4c416" d="M512.78 738.99s-1.41 11.19 2.82 32.75c0 0 3.2 3.85 21.53 7.04l-1.97-17.41s.37-2.67-2-2.48l-18.45-2.7 18.45.44s1.48.44 1.48-.96c0 0-.15-14.74-.81-15.41-.01-.01-20.02-.6-21.05-1.27"/><path d="m512.78 738.99 21.04 1.26.51 4.32-21.76 1.31zm21.55 14.27-21.2 1.99s5.18 5.67 22.02 6.11c0 0 .72-2.95-4.06-2.78l-15.99-2.34 17.78.38s1.78.65 1.76-.96l-.04-2.4z" class="st13"/><path d="m415.28 766.11-4.35 56.65s-2.86 19.86.99 31.31l6.22 13.73s2.86 5.43 3.06 9.68c0 0-3.65-4.64-3.95-3.65l-.99-1.88s-1.19-1.78-1.38 2.86c0 0 0 7.71-1.58 12.55 0 0 1.38 10.67 8.89 14.62 0 0 24.1 8.2 54.73 9.38 0 0 22.92 1.68 34.57-4.45 0 0 7.31-5.83 6.62-12.94l-5.53-20.94-14.32 6.03s-1.58-1.68 2.86-2.77c0 0 16-7.61 14.22-15.11 0 0-2.17-4.54.2-7.61 0 0 17.68-38.72 20.15-40.7l1.78-3.26s1.58-1.28-2.07-1.58c0 0-32.1-9.04-43.22-23.56l31.98 12.45s-9.31-4.39-14.94-34.27l-1.15-14.48s-1.67-8.19-1.41-9.19c0 0 .52-1.11-2.33-.96 0 0-11.08-.04-16.3-8.19 0 0-20.89-2.48-22.37-3.74 0 0-2.22-.96-1.93 2.3 0 0-1.04 1.78-9.11 1.19 0 0-5.93.82-8-2 0 0-1.48-5.75-2-1.61 0 0-3.11 26.56-27.26 36.69-.01-.01-1.84.29-2.08 3.45" class="st18"/><path fill="#fedb82" d="M437.65 718.54s6.59.96 6.08 3.19c0 0-.52 9.78-5.33 17.63 0 0-4.22 10.3-13.78 17.26l-8.67 5.85s1.41-4.96 1.11-8.15c0 0 13.78-8.96 17.71-25.04-.01 0 3.25-9.55 2.88-10.74"/><path fill="#fee983" d="M423.8 713.8s-1.56-.44-1.93 3.33l-4.52 30.75s3.33-1.11 7.33-6.59c0 0 5.48-6.45 6.96-16l2.07-7.41z"/><path d="M437.06 745.88s6.18-5.11 8.25-11.83c0 0 16.5 3.44 20.84-3.22 0 0 9.78 4.82 15.71 5.9 0 0 10.17 2.95 12.35 4.53l13.27 3.81-.81-6.08s1.05-.94-3.29-1.01c0 0-11.25-.89-15.35-8.14 0 0-17.01-2.2-20.17-3.02 0 0-3.88-2.01-4.08.24 0 0 .26 1.42-.61 1.77s-9.96 2.04-15.04-.02c0 0-1.8-.33-2.21-3.35 0 0-1.29-2.75-1.39 1.14-.01 0-2.55 12.47-7.47 19.28m71.39 7.05-25.9-4.68s10.29 6.27 25.9 9.06zm7.02 31.6-47.05-15.91s24.53 27.65 36.95 30.33c0 0-24.3-4.54-23.81-2.37l22.03 14.03s1.28 1.19-.59 4.74l-11.05 35.27s-2.78 16-17.4 20.25c0 0 4.74 3.06 18.18-1.28 0 0 1.19.89-5.14 9.68 0 0-2.57 4.45-12.84 8.99 0 0 10.8-2.37 17.2 0 0 0 1.67 11.85-10.19 15.71 0 0-33.73 5.88-61-6.87 0 0 2.18 3.91 7.76 6.77 0 0 34.46 10.04 71.58 6.52 0 0 17.86-.7 18.01-16.41l-5.53-20.94-14.32 6.03s-1.19-1.68 2.86-2.77 10.63-7.15 10.63-7.15 5.7-5.38 2.97-9.83c0 0-1.04-4.72 1.52-7.26 0 0 16.3-37.5 19.46-39.18l1.78-3.26s.97-1.63-1.39-1.51c0 0-22.23-5.17-40.65-20.06 0 0-7.44-5.77.21-2.23l28.02 10.9c-.01.01-5.01-3.23-8.2-12.19" class="st13"/><path fill="#010101" d="M518.87 813.47s7.84-9.58 2.9-.89c0 0-7.8 19.07-11.56 24.3 0 0-9.48 17.88-9.58 20.15-.05.18-.1.46.02.73.35.77 1.65.43 2.39 1.17.48.49.46 1.19.41 2.52-.04.89-.19 2.21-.74 3.78 0 0-6.03 9.98-4.54 14.32 0 0 3.85 8.99 2.96 16.69-.89 7.71-3.2 12.25-3.2 12.25s-2.04 1.28-1.35-.69c0 0 4.05-9.19.89-19.86 0 0-3.85-9.88-1.58-15.71l3.95-9.78c.1-1.33-.24-1.93-.58-2.24-.42-.38-.87-.34-1.18-.81-.34-.51-.21-1.15-.11-1.59.43-1.96.89-3.66 1.15-4.63 2.11-5.54 4.59-11.41 7.53-17.52 3.97-8.27 8.14-15.67 12.22-22.19"/><path fill="#cd932b" d="M415.57 857.23s10.52 24.89 46.82 5.63c0 0-12.15 22.67-35.56 22.37 0 0-8-.44-11.26-10.82 0 0-.64-5.33 1.68-.59 0 0 3.21 1.09 3.95 3.65 0 0 1.8-1.82-4.21-12.22l-2.87-6.34c0 .02-1.66-4.79 1.45-1.68"/><path fill="#fef080" d="M422.72 759.95s-13.97 102.79 0 105.67c0 0-10.72-14.26-8.6-6.69 0 0-5.93-2.64-3.41-34.44l4.57-58.38s-.3-2.98 3.97-4.3z"/><path fill="#ebbc48" d="M427.87 715.47s-3.87 27.27-8.43 31.22c0 0 9.71-5.38 14.28-28.82z"/><path fill="#fff284" d="M418.09 879.66s-5.37 13.06 7.02 22.06l3.41 2.15s-12.6-1.64-15.22-16.5c0 0 2.64-10.26 1.71-14.12 0-.01 2.2 5.27 3.08 6.41"/><path fill="#f4c117" d="M414.98 903.87s-3.85.49-3.26 16.19c0 0 1.19 8.59 9.04 9.78 0 0 24.89 11.71 66.98 9.78 0 0 24.89.3 26.67-7.56 0 0 4.3-20.74-1.48-19.56l-16.74 3.56s5.33 4.15-.3 18.37c0 0-1.73 3.92.15-7.41 0 0 1.48-9.48-1.78-10.22-.01 0-43.87 4.8-79.28-12.93"/><path fill="#d0912a" d="M477.21 917.37s11.26 7.58-1.04 17.95c0 0-52.35-5.28-62.5-13.47 0 0 5.35 7.74 9.13 8.85 0 0 31.45 11.38 58.41 9.11 0 0 27.09-.07 31.7-5.32 0 0 6.79-18.16.82-22.01l-17.55 3.57s4.71 4.96-1.01 18.45c0 0 3.31-19.19-.91-17.71z"/><path fill="#fcf5a3" d="M466.6 916.9s-27.17.25-48.41-9.18c0 0-.59-.74-.84 2.32l-1.48 13.22-2.57-1.67 7.46 8.25s-6.51-.57-8.88-9c0 0-1.4-13.17 3.1-16.97 0 0 30 13.42 51.62 13.03"/><path fill="#8d8d85" d="M351.12 985.18c.16-3.23 1.02-11.63 7.33-18.89 4.38-5.04 9.34-7.17 12.82-8.67 2.17-.94 10.42-4.27 21.49-3.33 9.34.79 16.26 4.25 19.93 6.45a82 82 0 0 0-22.45-1.04c-10.79.99-19.66 1.8-25.71 8.59-5.59 6.28-6.04 14.62-5.78 19.49-.8.1-2.22.19-3.87-.32a9.2 9.2 0 0 1-3.76-2.28"/><path fill="#474943" d="M358.75 987.78s-6.89-37.64 53.94-27.04c0 0 12.08 4.82 20.23 23.78 0 0 1.33-7.71 1.04-9.48 0 0 23.71-11.56 24.89-22.97l27.41 3.85s2.31 5.63-1.95 11.41c0 0-2.93 5.04-3.23 7.85l-4.45 6.22s-41.79 18.67-89.2 12.6c-.01 0-28.76-5.04-28.68-6.22"/><path d="M433.9 977.36s-6.97-10.08-7.66-11.27 15.11 10.27 17.78-6.22c0 0 11.56.3 12.25-15.11 0 0 28.05 5.14 52.65 0l3.06 26.23s.69 2.69-2.67 2.65c0 0-22.13 7.67-32.7 7.76 0 0 3.26-4.35 4.45-6.22l2.06-5.64s3.34-5.13 3.75-7.3c0 0 .13-6.22-.63-6.32l-27.41-3.85s.1 5.59-9.28 13.02l-15.61 9.95z" class="st31"/><path fill="#deaf6a" d="M398.68 949.1s20.25 3.95 25.68 10.17c0 0 8 8.89 12.25 3.8 0 0 3.46-2.08-1.78-6.2 0 0-18.27-15.68-32.99-11.13 0 0-2.86 1.78-3.16 3.36"/><path fill="#f4cb94" d="M415.13 937.21c.33.07 7.96 3.11 19.45 4.93 0 0 13.56 2.67 14.82 8.82 0 0 .52 6.04-6.33 3.45 0 0-10.48-9.89-16.3-10.71 0 0-12.16-3.19-15.1-3.22-.01-.01 1.13-3.75 3.46-3.27"/><path fill="#ffcc42" d="M348.01 991.19s-.44 12.3 2.37 14.22c0 0 46.75 17.56 91.42 4l27.91-10.82 4.45-1.68s.89-1.09 3.06 2.37c0 0 2.27 4.3 6.42 3.58 0 0 9.98-.82 22.42-4.17 0 0 7.21-.89 8-6.91v-11.26s.49-4.35-2.57-1.78c0 0-7.11 2.96-37.83 10.17 0 0-36.97 16.27-87.87 10.27 0 .01-15.11-.66-37.78-7.99"/><path fill="#bb822b" d="m350.75 1001.41 1.2 4.55s22.74 8.13 45.92 8.42c0 0 31.72 2.59 55.78-9.57l20.04-7.73s1.38-.9 2.59.87c0 0 2.96 6.59 8.02 4.84 0 0 22.12-3.56 25.84-5.51 0 0 3.92-1.76 3.92-6.3v-11.66s-.49-2.36-2.57-.59c0 0-35.06 10.67-38.42 10.42 0 .01-54.46 32.04-122.32 12.26"/><path fill="#f8d05b" d="M450.99 691.72s.74-3.11 5.48-1.78c0 0 4.74 1.04 4.3 2.96 0 0-4.3 5.48-2.96 32.45-.76.01-1.83-.01-3.11-.15-1.9-.21-2.88-.32-3.68-.81-2.13-1.3-2.18-4.72-2.17-5.56a86 86 0 0 1-.13-11.82c.33-5.86 1.23-11.01 2.27-15.29"/><path fill="#b59752" d="M448.96 720.61c.02.11 8.7 1.27 8.7 1.27l.15 3.48s-8.41 1.42-8.79-4.44"/><path fill="#8c918e" d="M424.96 685.25s-3.06-1.48-3.06.89l.82 19.86s10.79 6.72 21.04 8.4c0 0 .96.1.66-2.07l1.38-19.95s-.44-1.09-2.05-1.19c.01-.01-16.32-4.36-18.79-5.94"/><path fill="#3d3e3a" d="m425.54 689.61.21 17.87s11.07 6.12 18.01 6.91c0 0 .96-.1.66-2.07l1.17-16.89-20.05-6.03"/><path d="M464.84 695.95s-2.67 14.82-1.33 22.37c0 0 22.52 4.37 23.41 5.85 0 0-.52-21.74.74-24.58z" class="st40"/><path fill="#6d6e6b" d="m464.31 699.28 22.76 4.45.59-4.52-22.82-3.26z"/><path d="M501.44 693.94s-10.3-.3-10.08 9.19c-.32 3.93-.46 8.21-.33 12.78.06 2.11.17 4.15.33 6.11.09 1 .46 3.81 2.65 6.43 2.16 2.58 4.81 3.45 5.78 3.72 2.34.32 5.86.75 10.17 1.09 1.26.1 5.25.4 15.41.64 3.41.08 8.07.17 13.63.2.76.05 2.11-.13 3.7-.68 1.87-.64 3.78-1.88 3.93-4.29 0 0 2.59-22 .44-26.6a10 10 0 0 0-2.06-3.46c-2.74-3.01-6.47-3.33-7.46-3.39-2.78-.18-5.57-.36-8.37-.52-9.38-.54-18.63-.94-27.74-1.22" class="st42"/><path d="M498.11 706.1s-1.56-7.19 5.78-6.89l31.78.63s5.63-.04 5.7 7.07l-.44 16.6s-.09 5.78-6.6 5.48l-31.48-1.04s-4.35.22-4.88-6.08c0 0 .58-4.22-1.27-4.15 0 0-2.96.15-3.04-2.67v-5s-.22-2.19 2.82-2.56c0 .01 1.76.39 1.63-1.39" class="st0"/><path d="M495.81 711.21s-3.19 3.85 8.74 4.74c0 0 5.04.97 6.45-1.92 0 0 1.93-3.04-3.11-2.82 0 0-9.93-1.41-12.08 0" class="st42"/><path d="M503.74 706.87c-.38-.03-1.27-.1-1.93-.74-.15-.15-.6-.59-.51-1.05.13-.68 1.37-1.03 1.81-1.14.09-.02.19-.05.29-.07 4.86-1.11 29.98.59 29.98.59s4.08-.44 4.45 6.89l-.15 11.93c.03.21.1.94-.36 1.5-.39.46-.94.56-1.49.66-.63.11-1.17.05-1.49-.01-10.31-.57-20.62-1.14-30.93-1.7 0 0-.47-5.11-1.43-6.08 0 0 8.52 3.7 12-.59 0 0 5.03-6.3-1.41-8.59-1.89-.73-3.45-.99-4.55-1.07-1.45-.12-2.86-.41-4.28-.53" class="st40"/><path fill="#1e1f1c" d="M502.23 704.23s28.87.33 29.76 7.49l1.73 13.78s3.84.54 3.9-1.33l.13-13.83s.02-6.22-5.07-5.93c0 .01-28.74-2.09-30.45-.18"/><path fill="#42443f" d="M552.64 702.09c.09.2 2.93 7.53.05 24.3 0 0 26.92.64 31.41-5.48 0 0 7.77-10.77-3.55-18.27 0 0-2.82-2.52-8.5-1.48l-19.41.54s-.16.05 0 .39"/><path fill="#82888b" d="M553.41 705.2s29.01-2.76 31.58 1.76c0 0-3.61-6.05-10.57-6.05l-21.78.79s.95 2.9.77 3.5"/><path fill="#fad934" d="M595.68 695.35s-2.89-.22-2 3.11c0 0 4 13.19 2 32.82 0 0-.96.74 3.19.44l5.04-.3s1.78.52 2.22-2.89c0 0 1.19-14.74 0-22.23 0 0-.52-8.97-2.67-10.97z"/><path fill="#cf962b" d="m596.17 724.32 10.24-.2s.22 6.09-1.26 6.92c0 0-.41.72-3.09.5 0 0-6.37.65-6.37-.26z"/><path fill="#3c4040" d="M611.2 697.87s-2.11-.74-1.15 2c0 0 2.82 17.19 1.48 22.37 0 0 16.3-2.07 19.04-4.89 0 0 5.56-7.56 4-14.82 0 0-1.78-5.7-5.56-6.3.01.01-17.18 2.53-17.81 1.64"/><path fill="#a2a290" d="M609.8 698.13s.03 1.86.29 1.99c.26.12 20.72-4.74 22.81-.99 0 0-1.73-2.74-3.88-2.88 0 0-14.87 2.02-16.82 1.82 0-.01-2.39-.64-2.4.06"/><path fill="#242724" d="M611.88 719.18s18.75-2.37 22.97-11.8c0 0-1.41 5.98-4.28 9.98 0 0-1.01 2.42-19.37 4.89 0 0 .68-.84.68-3.07"/><path d="M636.26 693.94s10.82 9.47 0 26.08c0 0 14.8-4.32 18.7-6.13.23-.11.42-.2.57-.29 2.67-1.58 15.51-3.36 16.3-3.36l3.75-1.98s1.19-22.23-1.58-22.42c-.01 0-18.58 6.62-37.74 8.1" class="st31"/><path fill="#474b48" d="m670.44 687.01.59 23.31 4.54-2.05s1.61-21.71-1.58-22.42z"/><path d="M356.99 457.36s6.22-45.64 60.36-70.93l30.13-13.93s-3.36 16.69-3.26 31.41c0 0-.69 22.23 4.15 39.32 0 0 .69 6.52 7.31 2.27l13.83-12.35s10.27-9.98 20.55-2.27l13.73 9.68 6.62 4.64s2.37 3.85 3.11 8.54c0 0-12.2 16.74-9.93 53.39l.1 4.64s.4 3.51 4.35 3.66c0 0 5.58 1.63 17.63 1.38 0 0 6.22.4 6.32-3.16 0 0 1.23-23.07 3.06-26.77 0 0 4.3-21.98 5.78-25.49l6.17-16.73s2.42-7.57 6.82-8.71c0 0 9.63-5.09 14.22-2.91 0 0 15.11 7.9 30.38 23.36l2.57 2.22s1.38.79 2.57-.54c0 0 22.42-12.5 53.99-53.39 0 0 29.78-38.23 31.04-53.05l34.5 19.26s7.71 5.33 19.26 9.88l17.48 9.19s-14.13-5.43-34.57 5.93c0 0-21.34 11.66-26.08 28.65 0 0 17.09-37.24 63.02-32.4 0 0 22.52 10.96 38.82 40.7 0 0 8.59 12.45 12.55 49.49 0 0 1.38 3.16.99-5.53 0 0 12.25 17.78 16.6 28.75 0 0-36.95-11.76-74.98 4.15 0 0-41.59 16.69-56.31 36.45 0 0-1.19 1.19-2.17-2.27 0 0-10.47-22.92-11.95-37.24 0 0-4.15-28.84.79-45.14l3.85-12.5s-8.79 15.66-10.17 57.05c0 0-3.95-2.17-10.67-32.89 0 0-2.57 10.57 4.05 30.03 0 0 6.72 11.95 6.72 13.83 0 0 5.93 21.24 10.87 28.84 0 0 4.64 9.38 1.09 6.52l-11.36-5.04s-3.26-.79-5.73-8.3c0 0-4.94-10.67-10.67-16.3 0 0-9.19-8.69-10.17-20.35 0 0-2.07-14.03-.49-23.31 0 0 1.78-15.61-20.74-12.55 0 0-14.03 3.36-18.28 25.29 0 0-2.27 9.19 2.07 22.92l3.16 11.36s-33.69-3.85-45.05 4.74c0 0-9.88 6.03-10.08 22.08 0 0 1.68 6.27 3.46 9.14 0 0 .4 2.27-1.28 3.46 0 0-7.21 10.67 1.28 25.29 0 0 1.68 1.48.69 5.53 0 0-2.77 14.22 6.32 20.74 0 0 1.19.4-.1 2.77 0 0-2.96 19.86 23.31 25.78 0 0 16.99 5.83 40.6 3.85 0 0 12.74-.69 15.51-2.57 0 0 1.09.32-.99 2.98 0 0 .3 2.16 9.68 2.26 0 0 14.22.4 14.62 7.8 0 0 1.48 8.1 2.96 8.89 0 0-5.14 12.64-22.62 14.92 0 0-37.13 8.25-51.73 7.58 0 0-1.61-2.54-4.97-1.46l-9.78.99s-3.36.89-3.65 2.27c0 0 .1.89-3.85.79l-32.8 1.41s-4.94-7.23-23.02-6.15l-27.3-.69s-8.46-1.19-12.42 5.43l-21.04-3.36s-7.11-6.35-16.6-5.79c0 0-2.77-.43-3.65 2.04 0 0-15.31-3.46-23.71-10.27 0 0-6.98-7.31-4.43-12.25 0 0 5.42-5.73 3.15-15.02l-4.05-32.9-7.8-49.59s-3.16-15.02 1.98-5.73c0 0 2.77 3.36 8.1 4.84 0 0-15.11-12.74-17.68-24.99 0 0-9.48-19.31-4.89-51.61l8-38.08s1.04-7.71-2.07-1.04c0 0-8.3 12.89-10.08 28.45 0 0-1.78-4-.3-25.63 0 0-2.82 1.78-2.22 27.71 0 0-2.07 26.08-2.07 26.82 0 0-28.6-25.63-48.75-24.45 0 0 28.15 6.82 48.16 29.64 0 0 2.07 20.89 5.04 25.49 0 0 .44 2.37-2.67-1.63 0 0-21.78-25.49-41.64-31.56 0 0-6.37-1.04-13.19-16.3 0 0-2.82-4.74 5.78-12.89 0 0 12.79-18.27 34.43-17.19 0 0-2.77-2.67-18.08 2.47 0-.01-2.66 1.17-1.59-3.76" class="st18"/><path d="M363.51 511.85s1.98 1.17 7.31-9.79c0 0 .99-5.15 6.88 0l11.19 10.67s.89 17.63 5.04 25.49c0 0-.81 2.77-4.4-3.58.01-.01-20.59-20.7-26.02-22.79m.65-22.61s21.26 13.26 25.34 18.3l1.37-17.95s1.06-8.72.66-11.17c0 0-.12-20.5 1.31-23.12 0 0 .55-2.25.95-2.29l-.42 7.45-.1 11.53s.21 5 .85 6.37c0 0 2.11-11.93 3.37-14 0 0 5.55-13.71 7.22-15.26 0 0 1.87-3.12 1.64-.97 0 0-.12 5.78-1.42 9.3l-.58 2.74s7.43-9.97 9.51-19c0 0 1.03-7.27-3.63-.3 0 0-.15-3.11 1.63-4.52 0 0-4-.37-7.78 6.82 0 0-7.41 5.85-9.34 15.19l-.96-13.78-5.11 12.97s-4.52 19.34-6.22 20.67l-5.85 13.48s-.89 1.7-3.33.59c0-.01-6.89-3.87-9.11-3.05" class="st52"/><path d="M412.22 446.28s-24.43 75.04 4.91 104.16c0 0-20.49-5.13-20.02-38.46 0 0-.11-22.57 1.6-24.89l5.66-26.92c-.01-.01 7.68-11.51 7.85-13.89" class="st52"/><path d="M402.27 537.11s11.08 24 54.64 15.99c0 0 37.12-5.69 47.34-7.18 0 0 14.45-3.18 21.78 0l38.9 7.01 3.46 9.14s-3.92 8.03-4.01 11.96l-1.89 5.08-.67-8.89s-38.01-4.22-39.79-5.78c0 0-17.91-5.11-37.74.44 0 0-56.94 15.12-64.72 4.89 0 0-9.55-5.99-9.68-8.11 0 0-1.45-8.07 3.64.27 0 0 4.45 3.94 7.27 3.99 0 0-14.84-14.46-16.69-21.63 0 0-1.7-5.2-1.85-5.48l-1.01-2.72z" class="st52"/><path d="M481.66 559.85s20.71-11.94 53.49-4.37c0 0 22.23 7.56 24.45 7.63 0 0-5.33 1.11-27.19-3.26 0 0-23-3.85-47.58.15 0-.01-3.39.96-3.17-.15" class="st0"/><path fill="#c8942c" d="M421.9 674.12s-4.74-9.91 6.03-3.79c0 0 20.49 12.75 26.76 14.46s.41 0 .41 0-11.46-5.37-20.25-18.31c0 0 20.65 12.25 32.3 13.43 0 0 17.88 5.43 19.56 7.01 0 0 24.25 2.72 31.66 1.04l-18.52.46s-7.79.18-10.97 5.51l-21.04-3.36s-6.14-4.81-8.72-4.75c0 0-9.45-3.55-11.53 1 0 0-19.41-5.28-23.71-10.27z"/><path fill="#d59a29" d="M524.16 689.09s18.08-.92 21.72 2.34c0 0 4.83 2.96 5.72 3.92l35.1-1.41s1.51.03 2.15-1.65c0 0 1.31-2.72 15.39-2.31 0 0 1.63-.22 2.22 1.56 0 0 54.73-5.2 62.51-10.89 7.78-5.7.65-.33.65-.33s6.19-4.32 7.13-5.36l-10.47 4.48s8.15-6.22 8-10.08L673.2 658s4.54-.79.49-1.88c0 0-3.66-3.26-14.82-2.96l-1.37-1.46s-5.96-.69-3.04-2.83c0 0 1.91-3.29-1.39-1.23 0 0-14.35 3.07-20.18 2.22 0 0-22.9 21.28-32.44 23.55 0 0 10.91 1.28 33.73-4.05 0 0 4.84-1.48.1 2.37 0 0-13.34 16.15-78.98 17.48 0-.01-27.46-3.34-31.14-.12"/><path fill="#fcf494" d="M409.9 561.66s1.56 2.65 5.62 5.38c0 0 17.28 75.63 9.49 101.86 0 0-6.64-2.71-3.44 4.43 0 0-4.83-4.23-2.12-9.02 0 0 4.45-5.24 3.7-10.97 0 0-8.62-69.18-10.32-73.26z"/><path d="M357.23 456.04s-2.48 10.16 4.71 2.45c0 0 16.33-59.67 84.03-76.88l1.52-9.11c-2.13.97-5.3 2.42-9.11 4.21-12.51 5.86-24.11 11.3-31.22 15.33-6.08 3.44-26.25 15.18-39.69 38.34-5.85 10.05-8.73 19.33-10.24 25.66" class="st56"/><path d="M454.4 369.88s-8.74 31.12-1.04 69.05c0 0 19.41-17.78 27.56-17.19 0 0 9.73-2.22 22.87 18.82l6.62 4.64s-9.78-17.68-13.63-21.09c0 0-13.7-16.45-16.48-20.74 0 0-3.38-9.63-6.04-11.41l2.67 8.89s-15.85-20-17.04-23.26c-.01 0-5.3-8.44-5.49-7.71" class="st18"/><path d="M457.84 374.41s-8.03 16.07-1.37 52.52c0 0 1.14 4.33 12.79-.43 0 0-12.65 9.91-15.91 12.43 0 0-4.84-28.15-3.09-37.64 0 0 1.85-28.9 4.12-31.41z" class="st57"/><path fill="#fecf09" d="M503.79 440.56c.38.27 6.62 4.64 6.62 4.64s-10.95-19.52-14.76-22.45l-15.35-19.38s-8.55-18.53-4.98-7.86l1.6 5.34s-19.49-24.44-19.08-26.44c0 0-5.3 13.19-3.73 33.94l1.95 16.26s-.95 4.34 4.86 4.11l7.21-1.59s9.79-7.61 16.85-4.89c0 0 9.1 4.12 15.14 12.9z"/><path fill="#d1a22c" d="m457.91 374.85-1.24 1.9s26.38 37.34 26.97 41.29c0 0-8.1 1.58-13.93 4.84 0 0 9.22-1.72 10.59-1.15 0 0 7.23-.65 13.32 6.09 0 0 8.48 8.83 9.82 12.22s.35.52.35.52l6.62 4.64s-9.42-15.65-10.44-17.11c0 0-9.12-11.24-10.11-12.03l-9.56-12.69s-10.73-23.67-3.38-2.52c0 0-18.75-23.55-19.01-26"/><path d="m457.84 374.41-1.17 2.34" class="st60"/><path fill="#d2952a" d="M444.71 392.6s-5.39 7.81 0 50.63c0 0 1.99 11.26 9.99 9.48l17.19-10.52s10.52-9.48 20.89-1.04c0 0 12.89 8.15 15.41 16.74l.93 4.76s2.92-9.2-5.08-21.35l-15.69-11.55s-7.87-5.2-18.83 3.4c0 0-19.46 22.07-20.99 10.81-.01.01-6.7-27.9-3.82-51.36"/><path d="M507.74 511.54s-2.22.44-1.33-3.56c0 0 2.67-38.38 10.97-50.23 0 0 23.56-18.97 30.67-18.82 0 0-17.04 24.89-18.23 68.16l-.59 4.46s.15 2.5-2.82 1.76c0 .01-17.22-.69-18.67-1.77" class="st18"/><path d="M513.37 490.87s-2.74 7.04 2.96 9.41c0 0 5.48 1.78 7.78-1.63 0 0 3.48-3.26.82-8.08 0 0-3.04-4.96-8.37-2.44 0 0-2.9 1.79-3.19 2.74" class="st0"/><path d="M515.3 492.35s2.7-4.15 6.67-1.11c0 0 3.63 2.06.59 5.78 0 0-1.85 2.89-6.52.89 0 0-2.6-2.72-.74-5.56" class="st18"/><path d="M517.64 463.33s-.49 5.73 2.12 8.05c0 0 3.8 3.7 9.14.32 0 0 4-4.62.84-8.59 0 0-1.83-4.49-9.19-3.21.01 0-1.6.3-2.91 3.43" class="st0"/><path fill="#feea86" d="M517.37 457.75s12.99-24.79 43.81-36.15c0 0 28.13-11.41 39.83-21.26l-8.03 6.54 5.14-.84s-29.86 16-37.86 19.04c0 0 8.37.07 9.26 1.93 0 0-11.78-1.85-29.12 11.11 0 0-13.83 11.11-14.14 12.85z"/><path fill="#f9c90f" d="M601.02 400.33s47.64-30.01 66.31-73.72c0 0 13.09 19.51 11.41 32.75 0 0-11.26 23.71-20.6 34.23 0 0-19.71 25.78-27.12 32.01l-28.89 26.97s-1.88-.64-3.8-3.36c0 0-14.22-16.25-28.8-22.2 0 0-.16-.81-2.85-1.33l-6.41-.59 10.13-4.67 16-8.17 11.53-6.16-4.93.81 4.79-3.91z"/><path fill="#d6a129" d="M666.97 327.44s-.43-3.05-1.42-4.29c0 0-1-7.36.71-4.84 0 0 4.48 1.53 6.3 5.24 0 0 2.52 2.86 4.45 9.93 0 0 3.16 7.31 7.75 11.76 0 0-3.65 11.95-6.03 14.13 0 0 1.68-6.67-5.58-22.4 0 0-5.29-10.17-5.83-10.35z"/><path fill="#d1992a" d="m597.4 403.28-4.41 3.6s36.35-14.67 39.81-18.92l7.78-6.48s1.52-1.07 1.41 1.3c0 0-.11 4.74 8.22-.11 0 0 5.45-4.93 3.82-1.82l-3.3 9.56s-4.37 9.85-8.59 15.26c0 0-11.85 19.26-15.85 21.78 0 0 15.85-13.65 21.02-20.12 0 0 20.64-25.28 23.59-32.92l7.92-15.49s.59-14.67-11.49-32.3c0 0-12.15 26.08-25.86 38.95 0-.01-18.91 21.37-44.07 37.71"/><path fill="#d69c29" d="M542.18 457.75s5.72-19.98 10.79-21.47c0 0 11.05-5.68 15.83-2.81 0 0 7.81 2.06 31.16 24.28 0 0 1.87 2.73 5.16-.61 0 0 24.31-15.68 40.07-37.27 0 0 26.71-32.49 30.27-40.52 0 0 11.22-17.89 12.23-23.48 0 0 38.78 28.26 61.58 32.84 0 0-5.79-1.74-24.02 7.2 0 0-28.15-16.69-38.67-10.47 0 0-5.93.3-16 14.89 0 0-21.21 29.26-34.68 42.3 0 0-19.99 18.82-28.44 21.78 0 0-4.15 3.41-10.08-2.22 0 0-27.41-23.26-41.64-14.52 0 0-11.34 7.73-14.45 14.09z"/><path d="M699.18 424.56s15.22-33.53 56.61-32.82c0 0 1.58 4.27 10.37 8.71 0 0 12.59 7.29 26.6 31.51 0 0 10.59 16.15 13.85 40.3 0 0 2.82 23.41 6.37 14.52l.59-4.45s1.63-.74 0 5.63l9.03 15.56s-11.37-4.1-28.75-2.04c0 0-4.14-8.04-5.32-8.34 0 0-8.15-3.41-22.23 2.07 0 0-3.7 1.04 5.04-4.3 0 0 12.74-9.48 6.22-30.08 0 0-4.89-24-17.93-38.38 0 0-18.68-22.55-30.67-21.78.01.03-19.55 6.41-29.78 23.89" class="st52"/><path fill="#ffcd0c" d="M701.33 549.4s34.71-41.42 97.41-44.82c0 0 24.77-1.04 34.25 4.3l9.63 20s-30.23-14.22-79.72 1.63c0 0-31.71 10.08-46.23 27.12 0-.01-17.04.14-15.34-8.23"/><path d="M827.14 506.7s.3 11.5 5.74 19.06c0 0 7.37 1.49 9.74 3.12l-9.63-20z" class="st56"/><path d="m755.22 391.73 6.99.43s19.54 8.82 34.49 33.43c0 0 10.05 13.97 13.23 33.3 0 0 3.35 14.13 3.65 23.47 0 0-1.18 11.56-4.33 3.3 0 0-5.4-30.04-7.95-35.34 0 0-6.02-18.81-21.73-37.36 0 0-8.37-10.15-13.41-12.49 0 0-8.76-4.44-9.83-7.72" class="st57"/><path d="M814.56 476.82s.05 5.88-.99 11.16l9.03 15.56 8.55 2.02c.01 0-7.5-15.06-16.59-28.74" class="st56"/><path d="m653.41 492.87 2.36-15.26s-3.7 22.37 10.82 36.6l1.93-45.49 7.56 18.52s11.11-42.23 16.15-43.12c0 0-9.78 25.49 1.04 54.53 0 0 9.6 27.53 20.74 30.97 0 0 40.96-29.19 79.01-29.71 0 0-43.43 3.17-77.82 32 0 0-14.04 10.65-15.32 14.26 0 0-.75 1.13-2.69-3.44 0 0-11.54-25.71-12.29-43.79 0 0-1.62-30.68 1.3-36.18l3.92-13.18s-5.81 11.01-7.96 31.93c0 0-3.11 19.14-1.93 24.55 0 0-5.98-9.46-7.32-18.95l-3.34-13.94s-1.19 7.1.96 18.85c0 0 2.32 12.15 6.2 16.92 0 0 3.21 6.77 3.9 9.13l4.35 13.62s5.51 14.24 6.96 15.75l1.69 4.77s.59 1.88-2.99-.54l-10.19-4.51s-1.61.22-3.35-3.7c0 0-4.87-13.33-10-17.8 0 0-8.26-7.22-11.34-16.76-.03-.02-2.93-12.28-2.35-16.03" class="st52"/><path fill="#545750" d="M833.28 532.88s10.37 31.86 11.41 55.71c0 0-3.7-13.78-3.7-14.37s4.15 32.01 3.7 44.45c0 0 2.67 31.12-24.89 58.83l10.37-16.89s4.89-8.89-2.37-.74c0 0-27.41 34.38-92.31 11.26 0 0-40.45-16.6-41.64-13.93 0 0 42.53 24.15 65.79 27.26 0 0 24.45 3.7 48.9-7.41l10.96-5.9-5.33 11.98s13.34-5.48 24-22.67c0 0 6.08-10.37 7.26-16.89l1.93 10.08s5.78-24.3 3.56-36.75l-1.63-20.6 6.82 10.08s-2.52-18.08-6.37-26.52l-7.11-18.19s-3.85-10.86 3.11-1.23c0 0 1.78-1.04-3.11-13.93l-4.89-11.26c-.01 0-1.35-3.56-4.46-2.37"/><path fill="#353530" d="M664.51 645.15s23.41 4.84 29.34 12.05c0 0 1.2-.84 7.11 1.08l28.46 10.4s42.67 19.24 74.37 5.11c0 0 15.91-5.06 24.5-14.48 0 0 7.45-7.79.98 2.75l-9.48 15.44s15.7-15.33 21.04-33.77c0 0 5.74-20.11 3.81-30.98 0 0-3.21-40.11-3.66-38.53l3.7 14.37s-2.82-27.84-7.54-42.39l-3.87-13.32s-37.98-6.37-66.63 4.1c0 0-23.21 6.72-40.4 20.65l19.36-3.95s8.1-13.43 49.69-17.88c0 0 3.61-.62 5.01 2.35l12.22 19.19s1.48.37-1.19-3.85c0 0-4.82-9.26-4.45-12.74 0 0 .59-1.11 1.41.96 0 0 2.52 3.19 4.3 11.71 0 0 .67-8.15-1.41-12.89 0 0 8.89 2.22 15.93 28.38 0 0 5.41 14.92 3.63 31.81 0 0-1.09-9.78-1.09-9.29s1.48 22.42-6.03 35.46c0 0-6.82 13.73-17.39 15.21 0 0 7.41-3.66 10.96-8.89 0 0-27.17 13.14-56.11 0l-9.78-4.64s-.99 0 4.64 3.16c0 0 19.16 9.68 23.02 11.16 0 0 4.15 1.09-.79 1.68 0 0-31.31 3.85-61.74-13.63 0 0 7.01 4.35 5.24 3.65-1.78-.69-22.92-10.67-27.07-15.02 0 0-2.57 4.94-13.24.59l-11.46 6.72s-2.47 1.09 1.28 3.36c0 0 6.82 3.46 9.68 3.95 0 0 4.84 1.28-.2 2.96.05-.01-16.84 6.81-16.15 8"/><path fill="#53534a" d="M681.4 620.15s7.41-4.64 0-11.31c0 0-5.33-4.79-7.31-4.99 0 0 6.03-6.42 13.34-8.99 0 0 3.26-.99 0-3.26 0 0-8.79-9.29-8.69-13.14 0 0 1.19-1.78 8.69-3.06 0 0 3.66-.59 5.53-2.07 0 0-11.16-14.52-10.37-18.37 0 0 2.17 6.91 18.18 12.25 0 0 7.8 2.47 17.29 3.16l31.91 3.56s-10.87-6.12-11.26-6.22c-.4-.1 38.43-6.12 55.62 1.48l14.62 4.74 8.89 5.63s-18.27-27.86-52.75-28.65l-19.46 2.77s7.44-12.19 42.98-17.05c0 0 8.21-2.02 10.88.33.18.16.34.34.46.54 1.99 3.17 10.69 16.83 10.69 16.83s3.65 6.7 1.42.31c0 0-4.22-7.53-4.68-10.72 0 0-1.22-6.51.95-2.22 0 0 4.65 9.46 4.19 11.2 0 0 .68-6.78-1.3-12.38 0 0 8.48 1.11 16.24 29.31 0 0 5 13.58 3.32 30.87l-1.09-9.29s2.83 28.64-11.58 43.46c0 0-5.81 7.07-11.84 7.22 0 0 9.68-5.78 10.96-8.89 0 0-23.06 11.26-48.6 2.86l-17.29-7.51s4.06 3.63 15.81 8.73l10.58 5.06s5.06 1.5 2.13 1.92c0 0-23.77 4.07-55.74-9.37l-7.65-3.96 5.24 3.65s-22.42-10.35-27.07-15.02c0 0-2.39 4.82-13.24.59"/><path fill="#949792" d="M682.59 554.96s2.22 9.98 31.93 15.07c0 0 19.49 1.6 35.57 4.2 0 0-7.66-4.52-11.38-6.52 0 0 40.22-8.49 71.66 7.13 0 0-18.34-13.8-41.31-17.2 0 0-16.3.96-20.3 3.19 0 0-30.75 8.22-53.49-.74-.01-.02-11.42-4.02-12.68-5.13"/><path fill="#3c3d30" d="M675.8 602.21s18.54-.18 15.63 1.15l-10.89 4.74s-4.92-4.19-6.45-4.24zm3.22-22.23s3.12-.43 6.92 2.68c0 0 4.84 2.77 6.96 2.42 0 0-.25 1.09-3.06 1.23 0 0-.2 1.69 1.48 4.01 0 0-1.13 4.91-2.57 2.65.01.01-9.34-9.74-9.73-12.99"/><path fill="#707570" d="m673.1 552.89 2.96 12s1.78 3.55-2.96 4.88l-6.22 2.82s-4 2.07-.74 4.59l5.78 9.58s2.82 3.31-1.93 5.23l-8.59 8.59s-3.26 1.19 1.48 5.48l4.15 4.3s2.15 1.48.37 3.93c0 0-3.19 7.56-9.85 11.11 0 0-15.26 11.34-46.53 1.85 0 0-4.96-1.11-5.19-8.52 0 0-.07-2.82-3.11-2.82 0 0-20.89-2.37-25.04-17.78v-3.48s-2.27-.59-1.58 3.06c0 0-1.78 10.57 4.84 15.41l17.39 6.12s7.92 2.77 2.13 2.17c0 0-15.12-1.88-16.88-4.45 0 0-.77-.49-.87 3.16 0 0-1.14 11.51 13.04 16.3 0 0 17.71 7.48 39.56 6.52 0 0 22.52-2.82 33.19-7.33 0 0 1.04-.37-.74-1.33l-9.26-6.82s16.23-8.3 18.6-12.3c0 0 2-1.33-.67-3.04l-11.34-7.19s-3-1.41-.61-3.26c0 0 11.58-9.1 16.99-9.93 0 0-.15-1.19-1.33-2l-11.56-13.48s-2.37-1.48.96-1.78l13.37-3.78s1.45.07.41-1.56z"/><path d="M576.56 594.88c.52.23 1.07.15 1.12.14.97-.14 8.58 1.49 16.48 1.13 2.52-.11 6.13-.48 10.48-1.63.57-1.42.3-3.01-.67-4.12-.6-.68-1.58-1.19-3.18-1.27 0 0-24.45-4.49-26.57-7.9 0 0-2.03-13.39 8.15-13.24 0 0 17.39-.69 20.15-4.64 0 0 1.63-3.41 1.09-5.33 0 0-29.54-3.06-28.65-5.43-.01-1.38.11-3.46.83-5.85.32-1.06.63-2.12 1.36-3.23 1.52-2.35 3.88-3.48 5.45-4.02.88-.52 2.19-1.22 3.86-1.87 4.55-1.76 8.54-1.85 11.47-1.88 1.52-.02 3.58.04 6.04.35 3.7.73 8.4.96 13.85 1.16 7.16.25 14.77-.14 16.63-2.73 0 0 .52-.22 0-1.26 0 0 5.26.66 9.48-2.19 0 0 2.44-1.44 0-1.52 0 0-.99-.25-1.36-.77l-6.25-1.04s2.11-13.5-9.88-19.16c0 0-1.38-12.55 1.88-21.34 0 0 6.22-17.98 15.56-11.66 0 0-6.67 5.93-4.89 17.83 0 0-.3 3.36 5.14 5.48 0 0 3.01-.44 3.01 1.43l1.83 8.94s-2.37.35-3.01 2.07c0 0-.49 1.09 1.33.35 0 0 1.83-1.43 2.27-.79 0 0 2.12 10.08 11.61 18.87 0 0 12.35 19.35 13.34 23.12l.97 3.75-2.35-3.75 2.54 10.27s2.65 5.8-2.54 6.61l-6.22 2.82s-2.78 1.15-1.19 4.2l4.6 7.27s4.57 5.94.93 7.3l-10.34 9.55s-1.66 1.47 1.42 4.61l5.29 5.41s1.38 1.34-.33 3.67c0 0-6 16.13-31.2 16.42 0 0-25.01.1-29.18-7.5 0 0-.65-3.4-.99-4.8-.05-.22-.1-.4-.14-.5-.26-.73-.17-2.26-4.12-2.46 0 0-19.34-3.47-22.91-14.69 0 0-1.31-2.67-1.05-5.44.11-.2.1-.34.06-.43-.17-.48-1.34-.5-1.36-.42-.02.03.04.06.16.11" class="st74"/><path d="M602.69 562.97s-1.92 3.42-18.5 2.76c0 0-8-.3-9.58 2.17 0 0-4.2 3.56-2.96 11.21 0 0 .74 7.26 3.06 8.2 0 0-1.61-5.58-.66-9.24 0 0-.62-7.34 5.11-9.57 0 0 1.66-.67 3.57-.52 0 0 8.33-.45 12.68-1.52 0 0 6.48-1.12 7.28-3.49" class="st75"/><path fill="#7c7e78" d="M573.94 578.61s-.45 4.82.78 8.7c0 0 4.15 2.54 26.15 6.17 0 0 2.53 1.11-1.77 2.19l5.4-1.11s2.38-3-2.57-5.28c0 0-18.86-3.43-24.7-6.15 0 0-3.72-.42-3.29-4.52m-.81-25.65 4.67 1.15 25.81 3.9c.13 1.41-.06 2.39-.21 2.93-.27 1.01-.86 2.2-.88 2.4 0 .02-.01.12-.07.16 0 0-.02.01-.09.04 0 0-12.64-2.87-25.87-2.72 0 .01-2.62-1.6-3.36-7.86"/><path d="M573.13 552.96s-2.77-11.74 6.72-16.18c0 0 8.05-6.08 27.91-4.2 0 0 15.51 1.83 19.31.74 0 0 6.82-.89 7.36-.07 0 0 1.59 2.02-4.86 3.47 0 0-11.06 1.33-22.06-.22 0 0-13.15-2.01-20.92 1.06 0 0-5.61 2.56-6.9 3.59 0 0-4.62 1.29-4.72 12.26zm70.73-77.38s2.66.42 1.43-1.35c0 0-7.65-4.33-14.57 1.79 0 0-6.03 3.56-8.99 17.29 0 0-1.19 4.35.89 13.63l3.8 1.63c-.2-2.04-.38-4.85-.27-8.2.07-2.09.2-5.75 1.08-9.47.44-1.86 3.81-15.42 11.49-16.43 1.12-.14 2.86-.09 5.14 1.11" class="st75"/><path fill="#8b8d86" d="M622.62 506.95s2.91 9.63 3.28 20.74c0 0 7.38 1.04 11.43.22l-1.04-.17c.02 0 2.02-16.2-13.67-20.79"/><path d="M645.62 477.29s-4.89.54-4.79 13.48c0 0 .94 5.56 6.05 6.05 0 0-.32-11.85.94-15.56-.01 0 .61-5.48-2.2-3.97" class="st74"/><path d="M611.61 544.63s-3.58 5.68.77 8.92c0 0 4.35 3.11 8.94 3.95 0 0-9.85 2.13-13.81-4.09 0 0-2.84-5.91 4.1-8.78M605.94 576s-1.56 5.78 1.56 9.19c0 0 2.85 4.3 10.96 3.37 0 0 6.89-1.67 1.63-1.89 0 0-8.67.48-11.26-4.96a13.1 13.1 0 0 1-1.48-5.46c-.12-1.08-.42-1.84-.7-1.84-.27-.01-.55.67-.71 1.59m3.3 27.66s-1.23 6.27.99 8.94c0 0 1.53 2.17 9.43 2.72 0 0-1.09 2.17-8.79 1.04 0 0-3.9-.59-4.45-4.79 0-.01-.29-7.62 2.82-7.91" class="st0"/><path fill="#595c54" d="M247.25 573.11s8.22-24.89 10.82-27.93c0 0-.52 20.82 3.48 36.67 0 0 3.33 16.3 10.74 26.15l.96 1.33-1.7-13.04s6.67 13.73 21.14 26.97l10.82 9.63v-3.95s13.04 7.9 24.94 7.95l13.68.79s-2.91-4.3 1.14-5.04c0 0 5.29.1 6.62-1.93 0 0 0-1.43-4.84-.2 0 0-5.68 1.63-2.17.05 0 0 28.92-10.13 46.7-29.17l15.41-15.71s2.07 1.11-13.85 20.3c0 0-12.22 13.85-38.97 26.89l-8.45 3.04s-.67 1.7 2.52 3.04c0 0 7.41 3.93-1.26 3.11 0 0-20 1.93-33.49-4l-5.78-2.96 2.59 6.82s1.26 2.37-2.22-.07c0 0-9.93-3.56-23.04-18.74l-6.59-8.96s-.89-2.22-1.26 1.63l-.77 4.58s-6.98-5.66-10.13-14.43c0 0-4.96-10-6.3-16.15 0 0-2.52-9-2.7-13.04l-1.67-11.3s-4.52 4.04-5.22 8.26c-.01 0-1.08.63-1.15-.59"/><path fill="#3a3934" d="m258.06 545.18 17.63-38.87s5.24 1.28 11.26-1.33c0 0 10.77-5.88 8.05-2.27l-2.52 5.19 7.21 5.93a84.5 84.5 0 0 0-3.26 14.76c-.78 6.09-.76 11.37-.74 16.61.01 2.84.08 5.19.15 6.82.39 4.19 1.08 8.65 1.78 13.41 1 6.78 2.22 13.71 3.11 14.3.23-3.25.46-6.5.7-9.74.27 1.14.66 2.84 1.16 4.91 1.64 6.88 2.04 8.2 2.44 9.39.54 1.58 1.44 3.9 2.89 6.63 1.5 2.94 3.08 5.3 4.45 7.11a50 50 0 0 0 3.3 3.93c2.13 2.32 4.18 4.21 5.96 5.7-.31-1.67-2.28-12.29-2.27-15.03 0-.19.01-.69.2-.75.38-.11.96 1.77 2.59 4.15.66.96 1.28 1.69 2.07 2.63a53 53 0 0 0 2.07 2.3c.46.48 1.42 1.46 2.78 2.67 1.77 1.57 2.72 2.43 3.93 3.19.81.51 3.29 2.07 6.04 2.19 2.78.11 4.83-1.4 8.83-4.44 3.57-2.72 6.21-4.72 8.29-8.38 1.19-2.09 1.71-4.26 2.74-8.59.88-3.68 1.93-8.18 2.22-14.3.06-1.26.11-1.31.14-1.63.09-1.19.15-2.92.03-5.11l-3.21-25.34s3.75 6.08 5.43 19.11c0 0 3.61 12-4.24 37.64 0 0 9.93-21.41 10.67-36.26 0 0 9.78-2.26 17.78-20.19 0 0 14.22 12.74 16.45 38.53l.82 5.7s-24.29 28.69-48.19 38.83l-15.01 6.61s7.07-1.82 7.68-.91c0 0 1.9.67-2.84 2.11 0 0-5.22-.06-5.33 1.55 0 0-.68 1.36.83 3.79 0 0-24.75.38-37.29-7.99l-1.33-.76v3.95s-16.94-14.39-22.66-22.41l-9.19-13.97 1.6 12.82s-7.42-10.09-10.91-24.16c0 0-4.02-16.43-3.83-24.17z"/><path fill="#53554e" d="m305.03 493.46-5.33 20.35s-5.33 13.88-3.85 38.18c0 0 2.82 24.75 4.89 27.71l.7-9.74s3.6 27.08 20.2 37.67l-2.27-15.03s11.46 16.29 19.68 16.37c0 0 3.91 1.09 16.29-11.5 0 0 7.64-18.81 5.71-34.51 0 0 .59-17-5.63-26.87 0 0-7.56-10.25-10.82-12.58 0 0-11.34-13.59-13.08-17.15 0 0-3.76-7.41-3.05-10.82l-2.32-11.85s-5.42 13.5-7.34 16.09c0 0-1.78 4.34-4.45 1.76.01-.01-10.21-10-9.33-8.08"/><path fill="#8a8e83" d="M325.68 483.68s.99-8.25 1.98-2.03c0 0-.49 6.32 10.96 23.02 0 0 7.51 7.73 14.13 18.83 0 0 9.78 17.03 9.83 31.11 0 0-2.08-15.78-15.24-28.51 0 0-13.27-14.01-16.43-21.03 0 0-2.81-6.23-2.44-9.53l-2.32-11.85h-.47z"/><path fill="#50534d" d="M353.64 514.55s17.48 18.16 16.3 47.11c0 0 8.99-1.18 17.78-20.19 0 0-25.69-26.32-34.08-26.92"/><path d="M277.62 502.21s5.63 3.41 20.97-12.37c0 0 5.56-8.52 7.41-6.82 0 0-3.11 3.19-3.41 3.56l-.3.37s4.3-1.63 11.85 8.82c0 0 7.04-10.67 7.71-18.08 0 0 .52-1.26-3.26 0 0 0-12.67 4.34-10.74 1.65 0 0-.96-1.58 7.11-4.62 0 0 10.3-4.15 14.6-10.15 0 0 8.17-9.09 10.05-17.78 0 0 6.42-14.22 5.33-25.88 0 0-.89-15.81-8.4-21.24 0 0-6.12-8-22.62 3.85 0 0 6.82 1.78 7.11 9.98 0 0-.99 10.08-13.14 4.15 0 0-3.85-2.96-5.33-10.67 0 0-3.46-.79-3.26 3.16 0 0-.3 13.24 7.9 15.9 0 0 2.77 3.65 16.2.69 0 0 8.01-1.68 12.6-7.51 0 0 1.73-.79 0 1.58 0 0-6.37 10.87-18.13 12.55 0 0-6.03 1.09-8.59.4 0 0-.99-.4-1.88 1.68 0 0-8.89 17.43-5.63 25.95 0 0-.4 4.77 2.77 8.33 0 0-9.41-6.05-5.95-14.32z" class="st83"/><path fill="#838580" d="m277.62 502.21 15.88-35.46s4.79-6.55-.39 5.46c0 0-2.96 12.22-1.19 19.78l1.36 2.91c0-.01-10.18 9.53-15.66 7.31"/><path fill="#716c62" d="M286.22 496.5s11.41-8.37 13.78-11.26c0 0-5.78 10.3-13.78 11.26"/><path fill="#7d7f7b" d="M327.13 429.8s7.84-.3 10.11-.99c0 0-20.65 13.83-22.23 18.18 0 0-6.32 13.43-3.26 21.24 0 0 1.36 3.21 6.21 5.11l-9.02 4.34s-1.82 1.22-1.05 2.44l-7.9 5.12s-8.04-7.33-8.27-4.99l1.38-8.04s2.48-5.98 2.41-6.67c0 0 .21-1.63-1.09.09l-.93 1.12 5.02-11.19s-2.55 6.99 6.02 14.15c0 0-5.85-9.19-2.42-20.28l5.28-14s.69-2.29 2.6-1.54c.02 0 8.02.76 17.14-4.09"/><path d="M299.34 411.61s-.37-3.67.99-4.27c0 0 2.3-1.83 2.61 1.32 0 0 2.68 12.83 14.93 10.66 0 0 12.55 1.98 18.67-5.24 0 0 .18 4.15.19 5.48 0 0 .16-1-.9-.13 0 0-7.53 9.19-22.35 8.26 0 0-6.64.43-11.23-5.67 0 .02-2.34-2.2-2.91-10.41" class="st83"/><path fill="#fffffc" d="M320.85 471.78s11.55-12.25 13.82-19.06c0 0 7.8-19.26 8.2-24.94 0 0 2.27-12.01-5.04-22.67 0 0-2.96-7.66-13.68-5.38 0 0-7.36 2.42-7.61 5.09l-2.62-1.28s11.38-9.24 19.76-5.78c0 0 6.56 2.45 8.93 11.38 0 0 2.72 8.92 2.45 15.64 0 0-.6 8.83-3.7 17.54l-4.13 11.15s-5.94 11.31-12.97 16.13c-7.03 4.8-3.41 2.18-3.41 2.18"/><path d="M302.56 406.98s11.36-4.89 9.24-2.57c0 0-1.13 1.43.06 1.53q.09.015.21 0c1.51-.05 5.66 1.78 6.26 6.47 0 0 .89 2.91-2.42 5.09 0 0-1.69 1.94-5.78 0 0 0-2.22-1.33-3.46-4.35-.01 0-1.64-4.1-4.11-6.17" class="st83"/><path d="M114.68 754.5s13.83 3.36 28.94 15.51c0 0 3.16-.59-11.76-11.76.01 0-12.44-6.71-17.18-3.75z" class="st60"/><path fill="#916732" d="M114.68 754.5s-2.07 7.11 7.21 13.34c0 0 10.17 6.42 18.97 6.12 0 0 5.93-2.07 7.01-6.91l21.93-48.7 21.44-46.23 24.3-53 42.53-93.57 43.49-94.91s-1.95-2.86-2.69-.74c0 0-2.67 3.95-7.51 2.82 0 0 1.19 6.12-2.57 12.74 0 0-3.65 6.77-10.82 7.11 0 0 .49 9.19-7.71 13.39 0 0-7.75 6.42-22.18-1.58l-2.91 8.12 18.08 6.8s.3 2.37-1.09 6.52c0 0-6.22 18.67-8.5 21.98l-31.91 69.77-45.34 100.91-20.65 40.67s.79-4.05 2.86-8.69l23.61-49.59-27.56 55.81s-17.29 39.64-21.27 42.76c0 0 8.77 6.09 10.09 9.15 0 0 2.59 2.51-.45.98.02-.01-14.88-11.66-28.36-15.07"/><path fill="#bf914f" d="M120.16 753.74s9.73 2.61 13.26 5.68c0 0 3.89-5.49 7.21-12.33l8.06-17.04 7.43-15.57 28.94-56.06 26.95-59.17 26.94-59.29 20.45-46.17s5.19-12.98 3.85-14.52l-11.38-4.28s-1.22 1.41-1.81 3.34l-19.56 41.64-31.12 66.83-20.74 45.64-32.75 67.72c0 .01-22.72 50.85-25.73 53.58"/><path fill="#eabe7f" d="M114.68 754.5s1.58-1.02 5.48-.75l4.1-7.14 7.83-16.23 34.26-72.5 32.3-69.43 35.06-75.27 18.17-38.16-6.7-2.52-12.64 27.84s-9.98 21.34-12.74 26.87l-43.96 96.51-45.19 96.31s-8.64 20.6-10.47 22.23c-.02-.01-5.32 11-5.5 12.24"/><path fill="#926933" d="m306.81 329.43 5.53-12.05s1.58-1.68 6.72 0c0 0 18.37 3.16 27.17 16 0 0 1.58.99 0 4.35l-14.62 32.2-6.91 15.02s-2.37 9.09-12.05 11.46c0 0-.27-.89 1.84-2.47 0 0 1.22-2.68 0-6.79l-2.11-4.74 15.34-33.56s.74-7.71-2.07-2.22l-5.19 13.93s6.22-14.37 5.63-17.19c-.01-.01-3.42-17.64-19.28-13.94"/><path fill="#eabf81" d="m306.81 329.43-13.53 29.44s-.59 1.33 1.33 1.63c0 0 3.75 1.38 5.19 3.01 0 0 8.33 7.26 12.66 19.09l1.22-3.07s-7.66-15.68-13.39-18.25c0 0 11.78-30.38 13.94-32.01 0 .01-4.85-.92-7.42.16"/><path fill="#c19353" d="M300.29 361.29s6.72 4.05 13.39 18.25c0 0 14.69-30.42 14.09-33.42 0 0-.06-3.21-1.94.13l-5.34 14.6s6-14.83 5.62-16.84c0 0-.75-11.32-11.88-14.72 0-.01-13.69 29.04-13.94 32"/><path d="M235.89 475.73s4.05-13.19 6.32-14.57c0 0-.1-.84-1.43-.74l-4.05-.74s-1.09-.89.84-1.09c0 0 2.62-1.23.25-2.32 0 0-3.51-2.91-1.14-1.53l9.48 2.67s4.05 1.83 6.77 3.31c0 0 4.45 3.36 11.85 2.07 0 0 6.37-1.54 7.66-8.42 0 0 0-5.41-5.04-7.68 0 0-5.24-2.27-7.01 4.05 0 0-2.07 4.25-1.19 5.24 0 0 3.26 2.27 8.2 1.68 0 0-10.37 1.78-9.34-2.96 0 0 .54-4.74 3.21-7.71 0 0 1.38-2.96 5.33-1.38 0 0-7.61-8.61-13.93-10.87 0 0-6.62 7.71-6.22 13.94 0 0-15.21-.2-18.08-3.06l.59 9.63s2.37 9.73 4.64 13.29c.01-.02 3.87 4.13 2.29 7.19" class="st94"/><path fill="#adafa6" d="M228.38 445.6s1.68-12.3 10.42-13.56c0 0 11.4 1.53 13.88 2.68 0 0-6.42 7.59-6.22 13.94 0 0-13.98.05-18.08-3.06"/><path d="M238.8 432.04s-10-1.01-12.45 8.31c0 0-2.15 6.73.89 17.25 0 0 3.41 14.08 7.93 18.45 0 0 1.54.29 1.36-2.34 0 0-1.07-2.87-2.92-5.2 0 0-5.37-11.66-4.91-17.59l-.33-5.33c.01.01 1.54-11.84 10.43-13.55" class="st75"/><path fill="#7b7f79" d="M235.47 426.93s22.37-.74 30.82 12.45c0 0 8.08 10.74 15.71 5.48 0 0 6.67-4.22 3.19-11.78 0 0-1.33-4.46-4.89-6.16 0 0-6.52-.03-6.89 7.8 0 0-.89 3.39 4.22 7.24 0 0 4.07 1.11 5.78-.67 0 0-7.19 5.56-11.63-4 0 0-1.33-5.94 3.26-10.38 0 0 3.19-2.44 5.11-1.77 0 0-9.34-12.3-12.82-11.78 0 0-4.45 8.59-10.45 7.48l-21.41-.07c0 .01.29 4.09 0 6.16"/><path d="M235.47 420.78s1.8-12 14.94-10.52c0 0 5.43.12 7.21-1.85 0 0 6.94.52 12.85 6.33 0 0-2.13-1.42-3.36-1.38 0 0-4.3 8.78-10.22 7.5z" class="st97"/><path d="M235.47 426.93s-3.18.59-3.26-2c0 0-.22-12.08 6.96-14.67 0 0 2.22-2.52 12.22-2.3l6.67-.01s-.89 1.11-2.01 1.47c0 0-1.66 1.12-8.97.76 0 0-6.67.17-9.77 5.83 0 0-1.91 3.59-1.84 4.77z" class="st75"/><path fill="#8c8d88" d="M243.39 402.85s.89-4.74 5.7-4.15l27.63 3.48s.15 2.15 4.96-10.45c0 0 .3-2.22 2.3 0 0 0 8.59 9.26 10.37 13.93 0 0-5.7 1.25-7.56 5.4 0 0-2.67 3.12.52 8.9 0 0 1.63 4.07 9.11 3.48 0 0 2.15 1.26-1.85 2.3 0 0-4.89 2.22-10.52-3.78 0 0-7.93-10.45-14.37-13.56 0 0-1.11-3.19-18.97-5.56h-7.32z"/><path fill="#f1f1ed" d="M242.5 402.98s1.78-11.71 6.67-14.87c0 0 4.79-4.74 16.79-2.62 0 0 11.06 1.88 16.55 5.26 0 0-20.15-4.57-29.04-2.1 0 0-8.1 2.72-7.75 10.27l-.03.45s-2.15 1.82-2.29 3.8c-.01 0-.95.12-.9-.19"/><path d="M293.97 406.93s-5.9 3.11-6.3 8.52c0 0-.72 3.85 3.7 6.5 0 0 2.1.84 4.79.72 0 0-3.48-5.41-2.67-9.58z" class="st94"/><path d="M259.25 379.54s3.5-21.21 19.35-17.06c0 0 17.25 1.85 21.7 11.71a35.7 35.7 0 0 0-7.12-4.7c-2.69-1.34-6.74-2.21-14.73-3.89-4.73-.99-6.82-1.32-8.89-.15-1.35.77-2.06 1.82-3.2 3.64-1.6 2.57-3.66 6.08-5.92 10.46h-1.19z" class="st75"/><path fill="#8c8e88" d="M260.83 379.54s18.96 2.05 25.36 7.09c0 0 5.44 2.67 8.18 8.59 0 0 3.48 6.59 6.89 4.22 0 0 6.74-.47 7.19-8.09 0 0 1.11-3.74-2.67-8.75 0 0-4-6.79-5.48-8.42 0 0-8.31-6.96-15.58-7.15 0 0-11.95-3.19-13.98-2.1 0 0-1.95.03-4.59 4.49l-5.71 10.12z"/><path fill="#6d6f6a" d="m260.43 379.54 2.07-3.89s24.01.27 24.15 6.96l1.69 5.4c.01-.01-4.27-5.78-27.91-8.47"/><path d="M285.44 377.85s6.22-8.33 9.74-7.59l-2.7 2.44s-4.78 3.78-5.78 6c0 0-2 1.37-1.26-.85m17.12 5.74s4.03-.7 1.8-1.26c0 0-5.15-.22-6.82 3.11 0 0-.96 3.04.67 1.7.01.01.07-1.92 4.35-3.55m-8.52 9.43s7.53 6.25 11.34 2.74c0 0-4.91.32-7.46-1.85 0 0-4.99-2.07-3.88-.89" class="st0"/><path fill="#3b3f3b" d="m252.14 284.98 33.14-1.78s104.78 62.7 116.87 71.21l-27.17 1.35-24.3-11.65s5.19-6.37 2.52-12.45c0 0-13.19-18.97-39.27-20.89 0 0-9.04.24-9.78 8.72z"/><path fill="#474a44" d="m285.97 282.07 11.56-11.66 25.83 16.5s4.64 2.82 5.93 11.56l.84 4.49s-2.57 1.48-6.91 0z"/><path fill="#424642" d="M375.94 331.88s7.29-7.38 12.92-5.41l13.29 7.75s11.5 8.69 17.03 7.8l-12.5 11.85s-.44 1.04-2.52-.64c0 0-6.87-6.24-18.13-13.07.01.01-11.25-6.53-10.09-8.28"/><path fill="#85857e" d="M373.86 355.22c3.49-.12 6.56-.37 9.12-.64 3.74-.4 5.29-.73 8.52-1 3.46-.29 6.52-.33 9.07-.25l1.59 1.08-27.17 1.35z"/><path fill="#656c6b" d="M298.22 268.75s17.48 8.22 26.6 15.34c0 0 5.78 2.52 7.19 12.08l1.56 4.89 39.34 25.08s-33.59-19.72-39.12-21.79l36.95 22.52s2.65 2.27 5.13.4c0 0 7.91-6.52 14.33-3.56l28.05 16.89.94 1.43 15.06-34.52s2.37-3.85-1.38-4.84c0 0-27.17-15.61-29.04-19.46 0 0-4.25-7.61-4.94-17.09l-39.12-25.98s-.89-1.19-3.06 0c0 0-9.88 4.84-16.5 1.88 0 0-18.87-10.37-19.66-11.26 0 0-6.91-4.94-7.71-4.15 0 0-.49 4.74-.99 6.91z"/><path fill="#cdd4d5" d="m312.84 226.6-.61 4.81s7.25 1.79 15.33 7.34l12.22 6.52s4.67 2.89 8.22 1.26l7.66-2.64s1.23-.79 3.9.69c0 0 31.93 17.95 38.01 23.29 0 0 .82.44 1 2.3 0 0 1.19 7.33 3 11.67 0 0 4.11 7.57 14.28 10.53 0 0-10.76-6.92-11.72-8.69 0 0-4.33-9.01-4.79-13.85l-.45-3.71s-9.46-7.17-19.11-13.14l-20.58-13.24s-.54-.43-2.48.4c0 0-11.49 5.59-17.5 1.32 0 0-21.01-10.95-21.07-12.35-.02 0-5.18-3.55-5.31-2.51"/><path fill="#c3cbca" d="M403.13 269.57s.89 10.08 4.82 13.11l25.12 16.74s1.18 1.71 1.26 2.89c0 0 .37-10.89-1.48-12.82 0 0-15.41-11.48-21.12-14.74 0 0-7.93-4.74-8-6.08-.01.01-.77-.48-.6.9"/><path fill="#606360" d="M403.69 273.32s5.95 5.09 11.34 8.7l13.53 8.99s5.17 3.04 4.71 8.76l-11.78-8.05-10.62-7.08s-4.99-2.45-5.72-6.19z"/><path fill="#e6eaeb" d="M252.14 282.31s-4.15-7.11-3.41-8.3c0 0-3.26-3.11-1.33-2.82 0 0 10.82-37.34 23.12-47.12 0 0 14.97-6.96 11.71 0 0 0 13.83-11.21 14.22-4.79v15.51s2.96-5.73 5.63-12.25c0 0-1.63-7.66 0-8.54 0 0 7.85-3.41 9.33 7.71 0 0 1.19-12.3-4.74-10.22l-32.01 3.41s-6.37.44-10.22 8c0 0-15.56 30.08-17.04 38.23 0 0-2.82 7.5-1.33 12.2l2.52 8.99c-.01-.01 2.21.73 3.55-.01"/><path fill="#616563" d="M247.93 273.19s15.32 2.36 31.25-2.78c0 0 8.45-7.8 10.45-12.03 0 0 3.33-.22 6.08 10.08 0 0-5.63 2.96-11.26 10.97l-1.63 1.63s-3.33-.52-6.3 0c0 0-26.75 2.96-27.93 1.26 0 0 2.44.96 3.56 0 0 0-3.18-6.03-3.34-6.98 0 0-.27-1.09-.07-1.31z"/><path fill="#959f9d" d="M288.5 260.26s8.73-18.75 11.3-27.54c0 0 4.74-10.08 2.27-10.17 0 0-3.19-10.81 3.42-8.99 0 0 4.76-.68 6.46 8.79l.84 4.06-.56 5s.21-1.55-1.42.28c0 0-3.9 4.94-6.87 14.72 0 0-3.46 8.4-4.99 11.98l-2.91 9.71s-3.01-9.63-6.42-9.71z"/><path fill="#96a0a3" d="m246.79 271.51.6-.31s8.16-25.4 9.69-26.36c0 0 8.77-19.89 14.73-21.34 0 0 8.05-3.65 10.36-2.16 0 0 1.13.51.04 2.73 0 0 8.2-6.34 12.2-6.77 0 0 2.66-.73 2.02 4.4v13.09s-2.91 9.43-9.98 24.1c0 0-4.84 10.57-12.4 11.51 0 0-17.04 2.2-25.56 1.75.02.01-1.19.38-1.7-.64"/><path fill="#c2cacb" d="m313.26 213.93 2.74 10.3s-.37.52 1.7 1.7l20.45 11.78s4.37 3.56 9.41 2.07l7.26-2.37z"/><path fill="#7b8384" d="M316 224.23s1.85-5.56 3.7-3.85c0 0 26.38 16.6 28.38 18.82 0 0-2.18 2.66-8.57-.59 0-.01-22.97-12.37-23.51-14.38"/><path fill="#a37945" d="M353.86 223.49s4.37.74 6.74 1.11c0 0 13.11 4.3 18.15 8.45 0 0 10.22 6.3 9.41 10.52l-1.85 4.52s-.89.96-1.56-.3c0 0-8.82-6.59-24.67-15.41 0 0-5.41-4-8.45-4.59 0 0-1.41-.37.81-2.82z"/><path fill="#fdf7be" d="m353.86 223.49 4.05.68s-1.01 4.14 0 6.72c0 0-5.16-2.83-6.59-3.33 0-.01-.7-1.16 2.54-4.07"/><path fill="#fef492" d="M474.1 180.81s3.78-43.12 43.93-64.68c0 0 2-.52 0 1.56l-4.22 6.74s-28.8 19.29-32.06 56.38c.01 0-7.17.26-7.65 0"/><path fill="#fcce09" d="M481.76 180.81s.01-.3.05-.85c.21-3.05 1.42-13.95 8.11-26.93 4.72-9.17 12.16-19.37 23.9-28.6 0 0-9.34 18-9.53 36.18 0 0-4.35 23.91-4.74 32.01 0 0-5.33 1.09-14.22 1.68 0 0 1.35-13.45-3.1-14.34-.01 0-.49 1.19-.47.85"/><path fill="#fcf7b9" d="M480.77 194.74v-11.78s-9.04 1.19-11.93 6.22c0 0-1.19 7.85-.59 9.11 0 .01 6.89-2.29 12.52-3.55"/><path fill="#deb429" d="M480.77 182.96s-5.92.12-6.34 6.4l-1.15 7.37 7.5-1.99v-11.78z"/><path fill="#fef8c3" d="M447.28 212.67s-2.86-.74 3.21-3.26c0 0 24.79-13.78 65.1-13.48a420 420 0 0 0-26.06 5.8 416 416 0 0 0-29.06 8.58l34.23 4.59c0-.01-21.78.73-47.42-2.23"/><path fill="#fcce0f" d="M460.47 210.3c7.66-2.62 15.86-5.16 24.6-7.51 10.74-2.89 20.96-5.12 30.52-6.86 8.33.03 17.17.37 26.43 1.19 15.98 1.41 37.51 4.45 59.66 10.96l2.52 1.04s-60.01 6.82-114.54 2.37l67.42 1.51s27.41.67 43.86-1.51l5.28-.3 4.94 4.54s-34.48.89-38.23 1.19l-57.34-1.19-20.89-.84z"/><path fill="#e4b649" d="M606.23 211.19s12.79-1.38 27.81 3.51c0 0 14.27 4 24.1 9.19 0 0 8.35 3.41 14.47 9.73 0 0 3.16 2.47 1.14 6.22 0 0-1.14 4-12.74 4.69v-7.01s.1-.49 1.33.35c0 0 4.79 2.62 6.52 2.02 0 0 2.82.05.84-2.07 0 0-.2-2.07-8.89-6.37 0 0-17.86-9.43-32.08-12.99 0 0-5.7-2.32-17.56-2.72z"/><path fill="#d3d7d1" d="m485.88 220.93-3.93 3.52s-.78.48 1.3.44c0 0 24.93-3.19 28.56-2.19 0 .01-25.3-1.21-25.93-1.77"/><path fill="#a3a8a8" d="m591.85 222.79 4.25 4.4s1.38.69-1.58.3c0 0-25.34-4-50.08-3.7 0 0 10.67-.64 31.81-.35 0 0 15.26-1 15.6-.65"/><path fill="#353738" d="m655.32 236.3-1.33 10.89s-23.12-12.45-44.75-16.74l-5.15-1.67s-2.63-1.19-3.52-4.22c0 0-1.19-2.67-.41-2.7 0 0 14.36-.44 19.6 1.48 0 0 30.77 7.9 35.56 12.96"/><path fill="#f9dd59" d="M456.66 236.27s-.33-3.07 2.89-3.67c0 0 16.63-4.07 60.57-5.41 0 0 40.58.1 59.64 3.36 0 0 24.89 2.96 26.47 2.57 0 0 2.12.07 2.23 1 0 0 9.71 3.11 9.63 4.7l-.41 6.52-9.78-2.59-.3 3.56s-1.48.37-2.44-.78c0 0 .37-7.52-9.85-8.04 0 0-23.63-4.22-52.45-5.26 0 0-26.82-2.52-38.82 0 0 0-28.15 1.78-31.04 2.82 0 0-9.41 1.85-14.52 4.74 0 0-1.95.89-1.83-.37z"/><path fill="#eec42f" d="M622.2 239.27s.07 5.41-.89 8.08c0 0-.48.33 2.22 1.07l14.11 4.41s1.12.78 2.67-.63c0 0 4.03-2.78 6.48-3.07 0 0 .04-.63-1.96-1.26.01-.01-22.44-9.79-22.63-8.6"/><path fill="#d5ad2d" d="m607.91 242.75.56-8.63s8.12 2.55 9.36 4.16c0 0 .28.5.2 1.73l-.33 5.33z"/><path fill="#e0ac26" d="M639.84 211.78s-.52 2.15 1.93 2.22c0 0 12.97 2.74 23.49 10.22 0 0 .89.74.96-3.33v-6.08s.74-2.96-2.44-5.48c0 0-1.85-2.15-15.19-7.93 0 0-1.74-1.22-4.04-1.41 0 0-2.15-1.07-3.22-2.59z"/><path fill="#fcf284" d="M646.14 200.3s13.19 7.74 14.56 9.3c0 0 1.96 1.37 1.93 5.48l.6 7.78 2.03 1.37s.66.16.8-1.19l.16-8.21s.68-2.51-1.21-4.27c0 0-1.87-2.21-6.53-4.5l-7.69-3.67z"/><path d="m644.31 214.65.94-10.52s.99-1.63.89.84l-.35 10.57z" class="st0"/><path fill="#fff189" d="M590.82 102.03s-25.19-3.85-33.98 4.74c0 0-24.4 23.61-30.82 18.57l1.09-4.35s-.69-1.28-2.27.89c-.01.01 7.92-28.17 65.98-19.85"/><path fill="#fde98a" d="M590.82 102.03s-23.96-7.06-47.52 0c0 0-17.71 7.06-24.75 22.1 0 0-5.58 5.73-13.78 35.23 0 0-4.64 23.47-5.24 33.25 0 0 5.43-3.06 7.41-19.46.81-4.36 1.81-8.94 3.03-13.71 1.98-7.7 4.27-14.74 6.65-21.06 0 0 6.83-15.27 8.2-16.5 0 0 5.56-16.98 32.32-20.44.01.01 16.59-2.67 33.68.59"/><path fill="#fbcd0b" d="M496.51 193.12s36.34-2.16 52.71.58c0 0 31.12 4.37 45.19 10.08 0 0 .44 1.11 9.78 5.33h8.45s12.52-.65 24.37 3.15c0 0-2.15-14.78 3.85-15.15 0 0 2.44-3.11 21.12 7.33 0 0 2.82-19.04-6.67-44.38 0 0-10.77-26.23-26.18-34.92 0 0-18.28-14.92-29.34-12.64 0 0-13.34 3.39-22.42 13.55 0 0-11.76 15.3-17.19 36.83 0 0-1.98-9.19 7.71-27.26 0 0 9.09-21.73 27.46-24.89 0 0 5.33-1.78 10.87-.49 0 0-2.77-6.91-15.41-5.04 0 0-12.94 3.26-22.13 16.5l-8.79 14.13s1.09-6.03 6.82-14.82c0 0 11.06-17.19 27.26-17.88 0 0 1.19-.52-3.16-1.09 0 0-14.87-3.37-29.66 1.92 0 0-3.15 1.28-5.46 3.9 0 0-16.02 14.57-21.46 16.37 0 0-5.36 3.22-8.22 1.12l1-4s.38-2.07-2.19.55l-7.42 14.76s-5.23 10.61-5.9 15.46l-6.31 30.14s-1.13 6.32-5.67 10.37z"/><path fill="#c7912c" d="m548.42 193.57 8.31 1.29s2.18-30.35 3.46-31.98c0 0-1.71-8.49 4.56-20.83 0 0 7.99-21.27 21.83-28.19 0 0 8.85-5.39 19.64-3.63 0 0-2.54-8.13-18.66-3.89 0 0-13.12 5.13-21.21 19.09l-6.54 10.78.46-1.93s-6.83 16.3-8.32 29.05z"/><path fill="#d89f28" d="M575.5 132.46s11.26-13.24 17.19-14.52c0 0 4.54-1.09 8.89 2.47 0 0 12.15 8 20.74 24.3 0 0 6.72 15.02 2.57 25.88 0 0-7.71 16.5-12.55 16.6 0 0 4.05 3.26 3.75 10.22l.3 9.63s-.96 1.78 1.69 1.48c0 0 9.15.62 18.93 3.74 0 0-.97-11.11 1.55-13.98 0 0 2.54-3.85 7.57-1.03l8.59 3.04s1.11-18.97-2.59-31.04c0 0-1.93-11.78-14.82-29.41 0 0-10.37-11.78-21.71-19.11 0 0-10.54-7.9-14.23-8.43.01 0-19.96 5.44-25.87 20.16"/><path fill="#fee85a" d="M583.68 198.82s-.89 1.78.67 2.37c0 0 2.37.89 2.82-.52l3.66-13.04-2.4-.96s.96-1.48 3.26-1.11l-4.13-1.41s-.91.44-.91 1.78z"/><path fill="#d0a031" d="m587.16 200.67 14 3.63s4.15 1.63 6.15-2.22l3.33-8.22s-1.11-1.65-2.3-1.23l-17.53-4.99-2.4-.96s1.42-1.31 2.97-1.21c0 0 20.51 4.69 20.96 6.1l.3 17.56h-8.45s-7.95-4.05-9.27-4.85c0 0-1.22-1.21-2.24-1.14l-6.26-1.99z"/><path fill="#f0ede7" d="M634.95 268.75s10.82-25.56 24.67-10.15c0 0-12.15-9.11-24.67 10.15"/><path fill="#adaba4" d="M634.95 268.38s-2.37 7.56.52 20c0 0 2.07 8.37 5.41 8.96h7.71s5.33-.44 9.56-8.52c0 0 4.07-5.78 4.37-20.82 0 0-.98-8.36-2.89-9.41-.01.01-12.16-9.17-24.68 9.79"/><path d="M643.69 289.05s-3.41 3.63.89 2.07c0 0 4.89-1.41 6.74-9.41 0 0 .79-7.11-3.05-8.52l-4.43-.3s2.07-5.04 6.82-7.48c0 0 4.3-3.48 6.45 4.45 0 0 2.37 6.15.52 15.19 0 0 3.7-10.89-1.11-18.97 0 0-3.33-6.15-6.89-4.45 0 0-5.41.89-9.11 10.74 0 0-2.15 4.52-1.56 8.67 0 0 3.78-5.17 5.63-4.62 0 0 4.59-.64 3.26 4.25-.01.01-.23 2.9-4.16 8.38"/><path d="M485.22 289.72s-37.04 25.19-6.67 80.16c0 0-22.37-20.3-13.48-57.2 0 0 2.22-12.94 15.56-23.46z" class="st75"/><path fill="#81837e" d="M472.24 361.99s16.68 33.68 57.13 35.01c0 0 26.97 4.55 53.2-17.51 0 0 22.67-17.32 26.82-38.8 0 0 6.08-24.3-3.56-36.6 0 0-9.78-12.56-13.48-12.58 0 0 15.41 7.05 11.11 38.04 0 0-6.22 31.51-38.08 47.48 0 0-38.23 19.82-69.49 1.74 0 0-18.99-9.11-23.65-19.93l6.31 11.04z"/><path fill="#48463e" d="M466.55 282.83s-.44 1.19 9.85 4.52c0 0-12.3 11.04-15.26 23.49 0 0-4.67 12.15-1.85 29.04 0 0 2.71 5.7 3.69 13.48 0 0 3.47 9.06 5.45 11.53l.84 15.51-.84-3.65s-10.96-17.98-12.94-30.92c0 0-3.36-17.88 0-30.03 0 0 6.03-20.05 12.55-27.86-.01 0 3.15-1.92-1.49-5.11"/><path fill="#919086" d="M466.55 282.83s2.5 1.75 2.51 3.61l-2.02 2.78s-7.67 11.83-10.19 22.35c0 0-4.61 8.91-2.49 25.49 0 0 .39 12.61 5.95 23.9l8.75 17.66.21 1.78s-8.49-12.59-12.01-23.04c0 0-4.41-11.34-4.86-19.86 0 0-.81-7.93 0-17.41l2.82-11.11s-3.7 2.82-4.89 7.33c0 0-1.04-1.26.89-7.41-.01.01 7.55-17.62 15.33-26.07"/><path fill="#adada6" d="M485.22 289.72s6.52.18 6.96 1.8c0 0 1.7 4.13 7.26 8.06 0 0 3.48-1.93 2.67-5.7 0 0 5.78 5.11 10.67 5.7s18.37-2.74 19.71-3.7c0 0 4.67-1.04 5.26 2.15 0 0-.67 3.85 4.52.96 0 0 9.34-6.93 9.48-7.47 0 0 15.11.83 26.75 0 0 0 11.34-2.17 14-.76 0 0 9.91 4.7 14.81 15.5 0 0-10.95-15.1-14.95-14.75 0 0 11.73 6.11 11.87 27.05 0 0 1.52 15.51-10.48 33.09 0 0-16.16 27.58-49.08 32.54 0 0-29.19 8.99-57.28-10.29 0 0-14.53-6.94-17.63-24.45 0 0-6.77-19.12.5-39.65-.02.01 5.62-14.45 14.96-20.08"/><path d="M496.7 345.36s5.48 7.19 22.52 7.93c0 0 11.19.67 20.6-3.11l6.3-2.82s-24.52 5.93-49.05-2.52c0 0-.94-.1-.37.52" class="st0"/><path fill="#606161" d="M498.26 349.09s8.84 9.14 29.34 7.31c0 0 11.48-2.38 14.16-5.33 0 0-9.62 2.31-11.5 1.8l-2.17.09s-15 2.5-27.58-4.51c0-.01-3.98-1.39-2.25.64" opacity=".35"/><path d="M473.56 318.57s-3.95-.3-3.46.59c0 0 1.09 5.14 23.31 13.93 0 0 18.87 5.43 42.77 3.26 0 0 19.66-2.07 25.68-6.12 0 0 10.57-4.25 15.61-8.3 0 0 6.22-5.04 7.41-6.91l3.46-3.56s0-2.96 1.38-.99c0 0 3.16 2.37 4.35 8 0 0 1.98.89 1.38-2.96 0 0-.89-8.89-7.01-11.16 0 0-10.17-3.26-14.13 1.48l10.27 1.98s2.86-.49 0 1.58c0 0-6.62 10.96-34.67 18.87 0 0-23.91 5.29-48.9 1.31.01-.01-17.87-3.1-27.45-11" class="st0"/><path d="M500.08 299.13s-10.27-11.78-2.41-20.08c0 0 5.04-4.3 11.85-.52 0 0 5.26 4.96 13.34.96 0 0 11.48-6.67 16.45-3.41 0 0 6.37 1.78 8.08 7.56 0 0-2.67-8.82-14-5.56 0 0-12.74 5.85-14.37 7.41 0 0-2.82 2.59-6.82-1.7 0 0-6.82-6.89-12.15-3.56 0 0-5.41 2.67-2.22 13.78-.02.01.66 2.46 2.25 5.12" class="st75"/><path fill="#92948e" d="M500.08 299.13s-6.53-12.28-.77-18.37c0 0 3.25-4.28 11.55 1.86 0 0 4.07 5.91 8.15 2.88l12.27-6.43s4.82-3.31 11.5-.66c0 0 3.94 1.68 4.61 5.24 0 0 3.41 3.11-2.89 11.93 0 0-4.45 5.37-6.77 2.82 0 0 .1-3.7-5.23-2.52 0 0-10.07 3.87-17.41 3.75 0 0-5.55.24-10.08-3.53l-2.89-2.22c-.01-.01.96 3.18-2.04 5.25"/><path d="M501.33 291.52s-.52 2.32-1.59-.61c0 0-2.22-7.11 1.78-8.08 0 0 3.74-1.37 8.89 6.45 0 0 1.52 1.26 1.82 5.3 0 0-.63 1.07-2.93-1.11 0 0-5.48-6.33-7.22-4.37 0 0-.63.59-.7 2.26zm23-2.58s8.11-8.71 13.26-5.82c0 0 3.74 2.3 2.7 6.11 0 0-1 2.41-3.45 4.56 0 0 1.59-4.56-1.33-4.07-.22.04-12.22 5.93-13.34 4.63.02 0-1.61-.52 2.16-5.41" class="st0"/><path fill="#040303" d="M543.3 298.95s6.59-3.74 7.56-5.89c0 0-1.85 5.22-7.56 5.89" opacity=".61"/><path fill="#959c9e" d="M607.61 246.31s8.82 3.19 10.08 2.59c0 0-.96 16.82-3.48 22.89 0 0-.96 3.26-5.41 5.78 0 0-9.63 6.3-11.04 6 0 0 8.09-4.73 9.04-21.78z"/><path fill="#363834" d="M621.61 252.08s10.15 3.63 13.34 3.7c0 0-5.7 9.48-6.67 13.34 0 0-10.08 4.3-9.85 4 .22-.29 3.4-18.96 3.18-21.04"/><path fill="#4f5049" d="M618.43 273.13s-1.56 4.22-1.33 7.48c0 0 .82 6.3 5.56 19.04 0 0 6.22 11.63 5.93 21.93 0 0-3.56-7.26-3.7-7.78-.15-.52 3.26 11.93-4.07 29.34 0 0 2.52-11.11-2.82-21.34l-.91-1.75s-3.02-15.37-6.72-18.63c0 0-3.7-5.56-11.78-12 0 0-.37-1.11 1.41-1.7 0 0 11.56-4.59 15.85-9.19 0 0 1.46-1.65 1.56-2.3z"/><path fill="#353633" d="m618.43 273.13 9.85-4s2.94-.64 2.44 2.52l.06 20.45s11.21 16.4 12.09 24.4c0 0-.89 1.88.59 6.62 0 0 2.47 8 0 16.4l-4.05-9.88s-.1 15.81-7.51 31.22c0 0-4.74 8.99-7.8 11.26 0 0-14.92 16-17.78 16.2 0 0-1.28-.3 0-2.47 0 0 4.54-7.41 5.93-13.14 0 0-9.04 11.66-11.24 12.55 0 0-30.23 23.39-57.71 26.5 0 0-22.37 5.11-44.38-7.33 0 0-23.39-18.08-27.63-26.87l-2.35-3.13-.52-9.51s15.31 26.03 46.28 34.03c0 0 24.75 8.15 61.79-9.34 0 0 31.27-19.09 38.08-48.66 0 0 2.86-19.16 2.5-20.87 0 0 6.54 10.86 3.73 23.08 0 0 6.32-14.92 4.54-28.27l3.24 6.71s.22-10.22-5.93-21.93c0 0-6.75-18.11-5.26-23.41z"/><path fill="#3c3b36" d="M642.88 304.09s7.19 15.48 7.41 17.41c0 0 2.44 12.45-2.74 26.6 0 0 10.15-11.56 10.89-20.89 0 0 1.26-3.11-4.59-22.82z"/><path fill="#323432" d="M479.59 397.39s23.26 18.73 37.78 46.73c0 0 1.78 3.56 7.85-4.45 0 0 13.71-18.7 44.75-29.02 0 0-41.29 20.59-74.83-3.13 0 0-16.44-13.3-15.55-10.13"/><path d="M488.25 256.9s4.74-15.71 16.23-11.34c0 0 6.67 1.7 6.3 11.78 0 0-2.89-6.74-8.67-5.26 0 0-2.82 0-1.85 1.7 0 0 4.45 3.78 1.78 5.04 0 0-1.56 2.3-3.85-.37 0 0-1.19-2-1.56-.07 0 0-2.3 6.63.74 10.69 0 0 1.56 2.42 7.26 3.61 0 0 2.15.59 2.44.59.3 0-7.77-1.41-12.37 2.89 0 0-7.19-3.04-7.19-12.97z" class="st75"/><path fill="#606561" d="M485.62 259.2c.1 3 1.1 5.36 1.89 6.82 0 0-.61-15.69 8.59-20.03 0 0 6.3-3.36 11.71 1.74 0 0 3.41 4.06 2.97 9.62 0 0-2.81-7.63-10.44-4.78 0 0-.87 1 1.52 2.89 0 0 2.17 2.48.18 3.37 0 0-1.41 2.05-2.91.49 0 0-2-2.57-2.34-1.46 0 0-2.6 6.41.58 11.21 0 0 .76 2.61 8.3 3.89 0 0 5.33-5.71 7.62-14.03 0 0 1.78-5.44-3.78-13.36 0 0-7.11-8.15-17.04-1.63-.54.55-1.25 1.32-2 2.3-.78 1.01-2.34 3.06-3.48 6.08-.63 1.65-1.47 3.87-1.37 6.88"/><path fill="#9ca09c" d="m477.81 275.19-1.41-20.64s5.36-14.32 8.82-16.3l2.77-1.48 22.81-1.58s12.11 15.71 36.58.49l44.13 4.04s.89 2.56 2.47 1.68c0 0-8.69 6.46-10.57 11.63 0 0-5.43-14.88-20.65-12.32 0 0-9.38 3.36-11.9 15.02 0 0-1.23 7.21-.64 11.06 0 0-2.67-3.76-13.53-6.32 0 0-5.53-13.53-18.47-6.52l-5.08 5.55s2.55-12.46-8.53-17.25c0 0-5.55-3.27-13.35 2.54 0 0-6.61 8.17-5.63 15.68 0 0 1.22 4.93 2.19 6.02 0 0 .79 5.72 4.53 8.1-.01.01-10.69-.59-14.54.6"/><path d="M553.18 255.19s5.26-14.57 17.25-10.66c0 0 8.43.64 11.5 13.29 0 0 2.67 9.48-3.06 16.2 0 0-3.46 1.58-2.96 0 0 0 4.54-10.08 2.57-15.31 0 0-3.75-9.15-12.35-5.66 0 0 .3 2.1 3.36 3.34 0 0 3.56 3.58-2.27 4.83 0 0-1.88 1.64-3.36-1.42 0 0-.89-3.67-2.07-.5 0 0-3.06 13.36 7.51 15.43 0 0 1.92 2.76-1.42 1.71-.46-.14-5.99 1.73-6.09 2.62 0 0-7.73-.95-9.38-11.76-.02 0-.51-8.01.77-12.11" class="st75"/><path fill="#7a7e7d" d="M569.28 274.72s9.24-12.7 9.19-16.01c0 0-5.09-9.89-12.35-5.66 0 0 .35 2.15 3.36 3.34 0 0 1.93 1.86.75 3.3 0 0-.98 1.33-3.02 1.53 0 0-1.23 1.07-2.59-.25l-1.34-2.58s-.65-1.08-1.32.49c0 0-1.36 6.1.37 10.21-.01-.02.97 4.4 6.95 5.63"/><path fill="#c3c4bf" d="M569.28 274.72s9.16-12.91 9.19-16.01c0 0 1.6 3.58-1.28 11.99l-1.29 3.33s-.2 1.08 1.23.61c0 0 5.4-2.16 7.55-.39 0 0 2.04 2.19-5.04 2.67 0 0-7.22-.52-10.93.74 0 0-4.33.67-5.85 1.41 0 0-1.35.37-1.09 0 0 0 3.72-2.58 6.09-2.62 0 0 2.37.59 1.96-.45.01-.02-.12-.91-.54-1.28"/><path fill="#616262" d="m581.46 256.12 1.94-3.08s-5.24-14.88-20.65-12.32c0 0-7.31 2.13-10.77 11.26 0 0-2.22 5.43-1.78 14.82l2.81 3.35s-1.76-9.98.58-15.97c0 0 4.62-11.4 14.25-10.23.01 0 8.81-.88 13.62 12.17"/><path fill="#8c8c88" d="M578.86 274.01s4.05-1.78 6.87-7.36c0 0-1.28-11.59-3.95-11.03l-.31.5s1.62 4.46.97 9.15c-.01 0-.91 5.96-3.58 8.74"/><path fill="#ced0cb" d="m581.78 255.62 1.63-2.8s.59-3.09 10.57-11.42c0 0 6-.29 6.3 1.12l-.38 5.26-14.53 19.54c0 .01.8-8.23-3.59-11.7"/><path fill="#9fa49f" d="M582.8 270.93s1.35 1.85-.26 2.61c0 0 2.51.56 2.41 1.17 0 0 10.88-4.28 11.92-3.79l.35-19.53z"/><path fill="#c2c3c0" d="m597.21 251.4 3.06-4.21s.68 19.04-1.74 28.3c0 0-1.82 6.45-9.82 6.45 0 0-34.15 2.74-34.55 4.03l-1.87 1.19s-2.08-10.66-8.99-12.45l-5.04-2.18s6.57.99 9.78-3.06c0 0 1.53-2.55-6.62-6.41l-5.04-2.18s3.29.24 5.62 1.15c0 0 6.04 1.71 8.21 4.77l2.81 3.35s1.34 7.08 8.75 8.9c0 0 0 .32 1.35-.11 0 0 11.15-2.95 14.02-2.13 0 0 5.39.65 7.2-.95l.61-1.14s11.32-4.2 11.92-3.79z"/><path fill="#2c2a28" d="M598.16 275.19s-4.65 5.06-4.86 5.89c0 0 3.01.62 4.86-5.89"/><path fill="#dcdcc8" d="m505.67 272.96 5.12.68s.58.22 1.43-1.63c0 0 3.82-11.78 5.22-12.59 0 0 2.52-6.96 11.04-3.33 0 0 3.26 2.18 7.04 11.09 0 0 1.47 3.97 3.11 5.51 0 0 6.6.31 9.41-3.22 0 0 1.93-2.71-8.31-7.14-.33-.14-3.7-1.85-3.7-1.85s2.7.52 2.14.37c-.56-.14-1.5-.37-1.5-.37s-3.49-8.03-10.64-8.51c0 0-5.17-.25-7.83 1.99l-5.05 5.39c.01 0-1.3 6.73-7.48 13.61"/><path fill="#989992" d="m515.93 273.42 4.45-10.22s2.41-5.93 5.85-3.59c0 0 .78-1.15 5.85 8.63 0 0-12.41 2.44-14.34 4.48 0 0 14.45-3.22 14.93-2.78 0 0 1.26 1.96-.7 2.37 0 0-4.67 1.91-5.48 2.88 0 0-4.2 2.39-6.04 3.08-.3.11-5.89.59-6.71-.52 0 0-.26-.78 1.07-1.96 0 0 .93-1.07 1.12-2.37"/><path fill="#bebeb4" d="M510.79 235.19s21.1-2.27 36.58.49c0 0-15.91 11.78-30.85 4.01.01.01-4.97-2.72-5.73-4.5"/><path fill="#b2b3ae" d="M477.81 275.19s1.74 4.19 3.41 6.45c0 0 8.3 3.11 9.34 2.52 0 0 .79-5.22 4.15-7.82 3.37-2.59 0-.19 0-.19l-2.37-1.56c0 .01-12.09-.56-14.53.6"/><path d="m476.4 254.55-1.41 2.33 2.74 17.13z" class="st75"/><path fill="#5f625e" d="M474.99 256.88s-4.25 8.69-5.43 9.68c0 0-2.91 3.41-3.46 5.24 0 0-.63 2.12.77 3.16l13.45 6.17s.79.48.28-.38c0 0-2.77-5.21-2.8-5.55l-.43-3.35z"/><path fill="#d8ded5" d="M472.16 277.38s2.7-4.06 2.83-6.82c0 0-.62 6.37 0 8.22z"/><path d="M490.85 282.83v2.63s.37.93-2.08.49c0 0-19.72-4.15-21.9-6.59 0 0-2.85-.59-4.55-6.97 0 0-3.26-11.78-3.26-22.08v-6.89s-.37-2.02 2.37-2.01l7.83-2.51 18.72-2.12s-4.91-1.09-11.58 17.78l-4.16 7.69s-2.87 4.48-3.52 5.34c0 0-3.85 3.89-2.57 6.42 0 0 .54 1.28 2.27 1.66l12.09 5.55 6.49 2.37 2.95.65c.01 0 .94.52.9-1.41" class="st75"/><path fill="#c6cfcd" d="m468.97 240.03-5.43 1.37s-2.86 11.57 1.48 29.89c0 0-1.73-18.92 2.47-22.42 0 0 1.88.14 1.48 15.41 0 0 .45 1.52-.25 3.31l6.67-11.65s-3.32-6.52-1.81-14.08c0 0 .91-3.14 2.35-3.72h-1.38s-5.83 9.55-5.53 11.87c0 0-2.41-5.35-.05-9.98"/><path d="m469.26 238.9 5.29-.6s-5.29 7.69-5.61 12.38c0 0-2.32-5.19.02-10.64z" class="st60"/><path fill="#777a75" d="M638.95 281.05s-1.47 4.23-2.16 11.29c0 0 .7 3.5 3.66 5.01 0 0 5.78.77 9.73-5.41 0 0 6.53-5.47 5.84-15.32 0-.07-.01-.13-.01-.2-.79-9.97 2.07 5.75 1.65 8.39-.42 2.63-.05.24-.05.24s2.23-13.65-2.08-18.79c0 0-1.69-3.16-4.88-.84 0 0-4.96 2.74-6.82 7.48 0 0 4.54-.16 5.44.87 0 0 3.23 2.39 1.52 9.81 0 0-.54 3.93-5.74 7.35 0 0-4.18 1.88-2.34-.63 0 0 5.02-6.48 5.21-9.98 0 0 1.47-3.95-3.35-3.9.01.01-1.69-.6-5.62 4.63"/><path d="M245.69 399.38s-1.06-6.65 7.28-10.53c0 0 9.36-2.92 29.24 1.9 0 0-.3-.48-.59 1.7l-4.63 9.81c-.01 0-30.77-2.87-31.3-2.88" class="st97"/><path d="M275.58 402.04s4.71-11.08 5.89-10.67c0 0 1.32.49-4.3 10.67 0 0-.04.6-1.59 0" class="st0"/><path d="M521.35 462.86s-2.05 2.35-.72 5.04c0 0 1.26 2.82 5.7 1.46 0 0 3.73-2.77 1.43-5.38.01 0-2.73-4.13-6.41-1.12" class="st18"/><path d="M792.09 504.58s6.08 9.93 6.52 12c0 0 1.33 1.78-4.59 1.48 0 0-40.01 5.63-60.01 20.45 0 0-8-1.63-9.78-7.41 0 0-.82-2 1.19-2.52-.01 0 29.84-20.04 66.67-24" class="st52"/><path fill="#14100a" d="M581.94 200.26s1.18-15.24 5.1-16.65c0 0 16.42.39 26.26 3.91 0 0 2.52 2.66 2.81 7.66l.59 13.76-3.7.63-.07-17.51s0-.86-2.96-1.88l-20.31-5.86s-3.11-1.45-2.85.7l-3.33 16.02z"/></svg>