<?xml version="1.0" encoding="utf-8"?>
<!-- Generator: Adobe Illustrator 24.0.2, SVG Export Plug-In . SVG Version: 6.00 Build 0)  -->
<svg version="1.1" id="Layer_1" xmlns="http://www.w3.org/2000/svg" xmlns:xlink="http://www.w3.org/1999/xlink" x="0px" y="0px"
	 viewBox="0 0 1080 1080" style="enable-background:new 0 0 1080 1080;" xml:space="preserve">
<style type="text/css">
	.st0{fill:#010101;}
	.st1{fill:#535453;}
	.st2{fill:none;}
	.st3{fill:#FED01E;}
	.st4{fill:#4B5050;}
	.st5{fill:#040202;}
	.st6{fill:#070508;}
	.st7{fill:#FED123;}
	.st8{fill:#D59B29;}
	.st9{fill:#CB952B;}
	.st10{fill:#F6F2C6;}
	.st11{fill:#040305;}
	.st12{fill:#040306;}
	.st13{fill:#050404;}
	.st14{fill:#070507;}
	.st15{fill:#969793;}
	.st16{fill:#949392;}
	.st17{fill:#888886;}
	.st18{fill:#B0B0AE;}
	.st19{fill:#555759;}
	.st20{fill:#90908E;}
	.st21{fill:#929292;}
	.st22{fill:#373732;}
	.st23{fill:#4F514F;}
	.st24{fill:#DA9A28;}
	.st25{fill:#D49829;}
	.st26{fill:#FCCD0A;}
	.st27{fill:#FDCE07;}
	.st28{fill:#C99D2C;}
	.st29{fill:#F9F181;}
	.st30{fill:#110809;}
	.st31{fill:#0B070A;}
	.st32{fill:#DEA126;}
	.st33{fill:#FDD110;}
	.st34{fill:#FEEC5F;}
	.st35{fill:#FDDC1F;}
	.st36{fill:#040407;}
	.st37{fill:#FEEC6F;}
	.st38{fill:#D99B28;}
	.st39{fill:#0B0506;}
	.st40{fill:#B9922E;}
	.st41{fill:#FED206;}
	.st42{fill:#D89F29;}
	.st43{fill:#F8DF44;}
	.st44{fill:#E1A725;}
	.st45{fill:#FAF39B;}
	.st46{fill:#050407;}
	.st47{fill:#E4B13A;}
	.st48{fill:#F6CA12;}
	.st49{fill:none;stroke:#000000;stroke-width:2;stroke-miterlimit:10;}
	.st50{fill:#020202;}
	.st51{fill:#B1B1AB;}
	.st52{fill:#050303;}
	.st53{fill:#444540;}
	.st54{fill:#323534;}
	.st55{fill:#FBDA58;}
	.st56{fill:#EFC426;}
	.st57{fill:#070609;}
	.st58{fill:#0B0706;}
	.st59{fill:#0B070C;}
	.st60{fill:#0D0708;}
	.st61{fill:#050305;}
	.st62{fill:#140D0C;}
	.st63{fill:#0C0706;}
	.st64{fill:#13090A;}
	.st65{fill:#19130E;}
	.st66{fill:#B5B5B9;}
	.st67{fill:#040504;}
	.st68{fill:#0F0708;}
	.st69{fill:#F9CC28;}
	.st70{fill:#EDBE30;}
	.st71{fill:#F5C614;}
	.st72{fill:#F9CC0E;}
	.st73{fill:#FCCE12;}
	.st74{fill:#FCD729;}
	.st75{fill:#070808;}
	.st76{fill:#F9EE4D;}
	.st77{fill:#FBEF54;}
	.st78{fill:#FAF074;}
	.st79{fill:#D99D28;}
	.st80{fill:#D0982A;}
	.st81{fill:#DAA228;}
	.st82{fill:#D29629;}
	.st83{fill:#B7842C;}
	.st84{fill:#B3832C;}
	.st85{fill:#100A09;}
	.st86{fill:#1D0E0B;}
	.st87{fill:#D69629;}
	.st88{fill:#D19532;}
	.st89{fill:#160D0A;}
	.st90{fill:#DBA027;}
	.st91{fill:#FCEC6B;}
	.st92{fill:#FAEE8D;}
	.st93{fill:#D2A12A;}
	.st94{fill:#E0AE25;}
	.st95{fill:#D89528;}
	.st96{fill:#43423D;}
	.st97{fill:#FEE589;}
	.st98{fill:#FBDE7D;}
	.st99{fill:#A1A5A4;}
	.st100{fill:#C9932C;}
	.st101{fill:#070705;}
	.st102{fill:#50534C;}
	.st103{fill:#2F3130;}
	.st104{fill:#4E544F;}
	.st105{fill:#292B28;}
	.st106{fill:#4F524B;}
	.st107{fill:#91928C;}
	.st108{fill:#E4CA5B;}
	.st109{fill:#FCE273;}
	.st110{fill:#E49E25;}
	.st111{fill:#FDDF37;}
	.st112{fill:#4E504C;}
	.st113{fill:#FAF394;}
	.st114{fill:#FDD70A;}
	.st115{fill:#F6BD37;}
	.st116{fill:#FAF179;}
	.st117{fill:#FDCD09;}
	.st118{fill:#C28F2C;}
	.st119{fill:#FDE961;}
	.st120{fill:#0F0B10;}
	.st121{fill:#0E070D;}
	.st122{fill:#070605;}
	.st123{fill:#080806;}
	.st124{fill:#0D0607;}
	.st125{fill:#060407;}
	.st126{fill:#020203;}
	.st127{fill:#060404;}
	.st128{fill:#030605;}
	.st129{fill:#070807;}
	.st130{fill:#020305;}
	.st131{fill:#393B38;}
	.st132{fill:#060706;}
	.st133{fill:#040303;}
	.st134{fill:#FFFFFF;}
	.st135{fill:#B9BAB9;}
	.st136{fill:#373832;}
	.st137{fill:#FFFEFE;}
	.st138{fill:#8A724E;}
	.st139{fill:#302A1C;}
	.st140{fill:#060304;}
	.st141{fill:#0A0505;}
	.st142{fill:#81563A;}
	.st143{fill:#C4B39F;}
	.st144{fill:#2D2E32;}
	.st145{fill:#43433E;}
	.st146{fill:#545752;}
	.st147{fill:#9B9B96;}
	.st148{fill:#4F5251;}
	.st149{fill:#3B3738;}
	.st150{fill:#040406;}
	.st151{fill:#FFFFFC;}
	.st152{fill:#FFFEF9;}
	.st153{fill:#858780;}
	.st154{fill:#CFCFCA;}
	.st155{fill:#ACACA6;}
	.st156{fill:#ADAEA8;}
	.st157{fill:#1A1B19;}
	.st158{fill:#E5E4DB;}
	.st159{fill:#94948F;}
	.st160{fill:#A7A6A2;}
	.st161{fill:#8C8B89;}
	.st162{fill:#B9B8B0;}
	.st163{fill:#848681;}
	.st164{fill:#EDC767;}
	.st165{fill:#090607;}
	.st166{fill:#583712;}
	.st167{fill:#F9EF6B;}
	.st168{fill:#908E89;}
	.st169{fill:#050505;}
	.st170{fill:#353535;}
	.st171{fill:#030203;}
	.st172{fill:#0E0D0C;}
	.st173{fill:#A3A2A0;}
	.st174{fill:#37261E;}
	.st175{fill:#F7D624;}
	.st176{fill:#050605;}
	.st177{fill:#3D3F38;}
	.st178{fill:#D3D3D5;}
</style>
<path class="st0" d="M625.8,193.42l18.14,16.75c0,0,0.59,10.1-1.95,24.42l-5.94,6.9l-3.01,5.27l-13.25,4.39l-11.81-6.01
	C607.99,245.13,589.91,201.92,625.8,193.42z"/>
<path class="st1" d="M312.87,437.47c0,0-2.61,6.97,5.39,16.14c0,0-24.94,0.31-27.25,7.77c0,0,5.5-5.46,16.82-4.4
	c0,0-18.46,7.81-19.94,13.1c0,0,10.34,12.9-10.65,14.36c0,0,31.13-24.75,93.56-23.07c0,0-14.92,5.87-16.78,8.12
	c0,0,15.61-5.13,46.15-8.66c0,0,39.55-6.97,43.87-8.52c0,0,31.24-7.5,53.39-7.64c0,0-6.44,0.24-7.61,5.12c0,0,6.63-2.73,26.05,7.76
	c0,0-14.54,10.49-15.8,10.73c0,0,11.32,3.76,10.97,10.05c0,0-11.17,3.66-13.75,8.44c0,0-0.29-4.39-12.39-1.37
	c0,0,5.52-0.48,7.18,0.99c0,0-48.83,17.64-74.88,36.08c0,0-42.93,34.11-82.82,37.46c0,0,29.43-16.08,40.68-26.05
	c0,0-38.59,22.62-87.85,22.33c0,0,18.78,5.29,29.76,2.84c0,0-64.07,27.66-69.93-22.68c0,0-7.08-57.46,39.5-95.7
	C286.52,440.66,302.71,436.6,312.87,437.47z"/>
<path class="st2" d="M636.06,186.04l3.7,4.29c0,0,0.59-33.95,0-36.78c0,0-0.29-21.17-14.15-37.36c0,0-6.15-8.78-16.19-15.12
	c0,0,16.1,18.93,15.9,20.39c0,0,8.95,13.75,9.21,24.24C634.53,145.7,636.36,155.7,636.06,186.04z"/>
<path class="st3" d="M472.83,148.04l-12.29,5.37c0,0,2.28-37.54,20.29-51.8c0,0,16.72-18.18,38.57-21.69c0,0,19.47-3.77,42.88,1.01
	c0,0,13.85,3.61,24.19,8.49c0,0,8.19,5.37,13.75,23.22c0,0,5.07,28.1-2.24,46.63c0,0-23.18-9.5-45.17-13.36
	c-1.32-0.17,2.2-21.67-7.72-35.48c0,0-8.87-13.3-27.11-12.91c0,0-16.97-1.07-23.8,5.27c0,0-9.4,5.63-16.03,19.19
	C478.16,121.96,471.27,139.65,472.83,148.04z"/>
<path class="st4" d="M478.08,126.67c1.81-3.32,4.56-7.47,8.69-11.5c8.23-8.05,17.37-11.19,22.29-12.48c0,0,9.79-1.66,19.01,0.69
	c2.44,0.99,5.49,2.59,8.46,5.23c8.05,7.14,9.68,16.71,10.08,19.95c-1.68-0.68-3.46-1.33-5.33-1.93c-5.64-1.83-10.91-2.86-15.58-3.43
	c-3.12-0.37-6.46-0.66-10.01-0.82c-4.45-0.2-8.61-0.16-12.43,0.03c-7.42,1.1-14.92,2.35-22.51,3.77
	C479.86,126.33,478.97,126.5,478.08,126.67z"/>
<path class="st5" d="M475.95,129.94c0,0,13.99-30.21,46.54-25.97c0,0,16.82,0.14,24.13,24.58l5.78,3.88c0,0,1.2-25.59-25.12-34.16
	c0,0-14.78-3.1-27.94,1.19C499.35,99.46,479.38,107.29,475.95,129.94z"/>
<path class="st6" d="M483.61,125.63c0,0,32.97-9.17,63.07,2.93l5.78,3.88l0.01,16.85h-3.93l0.29-13.49c0,0,1.37-2.34-12.05-6.44
	c0,0-35.99-3.01-43.12-0.8c0,0-14.85,1.1-16.46,7.98l-0.45,9.83l-3.92,1.39c0,0-1.02-11.44,3.17-20.68L483.61,125.63z"/>
<path class="st7" d="M476.74,146.36c0,0,37.44-6.75,71.8,2.09l0.18-13.62c0,0-4.23-4.34-13.48-5.74
	c-9.25-1.41-41.01-2.14-44.51-0.17c0,0-15.18-0.36-13.95,12.37C476.79,141.29,476.01,145.19,476.74,146.36z"/>
<path class="st8" d="M552.44,145.43l-1.35,4.35c0,0,18.93,4.49,37.95,14.63c0,0,19.75,10,25.6,15.07c0,0,12,10.68,21.18,18.21
	l0.58-8.25c0,0-17.37-16.57-20.88-17.85c0,0,3.91-45.34-3.99-57.04c0,0-11.13-21.63-25.05-25.14c0,0,13.5,14.04,15.11,37.8
	c0,0,1,23.71-4.07,31.63c0,0-34.98-12.41-40.04-11.99L552.44,145.43z"/>
<path class="st9" d="M603.55,97.82c0,0,16.02,21.42,15.07,37.97c0,0-0.38,29.8-0.88,35.05c0,0,16.02,11.97,18,15.68
	c0,0,1.1-33.17-0.76-38.34c0,0-1.1-19.17-9.95-27.12C625.03,121.07,611.08,100.09,603.55,97.82z"/>
<path class="st10" d="M551.51,74.1c0,0,3.07,0.44,16.14,1.85C567.65,75.95,559.61,65.66,551.51,74.1z"/>
<path class="st11" d="M551.51,74.1l-6.05-1.32c0,0,3.22-5.76,9.71-6.68c0,0,5.02-0.68,9.02,0.68c0,0,7.98,3.12,9.93,10.78
	l-6.47-1.61c0,0-1.23-2.72-7.15-4.9C560.5,71.06,555.27,69.47,551.51,74.1z"/>
<path class="st12" d="M460.54,153.11l-6.53,5.22c0,0,2.93-26.58,7.17-35.44c0,0,7.9-19.53,18.22-28.46c0,0,16.61-13.54,29.12-16.68
	c0,0,6.95-3.08,19.97-4.39c0,0,16.11-0.77,16.97-0.58l6.05,1.32l16.14,1.85c0,0,18.44,4.61,21.07,6.37
	c2.63,1.76,14.46,6.44,22.36,12c0,0,20.68,15.58,24.97,26.05c0,0,8.39,14.12,9.05,23.92c0,0,2.29,27.19,0.93,47.29h-6.01
	c0,0,2.19-53.42-5.36-60.46c0,0-11.07-25.3-31.12-33.29c0,0-28.92-15.71-46.3-17.42c0,0-28.68-3.59-41.43,0.9
	c0,0-19.7,4.53-35.56,20.58C480.26,101.88,462.72,120.69,460.54,153.11z"/>
<path class="st13" d="M585.18,445l1.95,7.22c0,0,9.37-4.64,34.14,1.17c0,0,38.83,8.39,65.95,46.44c0,0,32.39,45.46,17.56,62.43
	c0,0-22.63,24.58-39.02,30.83l9.76,12.68c0,0,8.58-17.56,16.19-19.71c0,0,13.46-9.95,16-15.61l6.83-8.39c0,0,6.9-26.67-13-55.94
	c0,0-12.91-31.96-63.35-54.21C638.18,451.91,610.75,437.78,585.18,445z"/>
<path class="st14" d="M570.09,486.87c0,0,0.68-17.17,17.75-34.63l-1.95-7.22c0,0,14.05-26.92,56.19-36c0,0-53.26,0.29-64.58,37.56
	l-1.37,8.39c0,0-11.51,9.66-13.07,30.92L570.09,486.87z"/>
<path class="st15" d="M598.64,449.89l-10.62,1.84c0,0-16.9,17.29-17.93,35.13l8.96,0.79C579.05,487.65,582.91,467.57,598.64,449.89z
	"/>
<path class="st16" d="M514.1,505.69c0,0,31.41-4.88,33.17-5.46c1.76-0.59,39.41-1.56,43.9,1.95c0,0,20.49,4.68,23.61,7.02
	c3.12,2.34,3.12,2.34,3.12,2.34S570.87,471.75,514.1,505.69z"/>
<path d="M617.89,509.6l-3.12-0.39c0,0-38.63-32.44-95.6-7.44l-8.97-5.05c0,0-7.04-6.94-13.02-9.85c0,0,3.35-5.97,13.75-8.44
	c0,0,0.73-6.34-10.97-10.05c0,0,14.15-9.41,15.8-10.73c0,0-12.48-7.81-26.05-7.76c0,0,1.05-5.52,7.61-5.12c0,0,3.05-3.74,4.68-5.71
	l6.15,4.78c0,0-9.47,2.05-0.29,3.42c0,0,12.88,7.17,16.68,9.22c0,0-7.04,8.3-13.46,11.27c0,0,2.62-0.58,8.49,11.85
	c0,0-8.79,6.76-10.97,6.29l7.61,8.78c0,0,32.73-12.29,46.87-8.78l7.02,0.98C570.09,486.87,599.6,485.75,617.89,509.6z"/>
<path class="st17" d="M511.96,484.03c0,0,16.06-3.54,52.07-5.96l-0.96,7.82c0,0-14.1-3.22-46.87,8.78c0,0-3.19-2.94-7.61-8.78
	L511.96,484.03z"/>
<path class="st18" d="M504.59,444.74c0,0,40.17-3.35,67.3,14.88c0,0-6.79,12.33-7.86,18.45c0,0-36.12,2.35-52.07,5.96l7.61-4.43
	c0,0-4.1-9.66-8.49-11.85c0,0,12.73-9.66,13.46-11.27c0,0-14.02-8.45-19.23-9.71C505.31,446.77,502.05,446.43,504.59,444.74z"/>
<path class="st19" d="M598.64,449.89c0,0,38.46,2.74,50.28,22.1c0,0,16.76,1.81,12.73,16.54l-1.76,18.73l1.59-2.2l6.59-10.31
	c0,0,1.62-6.95,3.08-0.07c0,0,10.1,15.07,8.63,19.17c0,0-1.76,14.34-2.93,18.73l-1.34,6.31c0,0-2.18,5.84-2.62-0.31l-1.38-3.47
	c0,0-1.91-1.44-1.54-2.09c0,0-3.46,8.66-22.63,20.37c0,0-5.18,0.56-10.01,11.53c0,0-1.61,11.54-1.9,0.94l0.91-8.57
	c0,0,4.21-9.03-0.32,1.07c0,0-6.83,11.41-14.29,17.27c0,0-15.8,16.1-42.2,9.48c0,0,14.64-4.36,26.92-13.9c0,0-7.21,5.72-25.65,6.32
	c0,0-15.76,0.7-27.91-2.66c0,0-19.72-2.06-28.1-8.05c0,0,19.32,15.07,29.7,16.24c0,0-37.7-3.61-69.75-19.56l13.76,2.47
	c0,0-20.52-7.85-24-11.69c-3.6-3.97-3.9-6.41,0.88-11.27c0,0,11.56-17.41,17.41-21.07c0,0,12.24-12.58,21.27-16.24
	c0,0,30.1-4.9,32.29-5.26c0,0,17.63-2.47,42.35,0.79l29.16,8.38c0,0-10.29-15.5-39.45-22.13C578.44,487.46,580.42,470,598.64,449.89
	z"/>
<path class="st20" d="M287.28,440.55c0,0-25.67,16.9-36.79,60.87c0,0-3.71,1.05-3.51,52.56c0,0,3.51,20.1,12.68,27.51l-0.39,3.71
	c0,0-25.36-17.56-17.17-62.63c0,0-3.47,3.05-7.41,11.51c0,0-4.88-9.04,6.83-29.66c0,0,2.09-25.07,18.28-46.33
	C259.79,458.08,268.35,444.06,287.28,440.55z"/>
<path class="st21" d="M502,439.07l-4.68,5.71c0,0-33.17,2-57.17,8.63c0,0-35.31,7.68-63.99,10.86c0,0-22.42,5.25-23,5.25
	s16.76-8.51,18.9-8.31c2.15,0.2,2.15,0.2,2.15,0.2c-10.6-0.08-22.73,0.58-35.97,2.65c-25.3,3.96-45.95,11.71-61.14,18.92
	c4.26-4.05,9.44-8.29,15.65-12.22c20.04-12.67,40.19-15.41,52.28-15.94c0,0,51.07-5.84,67.19-2.76c0,0,52.89-7.43,59.82-9.57
	C472.05,442.48,501.1,437.99,502,439.07z"/>
<path class="st2" d="M251.78,520.04c0,0-6.58,18.58,9.22,24C261,544.03,253.39,535.98,251.78,520.04z"/>
<path class="st22" d="M246.91,536.48c1.07-0.27-1.17,46.43,69.93,22.68c0,0-13.29,4.23-29.65-2.95c0,0,44.15-0.87,87.85-22.33
	c0,0-21.42,19.28-40.79,26.16c0,0,22.34-1.32,56.73-20.93c0,0,48-32.78,72.29-41.41l28.24-11.32l-6.62-0.98
	c0,0,21.6-6.77,23.69-11.06h0.93c0,0,1.95,2.54,1.41,4.1c0,0-10.58,3.02-13.75,8.44c0,0,9.46,4.78,13.02,9.85
	c0,0-17.95,0.85-42.83,21.4c0,0-6.2,6.55-33.95,26.84c0,0-55.75,50.63-101.11,51.51c0,0-23.81,3.18-58.2-10.63
	c0,0,5.52-3.27,17.52-4.44c0,0-7.76-2.34-20.19,1.9c0,0-5.3,0.4-6.73-2.19c0,0-4.67-0.55-5.22,0.73
	C259.49,581.83,242.76,570.28,246.91,536.48z"/>
<path class="st23" d="M281.24,584.63c0,0,41.33,18.58,97.49-7.76c0,0,17.09-9.22,36.11-21.22c0,0,8.05-11.54,23.12-13.82
	c0,0-37.51,31.62-56.82,40.36c0,0-38.59,22.48-77.66,13.56c0,0-20.49-2.83-28.97-9.46C274.51,586.29,276.12,585.22,281.24,584.63z"
	/>
<path class="st24" d="M375.45,593.05c0,0,4.95,0.09,47.38-28.57c0,0,14.63,9.79,29.55,21.03l-1.02,20.27c0,0-16.89-7.93-19.9-9.07
	l-50.32,22.89L375.45,593.05z"/>
<path class="st25" d="M456,587.66c0,0,61.91,49.9,129.9,43.46c0,0-5.88,3.85-0.93,5.41c0,0,22.4,1.53,31.84-4.73l-2.06,3.9
	c0,0,3.12,6.07,30.6-13.71c0,0,5.5-8.05,11.63-15.19c0,0,21.77-12.07,12.01-0.95c0,0-13.5,20.68-15.61,27.12
	c0,0-7.72,8.73-3.39,3.46c0,0,8.6-1.05,2.79,12.61c0,0-1.55,8.9-10.52,10.85c-0.25,0.44-7.14,7.98-6.83-1.95
	c0,0-10.54,1.56-12.88,5.46c2.8-0.25,0.39,2.07-1.25,2.54c-0.99,0.28-46.35,12.49-51.04,11.51c0,0,25.53-19.36,26.5-22.29
	c0,0-27.7,19.83-31.22,20.55c0,0-8.78,7.16-14.24-1.04c0,0-17.16,2.08-19.32,2.34l0.73,4.73l-34.57,1.37c0,0,1.06-7.07-10.06-8.44
	c0,0,25.65,6.54,68.41-16.1c0,0-7.43,13.27-0.41,6.05l9.06-9.07c0,0,6.84-2.39-5.48-3.9c0,0-49.53-5.58-72.29-22.32
	c0,0-27.98-17.49-31.4-20.8V587.66z"/>
<path class="st26" d="M456,608.43c0,0,44.32,32.05,82.96,38.78c0,0,13.45,3.88,28.9,4.65c0,0,1.18,0.98-0.61,2.99
	c0,0-19.98,21.23-13.59,8.04c0,0,5.82-6.86-2.7-1.22c-8.53,5.64-42.56,16.77-58.66,13.96c0,0-34.87-0.22-36.48-1.69
	C455.81,673.94,454.68,668.28,456,608.43z"/>
<path class="st27" d="M451.36,605.78l-19.9-9.07l-50.32,22.89c0,0,5.14,23.32,10.76,32.58c0,0,19.62,12.19,22.68,13.32
	c0,0,21.6,8.37,26.78,5.85c0,0,15.8,2.57,17.11,2.42C458.48,673.78,449.07,633.13,451.36,605.78z"/>
<path class="st28" d="M382.1,642.27c0,0,23.94,27.22,59.26,29.09l15.6,2.4c0,0-15.81-2.87-21.37,3.87c0,0-14.72-3.19-20.86-5.68
	c0,0,0.59-3.11-7.61-6.29c0,0-7.54-3.14-10.7,0.34C396.43,665.98,379.03,651.08,382.1,642.27z"/>
<path class="st29" d="M370.05,595.26l5.8-2c0,0,11.04,51.86,16.25,58.52l-10.01-9.52c0,0,0.86,12.83,16.76,25.81
	c0,0-30.98-8.14-21.51-31.94c0,0,0.78,1.16,4.21,3.32c0,0-5.84-20.56-7.02-23.51C374.54,615.95,370.05,597.2,370.05,595.26z"/>
<path class="st30" d="M452.39,585.51l4.54,2.49c0,0-4.15,64.34,3.76,84.97h-4.87C455.81,672.97,447.9,645.6,452.39,585.51z"/>
<path class="st31" d="M420.98,564.44c0,0,61.99,44,73.8,46.92c0,0,32.31,23.95,91.12,19.66l4.63-7.07c0,0-49.95,4.1-91.31-20.1
	c0,0-42.75-24.19-48.2-29.46l-22.81-14.05L420.98,564.44z"/>
<path d="M519.17,501.77c0,0-22.88,1.31-43.66,19.16c0,0-41.65,32.14-47.31,39.41c0,0-25.12,20.39-52.34,32.92l-13.9,5.37
	c0,0-10.39,3.22-22.1,5.41c0,0-16.1,1.46-33.22,0c0,0-26.62-4.54-39.07-13.32l6.29-5.19c0,0,39.4,21.86,91.46,3.43
	c0,0,34.15-16.75,47.12-27.22c0,0,46.55-38.33,58.56-46.54c0,0,23.98-18.86,39.19-18.5L519.17,501.77z"/>
<path class="st5" d="M361.11,598.81c0,0,0.14-3.03,9.17,32.54c0,0-6.39,21.16,2.78,28.55c9.17,7.4,11.25,9.15,22.76,13.93l0.7-7.94
	c0,0-24.44-3.07-19.17-28.44c0,0-0.5-2.69,4.61,3.37c0,0-12.32-41.7-11.68-45.46L361.11,598.81z"/>
<path class="st32" d="M676.27,476.71c0,0-22.51-20.17-25.35-20.8c0,0,22.87,8.19,45.3,33.56c0,0,1.37,5.3,10.54-11.4
	c0,0,18.42,18.66,24.03,52.22l-12.52,15.75c0,0-12.55-37.35-22.47-47.84C695.8,498.21,683.24,480.74,676.27,476.71z"/>
<path class="st33" d="M615.06,428.4l-12.48,15.44c0,0,29.03-2.56,67.39,27.19c0,0-11.12-9.97-18.19-14.79
	c0,0,28.87,15.06,44.19,33.95c0,0,4.54,2.82,10.79-12.12C706.76,478.07,672.61,429.96,615.06,428.4z"/>
<path class="st34" d="M602.58,428.4h5.85h6.63l-12.48,15.44l-16.9,1.3C585.67,445.15,596.52,427.98,602.58,428.4z"/>
<path class="st35" d="M712.8,530.99c0,0,2.72,8.24,1.73,31.07c0,0,11.54-10.16,17.39-19.33l-1.13-12.44l-12.52,15.75L712.8,530.99z"
	/>
<path class="st36" d="M607,416.43l9.79-3.45c0,0,5.32-29.56,28.5-44.29C645.3,368.7,621.58,373.84,607,416.43z"/>
<path class="st37" d="M628.17,408.98c0,0,1.92-22.53,26.5-43.21c0,0-28.56,2.38-37.87,47.22l11.24-2.54L628.17,408.98z"/>
<path class="st37" d="M604.47,425.34h16.63c0,0,3.53-10.53,20.98-16.32C642.09,409.02,612.43,416.03,604.47,425.34z"/>
<path class="st38" d="M712.94,343.85c0,0,23.21,3.78,35.12,20.19c0,0,11.8,9.18,18.05,40.4c0,0,7.34,34.59-7.63,66.66
	c0,0-12.49,28.68-12.69,29.26l0.29-12.78c0,0-8.67,27.55-13.74,35.35c0,0-8.03-29.17-22.47-46.34c0,0,4.68-1.17-1.76-6.83
	c0,0,5.07-8-8-16.19c0,0,14.44,7.02,19.9,0.59c0,0,14.82-17.05,15.4-56.85c0,0-2.15-42.34-39.8-49.17c0,0-15.85-3.66-31.99,3.58
	C663.64,351.72,671.2,334.6,712.94,343.85z"/>
<path class="st39" d="M604.26,425.33c0,0,41.45-5.91,81.83,25.89c0,0,26.63,19.21,41.4,55.36c0,0,6.76,14.17,7.54,31.73l-3.28,4.66
	c0,0,0.53-36.38-31.9-72.65c0,0-17.34-22.41-51.27-35.48c0,0-24.51-9.29-49.07-5.59L604.26,425.33z"/>
<path class="st27" d="M664.3,351.33c0,0,38.66-19.51,63.09,17.37c0,0,19.7,21.57,0.51,73.22c0,0-3.01,24.94-27.19,11.85
	c0,0,12.92,5.64,8,16.19c0,0,6.24,4.68,1.76,6.83c0,0-24.24-37.06-73.97-48.87c0,0-7-1.15-15.39-2.58c0,0,4.89-11.51,20.98-16.32
	l-18.06,3.38l4-1.95c0,0,0.3-21.85,26.63-44.68l-9.37,3.77c0,0-8.56-1.43-25.06,19.84c0,0-10.56,18.66-13.24,27.37
	c0,0,0.4-21.92,13.96-38.14c0,0,28.96-40.07,33.25-46.12l23.58,9.23C677.79,341.71,667.61,347.11,664.3,351.33z"/>
<path class="st40" d="M604.47,400.31c0,0,12.73-20.49,3.56-1.37c0,0-4.51,15.76-4.51,19.08c0,0-23.31,10.38-27.38,36.95
	c0,0-15.71-9.2-32.3-14.08c0,0,33.48,3.5,47.52-21.47C591.37,419.42,601.7,409.48,604.47,400.31z"/>
<path class="st41" d="M506.58,409.87c0,0,13.14-11.5,15.76-9.81c0,0,1.57-4.57,20.14,22.82c0,0,2.96,9.26,13.72,3.32
	c0,0,29.89-22.22,36.52-27.87c0,0,42.58-37.95,53.14-53.3l-33.93,45.76c0,0-7.4,8.98-8.54,12.47c0,0-8.04,15.39-10.77,16.76
	c0,0-11.71,24.19-48.78,20.88l-30.44-3.31c0,0-0.1-6.86-17.02-5C496.38,432.58,504.4,409.15,506.58,409.87z"/>
<path class="st42" d="M522.42,390.64c0,0,1.97-3.93,25.95,29.42c0,0,48.19-28.1,75.9-59.12c0,0,18.48-20.97,29.84-35.8
	c4.21-5.5,5.72-10.93,7.38-12.76l39.75,23.29l2.24,1.36l-26.14,4.83l-22.82-9.21c0,0-20.29,29.88-31.39,37.18
	c0,0-38.32,37.23-45.68,40.82l-22.05,16.23c0,0-5.43,7-11.96-2.06c0,0-12.64-19.19-16.53-20.95c0,0-3.49-7.37-11.3,0.02l-10.08,7.16
	C505.51,411.05,513.44,396.53,522.42,390.64z"/>
<path class="st43" d="M664.04,305.82c0,0,20.28,8.25,47.4,32.25l-15.14,0.32l5.66-1.37l-40.47-24.63l-7.95,13.38
	C653.53,325.76,662.81,310.47,664.04,305.82z"/>
<path class="st44" d="M651.15,283.63c0,0,7.83,12.7,4.8,25.95c0,0-4.22,17.84-44.44,55.72c0,0-6.21,1.05-17.53,12.37
	c0,0,39.32-44.61,22.81-42.9c0,0-24.93,12.75-27.53,14.75l-1.92-0.52c0,0,17.08-9.95,13.12-10.93
	C600.48,338.07,638.08,310.17,651.15,283.63z"/>
<path class="st45" d="M651.97,275.61l9.33,23.43l-5.35,10.54c0,0,1.44-15.41-4.8-25.95C651.15,283.63,650.41,276,651.97,275.61z"/>
<path class="st46" d="M526.48,384.5c0,0,20.1,23.22,23.41,27.61c0,0,44.04-28.73,61.46-47.12c0,0,30.52-28.4,45.2-56.61l9.42-18.85
	l2.78,9.66l-4.54,7.07c0,0-4.49,15.33-23.17,35.4c0,0-29.79,36.95-43.44,44.42c0,0-41.02,31.94-49.09,34.12
	c0,0-19.36-27.53-25.95-29.42c0,0-16.83,11.74-26.19,41.8c0,0,3.8-24.55,20.49-41.8c0,0-21.66,8.94-22.39,12.3
	C494.48,403.09,511.21,385.23,526.48,384.5z"/>
<path class="st47" d="M506.52,404.79c0,0,7.57-6.24-10.13-1.56c0,0-6.58-2.95,20.49-12.45L506.52,404.79z"/>
<path class="st41" d="M549.89,412.11c0,0,36.93-20.03,61.46-47.12c0,0-15.87,6.82-17.37,12.68c0,0,64.97-74.34-4.1-28.49l-59.7,31.8
	C530.19,380.99,549.7,405.18,549.89,412.11z"/>
<path class="st48" d="M496.38,403.23c0,0,17.07-5.01,10.13,1.56c0,0-10.28,23.48-10.13,27.79l-24.33,4.13
	c0,0-1.92-22.03,18.45-37.66c0,0,9.95-12.49,35.59-21.38c0,0,32.93-10.89,66.88-34.76c0,0,22.38-15.01,3.56,0.22l-8.88,5.68
	l1.63,0.71l-59.08,31.47c0,0,18.11,21.06,19.71,31.12c0,0-23.22-27.72-23.41-27.61c-0.41,0.25-6.76-1.06-24.61,11.82
	C501.87,396.32,495.68,400.97,496.38,403.23z"/>
<rect x="721.97" y="293.78" class="st2" width="16.88" height="16.88"/>
<ellipse class="st49" cx="487.66" cy="422.91" rx="3.7" ry="3.4"/>
<path class="st50" d="M654.26,268.61c0,0,9.76,12.58,14.5,30.58c0,0,38.29,20.73,53.21,37.9c0,0,42.63,12.1,56.09,61.85
	c0,0,11.51,42.92-5.27,82.92c0,0-4.68,14.44-19.9,34.73c0,0-5.46,14.83-15.02,31.22c0,0-6.83,7.41-7.51,10.34
	c0,0-10.41,16.14-21.8,11.25l6.33-7.65c0,0,11.28-9.84,17.03-19.01c0,0,11.78-14.75,16.33-47.78l0.15,12.47
	c0,0,17.56-18.14,25.56-61.46c0,0,6.05-49.17-21.66-77.26c0,0-29.85-42.34-86.43-19.12c0,0,4.88-12.49,45.56-11.51
	c0,0-24.1-21.85-47.22-31.8l-2.93-7.22c0,0-4.19-11.12-8.58-21.07L654.26,268.61z"/>
<path class="st51" d="M344.74,410.45c0,0,0.24-0.94,0.93-2.13c0.9-1.54,2.55-3.48,5.41-4.31c0,0,8.86-2.96,25.17,6.44
	c0,0,12.72,3.41,23.65,21.34c0,0,6.8,9.73,8.25,13.58c0,0-20.88,2.63-45.56,1.46c0,0-8.68-15.9-36.68-18.63c0,0-5-8.77,4.78-10.63
	c0,0,30.28-2.95,45.17,16.19c0,0,6.78,5.68,8.05,6.95c0,0,2.09-0.9-0.83-4.8c0,0-11.41-18.44-31.41-22.53
	C351.67,413.38,343.67,412.6,344.74,410.45z"/>
<path class="st51" d="M318.4,438.08c0,0,5.23-7.13,14.92-2.56c0,0,14.93,3.21,26.05,11.4c0,0-30.54,3.82-31.32,3.62
	C328.06,450.55,313.55,445.17,318.4,438.08z"/>
<path class="st52" d="M420.79,450.44l-5.97-6.56c0,0-13.93-21.6-17-25.11c0,0-8.84-11.89-22.1-16.1c0,0,7.79-31.2,13.02-34.83
	c0,0-7.72,4.76-15.95,24.73l4.39-20.63c0,0-8.6,14.72-7.32,28.1c0,0-30.82-13.57-31.29,10.83c0,0-20.13-6-20.32,18.88
	c0,0-13.71,10.83,0,23.85c0,0-24.09-0.83-27.25,7.77c0,0,3.5-3.82,16.82-4.4c0,0-24.05,8.58-30.59,25.85
	c0,0,22.73-23.62,59.17-26.67l-8.24-5.72c0,0-22.97-11.44-0.73-16.28c0,0,16.32,3,31.55,12.78l3.76-0.13c0,0-6.23-15.1-36.72-18.71
	c0,0-7.26-12.98,13.39-10.42c0,0,18.64-0.34,34.95,14.32c0,0,14.83,17.26,9.27,4.44c0,0-13.51-21-34.56-23.57
	c0,0-6.31-0.3-3.29-4.65c0,0,5.63-13.73,36.44,6.1c0,0,12.62,7.83,26.04,30.95l4.7,6.88L420.79,450.44z"/>
<path class="st52" d="M503.23,438.83c0,0-0.4,0.06-1.23,0.19c-5.81,0.91-32.52,5.04-88.69,13c0,0-66.6,2.14-76.89,4.13l-8.35-5.61
	c0,0,24.46-3.54,32.21-3.65c0,0,44.56-2.77,47.67-2.63c0,0,15.84-1.03,39.83-4.84c0,0,40.48-5.19,47.17-6.76
	c0,0,17.92-2.69,18.84,4.96L503.23,438.83z"/>
<path class="st53" d="M378.64,664.38c0,0,15.36,9.48,17.65,8.85c0,0-0.59,16.87-0.5,20.38c0,0-18.15-5.66-17.07-6.83L378.64,664.38z
	"/>
<polygon class="st53" points="413.61,678.89 433.96,683.05 435.14,705.58 413.61,700.18 "/>
<polygon class="st53" points="499.92,688.37 535.1,686.6 536.35,709.81 500.63,711.89 "/>
<path class="st53" d="M555.21,685.4l29.39-5.33c0,0,7.34,6.79,3.1,22.59c0,0-28.82,4.98-31.6,4.83
	C556.1,707.5,555.21,691.11,555.21,685.4z"/>
<path class="st54" d="M583.46,680.08c0,0,39.12-9.17,40.29-9.61c0,0,2.87,14.64,2.14,22.1l-38.19,10.1
	C587.69,702.67,589.37,686.15,583.46,680.08z"/>
<path class="st54" d="M641.16,664.94l7.9-2.84l-0.47,20.66c0,0-5.9,3.34-6.19,4.37L641.16,664.94z"/>
<path class="st55" d="M400.59,668.33c0.74-0.96,8.93,0.98,9.22,2.78c0,0-1.58,30.38-0.73,34.34c0,0-8.14,0.28-10.77-4.98
	C398.3,700.47,397.48,672.37,400.59,668.33z"/>
<path class="st55" d="M537.99,680.62c0,0,15.21-2.9,14.67,0.05c0,0-0.76,18.53-0.76,34.78c0,0-11.31,3.12-10.97,0.73
	C540.92,716.18,536.85,682.06,537.99,680.62z"/>
<path class="st55" d="M626,664.53c0,0,7.91-6.66,10.8-3.24c0,0,2.41,18.66,3.44,33.88c0,0-6.84,2.28-10.06,1.85
	C630.18,697.01,624.13,670.06,626,664.53z"/>
<path class="st57" d="M371.5,658.67c0,0-1.84,19.96,1.33,31.27c0,0,17.67,8.48,22.24,10.93c0,0-2.78,8.58,18.53,10.34v-11.02
	l-5.29-1.82l0.75,7.09c0,0-12.14,0.25-10.41-11.05l-3.59-1c0,0-11.02-3.3-15.75-6.64l-0.69-22.39L371.5,658.67"/>
<path class="st58" d="M395.08,693.4c0,0-0.05-28.11,2.14-28.88c0,0,6.09-2.75,17.51,4.8l0,2.62c0,0-1.26,21.7-1.12,28.24l-5.29-1.82
	l1.48-27.25c0,0-4.67-3.11-9.22-2.78c0,0-3.07,4.2-1.92,26.07L395.08,693.4z"/>
<path class="st58" d="M413.61,705.45c0,0,11.67,5.11,22.69,6.87l-1.16-6.74l-21.53-5.39V705.45z"/>
<path class="st58" d="M414.73,671.94c0,0,16.77,4.71,21.02,5.19l-1.94,6.16l-20.2-4.41L414.73,671.94z"/>
<path class="st59" d="M442.54,677.57c0,0,47.61,2.76,50.92,4.54c0,0,3.13,5.19,2.93,32.22l4.24,2.3l36.14-0.93l-0.43-6.19
	l-35.71,2.39l-0.88-29.27c0,0-2.39-7.81-11.56-7.17l-27.51-1.51l-17.18-1.26L442.54,677.57z"/>
<path class="st60" d="M500.63,716.62l-4.24,5.12h-9.76c0,0,5.55,51.48,7,52.87c0,0-10.9-19.71-10.51-53.07
	c0,0-21.46-0.59-22.44-1.56c0,0,2.15,25.36,4.49,28.49c0,0,0.01,12.34,26.2,21.19c0,0-24.64,2.81-30.69-25.28l-3.76-25.17
	c0,0-15.07,1.76-21.56-9.56l-1.55-27.53c0,0,0.5-7.95,9.68-9.43l-0.97,4.89c0,0-2.54,3.19-2.54,6.51c0,0,1.17,22.25,1.17,23.42
	c0,0-0.2,6.05,10.73,6.83l41.56,2.3c0,0,2.86-2.48,2.93-3.86c0.07-1.37-0.07,1.37-0.07,1.37L500.63,716.62z"/>
<path class="st61" d="M499.75,682.62l32.97-0.98l-0.73-4.73l19.32-2.34c0,0,5.35,7.23,15.06,0.07c0,0,19.58-11.32,31.8-20.9
	c0,0-10.08,11.56-25.84,22.24c0,0,16.54-0.83,48.97-10.15l4.7-1.32l0.94,5.93c0,0-57.95,13.9-71.73,14.95h-3.32
	c0,0,0.51-5.31-3-5.94l-10.9,1.16l-0.04,5.8l-38.03,1.94L499.75,682.62z"/>
<path class="st62" d="M534.68,686.43l2.09,29.27c0,0,1,4.56,3.63,4.12c2.63-0.44,16.1-2.19,16.1-2.19l-1.29-32.22h-3.32v30.05
	c0,0-9.44,2.37-10.97,0.73l-2.97-29.75H534.68z"/>
<path class="st63" d="M555.79,707.52c0,0,50.91-8.75,69.21-14.93l-1.39-21.54l2.44-0.58l3.24,26.56l-3.4,0.76
	c0,0-16.43,4.63-20.09,5.8c0,0,4.76,26.53,44.19,30.29c0,0-43.3,11.86-47.11-29.56c0,0-32.16,6.88-47.11,8.34l-0.58-5.14
	L555.79,707.52z"/>
<path class="st64" d="M621.3,665.84l-0.39-3.12c0,0,1.44-3.39,15.41-5.27c0,0,2.85,3.63,5.27,0c0,0,0.2,26.38,1.96,37.2
	c0,0-2.19,5.74-13.6,6.03l0.23-3.67c0,0,4.9,0.17,9.22-4.1c0,0-1.83-28.8-3.15-31.02c0,0-8.06,0.17-10.25,2.63l-3.59,1L621.3,665.84
	z"/>
<path class="st63" d="M622.41,665.53l2.08,5.5l0.79,26.27c0,0,1.66,3.19,3.8,3.19l0.97,0.37l0.12-3.86L626,664.53L622.41,665.53z"/>
<path class="st65" d="M641.59,657.45c0,0,7.68-0.41,12.07-10.51l7.17,3.07c0,0-3.8,7.76-5.56,8.34c0,0,0.73,18.53-0.15,22.95
	l-12.29,11.7l-0.59-6.44l6.03-3.95c0,0,0.9-16.12-0.44-19.75c0,0-6.56,2.02-6.58,2.93L641.59,657.45z"/>
<path class="st66" d="M442.54,677.57c0,0,46.26,2.1,50.92,4.54c0,0,5.42,13.95,2.86,32.03l-2.86,2.48l-41.56-2.3
	c0,0-10.74-0.2-10.73-6.83h7.58c0,0,8.47,0.84,37.46,3.7c0,0,0.81,0.43,2.54-3.7l-0.59-17.29c0,0,0.13-3.78-4.49-4.8l-32.35-1.81
	l-11.51-0.39C439.81,683.2,441,677.5,442.54,677.57z"/>
<path class="st66" d="M440.45,682.18l7.14,1.03l-0.98,7.78c-0.88,0.19-2.42,0.69-3.07,1.98c-0.46,0.9-0.37,1.98-0.2,4.02
	c0.04,0.55,0.1,1,0.14,1.29c0.17,0.34,0.45,0.79,0.92,1.2c1.09,0.96,2.39,1.02,2.8,1.02c0.19,2.33,0.39,4.66,0.58,6.99
	c-2.2,0-4.41,0-6.61,0C441.17,707.5,438.13,682.18,440.45,682.18z"/>
<path class="st67" d="M372.83,689.94l7.37,3.46c0,0-4.01,12.99-9.24,30.25c-0.09,0.3-0.18,0.59-0.27,0.89
	c-9.63,31.83-23.15,77.42-23.4,83.31c0,0-8,14.44,10.93,48.39l-9.76-11.51l3.32,36.29h-1.76l-1.37-3.9c0,0-6.63,4.88-7.22,8.39
	v13.07c0,0,0.78,8.19,10.15,10.54l-7.22,6.24l-5.85-4.1c0,0-4.1-6.73-4.54-9.07v-18.88c0,0,0.21-9.17,8.49-11.41l-2.63-37.31
	c0,0-4.24-10.83-1.61-19.02c0,0,17.71-75.07,23.27-89.26C361.49,726.3,372.32,694.11,372.83,689.94z"/>
<path class="st68" d="M370.7,724.54c0,0,17.28-0.83,24.37-23.68l0.72,3.74c0,0-2.09,22.86-25.98,22.86L370.7,724.54z"/>
<path class="st69" d="M380.21,693.4l14.87,7.46c0,0-5.41,21.48-24.37,23.68L380.21,693.4z"/>
<path class="st70" d="M456.92,719.2l1.23,8.26c0,0-10.33-2.12-15.01-4.13c0,0-11.12-8.01-19.61-10.2l-8.8-4.16l-1.12-3.52
	c0,0,17.19,6.46,21.02,5.76v-2.23C434.63,708.97,441.44,720.45,456.92,719.2z"/>
<path class="st26" d="M391.73,840.1c0,0-24.97,16.06-40.08-3.32c0,0-6.18-18.86,14.32-68.87l11.71-36.29c0,0,7.61-3.71,9.17-9.37
	c0,0,8.17-8.65,8.94-17.65c0,0,1.84,5.31,17.81,6.6v-5.76l1.12,3.52c0,0,19.44,7.88,23.1,10.87l5.32,3.49l15.01,4.13l0.87,5.85
	c0,0-19.64-5.41-23.67-4.24c0,0,16.83,9.35,24.46,8.57c0,0,2.56,15.4,6.55,20.61c0,0-25.44-2.64-46.35-17.67
	c0,0,7.84,12.31,17.17,19.51c8.89,6.86,14.84,13.11,13.88,17.95c0,0-19.45,0.8-22.66,2.34l19.6,4.82c0,0,5.18,0.64,0.7,6.69
	c0,0-16.6,34.67-22.05,35.9l-18.93,14.44c0,0,3.01,3.75,22.24,5.46l3.84,0.28c0,0-17.84,4.98-20.21,10.45
	c0,0,13.83,4.29,10.12,24.19c0,0-11.11,9.4-31.22,5.66c0,0-28.81-0.91-37.27-7.61c0,0,7.02,13.66,54.82,16.78
	c0,0,18.99,4.51,11.01,12.94c0,0-24.82,11.06-55.34-1.95l-17.51-6.89V887.9l12.68,0.78l-8-5.85l1.76-6.24l-1.85-21.82l3.59-0.02
	c0,0,13.45-1.46,27.46-3.13C383.87,851.61,390.17,844.19,391.73,840.1z"/>
<polygon class="st26" points="461.47,728.06 483.27,730.16 484.08,740 462.5,736.55 "/>
<path class="st71" d="M462.83,738.84l21.83,3.94c0,0,3.76,20.24,4.89,21.22l1.81,5.65C491.37,769.66,460.19,762.54,462.83,738.84z"
	/>
<path class="st72" d="M487.54,730.5c0,0,13.67,1.21,24.5-4.64c0,0,52.35,4.57,92.28-13.42c0,0,21.89,22.43,34.14,29.07
	c0,0-30.73-8.63-38.92-22.38c0,0,1.76,12.88,18.44,21.66c16.68,8.78,15.95,12.29,15.95,12.29s7.17,17.27,10.39,36.87
	c3.22,19.61,2.93,24.44,2.93,24.44s2.34,18.73,3.22,20.19v8.78c0,0-4.68,16.54-19.9,20.34c0,0-22.83,1.73-41.56-6.58
	c-19.09-8.48-34.09-29.27-34.83-30.29c-0.73-1.02-24.38-28.69-27.51-30.73c0,0,10.97-0.29,27.8,14.05c0,0-13.09-18.64-33.42-29.46
	c0,0,28.15-20.73,33.57-23.51c5.41-2.78-42.58,10.83-42.58,10.83s-13.34,0.29-14.28-0.59c-0.94-0.88-6.83-1.35-6.94-7.27
	l-2.02-17.37c0,0,38.02-0.34,52.07-3.9l-52.55-1.23L487.54,730.5z"/>
<path class="st73" d="M607.13,908.73c0,0,53.26-0.29,70.24-11.71c0,0,2.08,15.83-19.9,21.66c0,0-21.07,9.37-43.02,4.39
	C614.45,923.07,603.33,918.38,607.13,908.73z"/>
<path class="st74" d="M632.01,1005.2c0,0,57.22,3.02,86.63-2.73C718.63,1002.47,679.22,1033.3,632.01,1005.2z"/>
<path class="st75" d="M266.38,441.2l-8.78,10.49c0,0-11.32,8.3-18.93,32.34l-9.56,32.04l-1.95,9.76l0.98,21.07l4.29-1.56
	c0,0,3.51,45.18,33.95,51.76l1.2-6.37l-7.37-5.19c0,0-0.38-0.26-1.02-0.81c-4.57-3.86-22.63-21.93-16.99-62.61
	c0,0-7.35,9.58-7.67,12.3c0,0-1.82-15.99,6.83-29.66c0,0,3.95-22.46,16.06-40.5c0,0,7.29-15.15,26.22-21.99
	c0,0,13.15-5.24,29.14-4.7l4.25-6.67C317.01,430.91,292.52,427,266.38,441.2z"/>
<path class="st76" d="M643.11,692.45c0,0,4.25-4.62,5.16-4.62c0,0,11.74,40.33,13.79,65.88c0,0,6.83,47.23,8.1,54.43
	c0,0-0.59,28.68-2.15,36.68l-3.71-3.51c0,0-1.85-49.44-4.88-64.38C659.43,776.92,643.73,695.4,643.11,692.45z"/>
<path class="st77" d="M669.5,843.36c0,0,4.95-16.49,6.51-17.07v21.66c0,0,0.92-4.5,2.54-4.29c0,0,9.85,10.28,8.78,22.24
	c0,0-1.37,16.42-6.83,23.41c0,0,6.44-22.63-4.29-38.63l-2.15-3.12l0.2-11.51L669.5,843.36z"/>
<path class="st78" d="M686.39,884.65c0,0,0.14-3.91,3.26-5.08c0,0,6.99,5.94,6.4,27.79l-4.74,3.87
	C691.32,911.23,690.1,885.62,686.39,884.65z"/>
<path class="st79" d="M582.36,901.01c0,0,21.64,8.8,24.77,7.71c0,0-7.05,13.73,19.11,15.77c0,0,26.91,0.88,46.39-14.89
	c0,0,4.33-3.51,4.73-12.59c0,0-10.46,8.46-38.2,9.79c0,0,39.21-11.99,47.91-23.05c0,0,4.98,2.69,5.09,26.3
	c0,0-6.8,14.94-56.16,19.82c0,0-24.58,1.76-42.53-1.95C593.48,927.93,577.87,923.64,582.36,901.01z"/>
<path class="st80" d="M643.55,694.65l7.86,39.21c0,0-39.66-0.48-45.6-30.27l20.25-6.53c0,0-0.5,2.73,3.02,3.46
	C629.07,700.52,638.47,701.54,643.55,694.65z"/>
<path class="st81" d="M486.63,721.74h9.76l4.24-5.12l36.66-0.93c0,0-0.6,4.67,6.27,3.73l12.94-1.81l-0.72-4.96
	c0,0,40.77-6.3,47.16-8.7c0,0,11.63,37.87,48.95,29.52c0,0-11.45,5.36-16.63,5.36c0,0-9.55-0.69-21.77-12.29
	c0,0-9.82-10.09-9.49-13.9c0,0-38.63,19.63-91.76,13.17c0,0-17.24,8.22-24.7,4.69L486.63,721.74z"/>
<path class="st81" d="M488.32,737.65l52.23,1.19c0,0-23.22,7.18-51.63,4.78L488.32,737.65z"/>
<path class="st82" d="M491.26,761.8c0,0,3.74,12.51,40.58,0.6l23.47-5.91l-34.27,24.2c0,0,23.65,12.35,33.22,29.41
	c0,0-18.08-13.61-27.8-14.05c0,0,15.21,12.21,32.01,36.29c0,0,16.44,22.69,50.67,29.75c0,0,30.29,10.12,41.11-18.77
	c0,0-5.69-51.71-6.43-55.06c0,0-7.27-38.06-20.21-44.24c0,0-22.38-9.43-24.29-24.93c0,0,13.52,14.94,30.95,19.07
	c0,0,10.74,0.28,20.94-4.36c0,0,14.02,56.84,12.8,90.06l0.39,17.45l3.71,3.51l-13.75,11.8c0,0-6.09,25.25-52.09,11.32
	c0,0-14.44,0.98-30.05-10.15c0,0-13.41-10.36-22.05-24.39c0,0-34.01-43.7-35.64-44.09c0,0-0.62-5.66-13.81-7.8
	c0,0-13.97-1.34-55.91-22.44l21.55-0.81c0,0,13.32,12.69,24.99,11.4l1.61,3.62C492.97,773.28,491.99,768.24,491.26,761.8z"/>
<polygon class="st83" points="462.5,736.55 484.08,740 484.66,742.78 462.83,738.84 "/>
<path class="st84" d="M459.03,733.32c0,0-10.92-4.23-24.4-4.58c0,0,12.73,8.69,25.19,9.9L459.03,733.32z"/>
<path class="st80" d="M466.37,758.26c0,0-30.79-5.95-46.35-17.67c0,0,9.81,14.92,18.73,20.72c0,0,12.92,9.89,12.31,16.74
	c0,0-20.52,0.89-22.66,2.34c0,0,15.48,3.15,21.52,6.33c0,0-8.95,24.37-21.5,39.53l-20.7,15.99c0,0,4.66,4.43,26.09,5.75
	c0,0-15.61,3.33-20.21,10.45c0,0,13.58,4.11,10.12,24.19c0,0-7.47,5.57-31.22,5.66c0,0,8.01,5.06,33.32,4.33l6.29-1.32
	c0,0,3.66-7.91,3.8-11.71c0,0,0.37-14.85-2.41-19.97c0,0-1.02-8.56-0.22-9.51c0,0-8.12,1.12-8.78,2.78l3.22-2.78l7.17-2.41
	c0,0-4.95-0.68-4.95-0.97s10.87-5.47,10.87-5.47s10.62-2.12,21.8-19.32l28.02-35.48l-16.68-6.66c0,0-18.73-8.32-29.27-20.73
	L466.37,758.26z"/>
<path class="st85" d="M472.77,785.68c0,0-35.04,34.96-36.89,55.02l37.7-55.02"/>
<path class="st86" d="M474.49,781.73c0,0-27.78-5.34-41.89-2.28l-4.19,0.95C428.41,780.39,451.47,787.97,474.49,781.73z"/>
<path class="st87" d="M351.92,834.99c0,0,16.08,20.07,39.82,5.11c0,0-4.34,14.85-21.03,20.75
	C370.7,860.84,350.34,864.15,351.92,834.99z"/>
<path class="st88" d="M440.84,841.26c0,0,3.6,1.41,13.9-4.48c0,0,1.96-0.23,0.93,4.63l-15.51,17.58c0,0,6.88-1.61,12-4.24
	c0,0,4.24,12.15,3.22,21.22c0,0-4.12,15.34-24.28,15.56c0,0,5.82-1.98,8.04-15.41c0,0-1.79-16.84-3.95-19.75v-5.56
	c0,0,5.92-4.21,7.02-6.15L440.84,841.26z"/>
<path class="st89" d="M429.42,846.82c0,0,10.12-5,11.41-5.56l1.37,3.39c0,0-2.19,3.59-7.02,6.15v5.56c0,0,2.85,4.24,3.95,19.75
	c0,0-0.1,9.9-7,15.19c0,0,7.05-14,1.39-31.68c0,0-1.15-8.76-0.22-9.51c0,0-8.39,1.29-8.78,2.78l3.22-2.78l7.17-2.41L429.42,846.82z"
	/>
<path class="st90" d="M434.42,895.6c0,0,13.66-2.88,18.93-4.95c0,0,7.37,19.28-1.05,23.36c0,0-5.56,4.68-16.1,6.44
	c0,0-45.73,6.73-54.04-1.66c-0.23-0.02-40.29-6.7-33.93-13.5l0-4.61c0,0,36.83,16.49,59.07,11.17c0,0,15.3-0.07,12.14-8.64
	c0,0-2.26-4.31-13.93-6.96l25.58,0.14c0,0,5.8,4.56,0,19.51C431.09,915.89,434.25,911.47,434.42,895.6z"/>
<path class="st91" d="M388.25,719.84c0,0-3.97,5.48-12.54,7.15c-1.77,0.35-3.8,0.41-5.89,0.47c0,0-23.91,80.38-23.62,83.83
	c0,0-3.41,15.67,6.62,34.24c0,0-7.28-24.15,13.16-77.62l11.71-36.29l-1.41-3.56C376.28,728.06,383.22,726.88,388.25,719.84z"/>
<path class="st92" d="M348.47,844.73l8.63,10.03h-4.28l1.85,21.82l-1.76,6.24l8,5.85l-12.68-0.78v13.66v4.61l6.34,3.98
	c0,0-14.46-1.83-13.12-15.47l-0.02-9.95c0,0,2.7-4.96,7.24-7.6l1.37,3.9h1.76L348.47,844.73z"/>
<path class="st93" d="M460.68,719.99c0,0,18.93,1.37,22.44,1.56l0.15,8.62l-21.8-2.1L460.68,719.99z"/>
<path class="st30" d="M602.16,867.94c0,0,41.21,13.86,51.97-10.87c0,0-2.12,17.02-26.99,20.14
	C627.14,877.21,608.18,878.95,602.16,867.94z"/>
<path class="st94" d="M571.67,857.44c0,0,21.1,11.07,30.5,10.5c0,0,4.75,11.5,28.13,8.78c0,0,19.86-2.45,23.84-19.65
	c4.03-17.43,0.13-0.44,0.13-0.44l13.75-11.8l-0.99,5.42l2.14-5.85l0.56-2.13l4.52-6.22l-0.2,11.51c0,0,7.18,8.3,8.05,20.49
	c0,0,1.48,14.65-1.61,21.26c0,0-8.87,7.33-12.38,6.94c0,0-27.42,5.06-49.37,3.59c0,0-27.57-8.03-27.93-16.11
	c0,0-2.99-5.38,2.57-10.62C593.38,873.11,572.28,859.35,571.67,857.44z"/>
<path class="st95" d="M569.97,862.09c0,0,14.38,9.23,23.58,10.52c0,0-8.56,11.41,4.06,17.74c0,0,17.5,11.91,45.81,8.78l26.08-3.84
	c0,0-27.08,7.46-36.9,7.77c-10.1,0.32-30.88,2.05-35.12-0.88c0,0-8.78-0.59-16.83-10.1C580.65,892.08,569.68,886.82,569.97,862.09z"
	/>
<path class="st96" d="M682.19,927.84l6.16-4.83c0,0,11.84,24.97,15.95,29.12l-6.73-0.73c0,0,2.34-7.9-6.22-10.24
	C691.35,941.15,690.2,931.63,682.19,927.84z"/>
<path class="st97" d="M630.26,943.79c0,0-1.46,2.93,3.95,3.07c0,0,16.68-11.27,50.48-8.63c0,0,2.11-4.79-4.5-6.05
	C680.19,932.17,644.19,929.39,630.26,943.79z"/>
<path class="st98" d="M636.28,954.99c0,0,4.54-8.39,27.77-10.54c0,0,17.62-2.52,21.62-1c0,0,7.57,1.97,7.9,4.73l-1.13,1.98
	c0,0-28.24-5.71-53.12,7.9C639.32,958.06,635.87,957.91,636.28,954.99z"/>
<path class="st99" d="M635.75,970.67c0,0,11.78-15.93,43.68-12.12l8,3.68c0,0-37.17,0.15-49.31,13.32
	C638.11,975.54,632.24,972.23,635.75,970.67z"/>
<path class="st100" d="M595.53,971.3c0,0,10.21-1.16,15.95,14.34c0,0,5.5,15.99,21.41,18.37c0,0,25,19.6,59.08,10.64
	c0,0,22.68-6.97,25.72-12.68c0,0,13.43-2.89,17.59-6.67l0.59,15.22c0,0-9.03,8.86-40.93,12.23c0,0-30.73,3.8-43.36,0.36
	c0,0-32.95-1.56-37.78-11.62c0,0-0.51-4.61-3-17.05c0,0-2.05-8.2-4.73-10.11v8.05c0,0-7.02-1.61-10.54-7.9
	C595.53,984.47,590.38,977.38,595.53,971.3z"/>
<path class="st101" d="M627.43,986.22c0,0-1.31-8.05,12.29-18.44c0,0,15.03-10.9,38.92-9.23c0,0-27.64-7.14-46.99,8.52
	c0,0-7.29,5.5-11.24,16.95L627.43,986.22z"/>
<path class="st102" d="M679.38,959.15c0,0,28.97,1.02,30.88,17.56c0,0,3.95,12.29-23.85,16.1c0,0-28.24,5.41-43.61-0.59
	c0,0-8.49-0.73-15.36-6c0,0-0.71-7.14,8.14-14.93c0,0-0.83,1.76,2.54,4.24c0,0,8.35-12.08,49.31-13.32L679.38,959.15z"/>
<path class="st103" d="M602.75,936.93l25.02,0.51c0,0-14.85,14.08-13.61,24c0,0,3.56,9.08,2.49,14.05c0,0-0.73,3.2-3.48,1.61
	c0,0-8.48-7.91-11.08-9.09L602.75,936.93z"/>
<polygon class="st104" points="597.29,936.91 602.75,937.12 602.41,968.22 596.55,963.98 "/>
<path class="st105" d="M627.43,938.08c0,0-6.31,12.45,3.81,12.8c0,0-3.28,9.24,5.84,12.24c0.37,0.12,0.75,0.23,1.16,0.33
	c0,0-11.54,4.62-17.83,20.57l7.02,2.19c0,0,25.19,14.57,67.04,5.05c0,0,15.98-3.8,15.78-14.56c0,0-0.59-15.36-30.88-17.56
	c0,0-8.13-3.52-22.54-1.48c0,0-6.56-0.11-17.4,5.15l-2.21-0.45c0,0,15.58-6.76,20.31-6.25c0,0,15.7-3.18,30.92-1.57
	c0,0,30.86,0.8,39.35,19.39c0,0,2.34,3.8,3.8,10.68v5.71c0,0-12.64,11.41-54.93,12.72c0,0-32.72,2.05-48.52-6.43
	c0,0-7.29,0.58-10.39-10.39c0,0-2.09-6.88-5.39-9.88c0,0,3.39,2.03,3.93-0.22c1.43-5.99-5.44-14.99-1.39-20.87
	C614.92,955.25,621.62,939.77,627.43,938.08z"/>
<path class="st102" d="M440.28,927.4c0,0,5.41-3.22,7.32-1.76l3.66,31.75l-8.25,2.97L440.28,927.4z"/>
<path class="st103" d="M397.57,928.05c0,0,40.77,0.04,45.03-1.83l0.31,33.07c-0.71,3.84-34.27,8.14-39.66,7.32
	c-2.91-0.44-52.68,13.75-52.68,13.75s-36,1.32-45.36,0c0,0-25.61-1.9-38.63-8.78l0.88-7.46c0,0,59.03,15.53,78.29-2.19l2.48-0.15
	c0,0,4.25,4.83,4.25,6.88l0.88-7.46C353.36,961.2,384.7,953.51,397.57,928.05z"/>
<path class="st106" d="M271.01,965.03c0,0,4.06-23,29.67-24.17c0,0,11.41-1.99,28.53,1.42c0,0,13.46,3.2,19.01,19.51l-2.48,0.15
	c0,0-8.48,8.94-27.36,8.86C318.39,970.79,280.41,970.32,271.01,965.03z"/>
<path class="st107" d="M266.63,971.15l-2.39-1.61c0,0-3-13.47,4.5-21.39c0,0,7.35-10.22,24.77-12.56c0,0,17.59,0.21,18,0
	c3.87-1.98-0.44-0.15-0.44-0.15s19.04,4.36,22.78,8.94c0,0-34.03-6.82-47.45,0.11c0,0-11.9,6.39-15.39,20.53l-3.55-0.9
	L266.63,971.15z"/>
<path class="st108" d="M321.6,929.74c0,0,14.85,3.52,32,17.17c0,0,3.9-0.87,5.27-4.63c0,0-10.05-14.84-31.8-16.05
	C327.07,926.23,323.36,925.72,321.6,929.74z"/>
<path class="st109" d="M336.82,920.81c0,0,6.27-6.37,9.18-5.45c0,0,28.2,9.3,29.64,16.72c0,0-1.95,4.29-4.49,5.27
	C371.16,937.35,355.64,924.22,336.82,920.81z"/>
<path class="st110" d="M452.52,962.71v14.24c0,0-9.91,12.86-45.22,10.93l-5.9-5.46c0,0-39.62,16.85-61,16.62
	c0,0-17.83,4.24-55.68-2.19c0,0-18.78-0.83-26.39-8.05l0.2-5.56c0,0,32.6,15.39,68.94,9.63c0,0,14.06-3.23,19.72-6.12
	c0,0,22.15-3.32,36.2-9.76c0,0,28.27-8.51,32.99-6.93C416.39,970.06,447.21,962.26,452.52,962.71z"/>
<path class="st111" d="M258.53,975.23c0,0,36.85,17.5,93.93,10.6c0,0-25.5,9.49-36.79,9.3c0,0-36.66,0.39-57.14-11.9V975.23z"/>
<path class="st112" d="M375.65,924.05c0,0,12.23,4.76,22.62,4.54c0,0-8.09,23.09-44.91,32.62c0,0-4.83-12.21-20.14-20.92l1.32-0.8
	c0,0,8.58,3.65,16.75,11.56l4.75,0.15c0,0,6.72-4.28,7.4-5.56l0.29-4.02c0,0-4.12-6.16-20.14-14.8c0,0,14.14,3.53,25.7,14.36
	l4.02,0.07c0,0,7.54-6.29,7.68-8.12C381,933.12,377.61,925.37,375.65,924.05z"/>
<path class="st113" d="M428.97,326.77c0,0,2.71-0.61,5.44,7.49c0,0-3.27,38.57,3.49,56.17l-4.13,5.1
	C433.76,395.52,419.38,374.01,428.97,326.77z"/>
<path class="st114" d="M445.46,348c0,0,5.66,20.88,12.88,27.31c0,0-21.46,10.93-24.39,19.71l2.15-5.66c0,0-7.41-14.62-1.76-55.11
	C434.34,334.25,440.78,342.93,445.46,348z"/>
<path class="st115" d="M444.89,347.48l9.63,8.2c0,0,2.15,8.54,8.78,17.5l-5.27,2.14C458.04,375.32,451.72,370.89,444.89,347.48z"/>
<path class="st116" d="M317.01,395.02c0,0-6.67,1.04-9.79,2.77c0,0,8.97-29.5,39.22-51.35c0,0,20.1-14.63,48.78-17.17l-3.86,8.58
	C391.36,337.85,343.14,338.59,317.01,395.02z"/>
<path class="st117" d="M288.93,415.26c0,0,11.41-15.57,28.18-20.39c0,0,16.43-38.15,47.24-50c0,0,11.89-5.92,27.01-7.02
	c0,0-1.31,3.08-2.34,5.27c0,0,4.1-8.93,15.51-17.71c0,0,14.35-8.63,20.49-8.93c0,0-1.89,11.43-4.23,30.99c0,0-0.31,30.18,4.95,44.81
	c0,0,2.93,11.25,3.8,12.36c0,0,5.19,5.72,15.71-3.14l14.88-9.95l16.68,15.51c0,0-8.37,20.94-10.79,30l-51.39,6.85
	c0,0-20.59-36.36-38.92-41.26c0,0,8.35-33.4,13.02-34.83c0,0-10.53,10.8-15.95,24.73c0,0,2.5-15.1,4.39-20.63
	c0,0-8.63,16.06-7.32,28.1c0,0-30.19-13.06-31.39,10.97c0,0-9.49-2.66-16.07,4.07C322.39,415.05,313.03,410.04,288.93,415.26z"/>
<path class="st118" d="M458.04,380.88c0,0,6.64,6,11.95,15.51c0,0,2.06-5.92-12.57-20.75l5.89-2.46c0,0,13.56,18.67,13.41,34.04
	l-16.68-15.51l-20.94,14.22c0,0-5.04,3.22-9.65-1.14c0,0,22.78-23.73,26.05-23.48L458.04,380.88z"/>
<path class="st118" d="M356.73,395.02c0,0,6.47,2.95,9.7,2.1c0,0,2.3,1.61,2.88-5.27C369.31,391.85,371.07,395.41,356.73,395.02z"/>
<path class="st118" d="M360.97,387.39c0,0,2.93,2.86,7.61-7.05c0,0-4.49,4.53-1.17,8.43L360.97,387.39z"/>
<path class="st119" d="M265.91,439.9c0,0,9-21.05,26.56-22.66c0,0,16.55-3.17,28.11,0.63c0,0-0.94,1.92-1.69,5
	c0,0-0.62,2.75-0.73,6.58c0,0.06,0,0.11,0,0.11c-0.01,0.26,0,0.24,0,0.27c-0.02,0.12-0.11,0.13-0.44,0.43
	c-0.04,0.04-0.07,0.07-0.12,0.11c-0.12,0.1-0.18,0.12-0.3,0.26c-0.52,0.57-0.26,0.08-0.28,0.28c-4.52-0.19-9.53-0.08-14.93,0.39
	c-8.72,0.75-19.95,2.61-29.99,7.06l-5.71,2.84L265.91,439.9z"/>
<path class="st52" d="M351.59,909.12c0,0,28.16,13.92,62.89,11.7c0,0,32.17,2.94,38.72-10.67c0,0,4-8.92-0.68-20.24l5.67-4.88
	c0,0,12.28,27.03-5.67,36.05l-4.93,4.56c0,0-16.19,3.97-49.33,2.94c0,0-11.89,0.15-22.62-4.54c0,0-6.95-0.02-31.27-8.69
	L351.59,909.12z"/>
<path class="st120" d="M490.66,786.46l6.2,3.36c0,0-24.36,36.46-33.75,42c0,0,4.8,10.2-4.39,17.17c0,0,4.24,14,5.27,20.14
	l-0.88,9.07c0,0-2.12,4.41-4.93,6.83l-4.84,6.49c0,0-17.32,5.67-18.93,4.95c0,0,1.22,16.1-3.33,20.29c0,0,2.07-18.75,0-19.51
	c0,0-44.35,2.31-62.68-7.72c0,0-10.98-4.47-13.16-8.85c0,0,28.27,7.75,37.27,7.61c0,0,15.85,7.32,39.61,3.02
	c0,0,16.8,0.79,23.24-15.34c0,0,1.04-9.11-3.22-21.22c0,0-9.64,4.79-12,4.24l15.51-17.58c0,0,1.52-4.05-0.93-4.63
	c0,0-9.99,6.56-13.9,4.48c0,0,13.32-7.31,31.91-32.11L490.66,786.46z"/>
<path class="st121" d="M444.71,759.07c0,0,35.82,18.56,58.64,22.97c0,0,9,0.32,11.5,7.05c0,0,38.69,47.22,41.15,52.16
	c0,0,15.11,17.2,36.67,31.39c0,0-5.64,0.44-22.71-10.56c0,0-0.89,22.91,10.68,30c0,0,6.54,8.46,16.83,10.1
	c0,0,24.29,6.64,72.02-6.89c0,0-9.57,7.51-30.33,11.52c0,0-21.97,2.24-32.84,2c0,0-8.23-0.46-23.98-7.81l-7.75-3.06
	c0,0-9.46-4.88-10.83-24.78c0,0-1.17-13.07-8-18.83c0,0-19.02-20.1-26.44-33.66c0,0-22.44-27.61-24.49-28.88
	c0,0-4.78-2.44-7.22-1.17l-6.98-4.19C490.66,786.46,463.35,780.24,444.71,759.07z"/>
<path class="st50" d="M574.61,897.95c0,0-7.97,26.71,15.24,36.66l7.43,2.3l30.14,1.17l14.44-0.81c0,0,25.97-7.81,38.29-4.16
	l2.04-5.27l6.16-4.83l7.02-4.99c0,0,7.25-5.85,7.25-12.48v-13.27c0,0-1.64-15.31-9.82-18.82l-3.45,6.53c0,0,7.25,4.02,5.97,26.69
	c0,0-14.55,24.43-74.73,23.23c0,0-37.75,4.32-39.05-21.85l0.81-7.04L574.61,897.95z"/>
<path class="st122" d="M648.27,687.83c0,0,12.37,44.07,13.92,66.87l7.96,53.44c0,0-0.56,40.39-5.14,49.65
	c0,0,9.32-31.19,10.99-31.51v21.66l2.54-4.29c0,0,17.14,17.76,1.95,45.65c0,0,5.4-2.06,8.86-9.32c0,0,9.71-12.54,3.07-27.75
	l-9.37-17.17c0,0,1.13-11.12-5.68-21.46c0,0-9.35-62.63-10.32-72.77c0,0-4.01-29.94-8.97-43.78c0,0-3.4-6.97-2.97-15.74
	L648.27,687.83z"/>
<path class="st123" d="M589.86,934.61l-2.42,28.85c0,0-3.91,10.94,0.21,22.65c0,0-1.91,3.35,17.21,14.86l3.71,12.49
	c0,0,2.05,7.61,21.51,13.66c0,0,14.43,3.9,41.43,3.9c0,0,46.71-2.73,58.41-8.97c0,0,11.71-4.88,13.07-12.29
	c0,0,1.95-19.12-4.29-22.24c0,0,1.76-18.14-18.34-32.39c0,0-19.25-8.88-24.99-37.1l-7.02,4.99c0,0,10.81,23.59,15.95,29.12
	l18.03,14.31c0,0,10.39,10.5,9.28,23.89l3.66,4.98l0.59,15.22c0,0-18.91,13.64-70.96,12.98c0,0-42.9,1.67-51.08-17.64
	c0,0-3.63-20.42-7.76-21.53v8.05c0,0-9.98-2.33-11.93-11.49l1.4-9.58l1.02-7.32l0.73-27.07L589.86,934.61z"/>
<path class="st124" d="M596.55,963.98c0,0,18.39,10.95,20.86,20.26c0,0,0.1,8.21,10.75,12.37c0,0,28.08,13.45,82.28,1.98
	c0,0,14.08-2.99,21.17-8.27l3.66,4.98c0,0-15.2,14.11-57.88,12.85c0,0-31.3,0.67-49.96-4.13c0,0-12.4-4.9-15.95-18.38
	c0,0-10.45-13.77-15.95-14.34L596.55,963.98z"/>
<path class="st125" d="M627.43,937.57c0,0-6.29,13.24,3.81,13.32c0,0-3.55,10.06,7.01,12.57l-0.28-1.36c0,0,15.2-6.74,33.34-7.34
	c0,0,14.52-0.95,26.67,1.18c0,0,13.11,3.26,19.98,7.04l-13.65-10.83l-6.73-0.73l-4.98-1.32c0,0-29.84-5.59-53.12,7.9
	c0,0-3.57,0.13-3.04-3.07c0,0-1.52-5.78-2.22-8.05c0,0-5.78-0.02-3.46-3.49L627.43,937.57z"/>
<path class="st50" d="M640.67,937.34l-13.24,0.75l3.32,5.29C630.75,943.37,639.98,937.27,640.67,937.34z"/>
<path class="st126" d="M634.21,946.86c0,0,18.81-11.87,50.48-8.63c0,0,1.39-4.21-4.54-5.12l2.04-5.27c0,0,8.63,3.74,9.16,13.32
	c0,0,8.2,1.15,6.22,10.24l-4.98-1.32c0,0,3.7-4.22-7.77-6.71c0,0-34,0.01-43.76,8.03l-4.63,3.51L634.21,946.86z"/>
<path class="st0" d="M338.52,911.26c0,0-9.05,4.15-14.8,9.13c0,0-6.73,1.14-12,6.42c0,0-6.15,1.62-22.24,1.94
	c0,0-33.85,2.76-33.56,38.85c0,0-4.76,2.85-4.39,7.02l-0.02,16.39c0,0,7.75,13.19,42.43,15.89c0,0,27.46,2.98,46.63-0.16
	c0,0,23.27-0.37,56.19-16.02c0,0,2.78,3.97,7.32,4.77c0,0,10.39,1.38,18.73-0.82c8.34-2.19,23.22-1.32,36.97-15.95v-14.34
	c0,0-1.02-8.04-2.78-8.85c0,0-1.5-30.94-4.48-34.46l-4.93,4.56c0,0,3.42,35.98,4.93,37.07v14.24c0,0-13.32,13.15-45.22,10.93
	l-5.9-5.46c0,0-59.17,24.93-115.5,14.44c0,0-11.81-0.21-27.18-8.18l-0.2-13.09l5.71-6.05c0,0-5.55-27.97,29.27-33.95h18l10.1-5.85
	c0,0,0.79-3.09,5.46-3.51l9.76-5.42c0,0,5.35-4.7,8.58-4.53l0.6-0.34L338.52,911.26z"/>
<path class="st127" d="M264.24,969.54c0,0,14.46,14.02,86.33,10.83c0,0,43.44-13.2,52.68-13.75c0,0,42.29-6.56,48-9.22l1.27,5.32
	c0,0-54.65,12.46-55.07,11.15c0,0-45.28,15.11-49.22,13.23c0,0-61.04,4.8-89.7-11.51L264.24,969.54z"/>
<path class="st128" d="M311.51,935.59c0,0,30.01,5.18,36.72,26.19c0,0,3.41,4.89,4.25,6.88l0.88-7.46c0,0-5.71-13.39-20.14-20.92
	l1.32-0.8c0,0,14.28,8.63,16.75,11.56l4.75,0.15c0,0,7.24-4.55,7.4-5.56c0.18-1.1-0.02-1.02-0.02-1.02l0.08-0.02l0.31-3
	c0,0-3.14-9.72-20.44-14.77c0,0,13.35,2.87,25.92,14.36l4.02,0.07c0.1,0,8.1-7,7.68-8.12c-0.5-1.34-4.1-8.56-5.35-9.07L346,915.94
	c0,0,29.14,10.93,29.64,16.14c0,0-2.02,4.01-4.49,5.27c0,0-14.41-12.68-34.34-16.54l-9.76,5.42c0,0,19.06,0.7,31.8,16.05
	c0,0-1.48,3.27-5.27,4.63c0,0-12.5-11.41-32-17.17L311.51,935.59z"/>
<path class="st126" d="M671.93,600.19l4.3,5.6l-16.06,24.95c0,0,2.1,11.15,0.66,19.28l-7.17-3.07c0,0,1.16-14.6-4.6-8.63
	c0,0,1.13-7.22,10.54-20.68L671.93,600.19z"/>
<path class="st129" d="M671.61,580.52c0,0-6.93,11.83-7.39,13.43l2.14-1.01l5.78,8.24c0,0-15,3.94-18.61,12.5
	c0,0-6.74,11.63-20.84,17.84c0,0-14.77,9.46-18.62,5.48l2.73-5.31c0,0-13.12,8.16-26.29,5.31c0,0-13.86,2.39-4.63-5.99l4.63-7.07
	c0,0-21.9-8.23-26.58-15.51c0,0,30,13.93,42,9.84l-8.78,9.8c0,0,23.56-4.68,33.07-15.8l-2.63,12.83l12.58-10.2
	c0,0,10.83-9.07,13.46-16.1C653.64,598.81,666.98,582.11,671.61,580.52z"/>
<path class="st130" d="M472.05,436.71l-6.62,0.63c0,0,4.6-20.66,11.29-30.12c0,0-0.8-14.34-8.87-26.87c0,0-13.63-20.08-13.33-24.67
	l9.67,6.86c0,0,0.88,3.11,2.49,5.43c0,0,11.27,17.1,15.22,32.32c0,0,20.49-22.53,33.95-25.61l12.28,2.3
	C528.13,376.98,477.42,392.06,472.05,436.71z"/>
<path class="st131" d="M464.19,362.54c0,0,19.56,15.15,51.65,12.15c0,0-15.99,6.73-33.95,25.61c0,0-9.56-23.73-12.37-27.7
	C469.53,372.59,463.31,363.59,464.19,362.54z"/>
<path class="st132" d="M420.73,308.69l4.19,7.95c0,0-25.54,6.22-36.01,26.63l6.29-14c0,0-62.88,1.92-87.99,68.52l9.79-2.77
	c0,0-20.67,9.46-28.18,20.39c0,0,24.18-5.82,33.56-0.36l-1.82,2.81c0,0-43.19-11.55-54.19,23.34l-9.56,11.14
	c0,0-3.97-16.05,12.81-31.47c0,0,22.44-18.21,27.7-24.52c0,0,13.46-36.3,47.22-58.28c0,0,10.15-12.22,54.24-17.3
	C398.78,320.78,414,309.47,420.73,308.69z"/>
<path class="st133" d="M429.46,325.95c0,0-7.67,51.12,4.19,69.07c0,0,1.8-8.97,24.39-19.71c0,0,13.05,12.52,11.95,21.07
	l-14.72-16.58l2.77,1.07c0,0-7.83,2.18-28.58,23.92c0,0-16.53-24.7-4.53-88.15L429.46,325.95z"/>
<path class="st50" d="M442.78,258.94l2.5-3.8c0,0,7.16,14.34,66.28,11.41c0,0,27.06-3.43,47.56-15.66l-8.05-5.56
	c0,0,22.53-3.9,22.53,17.41c0,0-3.73-9.05-7.17-9.8l-5.56,1.46c0,0-12.58,13.17-44.34,15.95c0,0-25.9,2.05-38.63,0
	c0,0-18.29-2.05-22.83-4.1L442.78,258.94z"/>
<path class="st134" d="M455.07,266.25c0,0,38.24,11,70.63,2.94c0,0,17.86-3.22,23.07-6.96l-3.27,14.56c0,0-6,4.83-7.17-0.73
	c0,0-3.51,8.34-26.63,8.78c0,0,14.34,3.66,26.05-3.22l3.8,1.32c0,0,4.24-4.98,9.8-6c0,0-10.1,22.68-40.83,24.44
	c0,0-29.41,3.51-49.9-9.66l1.32-8.93c0,0,16.97,2.63,18.58,2.05C480.53,284.84,458.73,283.96,455.07,266.25z"/>
<path class="st135" d="M548.77,262.23c0,0,9.63-4.89,11.93-7.83l1.07-0.24c0,0-1.95,17.91-16.27,22.63L548.77,262.23z"/>
<path d="M443.79,259.54c0,0,7.2,5.38,11.97,28.09c0,0-5.97-2-2.54,2.73c0,0,7.12,12.39,34.44,16.68c0,0,15.71,1.07,26.14-0.98
	c0,0,32.27-2.67,39.49-21.63c0,0,10.63-10.08,13.14-31.5l-4.66,1.23c0,0-1.56,17.31-16.27,22.63c0,0-5.66,5.26-7.17-0.73
	c0,0-2.98,8.43-26.63,8.78c0,0,15.07,4.23,26.05-3.22l3.8,1.32c0,0,6-5.96,9.8-6c0,0-10.24,22.86-40.83,24.44
	c0,0-31.85,3.3-49.9-9.66l1.32-8.93c0,0,16.14,2.96,18.58,2.05c0,0-22.05-0.55-25.46-18.58L443.79,259.54z"/>
<path class="st136" d="M620.96,253.24c9.96,28.72-2.69,48.55-2.69,48.55l-3.35-1.65c-1.32,5-18.4,30.51-18.4,30.51
	c25.95-14.3,44.02-46.51,44.02-46.51l-7.49-37.39l-13.25,4.39L620.96,253.24z"/>
<polygon class="st136" points="636.06,241.49 645.3,280.13 640.02,285.38 633.06,246.75 "/>
<path d="M472.43,238.17c0,0-14.44-14.63,3.32-20.49c0,0,5.27-0.59,14.24,6.34l4,0.2c0,0,4.78-5.37,11.46-6.05l8.84,0.2
	c0,0,5.26,2.15,8.19,8.78l-0.55,5.71c0,0-1.79,4.54-8.81,7.85c0,0,11.68-4.15,12.56-7.27l-0.26-6.98c0,0-2.34-8.39-10.54-10.93
	l-9.42-0.48c0,0-12.44,4.1-12.92,5.85l-11.12-5.27c0,0-9.76-2.24-11.9,1.27c0,0-8.08,3.81-6.45,11.76
	C463.05,228.66,464.53,237.69,472.43,238.17z"/>
<path d="M456.31,183.81c0,0,8.68-9.54,22.61-7.02c0,0,8.29,3.51,9.38,3.29c0,0,2.95-5.27-1.37-7.17c0,0-9.32-6.1-18.19-1.82
	C468.74,171.08,455.18,174.42,456.31,183.81z"/>
<path class="st50" d="M525.4,180.59c0,0,16.78-8.58,29.66-2.54c0,0,12.88,6.99,13.07,8.47c0,0-17.17-30.4-45.65-9.68
	C522.47,176.84,522.47,180.01,525.4,180.59z"/>
<path class="st137" d="M467.17,224.81c0,0,6.28-14.75,22.82-0.78l4,0.2c0,0,4.67-6.2,11.46-6.05l8.84,0.2c0,0,6.73,4.22,8.19,8.78
	c0,0-16.03-11.44-26.09,0l-6.69,0.67C489.69,227.82,475.23,216.59,467.17,224.81z"/>
<path class="st134" d="M473.31,198.93c0,0,1.32,3.95,3.8,3.37c0,0,5.85-3.8,1.9-4.68c0,0-6-3.8,4.39-2.63c0,0,0.88,0.42,4.24,3.58
	c0,0-4.39-18.14-19.9-6.98c0,0-9.51,7.21-3.8,21.11h10.1C474.04,212.69,465.7,201.71,473.31,198.93z"/>
<path class="st134" d="M541.35,218.01h-12.73c0,0-6.73-7.8,0-21.12c0,0,4.5-10.69,16.88-7.18c0,0,10.04,2.28,11.65,13.8
	c0,0-7.24-12.61-15.76-6.62c0,0,8.15,2.63,0.69,7.75c0,0-4.24-1.04-5.71-4.32C536.37,200.32,531.84,211.93,541.35,218.01z"/>
<path class="st0" d="M474.04,212.69l0.84,2.24c0,0-7.45-1.56-11.68,0l-4.23,1.71l-4.96-4.64l8.11,1.42c0,0-4.51-8.22-2.65-14.66
	c0,0,7.45-20.88,23.2-13.21c0,0,8.8,2.4,8.56,17.97c0,0-1.38,5.52-2.23,7.86c-0.84,2.34,4.71,3.29,7.38,1.76
	c0,0,10.65-5.78,16.5-2.85c0,0,3.22,1.17,4.76,2.41c0,0-11.56-3.07-15.36,0c0,0-5.63,2.49-9.44,3c0,0-2.93-0.29-5.63-3
	c0,0,1.79-10.54,0.44-14.13c0,0-4.4-15.9-16.76-8.93c0,0-10.79,4.28-8.39,18.32l1.44,4.74H474.04z"/>
<path class="st138" d="M473.74,204.49c0,0,1.54,6.88,8.19,5.19c0,0,1.54-9.51,4.76-1.98c0,0,0.66,4.9-6.48,6.51
	C480.22,214.22,470.31,210.49,473.74,204.49z"/>
<path class="st139" d="M474.04,212.69c0,0-8.8-10.62-0.73-13.75c0,0,1.68,5.41,4.77,2.67c0,0,4.67-2.98,0.75-4.12
	c0,0-5.43-3.69,4.58-2.51c0,0,4.07,3.01,4.24,3.58s1.98,4.22-0.44,14.13l-2.32-0.69c0,0,1.83-1.58,1.81-4.29
	c0,0-2.32-5.98-4.11-0.59l-0.64,2.57c0,0-6.03,2.24-8.19-5.19c0,0-2.88,4.26,3.62,8.29L474.04,212.69z"/>
<path class="st140" d="M474.04,212.69l0.84,2.24c0,0,5.27,0.34,6.52,0.71l5.8-2.95l-2.32-0.69c0,0-1.85,1.71-4.66,2.22l-2.86-1.44
	L474.04,212.69z"/>
<path class="st141" d="M557.15,217.66c0,0-8.39-0.37-14.1,0.95c0,0-6.07,2.56-11.71,6.37v-2.06c0,0,6.08-5.82,10-4.9
	c0,0-9.39-4.75-4.98-17.7c0,0,1.95,3.81,5.71,4.32c0,0,7.59-4.23-0.69-7.75c0,0,7.47-6.29,15.76,6.62c0,0,0.54,8.37-3.63,11.01
	L557.15,217.66z"/>
<path class="st142" d="M538.08,206.76c0,0,5.78,6.8,10.24,5.41c0,0,3.96-3.95,4.14-6c0,0,1.93,1.9,1.71,5.05c0,0-0.4,4.71-7.1,5.41
	C547.08,216.64,537.28,214.96,538.08,206.76z"/>
<path class="st143" d="M557.04,202.81c0,0,5.17,6.97-2.29,12.78l-1.23-1.07C553.52,214.52,558.02,209.89,557.04,202.81z"/>
<path class="st126" d="M525.63,212.69c0,0-2.14-28.55,20.49-22.8c0,0,8.89,2.38,10.93,12.92c0,0,4.75,7.16-2.29,12.78l2.4,2.08
	c0,0,2.73,0,9.24,3.15h1.02c0,0-4.98-3.8-8.64-4.76l-0.36-1.68c0,0,8.52-1.01,10.02,0.56c0,0,0.19-2.96-8.49-2.61
	c0,0,1.98-4.91,0.29-9.51c0,0-1.76-19.61-21.66-18.36C538.59,184.45,516.1,189.86,525.63,212.69z"/>
<path class="st144" d="M473.02,153.91c0,0,45.11-3.04,70.95,0.42C543.97,154.33,505.15,138.26,473.02,153.91z"/>
<path class="st145" d="M571.9,160.91c0,0,41.56,16.19,53.85,32.58c0,0-32.72,5.12-17.75,51.64c0,0,14.69,10.93,10.22,45.33
	c0,0-4.38-14.2-5.15-15.22c0,0,6.54,47.62-60.34,78.75c0,0-34.75,20.96-62.77,11.39c0,0-54.47-6.79-59.47-58.71
	c0,0-16.46-56.25,20.06-86.84l5.08,4.73c0,0-32.43,18.71-22.7,63.99c0,0,13.49,58.36,84.66,56.54c0,0,24.07,0.01,51.78-28.38
	c0,0,26.53-26.84,20.29-61.17l-2.36-16c0,0,12.31,17.17,12.11,21.27c0,0,2.73-18.14-11.32-31.8l5.95,0.2l-5.56-11.11l4.49,6.8
	c0,0,16.24-41.62-17.07-56.16L571.9,160.91z"/>
<path class="st146" d="M574.59,168.25c0,0,34.74,9.54,18.74,57.51l-4.79-7.75l6.16,11.66l-6.55-0.74c0,0,14.66,12.88,11.32,31.8
	c0,0-9.58-17.88-12.11-21.27l2.23,15.11c0,0-7.18-20.38-23.15-22.97c0,0,20.81-8.92,17.21-43.76
	C583.64,187.84,579.06,172.25,574.59,168.25z"/>
<path class="st147" d="M447.73,212.49l2.87,7.27c0,0-21.39,20.95-22.35,43.68c0,0-3.14,28.62,7.55,58.76c0,0-18.45-23.8-10.87-66.73
	l-4.33,8.67c0,0-3.6-11.54,14.98-33.03C435.58,231.1,446.75,217.22,447.73,212.49z"/>
<path class="st148" d="M485.76,149.28c0,0-10.72,1.21-17.31,5.9c0,0,16.29-0.83,18.75,5.66c0,0,8.61,11.02,24.41,5.61
	c0,0,19.91-10.3,22.1-9.71c0,0,16.96-1.69,26.75,1.32c0,0-10.58-9.13-39.92-9.94c0,0,21.44,5.03,22.18,5.8c0,0-47.31-5.74-68.7-0.11
	C474.04,153.8,484.2,148.96,485.76,149.28z"/>
<path class="st149" d="M549.72,153c0,0,25.7,7.45,28.05,10.47l-5.56-2.31l3.94,7.78l-2.08-0.69c0,0-8.54-9.31-22.13-12.18l7.44,1.59
	C559.38,157.67,560.2,156.53,549.72,153z"/>
<path d="M567.23,231.05c0,0,15.49,2.88,22.35,23.52s-10.31,54.17-20.16,62.06c0,0-25.4,27.49-51.78,28.38
	c0,0-47.72,10.47-70.97-25.27c0,0-29.36-43.02-8.86-77.05c0,0,11.12-16.14,17.87-18.22l4.58,1.32c0,0-20.69,9.71-24.81,33.31
	c0,0-5.91,31.22,15.55,58.63c0,0,20.88,30.92,64.19,24.88c0,0,36.64-4.19,60.76-42.05c0,0,14.27-21.66,6.92-51.29
	c0,0-8.46-13.12-26.71-18.95L567.23,231.05z"/>
<path d="M607.75,244.91l12.06,6.24c0,0,13.77,21.85-1.43,51.07l-3.45-2.07c0,0,0.79,5.28-18.4,30.51l3.95,7.41
	c0,0-46.18,33.51-72.35,38.91l-12.28-2.3c0,0-30.31,3.72-51.65-12.15c0,0-28.13-17.66-32.64-33.96l-2-1.65l-4.63-10.29l-4.19-7.95
	c0,0-6.13-19.08-4.81-35.18l9.01-18.05c0,0-7.59,40.78,10.87,66.73c0,0,28.39,60.23,94.39,40.69c0,0,39.78-12.92,60.97-36.46
	c0,0,23.32-23.62,21.97-51.25c0,0,5.03,9.17,5.15,15.22C618.27,290.39,620.59,254.87,607.75,244.91z"/>
<path class="st150" d="M636.06,241.49l9.24,38.64c0,0-5.38,2.62-24.02,29.45c0,0-16.22,16.87-24.76,21.07l3.78,8.07
	c0,0,51.19-40.88,50.85-55.09v-6.84l-9.15-42.2L636.06,241.49z"/>
<path class="st151" d="M541.39,222.92c0,0,5.85-1.23,25.04,0c0,0-4.53-8.43-25.04-3.55l-3.36,3.55H541.39z"/>
<path class="st152" d="M456.77,227.82l3.77,3.28c0,0-32.12,10.48-17.76,64.17l8.21,22.49c0,0-31.3-35.22-8.34-76.27
	C442.65,241.49,453.28,229.83,456.77,227.82z"/>
<path class="st153" d="M450.99,317.75c0,0,65.23,54.48,122.61-25.31c0,0,14.39-33.49,2.34-49.75c0.27-0.61,7.41,3.46,8.1,10.25
	c0,0,8.66,37.91-22.27,65.19c0,0-19.19,26.85-59.75,25.25C502.02,343.38,471.82,344.68,450.99,317.75z"/>
<path class="st0" d="M468.45,155.18l-3.46,3.79c0,0,11.32-4.66,23.02,5.29c0,0,12.81,13.6,27.13,4c0,0,16.96-12.63,38.49-9.29
	c0,0,24.71,8.97,27.05,28.98c0,0,4.08,31.42-23.53,42.47l9.95,1.28c0,0,24.06-12.32,16.03-46.17c0,0-4.93-36.58-51.78-28.83
	c0,0-21.79,11.07-25.89,10.95c0,0-7.93,2.47-18.25-6.8C487.21,160.84,486.51,154.88,468.45,155.18z"/>
<path class="st50" d="M420.6,264.13l-4.68,9.38l-3.32,3.28c0,0-7.9-19.83,16.97-48.97c0,0,3.54-5.55,5.87-4.9
	c0,0-14.72-33.79,9.02-39.11c0,0-3.2-13.45,9.54-25.48l10.98,0.63c0,0-16.39,9.26-14.39,31.36c0,0,4.74,21.09-15.02,40.77
	C435.58,231.1,418.9,249.85,420.6,264.13z"/>
<path class="st154" d="M442.78,190.33c0,0-9.1,2.35-3.25,25.26C439.53,215.59,445.45,209.19,442.78,190.33z"/>
<path class="st155" d="M460.38,230.95c0,0,6.75,7.15,11.89,7.07c0,0,11.58,8.32,29.34,1.68c0,0,7.22-4.1,10.15-0.78l2.37,1.63h-8.61
	c0,0,4.09,4.61,10.53,1.98c6.44-2.63,14.44-3.02,12.49-16.87l2.66-0.83l10.04-5.61l-3.36,3.55c0,0,20.46-0.85,27.51-0.05l4.53,1.06
	l-12.15,6.64c0,0,15.77,6.52,22.09,14.19l-4.08-2.07c0,0,8.1,10.25,4.8,24.8l-7.14-4.75c0,0,2-17.8-22.53-17.41l8.05,5.56
	c0,0-30.68,20.5-72.4,15.85c0,0-36.14-0.84-41.3-11.24l-2.36,3.4l-3.15,1.97C439.74,260.73,443.24,236.28,460.38,230.95z"/>
<path class="st156" d="M442.9,258.76c0,0,10.16,5.31,12.86,28.87c0,0-8.9-2.26,2.28,7.83c0,0,29.6,21.66,73.31,6.05
	c0,0,19.64-5.42,29.95-31.88c0,0,5.01-15.13,5.13-16.7c0,0,2.52-0.48,7.17,9.8l7.14,4.75c0,0,1.23,20.51-18.97,39.46
	c0,0-27.06,31.33-58.56,28.95c0,0-28.86,1.61-52.22-18.14c0,0-15.72-33.02-11.25-57.02L442.9,258.76z"/>
<path class="st157" d="M462.14,309.58c0,0,9.37,14.53,57.07,9.56C519.21,319.14,473.26,333.97,462.14,309.58z"/>
<path class="st158" d="M483.06,160.84c0,0-17.48-6.56-32.46,20.42C450.6,181.26,455.57,148.55,483.06,160.84z"/>
<path class="st159" d="M467.17,224.81c0,0,8.21-7.46,22.53,3.01l6.69-0.67c0,0,8.45-10.56,26.09,0c0,0,2.08,8.59-8.19,13.98
	c0,0-3.83-5.76-12.52-1.27c0,0-15.18,7.37-29.34-1.68C472.43,238.17,464.99,230.22,467.17,224.81z"/>
<path d="M484.33,237.39c0,0-0.88-12.29-10.73-12.58c0,0-2.63,1.27,0,5.37C473.6,230.17,479.84,235.64,484.33,237.39z"/>
<path d="M493.99,237.39c0,0,2.05-7.8,12.1-11.12c0,0,6.05-2.15,8.19,2.83c0,0,0.39,4.68-5.27,5.95
	C509.01,235.05,502.28,232.32,493.99,237.39z"/>
<path class="st160" d="M464.14,222.92l-5.17-6.28c0,0-7.84-5.86-4.96-16.34c0,0-0.61-11.96,1.06-15.91
	c1.67-3.94,3.87-13.67,22.45-14.51c0,0,8.91,1.06,11.48,5.45c0,0,0.08,3.8-0.8,4.17c-0.88,0.37-0.88,0.37-0.88,0.37
	s6.11,6.09,14.18,6.21l11.07-1.09l11.06-5.29l-1.16-2.84c0,0,10.1-8.9,27.77-5.77c0,0,12.58,6.05,17.89,15.45l12.63,15.43
	c0,0,4.09-20.99-9.77-32.08c0,0-13.67-17.63-36.37-10.11c0,0-10.59,2.17-26.43,11.14c0,0-6.82,3.98-19.19-5.72
	c0,0-8.43-11-24.51-0.43c0,0-13.62,11.02-13.89,16.51c0,0-0.44,5.33,0,9.07c0,0,1.46,8.48-0.88,16.71
	c-2.34,8.23-2.06,5.74-2.06,5.74s1.92,12.44,12.6,13.03l-3.49,2.01l6.62,7.38l5.63,2.19C469.02,237.39,460.12,231.44,464.14,222.92z
	"/>
<path class="st161" d="M458.96,216.64c0,0,5.87-4.08,15.92-1.71c0,0-10.37,3.34-10.74,7.98L458.96,216.64z"/>
<path class="st162" d="M481.4,215.64l5.8-2.95c0,0,2.59,3.6,8.18,2.46l8.74-3.37c0,0,11.63-0.41,13.51,0.91
	c0,0-7.07-6.05-16.79-1.54c0,0-9.39,5.75-12.14,0.81l1.62-5.02c0,0,4.29,2.41,19.52,0c0,0,12.54-0.47,13.43,0.52l0.87,0.92
	l1.26,3.74l0.23-1.96c0,0,0.87,6.88,2.99,7.85h12.73c0,0-4.51-0.52-10,4.9v2.06l-2.66,0.83c0,0,2.74,13.24-8.1,15.28l-6.31,2.33
	c0,0-5.97,0.87-8.61-2.72c0,0,7.57,0.07,8.61,0c0,0,11.12-5,11.12-7.32l-0.23-7.58c0,0-4.43-9.42-10.31-10.08l-9.42-0.68
	c0,0-12.7,4.07-12.92,5.85L481.4,215.64z"/>
<path class="st162" d="M481.4,215.44l5.8-2.95c0,0,2.59,3.6,8.18,2.46l8.74-3.37c0,0,8.91-0.97,13.51,0.91c0,0-6.98-4.37-16.79-1.54
	c0,0-8.86,5.77-11.93,0.85l1.4-5.05c0,0,4.29,2.41,19.52,0c0,0,12.71-0.9,13.59,0.09l0.7,1.35l1.26,3.74l0.23-1.96
	c0,0,0.87,6.88,2.99,7.85h12.73c0,0-4.51-0.52-10,4.9v2.06l-2.66,0.83c0,0,2.74,13.24-8.1,15.28l-6.31,2.33c0,0-6.28,0.82-8.92-2.76
	c0,0,7.88,0.12,8.92,0.04c0,0,11.12-5,11.12-7.32l-0.23-7.58c0,0-4.43-9.42-10.31-10.08l-9.42-0.68c0,0-12.7,4.07-12.92,5.85
	L481.4,215.44z"/>
<path class="st163" d="M462.12,213.42l-4.15,1.68c0,0-6.63-4.26-3.96-14.8c0,0-1.17-17.2,2.3-18.94l0,2.45
	c0,0,12.68-14.39,31.02-3.95c0,0,6.6,7.8,25.25,5.12l11.06-5.29l1.76,0.9c0,0,14.15-9.22,29.66-2.54l12.49,7.26l13.2,16.64
	c0,0-2.07,15.78-10.68,21.96l-3.65-1l-5.45-4.36l6.44,2.26l-8.64-4.76l-0.36-1.68c0,0,9.39-0.95,10.02,0.56c0,0-1.07-2.98-8.49-2.61
	c0,0,1.42-4.66,0.29-9.51c0,0-1.73-19.75-21.66-18.36c0,0-17.17,4.02-14.46,23.51c0,0-8.77-1.77-14.29-1c0,0-13.59,2.14-19.52,0
	c0,0,4.29-16.22-8.93-21.92c0,0-12.41-6.4-20.65,11.51C460.76,196.53,457.06,202.03,462.12,213.42z"/>
<path class="st67" d="M646.04,191.58c0,0,41.81,44.1,43.96,45.42c0,0,15.61,19.94-2.73,26.73c0,0-12.52,8.25-34.55,1.96h-3.97
	l-2.27-8.44c0,0,36.3,11.28,43.13-4.31c0,0,0.78-11.08-25.17-32.55l-24.41-28.81H646.04z"/>
<path class="st164" d="M636.06,186.04l3.72,2.97l4,6.19c0,0,20.55,24.84,30.22,33.51c0,0,15.06,14.77,15.6,24.23
	c0,0-4.71,16.49-43.13,4.31L642,234.59c0,0,3.17-22.91,1.42-24.61c0,0,39.54,40.34,40.73,42.95c0,0,1.52-4.42-48.41-55.66
	L636.06,186.04z"/>
<path class="st165" d="M472.83,147.75l3.6,3.64c0,0,40.52-5.53,80.61,3.87c0,0,52.39,18.25,68.77,38.17c0,0,53.25,52.19,58.34,59.51
	c3.47,3.66-7.84-14.85-35.62-42.76c0,0-27.42-28.79-37.7-33.85c0,0-33.18-21.83-58.36-27.03c-25.5-5.27-29.03-9.27-75.72-2.93
	L472.83,147.75z"/>
<path class="st166" d="M593.17,92.49c0,0,16.14,12.5,20.42,27.81c0,0,4.7,21.48,1.86,50.94c0,0,20.54,16.9,20.54,18.28l0.08-3.49
	c0,0-6.92-7.21-18.32-15.19c0,0,1.89-34.63,0.63-40.54c0,0-1.92-16.06-14.83-32.48L593.17,92.49z"/>
<path class="st167" d="M640.11,189.44l-4.37-2.92c0,0,0-42.01-2.29-47.8c0,0-7.29-22.39-27.87-40.02c0,0,17.98,7.31,31.2,36.17
	C636.78,134.88,643.27,155.73,640.11,189.44z"/>
<path class="st168" d="M608.05,233.3c0,0-1.16-12.89,0-17.67c0,0,5.98-15.97,15.31-15.76c0,0,12-2.54,13.56,12.81
	c0,0,3.67,17.18-8.19,27.05C628.72,239.74,614.3,252.03,608.05,233.3z"/>
<path class="st169" d="M619.81,215.59c0,0,6.19-9.91,11.89,1.05c0,0,2.2-11.58-8.56-8.8c0,0-9.34,3.51-8.22,20.93
	c0,0,1.92-11.12,4.88-7.46c0,0,5.6,6.44-2.59,14.63c0,0,8.28,1.03,8.24-14.26C625.45,221.67,625.33,216.89,619.81,215.59z"/>
<path class="st170" d="M598.64,449.89c0,0,36.43,2.27,50.28,22.1c0,0,15.31,1.94,11.19,32.97c0,0-2.62,10.61,9.39-12.97
	c0,0,10.35,15.78,10.3,21.85c0,0-1.92,20.04-5.96,27.25l-1.91-10.26c0,0-14.42,16.4-25.38,22.04c0,0-10.18,7.47-10.32,17.27
	c0,0-1.58-8.98,1.14-16.58c0,0-16.14,40.84-57.81,31.54c0,0,19.07-5.19,26.92-13.9c0,0-26.84,10.98-53.56,3.66
	c0,0-19.27-2.41-28.1-8.05c0,0,20.97,16.02,29.7,16.24c0,0-32.78-2.46-69.75-19.56l15.69,2.81c0,0-32.85-10.05-27.99-18.84
	c0,0,14.44-22.04,20.35-25.52c0,0,14.1-13.78,21.27-16.24l15.8-8.05l-10.72,4.12c0,0-25.21,1.64-46.24,21.16
	c0,0-39.97,30.61-44.74,37.41c0,0,61.46,41.4,74.45,45.44c0,0,40.57,23.45,87.87,18.16c0,0-22.29-9.52-26.58-15.51
	c0,0,32.35,15.06,42,9.84l-8.78,9.8c0,0,23.21-4.07,33.07-15.8l-2.63,12.83c0,0,19.84-13.25,26.05-26.29
	c0,0,13.36-17.73,17.32-18.32c0,0-6.74,11.41-6.73,13.46c0,0,14.53-5.98,26.42-17.28s15.41-12.38,17.55-18.99
	c0,0,1.81-3.32,0.6-11.64c-1.04-7.14-4.31-17.97-12.87-33.54c0,0-20.23-35.72-46.32-47.49C649.61,465.02,620.61,447.6,598.64,449.89
	z"/>
<path class="st19" d="M708.79,546.05c0,0-19.73,30.49-32.56,31.96l-6.07,9.99l1.77-10.58c0,0-19.05,8.77-21.77,19.61
	c0,0-11.87,17.56-17.45,19.02l-0.53-10.27c0,0-16.63,16.71-25.47,14.36l-6.21,7.15c0,0,16.47-1.54,29.75-15.03l-2.63,12.83
	c0,0,17.94-12.63,25.12-24.3l14.05-12.8l-2.54,5.96c0,0,20.59-8.81,26.42-17.28l15.81-15.41l2.34-2.28V546.05z"/>
<path class="st171" d="M464.99,158.97l-10.98-0.63l6.53-5.22l12.29-5.37l4.86,3.66C477.68,151.41,469.24,153.71,464.99,158.97z"/>
<path class="st172" d="M259.49,581.83c0,0-0.83-1.59,5.22-0.73c0,0,2.15,2.51,6.73,2.19c0,0,12.68-5.02,20.19-1.9
	c0,0-13.8,2.68-17.12,4.15l-6.93,5.19l-8.13-4.89l-0.35-0.29L259.49,581.83z"/>
<path class="st173" d="M504.52,444.76c0,0,41.99-2.32,67.3,14.88l1.4-1.76c0,0-23.73-17.6-66.56-17.3l-1.06,1.37l2.47,1.92
	L504.52,444.76z"/>
<path d="M576.14,454.97l-2.85,2.89c0,0-23.87-17.58-66.63-17.28l2.38-3.24l4.37,0.24l30.44,3.31
	C543.84,440.89,564.5,447.26,576.14,454.97z"/>
<path class="st174" d="M603.52,418.02c0,0,1.41-23.96,15.5-36.8c0,0-12.41,27.91-12.02,35.21L603.52,418.02z"/>
<path class="st175" d="M745.31,361.06c0,0,47.28,46.55,4.74,128.78l-1.62,3.65l-0.85,1.9l-1.8,4.04l0.31-11.83l-13.66,35.43
	l2.3,15.33c0,0,5.28-7.31,13.28-36.57l0.4,5.65c0,0,24.8-29.69,26.03-68.35C774.44,439.07,779.67,391.55,745.31,361.06z"/>
<polygon points="648.74,265.68 652.71,265.68 653.42,265.88 654.26,268.61 652.71,277.97 651.15,276.79 "/>
<path class="st176" d="M447.58,683.21l36.09,2.19c0,0,4.34,0.58,4.49,4.8l0.59,17.29c0,0,0.61,3.76-2.54,3.7l-37.46-3.7h-1.17
	c-0.05-0.95-0.09-1.9-0.14-2.86c0.49,0.35,1.08,0.68,1.79,0.91c3.18,1.02,6.13-0.89,6.72-1.28l28.7,1.42l-1.39-16.96l-34.72-2.31
	l0.23,2.25l-1.98,0.76L447.58,683.21z"/>
<path class="st177" d="M448.55,686.43l34.72,2.31l1.39,16.96l-29-1.39l0,0c0,0,6.46-4.84,2.19-12.52c0,0-2.81-4.11-9.08-3.11
	L448.55,686.43z"/>
<polygon class="st101" points="638.24,963.46 639.44,962.82 638.05,962.54 "/>
<path class="st52" d="M505.67,441.92l2.72-3.68c0,0-6.15,0.59-6.39,0.83L505.67,441.92z"/>
<path class="st2" d="M277.35,483.92L277.35,483.92c0,0-1.86-2.62,9.67-9.22"/>
<path class="st68" d="M376.28,728.06c0,0,6-1.52,9.44-5.35l2.81-2.43l-1.67,1.97c0,0-1.7,6.29-9.17,9.37L376.28,728.06z"/>
<path class="st57" d="M447.2,700.51c0,0-4.88,0.54-3.98-6.35c0,0,0.2-2.63,3.38-3.17l0.19-1.55c0,0,4.77-2.81,9.47,0.82
	c0,0,6.92,4.63,0,14.03c0,0-4.19,3.16-8.82,0.65L447.2,700.51z"/>
<ellipse class="st178" cx="451.23" cy="696.06" rx="5.01" ry="2.41"/>
<path class="st27" d="M446.8,654.69l1.94-50.1c0,0,13.07,6.95,19.6,12.04c6.53,5.09,3.5,23.73,3.5,23.73l-10.25,33.63l-8.78-0.88
	L446.8,654.69z"/>
<path class="st24" d="M451.01,585.17l8.13,5.42l-0.66,15.91l-0.32,3.42c0,0-7.83-4.6-13.02-6.97L451.01,585.17z"/>
</svg>
