<svg xmlns="http://www.w3.org/2000/svg" xml:space="preserve" id="Layer_1" x="0" y="0" viewBox="0 0 1080 1080"><style>.st0{fill:#010101}.st2{fill:none}.st5{fill:#040202}.st19{fill:#555759}.st24{fill:#da9a28}.st26{fill:#fccd0a}.st27{fill:#fdce07}.st30{fill:#110809}.st41{fill:#fed206}.st50{fill:#020202}.st52{fill:#050303}.st57{fill:#070609}.st58{fill:#0b0706}.st63{fill:#0c0706}.st66{fill:#b5b5b9}.st67{fill:#040504}.st68{fill:#0f0708}.st80{fill:#d0982a}.st101{fill:#070705}.st102{fill:#50534c}.st103{fill:#2f3130}.st126{fill:#020203}.st134{fill:#fff}.st136{fill:#373832}.st162{fill:#b9b8b0}</style><path d="m625.8 193.42 18.14 16.75s.59 10.1-1.95 24.42l-5.94 6.9-3.01 5.27-13.25 4.39-11.81-6.01c.01-.01-18.07-43.22 17.82-51.72" class="st0"/><path fill="#535453" d="M312.87 437.47s-2.61 6.97 5.39 16.14c0 0-24.94.31-27.25 7.77 0 0 5.5-5.46 16.82-4.4 0 0-18.46 7.81-19.94 13.1 0 0 10.34 12.9-10.65 14.36 0 0 31.13-24.75 93.56-23.07 0 0-14.92 5.87-16.78 8.12 0 0 15.61-5.13 46.15-8.66 0 0 39.55-6.97 43.87-8.52 0 0 31.24-7.5 53.39-7.64 0 0-6.44.24-7.61 5.12 0 0 6.63-2.73 26.05 7.76 0 0-14.54 10.49-15.8 10.73 0 0 11.32 3.76 10.97 10.05 0 0-11.17 3.66-13.75 8.44 0 0-.29-4.39-12.39-1.37 0 0 5.52-.48 7.18.99 0 0-48.83 17.64-74.88 36.08 0 0-42.93 34.11-82.82 37.46 0 0 29.43-16.08 40.68-26.05 0 0-38.59 22.62-87.85 22.33 0 0 18.78 5.29 29.76 2.84 0 0-64.07 27.66-69.93-22.68 0 0-7.08-57.46 39.5-95.7-.02-.01 16.17-4.07 26.33-3.2"/><path d="m636.06 186.04 3.7 4.29s.59-33.95 0-36.78c0 0-.29-21.17-14.15-37.36 0 0-6.15-8.78-16.19-15.12 0 0 16.1 18.93 15.9 20.39 0 0 8.95 13.75 9.21 24.24 0 0 1.83 10 1.53 40.34" class="st2"/><path fill="#fed01e" d="m472.83 148.04-12.29 5.37s2.28-37.54 20.29-51.8c0 0 16.72-18.18 38.57-21.69 0 0 19.47-3.77 42.88 1.01 0 0 13.85 3.61 24.19 8.49 0 0 8.19 5.37 13.75 23.22 0 0 5.07 28.1-2.24 46.63 0 0-23.18-9.5-45.17-13.36-1.32-.17 2.2-21.67-7.72-35.48 0 0-8.87-13.3-27.11-12.91 0 0-16.97-1.07-23.8 5.27 0 0-9.4 5.63-16.03 19.19.01-.02-6.88 17.67-5.32 26.06"/><path fill="#4b5050" d="M478.08 126.67c1.81-3.32 4.56-7.47 8.69-11.5 8.23-8.05 17.37-11.19 22.29-12.48 0 0 9.79-1.66 19.01.69 2.44.99 5.49 2.59 8.46 5.23 8.05 7.14 9.68 16.71 10.08 19.95-1.68-.68-3.46-1.33-5.33-1.93a83 83 0 0 0-15.58-3.43c-3.12-.37-6.46-.66-10.01-.82-4.45-.2-8.61-.16-12.43.03a604 604 0 0 0-22.51 3.77c-.89.15-1.78.32-2.67.49"/><path d="M475.95 129.94s13.99-30.21 46.54-25.97c0 0 16.82.14 24.13 24.58l5.78 3.88s1.2-25.59-25.12-34.16c0 0-14.78-3.1-27.94 1.19.01 0-19.96 7.83-23.39 30.48" class="st5"/><path fill="#070508" d="M483.61 125.63s32.97-9.17 63.07 2.93l5.78 3.88.01 16.85h-3.93l.29-13.49s1.37-2.34-12.05-6.44c0 0-35.99-3.01-43.12-.8 0 0-14.85 1.1-16.46 7.98l-.45 9.83-3.92 1.39s-1.02-11.44 3.17-20.68z"/><path fill="#fed123" d="M476.74 146.36s37.44-6.75 71.8 2.09l.18-13.62s-4.23-4.34-13.48-5.74c-9.25-1.41-41.01-2.14-44.51-.17 0 0-15.18-.36-13.95 12.37.01 0-.77 3.9-.04 5.07"/><path fill="#d59b29" d="m552.44 145.43-1.35 4.35s18.93 4.49 37.95 14.63c0 0 19.75 10 25.6 15.07 0 0 12 10.68 21.18 18.21l.58-8.25s-17.37-16.57-20.88-17.85c0 0 3.91-45.34-3.99-57.04 0 0-11.13-21.63-25.05-25.14 0 0 13.5 14.04 15.11 37.8 0 0 1 23.71-4.07 31.63 0 0-34.98-12.41-40.04-11.99z"/><path fill="#cb952b" d="M603.55 97.82s16.02 21.42 15.07 37.97c0 0-.38 29.8-.88 35.05 0 0 16.02 11.97 18 15.68 0 0 1.1-33.17-.76-38.34 0 0-1.1-19.17-9.95-27.12 0 .01-13.95-20.97-21.48-23.24"/><path fill="#f6f2c6" d="M551.51 74.1s3.07.44 16.14 1.85c0 0-8.04-10.29-16.14-1.85"/><path fill="#040305" d="m551.51 74.1-6.05-1.32s3.22-5.76 9.71-6.68c0 0 5.02-.68 9.02.68 0 0 7.98 3.12 9.93 10.78l-6.47-1.61s-1.23-2.72-7.15-4.9c0 .01-5.23-1.58-8.99 3.05"/><path fill="#040306" d="m460.54 153.11-6.53 5.22s2.93-26.58 7.17-35.44c0 0 7.9-19.53 18.22-28.46 0 0 16.61-13.54 29.12-16.68 0 0 6.95-3.08 19.97-4.39 0 0 16.11-.77 16.97-.58l6.05 1.32 16.14 1.85s18.44 4.61 21.07 6.37 14.46 6.44 22.36 12c0 0 20.68 15.58 24.97 26.05 0 0 8.39 14.12 9.05 23.92 0 0 2.29 27.19.93 47.29h-6.01s2.19-53.42-5.36-60.46c0 0-11.07-25.3-31.12-33.29 0 0-28.92-15.71-46.3-17.42 0 0-28.68-3.59-41.43.9 0 0-19.7 4.53-35.56 20.58.01-.01-17.53 18.8-19.71 51.22"/><path fill="#050404" d="m585.18 445 1.95 7.22s9.37-4.64 34.14 1.17c0 0 38.83 8.39 65.95 46.44 0 0 32.39 45.46 17.56 62.43 0 0-22.63 24.58-39.02 30.83l9.76 12.68s8.58-17.56 16.19-19.71c0 0 13.46-9.95 16-15.61l6.83-8.39s6.9-26.67-13-55.94c0 0-12.91-31.96-63.35-54.21-.01 0-27.44-14.13-53.01-6.91"/><path fill="#070507" d="M570.09 486.87s.68-17.17 17.75-34.63l-1.95-7.22s14.05-26.92 56.19-36c0 0-53.26.29-64.58 37.56l-1.37 8.39s-11.51 9.66-13.07 30.92z"/><path fill="#969793" d="m598.64 449.89-10.62 1.84s-16.9 17.29-17.93 35.13l8.96.79s3.86-20.08 19.59-37.76"/><path fill="#949392" d="M514.1 505.69s31.41-4.88 33.17-5.46c1.76-.59 39.41-1.56 43.9 1.95 0 0 20.49 4.68 23.61 7.02l3.12 2.34s-47.03-39.79-103.8-5.85"/><path d="m617.89 509.6-3.12-.39s-38.63-32.44-95.6-7.44l-8.97-5.05s-7.04-6.94-13.02-9.85c0 0 3.35-5.97 13.75-8.44 0 0 .73-6.34-10.97-10.05 0 0 14.15-9.41 15.8-10.73 0 0-12.48-7.81-26.05-7.76 0 0 1.05-5.52 7.61-5.12 0 0 3.05-3.74 4.68-5.71l6.15 4.78s-9.47 2.05-.29 3.42c0 0 12.88 7.17 16.68 9.22 0 0-7.04 8.3-13.46 11.27 0 0 2.62-.58 8.49 11.85 0 0-8.79 6.76-10.97 6.29l7.61 8.78s32.73-12.29 46.87-8.78l7.02.98c-.01 0 29.5-1.12 47.79 22.73"/><path fill="#888886" d="M511.96 484.03s16.06-3.54 52.07-5.96l-.96 7.82s-14.1-3.22-46.87 8.78c0 0-3.19-2.94-7.61-8.78z"/><path fill="#b0b0ae" d="M504.59 444.74s40.17-3.35 67.3 14.88c0 0-6.79 12.33-7.86 18.45 0 0-36.12 2.35-52.07 5.96l7.61-4.43s-4.1-9.66-8.49-11.85c0 0 12.73-9.66 13.46-11.27 0 0-14.02-8.45-19.23-9.71 0 0-3.26-.34-.72-2.03"/><path d="M598.64 449.89s38.46 2.74 50.28 22.1c0 0 16.76 1.81 12.73 16.54l-1.76 18.73 1.59-2.2 6.59-10.31s1.62-6.95 3.08-.07c0 0 10.1 15.07 8.63 19.17 0 0-1.76 14.34-2.93 18.73l-1.34 6.31s-2.18 5.84-2.62-.31l-1.38-3.47s-1.91-1.44-1.54-2.09c0 0-3.46 8.66-22.63 20.37 0 0-5.18.56-10.01 11.53 0 0-1.61 11.54-1.9.94l.91-8.57s4.21-9.03-.32 1.07c0 0-6.83 11.41-14.29 17.27 0 0-15.8 16.1-42.2 9.48 0 0 14.64-4.36 26.92-13.9 0 0-7.21 5.72-25.65 6.32 0 0-15.76.7-27.91-2.66 0 0-19.72-2.06-28.1-8.05 0 0 19.32 15.07 29.7 16.24 0 0-37.7-3.61-69.75-19.56l13.76 2.47s-20.52-7.85-24-11.69c-3.6-3.97-3.9-6.41.88-11.27 0 0 11.56-17.41 17.41-21.07 0 0 12.24-12.58 21.27-16.24 0 0 30.1-4.9 32.29-5.26 0 0 17.63-2.47 42.35.79l29.16 8.38s-10.29-15.5-39.45-22.13c.03-.02 2.01-17.48 20.23-37.59" class="st19"/><path fill="#90908e" d="M287.28 440.55s-25.67 16.9-36.79 60.87c0 0-3.71 1.05-3.51 52.56 0 0 3.51 20.1 12.68 27.51l-.39 3.71s-25.36-17.56-17.17-62.63c0 0-3.47 3.05-7.41 11.51 0 0-4.88-9.04 6.83-29.66 0 0 2.09-25.07 18.28-46.33-.01-.01 8.55-14.03 27.48-17.54"/><path fill="#929292" d="m502 439.07-4.68 5.71s-33.17 2-57.17 8.63c0 0-35.31 7.68-63.99 10.86 0 0-22.42 5.25-23 5.25s16.76-8.51 18.9-8.31l2.15.2c-10.6-.08-22.73.58-35.97 2.65-25.3 3.96-45.95 11.71-61.14 18.92 4.26-4.05 9.44-8.29 15.65-12.22 20.04-12.67 40.19-15.41 52.28-15.94 0 0 51.07-5.84 67.19-2.76 0 0 52.89-7.43 59.82-9.57.01-.01 29.06-4.5 29.96-3.42"/><path d="M251.78 520.04s-6.58 18.58 9.22 24c0-.01-7.61-8.06-9.22-24" class="st2"/><path fill="#373732" d="M246.91 536.48c1.07-.27-1.17 46.43 69.93 22.68 0 0-13.29 4.23-29.65-2.95 0 0 44.15-.87 87.85-22.33 0 0-21.42 19.28-40.79 26.16 0 0 22.34-1.32 56.73-20.93 0 0 48-32.78 72.29-41.41l28.24-11.32-6.62-.98s21.6-6.77 23.69-11.06h.93s1.95 2.54 1.41 4.1c0 0-10.58 3.02-13.75 8.44 0 0 9.46 4.78 13.02 9.85 0 0-17.95.85-42.83 21.4 0 0-6.2 6.55-33.95 26.84 0 0-55.75 50.63-101.11 51.51 0 0-23.81 3.18-58.2-10.63 0 0 5.52-3.27 17.52-4.44 0 0-7.76-2.34-20.19 1.9 0 0-5.3.4-6.73-2.19 0 0-4.67-.55-5.22.73.01-.02-16.72-11.57-12.57-45.37"/><path fill="#4f514f" d="M281.24 584.63s41.33 18.58 97.49-7.76c0 0 17.09-9.22 36.11-21.22 0 0 8.05-11.54 23.12-13.82 0 0-37.51 31.62-56.82 40.36 0 0-38.59 22.48-77.66 13.56 0 0-20.49-2.83-28.97-9.46 0 0 1.61-1.07 6.73-1.66"/><path d="M375.45 593.05s4.95.09 47.38-28.57c0 0 14.63 9.79 29.55 21.03l-1.02 20.27s-16.89-7.93-19.9-9.07l-50.32 22.89z" class="st24"/><path fill="#d49829" d="M456 587.66s61.91 49.9 129.9 43.46c0 0-5.88 3.85-.93 5.41 0 0 22.4 1.53 31.84-4.73l-2.06 3.9s3.12 6.07 30.6-13.71c0 0 5.5-8.05 11.63-15.19 0 0 21.77-12.07 12.01-.95 0 0-13.5 20.68-15.61 27.12 0 0-7.72 8.73-3.39 3.46 0 0 8.6-1.05 2.79 12.61 0 0-1.55 8.9-10.52 10.85-.25.44-7.14 7.98-6.83-1.95 0 0-10.54 1.56-12.88 5.46 2.8-.25.39 2.07-1.25 2.54-.99.28-46.35 12.49-51.04 11.51 0 0 25.53-19.36 26.5-22.29 0 0-27.7 19.83-31.22 20.55 0 0-8.78 7.16-14.24-1.04 0 0-17.16 2.08-19.32 2.34l.73 4.73-34.57 1.37s1.06-7.07-10.06-8.44c0 0 25.65 6.54 68.41-16.1 0 0-7.43 13.27-.41 6.05l9.06-9.07s6.84-2.39-5.48-3.9c0 0-49.53-5.58-72.29-22.32 0 0-27.98-17.49-31.4-20.8v-20.87z"/><path d="M456 608.43s44.32 32.05 82.96 38.78c0 0 13.45 3.88 28.9 4.65 0 0 1.18.98-.61 2.99 0 0-19.98 21.23-13.59 8.04 0 0 5.82-6.86-2.7-1.22-8.53 5.64-42.56 16.77-58.66 13.96 0 0-34.87-.22-36.48-1.69-.01 0-1.14-5.66.18-65.51" class="st26"/><path d="m451.36 605.78-19.9-9.07-50.32 22.89s5.14 23.32 10.76 32.58c0 0 19.62 12.19 22.68 13.32 0 0 21.6 8.37 26.78 5.85 0 0 15.8 2.57 17.11 2.42.01.01-9.4-40.64-7.11-67.99" class="st27"/><path fill="#c99d2c" d="M382.1 642.27s23.94 27.22 59.26 29.09l15.6 2.4s-15.81-2.87-21.37 3.87c0 0-14.72-3.19-20.86-5.68 0 0 .59-3.11-7.61-6.29 0 0-7.54-3.14-10.7.34.01-.02-17.39-14.92-14.32-23.73"/><path fill="#f9f181" d="m370.05 595.26 5.8-2s11.04 51.86 16.25 58.52l-10.01-9.52s.86 12.83 16.76 25.81c0 0-30.98-8.14-21.51-31.94 0 0 .78 1.16 4.21 3.32 0 0-5.84-20.56-7.02-23.51.01.01-4.48-18.74-4.48-20.68"/><path d="m452.39 585.51 4.54 2.49s-4.15 64.34 3.76 84.97h-4.87c-.01 0-7.92-27.37-3.43-87.46" class="st30"/><path fill="#0b070a" d="M420.98 564.44s61.99 44 73.8 46.92c0 0 32.31 23.95 91.12 19.66l4.63-7.07s-49.95 4.1-91.31-20.1c0 0-42.75-24.19-48.2-29.46l-22.81-14.05z"/><path d="M519.17 501.77s-22.88 1.31-43.66 19.16c0 0-41.65 32.14-47.31 39.41 0 0-25.12 20.39-52.34 32.92l-13.9 5.37s-10.39 3.22-22.1 5.41c0 0-16.1 1.46-33.22 0 0 0-26.62-4.54-39.07-13.32l6.29-5.19s39.4 21.86 91.46 3.43c0 0 34.15-16.75 47.12-27.22 0 0 46.55-38.33 58.56-46.54 0 0 23.98-18.86 39.19-18.5z"/><path d="M361.11 598.81s.14-3.03 9.17 32.54c0 0-6.39 21.16 2.78 28.55 9.17 7.4 11.25 9.15 22.76 13.93l.7-7.94s-24.44-3.07-19.17-28.44c0 0-.5-2.69 4.61 3.37 0 0-12.32-41.7-11.68-45.46z" class="st5"/><path fill="#dea126" d="M676.27 476.71s-22.51-20.17-25.35-20.8c0 0 22.87 8.19 45.3 33.56 0 0 1.37 5.3 10.54-11.4 0 0 18.42 18.66 24.03 52.22l-12.52 15.75s-12.55-37.35-22.47-47.84c0 .01-12.56-17.46-19.53-21.49"/><path fill="#fdd110" d="m615.06 428.4-12.48 15.44s29.03-2.56 67.39 27.19c0 0-11.12-9.97-18.19-14.79 0 0 28.87 15.06 44.19 33.95 0 0 4.54 2.82 10.79-12.12 0 0-34.15-48.11-91.7-49.67"/><path fill="#feec5f" d="M602.58 428.4h12.48l-12.48 15.44-16.9 1.3c-.01.01 10.84-17.16 16.9-16.74"/><path fill="#fddc1f" d="M712.8 530.99s2.72 8.24 1.73 31.07c0 0 11.54-10.16 17.39-19.33l-1.13-12.44-12.52 15.75z"/><path fill="#040407" d="m607 416.43 9.79-3.45s5.32-29.56 28.5-44.29c.01.01-23.71 5.15-38.29 47.74"/><path fill="#feec6f" d="M628.17 408.98s1.92-22.53 26.5-43.21c0 0-28.56 2.38-37.87 47.22l11.24-2.54zm-23.7 16.36h16.63s3.53-10.53 20.98-16.32c.01 0-29.65 7.01-37.61 16.32"/><path fill="#d99b28" d="M712.94 343.85s23.21 3.78 35.12 20.19c0 0 11.8 9.18 18.05 40.4 0 0 7.34 34.59-7.63 66.66 0 0-12.49 28.68-12.69 29.26l.29-12.78s-8.67 27.55-13.74 35.35c0 0-8.03-29.17-22.47-46.34 0 0 4.68-1.17-1.76-6.83 0 0 5.07-8-8-16.19 0 0 14.44 7.02 19.9.59 0 0 14.82-17.05 15.4-56.85 0 0-2.15-42.34-39.8-49.17 0 0-15.85-3.66-31.99 3.58.02 0 7.58-17.12 49.32-7.87"/><path fill="#0b0506" d="M604.26 425.33s41.45-5.91 81.83 25.89c0 0 26.63 19.21 41.4 55.36 0 0 6.76 14.17 7.54 31.73l-3.28 4.66s.53-36.38-31.9-72.65c0 0-17.34-22.41-51.27-35.48 0 0-24.51-9.29-49.07-5.59z"/><path d="M664.3 351.33s38.66-19.51 63.09 17.37c0 0 19.7 21.57.51 73.22 0 0-3.01 24.94-27.19 11.85 0 0 12.92 5.64 8 16.19 0 0 6.24 4.68 1.76 6.83 0 0-24.24-37.06-73.97-48.87 0 0-7-1.15-15.39-2.58 0 0 4.89-11.51 20.98-16.32l-18.06 3.38 4-1.95s.3-21.85 26.63-44.68l-9.37 3.77s-8.56-1.43-25.06 19.84c0 0-10.56 18.66-13.24 27.37 0 0 .4-21.92 13.96-38.14 0 0 28.96-40.07 33.25-46.12l23.58 9.23c.01-.01-10.17 5.39-13.48 9.61" class="st27"/><path fill="#b9922e" d="M604.47 400.31s12.73-20.49 3.56-1.37c0 0-4.51 15.76-4.51 19.08 0 0-23.31 10.38-27.38 36.95 0 0-15.71-9.2-32.3-14.08 0 0 33.48 3.5 47.52-21.47.01 0 10.34-9.94 13.11-19.11"/><path d="M506.58 409.87s13.14-11.5 15.76-9.81c0 0 1.57-4.57 20.14 22.82 0 0 2.96 9.26 13.72 3.32 0 0 29.89-22.22 36.52-27.87 0 0 42.58-37.95 53.14-53.3l-33.93 45.76s-7.4 8.98-8.54 12.47c0 0-8.04 15.39-10.77 16.76 0 0-11.71 24.19-48.78 20.88l-30.44-3.31s-.1-6.86-17.02-5c0-.01 8.02-23.44 10.2-22.72" class="st41"/><path fill="#d89f29" d="M522.42 390.64s1.97-3.93 25.95 29.42c0 0 48.19-28.1 75.9-59.12 0 0 18.48-20.97 29.84-35.8 4.21-5.5 5.72-10.93 7.38-12.76l39.75 23.29 2.24 1.36-26.14 4.83-22.82-9.21s-20.29 29.88-31.39 37.18c0 0-38.32 37.23-45.68 40.82l-22.05 16.23s-5.43 7-11.96-2.06c0 0-12.64-19.19-16.53-20.95 0 0-3.49-7.37-11.3.02l-10.08 7.16c-.02 0 7.91-14.52 16.89-20.41"/><path fill="#f8df44" d="M664.04 305.82s20.28 8.25 47.4 32.25l-15.14.32 5.66-1.37-40.47-24.63-7.95 13.38c-.01-.01 9.27-15.3 10.5-19.95"/><path fill="#e1a725" d="M651.15 283.63s7.83 12.7 4.8 25.95c0 0-4.22 17.84-44.44 55.72 0 0-6.21 1.05-17.53 12.37 0 0 39.32-44.61 22.81-42.9 0 0-24.93 12.75-27.53 14.75l-1.92-.52s17.08-9.95 13.12-10.93c.02 0 37.62-27.9 50.69-54.44"/><path fill="#faf39b" d="m651.97 275.61 9.33 23.43-5.35 10.54s1.44-15.41-4.8-25.95c0 0-.74-7.63.82-8.02"/><path fill="#050407" d="M526.48 384.5s20.1 23.22 23.41 27.61c0 0 44.04-28.73 61.46-47.12 0 0 30.52-28.4 45.2-56.61l9.42-18.85 2.78 9.66-4.54 7.07s-4.49 15.33-23.17 35.4c0 0-29.79 36.95-43.44 44.42 0 0-41.02 31.94-49.09 34.12 0 0-19.36-27.53-25.95-29.42 0 0-16.83 11.74-26.19 41.8 0 0 3.8-24.55 20.49-41.8 0 0-21.66 8.94-22.39 12.3.01.01 16.74-17.85 32.01-18.58"/><path fill="#e4b13a" d="M506.52 404.79s7.57-6.24-10.13-1.56c0 0-6.58-2.95 20.49-12.45z"/><path d="M549.89 412.11s36.93-20.03 61.46-47.12c0 0-15.87 6.82-17.37 12.68 0 0 64.97-74.34-4.1-28.49l-59.7 31.8c.01.01 19.52 24.2 19.71 31.13" class="st41"/><path fill="#f6ca12" d="M496.38 403.23s17.07-5.01 10.13 1.56c0 0-10.28 23.48-10.13 27.79l-24.33 4.13s-1.92-22.03 18.45-37.66c0 0 9.95-12.49 35.59-21.38 0 0 32.93-10.89 66.88-34.76 0 0 22.38-15.01 3.56.22l-8.88 5.68 1.63.71-59.08 31.47s18.11 21.06 19.71 31.12c0 0-23.22-27.72-23.41-27.61-.41.25-6.76-1.06-24.61 11.82-.02 0-6.21 4.65-5.51 6.91"/><path d="M721.97 293.78h16.88v16.88h-16.88z" class="st2"/><ellipse cx="487.66" cy="422.91" fill="none" stroke="#000" stroke-miterlimit="10" stroke-width="2" rx="3.7" ry="3.4"/><path d="M654.26 268.61s9.76 12.58 14.5 30.58c0 0 38.29 20.73 53.21 37.9 0 0 42.63 12.1 56.09 61.85 0 0 11.51 42.92-5.27 82.92 0 0-4.68 14.44-19.9 34.73 0 0-5.46 14.83-15.02 31.22 0 0-6.83 7.41-7.51 10.34 0 0-10.41 16.14-21.8 11.25l6.33-7.65s11.28-9.84 17.03-19.01c0 0 11.78-14.75 16.33-47.78l.15 12.47s17.56-18.14 25.56-61.46c0 0 6.05-49.17-21.66-77.26 0 0-29.85-42.34-86.43-19.12 0 0 4.88-12.49 45.56-11.51 0 0-24.1-21.85-47.22-31.8l-2.93-7.22s-4.19-11.12-8.58-21.07z" class="st50"/><path fill="#b1b1ab" d="M344.74 410.45s.24-.94.93-2.13c.9-1.54 2.55-3.48 5.41-4.31 0 0 8.86-2.96 25.17 6.44 0 0 12.72 3.41 23.65 21.34 0 0 6.8 9.73 8.25 13.58 0 0-20.88 2.63-45.56 1.46 0 0-8.68-15.9-36.68-18.63 0 0-5-8.77 4.78-10.63 0 0 30.28-2.95 45.17 16.19 0 0 6.78 5.68 8.05 6.95 0 0 2.09-.9-.83-4.8 0 0-11.41-18.44-31.41-22.53 0 0-8-.78-6.93-2.93m-26.34 27.63s5.23-7.13 14.92-2.56c0 0 14.93 3.21 26.05 11.4 0 0-30.54 3.82-31.32 3.62.01.01-14.5-5.37-9.65-12.46"/><path d="m420.79 450.44-5.97-6.56s-13.93-21.6-17-25.11c0 0-8.84-11.89-22.1-16.1 0 0 7.79-31.2 13.02-34.83 0 0-7.72 4.76-15.95 24.73l4.39-20.63s-8.6 14.72-7.32 28.1c0 0-30.82-13.57-31.29 10.83 0 0-20.13-6-20.32 18.88 0 0-13.71 10.83 0 23.85 0 0-24.09-.83-27.25 7.77 0 0 3.5-3.82 16.82-4.4 0 0-24.05 8.58-30.59 25.85 0 0 22.73-23.62 59.17-26.67l-8.24-5.72s-22.97-11.44-.73-16.28c0 0 16.32 3 31.55 12.78l3.76-.13s-6.23-15.1-36.72-18.71c0 0-7.26-12.98 13.39-10.42 0 0 18.64-.34 34.95 14.32 0 0 14.83 17.26 9.27 4.44 0 0-13.51-21-34.56-23.57 0 0-6.31-.3-3.29-4.65 0 0 5.63-13.73 36.44 6.1 0 0 12.62 7.83 26.04 30.95l4.7 6.88z" class="st52"/><path d="M503.23 438.83s-.4.06-1.23.19c-5.81.91-32.52 5.04-88.69 13 0 0-66.6 2.14-76.89 4.13l-8.35-5.61s24.46-3.54 32.21-3.65c0 0 44.56-2.77 47.67-2.63 0 0 15.84-1.03 39.83-4.84 0 0 40.48-5.19 47.17-6.76 0 0 17.92-2.69 18.84 4.96z" class="st52"/><path fill="#444540" d="M378.64 664.38s15.36 9.48 17.65 8.85c0 0-.59 16.87-.5 20.38 0 0-18.15-5.66-17.07-6.83zm34.97 14.51 20.35 4.16 1.18 22.53-21.53-5.4zm86.31 9.48 35.18-1.77 1.25 23.21-35.72 2.08zm55.29-2.97 29.39-5.33s7.34 6.79 3.1 22.59c0 0-28.82 4.98-31.6 4.83 0 .01-.89-16.38-.89-22.09"/><path fill="#323534" d="M583.46 680.08s39.12-9.17 40.29-9.61c0 0 2.87 14.64 2.14 22.1l-38.19 10.1c-.01 0 1.67-16.52-4.24-22.59m57.7-15.14 7.9-2.84-.47 20.66s-5.9 3.34-6.19 4.37z"/><path fill="#fbda58" d="M400.59 668.33c.74-.96 8.93.98 9.22 2.78 0 0-1.58 30.38-.73 34.34 0 0-8.14.28-10.77-4.98-.01 0-.83-28.1 2.28-32.14m137.4 12.29s15.21-2.9 14.67.05c0 0-.76 18.53-.76 34.78 0 0-11.31 3.12-10.97.73-.01 0-4.08-34.12-2.94-35.56M626 664.53s7.91-6.66 10.8-3.24c0 0 2.41 18.66 3.44 33.88 0 0-6.84 2.28-10.06 1.85 0-.01-6.05-26.96-4.18-32.49"/><path d="M371.5 658.67s-1.84 19.96 1.33 31.27c0 0 17.67 8.48 22.24 10.93 0 0-2.78 8.58 18.53 10.34v-11.02l-5.29-1.82.75 7.09s-12.14.25-10.41-11.05l-3.59-1s-11.02-3.3-15.75-6.64l-.69-22.39z" class="st57"/><path d="M395.08 693.4s-.05-28.11 2.14-28.88c0 0 6.09-2.75 17.51 4.8v2.62s-1.26 21.7-1.12 28.24l-5.29-1.82 1.48-27.25s-4.67-3.11-9.22-2.78c0 0-3.07 4.2-1.92 26.07zm18.53 12.05s11.67 5.11 22.69 6.87l-1.16-6.74-21.53-5.39z" class="st58"/><path d="M414.73 671.94s16.77 4.71 21.02 5.19l-1.94 6.16-20.2-4.41z" class="st58"/><path fill="#0b070c" d="M442.54 677.57s47.61 2.76 50.92 4.54c0 0 3.13 5.19 2.93 32.22l4.24 2.3 36.14-.93-.43-6.19-35.71 2.39-.88-29.27s-2.39-7.81-11.56-7.17l-27.51-1.51-17.18-1.26z"/><path fill="#0d0708" d="m500.63 716.62-4.24 5.12h-9.76s5.55 51.48 7 52.87c0 0-10.9-19.71-10.51-53.07 0 0-21.46-.59-22.44-1.56 0 0 2.15 25.36 4.49 28.49 0 0 .01 12.34 26.2 21.19 0 0-24.64 2.81-30.69-25.28l-3.76-25.17s-15.07 1.76-21.56-9.56l-1.55-27.53s.5-7.95 9.68-9.43l-.97 4.89s-2.54 3.19-2.54 6.51c0 0 1.17 22.25 1.17 23.42 0 0-.2 6.05 10.73 6.83l41.56 2.3s2.86-2.48 2.93-3.86l-.07 1.37z"/><path fill="#050305" d="m499.75 682.62 32.97-.98-.73-4.73 19.32-2.34s5.35 7.23 15.06.07c0 0 19.58-11.32 31.8-20.9 0 0-10.08 11.56-25.84 22.24 0 0 16.54-.83 48.97-10.15l4.7-1.32.94 5.93s-57.95 13.9-71.73 14.95h-3.32s.51-5.31-3-5.94l-10.9 1.16-.04 5.8-38.03 1.94z"/><path fill="#140d0c" d="m534.68 686.43 2.09 29.27s1 4.56 3.63 4.12 16.1-2.19 16.1-2.19l-1.29-32.22h-3.32v30.05s-9.44 2.37-10.97.73l-2.97-29.75h-3.27z"/><path d="M555.79 707.52s50.91-8.75 69.21-14.93l-1.39-21.54 2.44-.58 3.24 26.56-3.4.76s-16.43 4.63-20.09 5.8c0 0 4.76 26.53 44.19 30.29 0 0-43.3 11.86-47.11-29.56 0 0-32.16 6.88-47.11 8.34l-.58-5.14z" class="st63"/><path fill="#13090a" d="m621.3 665.84-.39-3.12s1.44-3.39 15.41-5.27c0 0 2.85 3.63 5.27 0 0 0 .2 26.38 1.96 37.2 0 0-2.19 5.74-13.6 6.03l.23-3.67s4.9.17 9.22-4.1c0 0-1.83-28.8-3.15-31.02 0 0-8.06.17-10.25 2.63l-3.59 1z"/><path d="m622.41 665.53 2.08 5.5.79 26.27s1.66 3.19 3.8 3.19l.97.37.12-3.86-4.17-32.47z" class="st63"/><path fill="#19130e" d="M641.59 657.45s7.68-.41 12.07-10.51l7.17 3.07s-3.8 7.76-5.56 8.34c0 0 .73 18.53-.15 22.95L642.83 693l-.59-6.44 6.03-3.95s.9-16.12-.44-19.75c0 0-6.56 2.02-6.58 2.93z"/><path d="M442.54 677.57s46.26 2.1 50.92 4.54c0 0 5.42 13.95 2.86 32.03l-2.86 2.48-41.56-2.3s-10.74-.2-10.73-6.83h7.58s8.47.84 37.46 3.7c0 0 .81.43 2.54-3.7l-.59-17.29s.13-3.78-4.49-4.8l-32.35-1.81-11.51-.39s1.19-5.7 2.73-5.63" class="st66"/><path d="m440.45 682.18 7.14 1.03-.98 7.78c-.88.19-2.42.69-3.07 1.98-.46.9-.37 1.98-.2 4.02.04.55.1 1 .14 1.29.17.34.45.79.92 1.2 1.09.96 2.39 1.02 2.8 1.02.19 2.33.39 4.66.58 6.99h-6.61c0 .01-3.04-25.31-.72-25.31" class="st66"/><path d="m372.83 689.94 7.37 3.46s-4.01 12.99-9.24 30.25l-.27.89c-9.63 31.83-23.15 77.42-23.4 83.31 0 0-8 14.44 10.93 48.39l-9.76-11.51 3.32 36.29h-1.76l-1.37-3.9s-6.63 4.88-7.22 8.39v13.07s.78 8.19 10.15 10.54l-7.22 6.24-5.85-4.1s-4.1-6.73-4.54-9.07v-18.88s.21-9.17 8.49-11.41l-2.63-37.31s-4.24-10.83-1.61-19.02c0 0 17.71-75.07 23.27-89.26 0-.01 10.83-32.2 11.34-36.37" class="st67"/><path d="M370.7 724.54s17.28-.83 24.37-23.68l.72 3.74s-2.09 22.86-25.98 22.86z" class="st68"/><path fill="#f9cc28" d="m380.21 693.4 14.87 7.46s-5.41 21.48-24.37 23.68z"/><path fill="#edbe30" d="m456.92 719.2 1.23 8.26s-10.33-2.12-15.01-4.13c0 0-11.12-8.01-19.61-10.2l-8.8-4.16-1.12-3.52s17.19 6.46 21.02 5.76v-2.23c0-.01 6.81 11.47 22.29 10.22"/><path d="M391.73 840.1s-24.97 16.06-40.08-3.32c0 0-6.18-18.86 14.32-68.87l11.71-36.29s7.61-3.71 9.17-9.37c0 0 8.17-8.65 8.94-17.65 0 0 1.84 5.31 17.81 6.6v-5.76l1.12 3.52s19.44 7.88 23.1 10.87l5.32 3.49 15.01 4.13.87 5.85s-19.64-5.41-23.67-4.24c0 0 16.83 9.35 24.46 8.57 0 0 2.56 15.4 6.55 20.61 0 0-25.44-2.64-46.35-17.67 0 0 7.84 12.31 17.17 19.51 8.89 6.86 14.84 13.11 13.88 17.95 0 0-19.45.8-22.66 2.34l19.6 4.82s5.18.64.7 6.69c0 0-16.6 34.67-22.05 35.9l-18.93 14.44s3.01 3.75 22.24 5.46l3.84.28s-17.84 4.98-20.21 10.45c0 0 13.83 4.29 10.12 24.19 0 0-11.11 9.4-31.22 5.66 0 0-28.81-.91-37.27-7.61 0 0 7.02 13.66 54.82 16.78 0 0 18.99 4.51 11.01 12.94 0 0-24.82 11.06-55.34-1.95l-17.51-6.89V887.9l12.68.78-8-5.85 1.76-6.24-1.85-21.82 3.59-.02s13.45-1.46 27.46-3.13c.03-.01 6.33-7.43 7.89-11.52m69.74-112.04 21.8 2.1.81 9.84-21.58-3.45z" class="st26"/><path fill="#f5c614" d="m462.83 738.84 21.83 3.94s3.76 20.24 4.89 21.22l1.81 5.65c.01.01-31.17-7.11-28.53-30.81"/><path fill="#f9cc0e" d="M487.54 730.5s13.67 1.21 24.5-4.64c0 0 52.35 4.57 92.28-13.42 0 0 21.89 22.43 34.14 29.07 0 0-30.73-8.63-38.92-22.38 0 0 1.76 12.88 18.44 21.66s15.95 12.29 15.95 12.29 7.17 17.27 10.39 36.87c3.22 19.61 2.93 24.44 2.93 24.44s2.34 18.73 3.22 20.19v8.78s-4.68 16.54-19.9 20.34c0 0-22.83 1.73-41.56-6.58-19.09-8.48-34.09-29.27-34.83-30.29-.73-1.02-24.38-28.69-27.51-30.73 0 0 10.97-.29 27.8 14.05 0 0-13.09-18.64-33.42-29.46 0 0 28.15-20.73 33.57-23.51 5.41-2.78-42.58 10.83-42.58 10.83s-13.34.29-14.28-.59-6.83-1.35-6.94-7.27l-2.02-17.37s38.02-.34 52.07-3.9l-52.55-1.23z"/><path fill="#fcce12" d="M607.13 908.73s53.26-.29 70.24-11.71c0 0 2.08 15.83-19.9 21.66 0 0-21.07 9.37-43.02 4.39 0 0-11.12-4.69-7.32-14.34"/><path fill="#fcd729" d="M632.01 1005.2s57.22 3.02 86.63-2.73c-.01 0-39.42 30.83-86.63 2.73"/><path fill="#070808" d="m266.38 441.2-8.78 10.49s-11.32 8.3-18.93 32.34l-9.56 32.04-1.95 9.76.98 21.07 4.29-1.56s3.51 45.18 33.95 51.76l1.2-6.37-7.37-5.19s-.38-.26-1.02-.81c-4.57-3.86-22.63-21.93-16.99-62.61 0 0-7.35 9.58-7.67 12.3 0 0-1.82-15.99 6.83-29.66 0 0 3.95-22.46 16.06-40.5 0 0 7.29-15.15 26.22-21.99 0 0 13.15-5.24 29.14-4.7l4.25-6.67c-.02.01-24.51-3.9-50.65 10.3"/><path fill="#f9ee4d" d="M643.11 692.45s4.25-4.62 5.16-4.62c0 0 11.74 40.33 13.79 65.88 0 0 6.83 47.23 8.1 54.43 0 0-.59 28.68-2.15 36.68l-3.71-3.51s-1.85-49.44-4.88-64.38c.01-.01-15.69-81.53-16.31-84.48"/><path fill="#fbef54" d="M669.5 843.36s4.95-16.49 6.51-17.07v21.66s.92-4.5 2.54-4.29c0 0 9.85 10.28 8.78 22.24 0 0-1.37 16.42-6.83 23.41 0 0 6.44-22.63-4.29-38.63l-2.15-3.12.2-11.51z"/><path fill="#faf074" d="M686.39 884.65s.14-3.91 3.26-5.08c0 0 6.99 5.94 6.4 27.79l-4.74 3.87c.01 0-1.21-25.61-4.92-26.58"/><path fill="#d99d28" d="M582.36 901.01s21.64 8.8 24.77 7.71c0 0-7.05 13.73 19.11 15.77 0 0 26.91.88 46.39-14.89 0 0 4.33-3.51 4.73-12.59 0 0-10.46 8.46-38.2 9.79 0 0 39.21-11.99 47.91-23.05 0 0 4.98 2.69 5.09 26.3 0 0-6.8 14.94-56.16 19.82 0 0-24.58 1.76-42.53-1.95.01.01-15.6-4.28-11.11-26.91"/><path d="m643.55 694.65 7.86 39.21s-39.66-.48-45.6-30.27l20.25-6.53s-.5 2.73 3.02 3.46c-.01 0 9.39 1.02 14.47-5.87" class="st80"/><path fill="#daa228" d="M486.63 721.74h9.76l4.24-5.12 36.66-.93s-.6 4.67 6.27 3.73l12.94-1.81-.72-4.96s40.77-6.3 47.16-8.7c0 0 11.63 37.87 48.95 29.52 0 0-11.45 5.36-16.63 5.36 0 0-9.55-.69-21.77-12.29 0 0-9.82-10.09-9.49-13.9 0 0-38.63 19.63-91.76 13.17 0 0-17.24 8.22-24.7 4.69zm1.69 15.91 52.23 1.19s-23.22 7.18-51.63 4.78z"/><path fill="#d29629" d="M491.26 761.8s3.74 12.51 40.58.6l23.47-5.91-34.27 24.2s23.65 12.35 33.22 29.41c0 0-18.08-13.61-27.8-14.05 0 0 15.21 12.21 32.01 36.29 0 0 16.44 22.69 50.67 29.75 0 0 30.29 10.12 41.11-18.77 0 0-5.69-51.71-6.43-55.06 0 0-7.27-38.06-20.21-44.24 0 0-22.38-9.43-24.29-24.93 0 0 13.52 14.94 30.95 19.07 0 0 10.74.28 20.94-4.36 0 0 14.02 56.84 12.8 90.06l.39 17.45 3.71 3.51-13.75 11.8s-6.09 25.25-52.09 11.32c0 0-14.44.98-30.05-10.15 0 0-13.41-10.36-22.05-24.39 0 0-34.01-43.7-35.64-44.09 0 0-.62-5.66-13.81-7.8 0 0-13.97-1.34-55.91-22.44l21.55-.81s13.32 12.69 24.99 11.4l1.61 3.62c.01 0-.97-5.04-1.7-11.48"/><path fill="#b7842c" d="m462.5 736.55 21.58 3.45.58 2.78-21.83-3.94z"/><path fill="#b3832c" d="M459.03 733.32s-10.92-4.23-24.4-4.58c0 0 12.73 8.69 25.19 9.9z"/><path d="M466.37 758.26s-30.79-5.95-46.35-17.67c0 0 9.81 14.92 18.73 20.72 0 0 12.92 9.89 12.31 16.74 0 0-20.52.89-22.66 2.34 0 0 15.48 3.15 21.52 6.33 0 0-8.95 24.37-21.5 39.53l-20.7 15.99s4.66 4.43 26.09 5.75c0 0-15.61 3.33-20.21 10.45 0 0 13.58 4.11 10.12 24.19 0 0-7.47 5.57-31.22 5.66 0 0 8.01 5.06 33.32 4.33l6.29-1.32s3.66-7.91 3.8-11.71c0 0 .37-14.85-2.41-19.97 0 0-1.02-8.56-.22-9.51 0 0-8.12 1.12-8.78 2.78l3.22-2.78 7.17-2.41s-4.95-.68-4.95-.97 10.87-5.47 10.87-5.47 10.62-2.12 21.8-19.32l28.02-35.48-16.68-6.66s-18.73-8.32-29.27-20.73z" class="st80"/><path fill="#100a09" d="M472.77 785.68s-35.04 34.96-36.89 55.02l37.7-55.02"/><path fill="#1d0e0b" d="M474.49 781.73s-27.78-5.34-41.89-2.28l-4.19.95c0-.01 23.06 7.57 46.08 1.33"/><path fill="#d69629" d="M351.92 834.99s16.08 20.07 39.82 5.11c0 0-4.34 14.85-21.03 20.75-.01-.01-20.37 3.3-18.79-25.86"/><path fill="#d19532" d="M440.84 841.26s3.6 1.41 13.9-4.48c0 0 1.96-.23.93 4.63l-15.51 17.58s6.88-1.61 12-4.24c0 0 4.24 12.15 3.22 21.22 0 0-4.12 15.34-24.28 15.56 0 0 5.82-1.98 8.04-15.41 0 0-1.79-16.84-3.95-19.75v-5.56s5.92-4.21 7.02-6.15z"/><path fill="#160d0a" d="M429.42 846.82s10.12-5 11.41-5.56l1.37 3.39s-2.19 3.59-7.02 6.15v5.56s2.85 4.24 3.95 19.75c0 0-.1 9.9-7 15.19 0 0 7.05-14 1.39-31.68 0 0-1.15-8.76-.22-9.51 0 0-8.39 1.29-8.78 2.78l3.22-2.78 7.17-2.41z"/><path fill="#dba027" d="M434.42 895.6s13.66-2.88 18.93-4.95c0 0 7.37 19.28-1.05 23.36 0 0-5.56 4.68-16.1 6.44 0 0-45.73 6.73-54.04-1.66-.23-.02-40.29-6.7-33.93-13.5v-4.61s36.83 16.49 59.07 11.17c0 0 15.3-.07 12.14-8.64 0 0-2.26-4.31-13.93-6.96l25.58.14s5.8 4.56 0 19.51c0-.01 3.16-4.43 3.33-20.3"/><path fill="#fcec6b" d="M388.25 719.84s-3.97 5.48-12.54 7.15c-1.77.35-3.8.41-5.89.47 0 0-23.91 80.38-23.62 83.83 0 0-3.41 15.67 6.62 34.24 0 0-7.28-24.15 13.16-77.62l11.71-36.29-1.41-3.56s6.94-1.18 11.97-8.22"/><path fill="#faee8d" d="m348.47 844.73 8.63 10.03h-4.28l1.85 21.82-1.76 6.24 8 5.85-12.68-.78v18.27l6.34 3.98s-14.46-1.83-13.12-15.47l-.02-9.95s2.7-4.96 7.24-7.6l1.37 3.9h1.76z"/><path fill="#d2a12a" d="M460.68 719.99s18.93 1.37 22.44 1.56l.15 8.62-21.8-2.1z"/><path d="M602.16 867.94s41.21 13.86 51.97-10.87c0 0-2.12 17.02-26.99 20.14 0 0-18.96 1.74-24.98-9.27" class="st30"/><path fill="#e0ae25" d="M571.67 857.44s21.1 11.07 30.5 10.5c0 0 4.75 11.5 28.13 8.78 0 0 19.86-2.45 23.84-19.65 4.03-17.43.13-.44.13-.44l13.75-11.8-.99 5.42 2.14-5.85.56-2.13 4.52-6.22-.2 11.51s7.18 8.3 8.05 20.49c0 0 1.48 14.65-1.61 21.26 0 0-8.87 7.33-12.38 6.94 0 0-27.42 5.06-49.37 3.59 0 0-27.57-8.03-27.93-16.11 0 0-2.99-5.38 2.57-10.62 0 0-21.1-13.76-21.71-15.67"/><path fill="#d89528" d="M569.97 862.09s14.38 9.23 23.58 10.52c0 0-8.56 11.41 4.06 17.74 0 0 17.5 11.91 45.81 8.78l26.08-3.84s-27.08 7.46-36.9 7.77c-10.1.32-30.88 2.05-35.12-.88 0 0-8.78-.59-16.83-10.1 0 0-10.97-5.26-10.68-29.99"/><path fill="#43423d" d="m682.19 927.84 6.16-4.83s11.84 24.97 15.95 29.12l-6.73-.73s2.34-7.9-6.22-10.24c0-.01-1.15-9.53-9.16-13.32"/><path fill="#fee589" d="M630.26 943.79s-1.46 2.93 3.95 3.07c0 0 16.68-11.27 50.48-8.63 0 0 2.11-4.79-4.5-6.05 0-.01-36-2.79-49.93 11.61"/><path fill="#fbde7d" d="M636.28 954.99s4.54-8.39 27.77-10.54c0 0 17.62-2.52 21.62-1 0 0 7.57 1.97 7.9 4.73l-1.13 1.98s-28.24-5.71-53.12 7.9c0 0-3.45-.15-3.04-3.07"/><path fill="#a1a5a4" d="M635.75 970.67s11.78-15.93 43.68-12.12l8 3.68s-37.17.15-49.31 13.32c-.01-.01-5.88-3.32-2.37-4.88"/><path fill="#c9932c" d="M595.53 971.3s10.21-1.16 15.95 14.34c0 0 5.5 15.99 21.41 18.37 0 0 25 19.6 59.08 10.64 0 0 22.68-6.97 25.72-12.68 0 0 13.43-2.89 17.59-6.67l.59 15.22s-9.03 8.86-40.93 12.23c0 0-30.73 3.8-43.36.36 0 0-32.95-1.56-37.78-11.62 0 0-.51-4.61-3-17.05 0 0-2.05-8.2-4.73-10.11v8.05s-7.02-1.61-10.54-7.9c0-.01-5.15-7.1 0-13.18"/><path d="M627.43 986.22s-1.31-8.05 12.29-18.44c0 0 15.03-10.9 38.92-9.23 0 0-27.64-7.14-46.99 8.52 0 0-7.29 5.5-11.24 16.95z" class="st101"/><path d="M679.38 959.15s28.97 1.02 30.88 17.56c0 0 3.95 12.29-23.85 16.1 0 0-28.24 5.41-43.61-.59 0 0-8.49-.73-15.36-6 0 0-.71-7.14 8.14-14.93 0 0-.83 1.76 2.54 4.24 0 0 8.35-12.08 49.31-13.32z" class="st102"/><path d="m602.75 936.93 25.02.51s-14.85 14.08-13.61 24c0 0 3.56 9.08 2.49 14.05 0 0-.73 3.2-3.48 1.61 0 0-8.48-7.91-11.08-9.09z" class="st103"/><path fill="#4e544f" d="m597.29 936.91 5.46.21-.34 31.1-5.86-4.24z"/><path fill="#292b28" d="M627.43 938.08s-6.31 12.45 3.81 12.8c0 0-3.28 9.24 5.84 12.24.37.12.75.23 1.16.33 0 0-11.54 4.62-17.83 20.57l7.02 2.19s25.19 14.57 67.04 5.05c0 0 15.98-3.8 15.78-14.56 0 0-.59-15.36-30.88-17.56 0 0-8.13-3.52-22.54-1.48 0 0-6.56-.11-17.4 5.15l-2.21-.45s15.58-6.76 20.31-6.25c0 0 15.7-3.18 30.92-1.57 0 0 30.86.8 39.35 19.39 0 0 2.34 3.8 3.8 10.68v5.71s-12.64 11.41-54.93 12.72c0 0-32.72 2.05-48.52-6.43 0 0-7.29.58-10.39-10.39 0 0-2.09-6.88-5.39-9.88 0 0 3.39 2.03 3.93-.22 1.43-5.99-5.44-14.99-1.39-20.87.01 0 6.71-15.48 12.52-17.17"/><path d="M440.28 927.4s5.41-3.22 7.32-1.76l3.66 31.75-8.25 2.97z" class="st102"/><path d="M397.57 928.05s40.77.04 45.03-1.83l.31 33.07c-.71 3.84-34.27 8.14-39.66 7.32-2.91-.44-52.68 13.75-52.68 13.75s-36 1.32-45.36 0c0 0-25.61-1.9-38.63-8.78l.88-7.46s59.03 15.53 78.29-2.19l2.48-.15s4.25 4.83 4.25 6.88l.88-7.46s31.34-7.69 44.21-33.15" class="st103"/><path fill="#4f524b" d="M271.01 965.03s4.06-23 29.67-24.17c0 0 11.41-1.99 28.53 1.42 0 0 13.46 3.2 19.01 19.51l-2.48.15s-8.48 8.94-27.36 8.86c.01-.01-37.97-.48-47.37-5.77"/><path fill="#91928c" d="m266.63 971.15-2.39-1.61s-3-13.47 4.5-21.39c0 0 7.35-10.22 24.77-12.56 0 0 17.59.21 18 0 3.87-1.98-.44-.15-.44-.15s19.04 4.36 22.78 8.94c0 0-34.03-6.82-47.45.11 0 0-11.9 6.39-15.39 20.53l-3.55-.9z"/><path fill="#e4ca5b" d="M321.6 929.74s14.85 3.52 32 17.17c0 0 3.9-.87 5.27-4.63 0 0-10.05-14.84-31.8-16.05 0 0-3.71-.51-5.47 3.51"/><path fill="#fce273" d="M336.82 920.81s6.27-6.37 9.18-5.45c0 0 28.2 9.3 29.64 16.72 0 0-1.95 4.29-4.49 5.27.01 0-15.51-13.13-34.33-16.54"/><path fill="#e49e25" d="M452.52 962.71v14.24s-9.91 12.86-45.22 10.93l-5.9-5.46s-39.62 16.85-61 16.62c0 0-17.83 4.24-55.68-2.19 0 0-18.78-.83-26.39-8.05l.2-5.56s32.6 15.39 68.94 9.63c0 0 14.06-3.23 19.72-6.12 0 0 22.15-3.32 36.2-9.76 0 0 28.27-8.51 32.99-6.93.01 0 30.83-7.8 36.14-7.35"/><path fill="#fddf37" d="M258.53 975.23s36.85 17.5 93.93 10.6c0 0-25.5 9.49-36.79 9.3 0 0-36.66.39-57.14-11.9z"/><path fill="#4e504c" d="M375.65 924.05s12.23 4.76 22.62 4.54c0 0-8.09 23.09-44.91 32.62 0 0-4.83-12.21-20.14-20.92l1.32-.8s8.58 3.65 16.75 11.56l4.75.15s6.72-4.28 7.4-5.56l.29-4.02s-4.12-6.16-20.14-14.8c0 0 14.14 3.53 25.7 14.36l4.02.07s7.54-6.29 7.68-8.12c.01-.01-3.38-7.76-5.34-9.08"/><path fill="#faf394" d="M428.97 326.77s2.71-.61 5.44 7.49c0 0-3.27 38.57 3.49 56.17l-4.13 5.1c-.01-.01-14.39-21.52-4.8-68.76"/><path fill="#fdd70a" d="M445.46 348s5.66 20.88 12.88 27.31c0 0-21.46 10.93-24.39 19.71l2.15-5.66s-7.41-14.62-1.76-55.11c0 0 6.44 8.68 11.12 13.75"/><path fill="#f6bd37" d="m444.89 347.48 9.63 8.2s2.15 8.54 8.78 17.5l-5.27 2.14c.01 0-6.31-4.43-13.14-27.84"/><path fill="#faf179" d="M317.01 395.02s-6.67 1.04-9.79 2.77c0 0 8.97-29.5 39.22-51.35 0 0 20.1-14.63 48.78-17.17l-3.86 8.58s-48.22.74-74.35 57.17"/><path fill="#fdcd09" d="M288.93 415.26s11.41-15.57 28.18-20.39c0 0 16.43-38.15 47.24-50 0 0 11.89-5.92 27.01-7.02 0 0-1.31 3.08-2.34 5.27 0 0 4.1-8.93 15.51-17.71 0 0 14.35-8.63 20.49-8.93 0 0-1.89 11.43-4.23 30.99 0 0-.31 30.18 4.95 44.81 0 0 2.93 11.25 3.8 12.36 0 0 5.19 5.72 15.71-3.14l14.88-9.95 16.68 15.51s-8.37 20.94-10.79 30l-51.39 6.85s-20.59-36.36-38.92-41.26c0 0 8.35-33.4 13.02-34.83 0 0-10.53 10.8-15.95 24.73 0 0 2.5-15.1 4.39-20.63 0 0-8.63 16.06-7.32 28.1 0 0-30.19-13.06-31.39 10.97 0 0-9.49-2.66-16.07 4.07 0-.01-9.36-5.02-33.46.2"/><path fill="#c28f2c" d="M458.04 380.88s6.64 6 11.95 15.51c0 0 2.06-5.92-12.57-20.75l5.89-2.46s13.56 18.67 13.41 34.04l-16.68-15.51-20.94 14.22s-5.04 3.22-9.65-1.14c0 0 22.78-23.73 26.05-23.48zm-101.31 14.14s6.47 2.95 9.7 2.1c0 0 2.3 1.61 2.88-5.27 0 0 1.76 3.56-12.58 3.17m4.24-7.63s2.93 2.86 7.61-7.05c0 0-4.49 4.53-1.17 8.43z"/><path fill="#fde961" d="M265.91 439.9s9-21.05 26.56-22.66c0 0 16.55-3.17 28.11.63 0 0-.94 1.92-1.69 5 0 0-.62 2.75-.73 6.58v.11c-.01.26 0 .24 0 .27-.02.12-.11.13-.44.43-.04.04-.07.07-.12.11-.12.1-.18.12-.3.26-.52.57-.26.08-.28.28-4.52-.19-9.53-.08-14.93.39-8.72.75-19.95 2.61-29.99 7.06l-5.71 2.84z"/><path d="M351.59 909.12s28.16 13.92 62.89 11.7c0 0 32.17 2.94 38.72-10.67 0 0 4-8.92-.68-20.24l5.67-4.88s12.28 27.03-5.67 36.05l-4.93 4.56s-16.19 3.97-49.33 2.94c0 0-11.89.15-22.62-4.54 0 0-6.95-.02-31.27-8.69z" class="st52"/><path fill="#0f0b10" d="m490.66 786.46 6.2 3.36s-24.36 36.46-33.75 42c0 0 4.8 10.2-4.39 17.17 0 0 4.24 14 5.27 20.14l-.88 9.07s-2.12 4.41-4.93 6.83l-4.84 6.49s-17.32 5.67-18.93 4.95c0 0 1.22 16.1-3.33 20.29 0 0 2.07-18.75 0-19.51 0 0-44.35 2.31-62.68-7.72 0 0-10.98-4.47-13.16-8.85 0 0 28.27 7.75 37.27 7.61 0 0 15.85 7.32 39.61 3.02 0 0 16.8.79 23.24-15.34 0 0 1.04-9.11-3.22-21.22 0 0-9.64 4.79-12 4.24l15.51-17.58s1.52-4.05-.93-4.63c0 0-9.99 6.56-13.9 4.48 0 0 13.32-7.31 31.91-32.11z"/><path fill="#0e070d" d="M444.71 759.07s35.82 18.56 58.64 22.97c0 0 9 .32 11.5 7.05 0 0 38.69 47.22 41.15 52.16 0 0 15.11 17.2 36.67 31.39 0 0-5.64.44-22.71-10.56 0 0-.89 22.91 10.68 30 0 0 6.54 8.46 16.83 10.1 0 0 24.29 6.64 72.02-6.89 0 0-9.57 7.51-30.33 11.52 0 0-21.97 2.24-32.84 2 0 0-8.23-.46-23.98-7.81l-7.75-3.06s-9.46-4.88-10.83-24.78c0 0-1.17-13.07-8-18.83 0 0-19.02-20.1-26.44-33.66 0 0-22.44-27.61-24.49-28.88 0 0-4.78-2.44-7.22-1.17l-6.98-4.19c.03.03-27.28-6.19-45.92-27.36"/><path d="M574.61 897.95s-7.97 26.71 15.24 36.66l7.43 2.3 30.14 1.17 14.44-.81s25.97-7.81 38.29-4.16l2.04-5.27 6.16-4.83 7.02-4.99s7.25-5.85 7.25-12.48v-13.27s-1.64-15.31-9.82-18.82l-3.45 6.53s7.25 4.02 5.97 26.69c0 0-14.55 24.43-74.73 23.23 0 0-37.75 4.32-39.05-21.85l.81-7.04z" class="st50"/><path fill="#070605" d="M648.27 687.83s12.37 44.07 13.92 66.87l7.96 53.44s-.56 40.39-5.14 49.65c0 0 9.32-31.19 10.99-31.51v21.66l2.54-4.29s17.14 17.76 1.95 45.65c0 0 5.4-2.06 8.86-9.32 0 0 9.71-12.54 3.07-27.75l-9.37-17.17s1.13-11.12-5.68-21.46c0 0-9.35-62.63-10.32-72.77 0 0-4.01-29.94-8.97-43.78 0 0-3.4-6.97-2.97-15.74z"/><path fill="#080806" d="m589.86 934.61-2.42 28.85s-3.91 10.94.21 22.65c0 0-1.91 3.35 17.21 14.86l3.71 12.49s2.05 7.61 21.51 13.66c0 0 14.43 3.9 41.43 3.9 0 0 46.71-2.73 58.41-8.97 0 0 11.71-4.88 13.07-12.29 0 0 1.95-19.12-4.29-22.24 0 0 1.76-18.14-18.34-32.39 0 0-19.25-8.88-24.99-37.1l-7.02 4.99s10.81 23.59 15.95 29.12l18.03 14.31s10.39 10.5 9.28 23.89l3.66 4.98.59 15.22s-18.91 13.64-70.96 12.98c0 0-42.9 1.67-51.08-17.64 0 0-3.63-20.42-7.76-21.53v8.05s-9.98-2.33-11.93-11.49l1.4-9.58 1.02-7.32.73-27.07z"/><path fill="#0d0607" d="M596.55 963.98s18.39 10.95 20.86 20.26c0 0 .1 8.21 10.75 12.37 0 0 28.08 13.45 82.28 1.98 0 0 14.08-2.99 21.17-8.27l3.66 4.98s-15.2 14.11-57.88 12.85c0 0-31.3.67-49.96-4.13 0 0-12.4-4.9-15.95-18.38 0 0-10.45-13.77-15.95-14.34z"/><path fill="#060407" d="M627.43 937.57s-6.29 13.24 3.81 13.32c0 0-3.55 10.06 7.01 12.57l-.28-1.36s15.2-6.74 33.34-7.34c0 0 14.52-.95 26.67 1.18 0 0 13.11 3.26 19.98 7.04l-13.65-10.83-6.73-.73-4.98-1.32s-29.84-5.59-53.12 7.9c0 0-3.57.13-3.04-3.07 0 0-1.52-5.78-2.22-8.05 0 0-5.78-.02-3.46-3.49z"/><path d="m640.67 937.34-13.24.75 3.32 5.29c0-.01 9.23-6.11 9.92-6.04" class="st50"/><path d="M634.21 946.86s18.81-11.87 50.48-8.63c0 0 1.39-4.21-4.54-5.12l2.04-5.27s8.63 3.74 9.16 13.32c0 0 8.2 1.15 6.22 10.24l-4.98-1.32s3.7-4.22-7.77-6.71c0 0-34 .01-43.76 8.03l-4.63 3.51z" class="st126"/><path d="M338.52 911.26s-9.05 4.15-14.8 9.13c0 0-6.73 1.14-12 6.42 0 0-6.15 1.62-22.24 1.94 0 0-33.85 2.76-33.56 38.85 0 0-4.76 2.85-4.39 7.02l-.02 16.39s7.75 13.19 42.43 15.89c0 0 27.46 2.98 46.63-.16 0 0 23.27-.37 56.19-16.02 0 0 2.78 3.97 7.32 4.77 0 0 10.39 1.38 18.73-.82 8.34-2.19 23.22-1.32 36.97-15.95v-14.34s-1.02-8.04-2.78-8.85c0 0-1.5-30.94-4.48-34.46l-4.93 4.56s3.42 35.98 4.93 37.07v14.24s-13.32 13.15-45.22 10.93l-5.9-5.46s-59.17 24.93-115.5 14.44c0 0-11.81-.21-27.18-8.18l-.2-13.09 5.71-6.05s-5.55-27.97 29.27-33.95h18l10.1-5.85s.79-3.09 5.46-3.51l9.76-5.42s5.35-4.7 8.58-4.53l.6-.34z" class="st0"/><path fill="#060404" d="M264.24 969.54s14.46 14.02 86.33 10.83c0 0 43.44-13.2 52.68-13.75 0 0 42.29-6.56 48-9.22l1.27 5.32s-54.65 12.46-55.07 11.15c0 0-45.28 15.11-49.22 13.23 0 0-61.04 4.8-89.7-11.51z"/><path fill="#030605" d="M311.51 935.59s30.01 5.18 36.72 26.19c0 0 3.41 4.89 4.25 6.88l.88-7.46s-5.71-13.39-20.14-20.92l1.32-.8s14.28 8.63 16.75 11.56l4.75.15s7.24-4.55 7.4-5.56c.18-1.1-.02-1.02-.02-1.02l.08-.02.31-3s-3.14-9.72-20.44-14.77c0 0 13.35 2.87 25.92 14.36l4.02.07c.1 0 8.1-7 7.68-8.12-.5-1.34-4.1-8.56-5.35-9.07L346 915.94s29.14 10.93 29.64 16.14c0 0-2.02 4.01-4.49 5.27 0 0-14.41-12.68-34.34-16.54l-9.76 5.42s19.06.7 31.8 16.05c0 0-1.48 3.27-5.27 4.63 0 0-12.5-11.41-32-17.17z"/><path d="m671.93 600.19 4.3 5.6-16.06 24.95s2.1 11.15.66 19.28l-7.17-3.07s1.16-14.6-4.6-8.63c0 0 1.13-7.22 10.54-20.68z" class="st126"/><path fill="#070807" d="M671.61 580.52s-6.93 11.83-7.39 13.43l2.14-1.01 5.78 8.24s-15 3.94-18.61 12.5c0 0-6.74 11.63-20.84 17.84 0 0-14.77 9.46-18.62 5.48l2.73-5.31s-13.12 8.16-26.29 5.31c0 0-13.86 2.39-4.63-5.99l4.63-7.07s-21.9-8.23-26.58-15.51c0 0 30 13.93 42 9.84l-8.78 9.8s23.56-4.68 33.07-15.8l-2.63 12.83 12.58-10.2s10.83-9.07 13.46-16.1c.01.01 13.35-16.69 17.98-18.28"/><path fill="#020305" d="m472.05 436.71-6.62.63s4.6-20.66 11.29-30.12c0 0-.8-14.34-8.87-26.87 0 0-13.63-20.08-13.33-24.67l9.67 6.86s.88 3.11 2.49 5.43c0 0 11.27 17.1 15.22 32.32 0 0 20.49-22.53 33.95-25.61l12.28 2.3s-50.71 15.08-56.08 59.73"/><path fill="#393b38" d="M464.19 362.54s19.56 15.15 51.65 12.15c0 0-15.99 6.73-33.95 25.61 0 0-9.56-23.73-12.37-27.7.01-.01-6.21-9.01-5.33-10.06"/><path fill="#060706" d="m420.73 308.69 4.19 7.95s-25.54 6.22-36.01 26.63l6.29-14s-62.88 1.92-87.99 68.52l9.79-2.77s-20.67 9.46-28.18 20.39c0 0 24.18-5.82 33.56-.36l-1.82 2.81s-43.19-11.55-54.19 23.34l-9.56 11.14s-3.97-16.05 12.81-31.47c0 0 22.44-18.21 27.7-24.52 0 0 13.46-36.3 47.22-58.28 0 0 10.15-12.22 54.24-17.3 0 .01 15.22-11.3 21.95-12.08"/><path fill="#040303" d="M429.46 325.95s-7.67 51.12 4.19 69.07c0 0 1.8-8.97 24.39-19.71 0 0 13.05 12.52 11.95 21.07l-14.72-16.58 2.77 1.07s-7.83 2.18-28.58 23.92c0 0-16.53-24.7-4.53-88.15z"/><path d="m442.78 258.94 2.5-3.8s7.16 14.34 66.28 11.41c0 0 27.06-3.43 47.56-15.66l-8.05-5.56s22.53-3.9 22.53 17.41c0 0-3.73-9.05-7.17-9.8l-5.56 1.46s-12.58 13.17-44.34 15.95c0 0-25.9 2.05-38.63 0 0 0-18.29-2.05-22.83-4.1z" class="st50"/><path d="M455.07 266.25s38.24 11 70.63 2.94c0 0 17.86-3.22 23.07-6.96l-3.27 14.56s-6 4.83-7.17-.73c0 0-3.51 8.34-26.63 8.78 0 0 14.34 3.66 26.05-3.22l3.8 1.32s4.24-4.98 9.8-6c0 0-10.1 22.68-40.83 24.44 0 0-29.41 3.51-49.9-9.66l1.32-8.93s16.97 2.63 18.58 2.05c.01 0-21.79-.88-25.45-18.59" class="st134"/><path fill="#b9bab9" d="M548.77 262.23s9.63-4.89 11.93-7.83l1.07-.24s-1.95 17.91-16.27 22.63z"/><path d="M443.79 259.54s7.2 5.38 11.97 28.09c0 0-5.97-2-2.54 2.73 0 0 7.12 12.39 34.44 16.68 0 0 15.71 1.07 26.14-.98 0 0 32.27-2.67 39.49-21.63 0 0 10.63-10.08 13.14-31.5l-4.66 1.23s-1.56 17.31-16.27 22.63c0 0-5.66 5.26-7.17-.73 0 0-2.98 8.43-26.63 8.78 0 0 15.07 4.23 26.05-3.22l3.8 1.32s6-5.96 9.8-6c0 0-10.24 22.86-40.83 24.44 0 0-31.85 3.3-49.9-9.66l1.32-8.93s16.14 2.96 18.58 2.05c0 0-22.05-.55-25.46-18.58z"/><path d="M620.96 253.24c9.96 28.72-2.69 48.55-2.69 48.55l-3.35-1.65c-1.32 5-18.4 30.51-18.4 30.51 25.95-14.3 44.02-46.51 44.02-46.51l-7.49-37.39-13.25 4.39z" class="st136"/><path d="m636.06 241.49 9.24 38.64-5.28 5.25-6.96-38.63z" class="st136"/><path d="M472.43 238.17s-14.44-14.63 3.32-20.49c0 0 5.27-.59 14.24 6.34l4 .2s4.78-5.37 11.46-6.05l8.84.2s5.26 2.15 8.19 8.78l-.55 5.71s-1.79 4.54-8.81 7.85c0 0 11.68-4.15 12.56-7.27l-.26-6.98s-2.34-8.39-10.54-10.93l-9.42-.48s-12.44 4.1-12.92 5.85l-11.12-5.27s-9.76-2.24-11.9 1.27c0 0-8.08 3.81-6.45 11.76-.02 0 1.46 9.03 9.36 9.51m-16.12-54.36s8.68-9.54 22.61-7.02c0 0 8.29 3.51 9.38 3.29 0 0 2.95-5.27-1.37-7.17 0 0-9.32-6.1-18.19-1.82 0-.01-13.56 3.33-12.43 12.72"/><path d="M525.4 180.59s16.78-8.58 29.66-2.54c0 0 12.88 6.99 13.07 8.47 0 0-17.17-30.4-45.65-9.68-.01 0-.01 3.17 2.92 3.75" class="st50"/><path fill="#fffefe" d="M467.17 224.81s6.28-14.75 22.82-.78l4 .2s4.67-6.2 11.46-6.05l8.84.2s6.73 4.22 8.19 8.78c0 0-16.03-11.44-26.09 0l-6.69.67c-.01-.01-14.47-11.24-22.53-3.02"/><path d="M473.31 198.93s1.32 3.95 3.8 3.37c0 0 5.85-3.8 1.9-4.68 0 0-6-3.8 4.39-2.63 0 0 .88.42 4.24 3.58 0 0-4.39-18.14-19.9-6.98 0 0-9.51 7.21-3.8 21.11h10.1c0-.01-8.34-10.99-.73-13.77m68.04 19.08h-12.73s-6.73-7.8 0-21.12c0 0 4.5-10.69 16.88-7.18 0 0 10.04 2.28 11.65 13.8 0 0-7.24-12.61-15.76-6.62 0 0 8.15 2.63.69 7.75 0 0-4.24-1.04-5.71-4.32 0 0-4.53 11.61 4.98 17.69" class="st134"/><path d="m474.04 212.69.84 2.24s-7.45-1.56-11.68 0l-4.23 1.71-4.96-4.64 8.11 1.42s-4.51-8.22-2.65-14.66c0 0 7.45-20.88 23.2-13.21 0 0 8.8 2.4 8.56 17.97 0 0-1.38 5.52-2.23 7.86-.84 2.34 4.71 3.29 7.38 1.76 0 0 10.65-5.78 16.5-2.85 0 0 3.22 1.17 4.76 2.41 0 0-11.56-3.07-15.36 0 0 0-5.63 2.49-9.44 3 0 0-2.93-.29-5.63-3 0 0 1.79-10.54.44-14.13 0 0-4.4-15.9-16.76-8.93 0 0-10.79 4.28-8.39 18.32l1.44 4.74h10.1z" class="st0"/><path fill="#8a724e" d="M473.74 204.49s1.54 6.88 8.19 5.19c0 0 1.54-9.51 4.76-1.98 0 0 .66 4.9-6.48 6.51.01.01-9.9-3.72-6.47-9.72"/><path fill="#302a1c" d="M474.04 212.69s-8.8-10.62-.73-13.75c0 0 1.68 5.41 4.77 2.67 0 0 4.67-2.98.75-4.12 0 0-5.43-3.69 4.58-2.51 0 0 4.07 3.01 4.24 3.58s1.98 4.22-.44 14.13l-2.32-.69s1.83-1.58 1.81-4.29c0 0-2.32-5.98-4.11-.59l-.64 2.57s-6.03 2.24-8.19-5.19c0 0-2.88 4.26 3.62 8.29z"/><path fill="#060304" d="m474.04 212.69.84 2.24s5.27.34 6.52.71l5.8-2.95-2.32-.69s-1.85 1.71-4.66 2.22l-2.86-1.44z"/><path fill="#0a0505" d="M557.15 217.66s-8.39-.37-14.1.95c0 0-6.07 2.56-11.71 6.37v-2.06s6.08-5.82 10-4.9c0 0-9.39-4.75-4.98-17.7 0 0 1.95 3.81 5.71 4.32 0 0 7.59-4.23-.69-7.75 0 0 7.47-6.29 15.76 6.62 0 0 .54 8.37-3.63 11.01z"/><path fill="#81563a" d="M538.08 206.76s5.78 6.8 10.24 5.41c0 0 3.96-3.95 4.14-6 0 0 1.93 1.9 1.71 5.05 0 0-.4 4.71-7.1 5.41.01.01-9.79-1.67-8.99-9.87"/><path fill="#c4b39f" d="M557.04 202.81s5.17 6.97-2.29 12.78l-1.23-1.07s4.5-4.63 3.52-11.71"/><path d="M525.63 212.69s-2.14-28.55 20.49-22.8c0 0 8.89 2.38 10.93 12.92 0 0 4.75 7.16-2.29 12.78l2.4 2.08s2.73 0 9.24 3.15h1.02s-4.98-3.8-8.64-4.76l-.36-1.68s8.52-1.01 10.02.56c0 0 .19-2.96-8.49-2.61 0 0 1.98-4.91.29-9.51 0 0-1.76-19.61-21.66-18.36.01-.01-22.48 5.4-12.95 28.23" class="st126"/><path fill="#2d2e32" d="M473.02 153.91s45.11-3.04 70.95.42c0 0-38.82-16.07-70.95-.42"/><path fill="#43433e" d="M571.9 160.91s41.56 16.19 53.85 32.58c0 0-32.72 5.12-17.75 51.64 0 0 14.69 10.93 10.22 45.33 0 0-4.38-14.2-5.15-15.22 0 0 6.54 47.62-60.34 78.75 0 0-34.75 20.96-62.77 11.39 0 0-54.47-6.79-59.47-58.71 0 0-16.46-56.25 20.06-86.84l5.08 4.73s-32.43 18.71-22.7 63.99c0 0 13.49 58.36 84.66 56.54 0 0 24.07.01 51.78-28.38 0 0 26.53-26.84 20.29-61.17l-2.36-16s12.31 17.17 12.11 21.27c0 0 2.73-18.14-11.32-31.8l5.95.2-5.56-11.11 4.49 6.8s16.24-41.62-17.07-56.16z"/><path fill="#545752" d="M574.59 168.25s34.74 9.54 18.74 57.51l-4.79-7.75 6.16 11.66-6.55-.74s14.66 12.88 11.32 31.8c0 0-9.58-17.88-12.11-21.27l2.23 15.11s-7.18-20.38-23.15-22.97c0 0 20.81-8.92 17.21-43.76-.01 0-4.59-15.59-9.06-19.59"/><path fill="#9b9b96" d="m447.73 212.49 2.87 7.27s-21.39 20.95-22.35 43.68c0 0-3.14 28.62 7.55 58.76 0 0-18.45-23.8-10.87-66.73l-4.33 8.67s-3.6-11.54 14.98-33.03c0-.01 11.17-13.89 12.15-18.62"/><path fill="#4f5251" d="M485.76 149.28s-10.72 1.21-17.31 5.9c0 0 16.29-.83 18.75 5.66 0 0 8.61 11.02 24.41 5.61 0 0 19.91-10.3 22.1-9.71 0 0 16.96-1.69 26.75 1.32 0 0-10.58-9.13-39.92-9.94 0 0 21.44 5.03 22.18 5.8 0 0-47.31-5.74-68.7-.11.02-.01 10.18-4.85 11.74-4.53"/><path fill="#3b3738" d="M549.72 153s25.7 7.45 28.05 10.47l-5.56-2.31 3.94 7.78-2.08-.69s-8.54-9.31-22.13-12.18l7.44 1.59c0 .01.82-1.13-9.66-4.66"/><path d="M567.23 231.05s15.49 2.88 22.35 23.52-10.31 54.17-20.16 62.06c0 0-25.4 27.49-51.78 28.38 0 0-47.72 10.47-70.97-25.27 0 0-29.36-43.02-8.86-77.05 0 0 11.12-16.14 17.87-18.22l4.58 1.32s-20.69 9.71-24.81 33.31c0 0-5.91 31.22 15.55 58.63 0 0 20.88 30.92 64.19 24.88 0 0 36.64-4.19 60.76-42.05 0 0 14.27-21.66 6.92-51.29 0 0-8.46-13.12-26.71-18.95z"/><path d="m607.75 244.91 12.06 6.24s13.77 21.85-1.43 51.07l-3.45-2.07s.79 5.28-18.4 30.51l3.95 7.41s-46.18 33.51-72.35 38.91l-12.28-2.3s-30.31 3.72-51.65-12.15c0 0-28.13-17.66-32.64-33.96l-2-1.65-4.63-10.29-4.19-7.95s-6.13-19.08-4.81-35.18l9.01-18.05s-7.59 40.78 10.87 66.73c0 0 28.39 60.23 94.39 40.69 0 0 39.78-12.92 60.97-36.46 0 0 23.32-23.62 21.97-51.25 0 0 5.03 9.17 5.15 15.22-.02.01 2.3-35.51-10.54-45.47"/><path fill="#040406" d="m636.06 241.49 9.24 38.64s-5.38 2.62-24.02 29.45c0 0-16.22 16.87-24.76 21.07l3.78 8.07s51.19-40.88 50.85-55.09v-6.84l-9.15-42.2z"/><path fill="#fffffc" d="M541.39 222.92s5.85-1.23 25.04 0c0 0-4.53-8.43-25.04-3.55l-3.36 3.55z"/><path fill="#fffef9" d="m456.77 227.82 3.77 3.28s-32.12 10.48-17.76 64.17l8.21 22.49s-31.3-35.22-8.34-76.27c0 0 10.63-11.66 14.12-13.67"/><path fill="#858780" d="M450.99 317.75s65.23 54.48 122.61-25.31c0 0 14.39-33.49 2.34-49.75.27-.61 7.41 3.46 8.1 10.25 0 0 8.66 37.91-22.27 65.19 0 0-19.19 26.85-59.75 25.25 0 0-30.2 1.3-51.03-25.63"/><path d="m468.45 155.18-3.46 3.79s11.32-4.66 23.02 5.29c0 0 12.81 13.6 27.13 4 0 0 16.96-12.63 38.49-9.29 0 0 24.71 8.97 27.05 28.98 0 0 4.08 31.42-23.53 42.47l9.95 1.28s24.06-12.32 16.03-46.17c0 0-4.93-36.58-51.78-28.83 0 0-21.79 11.07-25.89 10.95 0 0-7.93 2.47-18.25-6.8 0-.01-.7-5.97-18.76-5.67" class="st0"/><path d="m420.6 264.13-4.68 9.38-3.32 3.28s-7.9-19.83 16.97-48.97c0 0 3.54-5.55 5.87-4.9 0 0-14.72-33.79 9.02-39.11 0 0-3.2-13.45 9.54-25.48l10.98.63s-16.39 9.26-14.39 31.36c0 0 4.74 21.09-15.02 40.77.01.01-16.67 18.76-14.97 33.04" class="st50"/><path fill="#cfcfca" d="M442.78 190.33s-9.1 2.35-3.25 25.26c0 0 5.92-6.4 3.25-25.26"/><path fill="#acaca6" d="M460.38 230.95s6.75 7.15 11.89 7.07c0 0 11.58 8.32 29.34 1.68 0 0 7.22-4.1 10.15-.78l2.37 1.63h-8.61s4.09 4.61 10.53 1.98 14.44-3.02 12.49-16.87l2.66-.83 10.04-5.61-3.36 3.55s20.46-.85 27.51-.05l4.53 1.06-12.15 6.64s15.77 6.52 22.09 14.19l-4.08-2.07s8.1 10.25 4.8 24.8l-7.14-4.75s2-17.8-22.53-17.41l8.05 5.56s-30.68 20.5-72.4 15.85c0 0-36.14-.84-41.3-11.24l-2.36 3.4-3.15 1.97c-.01.01 3.49-24.44 20.63-29.77"/><path fill="#adaea8" d="M442.9 258.76s10.16 5.31 12.86 28.87c0 0-8.9-2.26 2.28 7.83 0 0 29.6 21.66 73.31 6.05 0 0 19.64-5.42 29.95-31.88 0 0 5.01-15.13 5.13-16.7 0 0 2.52-.48 7.17 9.8l7.14 4.75s1.23 20.51-18.97 39.46c0 0-27.06 31.33-58.56 28.95 0 0-28.86 1.61-52.22-18.14 0 0-15.72-33.02-11.25-57.02z"/><path fill="#1a1b19" d="M462.14 309.58s9.37 14.53 57.07 9.56c0 0-45.95 14.83-57.07-9.56"/><path fill="#e5e4db" d="M483.06 160.84s-17.48-6.56-32.46 20.42c0 0 4.97-32.71 32.46-20.42"/><path fill="#94948f" d="M467.17 224.81s8.21-7.46 22.53 3.01l6.69-.67s8.45-10.56 26.09 0c0 0 2.08 8.59-8.19 13.98 0 0-3.83-5.76-12.52-1.27 0 0-15.18 7.37-29.34-1.68 0-.01-7.44-7.96-5.26-13.37"/><path d="M484.33 237.39s-.88-12.29-10.73-12.58c0 0-2.63 1.27 0 5.37 0-.01 6.24 5.46 10.73 7.21m9.66 0s2.05-7.8 12.1-11.12c0 0 6.05-2.15 8.19 2.83 0 0 .39 4.68-5.27 5.95 0 0-6.73-2.73-15.02 2.34"/><path fill="#a7a6a2" d="m464.14 222.92-5.17-6.28s-7.84-5.86-4.96-16.34c0 0-.61-11.96 1.06-15.91 1.67-3.94 3.87-13.67 22.45-14.51 0 0 8.91 1.06 11.48 5.45 0 0 .08 3.8-.8 4.17l-.88.37s6.11 6.09 14.18 6.21l11.07-1.09 11.06-5.29-1.16-2.84s10.1-8.9 27.77-5.77c0 0 12.58 6.05 17.89 15.45l12.63 15.43s4.09-20.99-9.77-32.08c0 0-13.67-17.63-36.37-10.11 0 0-10.59 2.17-26.43 11.14 0 0-6.82 3.98-19.19-5.72 0 0-8.43-11-24.51-.43 0 0-13.62 11.02-13.89 16.51 0 0-.44 5.33 0 9.07 0 0 1.46 8.48-.88 16.71s-2.06 5.74-2.06 5.74 1.92 12.44 12.6 13.03l-3.49 2.01 6.62 7.38 5.63 2.19c0-.02-8.9-5.97-4.88-14.49"/><path fill="#8c8b89" d="M458.96 216.64s5.87-4.08 15.92-1.71c0 0-10.37 3.34-10.74 7.98z"/><path d="m481.4 215.64 5.8-2.95s2.59 3.6 8.18 2.46l8.74-3.37s11.63-.41 13.51.91c0 0-7.07-6.05-16.79-1.54 0 0-9.39 5.75-12.14.81l1.62-5.02s4.29 2.41 19.52 0c0 0 12.54-.47 13.43.52l.87.92 1.26 3.74.23-1.96s.87 6.88 2.99 7.85h12.73s-4.51-.52-10 4.9v2.06l-2.66.83s2.74 13.24-8.1 15.28l-6.31 2.33s-5.97.87-8.61-2.72c0 0 7.57.07 8.61 0 0 0 11.12-5 11.12-7.32l-.23-7.58s-4.43-9.42-10.31-10.08l-9.42-.68s-12.7 4.07-12.92 5.85z" class="st162"/><path d="m481.4 215.44 5.8-2.95s2.59 3.6 8.18 2.46l8.74-3.37s8.91-.97 13.51.91c0 0-6.98-4.37-16.79-1.54 0 0-8.86 5.77-11.93.85l1.4-5.05s4.29 2.41 19.52 0c0 0 12.71-.9 13.59.09l.7 1.35 1.26 3.74.23-1.96s.87 6.88 2.99 7.85h12.73s-4.51-.52-10 4.9v2.06l-2.66.83s2.74 13.24-8.1 15.28l-6.31 2.33s-6.28.82-8.92-2.76c0 0 7.88.12 8.92.04 0 0 11.12-5 11.12-7.32l-.23-7.58s-4.43-9.42-10.31-10.08l-9.42-.68s-12.7 4.07-12.92 5.85z" class="st162"/><path fill="#848681" d="m462.12 213.42-4.15 1.68s-6.63-4.26-3.96-14.8c0 0-1.17-17.2 2.3-18.94v2.45s12.68-14.39 31.02-3.95c0 0 6.6 7.8 25.25 5.12l11.06-5.29 1.76.9s14.15-9.22 29.66-2.54l12.49 7.26 13.2 16.64s-2.07 15.78-10.68 21.96l-3.65-1-5.45-4.36 6.44 2.26-8.64-4.76-.36-1.68s9.39-.95 10.02.56c0 0-1.07-2.98-8.49-2.61 0 0 1.42-4.66.29-9.51 0 0-1.73-19.75-21.66-18.36 0 0-17.17 4.02-14.46 23.51 0 0-8.77-1.77-14.29-1 0 0-13.59 2.14-19.52 0 0 0 4.29-16.22-8.93-21.92 0 0-12.41-6.4-20.65 11.51.04-.02-3.66 5.48 1.4 16.87"/><path d="M646.04 191.58S687.85 235.68 690 237c0 0 15.61 19.94-2.73 26.73 0 0-12.52 8.25-34.55 1.96h-3.97l-2.27-8.44s36.3 11.28 43.13-4.31c0 0 .78-11.08-25.17-32.55l-24.41-28.81z" class="st67"/><path fill="#edc767" d="m636.06 186.04 3.72 2.97 4 6.19s20.55 24.84 30.22 33.51c0 0 15.06 14.77 15.6 24.23 0 0-4.71 16.49-43.13 4.31L642 234.59s3.17-22.91 1.42-24.61c0 0 39.54 40.34 40.73 42.95 0 0 1.52-4.42-48.41-55.66z"/><path fill="#090607" d="m472.83 147.75 3.6 3.64s40.52-5.53 80.61 3.87c0 0 52.39 18.25 68.77 38.17 0 0 53.25 52.19 58.34 59.51 3.47 3.66-7.84-14.85-35.62-42.76 0 0-27.42-28.79-37.7-33.85 0 0-33.18-21.83-58.36-27.03-25.5-5.27-29.03-9.27-75.72-2.93z"/><path fill="#583712" d="M593.17 92.49s16.14 12.5 20.42 27.81c0 0 4.7 21.48 1.86 50.94 0 0 20.54 16.9 20.54 18.28l.08-3.49s-6.92-7.21-18.32-15.19c0 0 1.89-34.63.63-40.54 0 0-1.92-16.06-14.83-32.48z"/><path fill="#f9ef6b" d="m640.11 189.44-4.37-2.92s0-42.01-2.29-47.8c0 0-7.29-22.39-27.87-40.02 0 0 17.98 7.31 31.2 36.17 0 .01 6.49 20.86 3.33 54.57"/><path fill="#908e89" d="M608.05 233.3s-1.16-12.89 0-17.67c0 0 5.98-15.97 15.31-15.76 0 0 12-2.54 13.56 12.81 0 0 3.67 17.18-8.19 27.05-.01.01-14.43 12.3-20.68-6.43"/><path fill="#050505" d="M619.81 215.59s6.19-9.91 11.89 1.05c0 0 2.2-11.58-8.56-8.8 0 0-9.34 3.51-8.22 20.93 0 0 1.92-11.12 4.88-7.46 0 0 5.6 6.44-2.59 14.63 0 0 8.28 1.03 8.24-14.26 0-.01-.12-4.79-5.64-6.09"/><path fill="#353535" d="M598.64 449.89s36.43 2.27 50.28 22.1c0 0 15.31 1.94 11.19 32.97 0 0-2.62 10.61 9.39-12.97 0 0 10.35 15.78 10.3 21.85 0 0-1.92 20.04-5.96 27.25l-1.91-10.26s-14.42 16.4-25.38 22.04c0 0-10.18 7.47-10.32 17.27 0 0-1.58-8.98 1.14-16.58 0 0-16.14 40.84-57.81 31.54 0 0 19.07-5.19 26.92-13.9 0 0-26.84 10.98-53.56 3.66 0 0-19.27-2.41-28.1-8.05 0 0 20.97 16.02 29.7 16.24 0 0-32.78-2.46-69.75-19.56l15.69 2.81s-32.85-10.05-27.99-18.84c0 0 14.44-22.04 20.35-25.52 0 0 14.1-13.78 21.27-16.24l15.8-8.05-10.72 4.12s-25.21 1.64-46.24 21.16c0 0-39.97 30.61-44.74 37.41 0 0 61.46 41.4 74.45 45.44 0 0 40.57 23.45 87.87 18.16 0 0-22.29-9.52-26.58-15.51 0 0 32.35 15.06 42 9.84l-8.78 9.8s23.21-4.07 33.07-15.8l-2.63 12.83s19.84-13.25 26.05-26.29c0 0 13.36-17.73 17.32-18.32 0 0-6.74 11.41-6.73 13.46 0 0 14.53-5.98 26.42-17.28s15.41-12.38 17.55-18.99c0 0 1.81-3.32.6-11.64-1.04-7.14-4.31-17.97-12.87-33.54 0 0-20.23-35.72-46.32-47.49 0 .01-29-17.41-50.97-15.12"/><path d="M708.79 546.05s-19.73 30.49-32.56 31.96l-6.07 9.99 1.77-10.58s-19.05 8.77-21.77 19.61c0 0-11.87 17.56-17.45 19.02l-.53-10.27s-16.63 16.71-25.47 14.36l-6.21 7.15s16.47-1.54 29.75-15.03l-2.63 12.83s17.94-12.63 25.12-24.3l14.05-12.8-2.54 5.96s20.59-8.81 26.42-17.28l15.81-15.41 2.34-2.28v-12.93z" class="st19"/><path fill="#030203" d="m464.99 158.97-10.98-.63 6.53-5.22 12.29-5.37 4.86 3.66c-.01 0-8.45 2.3-12.7 7.56"/><path fill="#0e0d0c" d="M259.49 581.83s-.83-1.59 5.22-.73c0 0 2.15 2.51 6.73 2.19 0 0 12.68-5.02 20.19-1.9 0 0-13.8 2.68-17.12 4.15l-6.93 5.19-8.13-4.89-.35-.29z"/><path fill="#a3a2a0" d="M504.52 444.76s41.99-2.32 67.3 14.88l1.4-1.76s-23.73-17.6-66.56-17.3l-1.06 1.37 2.47 1.92z"/><path d="m576.14 454.97-2.85 2.89s-23.87-17.58-66.63-17.28l2.38-3.24 4.37.24 30.44 3.31c-.01 0 20.65 6.37 32.29 14.08"/><path fill="#37261e" d="M603.52 418.02s1.41-23.96 15.5-36.8c0 0-12.41 27.91-12.02 35.21z"/><path fill="#f7d624" d="M745.31 361.06s47.28 46.55 4.74 128.78l-1.62 3.65-.85 1.9-1.8 4.04.31-11.83-13.66 35.43 2.3 15.33s5.28-7.31 13.28-36.57l.4 5.65s24.8-29.69 26.03-68.35c0-.02 5.23-47.54-29.13-78.03"/><path d="M648.74 265.68h3.97l.71.2.84 2.73-1.55 9.36-1.56-1.18z"/><path fill="#050605" d="m447.58 683.21 36.09 2.19s4.34.58 4.49 4.8l.59 17.29s.61 3.76-2.54 3.7l-37.46-3.7h-1.17c-.05-.95-.09-1.9-.14-2.86.49.35 1.08.68 1.79.91 3.18 1.02 6.13-.89 6.72-1.28l28.7 1.42-1.39-16.96-34.72-2.31.23 2.25-1.98.76z"/><path fill="#3d3f38" d="m448.55 686.43 34.72 2.31 1.39 16.96-29-1.39s6.46-4.84 2.19-12.52c0 0-2.81-4.11-9.08-3.11z"/><path d="m638.24 963.46 1.2-.64-1.39-.28z" class="st101"/><path d="m505.67 441.92 2.72-3.68s-6.15.59-6.39.83z" class="st52"/><path d="M277.35 483.92s-1.86-2.62 9.67-9.22" class="st2"/><path d="M376.28 728.06s6-1.52 9.44-5.35l2.81-2.43-1.67 1.97s-1.7 6.29-9.17 9.37z" class="st68"/><path d="M447.2 700.51s-4.88.54-3.98-6.35c0 0 .2-2.63 3.38-3.17l.19-1.55s4.77-2.81 9.47.82c0 0 6.92 4.63 0 14.03 0 0-4.19 3.16-8.82.65z" class="st57"/><ellipse cx="451.23" cy="696.06" fill="#d3d3d5" rx="5.01" ry="2.41"/><path d="m446.8 654.69 1.94-50.1s13.07 6.95 19.6 12.04 3.5 23.73 3.5 23.73l-10.25 33.63-8.78-.88z" class="st27"/><path d="m451.01 585.17 8.13 5.42-.66 15.91-.32 3.42s-7.83-4.6-13.02-6.97z" class="st24"/></svg>