<?xml version="1.0" encoding="utf-8"?>
<!-- Generator: Adobe Illustrator 24.0.2, SVG Export Plug-In . SVG Version: 6.00 Build 0)  -->
<svg version="1.1" id="Layer_1" xmlns="http://www.w3.org/2000/svg" xmlns:xlink="http://www.w3.org/1999/xlink" x="0px" y="0px"
	 viewBox="0 0 1080 1080" style="enable-background:new 0 0 1080 1080;" xml:space="preserve">
<style type="text/css">
	.st0{fill:#1B130D;}
	.st1{fill:#ECA920;}
	.st2{fill:#3E3B3D;}
	.st3{fill:#9D9994;}
	.st4{fill:#51544F;}
	.st5{fill:#F8D175;}
	.st6{fill:#F5E3A4;}
	.st7{fill:#605B53;}
	.st8{fill:#F3C517;}
	.st9{fill:#D39229;}
	.st10{fill:#2F1E0F;}
	.st11{fill:#F0C11A;}
	.st12{fill:#26160D;}
	.st13{fill:#683C17;}
	.st14{fill:#FDD71E;}
	.st15{fill:#3F403D;}
	.st16{fill:#86805D;}
	.st17{fill:#EAB120;}
	.st18{fill:#E3AC39;}
	.st19{fill:#979896;}
	.st20{fill:#B5B2B0;}
	.st21{fill:#3A3A3A;}
	.st22{fill:#5A5854;}
	.st23{fill:#FCCE09;}
	.st24{fill:#F7CB11;}
	.st25{fill:#E2A325;}
	.st26{fill:#D69629;}
	.st27{fill:#DDA126;}
	.st28{fill:#D19A2A;}
	.st29{fill:#4D4E4E;}
	.st30{fill:#1F1209;}
	.st31{fill:#868480;}
	.st32{fill:#62605E;}
	.st33{fill:#DF9826;}
	.st34{fill:#A6772B;}
	.st35{fill:#A8A499;}
	.st36{fill:#2E2D2B;}
	.st37{fill:#3C3C3A;}
	.st38{fill:#9F9B98;}
	.st39{fill:#60625E;}
	.st40{fill:#ADADA8;}
	.st41{fill:#151515;}
	.st42{fill:#28231B;}
	.st43{fill:#FFFFFF;}
	.st44{fill:#0A0907;}
	.st45{opacity:0.64;fill:#969695;}
	.st46{opacity:0.63;fill:#878581;}
	.st47{fill:#171815;}
	.st48{fill:#898783;}
	.st49{fill:#6F4A1D;}
	.st50{fill:#CEA571;}
	.st51{opacity:0.5;fill:#E6C299;}
	.st52{fill:#AB885E;}
	.st53{opacity:0.69;fill:#956E46;}
	.st54{fill:#583A20;}
	.st55{fill:#E1C6A1;}
	.st56{opacity:0.72;fill:#1B130D;}
	.st57{fill:#684923;}
	.st58{fill:#CFA472;}
	.st59{fill:none;stroke:#ED1C29;stroke-miterlimit:10;}
	.st60{fill:#3A2411;}
	.st61{fill:#3B2A17;}
	.st62{fill:#F0F0EE;}
	.st63{opacity:0.47;fill:#89683C;}
	.st64{fill:#AD895D;}
	.st65{opacity:0.43;fill:#1B130D;}
	.st66{fill:#89663D;}
	.st67{fill:#D1B07A;}
	.st68{fill:#D1B17F;}
	.st69{fill:#CDA573;}
	.st70{opacity:0.56;fill:#E8C79D;}
	.st71{fill:#B1885D;}
	.st72{opacity:0.9;fill:#1B130D;}
	.st73{fill:#8D6A47;}
	.st74{fill:#7C5631;}
	.st75{opacity:0.39;fill:#B0926F;}
	.st76{fill:#CEA674;}
	.st77{opacity:0.76;fill:#EFD2AD;}
	.st78{fill:#A98151;}
	.st79{opacity:0.5;fill:#906C47;}
	.st80{fill:#40403E;}
	.st81{fill:#9B9691;}
	.st82{fill:#555554;}
	.st83{fill:#706D6C;}
	.st84{fill:#F5E197;}
	.st85{fill:#ECD696;}
	.st86{opacity:0.63;fill:#9F9E9F;}
	.st87{fill:#5A5856;}
	.st88{opacity:0.93;fill:#FDD71E;}
	.st89{fill:#F8D856;}
	.st90{opacity:0.56;fill:#ADADA9;}
	.st91{fill:#020202;}
	.st92{fill:#D8C5AB;}
	.st93{opacity:0.89;fill:#D8C5AB;}
	.st94{fill:#5D5E59;}
</style>
<path class="st0" d="M866.07,490.25c-0.65,8.31-1.95,17.82-4.4,28.16c-1.68,7.11-3.66,13.58-5.72,19.37
	c-2.8,5.01-5.59,10.3-8.37,15.84c-2.7,5.43-5.19,10.72-7.48,15.85c-5.57,8.8-11.15,17.6-16.72,26.41
	c-5.35,6.07-10.69,12.15-16.04,18.22c-7.04,7.63-13.69,3.91-13.69,3.91L760.2,654.2c-0.78,27.58-13.69,33.45-13.69,33.45
	l-1.77,19.76c0.59,0.78,4.11,12.71,4.11,12.71c4.31,14.87-5.28,42.45-5.28,42.45l0.73,35.11c6.61,0.73,8.81,11.74,8.81,11.74
	c1.02,9.09,11.88,10.56,11.88,10.56c21.42,8.07,20.25,35.8,20.25,35.8c4.4,2.64,16.43,22,16.43,22
	c13.49,10.42,12.32,22.11,12.32,22.11c2.94,29.83-12.32,35.5-12.32,35.5v15.75c-2.94,38.73-37.85,36.97-37.85,36.97
	c-24.06,5.87-67.05-2.06-67.05-2.06c-18.48-2.49-20.68-11.88-20.68-11.88l-0.74-17.31c2.06-26.41,24.21-35.94,24.21-35.94
	c3.81-9.25,0-10.86,0-10.86c-22.01-1.76-23.91-22.74-23.91-22.74l-24.21-14.38c-8.95-2.93-19.07-16.72-19.07-16.72l-15.26-24.36
	c-11.74-22.74-35.65-48.56-35.65-48.56c-8.66-9.09-19.37,1.91-19.37,1.91l-42.54,25.82c1.17,8.8-3.52,9.1-3.52,9.1
	c-3.23,2.93-1.76,5.43-1.76,5.43c3.52,2.34,2.34,23.18,2.34,23.18s4.26-4.55,0.74,0c-3.52,4.54-2.94,6.45-2.94,6.45l3.52,4.4
	c5.28,17.02-4.1,28.46-4.1,28.46c-5.87,2.06-4.41,5.29-4.41,5.29c0.3,2.05,3.23,7.04,3.23,7.04c1.76,3.81,4.99,31.1,4.99,31.1
	c4.11,19.95-5.87,24.06-5.87,24.06c-9.09,9.39-46.65,6.45-46.65,6.45c-6.75-3.81-14.67-0.58-14.67-0.58
	c-2.64,0.29-39.03,9.09-39.03,9.09c-43.13,5.58-76.29-8.21-76.29-8.21c-14.08-1.76-11.15-20.25-11.15-20.25
	c-0.18-8.89,5.87-10.56,5.87-10.56c-0.29-22.01,16.43-29.05,16.43-29.05c8.51-6.75,37.86-7.92,37.86-7.92l13.49-7.92
	c7.63-2.94,3.23-4.11,3.23-4.11l-5.28-7.63c-6.16-14.08,0.59-25.82,0.59-25.82c4.1-3.52,2.93-7.34,2.93-7.34l-6.46-19.07
	c-7.92-26.7-1.17-46.65-1.17-46.65c2.05-13.79,43.82-63.28,43.82-63.28c-5.48-2.35-6.46-11.35-6.46-11.35l-53.2,0.98l-79.03-19.76
	c-15.06,19.76-38.15,7.83-38.15,7.83c-25.03,3.32-30.12-8.8-30.12-8.8c-28.36,1.56-28.36-24.26-28.36-24.26l-27.98-7.24
	c-10.56-1.56-7.23-10.37-7.23-10.37l19.36-164.5c0.2-10.96,5.87-11.55,5.87-11.55l14.28,1.77l20.54-163.14
	c-0.39-9.39,9.19-7.83,9.19-7.83l30.13,0.98c6.26,0.19,4.89-1.37,4.89-1.37l16.38-130.77c-0.15-10.41,13.64-8.8,13.64-8.8
	l156.1-5.43c7.48-1.61,14.09,2.06,14.09,2.06l108.66,47.09c8.21,3.33,3.52,17.02,3.52,17.02l-10.59,83.74
	c0.1-0.6,0.25-1.23,0.44-1.88l-4.91,45.33l11.15,4.5c0,0-10.54-47.85,7.11-71.28l3.57-6.14l0.01-0.01c3.37-4.26,5.88-7.12,5.88-7.12
	c2.68-2.15,2.6-4.5,2.6-4.5l0.19-17.8c1.57-11.74,13.5-15.06,13.5-15.06l5.09-9.78c7.23-10.37,6.84-14.87,6.84-14.87
	c4.89-25.43,21.32-43.42,21.32-43.42c15.85-20.15,56.34-19.17,56.34-19.17c29.34-0.98,61.42,21.9,61.42,21.9
	c19.76,9.78,31.69,40.5,31.69,40.5c6.46,16.82,0.78,47.33,0.78,47.33c-3.13,9-1.95,13.89-1.95,13.89l23.08,29.93
	c22.69,25.04,12.32,33.06,12.32,33.06c-8.8,11.34-28.95,4.5-28.95,4.5c-6.84-2.35-6.84,0-6.84,0c1.37,0.78,8.41,23.08,8.41,23.08
	l0.58,8.41l13.7,13.89c13.49,12.71,36.97,51.45,36.97,51.45c4.61,10.22,9.38,23.48,12.27,39.39
	C865.1,474.31,865.85,482.77,866.07,490.25z"/>
<path class="st1" d="M331.61,936.76v9.98c0,0-0.88,9.1,8.51,9.68c0,0,36.97,13.79,85.38,4.99c0,0,20.83-3.52,24.35-5.57
	c0,0,16.7-4.7,18.78,0.88l29.93-3.52c0,0,12.32,0.29,12.91-10.86v-7.63c0,0-1.76-4.11-6.16-2.05c0,0-19.59,6.16-44.86,8.51
	c0,0-15.58,3.81-18.22,4.4c0,0-38.73,9.11-68.07,2.65C374.16,948.21,354.79,946.44,331.61,936.76z"/>
<path class="st2" d="M336.97,932.14c0.13,0.51,0.29,1.01,0.48,1.49c6.29,15.67,46.14,13.4,61.84,12.03c0,0,32.86,0.2,43.03-5.09
	c0,0,16.11-5.96,34.04-5.48c0,0,28.75-4.11,31.49-9.59c0,0,1.76-21.71-4.3-31.49c0,0-24.26,8.41-61.42,2.74c0,0-2.15,0.39,0.78,4.5
	c0,0,4.69,6.26-1.96,8.22c0,0-4.11,5.09-8.8,2.35c0,0-13.89-13.69-9.39-4.3l5.67,5.28c0,0,1.56,6.26-5.67,7.04l-17.41-9.78
	c0.87,1.02,2.21,2.49,3.99,4.1c1.57,1.42,2.67,2.21,3.33,2.74c1.79,1.43,4.05,3.9,5.98,8.42c1.16,6.29,1.29,9.59,0.39,9.9
	c-0.65,0.22-1.83-1.09-3.53-3.95c-1.41-3.09-3.74-7.32-7.53-11.64c-0.59-0.67-4.58-5.16-10.17-8.7c-12.28-7.8-26.28-7.27-30.79-6.93
	c-13.7,1.11-25.01,7.84-28.79,17.92C337.38,924.19,336.55,927.61,336.97,932.14z"/>
<path class="st3" d="M337.92,932.08l7.19,1.16c0,0,1.17-14.96,13.2-19.07c3.6-1.12,7.75-2.09,12.4-2.64
	c14.24-1.68,26.08,1.49,33.38,4.21c-2.03-1.51-4.98-3.49-8.76-5.36c-9.63-4.77-18.15-5.62-21.22-5.83
	c-7.45-0.51-13.73,0.57-18.21,1.77c-2.26,0.6-5.58,1.82-8.82,4.54c-0.51,0.43-0.85,0.76-1.32,1.2c-2.46,2.35-5.63,5.38-7.22,9.13
	C337.91,922.63,336.58,926.45,337.92,932.08z"/>
<path class="st4" d="M345.11,933.24c0,0,1.11-17.17,14.94-19.59c0,0,15.56-4.55,29.76-1.7c0,0,12.75,2.93,17.41,5.42
	c0,0,6.69,6.48,7.43,12.35c-1.3,1.01-2.81,2.02-4.55,2.93c-7.18,3.76-14.27,3.75-18.34,3.37
	C391.76,936.03,347.16,937.35,345.11,933.24z"/>
<path class="st5" d="M388.68,899.35c0,0-0.51-6.68,10.2-4.77c0,0,19.22,6.16,25.16,17.46c0,0,3.15,14.08-21.64-6.82
	C402.4,905.22,395.21,901.26,388.68,899.35z"/>
<path class="st6" d="M403.6,890.79c0,0-0.49-5.28,6.55-3.13c0,0,27.68,10.37,29.54,13.99c0,0,3.72,14.38-11.05,2.35
	C428.64,904,405.41,891.28,403.6,890.79z"/>
<path class="st7" d="M497.75,895.58c0,0,5.36,29.21,3.09,34.08l7.02-4.15c0,0,1.37-24.65-4.3-31.49L497.75,895.58z"/>
<path class="st8" d="M406.42,842.28c0,0-14.66-45.19-8.5-60.74c0,0,14.67-29.93,18.97-32.86l23.08-30.32c0,0,6.65,8.22,14.08,8.41
	l5.28,0.2l2.93,2.93c0,0,6.85,7.63,11.74,9c0,0,15.65,2.35,20.34,1.17c0,0,6.85,8.61,31.3,3.91l19.17-8.22l22.69-17.41
	c0,0,12.52,2.15,22.5-3.33c0,0,60.84,6.06,69.34,3.72c0,0,63.08,0,78.64-9.39c0,0,2.84,5.09,2.45,28.75c0,0-2.15,18.58-4.69,24.84
	l2.15,35.01l4.3,7.43c0,0,6.06,1.96,7.04,15.45c0,0,2.74,7.43,5.87,6.46c0,0,11.74-1.56,18,10.37c0,0,11.74,14.87-2.54,42.06
	c0,0-24.06,32.67-65.92,24.84c0,0-17.41-3.52-19.76-16.24c0,0-3.13-4.5-0.78-3.91c0,0-46.16-22.3-50.47-39.71
	c0,0-36.19-60.25-43.82-62.99c0,0-14.67-16.04-25.82-7.53l-40.49,26.7c0,0-9,6.46-10.37,11.54c0,0-7.04,5.28-5.28,19.37
	c0,0,3.91,9,1.37,17.02c0,0-0.2,11.74,1.76,16.04c0,0,5.95,11.74-2.89,19.17c0,0-14.91,12.32-56.18,7.24c0,0-38.14-6.06-42.84-12.52
	c0,0-10.76-3.91-8.02-18.58c0,0,2.93-16.63,7.04-5.09C408.1,855.09,410.04,854.71,406.42,842.28z"/>
<path class="st9" d="M420.81,750.73c0,0,17.9-23.47,19.17-32.37c0,0,6.8,7.87,12.31,8.21l7.06,0.4c0,0,7.89,8.04,10.12,9.49
	l4.55,2.45c0,0,17.12,2.05,20.34,1.17c0,0,3.87,6.43,23.16,5.07c0,0,12.48-0.54,21.56-6.91c0,0,13.73-6.15,15.8-10.18l12.64-9.7
	c0,0,17.26,1.17,22.5-3.33c0,0,58.1,5.28,69.34,3.72l36.49-1.38c0,0,33.59-3.23,36.64-5.62c0,0,3.83,34.58-1.64,47.3
	c0,0-3.13,6.46-0.98,19.56c0,0,4.11,35.21-0.39,49.1c-4.5,13.89,1.91,1.22,1.91,1.22s-0.29,15.99,6.75-1.47c0,0-3.52,9.24,0,11.59
	c0,0,1.32-0.88,2.35-8.36c0,0,9.1,1.47,11.59,15.84c0,0,1.76,4.55,4.55,1.03c0,0,4.11-3.37,1.47-16.14c0,0,13.06-0.59,13.35,19.37
	c0,0,4.02,19.64-9.14,37.55c0,0-19.71,19.19-48.99,17.33c0,0-20.08-0.36-27.04-13.24l-2.17-7.99c0,0-41.45-21.28-45.37-30.89
	l-36.1-57.01c0,0-16.04-22.98-23.72-22.9c0,0-4.39-10.08-34.83,13.7c0,0-26.66,15.35-27.14,19.3c0,0-8.98,11.12-9.28,18.44
	c0,0,2.53,17.82,2.05,21.81c0,0-1.24,12.66,0.75,16.49c0,0,6.06,10.87-0.52,18.8c0,0-15,16.93-67.81,7.34c0,0-26.61-4.69-30.12-8.51
	l-5.58-3.79c0,0,62.51,12.29,82.07,0.95c0,0,6.65-11.15-0.39-7.82c0,0-18.58,4.5-22.1,0.39c0,0,12.13-2.15,17.61-5.28l-15.65-4.69
	c0,0-4.3-1.96,1.96-4.3c0,0,10.95-17.61-8.41-25.23c0,0-11.67-5.09-1.04-7.63l18.06-9.19l-10.95-6.83c0,0-6.85-4.52,1.37-8.82
	c0,0,20.73-12.32,23.67-15.26c0,0,6.46-5.67-2.35-8.8c0,0-16.63-11.15-18.39-13.89c0,0-16.43-10.95-22.5-11.15
	c0,0-13.3-9.19-25.04,1.76C424.33,751.42,418.15,754.32,420.81,750.73z"/>
<path class="st9" d="M403.99,786.24c0,0-3.52,18.19,4.89,24.26c0,0,6.65,7.43,14.67,2.93c0,0,0.2-4.69-8.02-9
	C415.53,804.43,403.6,792.3,403.99,786.24z"/>
<path class="st0" d="M415.53,856.07c0,0,10.04,10.37,44.93,12.13c0,0,5.74-3.52-2.28-4.11
	C458.17,864.09,421.01,859.79,415.53,856.07z"/>
<path class="st0" d="M511.77,846.24c0,0-25.67,27.73-45.77,24.5c0,0,22.15,3.52,44.89-12.76L511.77,846.24z"/>
<path class="st0" d="M508.98,824.09c0,0-19.51,5.87-22.74,4.99c0,0,8.44,13.3,6.02,26.99c0,0-7.63-26.7-10.12-27.29
	c0,0-1.24-2.75,6.01-4.12c0.24-0.04,0.48-0.09,0.74-0.13c8.07-1.32,19.13-7.55,25.45-10.86L508.98,824.09z"/>
<path class="st0" d="M529.05,797.26c0,0-14.34,10.98-33.71,10.32c0,0-8.66-1.92-9.39,7.3l-1.32,8.04c0,0,2.79,4.55,5.13-9.98
	c0,0,18.34-2.05,22.01-0.44l3.96,1.17c0,0,3.08-8.22,5.87-8.36L529.05,797.26z"/>
<path class="st0" d="M491.53,809.56c0,0-15.4,3.08-21.27-3.81c0,0-5.38-2.27-1.44,2.6c0,0,8.82,8.36,29.38,3.84L491.53,809.56z"/>
<path class="st0" d="M486.68,805.22c0,0,14.52-17.22,25.67-18.98l25.53-13.79c0,0,9.68-2.79,1.61,2.79c0,0-28.75,15.11-30.22,16.72
	c0,0-13.5,6.72-16.87,13.26C492.41,805.22,482.87,811.15,486.68,805.22z"/>
<path class="st0" d="M508.54,761.15c0,0-6.6-4.4,3.37-3.37l24.5,7.19c0,0,9.54,2.64,12.32,1.17l-19.7-12.76c0,0-3.04-6.16,3.56-2.05
	l20.98,9.83l27.12,12.82l-9.52,2.59l-16.87-6.75c0,0-10.42,1.61-15.55-0.44L508.54,761.15z"/>
<path class="st0" d="M544.49,733.72c0,0,0.16,19.88,17.1,31.21c0,0-14.01-20.06-13.57-34.59L544.49,733.72z"/>
<path class="st0" d="M581.6,770.98c0,0-5.72-4.58-9.24-21.07c0,0-18.93-1.97-22.74-9.08c0,0,19.81,8.14,22.01,4.48l-1.17-14.23
	l-13.35-5.43l3.23-1.91c0,0,8.36,4.25,10.56,3.23c0,0,0.88-8.8,1.76-10.27l3.81,2.05c0,0-2.35,6.9-1.47,9.83l46.07,1.76
	c0,0-9.24,7.78-46.8,2.2c0,0,1.17,26.11,9.39,35.5C583.66,768.05,582.96,772.44,581.6,770.98z"/>
<path class="st10" d="M658.07,718.14c0,0-0.77,5.03-1.94,6.32c0,0,1.03,4.04,5.43,0l0.73-6.59L658.07,718.14z"/>
<path class="st10" d="M676.84,717.1c0.04,0.7,0.01,1.75-0.37,2.93c-0.58,1.83-1.65,3-2.24,3.55l0,0c1.7,0.16,3.4,0.32,5.1,0.48
	c0.2-2.3,0.4-4.6,0.6-6.9C678.9,717.15,677.87,717.13,676.84,717.1z"/>
<path class="st11" d="M574.94,740.16c0,0,73.57,6.79,109.95-13.91c1.08,3.44,3,8.13,6.53,12.94c5.94,8.1,13.23,12.21,17.22,14.08
	c-2.08,6.23-4.51,15.96-4.25,28.02c0.24,11.24,2.71,20.31,4.86,26.29c0,0,4.99,16.51-4.4,32.36c0,0-13.2,18.49-42.54,10.27
	c0,0-21.71-5.57-27.58-21.13c0,0-21.42-38.14-29.34-41.08c0,0,22.3,4.69,26.7,12.32c0,0-22.3-32.86-33.74-34.04
	c0,0,27.87-7.92,28.75-8.22c0.88-0.29-51.42-12.65-51.42-12.65C575.42,743.67,575.18,741.91,574.94,740.16z"/>
<path class="st0" d="M650.85,854.31c0,0,26.7,19.61,52.67-2C703.52,852.31,676.09,867.66,650.85,854.31z"/>
<path class="st12" d="M655.18,867.78c0.57,0.03,20.32,16.85,53.58,13.33c0,0-2.93,5.87-29.15,5.28L655.18,867.78z"/>
<path class="st13" d="M688.21,885.02c0.78,0.39,42.25,9,58.88-13.3c0,0-21.91,20.34-58.1,13.69L688.21,885.02z"/>
<path class="st14" d="M691.34,886.98c0,0,58.39,21.6,64.99-29.59c0,0-9.62,38.58-62.83,28.61L691.34,886.98z"/>
<path class="st0" d="M737.51,791.71c0,0-1.1,34.86-9.31,40.32c0,0,1.09,6.92,5.1-3.15l3.62-8.8c0,0,2.32-7.29,1.47,0.98
	c0,0-0.71,10.76-1.04,15.27c-0.06,0.79-0.1,1.39-0.13,1.71c-0.19,2.1,2.54,3.17,3.72-9.83l1.08-22.3c0,0,3.27-0.99,5.02,5.06
	c0,0,7.69,27.21,7.01,36.7c0,0,4.99,2.54,3.62-10.37c0,0-2.15-16.63-3.81-17.9c0,0-8.31-15.94-8.61-16.24s-5.87-7.04-5.87-7.34
	C739.37,795.53,737.51,791.71,737.51,791.71z"/>
<path class="st15" d="M739.27,690.39c0,0-104.26,18-133.41,19.76c0,0,73.35,11.74,133.41-7.04V690.39z"/>
<polygon class="st16" points="731.42,691.73 731.42,705.37 739.27,703.1 739.27,690.39 "/>
<polygon class="st17" points="662.3,702.91 662.3,718.64 676.92,718.38 676.92,700.64 "/>
<polygon class="st10" points="658.46,703.75 658.46,718.64 662.3,718.62 662.3,702.91 "/>
<polygon class="st10" points="676.92,700.8 679.93,700.17 679.93,717.33 676.92,717.54 "/>
<path class="st18" d="M726.26,674.01c0,0-18.19,17.65-26.26,16.38c0,0,37.56,1.81,46.95-11.83c0,0,4.69-7.92,4.99-13.35
	c0,0-0.44-4.4-7.04,2.79c0,0-9.1,12.03-14.96,12.32C729.93,680.31,724.21,684.13,726.26,674.01z"/>
<path class="st19" d="M435.87,701.15c0,0,5.87,15.84,22.5,18.78c0,0,7.82,2.15,19.95-2.15c0,0,14.08-5.67,19.17-4.01
	c0,0-12.13,9.09-28.95,11.44c0,0-1.76,9.19,24.26,7.82l21.53-5.28c0,0,5.13-1.08-0.08,2.59l-11.67,4.84c0,0-2.35,2.35,6.46,2.54
	c0,0,12.32,3.33,30.52-5.67l24.84-20.3c0,0,8.41-7.08,12.71-7.86c0,0,1.37-3.72-7.04-0.59c0,0-6.4,6.06-8.48-5.09l-3.45-18.19
	c0,0-2.35-7.82-3.72-2.93c0,0-2.93-17.02,1.37-25.23c0,0-4.5-5.67-7.82-5.67c0,0-3.72,0.98-4.69-4.11l-17.41-7.24
	c0,0-3.72-2.74-8.41-1.17l-24.84,0.59l-13.89-8.02c0,0-10.56-4.69-11.54,8.02c0,0-3.91,11.54,9.98,17.02c0,0,8.41,4.11,13.11,4.3
	c0,0,11.15,1.96,9.19,9.78c0,0-2.35,8.75-12.71,16.5c0,0-12.91,13.03-15.84,13.62C470.89,695.47,468.35,701.73,435.87,701.15z"/>
<path class="st20" d="M463.35,699.14c-1.67-0.59-9.67,8.85,2.45,11.78c0,0,18.97,2.54,27.78,1.76c0,0,16.02-1.77-3.91,7.04
	c0,0,20.34,5.48,35.41-3.03c0,0,22.89-13.62,24.55-16.05c0,0,9.29-3.46,5.38-18.79c0,0-5.67-6.14-2.93-23.15
	c0,0,5.67-9.39-0.59-9.39l-26.8-9.19c0,0-7.04-1.96-14.67-0.98c0,0-22.69,3.72-35.21-8.41c0,0-11.91-6.52-6.54,13.47
	c0,0,1.57,6.56,15.01,9.65c0,0,12.13,2.25,14.94,5.8c2.81,3.55,0.56,0.77,0.56,0.77s3.93,6.41-5.32,15.17l-16.61,15.62
	C476.84,691.21,466.57,700.27,463.35,699.14z"/>
<path class="st21" d="M659.21,564.01l26.7-39.36c0,0,8.3-4.53,17.21-2.41c0.72,0.17,1.43,0.38,2.15,0.64
	c9.68,3.52,61.62,23.77,80.1,64.7c0,0,11,18.05,0,29.49l-19.37,18.49l6.01-12.32l-10.85,6.47c0,0-11.98,32.71-29.75,41.51
	l3.92-13.64c0,0-33.15,36.59-82.44,40.3c0,0-30.37,7.75-43.57,7.49c0,0-25.56,2.02-28.63,6.38h-5.77c0,0,5.31-8.59,5.77-11.58
	c0,0-6.98-3.72-11.87,0c0,0-8.36-7.83-5.28-32.91c0,0-3.67,0.24-4.84,2.79c0,0-2.74-11.35,3.91-25.04c0,0-13.5-0.78-20.73-7.43
	c0,0,35.59-18.29,45.13-30.91C587.03,606.67,614.18,576.52,659.21,564.01z"/>
<path class="st22" d="M547.57,636.6c0,0,9.65,4.4,29.62-13.5c0,0,40.76-45.77,92.42-47.53c0,0,29.95-0.88,30.39,0
	s0.44,0.88,0.44,0.88s4.36-11.74-30.83-15.84l20.83-37.73c0,0,60.47,21.59,73.38,53.87c0,0-1.76,14.08-4.99,16.72
	c0,0,0-9.39-2.93-12.03c0,0-4.93,41.08-24.47,52.23c0,0,6.48-12.91,7.85-21.42c0,0-10.37,17.61-15.65,23.18
	c0,0,2.64-10.41,2.35-18.7c0,0-16.43,37.48-41.08,43.06c0,0,12.62-9.39,15.11-14.96c0,0-44.16,32.42-99.03,37.04l51.05-17.98
	c0,0-53.14,20.72-74.84,13.3c0,0,9.11,8.13,13.51,8.13c0,0-12.32,2.35-17.61,0l-5.93,12.58c0,0-5.46-10.82-4.24-17.57l0.63-13.05
	c0,0-4.84,1.61-4.84,2.79c0,0-1.86-17.07,3.91-25.04c0,0-16.45-2.37-16.56-4.51C546.07,640.5,544.79,636.12,547.57,636.6z"/>
<path class="st23" d="M683.42,517.47c0,0,33.74-6.16,75.11,26.7c0,0,37.26,29.13,40.49,66.21c0,0,12.62-12.8,13.2-16.91
	c0,0-3.24-35.8-40.21-64.55c0,0-41.07-33.45-81.56-25.23C690.46,503.68,683.13,514.24,683.42,517.47z"/>
<path class="st24" d="M694.28,499.72c2.83-2.77,5.81-5.94,8.83-9.54c2.99-3.57,5.58-7.03,7.8-10.27c0,0,3.72-7.24,5.09-12.13
	c0,0,13.89-23.47,18.97-24.65c0,0-21.59,20.22-21.91,26.6c0,0,1.37-15.65,10.37-26.6l-5.09,4.11l-0.2-2.35
	c0,0-16.19,24.71-14.48,35.01c0.2,1.17-15.45,12.71-17.6,19.76c0,0-8.61,7.63-9.78,13.69v11.74c0,0-1.76,2.93-4.11,4.89
	c0,0-11.8,14.48-17.38,31.49c0,0-44.44,2.35-79.65,47.83l10.56-83.09c0,0-0.03-6.99-8.52-6.99l-10.84-1.17l10.84-81.57l24.37-20.54
	c0,0,9.1,0.59,12.62,15.55c0,0,0.29-11.15-7.04-19.66c0,0-3.52-5.87-12.91,0l-11.74,11.74c0,0-0.59-23.47,2.05-27.58
	c0,0,4.4-16.14,4.69-20.83l15.55,17.61c0,0,42.25,32.57,104.16,4.4c0,0,36.97-16.72,51.93-29.64c0,0,23.77-14.96,26.11-23.47
	c0,0,0.39-10.27,3.28-5.28l4.35,20.54c0,0-19.95,28.85-55.94,51.74c0,0-33.65,23.86-54.18,32.28c0,0-12.32,10.37-13.3,2.54
	c0,0-7.43-19.95-14.28-22.69c0,0-8.02-4.11-21.52,8.8c0,0,15.26-6.65,18-5.09c0,0,6.8,5.67,12.69,19.76l3.94,8.41
	c0,0,2.74,0.98,8.41-2.54c0,0,51.64-24.84,57.51-31.69c0,0,51.64-38.34,60.25-54.18c0,0,32.67,33.84,35.21,40.49
	c0,0,7.63,9.39-1.37,4.3c0,0-17.8-15.45-60.64-1.17c0,0,53.34-14.89,73.35,17.21c0,0,17.8,27.78,13.89,62.01
	c-0.9,10.31-2.8,22.19-6.49,35.02c-8.73,30.37-23.61,52.65-34.98,66.7c-2.63-10.84-10.96-38.75-36.97-61.72
	C743.89,499.21,703.64,499.42,694.28,499.72z"/>
<path class="st25" d="M776.73,562.34c0,0,9.07-17.33,11.44-16.41c2.37,0.91,1.03-0.03,1.03-0.03s17.86,20.09,20.67,36.69
	c0,0-12.2,15.35-12.18,19.28C797.69,601.86,793.74,579.56,776.73,562.34z"/>
<path class="st26" d="M789.15,540.56c0,0,43.91-43.34,34.23-101.43c0,0-5.68-41.47-53.99-28.85c0,0,45.19-19.27,66.02,13.3
	c0,0,19.95,29.05,13.79,60.44c0,0-2.05,36.31-16.43,61.88l-20.54,29.96C812.23,575.86,790.91,542.54,789.15,540.56z"/>
<path class="st26" d="M782.11,390.12c1.54,0.7,3.46,1.79,5.35,3.5c4.33,3.9,5.89,8.63,6.46,10.87c3.61-0.39,7.95-0.57,12.82-0.16
	c7.33,0.61,13.41,2.32,17.9,3.99l-28.06-34.23c0,0-1.17-3.91-6.65,0c0,0-39.52,38.59-56.1,48.62l-57.44,30.96c0,0-5.68,4.86-7.03,0
	c0,0-10.43-23.94-14.57-25.4c0,0-1.89-2.49-4.97,0.59c0,0-12.76,19.66-14.38,24.94l16.87-11.44c0,0,3.67-3.08,4.69,1.47l10.56,18.78
	c0,0,3.08,6.6,8.8,0.59l40.2-23.33c0,0,24.94-15.54,30.37-20.83C746.95,419.03,781.91,393.06,782.11,390.12z"/>
<path class="st27" d="M716.31,393.7c0,0-1.89,6.2-1.3,6.2c0.59,0,26.69-13.69,32.81-13.69c0,0,4.84-0.98,0,4.5l-24.48,30.71
	l32.76-22.76l12.08-10.27c0,0,16.89-15.7,17.71-18.13l8.73-10.94l-3.95-18.63c0,0-1.37-6.24-3.06-1.39c0,0-0.91,3.49-0.62,4.76
	c0,0-2.37,6.63-13.36,14.48l-26.18,18.46C747.47,376.99,717.62,393.95,716.31,393.7z"/>
<path class="st28" d="M604.49,425.63l-11.74,11.44l-9.1,63.08c0,0-2.05,9.1,6.16,12.32c0,0,9.98-0.29,8.51,15.26
	c0,0-2.35,9.98,11.74,10.56c0,0,22.89,10.27,43.13,2.93c0,0,14.38-12.4,14.67-19.55c0,0,5.87-19.48,9.98-22.12
	c0,0,17.9-21.06,22.89-33.85c0,0,17.02-24.24,19.07-25.12l-4.91,9.57c0,0-11.33,21.24-11.35,28.43c-0.03,7.19,0.03,0.56,0.03,0.56
	l-16.72,18.69c0,0-9.94,12.44-10.57,17.28c-0.64,4.84,0,0.73,0,0.73v9.24c0,0-16.81,16.43-21.49,36.38c0,0-45.12,2.59-79.55,47.07
	l10.35-81.43c0,0,2.48-5.88-3.86-6.98l-15.39-2.08l10.84-81.57l22.07-18.6c0,0,3.44-3.18,6.71-0.18c0,0,7.47,7.04,8.2,15.11
	c0,0-6.16-7.34-8.95-7.04L604.49,425.63z"/>
<path class="st0" d="M619.31,434.28c0,0-20.24,21.26-20.54,55.6c4.25,0.38,11.42,1.03,11.42,1.03l0,0c0,0,8.36,1.43,12.34,2.1
	c2.17-8.94,5.28-19.12,9.79-30.03c5.83-14.1,12.5-25.8,18.65-35.07c0,0-2.15-7.22-19.93,28.09c0,0-10.12,25.82-10.71,32.86
	c-2.74-0.08-5.85-0.33-9.24-0.88c-3.72-0.61-7.02-1.46-9.83-2.35c0,0,11.59-46.1,24.35-51.2L619.31,434.28z"/>
<path class="st0" d="M619.75,445.09c-2.23,2.03-3.24,5.7-1.66,8.38c0.96,1.62,2.53,2.32,3.22,2.57c2.71,1.06,5.64,0.57,7.48-1.22
	c1.64-1.6,1.85-3.66,1.86-4.55c0.04-2.78-1.68-6.01-4.79-6.85C622.62,442.56,620,444.87,619.75,445.09z"/>
<path class="st24" d="M621.91,447.08c-1.65,1.19-1.62,3.77-0.6,5.18c0.36,0.5,0.81,0.8,1.15,0.98c1.54,0.73,3.32,0.41,4.37-0.73
	c0.84-0.92,1.15-2.3,0.73-3.49c-0.36-1.04-1.14-1.57-1.43-1.76C625.11,446.59,623.29,446.1,621.91,447.08z"/>
<path class="st0" d="M610.82,469.2c-2.23,2.03-3.24,5.7-1.66,8.38c0.96,1.62,2.53,2.32,3.22,2.57c2.71,1.06,5.64,0.57,7.48-1.22
	c1.64-1.6,1.85-3.66,1.86-4.55c0.04-2.78-1.68-6.01-4.79-6.85C613.69,466.66,611.07,468.97,610.82,469.2z"/>
<path class="st24" d="M612.99,471.19c-1.65,1.19-1.62,3.77-0.6,5.18c0.36,0.5,0.81,0.8,1.15,0.98c1.54,0.73,3.32,0.41,4.37-0.73
	c0.84-0.92,1.15-2.3,0.73-3.49c-0.36-1.04-1.14-1.57-1.43-1.76C616.18,470.69,614.36,470.2,612.99,471.19z"/>
<path class="st29" d="M610.3,399.16c0,0,10.54,20.76,12.25,29.59c0.2,0.55,0.46,0.81,0.73,0.92c1.8,0.75,5.5-4.48,6.29-5.62
	c1.79-2.35,4.67-5.48,8.96-8.02c9.68-5.72,19.58-4.33,22.75-3.76c0.71-1.31,0.84-2.67,0.22-3.37c-0.46-0.51-1.29-0.71-2.22-0.73
	c-3.25-0.07-0.62-0.01-0.62-0.01s-19.38,2.46-48.35-11.64C610.3,396.53,609.09,396.74,610.3,399.16z"/>
<path class="st30" d="M660.09,408.63c0,0,1.56,2.57,1.17,3.21c0,0-15.75-5.5-32.89,12.95c0,0-4.21,6.75-5.11,3.34
	c0,0-5.8-17.22-7.57-19.69l-4.22-8.75c0,0-1.11-2.69,0.57-1.89c0,0,0.02-0.98-0.93-1.04l-3.25-4.86l-5.72-3.96
	c0,0,16.87,37.12,17.16,46.36l6.31,0.15c0,0,15.7-19.51,42.99-22.01c0,0,32.95-8.74,45.16-17.5c0,0-22.79,10.66-33.09,11.52
	C680.67,406.44,661.71,409.38,660.09,408.63l1.17,2.91v0.73"/>
<path class="st31" d="M207.35,658.82c0,0,0.37,12.1,10.78,14.74c0,0,18.12,4.89,24.28-6.06L207.35,658.82z"/>
<path class="st31" d="M248.38,668.38c0,0-6.94,10.86-14.18,9.88c0,0,3.23,7.92,21.91,5.18c0,0,11.44-3.83,12.91-7.24L248.38,668.38z
	"/>
<path class="st31" d="M273.42,675.42c0,0-4.55,9.32-9.19,8.02c0,0-0.1,6.06,16.53,3.52c0,0,8.61-3.13,8.9-6.16
	C289.65,680.8,273.52,677.38,273.42,675.42z"/>
<path class="st24" d="M627.23,201.9c0,0,10.42-37.41,31.98-49c0,0,15.4-12.18,56.34-8.8c0,0,31.4,5.43,55.9,31.4
	c0,0,18.93,11.44,19.22,47.09l-2.79,36.53l-1.27,11.49c0,0-15.45-26.02-55.16-51.45C731.44,219.16,689,194.27,627.23,201.9z"/>
<path class="st0" d="M638.71,200.83c0,0,7.74-46.02,45.59-42.5c0,0,29.64,4.4,28.02,32.57c0,0-0.18,17.09-1.26,19.47
	C711.06,210.37,677.91,198.73,638.71,200.83z"/>
<path class="st24" d="M646.65,184.25c-0.81,1.38-1.65,3.07-2.35,5.08c-1.33,3.83-1.59,7.25-1.56,9.68c0,0,31-2.64,65.14,9.78
	c0.45-1.15,0.87-2.49,1.17-4.01c0.77-3.93,0.38-7.31-0.1-9.58C708.95,195.2,694.47,181.91,646.65,184.25z"/>
<path class="st32" d="M649.53,180.7c0,0,10.05-19.07,28.46-18.34c0,0,17.16,0.66,27.07,15.55c0,0,2.93,5.79,3.89,11.88v1.54
	c0,0-22.15-15.18-59.42-8.88C649.53,182.46,649.38,181.87,649.53,180.7z"/>
<path class="st33" d="M737.89,151.64c0,0,22.99,10.21,20.35,41.02c0,0-2.12,25.16-8.07,30.22c0,0-35.97-22.52-39.11-12.51
	c0,0,23.88,7.87,36.04,19.73l15.85,13.3l14.26,14.76l5.33,6.61c0,0,6.36-45.86,2.25-56.56c0,0-3.67-21.12-19.37-36.23
	C765.43,171.97,746.59,154.19,737.89,151.64z"/>
<path class="st0" d="M762.97,169.7c0,0,11.85,23.98,2.17,66.82l22.57,24.11l0.35-3.9l-19.25-20.5c1.63-6.85,2.98-15.1,3.31-24.48
	c0.62-17.49-2.57-32.01-5.73-42.09c-2.24-2.26-3.57-3.24-4.01-2.93C762.04,166.96,762.24,167.95,762.97,169.7z"/>
<path class="st34" d="M786.12,274.81c-0.42,0.79-0.62,1.49-0.73,1.98c-0.13,0.59-0.17,1.08-0.22,1.83
	c-0.01,0.19-0.05,0.74-0.06,1.52c0,0.96,0.04,1.68,0.06,1.85c0.05,0.83,0.06,2.44-0.12,5.82c0.38,9.58,0.76,19.17,1.14,28.75
	c0,0,2.58,10.95,22.14,10.17c0,0,13.35-1.49,13.89-2.68C810.18,307.65,798.15,291.23,786.12,274.81z"/>
<path class="st35" d="M601.56,259.07c0,0-1.37-23.67,7.04-27.78C608.6,231.29,611.92,252.34,601.56,259.07z"/>
<path class="st36" d="M609.11,254.71c0,0-29.55,30.52-31.61,43.87c0,0,1.76,0.78,4.69-1.96c0,0-6.65,15.65-0.2,45.38
	c0,0,4.44,20.25,27.11,45.92c0,0,25.61,22.15,70.5,9.68c0,0,38.73-12.47,53.99-30.37c0,0,17.21-19.76,18.39-34.62
	c0,0,3.13,10.76-5.87,23.86c0,0,12.71-10.28,12.32-28.42c0,0-0.5-14.62-3.68-18.14c0,0-7.87-10.37-5.32-23.86
	c0,0,0.78-14.67,10.56-22.3c0,0,15.06-10.76,21.32,6.85c0,0-14.87-31.49-60.44-52.03c0,0-23.28-11.69-45.33-13.45
	c0,0-14.13-4.11-38.34-0.73c0,0,29.34,3.37,31.25,4.99c0,0,38.29,3.38,40.49,5.28c0,0,26.7,15.26,34.18,32.72
	c0,0,8.07,20.69-7.04,36.53c0,0-4.69,6.35-0.73,9.41c0,0,12.18,13.33,2.49,40.62c0,0,7.42,15.11-7.81,26.55
	c0,0-34.59,25.82-75.38,31.4c0,0-50.17,1.47-68.66-44.01c0,0-9.98-41.03,1.17-54.55c0,0,1.31-15.62,21.93-28.56V254.71z"/>
<path class="st37" d="M758.05,309.73c0,0,7.43,14.87,2.54,31.49c0,0-5.28,10.27-8.7,13.2c0,0-25.71,31.03-35.5,31.49
	c0,0,48.71-20.73,64.94-44.21l-2.1-39.47c0,0-3.81,7.78-10.71,7.49C768.51,309.73,758.29,310.46,758.05,309.73z"/>
<path class="st38" d="M761.67,267.18c0,0-10.86,8.12-9.88,22.3c0,0,0,13.2,6.94,15.65c0,0,14.57,2.84,18.97-8.8
	c0,0,5.77-7.53,3.03-21.52C780.74,274.81,778.29,257.4,761.67,267.18z"/>
<path class="st0" d="M778.53,280.04c-0.03,0.16-0.06,0.32-0.1,0.48c-0.98-2.82-3.93-4.81-7.25-4.81c-0.3,0-0.6,0.02-0.9,0.05
	c-3.41,0.38-6.15,2.91-6.52,6.01l-0.22,1.88l2.05-0.54c0.47-0.13,0.94-0.19,1.41-0.19c1.11,0,2.04,0.36,2.5,0.96
	c0.34,0.44,0.39,0.97,0.37,1.33l-0.01,0.13l0.02,0.13c0.27,1.46,0.29,2.91,0.05,4.33c-0.85,5.05-4.67,8.4-7.11,10.07
	c-0.04,0-0.08-0.01-0.11-0.01c0.09-0.29,0.42-0.96,1.56-2.18c1.29-0.73,2.94-1.98,3.85-3.97c1.09-2.37,0.83-5.14,0.01-6.65
	c-0.57-1.05-1.33-1.44-1.87-1.58c-0.23-0.06-0.47-0.09-0.71-0.09c-1.05,0-1.92,0.56-2.47,0.98c-1.11,0.84-1.5,1.93-1.63,2.77
	c-0.49-0.06-0.91-0.27-1.16-0.59c-0.43-0.54-0.21-1.24-0.19-1.32l0.07-0.21l-0.01-0.21c-0.08-1.39,0.07-4.12,1.97-6.76
	c2.79-3.9,7.42-4.97,9.08-5.24C772.3,274.97,777.41,275.92,778.53,280.04z"/>
<path class="st39" d="M713.17,217.27c0,0,24.39,13.23,21.89,36.85c0,0-2.35,25.82-24.94,31.84c0,0,20.54,7.34,20.98,30.08
	c0,0,1.17,16.72-11,32.28c0,0-13.64,23.22-43.28,31.12c0,0-21.71,7.9-51.2-1.49c0,0-22.59-11.15-28.61-25.38
	c0,0-10.86-22.74-10.12-34.18c0,0,0.15-20.83,3.08-24.5c0,0,6.6-19.51,20.54-26.7v-2.42h-1.4c0,0-17.47,11.03-20.72,23.74l-1.2,4.81
	c0,0-3.15,3.9-4,8.92c0,0-3.19,21.03,1.51,39.38c0,0,2.07,18.71,22.96,34.83c0,0,23.96,19.61,54.41,14.2c0,0,34.97-8.56,46.65-17.11
	c0,0,24.52-13.66,25.39-16.73c0,0,5.88-5.53,5.53-15.2c0,0-0.85-6.84-1.78-7.67c0,0,5.43-14.11,3.38-25.56
	c0,0-1.42-10.01-6.68-15.87c0,0-3.72-4.05,4.46-12.09c0,0,7.87-10.59,6.17-22.91c0,0,0.57-11.51-9.11-20.98
	c0,0-11.39-12.18-14.07-13.01L713.17,217.27z"/>
<path class="st40" d="M613.44,270.56c-6.25,0.9-10.69,7.18-14.52,12.62c-1.16,1.64-4.69,6.9-6.9,16.14
	c-3.93,16.45-0.34,31.68,2.3,39.95c1.44,4.38,3.88,9.72,7.65,15.33c5.5,8.19,14.35,17.43,27.75,21.64c0,0,33.06,9.43,56.14-3.89
	c0,0,14.65-4.72,25.91-19c0,0,14.39-18,14.98-30.52c0,0,1.81-17.63-6.94-27.39c0,0-8.02-8.9-14.57-9c0,0-2.59-2.84,2.25-2.69
	c0,0,8.8,0.73,15.7-9.83c0,0,9.98-7.9,8.07-24.79c0,0,0.73-12.62-4.99-18.05c0,0-7.14-9.19-21.13-13.11c0,0-16.14-2.59-23.91,2.98
	c0,0-16.14,9.54-26.55,0.29c0,0-7.34-14.77-22.74-14.21c0,0-10.12,1.74-14.23,15.68c0,0-5.28,18.49-4.99,28.02l-0.44,15.26
	c1.28-0.02,2.39-0.02,3.28,0c1.69,0.03,2.21,0.08,2.64,0.49c0.53,0.5,0.76,1.4,0.54,2.05C618.18,270.17,614.88,270.35,613.44,270.56
	z"/>
<path class="st41" d="M682.25,230.21c0,0-1.46-8.84,12.03-10.12c0,0,15.26-0.73,20.98,9.1c0,0,4.11,8.51,3.96,10.56
	c-0.15,2.05-3.59-1.47-5.13-3.45c0,0-16.43-15.11-27.95-5.5C686.13,230.8,682.23,231.95,682.25,230.21z"/>
<path class="st41" d="M622.29,222.97c0,0,3.03-14.65,15.84-12.61c1.43,0.32,3.31,0.93,5.23,2.16c4.91,3.14,6.61,8.07,7.12,9.76
	c0.65,1.77-0.26,3.41-1.37,3.67c-0.76,0.18-1.65-0.26-2.27-1.03c0,0-8.12-9.98-16.33-5.97c0,0-4.99,1.08-6.16,4.79
	C624.35,223.76,622.29,226.4,622.29,222.97z"/>
<path class="st42" d="M609.04,342.44c-0.05,0.16-0.11,0.4-0.13,0.7c-0.06,0.73,0.15,1.26,0.44,2.05c0.16,0.45,0.42,1.16,0.73,2.09
	c2.45,1.95,5.26,3.91,8.47,5.76c10.87,6.25,21.44,8.35,28.92,9.06c0,0,8.8,0.15,11.3-2.79c-2.57-0.35-5.15-0.71-7.72-1.06
	c-4-0.09-8.63-0.54-13.68-1.71C624.15,353.49,614.62,347.02,609.04,342.44z"/>
<path class="st0" d="M599.99,297.01c0,0,8.3,7.63,8.65,23.08c0,0-2.93,3.13-4.32,1.37c0,0-1.73,2.74,1.74,5.72
	c0,0,8.9,15.01,40.79,20.29c0,0,34.53,4.21,53.7-21.62c0,0,8.51-11.25,8.7-18.09c0,0,5.45,1.27,5.66,11.05c0,0,3.44-1.96,1.48-8.8
	c0,0-6.26-13.11-18.49-13.01c0,0-3.42,1.08-0.49,4.5c0,0,5.18,1.69,4.4,3.92c0,0-11.05,8.4-51.69,4.15c0,0-38.14-2.6-46.36-16.26
	C603.76,293.32,597.11,292.07,599.99,297.01z"/>
<path class="st43" d="M607.57,302.83c0,0,4.11,6.75,4.69,12.32l13.5,6.46c0,0,2.2,4.4-5.87,1.17l-6.6-3.96l-1.17,7.96
	c0,0,1.61,6.56,32.72,15.07c0,0,24.94,4.55,46.07-13.06c-4.55,1.15-10.44,2.15-17.33,2.09c-3.93-0.03-7.47-0.41-10.54-0.92
	c-0.8-0.46-1.17-0.83-1.11-1.11c0.08-0.39,0.95-0.71,3.75-0.65c0,0,29.01,2.56,39.61-18.34c0,0-25.94,9.39-47.16,6.16
	c0,0-38.59-2.8-49.48-13.8C608.64,302.24,607.18,301.46,607.57,302.83z"/>
<path class="st43" d="M630.9,263.37c0,0-11.74-1.27-11.25-12.71c0,0,3.91-16.72,9.68-17.21c0,0,11.64-2.45,13.89,5.67
	c0,0,3.13,6.75,1.17,10.37l-6.55-5.87c0,0,1.86,11.83-4.3,8.02c0,0-6.26-4.5-2.35,3.23l3.52,5.09L630.9,263.37z"/>
<path d="M675.79,262.58c-0.06-2.52,0.18-7.62,3.23-12.85c1.3-2.22,3.8-6.51,9.1-8.68c3.88-1.59,7.44-1.29,9.24-1
	c1.82,0.45,6.82,1.95,10.56,6.7c6.04,7.67,3.43,17.04,3.14,18.02c0,0-1.82,10.93-8.27,10.05c0,0,9.24-10.86,2.49-24.79
	c-0.81-1.24-2.46-3.36-5.28-4.73c-6.23-3.03-12.53,0.32-13.25,0.72c-1.34,0.95-2.92,2.32-4.32,4.26
	c-4.14,5.71-3.71,12.12-3.48,14.24c-0.07,0.81-0.06,1.9,0.25,3.14c0.65,2.62,2.24,4.27,3.01,4.97l-4.94,0.44
	c-0.31-1.1-0.6-2.3-0.84-3.59c-0.41-2.24-0.58-4.29-0.62-6.09V262.58z"/>
<path class="st43" d="M680.27,270.96c-0.91-2.09-1.79-4.91-1.98-8.29c-0.12-2.09-0.28-5.84,1.65-9.98c1.07-2.29,2.43-3.93,3.41-4.95
	c0.85-0.86,3.89-3.69,8.78-4.24c5.05-0.56,8.72,1.68,9.71,2.33c1.1,0.78,2.33,1.85,3.45,3.3c3.76,4.86,3.6,10.49,3.45,12.47
	c-0.06,1.15-0.21,2.46-0.54,3.87c-0.8,3.45-2.29,6.07-3.49,7.79c-1.57,1.16-4.62,3.06-8.84,3.52
	C687.25,277.73,681.17,271.86,680.27,270.96z"/>
<path class="st44" d="M688.41,254.86c0,0-5.65,7.26-0.59,16.21c0,0,2.35,3.59,6.6,4.77c0,0,5.35,1.83,8.95-6.53
	c0,0,4.25-10.05-1.32-15.11c0,0-7.41-8.44-7.04-0.88l0.88,4.47c0,0,0.81,5.35-4.18,0.66C691.71,258.45,691.56,254.27,688.41,254.86z
	"/>
<path class="st45" d="M625.96,281.01c0.94,1.06,2.27,2.28,4.06,3.29c5.49,3.08,11.2,1.82,12.91,1.37c1.18-0.3,2.83-0.51,4.18,0.33
	c0.67,0.41,0.98,0.91,1.27,1.27c1.34,1.67,3.48,2.06,6.6,2.64c2.8,0.52,5.71,1.06,9.14-0.09c1.62-0.54,2.84-1.29,3.61-1.82
	c-1.9-0.58-3.79-1.17-5.69-1.75c0,0-9.85-3.04-10.74-3.04c-0.89,0-11.94-1.76-13.6-2.2c-1.67-0.44-6.85-1.22-6.85-1.22
	L625.96,281.01z"/>
<path class="st39" d="M628.48,281.93c0,0-10.76-9.71-1.2-17.73c9.56-8.02-0.42,0-0.42,0s11.66,0.91,14.08,7.08
	c0,0,6.51,6.23,13.86,0.82c0,0,13.04-4.34,14.01,5.43c0,0-0.44,3.81-0.59,4.84c0,0,5.09,0.23,5.57-1.69c0,0-2.71,6.53-9.61,9.02
	c0,0-13.74-0.66-15.64-4.4c0,0-1.31-2.2-7.69-1.17C640.88,284.13,636.47,285.45,628.48,281.93z"/>
<path class="st0" d="M627.23,269.82c-0.38,0.74,4.55,1.86,7.58,8.31c0,0,6.26,1.86,2.05-4.16
	C636.87,273.98,630.41,263.66,627.23,269.82z"/>
<path class="st46" d="M642.64,265.26c0,0,19.82,0.28,20.69,1.57c0,0,6.43-6.78-23.41-2.96L642.64,265.26z"/>
<path class="st47" d="M635.74,263.37l8.07,6.46c0,0,4.99,3.96,9.68,0c0,0,13.94-2.98,18.19,5.04c0,0,4.71,10.22-7.91,14.47
	c0,0,14.22-1.03,11-14.52c0,0-4.28-10.27-13.88-8.22l-8.71,1.61c0,0-4.91,1.91-10.12-3.3l-3.23-2.93L635.74,263.37z"/>
<path d="M652.32,277.82c0,0,8.44-3.59,10.56,4.55c0,0,8.44-5.13-3.08-8.29C659.8,274.08,652.76,274.59,652.32,277.82z"/>
<path class="st48" d="M718.34,302.02c0,0,21.18,54.26-67.36,72.65c0,0,88.49-4.81,71.86-72.43c0,0-2.12-8.11-5.85-8.92
	C716.98,293.32,717.88,300.65,718.34,302.02z"/>
<path class="st49" d="M587.47,537.22l41.47,17.61C628.94,554.83,591.97,532.53,587.47,537.22z"/>
<path class="st24" d="M596.28,550.13c0,0-2.93,28.56-4.89,32.47c0,0,25.51-18.6,33.49-18.59
	C624.87,564.01,597.84,552.87,596.28,550.13z"/>
<path class="st50" d="M567.91,615.27c0,0-14.18,10.88-31.49,14.44c0,0,0.39,3.56-3.72,1.6c0,0-3.91-6.85-30.91-2.74
	c0,0-6.65,1.37-16.82-4.89c0,0-22.57-16.04-25.76,15.45c0,0,1.12,17.02,25.18,22.3c0,0,11.35,0.19,4.89,7.43l-26.41,23.28
	c0,0-0.98,1.37-9.19,1.37l-74.72,2.54l10.76-71.59c0,0,0.98-16.63-3.91-5.48l-9.39,77.07l-93.7-24.84l3.91-44.41l-7.24,4.89
	c0,0-3.52,4.89-5.87-0.19c0,0-1.76-5.28-3.13-1.57c-0.54,2.09-1.25,2.46-1.62,2.54c-2.03,0.42-4.7-5.54-5-6.23
	c-0.95,0.04-2.41-0.03-4.03-0.62c-3-1.11-4.61-3.32-5.19-4.19c-1.23,14.12-2.46,28.25-3.69,42.37l-80.81-20.56l22.5-172.53
	l0.19,0.02l83.14,9.17c0,0-3.29,3.43-4.36,5.92c-0.21,0.49-0.33,0.94-0.33,1.32l-3.52,40.3l-0.78,3.33c0,0,3.91,0,6.85-3.72
	c1.14,0.63,1.94,1.29,2.45,1.76c1.99,1.84,2.28,3.37,4.21,4.11c0.73,0.28,1.34,0.31,1.69,0.34c2.05,0.1,3.58-0.88,4.18-1.31
	c0,0,6.85-4.3,11.93,5.67l5.08-45.38c0,0,0.68-1.75,1.55-3.6c0.99-2.1,2.22-4.33,2.95-4.23l72.46,8.09h0.01l21.23,2.37l-7.63,65.04
	l-9.59,15.06c0,0,1.18,2.15,9.78-10.17l-0.98,11.35l2.93-0.98l5.28-47.34l4.6-32.96l72.62,13.21c0,0,7.19,0.29,6.16,9.68
	l-4.84,38.14l8.66-7.19v6.75c0,0,0.73,0.88,4.69-2.64c0,0,6.16-3.82,4.99-0.15c0,0,10.27-1.91,13.06,5.57l6.16-42.84l61.91,11.15
	L567.91,615.27z"/>
<path class="st51" d="M275.86,479.91c0,0-3.29,3.43-4.36,5.92c-25.62-2.42-50.24-5.36-73.79-8.66l-14.38,102.11
	c5.49,4.91,3.01,13.24,2.94,13.49l1.11-1.39c-1.26,1.65-5.81,9.72-5.81,9.72c2.93,9.5-7.92,22.19-7.92,22.19l19.07-152.55
	L275.86,479.91z"/>
<path class="st51" d="M305.89,483.73l-2.79,4.79h0c-5.18-0.39-10.41-0.81-15.67-1.26c-4.18-0.35-8.33-0.72-12.45-1.1l2.45-5.17
	L305.89,483.73z"/>
<path class="st51" d="M380.21,492.5c-24.14-0.68-49.3-1.93-75.4-3.87c0.99-2.1,2.22-4.33,2.95-4.23L380.21,492.5z"/>
<path class="st52" d="M485.56,509.35l30.22,5.28c-1.78,13.19-3.55,26.37-5.33,39.56c-0.76-0.63-1.67-1.31-2.74-1.96
	c-1.55-0.94-3.02-1.57-4.25-2.01c-1.21,1.51-3.05,1.77-4.01,1.03c-0.82-0.64-0.79-1.86-0.78-2.05c-0.5-0.64-0.96-0.8-1.27-0.83
	c-1.97-0.21-3.28,4.09-5.53,3.86c-0.36-0.04-0.61-0.17-0.84-0.31c-2.03-1.13-1.96-4.31-1.94-4.73c-2.64,2.05-5.28,4.11-7.92,6.16
	c1.35-5.84,2.54-12.38,3.35-19.55C485.53,524.8,485.75,516.56,485.56,509.35z"/>
<path class="st53" d="M425.12,689.21c0,0,19.17-0.44,28.17-7.36c0,0,8.8-10.83,8.41-14.94c0,0,1.96-4.89-5.09-9.39
	c0,0-12.52-13.89-2.74-31.1c0,0,9.58-21.52,31.88-8.02c0,0,16.43,14.28,46.95-21.91l44.49-69.44l2.07-0.49l-11.35,88.71
	c0,0-13.63,10.78-31.49,14.44c0,0,0.21,4.55-5.98-0.15c0,0-5.88-3.87-25.12-1.48c0,0-10.54,2.79-20.34-4.4
	c0,0-13.99-12.51-22.61,3.1c0,0-7.56,9.02,0.79,22.07c0,0,6.42,10.63,23.93,12.9c0,0,8.56,1.51,1.36,7.85l-25.03,22.07l-38.98,2.84
	C424.43,694.51,414.45,695.28,425.12,689.21z"/>
<path class="st54" d="M398.51,564.01c0,0-1.91-11.7,3.67,0l0.88,20.35c0,0,7.34,2.79,8.07,6.6c-0.22,3.44-0.39,6.96-0.51,10.56
	c-0.16,4.73-0.23,9.33-0.22,13.79c-1.29,1.27-1.78,1.43-1.97,1.3c-0.21-0.14-0.09-0.63,0.03-1.45c0.16-1.12,0.19-2.09,0.18-2.82
	c-0.17-1.11-0.31-2.31-0.39-3.59c-0.13-2.18-0.07-4.17,0.09-5.91c0,0-0.73,1.32-0.88-4.25c0,0,2.09-8.36-2.4-9.39
	c0,0-6.55-0.64-6.25-5.82l0.44-5.77c0,0-1.27-4.11-6.21-1.47l2.93-0.98l0.21-1.92c0,0,2.48,1.38,2.67-1.46
	C398.85,571.8,399.39,565.42,398.51,564.01z"/>
<path class="st55" d="M383.11,579.09l10.91-14.28l-5.45,41.57c0,0-1.93,2.64-2.23-5.87C386.34,600.5,386.04,581.14,383.11,579.09z"
	/>
<path class="st56" d="M385.8,618.99l-1.81-23.03c0,0,3.19-1.97,5.19,19.85l-3.45,3.79"/>
<polygon class="st57" points="296.79,627.99 292.88,661.44 367.21,679.34 371.42,643.54 "/>
<polygon class="st58" points="299.34,631.7 296.01,659.58 365.06,675.42 367.9,646.67 "/>
<polygon class="st0" points="299.53,655.37 301.1,638.45 309.26,639.28 308.97,642.07 303.89,641.73 303.59,646.08 307.99,646.08 
	307.6,649.55 303.45,649.21 302.91,655.18 302.81,656.11 299.24,656.11 "/>
<path class="st0" d="M308.21,657.72c0.51-5.78,1.03-11.57,1.54-17.35c3.4-0.82,6.6,0.04,7.96,1.98c0.85,1.22,1.06,2.75,1.06,2.75
	c0.2,1.45-0.16,2.56-0.26,2.83c-0.5,1.44-1.42,2.3-1.87,2.67c0,2.53,0,5.06,0,7.59c-0.89,0-1.78,0-2.68,0
	c-0.09-2.29-0.17-4.59-0.26-6.88c-0.05-0.12-0.17-0.32-0.4-0.49c-0.36-0.26-0.93-0.36-1.37-0.07c-0.32,0.21-0.43,0.53-0.47,0.66
	c-0.08,2.03-0.16,4.06-0.24,6.09C310.22,657.57,309.22,657.65,308.21,657.72z"/>
<path class="st50" d="M311.97,643.36c-0.23,0.07-0.32,4.27-0.32,4.27s5.01,1.68,4.62-1.44
	C316.27,646.19,316.59,641.92,311.97,643.36z"/>
<path class="st0" d="M324.42,642.43c-2.27,5.59-4.55,11.17-6.82,16.76l4.11,0.81l0.44-3.15l3.01,0.15v5.06h3.15
	c-0.24-6.47-0.48-12.94-0.72-19.41C326.54,642.57,325.48,642.5,324.42,642.43z"/>
<polygon class="st50" points="324.21,649.11 322,653.69 325.05,654.05 325.05,648.26 "/>
<path class="st0" d="M336.55,650.92c0,0,3.67,1.96,3.52-0.58c0,0-0.93-8.26-6.65-5.48c0,0-4.16,1.64-3.86,11.25
	c0,0,0,9.98,8.22,5.94c0,0,1.98-0.39,1.47-8.48l-4.43-0.24v3.08h1.42c0,0,0.27,2.59-0.12,3.62c0,0-4.84,1.76-3.52-3.91
	c0,0-0.24-6.16,0.98-6.6C333.57,649.51,336.7,645.97,336.55,650.92z"/>
<polygon class="st0" points="341.96,646.2 340.08,664.54 343.79,664.98 345.33,646.2 "/>
<path class="st0" d="M347.16,647.08c0,0.29-1.47,17.9-1.47,17.9l6.9,1.03v-3.23l-3.74-0.73l1.61-14.96H347.16z"/>
<polygon class="st0" points="355.58,648.44 354.11,667.31 363.2,668.09 363.2,664.98 357.24,664.37 357.34,660.36 362.72,660.46 
	363.2,656.55 358.12,656.55 358.66,653.56 364.67,653.66 364.67,649.13 "/>
<path class="st60" d="M176.4,589.94c0,0,8.8,4.01,6.46,22.1c0,0,10.37-12.23-6.94-25.53L176.4,589.94z"/>
<path class="st61" d="M202.07,492.67c0.29,0.44,53.99,6.6,53.99,6.6l-5.13,47.83l-53.55-7.04L202.07,492.67z"/>
<polygon class="st62" points="203.68,496.2 253.42,501.33 249.46,544.76 199.14,538.15 "/>
<path class="st61" d="M207.35,501.92l41.37,4.69c0,0,1.76,3.37-0.88,3.37l-40.49-4.84C207.35,505.14,206.52,501.82,207.35,501.92z"
	/>
<path class="st61" d="M206.98,508.96c0,0,36.61,4.4,37.64,4.99c0,0-0.88,2.2-9.1,1.03c0,0-27.88-2.79-28.54-2.05
	C206.98,512.92,204.99,509.55,206.98,508.96z"/>
<path class="st61" d="M206.1,517.32c0,0-0.88,3.28,0.88,3.81c0.96,0.29,39.4,3.52,39.4,3.52s-5.72-2.49-9.1-2.79
	C237.28,521.87,209.24,517.61,206.1,517.32z"/>
<path class="st61" d="M205.88,524.07l0.22,2.93c0,0,18.27,2.2,20.03,1.91c1.76-0.29,1.18-1.91-7.19-3.23
	C218.94,525.68,207.05,523.34,205.88,524.07z"/>
<path class="st61" d="M205.88,530.52v3.08l23.04,1.61c0,0-3.66-3.67-13.35-3.81C215.57,531.41,206.9,529.64,205.88,530.52z"/>
<path class="st63" d="M180.31,623.59l2.64-9.68c0,0,4.11-0.1,4.99-2.35c0.88-2.25,0-0.49,0-0.49s-0.49,3.91,0.88,12.52
	c0,0,5.67,7.63,6.65,1.96c0,0,0.49-2.45-1.66-4.4c0,0-3.23-1.66-2.84-9.98l-0.39-5.48c0,0-1.86-2.45-3.42,1.08
	c0,0,0.23,6.6-1.98,0.84c0,0-1.44,3.76-2.32,4.44c0,0,1.08-7.24-2.54-0.78C180.31,611.26,177.96,617.33,180.31,623.59z"/>
<path class="st63" d="M194.39,620.55c0,0,5.97-4.4,8.41-4.3l0,0c2.45,0.1,2.54-6.85-1.66-4.6c0,0-8.41,4.49-9,5.18
	c-0.59,0.7,0-0.59,0-0.59l-1.86,3.03l2.25,3.23L194.39,620.55z"/>
<path class="st63" d="M199.43,622.51c0,0-3.23,6.46,4.25,13.35c0,0,5.16,1.37,0.82-4.16c0,0-1.99-6.11-1.26-9.19
	C203.24,622.51,200.75,619.43,199.43,622.51z"/>
<path class="st63" d="M435.87,658.2h-9.78c0,0-7.43-8.3,0.88-11.33c0,0,8.51-4.62,9.29,11.33"/>
<path class="st63" d="M395.43,674.45c0,0-2.14,3.08,0.98,5.72c0,0,2.83,1.81,2.54-4.74C398.95,675.42,398.37,670.34,395.43,674.45z"
	/>
<path class="st63" d="M412.74,669.6c0,0-4.03,11.88,7.45,8.07c0,0,1.06-2.91,2.09-3.66c0,0,2.64-1.9,3.67-1.17
	c0,0,2.35-9.4-3.52-3.97c0,0-4.25,5.48-4.11,6.55c0.15,1.08-0.15-1.08-0.15-1.08s-3.37,1.27-2.49-3.42
	C415.68,670.92,414.36,667.11,412.74,669.6z"/>
<path class="st63" d="M404.38,668.09c0,0-2.79,11.95-0.88,12.31c0,0,2.64,3.44,4.25-10.79C407.76,669.6,405.21,664.03,404.38,668.09
	z"/>
<path class="st63" d="M422.18,634.74c0,0,1.56,3.03,1.66,7.34c0,0,4.21,1.96,4.4-5.57C428.25,636.5,423.84,629.85,422.18,634.74z"/>
<path class="st63" d="M418.66,617.43l4.38,4.89c0,0,2.37,0.04,1.1-5.65c0,0-1.57-4.54-2.55-0.8
	C421.59,615.86,418.18,616.89,418.66,617.43z"/>
<path class="st64" d="M342.7,616.25c0,0-8.74,8.22-0.63,6.06l8.31-5.65c0,0,2.74-1.46,2.2,2.93c0,0,5.62,0.46,6.8-5.21
	c0,0,3.81-2.34,3.23,3.33c0,0,1.08,6.62,4.5,0.57v-1.63c0,0,1.08-3.15-0.78-3.64l0.1-8.51c0,0,4.3-0.2,3.13-4.69
	c0,0,2.05-2.25,3.91-2.25c0,0,2.35-3.33-4.99-3.33c0,0-5.09,0.98-6.16,3.33c0,0-1.86,6.75-8.22,3.33c0,0-1.47,1.08-1.52,1.76
	c0,0-3.42-0.98-3.45,0.59C349.15,603.24,346.75,615.08,342.7,616.25z"/>
<path class="st65" d="M355.53,589.65c0,0-1.91,4.69-2.93,7.78c0,0-0.29,3.81,5.13,0C357.73,597.42,360.37,587.45,355.53,589.65z"/>
<path class="st66" d="M393.04,576.15l-4.47,30.22l0.33,6.56l5.82-22.69c0,0-0.95,15.42-3.08,21.13c0,0,10.89-18.83,10.44-22.03
	c0,0-4.11-3.11-3.28-5.94l0.32-4.21c0,0,0.36-3.22-1.57-3.56c0,0-1.88-0.94-4.3,0.46C390.83,577.47,393.04,576.15,393.04,576.15z"/>
<path class="st67" d="M252.59,663.01l3.72-37.47c0,0,4.99,4.6,6.65,2.45c0,0,4.68,10.55,8.69,5.17c0,0,2.05,7.04,9.39,0l3.42-2.54
	l-3.72,40L252.59,663.01z"/>
<path class="st68" d="M305.89,483.73l-2.79,4.79h0l-0.29,0.5l-0.34,0.59c0,0-5.48,35.99-4.89,44.01c-0.71-0.92-1.88-2.23-3.62-3.39
	c-1.75-1.16-3.79-2.52-5.94-2.1c-2.52,0.5-2.41,2.88-4.72,3.21c-2.37,0.33-5.54-1.75-6.65-4.27c-0.35-0.79-0.34-1.27-0.82-1.57
	c-1.28-0.79-3.9,1.1-6.02,2.94l4.89-41.66l0.24-0.51l0.04-0.1h0l2.45-5.17L305.89,483.73z"/>
<path class="st69" d="M232.15,301.81l200.99,7.63c0,0-22.59,179.86-24.65,179.57c-2.05-0.29-198.94-22.89-198.94-22.89
	L232.15,301.81z"/>
<polygon class="st61" points="240.21,314.57 234.49,369.15 287.89,372.67 293.91,316.33 "/>
<polygon class="st62" points="242.41,317.94 237.28,366.8 284.96,369.44 291.42,318.82 "/>
<polygon class="st0" points="246.23,322.35 245.35,335.99 261.49,336.58 261.49,323.08 "/>
<path class="st0" d="M263.1,326.22c0,0-0.29,1.99,1.91,1.99h17.31c0,0,3.81-1.89-4.69-1.99
	C277.62,326.22,263.08,325.62,263.1,326.22z"/>
<polygon class="st70" points="214.83,466.73 237.28,308.55 432.49,314.57 433.14,309.43 232.15,301.81 209.55,466.12 "/>
<polygon class="st71" points="216.41,458.2 410.84,477.04 408.49,489.01 214.83,466.73 "/>
<polygon class="st57" points="323.98,465.53 327.36,434.28 403.21,441.33 399.69,474.34 323.98,466.73 "/>
<polygon class="st69" points="329.44,437.51 326.53,464.46 397.24,472.09 400.47,443.72 "/>
<polygon class="st0" points="330.05,460.06 331.42,442.45 339.83,442.45 339.83,446.56 334.45,446.27 334.25,449.88 338.36,450.28 
	338.17,454.31 333.67,453.8 333.47,460.06 "/>
<path class="st0" d="M339.83,460.54l1.17-17.21c0,0,8.51-0.1,8.7,3.42c0,0,0.88,6.31-2.15,7.56l0.59,6.24h-3.31l-0.79-5.77
	c0,0-1.47-0.78-1.37,0.39l0.68,5.77L339.83,460.54z"/>
<path class="st69" d="M343.84,447.04l-0.49,4.42c0,0,3.57,0.81,3.32-2.21C346.68,449.25,346.45,445.86,343.84,447.04z"/>
<path class="st0" d="M354.45,444.8c-1.73,5.36-3.46,10.73-5.18,16.09c1.3,0.02,2.61,0.03,3.91,0.05v-3.11l3.08,0.37v3.59H360
	c-0.55-5.47-1.09-10.94-1.64-16.41c-0.11-0.15-0.68-0.93-1.76-1.12C355.44,444.05,354.59,444.69,354.45,444.8z"/>
<polygon class="st69" points="355.45,449.84 353.55,455.7 357.07,456.22 356.11,449.17 "/>
<path class="st0" d="M371.76,451.25c0,0,0.93-8.41-7.14-5.53c0,0-4.74,1.86-3.37,13.11c0,0,4.06,9.78,9.63,0.98
	c0,0,2.69-8.51-4.89-5.77c0,0-1.52,1.17-0.39,3.57c0,0,3.18-1.27,2.89,0.78c0,0-4.69,4.35-4.99-2.79c0,0-0.54-5.77,3.18-5.97
	c0,0,1.56-0.68,1.81,1.81C368.49,451.45,371.03,452.96,371.76,451.25z"/>
<polygon class="st0" points="373.33,446.41 372.2,463.72 375.28,463.72 376.8,446.41 "/>
<polygon class="st0" points="378.36,447.19 377.44,464.31 384.53,464.8 384.53,460.69 380.57,460.74 381.45,446.41 378.27,446.17 
	"/>
<polygon class="st0" points="386.68,447.83 386.19,465.24 394.55,465.75 394.55,462.45 389.78,461.79 389.71,458.49 394.92,458.2 
	394.92,455.07 390.08,454.77 390,451.23 396.09,451.16 396.09,447.85 "/>
<path class="st72" d="M416.56,355.79c0,0,0.44,13.06-6.16,23.33c0,0,1.76,8.8,0,14.52c0,0,0.29,12.91-5.43,14.23
	c0,0,9.39-2.79,10.56-16.14c0,0-2.78-12.62,1.03-15.99C416.56,375.75,421.25,357.12,416.56,355.79z"/>
<path class="st0" d="M244.54,470.72c0,0-1.54-12.23-5.21-11.71c0,0,7.19-5.87,9.39,13.2L244.54,470.72z"/>
<path class="st0" d="M227.08,437.29c0,0-1.91,6.31,0,11.15c0,0,5.57,1.61,6.31,8.36c0,0,4.62,3.59,5.43,0c0,0-3.52-1.98-4.55-8.14
	c0,0-2.71-3.81-4.47-2.64c0,0-1.47-8.36,0.59-8.73C230.38,437.29,228.26,434.8,227.08,437.29z"/>
<path class="st0" d="M213.37,421.52l10.76,9.58c0,0,3.72,0.98,0.78-3.52l-10.56-8.61L213.37,421.52z"/>
<path class="st0" d="M311.07,302.39c0,0-5.43,12.91-6.9,44.45c0,0,0,1.91,6.9-2.64c0,0,7.19-6.16,6.75-2.79c0,0-1.17,4.99,3.52,3.52
	c0,0,7.04-1.91,8.07,1.32c0,0,4.25,5.72,7.48,5.13c0,0,1.86-39.94,6.87-45.35l-3.65-1.6c0,0-3.67,9.93-4.69,20.44l-0.88,19.76
	c0,0-0.59,2.05-3.67-1.76c0,0-3.08-3.37-6.02-1.17c0,0-2.64,2.45-4.6-2.05c0,0-2.35-4.21-7.73,0.39l-4.5,3.57
	c0,0-0.49-0.64,0.1-4.94c0,0,3.33-33.55,5.57-35.11L311.07,302.39z"/>
<polygon class="st69" points="435.63,310.17 411.81,490.24 560.19,516.29 583.51,354.77 "/>
<polygon class="st71" points="411.81,490.24 413.18,479.88 561.48,507.33 560.19,516.29 476.65,501.62 "/>
<path class="st0" d="M476.65,501.62c0,0,6.17-32.96,6.37-36.82c0,0,0.29-7.41,3.63-4.11l5.25,3.52c0,0,3.45,1.83,1.69-2.13
	c0,0,2.71-2.64,5.43,2.27c0,0,1.1,5.5,7.56,1.91c0,0,3.08,0.07,1.54,2.71l4.91-0.95l-4.81,39.14l-4.14-0.92l4.77-34.18
	c0,0-7.38,1.76-10.37-2.42c0,0-3.04-7.19-3.64-2.49c0,0,0.95,3.08-9.03-3.37c0,0-3.52,25.97-6.38,38.73L476.65,501.62z"/>
<path class="st0" d="M500.69,329.79l-6.18,43.81c0,0,1.32,4.79,5.77-2.35c0,0,5.77-5.28,5.33,1.17c0,0-1.52,6.31,1.27,4.4
	c0,0-0.44,7.63,5.72,0.1l4.16-3.96c0,0,0.83-1.76,1.61,1.08l5.04,12.08c0,0,1.76,1.56,2.15-8.02l4.87-39.34l-3.26-0.98l-4.44,38.46
	l-3.33-5.97c0,0-1.47-1.27-3.52-0.1l-5.77,4.69c0,0-1.66,0.98-1.47-3.72c0,0-0.78-2.84-1.47-1.86l-0.68-3.42
	c0,0-1.37-2.25-2.93-0.68l-3.62,2.74c0,0-2.15,2.64-1.17-4.01l5.08-33.17L500.69,329.79z"/>
<path class="st73" d="M540.23,444.26l-10.86,10.42c0,0-2.64,0.59-3.37,4.25c-0.73,3.67,0,0.91,0,0.91s-1.76,7.01,3.08,10.09
	c0,0,5.13-0.77,5.72,4.09c0,0,5.82,13.81,7.09,14.1c0,0,4.72-2.35,3.88-5.57c0,0,0.33-4.84,3.85-3.81l1.32-12.54
	c0,0,7.43,5.94,10.54,3.15c0,0,2.08-9.36,1.05-12.75c0,0-9.39-0.16-8.95-5.59l1.61-11.3c0,0-2.93-4.55-5.43,0.59l-1.17,5.28
	c0,0-3.08,7.78-5.57,2.05C543.02,447.63,541.35,443.19,540.23,444.26z"/>
<path class="st73" d="M560.19,442.06c0,0-4.69,2.84-1.17,6.36c0,0,5.09,2.74,6.85-2.64C565.86,445.78,565.79,440.09,560.19,442.06z"
	/>
<polygon class="st74" points="544.25,489.23 543.11,503.24 546.85,504.62 545.77,491.43 "/>
<path class="st73" d="M551.97,495.02c0,0-1.32-15.7,1.61-18.78c0,0,3.23-0.64,2.79,3.64C556.37,479.88,554.17,497.96,551.97,495.02z
	"/>
<path class="st75" d="M556.41,447.93c0,0-3.82,4.85,1.29,7.85c0,0,8.5,1.66,10.7-2.14c0,0,3.81-12.65,0.73-15.78c0,0-7.34-2-9.1,0
	c0,0-2.55,2.16,3.84,4.15c0,0,5.55,3.9-0.32,7.11c0,0-5.86,0.44-5.86-1.48L556.41,447.93z"/>
<polygon class="st0" points="456.46,404.5 461.3,440.89 551.67,424.89 547.42,387.92 "/>
<polygon class="st69" points="460.46,407.29 463.94,436.96 548.01,422.13 544.98,393.35 "/>
<polygon class="st0" points="464.68,411.18 466.73,431.2 470.4,431.2 470.4,422.4 474.8,422.4 474.8,419.03 469.08,418.29 
	468.64,414.4 473.63,414.4 473.48,409.78 "/>
<path class="st0" d="M476.65,408.76l0.65,20.28h5.28l-1.76-7.37c0,0,2.05-2.79,2.64,1.17l3.19,5.28l3.27-0.82l-4.25-6.81
	c-0.05-0.37-0.07-0.99,0.13-1.72c0.22-0.8,0.61-1.35,0.86-1.65c0,0,3.65-6.46-3.36-8.36C483.28,408.76,476.61,407.6,476.65,408.76z"
	/>
<path class="st69" d="M479.5,411.1c0,0-1.03,7.02,1.47,6.35c0,0,3.52,0.24,3.52-2.96C484.48,414.49,484.34,409.17,479.5,411.1z"/>
<path class="st0" d="M492.41,406.16l-1.66,19.95h3.23l0.54-4.01l3.15-0.29l1.98,3.72l4.01-0.88l-7.24-18.49
	C496.42,406.16,492.53,404.68,492.41,406.16z"/>
<path class="st69" d="M493.97,412.03v7.04h4.21l-3.67-7.04C494.51,412.03,494.19,411.76,493.97,412.03z"/>
<path class="st0" d="M510.5,409.78c0,0-2.64-5.77-5.09-0.39c0,0-0.78,6.07,1.37,9.25c0,0,2.74,3.58,4.99,0c0,0,0.45-3.55-3.25-2.83
	c0,0-0.88-2.18,0.86-2.55c0.25-0.05,0.55-0.07,0.92-0.03c2.93,0.27,4.14,0.04,4.03,3.18c0,0,0.18,7.06-3.15,7.06
	c0,0-7.63,3.57-8.8-7.38c0,0-1.47-12.67,4.25-12.23c0,0,6.53-1.54,7.63,4.37c0.03,0.14,0.05,0.27,0.07,0.42
	C514.33,408.66,511.97,411.45,510.5,409.78z"/>
<polygon class="st0" points="515.22,402.01 516.61,422.11 521.75,421.37 519.33,402.01 "/>
<polygon class="st0" points="521.31,401.41 523.51,420.13 532.31,419.47 531.72,415.49 526.81,416.42 524.98,401.41 "/>
<polygon class="st0" points="531.72,399.56 533.85,419.05 543.61,418.49 543.66,414.4 537.4,414.4 537.45,410.77 542.14,410.2 
	542.58,405.97 536.96,406.08 536.94,403.47 542.22,402.75 542.53,398.98 532.31,398.98 "/>
<path class="st0" d="M245.35,341.27l36.82,2.35c0,0,1.32,2.2-1.17,2.2l-34.77-2.13C246.23,343.69,242.56,342.3,245.35,341.27z"/>
<path class="st0" d="M244.67,347.94l36.44,1.31c0,0,3.61,2.51-1.82,2.15l-32.86-1.07C246.43,350.33,242.18,349.73,244.67,347.94z"/>
<path class="st0" d="M245.58,355.59l16.86,0.59c0,0,1.92,2.2-1.6,1.91l-13.5,0.03C247.34,358.11,244.55,358.23,245.58,355.59z"/>
<path class="st0" d="M245.83,360.83l17.61,1.03c0,0,1.54,2.93-1.39,2.64l-13.94-0.88C248.11,363.62,243.84,363.18,245.83,360.83z"/>
<polygon class="st76" points="274.69,296.23 293.91,162.14 462.48,156.56 441.94,304.43 "/>
<polygon class="st77" points="274.69,296.23 293.91,162.14 462.48,156.56 462.06,159.56 299.04,167.42 280.56,296.23 "/>
<path class="st0" d="M355.97,158.33l-5.87,43.72c0,0,0.15,1.91,2.93-1.76l6.16-4.99c0,0,2.2-1.47,2.64,1.61l1.47,5.63
	c0,0,0.44,3.03,3.96-2.7l2.93-3.96c0,0,0.88-1.76,3.08,0.44l5.57,6.31c0,0,2.49,2.64,2.79-5.72c0,0,3.96-35.65,6.31-39.17h-4.25
	l-4.55,38.88c0,0-1.17,2.64-3.81-2.79c0,0-3.96-4.69-6.75-1.17l-2.64,2.93c0,0-0.88,4.4-2.64-1.61c0,0,0.73-6.16-5.28-2.93
	l-4.11,3.81l5.57-36.53H355.97z"/>
<path class="st78" d="M294.25,204.98c0,0,9.78,36.87,21.91,45.97C316.16,250.95,297.67,206.84,294.25,204.98z"/>
<path class="st78" d="M295.52,233.73c0,0,1.76,10.07,6.16,15.26c0,0-3.62-11.25-3.91-15.75
	C297.77,233.24,295.24,232.33,295.52,233.73z"/>
<polygon class="st0" points="380.91,253.39 377.53,291.54 433.14,294.18 437.24,254.71 "/>
<polygon class="st62" points="382.96,256.33 380.03,289.48 430.64,291.68 434.46,258.09 "/>
<path class="st0" d="M387.07,261.02v3.23l26.11,0.59c0,0-1.03-3.81-5.8-3.08L387.07,261.02z"/>
<path class="st0" d="M386.19,268.06v3.23h40.49c0,0-0.44-2.49-5.57-2.49l-34.04-0.73H386.19z"/>
<path class="st0" d="M386.19,273.78v4.01l41.08,1.12c0,0,0.44-2.93-3.96-2.57L386.19,273.78z"/>
<path class="st0" d="M385.16,281.27v2.64l23.47,0.59c0,0,1.03-2.79-6.9-3.23H385.16z"/>
<polygon class="st76" points="464.43,156.56 445.26,305.42 557.54,339.85 576.32,207.04 "/>
<path class="st0" d="M514.33,176.84l-5.88,43.24c0,0,22.69,6.13,24.84,11.21c0.95-3.32,1.82-7.01,2.52-11.06
	c0.87-5.03,1.3-9.67,1.47-13.79c0.74-2.14,1.53-5.17,1.66-8.86c0.17-5.11-1-9.2-1.93-11.67l-1.17,8.22c0,0-3.91,22.89-3.91,30.32
	c0,0-18.17-8.27-19.45-7.17l5.56-41.54L514.33,176.84z"/>
<path class="st79" d="M458,309.33l63.31,1.77c0,0,7.87,5.38,20-21.76l34.35-77.59l-18.11,128.11L458,309.33z"/>
<path class="st0" d="M494.07,322.05l5.67-34.04c0,0,1.56-5.18,3.33-0.88l3.33,6.12c0,0,2.74,3.95,5.09-1.04c0,0,2.35-1.27,4.5,3.62
	c0,0,1.47,3.91,5.57-1.66c0,0,4.99-5.18,4.5,0.29l-5.28,35.32l-3.81-1.38l4.79-27.87c0,0,1.08-5.48-1.17-1.56c0,0-3.98,3.91-6.24,0
	c0,0-2.95-2.45-6.18-0.59c0,0-4.11-0.98-5.09-6.16c0,0-0.98-2.25-1.56,2.74l-4.89,29.44L494.07,322.05z"/>
<path class="st80" d="M759.22,901.26c0,0,22.05-17.25,23.28-37.75c0,0,12.52,11.35,11.93,20.93c0,0-9.98,51.25-9.98,55.94
	c0,0-3.33,20.34-23.86,20.15c-20.54-0.2-1.37,0-1.37,0s-65.73,1.76-73.55-9.39c0,0,2.74-26.21,29.73-26.02
	c0,0,42.58-3.97,52.23,12.52c0,0-10.95-10.76-7.43-10.17c0,0,5.87-2.54,5.09-7.82c0,0,0.98-12.25-1.37-13.85L759.22,901.26z"/>
<path class="st81" d="M685.67,951.14c0.56,0.63,1.32,1.37,2.32,2.07c1.55,1.09,3.05,1.63,4.11,1.92c0.39-2.67,1.7-6.6,4.07-11.04
	c2.99-5.59,7.89-11.34,15.52-11.92c5.11,0.03,10.43,0.17,15.95,0.46c6.45,0.34,12.62,0.86,18.47,1.49c0,0,6.84-1.24-3.91-5.28
	c-1.53-1.06-3.98-2.51-7.23-3.41c-3.66-1.01-6.12-0.71-14.94-0.44c-8.71,0.27-7.79,0.02-9.24,0.23c-3.55,0.51-9.13,2.01-15.55,6.97
	C695.24,932.19,686.06,940.38,685.67,951.14z"/>
<path class="st82" d="M692.1,955.13c0,0,3.74-25.95,24.87-22.99l26.25,1.2c0,0,5.02,1.22,4.76-0.76c0,0-0.22-3.35-13.32-6.08
	c0,0,2.19-2.02,5.7-1.06c3.04,0.91,7.43,2.52,12.25,5.38c5.21,3.09,14.67,8.71,14.15,15.25c-0.22,2.8-2.18,4.71-4.18,6.6
	c-7.36,6.98-17.37,7.48-21.71,7.41c-4.82,0.13-9.93,0.09-15.29-0.19C713.01,959.23,701.78,957.39,692.1,955.13z"/>
<path class="st83" d="M781.62,871.72c0,0,9.74,25.38,9.42,30.44l3.41-18.31c0,0-6.42-17.91-12.03-19.31l-0.8,7.68"/>
<path class="st84" d="M708.75,920.23c0.85,1.09,3.23,0.45,5.55-0.05c0,0,1.14-0.24,10.6-1.36c6.19-0.73,11.16,0.11,14.19,0.62
	c1.3,0.22,7.28,1.23,11.52,2.79c0.73,0.27,2.27,0.67,5.35,1.47c0.91,0.24,1.6,0.41,2.5,0.34c1.67-0.12,2.95-0.95,3.7-1.56
	c0.09-0.25,0.18-0.63,0.15-1.08c-0.08-1.36-1.19-2.37-2.42-3.23c-2.41-1.68-4.93-2.51-7.97-3.35c-1.56-0.43-3.7-0.99-6.29-1.55
	c0,0-11.79-2.43-28.68,0.11c-3.33,0.5-6.77,1.39-8.04,4C708.83,917.57,708.02,919.29,708.75,920.23z"/>
<path class="st85" d="M749.64,903.41c0,0-9.78,1.96-7.92,5.09c0,0,11.25,3.52,19.85,3.13c0,0,3.81-6.75-4.79-8.22H749.64z"/>
<path class="st1" d="M682.1,956.93c0,4.52,0,9.05,0,13.57c0,0,2.24,5.57,10,6.75c0,0,18.46,7.92,68.35,3.23
	c0,0,23.47-1.03,29.19-16.43c0,0,6.6-15.26,5.87-35.21c0.33-3,0.65-6,0.98-9c0.06,3.95,2.13,6.74,3.83,6.83
	c1.81,0.09,4.43-2.83,4.43-7.37l1.17-23.18c-0.07-2.34-0.55-4.15-0.95-5.34c-0.99-2.94-3.14-6.76-4.85-6.54
	c-0.41,0.05-0.85,0.35-0.88,0.37c-0.68,0.48-0.93,1.21-1.17,2.05c-0.26,0.92-0.56,2.13-0.81,3.59c-0.75,3.96-1.61,8-2.49,12.13
	c-1.36,6.37-2.93,13.34-3.81,15.75c0,0-4.25,28.74-6.46,31.38c-1.17,2.34-4.74,8.7-12.47,12.86c-7.19,3.87-13.93,3.65-16.58,3.42
	c-7.76,0.37-16.19,0.44-25.18,0.06c-11.57-0.5-22.19-1.68-31.7-3.18c-2.52-0.78-5.1-1.63-7.73-2.54
	C687.82,959.1,684.91,958.02,682.1,956.93z"/>
<path class="st0" d="M689.44,716.19c0,0-0.98,28.56,28.17,31.49c0,0-24.06-7.04-26.21-32.28L689.44,716.19z"/>
<path class="st86" d="M559.73,627.91c-7.65,4.55-11.48,6.82-13.64,7.48c-1.32,0.4-3.86,1.09-3.89,2.13
	c-0.02,0.83,1.57,1.65,2.86,1.98c2.86,0.73,4.99-0.79,10.45-3.09c4-1.68,3.56-1.17,6.16-2.34c2.84-1.28,6.83-3.47,11.16-7.27
	c5.93-4.61,11.89-9.27,17.86-13.98c7.05-5.56,14.03-11.11,20.94-16.65c6.45-4.72,15.67-10.39,27.62-14.66
	c17.22-6.15,32.43-6.66,42-6.21c6.4,0.38,12.79,0.77,19.19,1.15c0.11-0.85,0.17-2.2-0.36-3.68c-0.75-2.08-2.28-3.32-3.57-4.22
	c-4.48-3.11-9.48-4.55-11.42-5.09c-6.46-1.78-9.7-2.67-13.32-2.58c-2.72,0.07-7.27,0.57-12.55,3.13
	c-5.53,1.56-11.51,3.56-17.78,6.14c-12.14,4.99-22.19,10.86-30.19,16.35c-4.55,3.03-9.48,6.69-14.55,11.08
	c-6.19,5.35-11.3,10.66-15.47,15.52c-2.34,1.71-5.68,4.11-9.73,6.93C565.54,624.15,562.56,626.22,559.73,627.91z"/>
<polygon class="st86" points="659.21,564.01 685.91,524.66 690.44,522.87 669.61,560.6 "/>
<path class="st87" d="M785.7,588.67c0,0,8.65,20.03,5.01,24.12l-28.22,26.63c0,0-0.46-3.41,2.28-5.92l9.79-9.56l-15.48,7.51
	c0,0-6.14,29.13-24.12,41.87c0,0,0.23-1.59,2.28-3.64c0,0-8.88,9.79-6.6,1.59l3.87-7.74c0,0,2.21-5.69-4.24-0.46
	c0,0-34.22,34.59-74.73,38.92l-29.13,5.01c0,0,83.52-19.12,114.93-56.89c0,0,3.19,5.92-3.87,15.7c0,0,11.38-10.24,21.85-37.32
	l26.85-22.76C786.16,605.74,784.29,585.19,785.7,588.67z"/>
<path class="st88" d="M786.61,270.61c8.83,12.32,17.66,24.64,26.49,36.96c1.52,1.83,1.86,3.38,1.91,4.4
	c0.25,5.02-5.89,10.56-15.55,12.98c7.8,2.12,13.83,1.72,17.39,1.17c4.1-0.63,5.8-1.61,6.9-3.01c2.52-3.21,1.18-7.81,0.91-8.7
	l-15.73-22.89l-16.43-20.93l-4.98-8.03L786.61,270.61z"/>
<path class="st89" d="M694.28,499.72c2.59-0.08,5.35-0.07,8.26,0.04c3.06,0.12,5.95,0.35,8.65,0.66c1.24-5.35,2.98-11.41,5.49-17.91
	c2.85-7.39,6.05-13.73,9.1-18.97c0,0,9.98-17.21,14.87-19.37c-4.35,2.75-7.79,5.35-10.27,7.36c-4.96,4.02-8.24,6.72-11.27,11.2
	c-2.53,3.75-3.9,7.29-4.67,9.74c-0.43,0.97-0.89,1.96-1.39,2.97c-1.56,3.14-3.25,5.93-4.93,8.39
	C703.5,489.12,698.89,494.42,694.28,499.72z"/>
<path class="st90" d="M776.76,346.27c-0.8-12.79-1.59-25.57-2.39-38.36c0.79-0.58,1.74-1.39,2.69-2.48c1-1.16,1.69-2.28,2.17-3.18
	c1.16,13.41,2.32,26.82,3.48,40.22C780.72,343.73,778.74,345,776.76,346.27z"/>
<path class="st44" d="M622.29,258.38c0,0-3.86-17.9,8.46-23.62c0,0,8.8-2.72,11.15,5.61c0,0,1.61,1.59,1.47,5.99
	c0,0-3.67-7.42-9.1-5.99c0,0-1.17,2.18,1.17,5.99c0,0,1.47,8.5-3.96-1.18c0,0-5.28-1.17-4.25,6.75c0,0-0.73,6.25,4.25,8.7
	c0,0-2.05,2.79-1.17,3.57c0,0,13.79-0.1,16.43-15.94c0,0,1.61-13.99-7.48-16.97c0,0-10.76-4.16-16.97,6.11
	c0,0-10.32,17.11,0.98,23.23C623.27,260.63,621.61,259.55,622.29,258.38z"/>
<path class="st91" d="M626.01,280.78c0,0-10.37-9.78-0.49-16.58c0,0,4.3-0.64,1.71,3.67c0,0-5.82,5.18,0.83,11.64
	C628.06,279.51,628.06,282.24,626.01,280.78z"/>
<polygon class="st92" points="305.89,483.73 303.1,488.51 302.81,489.01 274.93,486.25 274.98,486.15 277.43,480.98 "/>
<polygon class="st93" points="252.59,663.01 252.59,664.31 280.64,671.21 281.2,665.64 253,658.82 "/>
<path class="st94" d="M636.95,206.35c1.46,0.21,3.6,0.66,5.96,1.76c3.4,1.59,5.48,3.69,7.38,5.63c1.27,1.29,2.92,3.15,4.55,5.63
	c1.18,1.01,3.16,2.47,5.97,3.41c4.74,1.59,8.92,0.74,11.25,0.24c2.91-0.63,3.52-1.27,7.97-3.03c1.45-0.57,7.27-2.87,11.93-3.78
	c3.4-0.67,9.03-1.16,16.58,0.99c-4.26-2.7-9.24-5.34-14.96-7.57C670.27,200.56,648.36,203.74,636.95,206.35z"/>
<path class="st0" d="M705.34,138.23c0,0,16.52-24.14,30.49,9.32C735.84,147.54,712.33,137.38,705.34,138.23z"/>
<path class="st33" d="M715.13,134.14c0,0-0.05,2.56,9.08,5.51c0,0,4.83-0.86-1.14-3.62C723.07,136.02,715.6,131.93,715.13,134.14z"
	/>
</svg>
