<svg xmlns="http://www.w3.org/2000/svg" xml:space="preserve" id="Layer_1" x="0" y="0" viewBox="0 0 1080 1080"><style>.st0{fill:#1b130d}.st1{fill:#eca920}.st9{fill:#d39229}.st10{fill:#2f1e0f}.st24{fill:#f7cb11}.st26{fill:#d69629}.st33{fill:#df9826}.st39{fill:#60625e}.st43{fill:#fff}.st44{fill:#0a0907}.st50{fill:#cea571}.st57{fill:#684923}.st61{fill:#3b2a17}.st62{fill:#f0f0ee}.st63{opacity:.47;fill:#89683c}.st69{fill:#cda573}.st71{fill:#b1885d}.st73{fill:#8d6a47}.st76{fill:#cea674}.st86{opacity:.63;fill:#9f9e9f}</style><path d="M866.07 490.25a184 184 0 0 1-10.12 47.53 403 403 0 0 0-15.85 31.69l-16.72 26.41-16.04 18.22c-7.04 7.63-13.69 3.91-13.69 3.91L760.2 654.2c-.78 27.58-13.69 33.45-13.69 33.45l-1.77 19.76c.59.78 4.11 12.71 4.11 12.71 4.31 14.87-5.28 42.45-5.28 42.45l.73 35.11c6.61.73 8.81 11.74 8.81 11.74 1.02 9.09 11.88 10.56 11.88 10.56 21.42 8.07 20.25 35.8 20.25 35.8 4.4 2.64 16.43 22 16.43 22 13.49 10.42 12.32 22.11 12.32 22.11 2.94 29.83-12.32 35.5-12.32 35.5v15.75c-2.94 38.73-37.85 36.97-37.85 36.97-24.06 5.87-67.05-2.06-67.05-2.06-18.48-2.49-20.68-11.88-20.68-11.88l-.74-17.31c2.06-26.41 24.21-35.94 24.21-35.94 3.81-9.25 0-10.86 0-10.86-22.01-1.76-23.91-22.74-23.91-22.74l-24.21-14.38c-8.95-2.93-19.07-16.72-19.07-16.72l-15.26-24.36c-11.74-22.74-35.65-48.56-35.65-48.56-8.66-9.09-19.37 1.91-19.37 1.91l-42.54 25.82c1.17 8.8-3.52 9.1-3.52 9.1-3.23 2.93-1.76 5.43-1.76 5.43 3.52 2.34 2.34 23.18 2.34 23.18s4.26-4.55.74 0-2.94 6.45-2.94 6.45l3.52 4.4c5.28 17.02-4.1 28.46-4.1 28.46-5.87 2.06-4.41 5.29-4.41 5.29.3 2.05 3.23 7.04 3.23 7.04 1.76 3.81 4.99 31.1 4.99 31.1 4.11 19.95-5.87 24.06-5.87 24.06-9.09 9.39-46.65 6.45-46.65 6.45-6.75-3.81-14.67-.58-14.67-.58-2.64.29-39.03 9.09-39.03 9.09-43.13 5.58-76.29-8.21-76.29-8.21-14.08-1.76-11.15-20.25-11.15-20.25-.18-8.89 5.87-10.56 5.87-10.56-.29-22.01 16.43-29.05 16.43-29.05 8.51-6.75 37.86-7.92 37.86-7.92l13.49-7.92c7.63-2.94 3.23-4.11 3.23-4.11l-5.28-7.63c-6.16-14.08.59-25.82.59-25.82 4.1-3.52 2.93-7.34 2.93-7.34l-6.46-19.07c-7.92-26.7-1.17-46.65-1.17-46.65 2.05-13.79 43.82-63.28 43.82-63.28-5.48-2.35-6.46-11.35-6.46-11.35l-53.2.98-79.03-19.76c-15.06 19.76-38.15 7.83-38.15 7.83-25.03 3.32-30.12-8.8-30.12-8.8-28.36 1.56-28.36-24.26-28.36-24.26l-27.98-7.24c-10.56-1.56-7.23-10.37-7.23-10.37l19.36-164.5c.2-10.96 5.87-11.55 5.87-11.55l14.28 1.77 20.54-163.14c-.39-9.39 9.19-7.83 9.19-7.83l30.13.98c6.26.19 4.89-1.37 4.89-1.37l16.38-130.77c-.15-10.41 13.64-8.8 13.64-8.8l156.1-5.43c7.48-1.61 14.09 2.06 14.09 2.06l108.66 47.09c8.21 3.33 3.52 17.02 3.52 17.02l-10.59 83.74q.15-.9.44-1.88l-4.91 45.33 11.15 4.5s-10.54-47.85 7.11-71.28l3.57-6.14.01-.01c3.37-4.26 5.88-7.12 5.88-7.12 2.68-2.15 2.6-4.5 2.6-4.5l.19-17.8c1.57-11.74 13.5-15.06 13.5-15.06l5.09-9.78c7.23-10.37 6.84-14.87 6.84-14.87 4.89-25.43 21.32-43.42 21.32-43.42 15.85-20.15 56.34-19.17 56.34-19.17 29.34-.98 61.42 21.9 61.42 21.9 19.76 9.78 31.69 40.5 31.69 40.5 6.46 16.82.78 47.33.78 47.33-3.13 9-1.95 13.89-1.95 13.89l23.08 29.93c22.69 25.04 12.32 33.06 12.32 33.06-8.8 11.34-28.95 4.5-28.95 4.5-6.84-2.35-6.84 0-6.84 0 1.37.78 8.41 23.08 8.41 23.08l.58 8.41 13.7 13.89c13.49 12.71 36.97 51.45 36.97 51.45a169 169 0 0 1 14.91 64.52" class="st0"/><path d="M331.61 936.76v9.98s-.88 9.1 8.51 9.68c0 0 36.97 13.79 85.38 4.99 0 0 20.83-3.52 24.35-5.57 0 0 16.7-4.7 18.78.88l29.93-3.52s12.32.29 12.91-10.86v-7.63s-1.76-4.11-6.16-2.05c0 0-19.59 6.16-44.86 8.51 0 0-15.58 3.81-18.22 4.4 0 0-38.73 9.11-68.07 2.65 0-.01-19.37-1.78-42.55-11.46" class="st1"/><path d="M336.97 932.14q.2.77.48 1.49c6.29 15.67 46.14 13.4 61.84 12.03 0 0 32.86.2 43.03-5.09 0 0 16.11-5.96 34.04-5.48 0 0 28.75-4.11 31.49-9.59 0 0 1.76-21.71-4.3-31.49 0 0-24.26 8.41-61.42 2.74 0 0-2.15.39.78 4.5 0 0 4.69 6.26-1.96 8.22 0 0-4.11 5.09-8.8 2.35 0 0-13.89-13.69-9.39-4.3l5.67 5.28s1.56 6.26-5.67 7.04l-17.41-9.78a45 45 0 0 0 3.99 4.1c1.57 1.42 2.67 2.21 3.33 2.74 1.79 1.43 4.05 3.9 5.98 8.42q1.74 9.44.39 9.9-.98.33-3.53-3.95a48 48 0 0 0-7.53-11.64 51 51 0 0 0-10.17-8.7c-12.28-7.8-26.28-7.27-30.79-6.93-13.7 1.11-25.01 7.84-28.79 17.92a23 23 0 0 0-1.26 10.22" style="fill:#3e3b3d"/><path d="m337.92 932.08 7.19 1.16s1.17-14.96 13.2-19.07a69 69 0 0 1 12.4-2.64 72 72 0 0 1 33.38 4.21 57.3 57.3 0 0 0-29.98-11.19 56 56 0 0 0-18.21 1.77c-2.26.6-5.58 1.82-8.82 4.54-.51.43-.85.76-1.32 1.2-2.46 2.35-5.63 5.38-7.22 9.13-.63 1.44-1.96 5.26-.62 10.89" style="fill:#9d9994"/><path d="M345.11 933.24s1.11-17.17 14.94-19.59c0 0 15.56-4.55 29.76-1.7 0 0 12.75 2.93 17.41 5.42 0 0 6.69 6.48 7.43 12.35a30 30 0 0 1-4.55 2.93c-7.18 3.76-14.27 3.75-18.34 3.37 0 .01-44.6 1.33-46.65-2.78" style="fill:#51544f"/><path d="M388.68 899.35s-.51-6.68 10.2-4.77c0 0 19.22 6.16 25.16 17.46 0 0 3.15 14.08-21.64-6.82 0 0-7.19-3.96-13.72-5.87" style="fill:#f8d175"/><path d="M403.6 890.79s-.49-5.28 6.55-3.13c0 0 27.68 10.37 29.54 13.99 0 0 3.72 14.38-11.05 2.35 0 0-23.23-12.72-25.04-13.21" style="fill:#f5e3a4"/><path d="M497.75 895.58s5.36 29.21 3.09 34.08l7.02-4.15s1.37-24.65-4.3-31.49z" style="fill:#605b53"/><path d="M406.42 842.28s-14.66-45.19-8.5-60.74c0 0 14.67-29.93 18.97-32.86l23.08-30.32s6.65 8.22 14.08 8.41l5.28.2 2.93 2.93s6.85 7.63 11.74 9c0 0 15.65 2.35 20.34 1.17 0 0 6.85 8.61 31.3 3.91l19.17-8.22 22.69-17.41s12.52 2.15 22.5-3.33c0 0 60.84 6.06 69.34 3.72 0 0 63.08 0 78.64-9.39 0 0 2.84 5.09 2.45 28.75 0 0-2.15 18.58-4.69 24.84l2.15 35.01 4.3 7.43s6.06 1.96 7.04 15.45c0 0 2.74 7.43 5.87 6.46 0 0 11.74-1.56 18 10.37 0 0 11.74 14.87-2.54 42.06 0 0-24.06 32.67-65.92 24.84 0 0-17.41-3.52-19.76-16.24 0 0-3.13-4.5-.78-3.91 0 0-46.16-22.3-50.47-39.71 0 0-36.19-60.25-43.82-62.99 0 0-14.67-16.04-25.82-7.53l-40.49 26.7s-9 6.46-10.37 11.54c0 0-7.04 5.28-5.28 19.37 0 0 3.91 9 1.37 17.02 0 0-.2 11.74 1.76 16.04 0 0 5.95 11.74-2.89 19.17 0 0-14.91 12.32-56.18 7.24 0 0-38.14-6.06-42.84-12.52 0 0-10.76-3.91-8.02-18.58 0 0 2.93-16.63 7.04-5.09.01.02 1.95-.36-1.67-12.79" style="fill:#f3c517"/><path d="M420.81 750.73s17.9-23.47 19.17-32.37c0 0 6.8 7.87 12.31 8.21l7.06.4s7.89 8.04 10.12 9.49l4.55 2.45s17.12 2.05 20.34 1.17c0 0 3.87 6.43 23.16 5.07 0 0 12.48-.54 21.56-6.91 0 0 13.73-6.15 15.8-10.18l12.64-9.7s17.26 1.17 22.5-3.33c0 0 58.1 5.28 69.34 3.72l36.49-1.38s33.59-3.23 36.64-5.62c0 0 3.83 34.58-1.64 47.3 0 0-3.13 6.46-.98 19.56 0 0 4.11 35.21-.39 49.1s1.91 1.22 1.91 1.22-.29 15.99 6.75-1.47c0 0-3.52 9.24 0 11.59 0 0 1.32-.88 2.35-8.36 0 0 9.1 1.47 11.59 15.84 0 0 1.76 4.55 4.55 1.03 0 0 4.11-3.37 1.47-16.14 0 0 13.06-.59 13.35 19.37 0 0 4.02 19.64-9.14 37.55 0 0-19.71 19.19-48.99 17.33 0 0-20.08-.36-27.04-13.24l-2.17-7.99s-41.45-21.28-45.37-30.89l-36.1-57.01s-16.04-22.98-23.72-22.9c0 0-4.39-10.08-34.83 13.7 0 0-26.66 15.35-27.14 19.3 0 0-8.98 11.12-9.28 18.44 0 0 2.53 17.82 2.05 21.81 0 0-1.24 12.66.75 16.49 0 0 6.06 10.87-.52 18.8 0 0-15 16.93-67.81 7.34 0 0-26.61-4.69-30.12-8.51l-5.58-3.79s62.51 12.29 82.07.95c0 0 6.65-11.15-.39-7.82 0 0-18.58 4.5-22.1.39 0 0 12.13-2.15 17.61-5.28l-15.65-4.69s-4.3-1.96 1.96-4.3c0 0 10.95-17.61-8.41-25.23 0 0-11.67-5.09-1.04-7.63l18.06-9.19-10.95-6.83s-6.85-4.52 1.37-8.82c0 0 20.73-12.32 23.67-15.26 0 0 6.46-5.67-2.35-8.8 0 0-16.63-11.15-18.39-13.89 0 0-16.43-10.95-22.5-11.15 0 0-13.3-9.19-25.04 1.76-.03-.01-6.21 2.89-3.55-.7" class="st9"/><path d="M403.99 786.24s-3.52 18.19 4.89 24.26c0 0 6.65 7.43 14.67 2.93 0 0 .2-4.69-8.02-9 0 0-11.93-12.13-11.54-18.19" class="st9"/><path d="M415.53 856.07s10.04 10.37 44.93 12.13c0 0 5.74-3.52-2.28-4.11-.01 0-37.17-4.3-42.65-8.02m96.24-9.83s-25.67 27.73-45.77 24.5c0 0 22.15 3.52 44.89-12.76zm-2.79-22.15s-19.51 5.87-22.74 4.99c0 0 8.44 13.3 6.02 26.99 0 0-7.63-26.7-10.12-27.29 0 0-1.24-2.75 6.01-4.12l.74-.13c8.07-1.32 19.13-7.55 25.45-10.86z" class="st0"/><path d="M529.05 797.26s-14.34 10.98-33.71 10.32c0 0-8.66-1.92-9.39 7.3l-1.32 8.04s2.79 4.55 5.13-9.98c0 0 18.34-2.05 22.01-.44l3.96 1.17s3.08-8.22 5.87-8.36z" class="st0"/><path d="M491.53 809.56s-15.4 3.08-21.27-3.81c0 0-5.38-2.27-1.44 2.6 0 0 8.82 8.36 29.38 3.84z" class="st0"/><path d="M486.68 805.22s14.52-17.22 25.67-18.98l25.53-13.79s9.68-2.79 1.61 2.79c0 0-28.75 15.11-30.22 16.72 0 0-13.5 6.72-16.87 13.26.01 0-9.53 5.93-5.72 0m21.86-44.07s-6.6-4.4 3.37-3.37l24.5 7.19s9.54 2.64 12.32 1.17l-19.7-12.76s-3.04-6.16 3.56-2.05l20.98 9.83 27.12 12.82-9.52 2.59-16.87-6.75s-10.42 1.61-15.55-.44z" class="st0"/><path d="M544.49 733.72s.16 19.88 17.1 31.21c0 0-14.01-20.06-13.57-34.59z" class="st0"/><path d="M581.6 770.98s-5.72-4.58-9.24-21.07c0 0-18.93-1.97-22.74-9.08 0 0 19.81 8.14 22.01 4.48l-1.17-14.23-13.35-5.43 3.23-1.91s8.36 4.25 10.56 3.23c0 0 .88-8.8 1.76-10.27l3.81 2.05s-2.35 6.9-1.47 9.83l46.07 1.76s-9.24 7.78-46.8 2.2c0 0 1.17 26.11 9.39 35.5 0 .01-.7 4.4-2.06 2.94" class="st0"/><path d="M658.07 718.14s-.77 5.03-1.94 6.32c0 0 1.03 4.04 5.43 0l.73-6.59zm18.77-1.04a8.3 8.3 0 0 1-2.61 6.48l5.1.48.6-6.9z" class="st10"/><path d="M574.94 740.16s73.57 6.79 109.95-13.91a44.3 44.3 0 0 0 23.75 27.02 83 83 0 0 0 .61 54.31s4.99 16.51-4.4 32.36c0 0-13.2 18.49-42.54 10.27 0 0-21.71-5.57-27.58-21.13 0 0-21.42-38.14-29.34-41.08 0 0 22.3 4.69 26.7 12.32 0 0-22.3-32.86-33.74-34.04 0 0 27.87-7.92 28.75-8.22.88-.29-51.42-12.65-51.42-12.65q-.38-2.62-.74-5.25" style="fill:#f0c11a"/><path d="M650.85 854.31s26.7 19.61 52.67-2c0 0-27.43 15.35-52.67 2" class="st0"/><path d="M655.18 867.78c.57.03 20.32 16.85 53.58 13.33 0 0-2.93 5.87-29.15 5.28z" style="fill:#26160d"/><path d="M688.21 885.02c.78.39 42.25 9 58.88-13.3 0 0-21.91 20.34-58.1 13.69z" style="fill:#683c17"/><path d="M691.34 886.98s58.39 21.6 64.99-29.59c0 0-9.62 38.58-62.83 28.61z" style="fill:#fdd71e"/><path d="M737.51 791.71s-1.1 34.86-9.31 40.32c0 0 1.09 6.92 5.1-3.15l3.62-8.8s2.32-7.29 1.47.98c0 0-.71 10.76-1.04 15.27l-.13 1.71c-.19 2.1 2.54 3.17 3.72-9.83l1.08-22.3s3.27-.99 5.02 5.06c0 0 7.69 27.21 7.01 36.7 0 0 4.99 2.54 3.62-10.37 0 0-2.15-16.63-3.81-17.9 0 0-8.31-15.94-8.61-16.24s-5.87-7.04-5.87-7.34a61 61 0 0 0-1.87-4.11" class="st0"/><path d="M739.27 690.39s-104.26 18-133.41 19.76c0 0 73.35 11.74 133.41-7.04z" style="fill:#3f403d"/><path d="M731.42 691.73v13.64l7.85-2.27v-12.71z" style="fill:#86805d"/><path d="M662.3 702.91v15.73l14.62-.26v-17.74z" style="fill:#eab120"/><path d="M658.46 703.75v14.89l3.84-.02v-15.71zm18.46-2.95 3.01-.63v17.16l-3.01.21z" class="st10"/><path d="M726.26 674.01s-18.19 17.65-26.26 16.38c0 0 37.56 1.81 46.95-11.83 0 0 4.69-7.92 4.99-13.35 0 0-.44-4.4-7.04 2.79 0 0-9.1 12.03-14.96 12.32-.01-.01-5.73 3.81-3.68-6.31" style="fill:#e3ac39"/><path d="M435.87 701.15s5.87 15.84 22.5 18.78c0 0 7.82 2.15 19.95-2.15 0 0 14.08-5.67 19.17-4.01 0 0-12.13 9.09-28.95 11.44 0 0-1.76 9.19 24.26 7.82l21.53-5.28s5.13-1.08-.08 2.59l-11.67 4.84s-2.35 2.35 6.46 2.54c0 0 12.32 3.33 30.52-5.67l24.84-20.3s8.41-7.08 12.71-7.86c0 0 1.37-3.72-7.04-.59 0 0-6.4 6.06-8.48-5.09l-3.45-18.19s-2.35-7.82-3.72-2.93c0 0-2.93-17.02 1.37-25.23 0 0-4.5-5.67-7.82-5.67 0 0-3.72.98-4.69-4.11l-17.41-7.24s-3.72-2.74-8.41-1.17l-24.84.59-13.89-8.02s-10.56-4.69-11.54 8.02c0 0-3.91 11.54 9.98 17.02 0 0 8.41 4.11 13.11 4.3 0 0 11.15 1.96 9.19 9.78 0 0-2.35 8.75-12.71 16.5 0 0-12.91 13.03-15.84 13.62-.03-.01-2.57 6.25-35.05 5.67" style="fill:#979896"/><path d="M463.35 699.14c-1.67-.59-9.67 8.85 2.45 11.78 0 0 18.97 2.54 27.78 1.76 0 0 16.02-1.77-3.91 7.04 0 0 20.34 5.48 35.41-3.03 0 0 22.89-13.62 24.55-16.05 0 0 9.29-3.46 5.38-18.79 0 0-5.67-6.14-2.93-23.15 0 0 5.67-9.39-.59-9.39l-26.8-9.19s-7.04-1.96-14.67-.98c0 0-22.69 3.72-35.21-8.41 0 0-11.91-6.52-6.54 13.47 0 0 1.57 6.56 15.01 9.65 0 0 12.13 2.25 14.94 5.8s.56.77.56.77 3.93 6.41-5.32 15.17l-16.61 15.62c-.01 0-10.28 9.06-13.5 7.93" style="fill:#b5b2b0"/><path d="m659.21 564.01 26.7-39.36s8.3-4.53 17.21-2.41q1.08.25 2.15.64c9.68 3.52 61.62 23.77 80.1 64.7 0 0 11 18.05 0 29.49L766 635.56l6.01-12.32-10.85 6.47s-11.98 32.71-29.75 41.51l3.92-13.64s-33.15 36.59-82.44 40.3c0 0-30.37 7.75-43.57 7.49 0 0-25.56 2.02-28.63 6.38h-5.77s5.31-8.59 5.77-11.58c0 0-6.98-3.72-11.87 0 0 0-8.36-7.83-5.28-32.91 0 0-3.67.24-4.84 2.79 0 0-2.74-11.35 3.91-25.04 0 0-13.5-.78-20.73-7.43 0 0 35.59-18.29 45.13-30.91.02 0 27.17-30.15 72.2-42.66" style="fill:#3a3a3a"/><path d="M547.57 636.6s9.65 4.4 29.62-13.5c0 0 40.76-45.77 92.42-47.53 0 0 29.95-.88 30.39 0l.44.88s4.36-11.74-30.83-15.84l20.83-37.73s60.47 21.59 73.38 53.87c0 0-1.76 14.08-4.99 16.72 0 0 0-9.39-2.93-12.03 0 0-4.93 41.08-24.47 52.23 0 0 6.48-12.91 7.85-21.42 0 0-10.37 17.61-15.65 23.18 0 0 2.64-10.41 2.35-18.7 0 0-16.43 37.48-41.08 43.06 0 0 12.62-9.39 15.11-14.96 0 0-44.16 32.42-99.03 37.04l51.05-17.98s-53.14 20.72-74.84 13.3c0 0 9.11 8.13 13.51 8.13 0 0-12.32 2.35-17.61 0l-5.93 12.58s-5.46-10.82-4.24-17.57l.63-13.05s-4.84 1.61-4.84 2.79c0 0-1.86-17.07 3.91-25.04 0 0-16.45-2.37-16.56-4.51.01-.02-1.27-4.4 1.51-3.92" style="fill:#5a5854"/><path d="M683.42 517.47s33.74-6.16 75.11 26.7c0 0 37.26 29.13 40.49 66.21 0 0 12.62-12.8 13.2-16.91 0 0-3.24-35.8-40.21-64.55 0 0-41.07-33.45-81.56-25.23.01-.01-7.32 10.55-7.03 13.78" style="fill:#fcce09"/><path d="M694.28 499.72a133 133 0 0 0 16.63-19.81s3.72-7.24 5.09-12.13c0 0 13.89-23.47 18.97-24.65 0 0-21.59 20.22-21.91 26.6 0 0 1.37-15.65 10.37-26.6l-5.09 4.11-.2-2.35s-16.19 24.71-14.48 35.01c.2 1.17-15.45 12.71-17.6 19.76 0 0-8.61 7.63-9.78 13.69v11.74s-1.76 2.93-4.11 4.89c0 0-11.8 14.48-17.38 31.49 0 0-44.44 2.35-79.65 47.83l10.56-83.09s-.03-6.99-8.52-6.99l-10.84-1.17 10.84-81.57 24.37-20.54s9.1.59 12.62 15.55c0 0 .29-11.15-7.04-19.66 0 0-3.52-5.87-12.91 0l-11.74 11.74s-.59-23.47 2.05-27.58c0 0 4.4-16.14 4.69-20.83l15.55 17.61s42.25 32.57 104.16 4.4c0 0 36.97-16.72 51.93-29.64 0 0 23.77-14.96 26.11-23.47 0 0 .39-10.27 3.28-5.28l4.35 20.54s-19.95 28.85-55.94 51.74c0 0-33.65 23.86-54.18 32.28 0 0-12.32 10.37-13.3 2.54 0 0-7.43-19.95-14.28-22.69 0 0-8.02-4.11-21.52 8.8 0 0 15.26-6.65 18-5.09 0 0 6.8 5.67 12.69 19.76l3.94 8.41s2.74.98 8.41-2.54c0 0 51.64-24.84 57.51-31.69 0 0 51.64-38.34 60.25-54.18 0 0 32.67 33.84 35.21 40.49 0 0 7.63 9.39-1.37 4.3 0 0-17.8-15.45-60.64-1.17 0 0 53.34-14.89 73.35 17.21 0 0 17.8 27.78 13.89 62.01-.9 10.31-2.8 22.19-6.49 35.02a189 189 0 0 1-34.98 66.7c-2.63-10.84-10.96-38.75-36.97-61.72-34.29-30.29-74.54-30.08-83.9-29.78" class="st24"/><path d="M776.73 562.34s9.07-17.33 11.44-16.41 1.03-.03 1.03-.03 17.86 20.09 20.67 36.69c0 0-12.2 15.35-12.18 19.28 0-.01-3.95-22.31-20.96-39.53" style="fill:#e2a325"/><path d="M789.15 540.56s43.91-43.34 34.23-101.43c0 0-5.68-41.47-53.99-28.85 0 0 45.19-19.27 66.02 13.3 0 0 19.95 29.05 13.79 60.44 0 0-2.05 36.31-16.43 61.88l-20.54 29.96s-21.32-33.32-23.08-35.3" class="st26"/><path d="M782.11 390.12c1.54.7 3.46 1.79 5.35 3.5a22 22 0 0 1 6.46 10.87 67.4 67.4 0 0 1 30.72 3.83l-28.06-34.23s-1.17-3.91-6.65 0c0 0-39.52 38.59-56.1 48.62l-57.44 30.96s-5.68 4.86-7.03 0c0 0-10.43-23.94-14.57-25.4 0 0-1.89-2.49-4.97.59 0 0-12.76 19.66-14.38 24.94l16.87-11.44s3.67-3.08 4.69 1.47l10.56 18.78s3.08 6.6 8.8.59l40.2-23.33s24.94-15.54 30.37-20.83c.02-.01 34.98-25.98 35.18-28.92" class="st26"/><path d="M716.31 393.7s-1.89 6.2-1.3 6.2 26.69-13.69 32.81-13.69c0 0 4.84-.98 0 4.5l-24.48 30.71 32.76-22.76 12.08-10.27s16.89-15.7 17.71-18.13l8.73-10.94-3.95-18.63s-1.37-6.24-3.06-1.39c0 0-.91 3.49-.62 4.76 0 0-2.37 6.63-13.36 14.48L747.45 377c.02-.01-29.83 16.95-31.14 16.7" style="fill:#dda126"/><path d="m604.49 425.63-11.74 11.44-9.1 63.08s-2.05 9.1 6.16 12.32c0 0 9.98-.29 8.51 15.26 0 0-2.35 9.98 11.74 10.56 0 0 22.89 10.27 43.13 2.93 0 0 14.38-12.4 14.67-19.55 0 0 5.87-19.48 9.98-22.12 0 0 17.9-21.06 22.89-33.85 0 0 17.02-24.24 19.07-25.12l-4.91 9.57s-11.33 21.24-11.35 28.43c-.03 7.19.03.56.03.56l-16.72 18.69s-9.94 12.44-10.57 17.28 0 .73 0 .73v9.24s-16.81 16.43-21.49 36.38c0 0-45.12 2.59-79.55 47.07l10.35-81.43s2.48-5.88-3.86-6.98l-15.39-2.08 10.84-81.57 22.07-18.6s3.44-3.18 6.71-.18c0 0 7.47 7.04 8.2 15.11 0 0-6.16-7.34-8.95-7.04z" style="fill:#d19a2a"/><path d="M619.31 434.28s-20.24 21.26-20.54 55.6l11.42 1.03 12.34 2.1a206 206 0 0 1 28.44-65.1s-2.15-7.22-19.93 28.09c0 0-10.12 25.82-10.71 32.86a71 71 0 0 1-19.07-3.23s11.59-46.1 24.35-51.2z" class="st0"/><path d="M619.75 445.09c-2.23 2.03-3.24 5.7-1.66 8.38a6.2 6.2 0 0 0 3.22 2.57c2.71 1.06 5.64.57 7.48-1.22a6.5 6.5 0 0 0 1.86-4.55c.04-2.78-1.68-6.01-4.79-6.85-3.24-.86-5.86 1.45-6.11 1.67" class="st0"/><path d="M621.91 447.08c-1.65 1.19-1.62 3.77-.6 5.18.36.5.81.8 1.15.98 1.54.73 3.32.41 4.37-.73.84-.92 1.15-2.3.73-3.49a3.5 3.5 0 0 0-1.43-1.76c-1.02-.67-2.84-1.16-4.22-.18" class="st24"/><path d="M610.82 469.2c-2.23 2.03-3.24 5.7-1.66 8.38a6.2 6.2 0 0 0 3.22 2.57c2.71 1.06 5.64.57 7.48-1.22a6.5 6.5 0 0 0 1.86-4.55c.04-2.78-1.68-6.01-4.79-6.85-3.24-.87-5.86 1.44-6.11 1.67" class="st0"/><path d="M612.99 471.19c-1.65 1.19-1.62 3.77-.6 5.18.36.5.81.8 1.15.98 1.54.73 3.32.41 4.37-.73.84-.92 1.15-2.3.73-3.49a3.5 3.5 0 0 0-1.43-1.76c-1.03-.68-2.85-1.17-4.22-.18" class="st24"/><path d="M610.3 399.16s10.54 20.76 12.25 29.59c.2.55.46.81.73.92 1.8.75 5.5-4.48 6.29-5.62a31 31 0 0 1 8.96-8.02c9.68-5.72 19.58-4.33 22.75-3.76.71-1.31.84-2.67.22-3.37-.46-.51-1.29-.71-2.22-.73-3.25-.07-.62-.01-.62-.01s-19.38 2.46-48.35-11.64c-.01.01-1.22.22-.01 2.64" style="fill:#4d4e4e"/><path d="M660.09 408.63s1.56 2.57 1.17 3.21c0 0-15.75-5.5-32.89 12.95 0 0-4.21 6.75-5.11 3.34 0 0-5.8-17.22-7.57-19.69l-4.22-8.75s-1.11-2.69.57-1.89c0 0 .02-.98-.93-1.04l-3.25-4.86-5.72-3.96s16.87 37.12 17.16 46.36l6.31.15s15.7-19.51 42.99-22.01c0 0 32.95-8.74 45.16-17.5 0 0-22.79 10.66-33.09 11.52 0-.02-18.96 2.92-20.58 2.17l1.17 2.91v.73" style="fill:#1f1209"/><path d="M207.35 658.82s.37 12.1 10.78 14.74c0 0 18.12 4.89 24.28-6.06zm41.03 9.56s-6.94 10.86-14.18 9.88c0 0 3.23 7.92 21.91 5.18 0 0 11.44-3.83 12.91-7.24zm25.04 7.04s-4.55 9.32-9.19 8.02c0 0-.1 6.06 16.53 3.52 0 0 8.61-3.13 8.9-6.16-.01 0-16.14-3.42-16.24-5.38" style="fill:#868480"/><path d="M627.23 201.9s10.42-37.41 31.98-49c0 0 15.4-12.18 56.34-8.8 0 0 31.4 5.43 55.9 31.4 0 0 18.93 11.44 19.22 47.09l-2.79 36.53-1.27 11.49s-15.45-26.02-55.16-51.45c-.01 0-42.45-24.89-104.22-17.26" class="st24"/><path d="M638.71 200.83s7.74-46.02 45.59-42.5c0 0 29.64 4.4 28.02 32.57 0 0-.18 17.09-1.26 19.47 0 0-33.15-11.64-72.35-9.54" class="st0"/><path d="M646.65 184.25a28.4 28.4 0 0 0-3.91 14.76s31-2.64 65.14 9.78a23.5 23.5 0 0 0 1.07-13.59s-14.48-13.29-62.3-10.95" class="st24"/><path d="M649.53 180.7s10.05-19.07 28.46-18.34c0 0 17.16.66 27.07 15.55 0 0 2.93 5.79 3.89 11.88v1.54s-22.15-15.18-59.42-8.88c0 .01-.15-.58 0-1.75" style="fill:#62605e"/><path d="M737.89 151.64s22.99 10.21 20.35 41.02c0 0-2.12 25.16-8.07 30.22 0 0-35.97-22.52-39.11-12.51 0 0 23.88 7.87 36.04 19.73l15.85 13.3 14.26 14.76 5.33 6.61s6.36-45.86 2.25-56.56c0 0-3.67-21.12-19.37-36.23.01-.01-18.83-17.79-27.53-20.34" class="st33"/><path d="M762.97 169.7s11.85 23.98 2.17 66.82l22.57 24.11.35-3.9-19.25-20.5c1.63-6.85 2.98-15.1 3.31-24.48a126 126 0 0 0-5.73-42.09q-3.36-3.4-4.01-2.93-.5.34.59 2.97" class="st0"/><path d="M786.12 274.81a8 8 0 0 0-.73 1.98c-.13.59-.17 1.08-.22 1.83-.01.19-.05.74-.06 1.52 0 .96.04 1.68.06 1.85.05.83.06 2.44-.12 5.82l1.14 28.75s2.58 10.95 22.14 10.17c0 0 13.35-1.49 13.89-2.68z" style="fill:#a6772b"/><path d="M601.56 259.07s-1.37-23.67 7.04-27.78c0 0 3.32 21.05-7.04 27.78" style="fill:#a8a499"/><path d="M609.11 254.71s-29.55 30.52-31.61 43.87c0 0 1.76.78 4.69-1.96 0 0-6.65 15.65-.2 45.38 0 0 4.44 20.25 27.11 45.92 0 0 25.61 22.15 70.5 9.68 0 0 38.73-12.47 53.99-30.37 0 0 17.21-19.76 18.39-34.62 0 0 3.13 10.76-5.87 23.86 0 0 12.71-10.28 12.32-28.42 0 0-.5-14.62-3.68-18.14 0 0-7.87-10.37-5.32-23.86 0 0 .78-14.67 10.56-22.3 0 0 15.06-10.76 21.32 6.85 0 0-14.87-31.49-60.44-52.03 0 0-23.28-11.69-45.33-13.45 0 0-14.13-4.11-38.34-.73 0 0 29.34 3.37 31.25 4.99 0 0 38.29 3.38 40.49 5.28 0 0 26.7 15.26 34.18 32.72 0 0 8.07 20.69-7.04 36.53 0 0-4.69 6.35-.73 9.41 0 0 12.18 13.33 2.49 40.62 0 0 7.42 15.11-7.81 26.55 0 0-34.59 25.82-75.38 31.4 0 0-50.17 1.47-68.66-44.01 0 0-9.98-41.03 1.17-54.55 0 0 1.31-15.62 21.93-28.56v-10.06z" style="fill:#2e2d2b"/><path d="M758.05 309.73s7.43 14.87 2.54 31.49c0 0-5.28 10.27-8.7 13.2 0 0-25.71 31.03-35.5 31.49 0 0 48.71-20.73 64.94-44.21l-2.1-39.47s-3.81 7.78-10.71 7.49c-.01.01-10.23.74-10.47.01" style="fill:#3c3c3a"/><path d="M761.67 267.18s-10.86 8.12-9.88 22.3c0 0 0 13.2 6.94 15.65 0 0 14.57 2.84 18.97-8.8 0 0 5.77-7.53 3.03-21.52.01 0-2.44-17.41-19.06-7.63" style="fill:#9f9b98"/><path d="m778.53 280.04-.1.48c-.98-2.82-3.93-4.81-7.25-4.81q-.45 0-.9.05c-3.41.38-6.15 2.91-6.52 6.01l-.22 1.88 2.05-.54q.7-.2 1.41-.19c1.11 0 2.04.36 2.5.96a2 2 0 0 1 .37 1.33l-.01.13.02.13q.4 2.2.05 4.33c-.85 5.05-4.67 8.4-7.11 10.07l-.11-.01c.09-.29.42-.96 1.56-2.18a9 9 0 0 0 3.85-3.97c1.09-2.37.83-5.14.01-6.65a3 3 0 0 0-1.87-1.58 3 3 0 0 0-.71-.09c-1.05 0-1.92.56-2.47.98a4.2 4.2 0 0 0-1.63 2.77 1.7 1.7 0 0 1-1.16-.59c-.43-.54-.21-1.24-.19-1.32l.07-.21-.01-.21a10.6 10.6 0 0 1 1.97-6.76c2.79-3.9 7.42-4.97 9.08-5.24 1.09.16 6.2 1.11 7.32 5.23" class="st0"/><path d="M713.17 217.27s24.39 13.23 21.89 36.85c0 0-2.35 25.82-24.94 31.84 0 0 20.54 7.34 20.98 30.08 0 0 1.17 16.72-11 32.28 0 0-13.64 23.22-43.28 31.12 0 0-21.71 7.9-51.2-1.49 0 0-22.59-11.15-28.61-25.38 0 0-10.86-22.74-10.12-34.18 0 0 .15-20.83 3.08-24.5 0 0 6.6-19.51 20.54-26.7v-2.42h-1.4s-17.47 11.03-20.72 23.74l-1.2 4.81s-3.15 3.9-4 8.92c0 0-3.19 21.03 1.51 39.38 0 0 2.07 18.71 22.96 34.83 0 0 23.96 19.61 54.41 14.2 0 0 34.97-8.56 46.65-17.11 0 0 24.52-13.66 25.39-16.73 0 0 5.88-5.53 5.53-15.2 0 0-.85-6.84-1.78-7.67 0 0 5.43-14.11 3.38-25.56 0 0-1.42-10.01-6.68-15.87 0 0-3.72-4.05 4.46-12.09 0 0 7.87-10.59 6.17-22.91 0 0 .57-11.51-9.11-20.98 0 0-11.39-12.18-14.07-13.01z" class="st39"/><path d="M613.44 270.56c-6.25.9-10.69 7.18-14.52 12.62-1.16 1.64-4.69 6.9-6.9 16.14-3.93 16.45-.34 31.68 2.3 39.95a64 64 0 0 0 7.65 15.33c5.5 8.19 14.35 17.43 27.75 21.64 0 0 33.06 9.43 56.14-3.89 0 0 14.65-4.72 25.91-19 0 0 14.39-18 14.98-30.52 0 0 1.81-17.63-6.94-27.39 0 0-8.02-8.9-14.57-9 0 0-2.59-2.84 2.25-2.69 0 0 8.8.73 15.7-9.83 0 0 9.98-7.9 8.07-24.79 0 0 .73-12.62-4.99-18.05 0 0-7.14-9.19-21.13-13.11 0 0-16.14-2.59-23.91 2.98 0 0-16.14 9.54-26.55.29 0 0-7.34-14.77-22.74-14.21 0 0-10.12 1.74-14.23 15.68 0 0-5.28 18.49-4.99 28.02l-.44 15.26q1.93-.03 3.28 0c1.69.03 2.21.08 2.64.49.53.5.76 1.4.54 2.05-.56 1.64-3.86 1.82-5.3 2.03" style="fill:#adada8"/><path d="M682.25 230.21s-1.46-8.84 12.03-10.12c0 0 15.26-.73 20.98 9.1 0 0 4.11 8.51 3.96 10.56s-3.59-1.47-5.13-3.45c0 0-16.43-15.11-27.95-5.5-.01 0-3.91 1.15-3.89-.59m-59.96-7.24s3.03-14.65 15.84-12.61c1.43.32 3.31.93 5.23 2.16 4.91 3.14 6.61 8.07 7.12 9.76.65 1.77-.26 3.41-1.37 3.67-.76.18-1.65-.26-2.27-1.03 0 0-8.12-9.98-16.33-5.97 0 0-4.99 1.08-6.16 4.79 0 .02-2.06 2.66-2.06-.77" style="fill:#151515"/><path d="M609.04 342.44q-.09.25-.13.7c-.06.73.15 1.26.44 2.05l.73 2.09a69 69 0 0 0 8.47 5.76 71 71 0 0 0 28.92 9.06s8.8.15 11.3-2.79l-7.72-1.06c-4-.09-8.63-.54-13.68-1.71a69.4 69.4 0 0 1-28.33-14.1" style="fill:#28231b"/><path d="M599.99 297.01s8.3 7.63 8.65 23.08c0 0-2.93 3.13-4.32 1.37 0 0-1.73 2.74 1.74 5.72 0 0 8.9 15.01 40.79 20.29 0 0 34.53 4.21 53.7-21.62 0 0 8.51-11.25 8.7-18.09 0 0 5.45 1.27 5.66 11.05 0 0 3.44-1.96 1.48-8.8 0 0-6.26-13.11-18.49-13.01 0 0-3.42 1.08-.49 4.5 0 0 5.18 1.69 4.4 3.92 0 0-11.05 8.4-51.69 4.15 0 0-38.14-2.6-46.36-16.26 0 .01-6.65-1.24-3.77 3.7" class="st0"/><path d="M607.57 302.83s4.11 6.75 4.69 12.32l13.5 6.46s2.2 4.4-5.87 1.17l-6.6-3.96-1.17 7.96s1.61 6.56 32.72 15.07c0 0 24.94 4.55 46.07-13.06a68 68 0 0 1-27.87 1.17q-1.2-.69-1.11-1.11c.08-.39.95-.71 3.75-.65 0 0 29.01 2.56 39.61-18.34 0 0-25.94 9.39-47.16 6.16 0 0-38.59-2.8-49.48-13.8-.01.02-1.47-.76-1.08.61m23.33-39.46s-11.74-1.27-11.25-12.71c0 0 3.91-16.72 9.68-17.21 0 0 11.64-2.45 13.89 5.67 0 0 3.13 6.75 1.17 10.37l-6.55-5.87s1.86 11.83-4.3 8.02c0 0-6.26-4.5-2.35 3.23l3.52 5.09z" class="st43"/><path d="M675.79 262.58a24.4 24.4 0 0 1 3.23-12.85c1.3-2.22 3.8-6.51 9.1-8.68a17 17 0 0 1 9.24-1c1.82.45 6.82 1.95 10.56 6.7 6.04 7.67 3.43 17.04 3.14 18.02 0 0-1.82 10.93-8.27 10.05 0 0 9.24-10.86 2.49-24.79a13.3 13.3 0 0 0-5.28-4.73c-6.23-3.03-12.53.32-13.25.72a19 19 0 0 0-4.32 4.26c-4.14 5.71-3.71 12.12-3.48 14.24-.07.81-.06 1.9.25 3.14a10 10 0 0 0 3.01 4.97l-4.94.44q-.47-1.65-.84-3.59a39 39 0 0 1-.62-6.09v-.81z"/><path d="M680.27 270.96a24 24 0 0 1-1.98-8.29 20 20 0 0 1 1.65-9.98 18 18 0 0 1 3.41-4.95c.85-.86 3.89-3.69 8.78-4.24a15 15 0 0 1 9.71 2.33c1.1.78 2.33 1.85 3.45 3.3 3.76 4.86 3.6 10.49 3.45 12.47a22 22 0 0 1-4.03 11.66 18 18 0 0 1-8.84 3.52c-8.62.95-14.7-4.92-15.6-5.82" class="st43"/><path d="M688.41 254.86s-5.65 7.26-.59 16.21c0 0 2.35 3.59 6.6 4.77 0 0 5.35 1.83 8.95-6.53 0 0 4.25-10.05-1.32-15.11 0 0-7.41-8.44-7.04-.88l.88 4.47s.81 5.35-4.18.66c0 0-.15-4.18-3.3-3.59" class="st44"/><path d="M625.96 281.01a16 16 0 0 0 4.06 3.29c5.49 3.08 11.2 1.82 12.91 1.37 1.18-.3 2.83-.51 4.18.33.67.41.98.91 1.27 1.27 1.34 1.67 3.48 2.06 6.6 2.64 2.8.52 5.71 1.06 9.14-.09a14 14 0 0 0 3.61-1.82l-5.69-1.75s-9.85-3.04-10.74-3.04-11.94-1.76-13.6-2.2-6.85-1.22-6.85-1.22z" style="opacity:.64;fill:#969695"/><path d="M628.48 281.93s-10.76-9.71-1.2-17.73-.42 0-.42 0 11.66.91 14.08 7.08c0 0 6.51 6.23 13.86.82 0 0 13.04-4.34 14.01 5.43 0 0-.44 3.81-.59 4.84 0 0 5.09.23 5.57-1.69 0 0-2.71 6.53-9.61 9.02 0 0-13.74-.66-15.64-4.4 0 0-1.31-2.2-7.69-1.17.03 0-4.38 1.32-12.37-2.2" class="st39"/><path d="M627.23 269.82c-.38.74 4.55 1.86 7.58 8.31 0 0 6.26 1.86 2.05-4.16.01.01-6.45-10.31-9.63-4.15" class="st0"/><path d="M642.64 265.26s19.82.28 20.69 1.57c0 0 6.43-6.78-23.41-2.96z" style="opacity:.63;fill:#878581"/><path d="m635.74 263.37 8.07 6.46s4.99 3.96 9.68 0c0 0 13.94-2.98 18.19 5.04 0 0 4.71 10.22-7.91 14.47 0 0 14.22-1.03 11-14.52 0 0-4.28-10.27-13.88-8.22l-8.71 1.61s-4.91 1.91-10.12-3.3l-3.23-2.93z" style="fill:#171815"/><path d="M652.32 277.82s8.44-3.59 10.56 4.55c0 0 8.44-5.13-3.08-8.29 0 0-7.04.51-7.48 3.74"/><path d="M718.34 302.02s21.18 54.26-67.36 72.65c0 0 88.49-4.81 71.86-72.43 0 0-2.12-8.11-5.85-8.92-.01 0 .89 7.33 1.35 8.7" style="fill:#898783"/><path d="m587.47 537.22 41.47 17.61s-36.97-22.3-41.47-17.61" style="fill:#6f4a1d"/><path d="M596.28 550.13s-2.93 28.56-4.89 32.47c0 0 25.51-18.6 33.49-18.59-.01 0-27.04-11.14-28.6-13.88" class="st24"/><path d="M567.91 615.27s-14.18 10.88-31.49 14.44c0 0 .39 3.56-3.72 1.6 0 0-3.91-6.85-30.91-2.74 0 0-6.65 1.37-16.82-4.89 0 0-22.57-16.04-25.76 15.45 0 0 1.12 17.02 25.18 22.3 0 0 11.35.19 4.89 7.43l-26.41 23.28s-.98 1.37-9.19 1.37l-74.72 2.54 10.76-71.59s.98-16.63-3.91-5.48l-9.39 77.07-93.7-24.84 3.91-44.41-7.24 4.89s-3.52 4.89-5.87-.19c0 0-1.76-5.28-3.13-1.57-.54 2.09-1.25 2.46-1.62 2.54-2.03.42-4.7-5.54-5-6.23-.95.04-2.41-.03-4.03-.62-3-1.11-4.61-3.32-5.19-4.19l-3.69 42.37-80.81-20.56 22.5-172.53.19.02 83.14 9.17s-3.29 3.43-4.36 5.92a4 4 0 0 0-.33 1.32l-3.52 40.3-.78 3.33s3.91 0 6.85-3.72c1.14.63 1.94 1.29 2.45 1.76 1.99 1.84 2.28 3.37 4.21 4.11.73.28 1.34.31 1.69.34a6.7 6.7 0 0 0 4.18-1.31s6.85-4.3 11.93 5.67l5.08-45.38s.68-1.75 1.55-3.6c.99-2.1 2.22-4.33 2.95-4.23l72.46 8.09h.01l21.23 2.37-7.63 65.04-9.59 15.06s1.18 2.15 9.78-10.17l-.98 11.35 2.93-.98 5.28-47.34 4.6-32.96 72.62 13.21s7.19.29 6.16 9.68l-4.84 38.14 8.66-7.19v6.75s.73.88 4.69-2.64c0 0 6.16-3.82 4.99-.15 0 0 10.27-1.91 13.06 5.57l6.16-42.84 61.91 11.15z" class="st50"/><path d="M275.86 479.91s-3.29 3.43-4.36 5.92a1649 1649 0 0 1-73.79-8.66l-14.38 102.11c5.49 4.91 3.01 13.24 2.94 13.49l1.11-1.39c-1.26 1.65-5.81 9.72-5.81 9.72 2.93 9.5-7.92 22.19-7.92 22.19l19.07-152.55zm30.03 3.82-2.79 4.79a1543 1543 0 0 1-28.12-2.36l2.45-5.17zm74.32 8.77c-24.14-.68-49.3-1.93-75.4-3.87.99-2.1 2.22-4.33 2.95-4.23z" style="opacity:.5;fill:#e6c299"/><path d="m485.56 509.35 30.22 5.28-5.33 39.56a23 23 0 0 0-6.99-3.97c-1.21 1.51-3.05 1.77-4.01 1.03-.82-.64-.79-1.86-.78-2.05-.5-.64-.96-.8-1.27-.83-1.97-.21-3.28 4.09-5.53 3.86a2 2 0 0 1-.84-.31c-2.03-1.13-1.96-4.31-1.94-4.73l-7.92 6.16a173 173 0 0 0 4.39-44" style="fill:#ab885e"/><path d="M425.12 689.21s19.17-.44 28.17-7.36c0 0 8.8-10.83 8.41-14.94 0 0 1.96-4.89-5.09-9.39 0 0-12.52-13.89-2.74-31.1 0 0 9.58-21.52 31.88-8.02 0 0 16.43 14.28 46.95-21.91l44.49-69.44 2.07-.49-11.35 88.71s-13.63 10.78-31.49 14.44c0 0 .21 4.55-5.98-.15 0 0-5.88-3.87-25.12-1.48 0 0-10.54 2.79-20.34-4.4 0 0-13.99-12.51-22.61 3.1 0 0-7.56 9.02.79 22.07 0 0 6.42 10.63 23.93 12.9 0 0 8.56 1.51 1.36 7.85l-25.03 22.07-38.98 2.84c-.01 0-9.99.77.68-5.3" style="opacity:.69;fill:#956e46"/><path d="M398.51 564.01s-1.91-11.7 3.67 0l.88 20.35s7.34 2.79 8.07 6.6q-.33 5.16-.51 10.56-.24 7.1-.22 13.79c-1.29 1.27-1.78 1.43-1.97 1.3-.21-.14-.09-.63.03-1.45.16-1.12.19-2.09.18-2.82a39 39 0 0 1-.3-9.5s-.73 1.32-.88-4.25c0 0 2.09-8.36-2.4-9.39 0 0-6.55-.64-6.25-5.82l.44-5.77s-1.27-4.11-6.21-1.47l2.93-.98.21-1.92s2.48 1.38 2.67-1.46c0 .02.54-6.36-.34-7.77" style="fill:#583a20"/><path d="m383.11 579.09 10.91-14.28-5.45 41.57s-1.93 2.64-2.23-5.87c0-.01-.3-19.37-3.23-21.42" style="fill:#e1c6a1"/><path d="m385.8 618.99-1.81-23.03s3.19-1.97 5.19 19.85l-3.45 3.79" style="opacity:.72;fill:#1b130d"/><path d="m296.79 627.99-3.91 33.45 74.33 17.9 4.21-35.8z" class="st57"/><path d="m299.34 631.7-3.33 27.88 69.05 15.84 2.84-28.75z" style="fill:#cfa472"/><path d="m299.53 655.37 1.57-16.92 8.16.83-.29 2.79-5.08-.34-.3 4.35h4.4l-.39 3.47-4.15-.34-.54 5.97-.1.93h-3.57zm8.68 2.35 1.54-17.35c3.4-.82 6.6.04 7.96 1.98a7 7 0 0 1 1.06 2.75 6 6 0 0 1-2.13 5.5v7.59h-2.68l-.26-6.88a1 1 0 0 0-.4-.49c-.36-.26-.93-.36-1.37-.07-.32.21-.43.53-.47.66l-.24 6.09z" class="st0"/><path d="M311.97 643.36c-.23.07-.32 4.27-.32 4.27s5.01 1.68 4.62-1.44c0 0 .32-4.27-4.3-2.83" class="st50"/><path d="m324.42 642.43-6.82 16.76 4.11.81.44-3.15 3.01.15v5.06h3.15l-.72-19.41z" class="st0"/><path d="m324.21 649.11-2.21 4.58 3.05.36v-5.79z" class="st50"/><path d="M336.55 650.92s3.67 1.96 3.52-.58c0 0-.93-8.26-6.65-5.48 0 0-4.16 1.64-3.86 11.25 0 0 0 9.98 8.22 5.94 0 0 1.98-.39 1.47-8.48l-4.43-.24v3.08h1.42s.27 2.59-.12 3.62c0 0-4.84 1.76-3.52-3.91 0 0-.24-6.16.98-6.6-.01-.01 3.12-3.55 2.97 1.4m5.41-4.72-1.88 18.34 3.71.44 1.54-18.78zm5.2.88c0 .29-1.47 17.9-1.47 17.9l6.9 1.03v-3.23l-3.74-.73 1.61-14.96zm8.42 1.36-1.47 18.87 9.09.78v-3.11l-5.96-.61.1-4.01 5.38.1.48-3.91h-5.08l.54-2.99 6.01.1v-4.53z" class="st0"/><path d="M176.4 589.94s8.8 4.01 6.46 22.1c0 0 10.37-12.23-6.94-25.53z" style="fill:#3a2411"/><path d="M202.07 492.67c.29.44 53.99 6.6 53.99 6.6l-5.13 47.83-53.55-7.04z" class="st61"/><path d="m203.68 496.2 49.74 5.13-3.96 43.43-50.32-6.61z" class="st62"/><path d="m207.35 501.92 41.37 4.69s1.76 3.37-.88 3.37l-40.49-4.84s-.83-3.32 0-3.22m-.37 7.04s36.61 4.4 37.64 4.99c0 0-.88 2.2-9.1 1.03 0 0-27.88-2.79-28.54-2.05 0-.01-1.99-3.38 0-3.97m-.88 8.36s-.88 3.28.88 3.81c.96.29 39.4 3.52 39.4 3.52s-5.72-2.49-9.1-2.79c0 .01-28.04-4.25-31.18-4.54m-.22 6.75.22 2.93s18.27 2.2 20.03 1.91 1.18-1.91-7.19-3.23c0 0-11.89-2.34-13.06-1.61m0 6.45v3.08l23.04 1.61s-3.66-3.67-13.35-3.81c0 .01-8.67-1.76-9.69-.88" class="st61"/><path d="m180.31 623.59 2.64-9.68s4.11-.1 4.99-2.35 0-.49 0-.49-.49 3.91.88 12.52c0 0 5.67 7.63 6.65 1.96 0 0 .49-2.45-1.66-4.4 0 0-3.23-1.66-2.84-9.98l-.39-5.48s-1.86-2.45-3.42 1.08c0 0 .23 6.6-1.98.84 0 0-1.44 3.76-2.32 4.44 0 0 1.08-7.24-2.54-.78-.01-.01-2.36 6.06-.01 12.32" class="st63"/><path d="M194.39 620.55s5.97-4.4 8.41-4.3 2.54-6.85-1.66-4.6c0 0-8.41 4.49-9 5.18-.59.7 0-.59 0-.59l-1.86 3.03 2.25 3.23zm5.04 1.96s-3.23 6.46 4.25 13.35c0 0 5.16 1.37.82-4.16 0 0-1.99-6.11-1.26-9.19 0 0-2.49-3.08-3.81 0m236.44 35.69h-9.78s-7.43-8.3.88-11.33c0 0 8.51-4.62 9.29 11.33m-40.83 16.25s-2.14 3.08.98 5.72c0 0 2.83 1.81 2.54-4.74 0-.01-.58-5.09-3.52-.98m17.31-4.85s-4.03 11.88 7.45 8.07c0 0 1.06-2.91 2.09-3.66 0 0 2.64-1.9 3.67-1.17 0 0 2.35-9.4-3.52-3.97 0 0-4.25 5.48-4.11 6.55l-.15-1.08s-3.37 1.27-2.49-3.42c0 0-1.32-3.81-2.94-1.32m-8.36-1.51s-2.79 11.95-.88 12.31c0 0 2.64 3.44 4.25-10.79.01-.01-2.54-5.58-3.37-1.52m17.8-33.35s1.56 3.03 1.66 7.34c0 0 4.21 1.96 4.4-5.57.01-.01-4.4-6.66-6.06-1.77m-3.52-17.31 4.38 4.89s2.37.04 1.1-5.65c0 0-1.57-4.54-2.55-.8 0-.01-3.41 1.02-2.93 1.56" class="st63"/><path d="M342.7 616.25s-8.74 8.22-.63 6.06l8.31-5.65s2.74-1.46 2.2 2.93c0 0 5.62.46 6.8-5.21 0 0 3.81-2.34 3.23 3.33 0 0 1.08 6.62 4.5.57v-1.63s1.08-3.15-.78-3.64l.1-8.51s4.3-.2 3.13-4.69c0 0 2.05-2.25 3.91-2.25 0 0 2.35-3.33-4.99-3.33 0 0-5.09.98-6.16 3.33 0 0-1.86 6.75-8.22 3.33 0 0-1.47 1.08-1.52 1.76 0 0-3.42-.98-3.45.59.02 0-2.38 11.84-6.43 13.01" style="fill:#ad895d"/><path d="M355.53 589.65s-1.91 4.69-2.93 7.78c0 0-.29 3.81 5.13 0 0-.01 2.64-9.98-2.2-7.78" style="opacity:.43;fill:#1b130d"/><path d="m393.04 576.15-4.47 30.22.33 6.56 5.82-22.69s-.95 15.42-3.08 21.13c0 0 10.89-18.83 10.44-22.03 0 0-4.11-3.11-3.28-5.94l.32-4.21s.36-3.22-1.57-3.56c0 0-1.88-.94-4.3.46-2.42 1.38-.21.06-.21.06" style="fill:#89663d"/><path d="m252.59 663.01 3.72-37.47s4.99 4.6 6.65 2.45c0 0 4.68 10.55 8.69 5.17 0 0 2.05 7.04 9.39 0l3.42-2.54-3.72 40z" style="fill:#d1b07a"/><path d="m305.89 483.73-2.79 4.79-.29.5-.34.59s-5.48 35.99-4.89 44.01a15 15 0 0 0-3.62-3.39c-1.75-1.16-3.79-2.52-5.94-2.1-2.52.5-2.41 2.88-4.72 3.21-2.37.33-5.54-1.75-6.65-4.27-.35-.79-.34-1.27-.82-1.57-1.28-.79-3.9 1.1-6.02 2.94l4.89-41.66.24-.51.04-.1 2.45-5.17z" style="fill:#d1b17f"/><path d="m232.15 301.81 200.99 7.63s-22.59 179.86-24.65 179.57-198.94-22.89-198.94-22.89z" class="st69"/><path d="m240.21 314.57-5.72 54.58 53.4 3.52 6.02-56.34z" class="st61"/><path d="m242.41 317.94-5.13 48.86 47.68 2.64 6.46-50.62z" class="st62"/><path d="m246.23 322.35-.88 13.64 16.14.59v-13.5zm16.87 3.87s-.29 1.99 1.91 1.99h17.31s3.81-1.89-4.69-1.99c-.01 0-14.55-.6-14.53 0" class="st0"/><path d="m214.83 466.73 22.45-158.18 195.21 6.02.65-5.14-200.99-7.62-22.6 164.31z" style="opacity:.56;fill:#e8c79d"/><path d="m216.41 458.2 194.43 18.84-2.35 11.97-193.66-22.28z" class="st71"/><path d="m323.98 465.53 3.38-31.25 75.85 7.05-3.52 33.01-75.71-7.61z" class="st57"/><path d="m329.44 437.51-2.91 26.95 70.71 7.63 3.23-28.37z" class="st69"/><path d="m330.05 460.06 1.37-17.61h8.41v4.11l-5.38-.29-.2 3.61 4.11.4-.19 4.03-4.5-.51-.2 6.26zm9.78.48 1.17-17.21s8.51-.1 8.7 3.42c0 0 .88 6.31-2.15 7.56l.59 6.24h-3.31l-.79-5.77s-1.47-.78-1.37.39l.68 5.77z" class="st0"/><path d="m343.84 447.04-.49 4.42s3.57.81 3.32-2.21c.01 0-.22-3.39-2.83-2.21" class="st69"/><path d="m354.45 444.8-5.18 16.09 3.91.05v-3.11l3.08.37v3.59H360l-1.64-16.41c-.11-.15-.68-.93-1.76-1.12a2.8 2.8 0 0 0-2.15.54" class="st0"/><path d="m355.45 449.84-1.9 5.86 3.52.52-.96-7.05z" class="st69"/><path d="M371.76 451.25s.93-8.41-7.14-5.53c0 0-4.74 1.86-3.37 13.11 0 0 4.06 9.78 9.63.98 0 0 2.69-8.51-4.89-5.77 0 0-1.52 1.17-.39 3.57 0 0 3.18-1.27 2.89.78 0 0-4.69 4.35-4.99-2.79 0 0-.54-5.77 3.18-5.97 0 0 1.56-.68 1.81 1.81 0 .01 2.54 1.52 3.27-.19m1.57-4.84-1.13 17.31h3.08l1.52-17.31zm5.03.78-.92 17.12 7.09.49v-4.11l-3.96.05.88-14.33-3.18-.24zm8.32.64-.49 17.41 8.36.51v-3.3l-4.77-.66-.07-3.3 5.21-.29v-3.13l-4.84-.3-.08-3.54 6.09-.07v-3.31z" class="st0"/><path d="M416.56 355.79s.44 13.06-6.16 23.33c0 0 1.76 8.8 0 14.52 0 0 .29 12.91-5.43 14.23 0 0 9.39-2.79 10.56-16.14 0 0-2.78-12.62 1.03-15.99 0 .01 4.69-18.62 0-19.95" style="opacity:.9;fill:#1b130d"/><path d="M244.54 470.72s-1.54-12.23-5.21-11.71c0 0 7.19-5.87 9.39 13.2zm-17.46-33.43s-1.91 6.31 0 11.15c0 0 5.57 1.61 6.31 8.36 0 0 4.62 3.59 5.43 0 0 0-3.52-1.98-4.55-8.14 0 0-2.71-3.81-4.47-2.64 0 0-1.47-8.36.59-8.73-.01 0-2.13-2.49-3.31 0m-13.71-15.77 10.76 9.58s3.72.98.78-3.52l-10.56-8.61zm97.7-119.13s-5.43 12.91-6.9 44.45c0 0 0 1.91 6.9-2.64 0 0 7.19-6.16 6.75-2.79 0 0-1.17 4.99 3.52 3.52 0 0 7.04-1.91 8.07 1.32 0 0 4.25 5.72 7.48 5.13 0 0 1.86-39.94 6.87-45.35l-3.65-1.6s-3.67 9.93-4.69 20.44l-.88 19.76s-.59 2.05-3.67-1.76c0 0-3.08-3.37-6.02-1.17 0 0-2.64 2.45-4.6-2.05 0 0-2.35-4.21-7.73.39l-4.5 3.57s-.49-.64.1-4.94c0 0 3.33-33.55 5.57-35.11z" class="st0"/><path d="m435.63 310.17-23.82 180.07 148.38 26.05 23.32-161.52z" class="st69"/><path d="m411.81 490.24 1.37-10.36 148.3 27.45-1.29 8.96-83.54-14.67z" class="st71"/><path d="M476.65 501.62s6.17-32.96 6.37-36.82c0 0 .29-7.41 3.63-4.11l5.25 3.52s3.45 1.83 1.69-2.13c0 0 2.71-2.64 5.43 2.27 0 0 1.1 5.5 7.56 1.91 0 0 3.08.07 1.54 2.71l4.91-.95-4.81 39.14-4.14-.92 4.77-34.18s-7.38 1.76-10.37-2.42c0 0-3.04-7.19-3.64-2.49 0 0 .95 3.08-9.03-3.37 0 0-3.52 25.97-6.38 38.73zm24.04-171.83-6.18 43.81s1.32 4.79 5.77-2.35c0 0 5.77-5.28 5.33 1.17 0 0-1.52 6.31 1.27 4.4 0 0-.44 7.63 5.72.1l4.16-3.96s.83-1.76 1.61 1.08l5.04 12.08s1.76 1.56 2.15-8.02l4.87-39.34-3.26-.98-4.44 38.46-3.33-5.97s-1.47-1.27-3.52-.1l-5.77 4.69s-1.66.98-1.47-3.72c0 0-.78-2.84-1.47-1.86l-.68-3.42s-1.37-2.25-2.93-.68l-3.62 2.74s-2.15 2.64-1.17-4.01l5.08-33.17z" class="st0"/><path d="m540.23 444.26-10.86 10.42s-2.64.59-3.37 4.25 0 .91 0 .91-1.76 7.01 3.08 10.09c0 0 5.13-.77 5.72 4.09 0 0 5.82 13.81 7.09 14.1 0 0 4.72-2.35 3.88-5.57 0 0 .33-4.84 3.85-3.81l1.32-12.54s7.43 5.94 10.54 3.15c0 0 2.08-9.36 1.05-12.75 0 0-9.39-.16-8.95-5.59l1.61-11.3s-2.93-4.55-5.43.59l-1.17 5.28s-3.08 7.78-5.57 2.05c0 0-1.67-4.44-2.79-3.37" class="st73"/><path d="M560.19 442.06s-4.69 2.84-1.17 6.36c0 0 5.09 2.74 6.85-2.64-.01 0-.08-5.69-5.68-3.72" class="st73"/><path d="m544.25 489.23-1.14 14.01 3.74 1.38-1.08-13.19z" style="fill:#7c5631"/><path d="M551.97 495.02s-1.32-15.7 1.61-18.78c0 0 3.23-.64 2.79 3.64 0 0-2.2 18.08-4.4 15.14" class="st73"/><path d="M556.41 447.93s-3.82 4.85 1.29 7.85c0 0 8.5 1.66 10.7-2.14 0 0 3.81-12.65.73-15.78 0 0-7.34-2-9.1 0 0 0-2.55 2.16 3.84 4.15 0 0 5.55 3.9-.32 7.11 0 0-5.86.44-5.86-1.48z" style="opacity:.39;fill:#b0926f"/><path d="m456.46 404.5 4.84 36.39 90.37-16-4.25-36.97z" class="st0"/><path d="m460.46 407.29 3.48 29.67 84.07-14.83-3.03-28.78z" class="st69"/><path d="m464.68 411.18 2.05 20.02h3.67v-8.8h4.4v-3.37l-5.72-.74-.44-3.89h4.99l-.15-4.62zm11.97-2.42.65 20.28h5.28l-1.76-7.37s2.05-2.79 2.64 1.17l3.19 5.28 3.27-.82-4.25-6.81a4.4 4.4 0 0 1 .99-3.37s3.65-6.46-3.36-8.36c-.02 0-6.69-1.16-6.65 0" class="st0"/><path d="M479.5 411.1s-1.03 7.02 1.47 6.35c0 0 3.52.24 3.52-2.96-.01 0-.15-5.32-4.99-3.39" class="st69"/><path d="m492.41 406.16-1.66 19.95h3.23l.54-4.01 3.15-.29 1.98 3.72 4.01-.88-7.24-18.49s-3.89-1.48-4.01 0" class="st0"/><path d="M493.97 412.03v7.04h4.21l-3.67-7.04s-.32-.27-.54 0" class="st69"/><path d="M510.5 409.78s-2.64-5.77-5.09-.39c0 0-.78 6.07 1.37 9.25 0 0 2.74 3.58 4.99 0 0 0 .45-3.55-3.25-2.83 0 0-.88-2.18.86-2.55a3 3 0 0 1 .92-.03c2.93.27 4.14.04 4.03 3.18 0 0 .18 7.06-3.15 7.06 0 0-7.63 3.57-8.8-7.38 0 0-1.47-12.67 4.25-12.23 0 0 6.53-1.54 7.63 4.37l.07.42c0 .01-2.36 2.8-3.83 1.13m4.72-7.77 1.39 20.1 5.14-.74-2.42-19.36zm6.09-.6 2.2 18.72 8.8-.66-.59-3.98-4.91.93-1.83-15.01zm10.41-1.85 2.13 19.49 9.76-.56.05-4.09h-6.26l.05-3.63 4.69-.57.44-4.23-5.62.11-.02-2.61 5.28-.72.31-3.77h-10.22zm-286.37-58.29 36.82 2.35s1.32 2.2-1.17 2.2l-34.77-2.13s-3.67-1.39-.88-2.42m-.68 6.67 36.44 1.31s3.61 2.51-1.82 2.15l-32.86-1.07s-4.25-.6-1.76-2.39m.91 7.65 16.86.59s1.92 2.2-1.6 1.91l-13.5.03c0-.01-2.79.11-1.76-2.53m.25 5.24 17.61 1.03s1.54 2.93-1.39 2.64l-13.94-.88s-4.27-.44-2.28-2.79" class="st0"/><path d="m274.69 296.23 19.22-134.09 168.57-5.58-20.54 147.87z" class="st76"/><path d="m274.69 296.23 19.22-134.09 168.57-5.58-.42 3-163.02 7.86-18.48 128.81z" style="opacity:.76;fill:#efd2ad"/><path d="m355.97 158.33-5.87 43.72s.15 1.91 2.93-1.76l6.16-4.99s2.2-1.47 2.64 1.61l1.47 5.63s.44 3.03 3.96-2.7l2.93-3.96s.88-1.76 3.08.44l5.57 6.31s2.49 2.64 2.79-5.72c0 0 3.96-35.65 6.31-39.17h-4.25l-4.55 38.88s-1.17 2.64-3.81-2.79c0 0-3.96-4.69-6.75-1.17l-2.64 2.93s-.88 4.4-2.64-1.61c0 0 .73-6.16-5.28-2.93l-4.11 3.81 5.57-36.53z" class="st0"/><path d="M294.25 204.98s9.78 36.87 21.91 45.97c0 0-18.49-44.11-21.91-45.97m1.27 28.75s1.76 10.07 6.16 15.26c0 0-3.62-11.25-3.91-15.75 0 0-2.53-.91-2.25.49" style="fill:#a98151"/><path d="m380.91 253.39-3.38 38.15 55.61 2.64 4.1-39.47z" class="st0"/><path d="m382.96 256.33-2.93 33.15 50.61 2.2 3.82-33.59z" class="st62"/><path d="M387.07 261.02v3.23l26.11.59s-1.03-3.81-5.8-3.08zm-.88 7.04v3.23h40.49s-.44-2.49-5.57-2.49l-34.04-.73zm0 5.72v4.01l41.08 1.12s.44-2.93-3.96-2.57zm-1.03 7.49v2.64l23.47.59s1.03-2.79-6.9-3.23z" class="st0"/><path d="m464.43 156.56-19.17 148.86 112.28 34.43 18.78-132.81z" class="st76"/><path d="m514.33 176.84-5.88 43.24s22.69 6.13 24.84 11.21a106 106 0 0 0 3.99-24.85 30 30 0 0 0 1.66-8.86c.17-5.11-1-9.2-1.93-11.67l-1.17 8.22s-3.91 22.89-3.91 30.32c0 0-18.17-8.27-19.45-7.17l5.56-41.54z" class="st0"/><path d="m458 309.33 63.31 1.77s7.87 5.38 20-21.76l34.35-77.59-18.11 128.11z" style="opacity:.5;fill:#906c47"/><path d="m494.07 322.05 5.67-34.04s1.56-5.18 3.33-.88l3.33 6.12s2.74 3.95 5.09-1.04c0 0 2.35-1.27 4.5 3.62 0 0 1.47 3.91 5.57-1.66 0 0 4.99-5.18 4.5.29l-5.28 35.32-3.81-1.38 4.79-27.87s1.08-5.48-1.17-1.56c0 0-3.98 3.91-6.24 0 0 0-2.95-2.45-6.18-.59 0 0-4.11-.98-5.09-6.16 0 0-.98-2.25-1.56 2.74l-4.89 29.44z" class="st0"/><path d="M759.22 901.26s22.05-17.25 23.28-37.75c0 0 12.52 11.35 11.93 20.93 0 0-9.98 51.25-9.98 55.94 0 0-3.33 20.34-23.86 20.15s-1.37 0-1.37 0-65.73 1.76-73.55-9.39c0 0 2.74-26.21 29.73-26.02 0 0 42.58-3.97 52.23 12.52 0 0-10.95-10.76-7.43-10.17 0 0 5.87-2.54 5.09-7.82 0 0 .98-12.25-1.37-13.85z" style="fill:#40403e"/><path d="M685.67 951.14a13.3 13.3 0 0 0 6.43 3.99c.39-2.67 1.7-6.6 4.07-11.04 2.99-5.59 7.89-11.34 15.52-11.92a342 342 0 0 1 34.42 1.95s6.84-1.24-3.91-5.28a24 24 0 0 0-7.23-3.41c-3.66-1.01-6.12-.71-14.94-.44-8.71.27-7.79.02-9.24.23-3.55.51-9.13 2.01-15.55 6.97 0 0-9.18 8.19-9.57 18.95" style="fill:#9b9691"/><path d="M692.1 955.13s3.74-25.95 24.87-22.99l26.25 1.2s5.02 1.22 4.76-.76c0 0-.22-3.35-13.32-6.08 0 0 2.19-2.02 5.7-1.06 3.04.91 7.43 2.52 12.25 5.38 5.21 3.09 14.67 8.71 14.15 15.25-.22 2.8-2.18 4.71-4.18 6.6-7.36 6.98-17.37 7.48-21.71 7.41q-7.24.21-15.29-.19a191 191 0 0 1-33.48-4.76" style="fill:#555554"/><path d="M781.62 871.72s9.74 25.38 9.42 30.44l3.41-18.31s-6.42-17.91-12.03-19.31l-.8 7.68" style="fill:#706d6c"/><path d="M708.75 920.23c.85 1.09 3.23.45 5.55-.05 0 0 1.14-.24 10.6-1.36 6.19-.73 11.16.11 14.19.62 1.3.22 7.28 1.23 11.52 2.79.73.27 2.27.67 5.35 1.47a7 7 0 0 0 2.5.34 6.7 6.7 0 0 0 3.7-1.56c.09-.25.18-.63.15-1.08-.08-1.36-1.19-2.37-2.42-3.23-2.41-1.68-4.93-2.51-7.97-3.35-1.56-.43-3.7-.99-6.29-1.55 0 0-11.79-2.43-28.68.11-3.33.5-6.77 1.39-8.04 4-.08.19-.89 1.91-.16 2.85" style="fill:#f5e197"/><path d="M749.64 903.41s-9.78 1.96-7.92 5.09c0 0 11.25 3.52 19.85 3.13 0 0 3.81-6.75-4.79-8.22z" style="fill:#ecd696"/><path d="M682.1 956.93v13.57s2.24 5.57 10 6.75c0 0 18.46 7.92 68.35 3.23 0 0 23.47-1.03 29.19-16.43 0 0 6.6-15.26 5.87-35.21l.98-9c.06 3.95 2.13 6.74 3.83 6.83 1.81.09 4.43-2.83 4.43-7.37l1.17-23.18a18 18 0 0 0-.95-5.34c-.99-2.94-3.14-6.76-4.85-6.54-.41.05-.85.35-.88.37-.68.48-.93 1.21-1.17 2.05-.26.92-.56 2.13-.81 3.59-.75 3.96-1.61 8-2.49 12.13-1.36 6.37-2.93 13.34-3.81 15.75 0 0-4.25 28.74-6.46 31.38a30 30 0 0 1-12.47 12.86 30 30 0 0 1-16.58 3.42 281 281 0 0 1-56.88-3.12 248 248 0 0 1-16.47-5.74" class="st1"/><path d="M689.44 716.19s-.98 28.56 28.17 31.49c0 0-24.06-7.04-26.21-32.28z" class="st0"/><path d="M559.73 627.91c-7.65 4.55-11.48 6.82-13.64 7.48-1.32.4-3.86 1.09-3.89 2.13-.02.83 1.57 1.65 2.86 1.98 2.86.73 4.99-.79 10.45-3.09 4-1.68 3.56-1.17 6.16-2.34a45 45 0 0 0 11.16-7.27 3170 3170 0 0 0 38.8-30.63 109 109 0 0 1 27.62-14.66 110 110 0 0 1 42-6.21l19.19 1.15c.11-.85.17-2.2-.36-3.68-.75-2.08-2.28-3.32-3.57-4.22-4.48-3.11-9.48-4.55-11.42-5.09-6.46-1.78-9.7-2.67-13.32-2.58a30 30 0 0 0-12.55 3.13 163 163 0 0 0-47.97 22.49 147 147 0 0 0-30.02 26.6 532 532 0 0 1-9.73 6.93c-5.96 4.12-8.94 6.19-11.77 7.88" class="st86"/><path d="m659.21 564.01 26.7-39.35 4.53-1.79-20.83 37.73z" class="st86"/><path d="M785.7 588.67s8.65 20.03 5.01 24.12l-28.22 26.63s-.46-3.41 2.28-5.92l9.79-9.56-15.48 7.51s-6.14 29.13-24.12 41.87c0 0 .23-1.59 2.28-3.64 0 0-8.88 9.79-6.6 1.59l3.87-7.74s2.21-5.69-4.24-.46c0 0-34.22 34.59-74.73 38.92L626.41 707s83.52-19.12 114.93-56.89c0 0 3.19 5.92-3.87 15.7 0 0 11.38-10.24 21.85-37.32l26.85-22.76c-.01.01-1.88-20.54-.47-17.06" style="fill:#5a5856"/><path d="m786.61 270.61 26.49 36.96a7.4 7.4 0 0 1 1.91 4.4c.25 5.02-5.89 10.56-15.55 12.98a41.5 41.5 0 0 0 17.39 1.17c4.1-.63 5.8-1.61 6.9-3.01 2.52-3.21 1.18-7.81.91-8.7l-15.73-22.89-16.43-20.93-4.98-8.03z" style="opacity:.93;fill:#fdd71e"/><path d="M694.28 499.72a121 121 0 0 1 16.91.7 133 133 0 0 1 14.59-36.88s9.98-17.21 14.87-19.37a108 108 0 0 0-10.27 7.36c-4.96 4.02-8.24 6.72-11.27 11.2a38 38 0 0 0-4.67 9.74q-.64 1.46-1.39 2.97a70 70 0 0 1-4.93 8.39z" style="fill:#f8d856"/><path d="m776.76 346.27-2.39-38.36a17 17 0 0 0 4.86-5.66l3.48 40.22z" style="opacity:.56;fill:#adada9"/><path d="M622.29 258.38s-3.86-17.9 8.46-23.62c0 0 8.8-2.72 11.15 5.61 0 0 1.61 1.59 1.47 5.99 0 0-3.67-7.42-9.1-5.99 0 0-1.17 2.18 1.17 5.99 0 0 1.47 8.5-3.96-1.18 0 0-5.28-1.17-4.25 6.75 0 0-.73 6.25 4.25 8.7 0 0-2.05 2.79-1.17 3.57 0 0 13.79-.1 16.43-15.94 0 0 1.61-13.99-7.48-16.97 0 0-10.76-4.16-16.97 6.11 0 0-10.32 17.11.98 23.23 0 0-1.66-1.08-.98-2.25" class="st44"/><path d="M626.01 280.78s-10.37-9.78-.49-16.58c0 0 4.3-.64 1.71 3.67 0 0-5.82 5.18.83 11.64 0 0 0 2.73-2.05 1.27" style="fill:#020202"/><path d="m305.89 483.73-2.79 4.78-.29.5-27.88-2.76.05-.1 2.45-5.17z" style="fill:#d8c5ab"/><path d="M252.59 663.01v1.3l28.05 6.9.56-5.57-28.2-6.82z" style="opacity:.89;fill:#d8c5ab"/><path d="M636.95 206.35c1.46.21 3.6.66 5.96 1.76 3.4 1.59 5.48 3.69 7.38 5.63a37 37 0 0 1 4.55 5.63 18 18 0 0 0 5.97 3.41c4.74 1.59 8.92.74 11.25.24 2.91-.63 3.52-1.27 7.97-3.03 1.45-.57 7.27-2.87 11.93-3.78 3.4-.67 9.03-1.16 16.58.99a87 87 0 0 0-14.96-7.57c-23.31-9.07-45.22-5.89-56.63-3.28" style="fill:#5d5e59"/><path d="M705.34 138.23s16.52-24.14 30.49 9.32c.01-.01-23.5-10.17-30.49-9.32" class="st0"/><path d="M715.13 134.14s-.05 2.56 9.08 5.51c0 0 4.83-.86-1.14-3.62 0-.01-7.47-4.1-7.94-1.89" class="st33"/></svg>