<svg xmlns="http://www.w3.org/2000/svg" xml:space="preserve" id="Layer_1" x="0" y="0" viewBox="0 0 1080 1080"><style>.st0{fill:#1b130d}.st1{fill:#eca920}.st9{fill:#d39229}.st10{fill:#2f1e0f}.st24{fill:#f7cb11}.st26{fill:#d69629}.st33{fill:#df9826}.st39{fill:#60625e}.st43{fill:#fff}.st44{fill:#0a0907}.st50{fill:#cea571}.st57{fill:#684923}.st61{fill:#3b2a17}.st62{fill:#f0f0ee}.st63{opacity:.47;fill:#89683c}.st69{fill:#cda573}.st71{fill:#b1885d}.st73{fill:#8d6a47}.st76{fill:#cea674}.st86{opacity:.63;fill:#9f9e9f}</style><path d="M866 490.3a184 184 0 0 1-10 47.5 403 403 0 0 0-15.9 31.7l-16.7 26.4-16 18.2c-7.1 7.6-13.7 4-13.7 4l-33.5 36.1c-.8 27.6-13.7 33.5-13.7 33.5l-1.8 19.7c.6.8 4.1 12.7 4.1 12.7 4.4 14.9-5.2 42.5-5.2 42.5l.7 35c6.6.8 8.8 11.8 8.8 11.8 1 9.1 11.9 10.6 11.9 10.6 21.4 8 20.2 35.8 20.2 35.8 4.4 2.6 16.5 22 16.5 22 13.5 10.4 12.3 22 12.3 22 3 30-12.3 35.6-12.3 35.6V951c-3 38.8-37.9 37-37.9 37-24 5.9-67-2-67-2-18.5-2.5-20.7-12-20.7-12l-.7-17.2c2-26.4 24.2-36 24.2-36 3.8-9.2 0-10.8 0-10.8-22-1.8-24-22.8-24-22.8L651.5 873c-9-2.9-19-16.7-19-16.7L617 832a271 271 0 0 0-35.6-48.6c-8.7-9-19.4 2-19.4 2L519.6 811c1.1 8.8-3.6 9.1-3.6 9.1-3.2 3-1.7 5.5-1.7 5.5 3.5 2.3 2.3 23.1 2.3 23.1s4.3-4.5.8 0c-3.6 4.6-3 6.5-3 6.5l3.5 4.4c5.3 17-4 28.5-4 28.5-6 2-4.5 5.2-4.5 5.2.3 2 3.3 7 3.3 7 1.7 3.9 5 31.2 5 31.2 4 20-6 24-6 24-9 9.4-46.6 6.5-46.6 6.5-6.7-3.8-14.7-.6-14.7-.6-2.6.3-39 9.1-39 9.1-43.1 5.6-76.3-8.2-76.3-8.2-14-1.8-11.1-20.3-11.1-20.3-.2-8.8 5.8-10.5 5.8-10.5-.2-22 16.5-29 16.5-29 8.5-6.8 37.8-8 37.8-8l13.5-8c7.7-2.8 3.3-4 3.3-4l-5.3-7.6c-6.2-14.1.6-25.9.6-25.9 4-3.5 2.9-7.3 2.9-7.3l-6.5-19c-7.9-26.8-1.1-46.7-1.1-46.7 2-13.8 43.8-63.3 43.8-63.3-5.5-2.4-6.5-11.4-6.5-11.4l-53.2 1-79-19.7c-15 19.7-38.1 7.8-38.1 7.8-25 3.3-30.2-8.8-30.2-8.8-28.3 1.6-28.3-24.3-28.3-24.3l-28-7.2c-10.6-1.6-7.2-10.4-7.2-10.4L184 475.2c.2-11 5.9-11.5 5.9-11.5l14.3 1.7 20.5-163.1c-.4-9.4 9.2-7.8 9.2-7.8l30.1 1c6.3.1 5-1.4 5-1.4l16.3-130.8c-.1-10.4 13.6-8.8 13.6-8.8l156.1-5.4c7.5-1.6 14.1 2 14.1 2L578 198.2c8.2 3.4 3.5 17 3.5 17L570.8 299l.5-1.9-5 45.3 11.2 4.5s-10.5-47.8 7.1-71.2l3.6-6.2 5.9-7.1c2.7-2.2 2.6-4.5 2.6-4.5l.2-17.8c1.5-11.7 13.5-15 13.5-15l5-9.8c7.3-10.4 6.9-15 6.9-15 4.9-25.3 21.3-43.3 21.3-43.3 15.9-20.2 56.4-19.2 56.4-19.2 29.3-1 61.4 21.9 61.4 21.9 19.7 9.8 31.7 40.5 31.7 40.5 6.4 16.8.7 47.3.7 47.3-3 9-2 14-2 14l23.2 29.8c22.7 25 12.3 33.1 12.3 33.1-8.8 11.3-29 4.5-29 4.5-6.8-2.3-6.8 0-6.8 0 1.4.8 8.4 23 8.4 23l.6 8.5 13.7 13.9c13.5 12.7 37 51.4 37 51.4a169 169 0 0 1 14.9 64.6" class="st0"/><path d="M331.6 936.8v10s-.9 9 8.5 9.6c0 0 37 13.8 85.4 5 0 0 20.8-3.5 24.4-5.6 0 0 16.7-4.7 18.7 1l30-3.6s12.3.3 12.9-10.9v-7.6s-1.8-4.1-6.2-2c0 0-19.6 6.1-44.9 8.5l-18.2 4.4s-38.7 9-68 2.6c0 0-19.4-1.8-42.6-11.4" class="st1"/><path fill="#3e3b3d" d="m337 932.1.5 1.5c6.2 15.7 46 13.4 61.8 12 0 0 32.9.3 43-5 0 0 16.1-6 34-5.5 0 0 28.8-4.1 31.6-9.6 0 0 1.7-21.7-4.3-31.5 0 0-24.3 8.4-61.5 2.7 0 0-2.1.4.8 4.5 0 0 4.7 6.3-2 8.3 0 0-4 5-8.7 2.3 0 0-14-13.7-9.4-4.3l5.6 5.3s1.6 6.3-5.6 7l-17.4-9.7q1.3 1.5 4 4 2.3 2.1 3.3 2.8c1.8 1.4 4 3.9 6 8.4q1.7 9.4.3 10-1 .2-3.5-4a48 48 0 0 0-17.7-20.4A52 52 0 0 0 367 904c-13.7 1.1-25 7.8-28.8 18-.8 2.2-1.6 5.6-1.2 10.1"/><path fill="#9d9994" d="m338 932 7.1 1.2s1.2-15 13.2-19a69 69 0 0 1 45.8 1.5 57 57 0 0 0-48.2-9.4c-2.3.6-5.6 1.8-8.8 4.6l-1.3 1.2a29 29 0 0 0-7.3 9 17 17 0 0 0-.6 11"/><path fill="#51544f" d="M345.1 933.2s1.1-17.1 15-19.6c0 0 15.5-4.5 29.7-1.7 0 0 12.8 3 17.4 5.5 0 0 6.7 6.4 7.5 12.3q-2 1.5-4.6 3a33 33 0 0 1-18.3 3.3s-44.6 1.4-46.7-2.8"/><path fill="#f8d175" d="M388.7 899.4s-.5-6.7 10.2-4.8c0 0 19.2 6.1 25.1 17.4 0 0 3.2 14.1-21.6-6.8 0 0-7.2-4-13.7-5.9"/><path fill="#f5e3a4" d="M403.6 890.8s-.5-5.3 6.6-3.1c0 0 27.6 10.3 29.5 14 0 0 3.7 14.3-11 2.3 0 0-23.3-12.7-25.1-13.2"/><path fill="#605b53" d="M497.8 895.6s5.3 29.2 3 34l7-4s1.4-24.7-4.2-31.6z"/><path fill="#f3c517" d="M406.4 842.3s-14.6-45.2-8.5-60.8c0 0 14.7-29.9 19-32.8l23-30.3s6.7 8.2 14.1 8.4l5.3.2 3 2.9s6.8 7.6 11.7 9c0 0 15.6 2.3 20.3 1.2 0 0 6.9 8.6 31.3 3.9l19.2-8.2 22.7-17.5s12.5 2.2 22.5-3.3c0 0 60.8 6 69.3 3.7 0 0 63.1 0 78.7-9.4 0 0 2.8 5.1 2.4 28.8 0 0-2.1 18.6-4.7 24.8l2.2 35 4.3 7.5s6 2 7 15.4c0 0 2.8 7.5 5.9 6.5 0 0 11.7-1.6 18 10.4 0 0 11.7 14.8-2.5 42 0 0-24.1 32.7-66 24.9 0 0-17.4-3.6-19.7-16.3 0 0-3.2-4.5-.8-3.9 0 0-46.2-22.3-50.5-39.7 0 0-36.2-60.3-43.8-63 0 0-14.7-16-25.8-7.5l-40.5 26.7s-9 6.4-10.4 11.5c0 0-7 5.3-5.3 19.4 0 0 4 9 1.4 17 0 0-.2 11.7 1.8 16 0 0 6 11.8-3 19.2 0 0-14.8 12.3-56 7.3 0 0-38.2-6.1-43-12.6 0 0-10.7-3.9-8-18.5 0 0 3-16.7 7-5.1.1 0 2-.4-1.6-12.8"/><path d="M420.8 750.7s18-23.4 19.2-32.3c0 0 6.8 7.8 12.3 8.2l7 .4s8 8 10.2 9.5l4.5 2.4s17.1 2 20.4 1.2c0 0 3.8 6.4 23.1 5 0 0 12.5-.5 21.6-6.9 0 0 13.7-6.1 15.8-10.1l12.6-9.7s17.3 1.1 22.5-3.4c0 0 58.1 5.3 69.4 3.8l36.4-1.4s33.6-3.3 36.7-5.6c0 0 3.8 34.5-1.7 47.3 0 0-3 6.4-1 19.5 0 0 4.2 35.2-.3 49.1s1.9 1.2 1.9 1.2-.3 16 6.7-1.4c0 0-3.5 9.2 0 11.6 0 0 1.4-1 2.4-8.4 0 0 9 1.5 11.6 15.8 0 0 1.7 4.6 4.5 1 0 0 4.1-3.3 1.5-16 0 0 13-.7 13.3 19.3 0 0 4 19.6-9 37.5 0 0-19.8 19.2-49 17.4 0 0-20.2-.4-27.1-13.3l-2.2-8s-41.4-21.2-45.4-30.8l-36-57s-16.1-23-23.8-23c0 0-4.4-10-34.8 13.7 0 0-26.7 15.4-27.2 19.3 0 0-9 11.2-9.2 18.5 0 0 2.5 17.8 2 21.8 0 0-1.2 12.7.8 16.5 0 0 6 10.9-.6 18.8 0 0-15 17-67.8 7.3 0 0-26.6-4.7-30-8.5l-5.7-3.8s62.6 12.3 82.1 1c0 0 6.7-11.2-.4-7.8 0 0-18.6 4.5-22 .3 0 0 12-2.1 17.5-5.2l-15.6-4.7s-4.3-2 2-4.3c0 0 10.9-17.6-8.5-25.3 0 0-11.6-5-1-7.6l18-9.2-10.9-6.8s-6.9-4.5 1.4-8.8c0 0 20.7-12.3 23.6-15.3 0 0 6.5-5.7-2.3-8.8 0 0-16.6-11.1-18.4-13.9 0 0-16.4-11-22.5-11.1 0 0-13.3-9.2-25 1.7 0 0-6.2 3-3.6-.7" class="st9"/><path d="M404 786.2s-3.5 18.2 4.9 24.3c0 0 6.6 7.4 14.7 3 0 0 .1-4.8-8-9 0 0-12-12.2-11.6-18.3" class="st9"/><path d="M415.5 856s10 10.4 45 12.2c0 0 5.7-3.5-2.3-4.1 0 0-37.2-4.3-42.7-8m96.3-9.9S486 874 466 870.7c0 0 22.2 3.6 44.9-12.7zM509 824s-19.5 6-22.8 5a43 43 0 0 0 6 27s-7.6-26.6-10-27.2c0 0-1.3-2.8 6-4.1l.7-.2c8-1.3 19.1-7.5 25.4-10.8z" class="st0"/><path d="M529 797.3s-14.3 11-33.7 10.3c0 0-8.6-2-9.4 7.3l-1.3 8s2.8 4.6 5.2-10c0 0 18.3-2 22-.4l4 1.2s3-8.3 5.8-8.4z" class="st0"/><path d="M491.5 809.6s-15.4 3-21.2-3.9c0 0-5.4-2.2-1.5 2.6 0 0 8.8 8.4 29.4 3.9z" class="st0"/><path d="M486.7 805.2s14.5-17.2 25.7-19l25.5-13.8s9.7-2.7 1.6 2.8c0 0-28.8 15.1-30.2 16.8 0 0-13.5 6.7-16.9 13.2 0 0-9.5 6-5.7 0m21.8-44s-6.6-4.5 3.4-3.4l24.5 7.2s9.6 2.6 12.3 1.1L529 753.4s-3-6.2 3.6-2l21 9.8 27 12.8-9.4 2.6-16.9-6.8s-10.4 1.6-15.5-.4z" class="st0"/><path d="M544.5 733.7s.2 19.9 17 31.2c0 0-14-20-13.5-34.6z" class="st0"/><path d="M581.6 771s-5.7-4.6-9.2-21c0 0-19-2-22.8-9.2 0 0 19.8 8.2 22 4.5l-1.1-14.2-13.4-5.5 3.2-1.9s8.4 4.3 10.6 3.3c0 0 .9-8.8 1.8-10.3l3.8 2s-2.4 7-1.5 9.9l46 1.7s-9.2 7.8-46.7 2.2c0 0 1.1 26.2 9.4 35.5 0 0-.7 4.4-2.1 3" class="st0"/><path d="M658 718.1s-.7 5-1.9 6.4c0 0 1 4 5.5 0l.7-6.6zm18.8-1a8 8 0 0 1-2.6 6.5l5.1.5.6-7z" class="st10"/><path fill="#f0c11a" d="M575 740.2s73.5 6.7 109.9-14a44 44 0 0 0 23.7 27 83 83 0 0 0 .7 54.4s5 16.5-4.4 32.3c0 0-13.2 18.5-42.6 10.3 0 0-21.7-5.6-27.6-21.1 0 0-21.4-38.2-29.3-41.1 0 0 22.3 4.7 26.7 12.3 0 0-22.3-32.8-33.7-34L627 758c.9-.3-51.4-12.7-51.4-12.7z"/><path d="M650.9 854.3s26.7 19.6 52.6-2c0 0-27.4 15.4-52.6 2" class="st0"/><path fill="#26160d" d="M655.2 867.8c.5 0 20.3 16.8 53.6 13.3 0 0-3 5.9-29.2 5.3z"/><path fill="#683c17" d="M688.2 885c.8.4 42.3 9 58.9-13.3 0 0-22 20.4-58.1 13.7z"/><path fill="#fdd71e" d="M691.3 887s58.4 21.6 65-29.6c0 0-9.6 38.6-62.8 28.6z"/><path d="M737.5 791.7s-1 34.9-9.3 40.3c0 0 1 7 5.1-3.1l3.6-8.8s2.3-7.3 1.5 1l-1 15.2-.2 1.7c-.2 2.1 2.6 3.2 3.7-9.8L742 806s3.3-1 5 5c0 0 7.7 27.3 7 36.8 0 0 5 2.5 3.7-10.4 0 0-2.2-16.6-3.8-17.9 0 0-8.3-16-8.6-16.2s-6-7-6-7.4c0-.3-1.8-4-1.8-4" class="st0"/><path fill="#3f403d" d="M739.3 690.4s-104.3 18-133.4 19.8c0 0 73.3 11.7 133.4-7z"/><path fill="#86805d" d="M731.4 691.7v13.7l7.9-2.3v-12.7z"/><path fill="#eab120" d="M662.3 702.9v15.7l14.6-.2v-17.8z"/><path d="M658.5 703.8v14.8h3.8v-15.7zm18.4-3 3-.6v17.1l-3 .2z" class="st10"/><path fill="#e3ac39" d="M726.3 674S708 691.7 700 690.4c0 0 37.6 1.8 47-11.8 0 0 4.6-8 5-13.4 0 0-.5-4.4-7.1 2.8 0 0-9.1 12-15 12.3 0 0-5.7 3.8-3.6-6.3"/><path fill="#979896" d="M435.9 701.2s5.8 15.8 22.5 18.7c0 0 7.8 2.2 20-2.1 0 0 14-5.7 19-4 0 0-12 9-28.9 11.4 0 0-1.7 9.2 24.3 7.8l21.5-5.2s5.2-1.1 0 2.5l-11.7 4.9s-2.4 2.3 6.4 2.5c0 0 12.4 3.4 30.6-5.6l24.8-20.3s8.4-7.1 12.7-8c0 0 1.4-3.6-7-.5 0 0-6.4 6-8.5-5L558 680s-2.3-7.8-3.7-3c0 0-3-17 1.4-25.1 0 0-4.5-5.7-7.8-5.7 0 0-3.8 1-4.7-4.1l-17.4-7.3s-3.8-2.7-8.4-1.1l-24.9.6-13.9-8s-10.5-4.7-11.5 8c0 0-4 11.5 10 17 0 0 8.4 4 13 4.3 0 0 11.2 2 9.3 9.8 0 0-2.4 8.7-12.7 16.5 0 0-13 13-15.9 13.6 0 0-2.5 6.2-35 5.6"/><path fill="#b5b2b0" d="M463.4 699.1a6 6 0 0 0 2.4 11.8s19 2.6 27.8 1.8c0 0 16-1.8-4 7 0 0 20.4 5.5 35.5-3 0 0 22.9-13.6 24.5-16 0 0 9.3-3.5 5.4-18.9 0 0-5.7-6-3-23.1 0 0 5.8-9.4-.5-9.4l-26.8-9.2s-7-2-14.7-1c0 0-22.7 3.8-35.2-8.4 0 0-11.9-6.5-6.5 13.5 0 0 1.5 6.6 15 9.7 0 0 12.1 2.2 15 5.8 2.7 3.5.5.7.5.7s4 6.4-5.3 15.2l-16.6 15.6s-10.3 9-13.5 8"/><path fill="#3a3a3a" d="m659.2 564 26.7-39.4s8.3-4.5 17.2-2.4l2.2.7c9.7 3.5 61.6 23.8 80 64.7 0 0 11 18 0 29.5L766 635.6l6-12.4-10.8 6.5s-12 32.7-29.8 41.5l4-13.6s-33.2 36.6-82.5 40.3c0 0-30.4 7.7-43.6 7.5 0 0-25.5 2-28.6 6.4h-5.8s5.3-8.6 5.8-11.6c0 0-7-3.8-11.9 0 0 0-8.3-7.9-5.3-33 0 0-3.6.3-4.8 2.8 0 0-2.7-11.3 4-25 0 0-13.6-.8-20.8-7.4 0 0 35.6-18.3 45.1-31 0 0 27.2-30 72.2-42.6"/><path fill="#5a5854" d="M547.6 636.6s9.6 4.4 29.6-13.5c0 0 40.8-45.8 92.4-47.5 0 0 30-1 30.4 0l.4.9s4.4-11.8-30.8-15.9l20.8-37.7s60.5 21.6 73.4 53.9c0 0-1.7 14-5 16.7 0 0 0-9.4-2.9-12 0 0-5 41-24.5 52.2 0 0 6.5-13 7.9-21.4 0 0-10.4 17.6-15.7 23.1 0 0 2.7-10.4 2.4-18.7 0 0-16.4 37.5-41.1 43 0 0 12.6-9.3 15.1-14.9 0 0-44.1 32.4-99 37l51-18s-53.1 20.8-74.8 13.4c0 0 9.1 8.1 13.5 8.1 0 0-12.3 2.4-17.6 0l-6 12.6s-5.4-10.8-4.2-17.6l.7-13s-4.9 1.6-4.9 2.8c0 0-1.9-17.1 4-25 0 0-16.5-2.4-16.6-4.6 0 0-1.3-4.4 1.5-3.9"/><path fill="#fcce09" d="M683.4 517.5s33.8-6.2 75.1 26.7c0 0 37.3 29.1 40.5 66.2 0 0 12.6-12.8 13.2-17 0 0-3.2-35.7-40.2-64.5 0 0-41-33.4-81.6-25.2 0 0-7.3 10.5-7 13.8"/><path d="M694.3 499.7a133 133 0 0 0 16.6-19.8s3.7-7.2 5.1-12.1c0 0 13.9-23.5 19-24.7 0 0-21.6 20.3-22 26.6 0 0 1.4-15.6 10.4-26.6l-5 4.1-.3-2.3s-16.2 24.7-14.4 35c.2 1.2-15.5 12.7-17.6 19.8 0 0-8.7 7.6-9.8 13.7V525s-1.8 3-4.1 4.9c0 0-11.8 14.5-17.4 31.5 0 0-44.4 2.3-79.7 47.8l10.6-83s0-7-8.5-7l-10.9-1.2 10.9-81.6 24.3-20.6s9.1.6 12.7 15.6c0 0 .3-11.2-7-19.7 0 0-3.6-5.8-13 0l-11.7 11.8s-.6-23.5 2-27.6c0 0 4.4-16.1 4.7-20.8l15.6 17.6s42.2 32.5 104.1 4.4c0 0 37-16.7 52-29.7 0 0 23.7-15 26-23.4 0 0 .5-10.3 3.3-5.3l4.4 20.5s-20 28.9-56 51.8c0 0-33.6 23.8-54.1 32.2 0 0-12.3 10.4-13.3 2.6 0 0-7.5-20-14.3-22.7 0 0-8-4.1-21.5 8.8 0 0 15.2-6.7 18-5.1 0 0 6.8 5.7 12.7 19.8l4 8.4s2.7 1 8.3-2.6c0 0 51.7-24.8 57.5-31.7 0 0 51.7-38.3 60.3-54.1 0 0 32.7 33.8 35.2 40.5 0 0 7.6 9.3-1.4 4.3 0 0-17.8-15.5-60.6-1.2 0 0 53.3-15 73.3 17.2 0 0 17.8 27.8 14 62a185 185 0 0 1-41.5 101.7c-2.7-10.8-11-38.7-37-61.7a123 123 0 0 0-84-29.8" class="st24"/><path fill="#e2a325" d="M776.7 562.3s9.1-17.3 11.5-16.4c2.3 1 1 0 1 0s17.9 20 20.7 36.7c0 0-12.2 15.3-12.2 19.3 0 0-4-22.3-21-39.6"/><path d="M789.2 540.6S833 497.2 823.4 439c0 0-5.7-41.4-54-28.8 0 0 45.2-19.3 66 13.3 0 0 20 29 13.8 60.4 0 0-2 36.3-16.4 61.9l-20.6 30s-21.3-33.4-23-35.3" class="st26"/><path d="M782.1 390.1q2.4 1 5.4 3.5a22 22 0 0 1 6.4 10.9 67 67 0 0 1 30.7 3.8l-28-34.2s-1.2-4-6.7 0c0 0-39.5 38.6-56 48.6l-57.5 31s-5.7 4.8-7 0c0 0-10.5-24-14.6-25.4 0 0-1.9-2.5-5 .6 0 0-12.7 19.6-14.4 24.9l17-11.4s3.6-3.1 4.6 1.4l10.6 18.8s3 6.6 8.8.6l40.2-23.3s24.9-15.6 30.3-20.9c0 0 35-26 35.2-28.9" class="st26"/><path fill="#dda126" d="M716.3 393.7s-1.9 6.2-1.3 6.2 26.7-13.7 32.8-13.7c0 0 4.9-1 0 4.5l-24.5 30.7 32.8-22.7 12-10.3s17-15.7 17.8-18.1l8.7-11-4-18.6s-1.3-6.2-3-1.4c0 0-.9 3.5-.6 4.8 0 0-2.4 6.6-13.4 14.4L747.4 377s-29.8 17-31 16.7"/><path fill="#d19a2a" d="m604.5 425.6-11.7 11.5-9.1 63s-2.1 9.1 6.1 12.4c0 0 10-.3 8.5 15.2 0 0-2.3 10 11.8 10.6 0 0 22.8 10.3 43 3 0 0 14.5-12.5 14.8-19.6 0 0 5.8-19.5 10-22.2 0 0 17.8-21 22.8-33.8 0 0 17-24.2 19.1-25.1l-5 9.5s-11.2 21.3-11.3 28.5v.5l-16.7 18.7s-9.9 12.5-10.5 17.3c-.7 4.8 0 .7 0 .7v9.3s-16.8 16.4-21.5 36.4c0 0-45.1 2.5-79.6 47l10.4-81.4s2.5-5.9-3.9-7l-15.4-2 10.9-81.6 22-18.6s3.5-3.2 6.8-.2c0 0 7.4 7 8.2 15.1 0 0-6.2-7.3-9-7z"/><path d="M619.3 434.3s-20.2 21.2-20.5 55.6l11.4 1 12.3 2.1a206 206 0 0 1 28.5-65s-2.2-7.3-20 28c0 0-10 25.8-10.7 32.9a71 71 0 0 1-19-3.3s11.5-46 24.3-51.2z" class="st0"/><path d="M619.8 445c-2.3 2.1-3.3 5.8-1.7 8.5a6 6 0 0 0 3.2 2.5 7 7 0 0 0 7.5-1.2 7 7 0 0 0 1.9-4.5c0-2.8-1.7-6-4.8-6.9-3.3-.8-5.9 1.5-6.1 1.7" class="st0"/><path d="M622 447c-1.7 1.3-1.7 3.8-.7 5.3q.6.7 1.2 1c1.5.7 3.3.3 4.3-.8q1.4-1.6.8-3.5c-.4-1-1.2-1.6-1.5-1.7-1-.7-2.8-1.2-4.2-.2" class="st24"/><path d="M610.8 469.2c-2.2 2-3.2 5.7-1.6 8.4a6 6 0 0 0 3.2 2.5 7 7 0 0 0 7.5-1.2 7 7 0 0 0 1.8-4.5c0-2.8-1.7-6-4.8-6.9-3.2-.8-5.8 1.5-6 1.7" class="st0"/><path d="M613 471.2c-1.7 1.2-1.6 3.8-.6 5.2q.6.7 1.1 1c1.6.7 3.4.4 4.4-.8q1.3-1.5.7-3.5c-.3-1-1.1-1.5-1.4-1.7-1-.7-2.8-1.2-4.2-.2" class="st24"/><path fill="#4d4e4e" d="M610.3 399.2s10.5 20.7 12.3 29.6q.2.8.7.9c1.8.7 5.5-4.5 6.3-5.6a31 31 0 0 1 31.7-11.8q1-2.1.2-3.4-.8-.7-2.2-.7h-.6s-19.4 2.4-48.4-11.7c0 0-1.2.2 0 2.7"/><path fill="#1f1209" d="M660 408.6s1.7 2.6 1.3 3.2c0 0-15.8-5.5-33 13 0 0-4.1 6.7-5 3.3 0 0-5.8-17.2-7.6-19.7l-4.2-8.7s-1.1-2.7.5-1.9c0 0 0-1-.9-1l-3.2-4.9-5.8-4s17 37.2 17.2 46.4l6.3.1s15.7-19.5 43-22c0 0 33-8.7 45.2-17.5 0 0-22.8 10.7-33.1 11.6 0 0-19 2.9-20.6 2.1l1.2 3v.7"/><path fill="#868480" d="M207.4 658.8s.3 12.1 10.7 14.8c0 0 18.2 4.9 24.3-6.1zm41 9.6s-7 10.8-14.2 9.9c0 0 3.2 7.9 22 5.1 0 0 11.4-3.8 12.8-7.2zm25 7s-4.5 9.3-9.2 8c0 0 0 6.1 16.6 3.6 0 0 8.6-3.2 8.9-6.2 0 0-16.2-3.4-16.3-5.4"/><path d="M627.2 201.9s10.4-37.4 32-49c0 0 15.4-12.2 56.4-8.8 0 0 31.4 5.4 55.9 31.4 0 0 18.9 11.4 19.2 47l-2.8 36.6-1.3 11.5s-15.4-26-55.1-51.4c0 0-42.5-25-104.3-17.3" class="st24"/><path d="M638.7 200.8s7.7-46 45.6-42.5c0 0 29.6 4.4 28 32.6 0 0-.2 17-1.2 19.5 0 0-33.2-11.7-72.4-9.6" class="st0"/><path d="M646.7 184.3a29 29 0 0 0-4 14.7s31-2.6 65.2 9.8a24 24 0 0 0 1-13.6s-14.4-13.3-62.2-11" class="st24"/><path fill="#62605e" d="M649.5 180.7s10-19 28.5-18.3c0 0 17.2.6 27 15.5 0 0 3 5.8 4 11.9v1.5s-22.2-15.2-59.5-8.9z"/><path d="M737.9 151.6s23 10.2 20.3 41c0 0-2 25.2-8 30.3 0 0-36-22.5-39.1-12.5 0 0 23.8 7.8 36 19.7l15.8 13.3 14.3 14.8 5.3 6.6s6.4-45.9 2.3-56.6c0 0-3.7-21.1-19.4-36.2 0 0-18.8-17.8-27.5-20.4" class="st33"/><path d="M763 169.7s11.8 24 2.1 66.8l22.6 24.1.4-3.9-19.3-20.5a125 125 0 0 0-2.4-66.5q-3.4-3.5-4-3t.6 3" class="st0"/><path fill="#a6772b" d="M786.1 274.8a8 8 0 0 0-1 3.8v9.2l1 28.8s2.7 11 22.2 10.1c0 0 13.4-1.5 14-2.6z"/><path fill="#a8a499" d="M601.6 259s-1.4-23.6 7-27.7c0 0 3.3 21-7 27.8"/><path fill="#2e2d2b" d="M609.1 254.7s-29.5 30.5-31.6 43.9c0 0 1.8.8 4.7-2 0 0-6.7 15.7-.2 45.4 0 0 4.4 20.3 27.1 46 0 0 25.6 22 70.5 9.6 0 0 38.7-12.5 54-30.4 0 0 17.2-19.7 18.4-34.6 0 0 3.1 10.8-5.9 23.9 0 0 12.7-10.3 12.3-28.4 0 0-.5-14.7-3.6-18.2 0 0-8-10.4-5.4-23.8 0 0 .8-14.7 10.6-22.4 0 0 15-10.7 21.3 6.9 0 0-14.9-31.5-60.4-52 0 0-23.3-11.7-45.4-13.5 0 0-14-4-38.3-.7 0 0 29.3 3.4 31.3 5 0 0 38.2 3.4 40.4 5.3 0 0 26.7 15.2 34.2 32.7 0 0 8 20.7-7 36.5 0 0-4.7 6.4-.7 9.4 0 0 12.1 13.4 2.4 40.6 0 0 7.5 15.2-7.8 26.6 0 0-34.6 25.8-75.3 31.4 0 0-50.2 1.5-68.7-44 0 0-10-41 1.2-54.6 0 0 1.3-15.6 21.9-28.5z"/><path fill="#3c3c3a" d="M758 309.7s7.5 14.9 2.6 31.5c0 0-5.3 10.3-8.7 13.2 0 0-25.7 31-35.5 31.5 0 0 48.7-20.7 65-44.2l-2.2-39.5s-3.8 7.8-10.7 7.5c0 0-10.2.8-10.5 0"/><path fill="#9f9b98" d="M761.7 267.2s-10.9 8.1-10 22.3c0 0 0 13.2 7 15.6 0 0 14.6 2.9 19-8.8 0 0 5.8-7.5 3-21.5 0 0-2.4-17.4-19-7.6"/><path d="M778.5 280v.5a7.6 7.6 0 0 0-8.2-4.7c-3.4.3-6.2 2.9-6.5 6l-.3 1.9 2-.6 1.5-.2q1.7 0 2.5 1 .4.7.4 1.3v.3q.4 2.1 0 4.3a16 16 0 0 1-7 10h-.2q0-.3 1.6-2.1a9 9 0 0 0 3.8-4 8 8 0 0 0 0-6.6 3 3 0 0 0-1.8-1.6l-.8-.1a4 4 0 0 0-2.4 1q-1.5 1.4-1.7 2.7-.7 0-1.1-.6-.4-1-.2-1.3v-.4c0-1.4.1-4.1 2-6.7 2.8-4 7.4-5 9.1-5.3 1.1.2 6.2 1.1 7.3 5.2" class="st0"/><path d="M713.2 217.3s24.4 13.2 21.9 36.8c0 0-2.4 25.8-25 31.9 0 0 20.6 7.3 21 30 0 0 1.2 16.8-11 32.3 0 0-13.6 23.2-43.3 31.1 0 0-21.7 8-51.2-1.5 0 0-22.6-11.1-28.6-25.3 0 0-10.9-22.8-10.1-34.2 0 0 .1-20.8 3-24.5 0 0 6.7-19.5 20.6-26.7v-2.4h-1.4s-17.5 11-20.7 23.7l-1.2 4.8s-3.2 4-4 9c0 0-3.2 21 1.5 39.3 0 0 2 18.7 23 34.8 0 0 24 19.7 54.4 14.2 0 0 35-8.5 46.6-17 0 0 24.5-13.7 25.4-16.8 0 0 5.9-5.5 5.5-15.2 0 0-.8-6.8-1.7-7.7 0 0 5.4-14 3.3-25.5 0 0-1.4-10-6.6-15.9 0 0-3.8-4 4.4-12 0 0 7.9-10.7 6.2-23 0 0 .6-11.5-9.1-21 0 0-11.4-12.2-14-13z" class="st39"/><path fill="#adada8" d="M613.4 270.6c-6.2.9-10.6 7.1-14.5 12.6a46 46 0 0 0-6.9 16.1c-4 16.5-.3 31.7 2.3 40 1.5 4.3 3.9 9.7 7.7 15.3a53 53 0 0 0 27.7 21.6s33 9.5 56.2-3.9c0 0 14.6-4.7 25.9-19 0 0 14.4-18 15-30.5 0 0 1.8-17.6-7-27.4 0 0-8-8.9-14.6-9 0 0-2.6-2.8 2.3-2.6 0 0 8.8.7 15.7-9.9 0 0 10-7.9 8-24.8 0 0 .8-12.6-5-18 0 0-7-9.2-21-13.1 0 0-16.2-2.6-24 3 0 0-16.1 9.5-26.5.2 0 0-7.4-14.7-22.8-14.2 0 0-10 1.8-14.2 15.7 0 0-5.3 18.5-5 28l-.4 15.3h3.3q2.2-.1 2.6.5.9 1 .5 2c-.5 1.7-3.8 1.9-5.3 2"/><path fill="#151515" d="M682.3 230.2s-1.5-8.8 12-10.1c0 0 15.2-.7 21 9 0 0 4 8.6 4 10.7-.2 2-3.7-1.5-5.2-3.5 0 0-16.4-15.1-28-5.5 0 0-3.9 1.1-3.9-.6m-59.9-7.2s3-14.7 15.8-12.6a16 16 0 0 1 12.4 11.9c.6 1.7-.3 3.4-1.4 3.6q-1.2.3-2.3-1s-8-10-16.3-6c0 0-5 1.1-6.2 4.8 0 0-2 2.7-2-.7"/><path fill="#28231b" d="M609 342.4v.7q-.2 1 .3 2l.8 2.2a69 69 0 0 0 37.4 14.8s8.8.1 11.3-2.8l-7.7-1a67 67 0 0 1-42-15.9"/><path d="M600 297s8.3 7.6 8.6 23c0 0-2.9 3.2-4.3 1.5 0 0-1.7 2.7 1.8 5.7 0 0 8.9 15 40.7 20.3 0 0 34.6 4.2 53.7-21.6 0 0 8.6-11.3 8.7-18.1 0 0 5.5 1.2 5.7 11 0 0 3.4-2 1.5-8.8 0 0-6.3-13.1-18.5-13 0 0-3.4 1-.5 4.5 0 0 5.2 1.7 4.4 4 0 0-11 8.3-51.7 4 0 0-38.1-2.5-46.3-16.2 0 0-6.7-1.2-3.8 3.7" class="st0"/><path d="M607.6 302.8s4 6.8 4.7 12.3l13.5 6.5s2.2 4.4-6 1.2l-6.5-4-1.2 8s1.6 6.5 32.7 15c0 0 25 4.6 46.1-13A68 68 0 0 1 663 330q-1.2-.7-1-1.2c0-.3.9-.7 3.7-.6 0 0 29 2.6 39.6-18.3 0 0-26 9.3-47.2 6.1 0 0-38.6-2.8-49.4-13.8 0 0-1.5-.7-1.1.6m23.3-39.4s-11.7-1.3-11.2-12.7c0 0 3.9-16.8 9.6-17.2 0 0 11.7-2.5 14 5.6 0 0 3 6.8 1 10.4l-6.5-5.9s1.9 11.8-4.3 8c0 0-6.2-4.5-2.3 3.3l3.5 5z" class="st43"/><path d="M675.8 262.6c0-2.5.2-7.6 3.2-12.9 1.3-2.2 3.8-6.5 9.1-8.6 3.9-1.6 7.5-1.3 9.3-1s6.8 1.9 10.5 6.6c6 7.7 3.4 17 3.2 18 0 0-1.9 11-8.3 10.1 0 0 9.2-10.8 2.5-24.8a14 14 0 0 0-5.3-4.7c-6.2-3-12.5.3-13.2.7q-2.2 1.4-4.4 4.3a21 21 0 0 0-3.5 14.2q0 1.3.3 3.2a10 10 0 0 0 3 5l-5 .4a41 41 0 0 1-1.4-9.7z"/><path d="M680.3 271a24 24 0 0 1-.4-18.3q1.9-3.5 3.4-5c.9-.8 4-3.7 8.8-4.2a15 15 0 0 1 9.7 2.3q1.8 1.2 3.5 3.3a18 18 0 0 1 3.4 12.5 22 22 0 0 1-4 11.7c-1.6 1.1-4.6 3-8.8 3.5a20 20 0 0 1-15.6-5.8" class="st43"/><path d="M688.4 254.9s-5.6 7.2-.6 16.2c0 0 2.4 3.6 6.6 4.7 0 0 5.4 1.9 9-6.5 0 0 4.2-10-1.3-15.1 0 0-7.5-8.4-7-.9l.8 4.5s.8 5.3-4.2.7c0 0-.1-4.2-3.3-3.6" class="st44"/><path fill="#969695" d="M626 281q1.3 1.7 4 3.3c5.5 3 11.2 1.8 13 1.4 1.1-.3 2.8-.5 4.1.3q1 .7 1.3 1.3c1.3 1.6 3.5 2 6.6 2.6 2.8.5 5.7 1 9.1 0q2.5-1 3.6-1.9l-5.7-1.7s-9.8-3-10.7-3-12-1.9-13.6-2.3c-1.7-.4-6.9-1.2-6.9-1.2z" opacity=".64"/><path d="M628.5 282s-10.8-9.8-1.2-17.8c9.5-8-.4 0-.4 0s11.6 1 14 7c0 0 6.6 6.3 13.9.9 0 0 13-4.3 14 5.4l-.6 4.9s5.1.2 5.6-1.7c0 0-2.7 6.5-9.6 9 0 0-13.8-.7-15.7-4.4 0 0-1.3-2.2-7.6-1.2 0 0-4.4 1.3-12.4-2.2" class="st39"/><path d="M627.2 269.8c-.4.8 4.6 1.9 7.6 8.3 0 0 6.3 1.9 2-4.1 0 0-6.4-10.3-9.6-4.2" class="st0"/><path fill="#878581" d="M642.6 265.3s19.9.2 20.7 1.5c0 0 6.5-6.8-23.4-3z" opacity=".63"/><path fill="#171815" d="m635.7 263.4 8.1 6.4s5 4 9.7 0c0 0 14-3 18.2 5 0 0 4.7 10.3-8 14.5 0 0 14.3-1 11-14.5 0 0-4.2-10.2-13.8-8.2l-8.7 1.6s-5 2-10.1-3.3l-3.3-3z"/><path d="M652.3 277.8s8.5-3.6 10.6 4.6c0 0 8.4-5.2-3.1-8.3 0 0-7 .5-7.5 3.7"/><path fill="#898783" d="M718.3 302s21.2 54.3-67.3 72.7c0 0 88.5-4.8 71.8-72.5 0 0-2-8-5.8-8.9 0 0 .9 7.3 1.3 8.7"/><path fill="#6f4a1d" d="m587.5 537.2 41.4 17.6s-37-22.3-41.4-17.6"/><path d="M596.3 550.1s-3 28.6-5 32.5c0 0 25.6-18.6 33.6-18.6 0 0-27-11.1-28.6-13.9" class="st24"/><path d="M568 615.3s-14.3 10.9-31.6 14.4c0 0 .4 3.6-3.7 1.6 0 0-4-6.8-31-2.7 0 0-6.6 1.3-16.7-5 0 0-22.6-16-25.8 15.5 0 0 1.1 17 25.2 22.3 0 0 11.3.2 4.9 7.5L462.9 692s-1 1.4-9.2 1.4L379 696l10.7-71.5s1-16.7-3.9-5.5l-9.4 77-93.7-24.8 4-44.4-7.3 4.9s-3.5 4.9-5.9-.2c0 0-1.7-5.3-3.1-1.6-.6 2.1-1.3 2.5-1.6 2.6-2 .4-4.7-5.6-5-6.3q-1.6.1-4-.6c-3-1-4.7-3.3-5.3-4.2l-3.6 42.4-80.9-20.6 22.5-172.5h.2L276 480s-3.3 3.4-4.4 6l-.3 1.2-3.5 40.3-.8 3.4s3.9 0 6.8-3.8q1.8 1 2.5 1.8c2 1.8 2.3 3.4 4.2 4.1l1.7.4c2 0 3.6-1 4.2-1.4 0 0 6.8-4.3 11.9 5.7l5-45.4 1.6-3.6c1-2 2.2-4.3 3-4.2l72.4 8.1 21.3 2.4-7.7 65-9.5 15s1.1 2.2 9.7-10.1l-1 11.3 3-1 5.3-47.3 4.6-33 72.6 13.3s7.2.3 6.1 9.7l-4.8 38.1 8.7-7.2v6.8s.7.8 4.7-2.7c0 0 6.1-3.8 5-.1 0 0 10.2-2 13 5.5l6.2-42.8 61.9 11.1z" class="st50"/><path fill="#e6c299" d="M275.9 480s-3.3 3.3-4.4 5.8q-38.4-3.6-73.8-8.6l-14.4 102c5.5 5 3 13.3 3 13.6l1-1.4c-1.2 1.6-5.7 9.7-5.7 9.7 2.9 9.5-8 22.2-8 22.2l19.1-152.6zm30 3.7-2.8 4.8-28.1-2.3 2.4-5.2zm74.3 8.8q-36.2-1-75.4-3.9c1-2 2.2-4.3 3-4.2z" opacity=".5"/><path fill="#ab885e" d="m485.6 509.4 30.2 5.2-5.3 39.6a23 23 0 0 0-7-4c-1.3 1.5-3 1.8-4 1-.9-.6-.8-1.8-.8-2q-.8-.8-1.3-.8c-2-.2-3.3 4-5.5 3.8l-.9-.3c-2-1.1-2-4.3-2-4.7l-7.8 6.2a173 173 0 0 0 4.4-44"/><path fill="#956e46" d="M425.1 689.2s19.2-.4 28.2-7.4c0 0 8.8-10.8 8.4-14.9 0 0 2-4.9-5-9.4 0 0-12.6-13.9-2.8-31 0 0 9.6-21.6 31.9-8.1 0 0 16.4 14.3 46.9-22l44.5-69.3 2-.5-11.3 88.7s-13.6 10.8-31.5 14.4c0 0 .2 4.6-6-.1 0 0-5.8-4-25-1.5 0 0-10.6 2.8-20.4-4.4 0 0-14-12.5-22.6 3 0 0-7.6 9.1.8 22.2 0 0 6.4 10.6 23.9 12.9 0 0 8.6 1.5 1.4 7.8l-25 22-39 3s-10 .7.6-5.4" opacity=".69"/><path fill="#583a20" d="M398.5 564s-1.9-11.7 3.7 0l.9 20.4s7.3 2.8 8 6.6a346 346 0 0 0-.7 24.3c-1.3 1.3-1.8 1.4-2 1.3v-1.4q.3-1.7.2-2.9a40 40 0 0 1-.3-9.5s-.7 1.4-.8-4.2c0 0 2-8.4-2.4-9.4 0 0-6.6-.6-6.3-5.8l.4-5.8s-1.2-4.1-6.2-1.5l3-1 .2-1.9s2.5 1.4 2.6-1.4c0 0 .6-6.4-.3-7.8"/><path fill="#e1c6a1" d="m383.1 579 11-14.2-5.5 41.6s-2 2.6-2.3-5.9c0 0-.3-19.4-3.2-21.4"/><path fill="#1b130d" d="m385.8 619-1.8-23s3.2-2 5.2 19.8l-3.5 3.8" opacity=".72"/><path d="m296.8 628-3.9 33.4 74.3 17.9 4.2-35.8z" class="st57"/><path fill="#cfa472" d="m299.3 631.7-3.3 27.9 69.1 15.8 2.8-28.7z"/><path d="m299.5 655.4 1.6-16.9 8.2.8-.3 2.8-5.1-.4-.3 4.4h4.4l-.4 3.5-4.1-.4-.6 6-.1.9h-3.6zm8.7 2.3 1.5-17.3c3.5-.8 6.7 0 8 2 .9 1.2 1 2.7 1 2.7q.3 2.4-.2 2.8a6 6 0 0 1-1.9 2.7v7.6H314l-.3-6.9-.4-.5q-.7-.4-1.4 0-.4.4-.4.6l-.3 6.1z" class="st0"/><path d="M312 643.4c-.3 0-.3 4.2-.3 4.2s5 1.7 4.6-1.4c0 0 .3-4.3-4.3-2.8" class="st50"/><path d="m324.4 642.4-6.8 16.8 4.1.8.5-3.2 3 .2v5h3.1l-.7-19.4z" class="st0"/><path d="m324.2 649.1-2.2 4.6 3.1.4v-5.8z" class="st50"/><path d="M336.6 651s3.6 1.9 3.5-.7c0 0-1-8.2-6.7-5.4 0 0-4.1 1.6-3.8 11.2 0 0 0 10 8.2 6 0 0 2-.4 1.5-8.5l-4.5-.3v3.1h1.4s.3 2.6 0 3.6c0 0-5 1.8-3.6-3.9 0 0-.2-6.1 1-6.6 0 0 3.1-3.5 3 1.4m5.4-4.7-1.9 18.3 3.7.5 1.5-18.8zm5.2.8-1.5 18 6.9 1v-3.2l-3.8-.7 1.7-15zm8.4 1.4-1.5 18.9 9.1.8V665l-6-.6.1-4 5.4.1.5-3.9h-5.1l.6-3 6 .1v-4.6z" class="st0"/><path fill="#3a2411" d="M176.4 590s8.8 4 6.5 22c0 0 10.3-12.2-7-25.5z"/><path d="M202 492.7c.4.4 54 6.6 54 6.6l-5 47.8-53.6-7z" class="st61"/><path d="m203.7 496.2 49.7 5.1-3.9 43.5-50.4-6.6z" class="st62"/><path d="m207.4 502 41.3 4.6s1.8 3.4-.9 3.4l-40.5-4.9s-.8-3.3 0-3.2m-.3 7.1s36.6 4.4 37.6 5c0 0-.9 2.1-9 1 0 0-28-2.8-28.6-2 0 0-2-3.4 0-4m-.9 8.3s-.9 3.3.9 3.8c1 .3 39.4 3.5 39.4 3.5s-5.7-2.4-9.1-2.7c0 0-28-4.3-31.2-4.6m-.2 6.7.2 3s18.3 2.2 20 2c1.8-.4 1.2-2-7.2-3.3 0 0-11.8-2.4-13-1.6m0 6.4v3.1l23 1.6s-3.6-3.7-13.3-3.8c0 0-8.7-1.8-9.7-.9" class="st61"/><path d="m180.3 623.6 2.6-9.7s4.2 0 5-2.3c1-2.3 0-.5 0-.5s-.5 3.9 1 12.5c0 0 5.6 7.6 6.6 2 0 0 .5-2.5-1.7-4.4 0 0-3.2-1.7-2.8-10l-.4-5.5s-1.9-2.5-3.4 1c0 0 .2 6.7-2 1 0 0-1.5 3.7-2.3 4.4 0 0 1-7.3-2.6-.8 0 0-2.3 6 0 12.3" class="st63"/><path d="M194.4 620.6s6-4.5 8.4-4.4 2.5-6.8-1.7-4.6c0 0-8.4 4.5-9 5.2s0-.6 0-.6l-1.8 3 2.2 3.3zm5 1.9s-3.2 6.5 4.3 13.4c0 0 5.1 1.3.8-4.2 0 0-2-6.1-1.3-9.2 0 0-2.4-3-3.8 0m236.5 35.7H426s-7.4-8.3.9-11.3c0 0 8.5-4.6 9.3 11.3m-40.8 16.3s-2.1 3 1 5.7c0 0 2.8 1.8 2.6-4.8 0 0-.6-5-3.6-1m17.3-4.8s-4 11.9 7.5 8c0 0 1-2.8 2-3.6 0 0 2.7-1.9 3.7-1.2 0 0 2.4-9.4-3.5-4 0 0-4.2 5.6-4 6.6 0 1.1-.2-1-.2-1s-3.4 1.2-2.5-3.5c0 0-1.3-3.8-3-1.3m-8.3-1.6s-2.8 12-.9 12.4c0 0 2.6 3.4 4.3-10.8 0 0-2.6-5.6-3.4-1.5m17.8-33.4s1.5 3 1.6 7.4c0 0 4.3 2 4.4-5.6 0 0-4.4-6.6-6-1.8m-3.5-17.3 4.3 5s2.4 0 1.1-5.7c0 0-1.5-4.6-2.5-.8 0 0-3.4 1-3 1.5" class="st63"/><path fill="#ad895d" d="M342.7 616.3s-8.7 8.2-.6 6l8.3-5.6s2.7-1.5 2.2 2.9c0 0 5.6.4 6.8-5.2 0 0 3.8-2.4 3.2 3.3 0 0 1 6.6 4.5.6v-1.6s1-3.2-.8-3.7l.1-8.5s4.3-.2 3.2-4.7c0 0 2-2.2 3.9-2.2 0 0 2.3-3.4-5-3.4 0 0-5.1 1-6.2 3.4 0 0-1.8 6.7-8.2 3.3 0 0-1.5 1-1.5 1.8 0 0-3.4-1-3.5.5 0 0-2.4 11.9-6.4 13"/><path fill="#1b130d" d="M355.5 589.7s-1.9 4.6-2.9 7.7c0 0-.3 3.8 5.1 0 0 0 2.7-10-2.2-7.7" opacity=".43"/><path fill="#89663d" d="m393 576.2-4.4 30.2.3 6.5 5.8-22.7s-1 15.5-3 21.2c0 0 10.8-18.9 10.4-22 0 0-4.1-3.2-3.3-6l.3-4.2s.4-3.2-1.6-3.6c0 0-1.8-1-4.2.5-2.5 1.4-.3 0-.3 0"/><path fill="#d1b07a" d="m252.6 663 3.7-37.5s5 4.6 6.7 2.5c0 0 4.6 10.5 8.6 5.2 0 0 2.1 7 9.4 0l3.5-2.6-3.8 40z"/><path fill="#d1b17f" d="m305.9 483.7-2.8 4.8-.3.5-.3.6s-5.5 36-5 44q-1-1.5-3.5-3.4c-1.8-1.1-3.8-2.5-6-2-2.5.4-2.4 2.8-4.7 3.1s-5.5-1.7-6.7-4.2q-.2-1.2-.8-1.6c-1.3-.8-3.9 1.1-6 3l4.9-41.7.2-.5v-.1l2.5-5.2z"/><path d="m232.2 301.8 201 7.6S410.4 489.3 408.4 489l-199-22.9z" class="st69"/><path d="m240.2 314.6-5.7 54.6 53.4 3.5 6-56.4z" class="st61"/><path d="m242.4 317.9-5.1 48.9 47.7 2.6 6.4-50.6z" class="st62"/><path d="m246.2 322.4-.8 13.6 16.1.6v-13.5zm16.9 3.8s-.3 2 2 2h17.2s3.8-1.9-4.7-2c0 0-14.5-.6-14.5 0" class="st0"/><path fill="#e8c79d" d="m214.8 466.7 22.5-158.1 195.2 6 .6-5.2-200.9-7.6-22.6 164.3z" opacity=".56"/><path d="M216.4 458.2 410.8 477l-2.3 12-193.7-22.3z" class="st71"/><path d="m324 465.5 3.4-31.2 75.8 7-3.5 33-75.7-7.6z" class="st57"/><path d="m329.4 437.5-2.9 27 70.7 7.6 3.3-28.4z" class="st69"/><path d="m330.1 460.1 1.3-17.6h8.4v4.1l-5.3-.3-.2 3.6 4.1.4-.2 4-4.5-.5-.2 6.3zm9.7.4 1.2-17.2s8.5 0 8.7 3.5c0 0 .9 6.3-2.1 7.5l.5 6.3h-3.3l-.8-5.8s-1.4-.8-1.3.4l.6 5.7z" class="st0"/><path d="m343.8 447-.5 4.5s3.6.8 3.4-2.2c0 0-.2-3.4-2.9-2.3" class="st69"/><path d="m354.5 444.8-5.2 16 3.9.1v-3l3 .3v3.6h3.8l-1.6-16.4c-.1-.2-.7-1-1.8-1.1s-2 .4-2.2.5" class="st0"/><path d="m355.5 449.8-1.9 5.9 3.5.5-1-7z" class="st69"/><path d="M371.8 451.3s.9-8.5-7.2-5.6c0 0-4.7 1.9-3.4 13.1 0 0 4.1 9.8 9.7 1 0 0 2.7-8.5-5-5.8 0 0-1.4 1.2-.3 3.6 0 0 3.2-1.3 2.9.8 0 0-4.7 4.3-5-2.8 0 0-.5-5.8 3.2-6 0 0 1.5-.7 1.8 1.8 0 0 2.5 1.6 3.3-.1m1.5-4.9-1.1 17.3h3.1l1.5-17.3zm5.1.8-1 17.1 7.1.5v-4.1h-3.9l.9-14.3-3.2-.2zm8.3.6-.5 17.4 8.4.6v-3.3l-4.8-.7-.1-3.3 5.2-.3v-3.1l-4.8-.3-.1-3.6h6.1v-3.3z" class="st0"/><path fill="#1b130d" d="M416.6 355.8s.4 13-6.2 23.3c0 0 1.8 8.8 0 14.5 0 0 .3 13-5.4 14.3 0 0 9.4-2.8 10.5-16.2 0 0-2.8-12.6 1-16 0 0 4.8-18.6 0-20" opacity=".9"/><path d="M244.5 470.7s-1.5-12.2-5.2-11.7c0 0 7.2-5.9 9.4 13.2zM227 437.3s-1.8 6.3 0 11.1c0 0 5.7 1.7 6.4 8.4 0 0 4.6 3.6 5.4 0 0 0-3.5-2-4.5-8.1 0 0-2.7-3.8-4.5-2.7 0 0-1.5-8.3.6-8.7 0 0-2.1-2.5-3.3 0m-13.7-15.8 10.7 9.6s3.8 1 .8-3.5l-10.6-8.6zM311 302.4s-5.4 12.9-6.8 44.4c0 0 0 2 6.9-2.6 0 0 7.2-6.2 6.7-2.8 0 0-1.2 5 3.5 3.5 0 0 7-1.9 8.1 1.3 0 0 4.3 5.8 7.5 5.2 0 0 1.9-40 6.9-45.4l-3.7-1.6s-3.7 10-4.7 20.5l-.9 19.7s-.5 2-3.6-1.7c0 0-3.1-3.4-6-1.2 0 0-2.7 2.4-4.6-2 0 0-2.4-4.3-7.8.3l-4.5 3.6s-.5-.6.1-5c0 0 3.3-33.5 5.6-35z" class="st0"/><path d="m435.6 310.2-23.8 180 148.4 26.1 23.3-161.5z" class="st69"/><path d="m411.8 490.2 1.4-10.3 148.3 27.4-1.3 9-83.5-14.7z" class="st71"/><path d="M476.7 501.6s6.1-33 6.3-36.8c0 0 .3-7.4 3.6-4.1l5.3 3.5s3.5 1.8 1.7-2.1c0 0 2.7-2.7 5.4 2.2 0 0 1.1 5.5 7.6 2 0 0 3 0 1.5 2.7l5-1-4.9 39.2-4.1-1 4.7-34.1s-7.3 1.7-10.3-2.5c0 0-3-7.2-3.7-2.5 0 0 1 3.1-9-3.3 0 0-3.5 26-6.4 38.7zm24-171.8-6.2 43.8s1.3 4.8 5.8-2.3c0 0 5.7-5.3 5.3 1.1 0 0-1.5 6.3 1.3 4.4 0 0-.5 7.6 5.7.1l4.2-4s.8-1.7 1.6 1.1l5 12.1s1.8 1.6 2.2-8l4.8-39.3-3.2-1-4.5 38.4-3.3-6s-1.5-1.2-3.5 0l-5.8 4.7s-1.7 1-1.5-3.8c0 0-.7-2.8-1.4-1.8l-.7-3.4s-1.4-2.3-3-.7l-3.6 2.7s-2.1 2.7-1.1-4l5-33.2z" class="st0"/><path d="m540.2 444.3-10.8 10.4s-2.7.6-3.4 4.2c-.7 3.7 0 1 0 1s-1.8 7 3 10c0 0 5.2-.7 5.8 4.1 0 0 5.8 13.8 7 14.1 0 0 4.8-2.3 4-5.6 0 0 .3-4.8 3.8-3.8l1.3-12.5s7.5 6 10.6 3.2c0 0 2-9.4 1-12.8 0 0-9.4-.2-9-5.6l1.7-11.3s-3-4.5-5.4.6l-1.2 5.3s-3 7.8-5.6 2c0 0-1.6-4.4-2.8-3.3" class="st73"/><path d="M560.2 442s-4.7 2.9-1.2 6.4c0 0 5.1 2.8 6.9-2.6 0 0-.1-5.7-5.7-3.7" class="st73"/><path fill="#7c5631" d="m544.3 489.2-1.2 14 3.8 1.4-1.1-13.2z"/><path d="M552 495s-1.3-15.7 1.6-18.8c0 0 3.2-.6 2.8 3.7 0 0-2.2 18-4.4 15.1" class="st73"/><path fill="#b0926f" d="M556.4 448s-3.8 4.8 1.3 7.8c0 0 8.5 1.6 10.7-2.2 0 0 3.8-12.6.7-15.7 0 0-7.3-2-9 0 0 0-2.6 2.1 3.8 4.1 0 0 5.5 4-.3 7.1 0 0-6 .5-6-1.5z" opacity=".39"/><path d="m456.5 404.5 4.8 36.4 90.4-16-4.3-37z" class="st0"/><path d="m460.5 407.3 3.4 29.7 84.1-14.9-3-28.7z" class="st69"/><path d="m464.7 411.2 2 20h3.7v-8.8h4.4V419l-5.7-.7-.5-3.9h5l-.1-4.6zm12-2.4.6 20.2h5.3l-1.8-7.3s2-2.8 2.7 1.1l3.1 5.3 3.3-.8-4.2-6.8a4 4 0 0 1 1-3.4s3.6-6.4-3.4-8.3c0 0-6.7-1.2-6.7 0" class="st0"/><path d="M479.5 411.1s-1 7 1.5 6.4c0 0 3.5.2 3.5-3 0 0-.2-5.3-5-3.4" class="st69"/><path d="m492.4 406.2-1.6 20h3.2l.5-4.1 3.2-.3 2 3.7 4-.8-7.3-18.5s-3.9-1.5-4 0" class="st0"/><path d="M494 412v7h4.2l-3.7-7z" class="st69"/><path d="M510.5 409.8s-2.6-5.8-5-.4c0 0-.9 6 1.3 9.2 0 0 2.7 3.6 5 0 0 0 .4-3.5-3.3-2.8 0 0-.9-2.2.9-2.5h.9c3 .2 4.1 0 4 3.1 0 0 .2 7-3.1 7 0 0-7.6 3.6-8.8-7.3 0 0-1.5-12.7 4.2-12.2 0 0 6.6-1.6 7.7 4.3v.5s-2.3 2.8-3.8 1m4.7-7.7 1.4 20.1 5.2-.7-2.5-19.4zm6.1-.6 2.2 18.7 8.8-.6-.6-4-4.9.9-1.8-15zm10.4-1.8 2.2 19.5 9.7-.6.1-4.1h-6.3l.1-3.6 4.6-.6.5-4.2-5.6.1-.1-2.6 5.3-.7.3-3.8h-10.2zm-286.3-58.3 36.8 2.3s1.3 2.2-1.2 2.2l-34.8-2.1s-3.6-1.4-.8-2.4m-.7 6.7 36.4 1.2s3.6 2.6-1.8 2.2l-32.9-1s-4.2-.7-1.7-2.5m.9 7.7 16.8.6s2 2.2-1.6 1.9h-13.5s-2.7.1-1.7-2.5m.2 5.2 17.6 1s1.6 3-1.3 2.7l-14-.9s-4.3-.4-2.3-2.8" class="st0"/><path d="m274.7 296.2 19.2-134.1 168.6-5.5-20.6 147.8z" class="st76"/><path fill="#efd2ad" d="m274.7 296.2 19.2-134.1 168.6-5.5-.4 3-163.1 7.8-18.4 128.8z" opacity=".76"/><path d="m356 158.3-5.9 43.8s.2 1.9 3-1.8l6-5s2.3-1.5 2.7 1.6l1.5 5.6s.4 3 4-2.7l2.9-4s.9-1.7 3 .5l5.6 6.3s2.5 2.7 2.8-5.7c0 0 4-35.6 6.3-39.2h-4.2l-4.6 39s-1.1 2.6-3.8-2.9c0 0-4-4.7-6.7-1.1l-2.7 2.9s-.8 4.4-2.6-1.6c0 0 .7-6.2-5.3-3l-4 3.9 5.5-36.6z" class="st0"/><path fill="#a98151" d="M294.3 205s9.7 36.8 21.9 46c0 0-18.5-44.2-22-46m1.3 28.7s1.8 10.1 6.2 15.3c0 0-3.6-11.3-4-15.8 0 0-2.5-.9-2.2.5"/><path d="m380.9 253.4-3.4 38.1 55.6 2.7 4.1-39.5z" class="st0"/><path d="m383 256.3-3 33.2 50.6 2.2 3.9-33.6z" class="st62"/><path d="M387 261v3.2l26.2.6s-1-3.8-5.8-3zm-.8 7v3.3h40.5s-.5-2.5-5.6-2.5l-34-.7zm0 5.8v4l41 1.1s.5-3-3.9-2.6zm-1 7.5v2.6l23.4.6s1-2.8-6.9-3.2z" class="st0"/><path d="m464.4 156.6-19.1 148.8 112.2 34.5L576.3 207z" class="st76"/><path d="m514.3 176.8-5.8 43.3s22.6 6.1 24.8 11.2a106 106 0 0 0 4-24.9 30 30 0 0 0-.3-20.5l-1.2 8.2s-3.9 23-3.9 30.4c0 0-18.1-8.3-19.4-7.2l5.5-41.6z" class="st0"/><path fill="#906c47" d="m458 309.3 63.3 1.8s7.9 5.4 20-21.8l34.4-77.6L557.5 340z" opacity=".5"/><path d="m494 322 5.7-34s1.6-5.2 3.4-.9l3.3 6.1s2.7 4 5-1c0 0 2.4-1.3 4.6 3.6 0 0 1.5 4 5.6-1.6 0 0 5-5.2 4.5.3l-5.3 35.3-3.8-1.4 4.8-27.9s1-5.5-1.2-1.5c0 0-4 3.9-6.2 0 0 0-3-2.5-6.2-.6 0 0-4.1-1-5.1-6.2 0 0-1-2.2-1.6 2.8l-4.9 29.4z" class="st0"/><path fill="#40403e" d="M759.2 901.3s22-17.3 23.3-37.8c0 0 12.5 11.4 12 21 0 0-10 51.2-10 55.9 0 0-3.4 20.3-24 20.1-20.5-.2-1.3 0-1.3 0s-65.7 1.8-73.5-9.4c0 0 2.7-26.2 29.7-26 0 0 42.6-4 52.2 12.5 0 0-11-10.7-7.4-10.1 0 0 5.9-2.6 5-7.9 0 0 1-12.2-1.3-13.8z"/><path fill="#9b9691" d="M685.7 951.1a13 13 0 0 0 6.4 4c.4-2.6 1.7-6.6 4-11 3-5.6 8-11.3 15.6-12a342 342 0 0 1 34.4 2s6.9-1.2-3.9-5.3a24 24 0 0 0-7.2-3.4c-3.7-1-6.1-.7-15-.4-8.7.3-7.8 0-9.2.2-3.6.5-9.1 2-15.6 7 0 0-9.1 8.2-9.5 19"/><path fill="#555554" d="M692.1 955.1s3.7-26 24.9-23l26.2 1.2s5 1.3 4.8-.7c0 0-.2-3.4-13.3-6.1 0 0 2.1-2 5.7-1 3 .9 7.4 2.5 12.2 5.3 5.2 3.1 14.7 8.7 14.2 15.3-.3 2.8-2.2 4.7-4.2 6.6a31 31 0 0 1-21.7 7.4 193 193 0 0 1-48.8-5"/><path fill="#706d6c" d="M781.6 871.7s9.8 25.4 9.4 30.5l3.4-18.3s-6.4-18-12-19.4l-.8 7.7"/><path fill="#f5e197" d="M708.8 920.2c.8 1.1 3.2.5 5.5 0 0 0 1.1-.3 10.6-1.4 6.2-.7 11.2.1 14.2.6 1.3.3 7.3 1.3 11.5 2.8l7.9 1.8c1.6 0 3-1 3.7-1.5l.1-1.1c0-1.4-1.2-2.4-2.4-3.2-2.4-1.7-5-2.5-8-3.4q-2.3-.7-6.3-1.5s-11.8-2.5-28.6 0c-3.4.6-6.8 1.5-8 4-.2.3-1 2-.2 3"/><path fill="#ecd696" d="M749.6 903.4s-9.7 2-7.9 5.1c0 0 11.3 3.5 19.9 3.1 0 0 3.8-6.7-4.8-8.2z"/><path d="M682.1 957v13.5s2.2 5.6 10 6.8c0 0 18.5 7.9 68.4 3.2 0 0 23.4-1 29.1-16.4 0 0 6.6-15.3 6-35.3l.9-9c0 4 2.1 6.8 3.8 6.9 1.8 0 4.5-2.9 4.5-7.4l1.1-23.2q-.1-3.5-1-5.3c-1-3-3-6.8-4.8-6.6q-.7.2-.9.4-.8.8-1.1 2-.5 1.5-.8 3.7A549 549 0 0 1 791 918s-4.3 28.8-6.5 31.4a30 30 0 0 1-29 16.3 281 281 0 0 1-57-3.1 248 248 0 0 1-16.4-5.8" class="st1"/><path d="M689.4 716.2s-1 28.6 28.2 31.5c0 0-24-7-26.2-32.3z" class="st0"/><path d="M559.7 628a94 94 0 0 1-13.6 7.4c-1.3.4-3.9 1-3.9 2.1 0 .8 1.6 1.7 2.9 2 2.8.7 5-.8 10.4-3 4-1.8 3.6-1.3 6.2-2.4 2.8-1.3 6.8-3.5 11.1-7.3l38.8-30.6a109 109 0 0 1 69.7-20.9l19.1 1.2q.4-1.5-.3-3.7a9 9 0 0 0-3.6-4.2 38 38 0 0 0-11.4-5.1 46 46 0 0 0-13.3-2.6c-2.7 0-7.3.5-12.6 3.1a163 163 0 0 0-78 49.1l-9.7 7c-6 4-9 6.1-11.8 7.8" class="st86"/><path d="m659.2 564 26.7-39.3 4.5-1.8-20.8 37.7z" class="st86"/><path fill="#5a5856" d="M785.7 588.7s8.7 20 5 24l-28.2 26.7s-.5-3.4 2.3-5.9l9.8-9.6-15.5 7.6s-6.2 29-24.1 41.8c0 0 .2-1.6 2.2-3.6 0 0-8.8 9.8-6.6 1.6l4-7.8s2.1-5.7-4.3-.4c0 0-34.3 34.6-74.8 38.9l-29 5s83.4-19.1 114.8-56.9c0 0 3.2 6-3.8 15.7 0 0 11.3-10.2 21.8-37.3l26.9-22.8s-2-20.5-.5-17"/><path fill="#fdd71e" d="m786.6 270.6 26.5 37a7 7 0 0 1 2 4.4c.2 5-6 10.5-15.6 13a42 42 0 0 0 17.4 1.1c4-.6 5.8-1.6 6.9-3 2.5-3.2 1.1-7.8.9-8.7l-15.8-22.9-16.4-21-5-8z" opacity=".93"/><path fill="#f8d856" d="M694.3 499.7a121 121 0 0 1 16.9.7 133 133 0 0 1 14.6-36.9s10-17.2 14.9-19.3q-6.6 4.2-10.3 7.3a50 50 0 0 0-11.3 11.2 38 38 0 0 0-4.7 9.8 77 77 0 0 1-6.3 11.3z"/><path fill="#adada9" d="m776.8 346.3-2.4-38.4a17 17 0 0 0 4.8-5.7l3.5 40.3z" opacity=".56"/><path d="M622.3 258.4s-3.9-18 8.5-23.6c0 0 8.8-2.8 11.1 5.6 0 0 1.6 1.6 1.5 6 0 0-3.7-7.5-9.1-6 0 0-1.2 2.1 1.1 6 0 0 1.5 8.5-4-1.2 0 0-5.2-1.2-4.2 6.7 0 0-.7 6.3 4.3 8.7 0 0-2 2.8-1.2 3.6 0 0 13.8-.1 16.4-16 0 0 1.6-14-7.4-17 0 0-10.8-4-17 6.2 0 0-10.3 17.1 1 23.2 0 0-1.7-1-1-2.2" class="st44"/><path fill="#020202" d="M626 280.8s-10.4-9.8-.5-16.6c0 0 4.3-.6 1.7 3.7 0 0-5.8 5.2.9 11.6 0 0 0 2.7-2 1.3"/><path fill="#d8c5ab" d="m305.9 483.7-2.8 4.8-.3.5-27.9-2.7.1-.1 2.4-5.2z"/><path fill="#d8c5ab" d="M252.6 663v1.3l28 6.9.6-5.6-28.2-6.8z" opacity=".89"/><path fill="#5d5e59" d="M637 206.4a21 21 0 0 1 13.3 7.3q2.1 2 4.5 5.7c1.2 1 3.2 2.4 6 3.4 4.8 1.6 9 .7 11.3.2 2.9-.6 3.5-1.3 8-3 1.4-.6 7.2-2.9 11.9-3.8a35 35 0 0 1 16.5 1 87 87 0 0 0-15-7.6 97 97 0 0 0-56.5-3.2"/><path d="M705.3 138.2s16.6-24.1 30.5 9.4c0 0-23.5-10.2-30.5-9.4" class="st0"/><path d="M715.1 134.1s0 2.6 9.1 5.5c0 0 4.8-.8-1.1-3.6 0 0-7.5-4-8-1.9" class="st33"/></svg>