<svg xmlns="http://www.w3.org/2000/svg" xml:space="preserve" id="Layer_1" x="0" y="0" viewBox="0 0 1080 1080"><style>.st0{fill:#030202}.st12{fill:#f6c514}.st46{fill:#d0982a}.st48{fill:#d29d2a}.st53{fill:#f9cb0e}.st65{fill:#f9f4ec}.st70{fill:#6d716b}.st73{fill:#999c95}.st85{fill:#f5c433}.st88{fill:#fde875}.st96{fill:#c4902c}.st110{fill:#10110d}.st111{fill:#9a9991}.st112{fill:#040303}.st123{fill:#313834}</style><path d="M449.43 992s-20.48 9.61-31.14 11.57c0 0-14.07 4.56-42.5 2.69 0 0-17.58.03-41.33-6.9 0 0-11.97-3.47-11.5-11.33 0 0-1.4-12.44 3.37-19.54 0 0 .56-11.78 2.81-13.75 0 0 4.39-14.59 24.69-20.76 0 0 17.95-4.02 19.36-3.65 0 0 .19.79 1.78-1.08 0 0 3.79-3.25 7.78-5.07 0 0 3.89-2.03 5.3-4.03 0 0 2.63-1.44.81-3.58 0 0-3.44-4.49-3.12-11.05 0 0-.42-13.33 1.58-16.8 0 0 1.39-3.42 2.25-4.3.04-.05.09-.08.13-.12.84-.63-.46-1.12-.91-2.21 0 0-3.09-5.22-2.45-8.94 0 0 2.03-10.94 2.14-13.5 0 0 .42-9.36-.49-11.22 0 0-3.37-8.35-3.37-9.57 0 0-1.75-9.75-.95-13.08l.81-13.01.6-10.59.49-10.87.77-12.55 1.05-12.76 1.3-13.08 1.12-10.94 1.37-12.38 1.54-9.68 2.14-11.15 2.07-10.66s.88-2.24.91-1.72c0 0 .25-1.09-.53-1.86 0 0-1.02-8.7-.81-10.77 0 0-.14-12.1.53-13.96v-2.77s.07-1.23-1.09-1.89c0 0-3.33-4.66-2.91-8.38 0 0 .11-6.59 2.74-9.85 0 0 1.86-3.02.04-9.71l-1.89-13.5-1.4-10.59-1.47-10.98-1.65-11.54-1.75-11.22-1.51-9.82-2.83-17.1s-1.4-8-2.81-9.96l-.94-1.4s-.84-1.36-3.09 0c0 0-13.47 8.46-16.83 9.12 0 0-7.29 4.49-16.08 5.05 0 0-5.52-.28-6.45-1.22 0 0-1.31-1.59-4.3-.19 0 0-22.91 9.91-57.98 6.45 0 0-1.22-.19.65 2.34l3.46 4.49s-14.77 2.43-38.9-12.16l-6.92-6.27s-2.71-4.21-2.52-.65c0 0 .42 2.99-.94 3.93 0 0-3.79-.37-5.05-3.51 0 0-6.92-10.05-8.51-17.44 0 0-3.46-13.56-4.4-19.82 0 0-.61-5.96-.4-6.34 0 0-2.81-.33-3.16-2.31 0 0-4.51-22.96-.3-35.23 0 0 2.45-47.69 54.84-93.14l.91.68s.75 1.4 2.2-.68c0 0 22.68-20.64 24.08-23.45 0 0 10.75-10.94 18.05-27.77 0 0 1.75-3.51 3.83-.26l.98 1.29s.75 1.19 1.26-.79c0 0 4.16-9.12 4.69-13.71 0 0 6.53-23.74 10.65-29.07 0 0 4.77-6.59 13-9.77 0 0 1.78-.28 2.48-2.57 0 0 6.22-12.9 14.87-16.74 0 0 4.04-1.94 7.06-2.62 0 0 1.87.56 4.11-4.3 0 0 7.34-12.18 23.33-13.3 0 0 9.49-1.38 18.19 4.42 0 0 .84 2.24 2.62-1.03 0 0 13.7-14.12 15.17-16.86 0 0 5.19-5.26 11.92-4.28l6.73 1.05s2.24 1.54 2.45-1.47c0 0 3.16-6.87 4.07-7.64 0 0 1.54-.84 1.54-3.86 0 0 2.24-24.13 4.14-27.28 0 0 4.93-22.7 15.22-34.76 0 0 24.62-28.43 69.22-27.38 0 0 9.51-14.52 27-1.24 0 0 2.9 4.11 3.09 5.61 0 0 32.4 9.87 47.83 25.72 0 0 14.35 12.53 20.81 29.27 0 0 4.72 8.88 5.14 33.99v25.11s-3.3 1.47 29.32 29.88c0 0 18.94 16.97 19.57 26.16 0 0 2.67 10.59-3.58 15.85 0 0-3.16 3.65-11.71 5.19 0 0-11.92 1.54-17.95.56l-8.63-.91s1.54 1.89 1.89 2.88c0 0 5.61 12.83 7.78 15.22 0 0 4.84 9.12 7.71 9.68 0 0 25.53 12.62 26.23 15.29 0 0 17.25 9.68 21.04 9.68 0 0 39.42 15.57 56.25 45.59 0 0 10.38 16.55 16.83 40.96 0 0-1.68 3.93 14.87 30.86 0 0 8.98 19.08 11.08 26.23 0 0 3.23 4.21-2.81 12.9l8.42 35.63s-.14 6.03 4.49 13.19c0 0 22.93 32.75 18.09 60.53 0 0-5.68-7.36-5.26-2.95 0 0 9.47 31.77-3.16 75.11 0 0-17.67 52.32-18.52 65.22 0 0-2.24 12.2-7.57 9.26 0 0-4.21 37.87-6.31 40.61l-4.21 13.68s-7.57 10.1-19.15 13.68c0 0-12.41 10.1-28.82 5.89 0 0-8.63 5.89-26.72-2.1 0 0-17.25 1.26-29.88-18.94 0 0-2.1-10.1-.42-10.31 0 0-12.83-2.52-14.1-15.99 0 0 4-17.25 4.84-26.72 0 0 3.76-14.1 7.6-16.81l15.76-13.56s7.57-4.77 7.29-23c0 0 1.82-16.55-8.14-34.93 0 0-8.98-19.92-6.87-42.22 0 0 1.68-21.6 4.91-29.88 0 0 2.1-8.14-1.96-8 0 0-13.33-9.4-15.43-15.29 0 0-.84-2.38-2.1.42 0 0-7.85 15.43-10.1 17.74 0 0-4.07 4.77-5.75 8.21l-3.23 4.14s-1.47 1.33-1.96 4.84l-3.65 19.36s-1.68 3.51 0 7.36c0 0 3.93 6.59-1.19 14.45l-3.51 4s-.49.7-.07 4.07c0 0 1.19 19.01.63 21.18 0 0-1.12 3.93-.42 6.17 0 0 5.96 14.03 10.59 60.03l5.61 53.72s1.68 12.2 3.65 15.99c0 0 1.96 6.17 1.82 12.9 0 0 7.71 19.78 8.84 22.3 0 0 2.81 9.96-1.82 18.23 0 0 8.14 4.07 6.87 24.41 0 0-1.12 9.26-7.15 14.03 0 0-1.96 1.4.98 4.49l6.59 11.64s.98 3.37 9.26 9.26c0 0 11.5 7.29 14.59 22.86 0 0 1.54 7.71 3.51 11.36 0 0 2.38 12.34-.98 19.36 0 0-2.38 8.56-23 12.2 0 0-42.08 6.31-54.84 2.95 0 0-22.44-2.67-25.11-5.19 0 0-12.2-6.31-13.33-11.78l-1.96-4.91s1.26-.14-6.59-4.91c0 0-5.61-2.67-7.29-8.56v-16.55s.42-3.79.98-3.79c0 0 .42-23.99.7-25.11l.42-2.24s-7.86-3.37-10.66-11.92c0 0-2.81-16.76-1.05-20.9 0 0-7.5-6.03-8.21-17.67 0 0-.21-16.97-6.45-26.23l-30.37-51.13s-2.38-5.61-10.59-7.64l-20.34 42.55s-1.12 2.34-.47 4.3c0 0 1.4 6.17-3.09 11.5 0 0-1.22 1.31-.19 3.55 0 0 4.21 12.34 4.3 15.8 0 0 2.62 12.62-3.74 17.21 0 0-.37 1.12.84 2.99 0 0 1.03 4.68 1.5 8.32 0 0 .09 8.88-1.03 13.09 0 0-2.34 8.42-6.83 10.29 0 0-.56.56.75 2.9 0 0 3.46 11.97 3.18 20.39 0 0-.09 7.29.75 9.16 0 0 3.46 8.88 1.5 15.71 0 0-.75 7.86-3.46 10.1 0 0-1.12 2.62-10.85 5.14" class="st0"/><path d="M685.08 576.67s-5.89 19.5-18.66 33.66c0 0-5.33 5.61-5.89 13.19 0 0-2.52 19.36-3.46 20.39 0 0-1.03 4.11.75 7.86 0 0 3.09 6.73-1.68 11.03 0 0-3.83 6.27-14.21 8.04l-53.4 8.88s-2.01-1.73-3.6-1.73l-13.19 1.26s-2.99.89-2.99 2.71l-25.11 1.5-13 .33s-3.47-5.49-11.57-5.95c0 0-27.77-1.81-34.96-1.34 0 0-8.69-1.03-13.83 5.75l-16.88-2.76s-6.22.19-7.81-2.45c0 0-1.22-2.24-5.07-2.28 0 0-6.21-1.09-7.29-2.1 0 0-3.09-.81-4.35 2.24 0 0-.51.55-2.55-.62 0 0-17.02-5.12-19.54-8.39 0 0-4.86-6.5-5.52-6.83 0 0-1.59-3.32.33-6.03 0 0 3.96-6.46 2.81-12.43l-8.84-66.03-2.81-17.11s-1.05-5.47-1.47-6.59c0 0 .07-1.68 1.75 0 0 0 8.42 6.17 11.36 5.33 0 0 .77-.07-3.02-2.95 0 0-7.22-5.33-12.62-14.03 0 0-11.2-22.49-10.45-37.64 0 0-.47-18.7 5.52-49.37l4.4-20.29-7.2 21.13.75-11.5s-2.9 5.05-4.21 12.25-12.44 49.37-.87 76.94l-12.62 8s4.84-24.83 3.16-45.45c0 0-1.68-21.46-7.57-33.66l-6.31-16.41s3.37-19.36 16.2-39.13l7.5-10.73s2.52-1.68 5.05-1.54c0 0 16.55.14 33.52-20.2 0 0 12.34-6.45 11.64-4.49 0 0-4.91 25.67-.98 49.94 0 0 1.96 12.76 3.65 18.09 0 0 1.96 6.45 4.91 7.15 0 0 1.54 1.4 7.71-3.37 0 0 18.23-15.85 27.49-10.24 0 0 15.99 10.94 17.67 14.87 0 0 6.59 3.51 2.81-5.19 0 0 .98-3.37 2.38 3.93 0 0 .84 3.51-2.1 6.17 0 0-5.19 10.8-5.89 22.02 0 0-1.96 24.27-1.4 28.89.56 4.63 0 .7 0 .7s.56 5.33 6.03 5.05c0 0 14.03 2.67 18.94 1.12 0 0 4.49.42 3.93-4.77 0 0 1.54-36.75 11.08-56.95 0 0 19.78-19.5 40.68-1.68l16.6 11.31s5.52 4.86 11.88-1.12l30.72-30.53s15.01-17.25 16.97-21.04c0 0 18.8-32.54 38.15-23.56 0 0 11.13 3.46 13.93 9.87 0 0-17.77 18.42-22.26 34.13 0 0 11.62-22.82 24.94-31.02l-9.12 10.45s14.38-13.47 22.72-11.15c0 0 17.32 3.72 34.86 35 0 0 11.36 14.59 14.59 48.53 0 0 1.54 13.33-5.75 18.23 0 0 9.4 0 12.34-6.03 0 0-1.26-7.01.98 0l1.26 6.59s-70.69 24.55-93 57.16c0 0-18.73-45.45-17.46-81.21 0 0-9.68 41.83 9.89 85 0-.01 8.28 22.43 18.66 23.2" class="st12"/><path d="M510.7 675.61s17.6.84 19.94 8.18l38.11-1.82s.61-2.48 4.07-2.81c0 0 14.17-2.89 15.27.55 0 0 48.37-6.47 59.5-10.46 0 0 6.59-4.95 6.87-6.54 0 0-.19-2.43-5.84 3.55 0 0-2.85 1.03 2.2-5.52 0 0 4.58-6.92.65-10.94 0 0-3.09-4.21.84-9.91 0 0 4.58-12.72 5.89-19.36 0 0 3.37-11.13-4.58 2.52l-5 6.64s1.54-4.3 5.28-9.91c0 0 11.06-17.72 13.02-18.91l11.78-20.13 2.29-5.47s-7.31-3.9-13.13-18.36c0 0-10.05-29-10.58-31.65 0 0-6.89-28.22-.74-56.81 0 0 1.24 36.82 9.07 56.81l8.39 24.41 5.8 14s1.96 4.96 5.05 1.22c0 0 9.07-8 13.56-10.52l15.29-11.64s24.69-14.38 28.12-15.36l-47.06 18.8s-1.61-.14-.77-3.09l1.19-10.17-3.65 3.16s-6.78-10.17-9.49-15.03c0 0-15.24-20.01-17.67-35.81 0 0-5.8-31.7-2.81-39.37 0 0-3.55 3.46-8.42 16.46l-4.3 15.06s-1.87 5.42-3.37-1.59c0 0-3.09-14.03-2.24-18.52 0 0-1.4 1.68-3.09 14.87 0 0-2.34 15.15-1.87 21.69 0 0-3.83 32.5-20.88 40.91 0 0-18.73 21.67-78.9 6.94-8.26-2.57-15.51-4.07-21.22-4.97-15.84-2.51-27.55-1.75-30.21-1.55-3.25.24-5.96.57-7.9.84-8.67 2.71-19.76 4.57-32.57 6.36-17.23 2.42-36.37 3.31-43.97-2.79 0 0-17.52-7.78-19.83-19.99 0 0-.04 10.32 10.18 25.46l11.42 11.15-13.12-5.33s6.87 14.8 28.12 11.22l52.55-8.7s25.81-4.49 38.74 1.68c0 0 31.1 5.47 37.16 9.75 0 0 50.53 19.15 82.02 10.17 0 0 3.72 34.23-7.78 53.58 0 0-8.17 21.32-46.3 35.35 0 0 29.99-3.65 42.77-12.9 0 0-4.39 21.7-52.76 23.56 0 0-24.87 2.75-34.51 2.81.02 0-34.35-3.55-20.58-1.77" class="st46"/><path d="M591.03 558.72s36.4-5.82 47.9-23.28c0 0 6.87-10.87 5.12-4.98 0 0-.84 6.59-5.05 12.34 0 0-7.15 8.63-15.99 11.92 0 0-9.12 5.05-31.98 4m-128.28-8.98s27.77-7.11 75 3.93c0 0 16.65 4.68-1.59-1.96 0 0-23.75-8.79-37.12-8.51 0-.01-29.93-.66-36.29 6.54m189.74-39.37s-11.22-10.1-10.85-27.4c0 0 .04-9.52-1.1-13.78 0 0 2.75 9.48 3.79 14.62.01 0 5.91 22.63 8.16 26.56m21.51 39.3s12.14-19.55 56.57-41.65c0 0 49.62-24.2 66.73-20.28l7.06-.43.23.71-6.31.84s.7.42-7.06 1.31c0 0-45.68 7.11-87.9 36.98 0 0-24.46 17.08-28.71 23.97z" class="st0"/><path d="m695.18 532.91-1.43 11.49s-.04 3.13 3.24.87l44.83-20.01-5.7 4.38 10.54-4.38s28.75-11.29 35.21-13.12c0 0 18.8-4.21 24.13-4.07 0 0 6.59 1.68 5.05-2.81 0 0-5.4-16.07-6.94-17.19l.49-.07s-1.92-5.56-6.27-13.89c0 0-4.68-8.14-6.01-9.47 0 0-4.84-8.21-5.54-12.34 0 0-4.63-19.36-7.36-24.41 0 0-7.32-20.88-28.82-41.26l-17.35-11.36s-11.46-5.84-16.69-8.55c0 0-7.2-1.31-19.92-8.89 0 0-9.07-6.27-12.25-7.39 0 0-15.85-7.95-16.55-9.82l-2.38 5.61s27.82 18.23 29.88 18.33c0 0 16.69 9.44 24.97 8.88 0 0 3.93 3.65 3.37 4.02 0 0 17.95 9.75 21.39 13.82 0 0 18.16 15.45 26.67 34.15 0 0 11.69 24.41 12.81 48.95 0 0 1.54 6.03 3.79-6.03 0 0-.14-3.51 2.81 5.05l5.05 12.34 2.1 3.09c-.03.03-49.96 5.22-103.12 44.08" style="fill:#fad032"/><path d="M767.77 496.09s.7 2.74 1.19 2.81c0 0 6.8 11.92 7.15 14.8 0 0 24.83-6.52 29.88-5.61 0 0-4.09-17.29-9.34-19.01 0-.01-22.36 3.99-28.88 7.01" class="st46"/><path d="M523.49 444.54s6.22-16.65 8.18-17.49c0 0 11.31-7.27 16.22-4.4 0 0 28.85 17.86 30.86 24.69 0 0 2.95 5.33 11.78-5.05 0 0 50.22-42.92 60.03-67.75l14.87-28.29s42.03 28.99 54.84 27.21c0 0-20.06 5.24-27.87 14.31 0 0-14.95-17.66-30.43-8.88 0 0-8.54 2.78-22.95 24.58 0 0-17.96 22.5-45.71 48.89 0 0-5.56 7.44-13.36 1.25 0 0-23.51-17.96-30.8-18 .01.02-13.67-2.36-25.66 8.93" class="st48"/><path d="m695.11 390.89-9.12 10.45s16.51-17.04 27.38-9.28c0 0 27.48 15.83 40.11 55.86 0 0 11.68 36.46-1.08 44.03 0 0 10.52.84 12.76-7.57l1.82 8.14s23.52-7.29 30.3-4.77L789.84 470s-1.41-5.39-1.96.52c0 0-2.03 10.77-3.44 2.36 0 0-3.15-29.5-13.08-48.18 0 0-14.99-31.89-47.71-47.2 0-.01-9.3-1.55-28.54 13.39" style="fill:#cc962b"/><path d="M345.21 545.81s8.84-33.66 5.33-49.37l-2.25-17.39s-.85-3.23 0-5.89c0 0 4.85-21.18 4.5-23.21 0 0 10 16.26 11.64 45.94 0 0 1.4 32.26-4.21 45.73 0-.02-8.56 4.33-15.01 4.19" style="fill:#d39e2a"/><path d="m364.08 538.73 12.62-8s-9.69-24.68-3.34-54.64c0 0 5.34-29.74 6.81-31.14 0 0 4.74-12.75 3.47-16.82 0 0-.84-2.24-4.77 5.33 0 0-9.4 21.88-10.66 21.88 0 0-6.73-11.08-9.26-11.78 0 0-4.91-8.98 1.82-17.11 0 0-5.06 4.95-7.09 15.07l-.34 1.69s9.71 22.07 9.87 26.4c0 0 5.35 20.27 4.29 28.28 0-.01.39 26.18-3.42 40.84" style="fill:#cd9a2b"/><path d="M430.31 436.23s3.55-.81 4.18.52c0 0 1.47.91 5.61-4.77 0 0 11.22-11.43 15.71-12.27 0 0 6.24-4.7 13.47 0l17.32 13.61s4.25 2.85 4.96 8.06c0 0 1.68 5.03-3.84 2.18 0 0-3.93-5.31-4.86-5.2l-10.3-7.91s-5.42-5.1-12.24-2.11c0 0-9.84 3.35-19.74 12.02 0 0-4.39 3.97-7.26 1.04 0-.01-2.95-3.42-3.01-5.17" style="fill:#cd952b"/><path d="M437.71 361.39c-.76 3.77-1.64 9.16-1.96 15.68-.11 2.32-.21 5.93.19 13.66.3 5.79.88 13.65 2.06 23.1.02.5.14 2.96 2.09 4.56.69.57 1.4.86 1.94 1.02a239 239 0 0 0 15.71-1.46c-2.25.66-5.55 1.86-9.05 4.14-7.87 5.12-12.2 12.7-14.03 11.71-.21-.11-.47-.38-.56-1.12-.12-.47-.24-.96-.35-1.47-.24-1.14-.41-2.22-.52-3.23 0 0-4.29-33.41-2.51-42.28 0 0 2.51-23.95 4.73-25.57.05-.72.18-1.12.41-1.18.36-.12.98.7 1.85 2.44" style="fill:#fcf286"/><path d="M496.23 449.78s-8.23 16.18-9.63 43.11c.08.84.14 2.07.04 3.54-.18 2.78-.73 3.39-.25 4.22.53.9 1.7 1.06 6.24 1.51 3.02.3 4.53.44 4.84.46 2.71.11 6.81.42 12.79 1.31-.06-.8-.08-1.65-.11-2.52-.04-1.36-.04-2.9.11-3.65 0 0 .19-26.93 8.23-46.94 0 0 7.01-20.29 8.14-20.48 0 0 4.11-5.24-3.83 0 0 0-20.57 13.93-23.38 16.93z" class="st12"/><path d="M497.4 457.51s1.09 8.56 9.28 5.54c0 0 4.4-3.58 4.19-6.45 0 0-.21-7.22-7.71-7.43-.01 0-6.39 1.61-5.76 8.34" class="st0"/><path d="M499.79 456.08s.49 5.71 5.26 4.03c0 0 4.86-2.67 1.26-6.73 0 0-4.42-3.08-6.52 2.7" class="st12"/><path d="M493.38 488.63c.96 1.18 2.2 2.19 3.79 2.66.02 0 .09.03.19.05 4.86 1.26 5.89-1.12 7.1-2.57.45-.57 1.27-1.79 1.4-3.51.23-2.99-1.84-5-2.24-5.38-.36-.33-1.21-1.12-2.59-1.51-2.97-.85-5.53.95-5.92 1.23-1.42 1.03-1.99 2.45-2.25 3.23-.95 2.84.26 5.29.52 5.8" class="st0"/><path d="M495.39 483.63s-1.01 3.2 2.71 5.33c0 0 3.2.79 4.4-1.82 0 0 2.15-2.9-.21-5.26-.2-.3-.72-.97-1.65-1.32-1.59-.61-3.03.23-3.21.34-.68.9-1.36 1.82-2.04 2.73" class="st12"/><path d="M543.27 413.96s13.33 1.68 38.29 28.47c0 0 20.34-13.89 45.59-45.87 0 0 24.83-30.58 31.84-50.92 0 0 5.61-10.52 3.23-12.76 0 0-8.84-11.92-9.96-17.95 0 0-2.1-6.45-5.89-6.45 0 0-4.49-2.95-1.96 2.52 0 0 6.87 5.33-21.53 41.94 0 0-41.45 39.98-56.39 46.29-.01 0-12.56 14.1-23.22 14.73" class="st53"/><path d="M496.23 449.78c3.38-5.13 6.6-9.26 9.2-12.37 3.23-3.86 7.27-8.64 13.62-13.72 1.15-.92 2.13-1.65 2.81-2.15 1.66-1.25 3.55-2.51 5.65-3.75 3.4-2.02 7.96-4.34 12.59-5.51 0 0 24.35-10.91 24.77-11.33l-.41.42s-9.07 10.8-21.17 12.59c0 0 6.33 2.29 7.51 2.93 0 0-6.29-1.81-12.47 1.47 0 0-21.46 7.94-29.85 21.92z" style="fill:#fdf5a2"/><path d="M566.48 399.23s3.3 2.52 48.88-23.56c0 0 8.14-5.33 8.14-6.73 0 0 1.12 3-4.35 6.13 0 0 3.93.75 8.14-2.34 0 0 7.01-8.7 4.35-.7 0 0-1.93 18.43-24.55 43.34 0 0 16.11-10.94 29.72-31.51 0 0 22.03-32.92 21.97-37.59 0 0 .35-10.48-13.67-31.91 0 0 1.01 10.79-20.72 36.64-.01-.02-40.4 40.24-57.91 48.23" class="st48"/><path d="M645.11 314.65s.31-4.23-1.42-6.53c0 0 .57-1.01 5.1 1.29 0 0 3.48 3.29 4.25 8.09 0 0 3.69 8.56 9.49 15.8 0 0 1.52 1.82-3.74 12.96-.02 0-.98-13.38-13.68-31.61" style="fill:#fee754"/><path d="M463.04 388.29s29.6 29.15 35.07 50.64a92.8 92.8 0 0 1 30.21-28.06c5.06-2.82 10.51-5.65 16.33-8.42 6.94-3.29 13.61-6.11 19.92-8.54-10.31 4.42-19.2 7.54-26.01 9.71-10.33 3.3-15.71 4.36-21.47 4.72-4.81.3-8.93.05-11.97-.28a71 71 0 0 1-19.64-5.05c-3.36-1.77-6.91-3.83-22.44-14.72" style="fill:#3e413d"/><path d="M342.83 489.07s5.89 28.62-4.21 52.6c0 0-23.99 18.25-77.85 7.55 0 0 6.17 7.53 4.77 8.93 0 0 .56 1.54-7.29-2.24 0 0-17.25-7.57-20.76-13.61l-7.01-14.73s-3.23 6.87-2.95 10.1c0 0-7.29-14.87-7.43-24.55 0 0-1.54-25.25 0-28.75 0 0 2.81-7.85-5.82 3.51 0 0-.63-21.74 8-46.36 0 0 15.78-31.58 21.48-35.04 0 0 22.44-30.58 10.01-9.82 0 0-3.93 9.44 2.71-.37 0 0 48.35-48.11 50.03-54.56 0 0 3.65-13.89 4.21-1.68 0 0 1.4 13.04.14 18.23 0 0-.7 12.76 4.63 7.01l7.01-1.68s1.26.42 1.4 4.77l1.4 12.62s-1.12 4.91 6.87 3.37l14.87-2.38-.84 14.17s15.88-6.31 18.39-5.47c0 0 6.09.56 4.02 2.38 0 0-15.89 21.11-17.78 31.21 0 0-5.96 24.83-5.61 32.19 0 0-3.86 30.09-23.85 53.65 0 0-16.83 16.41-18.09 16.41-1.27 0 29.03-13.27 39.55-37.46" style="fill:#383836"/><path d="M338.62 388.29s-14.1 31.56-15.57 47.76c0 0 6.94-16.9 6.1-9.61 0 0-2.74 24.34-15.99 50.85 0 0-9.26 22.93-34.51 39.35l1.47-10.38s-11.57 13.61-27.98 15.01l1.15 8.09s-9.73-1.4-16.08-7.11c0 0-5.14-5.61-6.83-11.41 0 0-.56-1.87-1.78 2.71 0 0-3.3 10.39-3.01 19.83 0 0 .98-15.62-.02-22.26 0 0-2.28-10.1 0-17.39l2.12-19.49s.46-3.82-1.47-1.3l-5.37 5.08s3.9-22.36 8.02-30.87c0 0 13.16-33.34 25.65-41.68l-3.93 17.25s14.87-28.89 22.37-33.45l21.57-24.44s15.11-16.03 15.96-23.74c0 0 .35-.84.31 0 0 0 1.06 13.2.18 16.49l-.18 7.29s-.21 3.16 3.3 1.19l5.17-1.68.76 14.38s-.84 9.61 6.66 10.94c.01-.01 7.72 1.19 11.93-1.41" style="fill:#585954"/><path d="m225.6 533.38.42-11.37s-.06-12.35-1.19-15.8l2.88-31.97s.32-3.82-1.47-1.3-.31.29-.31.29l-5.06 4.79 3.43-16.73s9.36-28.91 12.26-30.94c0 0 11.94-22.57 17.98-24.89l-3.93 17.25 11.28-19.75s8.84-12.91 10.5-13.31c0 0 2.89-3 5.19-5.61l23.14-26.34s9.67-11.7 9.71-16.12c0 0 .18-1.74.39-.51 0 0-.82-8.28-2.09-5.37 0 0-1 5.85-3.24 7.96 0 0-23.31 27.92-28.71 30.44 0 0-14.82 14.35-17.23 19.1 0 0-2.83 2.57-3.81 4.96-.98 2.38-.35-.31-.35-.31s-3.63 6.83-2.13.13c0 0 2.72-6.71 4.04-7.69 0 0 .95-2.67-3.45 2.96l-9.51 12.44s-5 5.64-6.41 7.82c0 0-12.87 20.8-14.08 24.92s-.17.33-.17.33-6.46 17.72-7.71 28.24l-1.66 17-.04 3.88 4.79-5.55s2.25-2.35 1.03 2.04c0 0-1.75 16.97-.24 24.22 0 0-.62 6.42 2.69 16.65 0 0 2.7 7.29 2.98 7.94.27.66.08.2.08.2" style="fill:#949288"/><path d="M319.96 328.68s12.76-42.08 16.55-44.18c0 0 5.61-10.48 31.85-7.79.22.02.45.05.67.07 0 0 4.65.84 6.06 2.95 0 0-15.85-3.23-31.14 2.38 0 0-6.17 4.35-7.01 11.5l-12.2 37.59s-3.51 26.16-7.01 28.72c0 0-1.4.32 0-2.35 0 0 1.12-13.33.56-14.73-.01.01-.3-7.81 1.67-14.16" class="st65"/><path d="M316.69 359.35s.84-.29 2-.72c2.54-.92 6.62-2.44 6.88-2.84 0 0 2.9 16.09 18.33 10.94 0 0 9.73-2.99 8.32-20.86 0 0-1.4-10.57-7.39-21.51 0 0-2.62-8.88-1.78-10.1 0 0-2.9-2.81 1.31-3.27 0 0 7.86-3.37 9.63-5.89 0 0-8.51-4.02-8.42-5.61 0 0-.95-1.32 1.73-1.89.03-.01.07-.01.1-.02 2.71-.54 11.33-3.24 11.93-5.61q.03-.12.03-.24c.05-2.43 2.29-2.81 3.41.23 0 0 8.84 11.97 12.3 11.36.03-.16.07-.39.11-.68.33-2.45-.07-3.87-.07-4.98 0-2.15 1.51-3.79 2.6-4.98 2.51-2.75 5.68-3.34 6.67-3.48 0 0-8.79-9.91-9.3-9.49 0 0-23.06-2.58-32.92 3.92 0 0-5.58 6.87-8.8 20.95l-8.64 26.61s-3.54 24.07-5.01 24.97l-.91 2.24c0 .02-.33.52-2.11.95" style="fill:#adafa8"/><path d="M328.52 362.62s3.04 13.66 2.2 16.56l19.26-4.3s1.31 1.31 1.31 4.3v9.54s12.16-5.33 15.99-4.49c0 0 13.56 2.15 21.41-1.22 0 0 11.5-4.68 14.73-9.23 0 0 2.24-3.58 4.35-4.14l6.24-6.1s4.56-3.02 7.78-3.61c0 0 5.6-.94 7.89-3.9.09-.11.17-.22.24-.34l2.29-2.9-3.18-10.73-13.98 16.18-7.01 9.02s-6.38 9.89-18.45 7.57c0 0-4.56 1.22-10.31-8.09l-11.85-14.29s-.63 7.29-3.86 10.66c0 0-4.56 7.22-7.57 8.35 0 0-1.54 1.33.14-1.54 0 0 6.38-7.85 6.24-14.59 0 0 1.89-6.24-1.19-10.66 0 0-14.24-16.9-14.52-22.79 0 0-1.96-4.7 4.28-11.99l4.07-5.33-3.49-.68 2.47 1.24s-1.54 2.43-9.63 5.89c0 0-2.63-.02-2.05 2.28l.74.99s-.05 5.52 1.78 10.1c0 0 2.72 5.45 3.46 7.42 0 0 4.84 13.23 4.03 19.05 0 0 1.02 16.29-13.71 16.91 0 0-4.21 1.79-10.1-5.14" style="fill:#7e7f77"/><path d="M352.79 323.49s3.51-1.47 4.21-.49c0 0 2.45 5.12 13.68 18.59 0 0 16.97 22.09 21.74 26.79 0 0 2.81-.28 3.58.63s0 .42 0 .42-1.78-.91-3.65-.35c-.7.21-3.23 1.96-5.47-.07l-24.41-30.79c-.01 0-10.67-12.21-9.68-14.73" style="fill:#484940"/><path d="M352.54 323.49s-1.16-5.01 2.17-9.05c0 0 4.35-6.56 5.68-7.05 0 0 4.35-4.94 3.86-1.02 0 0-1.12 3.82-4.28 6.17 0 0-4.03 4.73-2.98 10.45 0 .01-.03-1.4-4.45.5" style="fill:#d0cbc2"/><path d="M366.81 309.95s-5.05 7.74-5.54 8.15c0 0-1.26 2.02-.35 4.9l15.64 22.16 17.39 21.58s2.81 4.67 6.52 1.02l10.57-12.15v-3.74s-7.48 8.04-10.01 2.43c0 0-5.33-8.51-8.04-11.03 0 0-9.36-11.77-11.97-15.55-.39-.56-.62-.95-.66-1.09-.28-1.12-5.33-4.3-7.2-10.94.01-.01-.08-1.74-6.35-5.74" class="st70"/><path d="m411.04 351.87 16.33-19.3s.91 1.12.18 3.26l-16.5 19.78v-3.74z" style="fill:#ebebdc"/><path d="M376.86 337.42s-1.73 2.9 2.15 7.76c0 0 3.74 4.07 6.45 1.64 0 0 2.99-2.31 3.09-4.31 0 0 1.26-2.33-1.4-4.85 0 0-2.67-4.07-5.33-3.41 0-.01-3.04-.19-4.96 3.17" class="st0"/><path d="M379.65 337.47s-1.4 1.31.4 5.19c0 0 1.75 4.32 4.82 1.19 0 0 2.69-2.1.19-4.61-.01.01-2.56-4.62-5.41-1.77" class="st70"/><path d="M345.75 299.75s1.98 1.16 3.1.88l11.08-1.12s2.2-1.12 1.92-2.52l-2.15-4.96s.33-2.81 2.18-1.03c0 0-2.28-.75-1.29 1.03l1.97 4.3 1.73 2.9s5.84 6.41 8.09 7.01c0 0 5.52 3.88 12.81 2.01 0 0 5-2.95 5.56-5.56 0 0 .75-2.1.33-3.74 0 0-4.96 7.9-11.64 5.47 0 0-3.77-.73-4.27-5.97 0 0 .28 4.88-.08 4.9 0 0-.76 1.65-7.6-5.63l-4.69-5.73s-.74-2.44-2.43-2.11c0 0-.87.03-1.13 2.39 0 0-2.01 2.94-9.46 4.73 0 0-5.38.9-4.26 2.39 0-.01.08.27.23.36" style="fill:#9c9c93"/><path d="M382.29 291.93s-5.39 2.31-5.17 6.83c0 0 1.1 6.01 6.38 4.3 0 0 3.53-1.71 4.65-3.18 0 0 1.54-1.8 2.36-1.75 0 0 .82-.86-.35-1.59l-5.14-5.17s-1.77-.19-2.73.56" class="st73"/><path d="M375.09 314.89s-1.12 1.79-.56 4.21l2.59 3.83 2.06 2.22s.79.64 1.34 1.77l5.35 7.25 3.53 4.53 4.67 5.7s4.22 4.86 4.93 6.75c0 0 2.06 3.01 2.47 3.9 0 0 1.73 2.44 4.65.55.73-.48 1.79-1.23 3-2.24 2.61-2.18 4.22-4.19 4.92-5.04 2.46-3.03 7.14-8.5 13.33-15.75-.28-1.53-.55-3.06-.83-4.59 0 0-12.41 14.49-12.55 15.38 0 0-7.6 9.05-9.98 9.98 0 0-.91.26-2.22-1.47 0 0-9.88-14.59-12.93-17.7 0 0 3.86 2.32 5.31 3.91-.01 0-18.24-24.88-19.08-23.19" style="fill:#121f1a"/><path d="M397.53 295.89s1.59 23.51-22.26 18.91c0 0 7.21 6.76 12.09 14.19 0 0 16.64 20.74 17.81 23.6 0 0 7.9-7.42 8.81-9.24s12.55-15.38 12.55-15.38l-.19-10.63s-.14-2.81-2.14.91c0 0-2.05-6.6.85-20.91 0 0 8.74-20.43 14.87-27.4 0 0 1.13-2.43-.47-6.03 0 0-1.65-8.05-1.12-11.8 0 0-.75-13.13 5.89-18.5 0 0 2.95-3.51-3.93 1.87 0 0-4.91 4.93-5.19 6.45 0 0-3.96 6.08-6.42 7.48 0 0 2.42 4.07 1.37 8.98 0 0-2.14 9.96-13.19 12.69 0 0-5.43.74-6.82-.07 0 0 7.87 7.01 1.98 18.3.03.02-5.62 8.86-14.49 6.58" style="fill:#3b6e7a"/><path d="M410.69 271.67s3.69 2.8 3.54 9.74c0 0 .13 5.13-2.89 8.88l-3.67 42.28s4.4 3.31 5.42-4.83l8.6-54.42.6-4.47c-.9.59-2.04 1.19-3.41 1.67-3.71 1.28-7.03.84-8.79.46.06.06.11.13.17.19.15.17.3.34.43.5" style="fill:#5b99a1"/><path d="M351.73 271.31s22.02-2.1 27.49 4.35c0 0 8.07 8.21 9.12 9.75 0 0 7.71 9.19 14.87 4 0 0 6.24-3.37 5.89-8.42 0 0 .05-2.31-1.1-.44 0 0-6.37 5.74-9 4.9 0 0-3.61-.28-5.15-5.26 0 0-1.93-3.89 1.23-7.26 0 0 2.6-3.19 6.87-4.28 0 0 .49-.68-.63-1.1 0 0-8.91-10.09-9.91-9.58 0 0-6.71-3.62-22.7-1.94 0-.01-8.54.5-16.98 15.28" style="fill:#abaca7"/><path d="M402.4 270.89s-5.05.74-7.57 4.98c0 0-1.12 3.68 1.65 6.35 0 0 1.75 2.38 3.79 1.89 0 0 7.73-4.63 8.14-4.45 0 0 .98.14-.35-2.12-.01-.01-3.31-6.76-5.66-6.65" class="st73"/><path d="M352.35 271.26s13.75-17.33 42.02-11.09c0 0-2.24-2.3-2.96-2.2 0 0-6.53-3.51-21.59-2.05 0 0-4.38-.15-10.16 5.08 0 0-3.64 2.74-7.92 10.32z" class="st65"/><path d="M352.35 271.26s2.53-3.08 5.97-2.75c0 0 13.17-.51 20.7 1.82 0 0 3.88.28 8.28 6.87 0 0 7.57 13.89 16.62 6.5 0 0 4.65-3.42 4.84-3.88 0 0 2.35 3.97-4.88 9.19 0 0-4.76 4.36-11.6-.17 0 0-2.98-2.07-3.73-3.21l-5.59-6.13s-6.27-7.05-8.14-6.58c-.02-.01-9.48-3.4-22.47-1.66" style="fill:#7e8179"/><path d="M377 250.08s11.17-1.12 19.03 4.25c0 0 3.88 3.27 4.72 5.38 0 0 4.49 7.06 15.99 4.72 0 0 5.84-1.63 8.09-6.99 0 0 .28-3.44-1.12-5.21 0 0-.56-.51-.94 1.22 0 0-4.72 7.11-9.49 5.89 0 0-4.82-.51-5.61-4.3 0 0-1.03-5.89 7.06-9.12 0 0 .28-.51-.98-1.12 0 0-8.18-6.87-18.75-6.5 0 0-8.46.23-12.11 4.16.01 0-7.62 6.87-5.89 7.62" style="fill:#a6a7a2"/><path d="m415.87 246.73 6.07 3.79s1.26.74 0 1.75c0 0-4.07 5.79-9.26 5.54 0 0-3.79-1.05-3.19-4 0 0 .28-3.75 6.38-7.08" class="st73"/><path d="m422.5 236.91-3.12 3.26s-1.3.91 0 1.4l2.07.63s.98.21 1.82-1.05l2.17-2.56s.14-.84-.84-.95c0 0-1.51-.25-.81-1.05 0 0 1.58-1.75 3.02 0l6.14-6.7s4.63-6.77 6.66-7.47c0 0 1.51-1.65 4-1.58 0 0 2.14-1.02-4.73-.67 0 0-3.3.7-4.42 2.63 0 0-6.52 8.49-9.33 10.84 0 0-1.7 1.63-1.93 2.37 0 0 0 1-.7.9" style="fill:#ece1d1"/><path d="M425.69 243.62c-.36.42-.58.8-.71 1.08-.11.22-.16.36-.16.52 0 .33.18.65.42.8.41.27 1.14.11 1.61-.52l5.89-5.98s6.08-6.97 7.71-7.48c0 0 2.85-2.76 5.75 0 0 0-2.29 2.2-2.06 5.98 0 0 .75.84 2.99-5.8 0 0 .42-9.35 1.26-10.01 0 0-3.83-1.08-5.8 1.17-.95 1-2.33 2.5-3.9 4.4-2.23 2.68-3.66 4.74-4.39 5.76-1.75 2.46-4.47 5.9-8.61 10.08" style="fill:#bdbdb3"/><path d="M447.37 235.31s-4.16 2.99-4.21 13.7c0 0 .09 8.7 1.7 12.25 0 0 .4 1.78 1.24-.42 0 0 2.29-4.3 2.76-6.87l-.47-12.86s-1.12 1.03-.51-2.15c.01-.01.19-3.42-.51-3.65" style="fill:#c3c9ca"/><path d="M447.77 239.66a12.7 12.7 0 0 0-1.19 3.25c-.35 1.6-.19 2.4-.44 4.56-.19 1.61-.45 2.57-.61 3.36-.38 1.87-.63 4.75 0 9.12 1-1.83 1.58-3.44 1.94-4.63 1.03-3.4 1.08-6.27 1.11-9.38.02-1.98-.07-3.64-.17-4.83-.07.05-.25.17-.41.11s-.29-.29-.28-.94z" style="fill:#888883"/><path d="M377 250.08s-.91-.4.78-2.33c0 0 5.92-8.84 13.59-9.05 0 0 9.8-1.89 17.38 2.91 0 0-24.76-1.88-25.53 8.54z" class="st65"/><path d="M383.99 247.61s13.31.09 20.83 8.46c0 0 11.13 9.77 17.67-2.22 0 0 .71-2.57 1.55-1.11 0 0 1.97 4.28 0 6.23 0 0-3.46 6.83-13 5.94 0 0-7.43-.83-10.29-5.2 0 0-2.77-6.25-11.51-8.46l-6.17-1.1c.01.01.68-2.55.92-2.54" style="fill:#7a7b73"/><path d="M462.89 197.81s12.06-5.89 13.75-5.33c0 0-.65-5.56 0-7.95 0 0 2.67-30.72 23.05-39.88 0 0 5.98-2.15 12.16-3.27 0 0 .19-2.99 2.81-5.52l7.57-8.98-7.67 13.84s24.22-1.22 30.77 8.98c0 0 2.9 2.34 6.55 7.95 0 0 4.4 8.7 4.86 20.76l-.65 11.78s31.98 10.47 40.68 17.11c0 0 16.36 7.9 19.03 11.41 0 0 2.38-41.52-2.81-51.06 0 0-2.81-21.32-16.27-33.38 0 0-22.02-17.95-59.61-14.17 0 0-37.45.14-59.47 30.58-.02 0-9.56 12.62-14.75 47.13" class="st85"/><path d="M617.54 210.29s22.72 16.41 24.41 19.57c0 0 .16-37.9-2.36-45.47 0 0-1.31-13.84-14.03-28.99 0 0-13.28-14.4-23.8-19.17 0 0 9.05 12.76 10.52 19.78 0 0 7.39 14.17 6.45 39.7 0 0-.33 14.21-1.19 14.58" style="fill:#d1912a"/><path d="m638.61 226.11 3.18 3.51.11-9.25-.52-19.51-1.03-12.76-2.19-10.04s-2.55-7.73-4.54-10.81c0 0-5.31-11.1-19.85-22.98 0 0-9.91-7.87-12.01-8.05 2.4 2.2 4.85 4.54 7.31 7.02 4.33 4.36 8.23 8.68 11.74 12.85 4.26 4.83 7 9.09 8.7 12.06 1.65 2.89 2.53 4.94 2.9 5.84a46.4 46.4 0 0 1 2.46 7.95c-.01.02 4.27 24.17 3.74 44.17" style="fill:#ffef4c"/><path d="m462.89 197.81 7.75-3.52s-1.16-8.76 8.8-33.65c0 0 13.19-28.02 38.71-34.51 0 0 13.61-5.89 26.72-5.61 0 0-9.33-2.48-31.6 4.23 0 0-26.02 8.54-37.39 28.71.02.01-10.13 17.56-12.99 44.35" class="st88"/><path d="M585.25 131.65s-37.4-15.71-63.96-1.87c0 0 2.19-5.15 8.33-7.36 0 0 12.52-2.93 15.89-1.81l-4.49-1.04s29.46-1.49 41.8 9.36z" class="st88"/><path d="M577.68 126.23s13.98 3.69 21.98 30.62c0 0 5.33 27.63-2.24 39.98 0 0-.84 3.93-4.63.98 0 0-32.54-12.58-36.47-11.83l-.23 4.21s27.48 9.46 36.49 14.5c0 0 21.2 10.93 23.21 14.02l.49-14.45-.31-19.95s-.79-10.91-1.57-12.59c-.26-1.43-.53-2.86-.79-4.3-.73-3.15-1.72-6.58-3.05-10.2a86 86 0 0 0-8.79-17.42s-5.05-6.49-11.47-9.67c-1.28-.67-2.73-1.34-4.37-1.93-3.09-1.14-5.92-1.7-8.25-1.97" style="fill:#dd9d27"/><path d="M615.79 218.71s11.22 6.31 21.39 16.69l12.51 13.33 16.88 16.41s17.95 17.11 18.52 19.36c0 0 5.19 8 4.63 12.2 0 0 2.77.74 1.54-6.8 0 0 0-3.86-5.19-10.94l-16.55-16.48-20.55-21.04s-5.1-5.03-6.17-7.15c0 0-6.2-7.76-11.29-11.41 0 0-11.78-10.8-13.79-11.36 0 0-1.72-1.5-1.42-4.16z" style="fill:#d8a045"/><path d="M648.37 254.22s3.18 20.32-9.63 35.18c0 0 1.45 5.96 2.4 6.84 0 0 .39 1.72 3.79 1.93 0 0 19.82 5.54 36.01 3.3 0 0 6.52-.79 9.05-4.49 0 0-1.45 1.22-2.43 1.73 0 0 .84-4.25-3.93-10.19l-13.75-14.26-9.73-9.35z" style="fill:#b3822c"/><path d="M616.91 250.34s-5.96 6.87-3.09 23.42l1.54 6.38s1.26 3.72 5.4 6.66c0 0 4.07 1.05 8.21-.77 0 0 4.77-.98 8.84-9.33 0 0 4.35-8.42 3.72-19.5 0 0 .49-9.82-4.77-13.47 0 0-5.68-4.77-12.62-.77-.01.02-4.22 2.61-7.23 7.38" style="fill:#8e9492"/><path d="M613.4 259.92s9.63-17.23 19.5-14.09c0 0 4.01.83 8.69 14.09 0 0-.03-8.46-1.26-11.06 0 0-1.63-6.35-10.09-7.48 0 0-7.29-1.6-15.15 12.2z" style="fill:#e5e9e5"/><path d="M621.54 278.11s-2.57 1.15.28 1.47c0 0 7.11.23 8.6-8.18 0 0 1.64-7.57-1.92-9.91 0 0-1.17-1.88-3.6-1.57 0 0-1.08.78-.05-1.33 0 0 2.06-5 6.22-4.82 0 0 5.38.79 5.98 8.46v8.23s1.31-8.18 0-12.76c0 0-1.17-5.05-3.97-6.41 0 0-1.45-1.72-4.72-.67 0 0-5.28 1.65-7.01 7.03 0 0-.51-.89-2.52 10.57 0 0-.84 4.72 1.4 1.08 0 0 2.81-4.39 3.74-4.68 0 0 2.2-1.4 2.43 1.73 0 0 .28 4.3-1.12 6.5 0 0-1.41 4.02-3.74 5.26"/><path d="M552.63 114.63s15.08 1.3 16.73 2.91c0 0 .91-.42-1.61-2.56 0 0-4.17-3.79-9.85-3.3-.01.01-5.55-.06-5.27 2.95" class="st85"/><path d="M484.29 174.38s-2.38.63-2.38 2.24l-2.24 13.68s-1.05.56 2.31-.28c0 0 33.45-5.33 50.29-2.24 0 0 3.72-3.02 4.28-6.03 0 0 2.1-6.31-1.12-8.56 0 0-3.16-2.74-13.26-2.95 0 0-17.81 0-20.83.42z" style="fill:#f8c215"/><path d="m479.66 190.31 1.51-1.61s-.41-1.68.57-2.2l1.73-8.93s.23-2.2 3.23-2.24l9.63-1.64 3.99-2.8-15.16 3.31s-2.89.18-3.34 2.95z" style="opacity:.9;fill:#fef493"/><path d="M536.54 181.75s-33.36-2.36-54.8 4.75c0 0-.82.42-.57 2.2l-1.51 1.61s29.34-5.68 52.6-2.52c0-.01 3.96-2.99 4.28-6.04" class="st96"/><path d="M529.1 177.47s-2.24 3.21.23 3.13c0 0 2.99 1.04 2.48-.88 0-.01-.09-4.21-2.71-2.25" style="fill:#0b0506"/><path d="M538.78 172.47s5.18 5.94-1.57 15.48c0 0 12.98.61 14.47 2.36 0 0 1.03-11.34 0-14.05 0 0-.09-1.59-3.18-2.24z" style="fill:#fec243"/><path d="m539.77 183.21 12.37.53-.46 6.56s-2.77-1.53-7.01-1.75l-7.37-.61c.01.01 2.47-4.03 2.47-4.73" class="st96"/><path d="M489.99 167.58s36.94-7.01 58.61 3.02c0 0 1.75 1.4.49-2.7 0 0-1.33-14.55-15.29-19.11 0 0-14.17-5.26-28.4-.77 0 0 1.51 4 4.66 3.23 0 0 1.75.67-1.23 1.16 0-.01-13.07 1.71-18.84 15.17" style="fill:#3d4243"/><path d="M505.4 148.01s17.86-5.47 32.84 2.77c0 0 8.71 3.75 11.31 18.36 0 0 .58 3.21-1.73 1.1 0 0-9.18-16.83-23.07-19.01 0 0-8.27-2.6-17.14-.39 0 .01-2.28-2.26-2.21-2.83" style="fill:#2e312e"/><path d="M621.68 292.91s6.17.7 10.87-1.47c0 0 5.82 13.75 5.82 20.06 0 0 .56 4.7-1.4 7.78 0 0-8.42 16.2-9.12 17.25 0 0 3.02-20.13 1.68-22.55 0 .01-4-15.18-7.85-21.07" style="fill:#3b3f3b"/><path d="M621.68 292.91s5.19 1.03 10.87-1.47c0 0 5.23 13.17 5.36 16.25l.52 5.89-11.07-6.95c.01 0-3.67-10.68-5.68-13.72" style="fill:#4c504a"/><path d="M574.03 202.53s34.79 14.96 51.81 31.33c0 0 2.71 1.96-.56 2.99 0 0-15.15 2.62-16.27 21.79 0 0-.84 10.66 2.06 24.22 0 0 9.73 12.72 10.61 21.13 0 0 2.57 14.68 1.64 20.48 0 0-1.03 8.98-2.06 3.55l-1.12-8.6-5.98 21.23s-3.55 15.62-22.16 32.17c0 0-9.91 7.85-4.96 1.4l7.11-14.68s-18.33 21.88-38.46 31.21c0 0-37.85 21.55-69.48 6.01 0 0-16.34-6.83-28.12-23.1l-9.44-13v-4.33s20.29 28.73 49.94 33.69c0 0 46.66 10.75 83.55-35.96 0 0 13.19-18.09 14.31-38.99 0 0-.28-13.33-2.03-16.1 0 0-4.35-13.85-13.75-18.97 0 0-9.75-5.89-12.06-5.4 0 0-1.61-1.47 2.17-2.24 0 0 12.34-5.75 15.64-17.6 0 0 3.37-12.13 1.82-23.08 0 0-3.1-13.5-6.21-17.2 0 0-3.91-5.36-10.13-9.8-.02 0-.45-3.3 2.13-2.15" style="fill:#3b3d3a"/><path d="M510.16 215.48s7.15.28 13.33-4.35c0 0 15.99-9.82 30.58-7.85 0 0 16.41 1.54 23.28 13.33 0 0 7.71 9.4 6.87 26.23 0 0 .56 13.33-6.73 20.34 0 0-10.38 10.1-14.59 11.36 0 0 19.34 8.14 24.82 19.78 0 0 6.6 14.19 2.39 32.76 0 0-2.52 14.79-15.85 30.22 0 0-20.69 24.13-46.82 28.05 0 0-29.21 5.52-53.62-10.28 0 0-22.44-17.48-26.79-35.51 0 0-8.74-21.55 1.59-47 0 0 2.34-8.06 17.07-18.3 0 0 1.4-.84-1.68-2.24 0 0-4.25-2.81-5.24-8.04 0 0-5.56-24.48-4.16-31.47 0 0-.35-9.86 2.6-13.79 0 0 5.54-14.87 20.69-14.87 0 0 4.49-2.1 14.73 5.05 0-.01 6.89 9.23 17.53 6.58" style="fill:#b1b3ad"/><path d="M573.25 280.05s14.03 7.29 17.41 24.59c0 0 3.09 14.63-2.66 29.64 0 0-7.77 20.02-23.52 32.45 0 0-22.91 23.42-56.15 19.54 0 0-29.35-.96-45.53-21.42 0 0-9.87-10.93-10.53-15.88 0 0 32.57 37.64 76.96 23.96 0 0 30.98-8.88 46.5-36.4 0 0 9.2-14.82 8.11-31.61 0 0-.84-13.75-6.73-19.36l-8.42-6.36c.01.01 3.32.11 4.56.85" style="fill:#82837d"/><path d="M453.68 259.01s.79 9.02 2.01 9.44c0 0 .94 2.06 3.32 5.28 0 0 .51.89-.47 1.03 0 0-6.73 4.68-11.69 13.56 0 0-9.44 12.48-7.76 37.54 0 0 5.14 23.89 9.54 30.46l.39 11.72s-3.2-3.24-6.82-11.72c0 0-8.81-15.87-9.28-30.27 0 0-.47-17.32 1.57-22.19l1.26-4.86s.63-2.81-.98-.42c0 0-5.26 5.26-5.47 8.63 0 0 1.54-11.92 5.61-17.39l16.69-26.37z" style="fill:#8f8c85"/><path d="M466 273.58s2.15.74 2.01 2.35c0 0-10.59 8.07-14.38 15.5 0 0-8 13.4-7.29 28.54 0 0 5 27.34 5.94 31.49 0 0-6.58-10.01-7.94-22.92 0 0-1.91-18.52.31-22.18 0 0 1.6-14.04 10.12-22.85 0 0 7.37-7.17 8.41-7.43 0 0 2.98-2.06 2.85-2.43z" style="fill:#fffdf9"/><path d="M478.04 335.76s-1.96-2.31 1.82-1.4c0 0 14.52 6.52 45.94 2.45 0 0-10.8 5.54-14.8 5.47 0 0-9.61 1.68-20.2-.56.01 0-9.3-2.19-12.76-5.96" class="st0"/><path d="M482.04 339.69s2.31 2.55 8.77 4.84c0 0 7.22 1.82 12.2 1.96 0 0 6.1.56 11.5-2.31l12.69-6.98s-.54-.8-1.78-.19c0 0-17.93 11.4-41.88 2.27.01 0-2.18-.55-1.5.41" style="fill:#83827d"/><path d="M451.18 308.69s1.72-2.38 4.61-.49c0 0 12.19 10.38 33.61 11.31 0 0 15.34 2.9 40.96-2.43 0 0 13.65-2.81 22.16-8.6 0 0 5.47-2.67 9.05-7.5l3.16-3.23s.7-.98-1.19-1.19c0 0-6.31-2.31-8.21-1.47 0 0 .42-2.17 4.49-2.59 0 0 6.38-1.19 11.08 3.16 0 0 5.4 5.96 3.72 11.57 0 0-.77.77-1.47-1.26 0 0-1.96-6.17-4.42-6.38 0 0-8.98 15.99-36.19 22.58 0 0-25.11 6.52-46.71 2.38 0 0-23.63-4.55-28.9-10.45 0-.01-5.61-3.17-5.75-5.41" class="st0"/><path d="M528.96 282.72c-.87.87-1.7 1.34-3.34 2.25-3.2 1.76-6.07 2.71-8.06 3.25l3.48-4.09-4.44-2.43-7.95.42-5.19 2.01-10.99-.61-5-7.34-6.36 1.92-6.08-4.5-.46.53s-.69 1.02 4.05 9.2l-.85-.11s1.92 2.13 1.78 3.16c0 0-.33.94-1.78-.56-1.45-1.49-4.52-3.13-6.38-8.25s.84-10.78 2.84-12.11c0 0 1.29-1.92 5.33-3.22 0 0 1.09-.88-.28-1.54-1.37-.67-4.56-5.93-3.05-13.54 0 0 .32-2 1.54 0 0 0 2 3.4 4.84.46 0 0 1.05-3.82-3.22-5.54 0 0 2.95-4.14 7.26-1.19 0 0 2.58 1.5 4.17 5.38 0 0 1.36 1.78.47-1.45 0 0-2.66-9.54-7.95-11.78 0 0-6.87-2.1-11.97 4.91 0 0-3.46 3.09-4.16 13.65 0 0 1.18 8.56 4.21 11.08 0 0 .84 2.01-1.4.7 0 0-2.29-.52-4.3-7.62 0 0-2.17-7.86 1.4-17.53 0 0 6.38-12.2 16.27-9.4 0 0 8.7 1.96 10.1 15.08 0 0 1.82 11.08-2.38 17.18l-3.75-.35s3.68-3.3 2.95-4.35c0 0-.98-1.33-2.98 1.79 0 0-1.78 3.28-.33 3.47 0 0 8.7 3.36 9.3 4.72 0 0 2.9 2.52 9.02-1.96 0 0 7.98-6.05 15.7-3 5.83 1.74 10.12 6.15 10.86 11.3.02.27.8 6.27-2.92 10.01" class="st110"/><path d="M478.09 279.96s-5.05-9.73 4.68-12.11c0 0 3.55-.98 9.35 2.57 0 0 5.66 4.96 14.73-.98 0 0 8.6-5.66 13.89-3.51 0 0 3.37.94 4.77 3.13 0 0 3.39 4.25 1.57 10.89 0 0-1.49 5.1-9.51 8.25 0 0 1.94-6.03-2.55-4.7 0 0-13.82 2.45-14.45 3.72 0 0-.98 2.17-3.65 1.4 0 0-8.63-.7-10.52-2.24l-3.79-3.65c-.01.01-2.79 1.39-4.52-2.77" class="st111"/><path d="M482.6 282.18s-4.87-4.28-2.14-4.87c0 0 1.51-.74 4.24 1.51 0 0 3.05 2.28 3.82 3.82 0 0 3.75 1.75 3.93-.88 0 0-1.12-6.52-5.12-9.22 0 0-2.31-2.6-6.59-1.3-.33.21-.79.55-1.25 1.06-.37.4-1.1 1.23-1.4 2.52-.04.19-.21.95-.07 1.94.23 1.64 1.14 2.76 1.6 3.25 0 0 1.97 2.06 2.98 2.17" class="st112"/><path d="M502.19 282.85s1.17-7.33 9.59-10.73c0 0 3.89-1.89 6.21-.25.38.28.92.74 1.38 1.45 1.15 1.77.86 3.66.74 4.4-.11.63-.48 2.88-1.58 3.02-.73.09-1.4-.79-1.62-1.09-.21-.26-.52-.58-.97-.79-1.49-.72-3.09.27-3.24.36-1.56.59-2.8 1.15-3.66 1.57-2.54 1.22-3.81 1.83-3.87 1.87 0 0-.48.31-1.57.68-.63.21-.97.25-1.18.08-.18-.16-.22-.41-.23-.57" class="st110"/><path d="M474.91 271.2s4.35-10.03 15.06-5.36c0 0 7.57 5.98 13.47 1.5 0 0 9.16-6.04 16.32-2.74 0 0 3.14 1.55 4.56 3.17 0 0-3.9-4.2-11.52-1.26 0 0-10.66 5.85-11.92 5.56 0 0-4.31 1.83-10.13-2.43 0 0-8.14-5.33-13.2 1.75 0 0-2.5.88-2.72.26-.06-.11-.03-.25.08-.45" style="fill:#fffbfb"/><path d="M490.85 261.05s10.51 1.28 24.5-3.77c0 0 .95-1.3-3.72-.95 0 0-18.23 1-18.65.48.01.01-1 3.48-2.13 4.24" style="fill:#7d7d76"/><path d="M509.84 256.43s-5.75.38-10.29 4.48c0 0 10.36-1.11 15.8-3.63 0 0 .69-1.26-2.83-1.01z" class="st112"/><path d="M466.02 273.66s-4.58-3.99-5.12-4.8c0 0-2.16-2.39-2.72-7.66l-3.05-17.02s2.58-13.68 4.96-15.79c0 0 11.15-12.42 23.42-8.28 0 0 4.44 2.34 6.27.99 1.82-1.36 2.52-1.83 2.52-1.83s3.76 13.33 21.3 9.69c0 0 5.68-1.19 14.8-9.4 0 0 1.68 5.4 9.68 2.21 0 0 7.82-4.66 20.83-.21 0 0 5.22 2.42 7.54 4.77 0 0 2.91 2.81 4.77 2.07 0 0 6.09 7.34 6 12.2 0 0 .47 11.6-4.77 16.65 0 0-7.34 4.25-8.09.56 0 0 3.04-14.68-5.38-24.92 0 0-8.56-10.66-22.16-1.4 0 0-9.54 8.07-6.87 23.56 0 0-1.43 2.08-2.9-1.31 0 0-3.04-7.48-21.13-5.33 0 0-10.43 3.11-12.14 3.63 0 0 .33-9.54-.96-11.92 0 0-3.17-15.39-17.03-10.65 0 0-10.89 5.37-10.73 18.21 0 0-.83 9.96 4.47 15.43 0 0 2.07 1.56 2.04.11 0 0 3.21.67 4.91.1 0 0-4.45 2.86-4.66 5.53 0 0-1.13 3.1-.97 3.73-.02-.01-2.7 1.81-4.83 1.08" style="fill:#767871"/><path d="M471.55 263.22s4.16.84 7.03-.65c0 0 2.23-.27 1.05-1.65 0 0-2.45-1.23-3.45-6.17 0 0-1-8.92.87-8.41 0 0 2.95 4.92 5.59 1.01 0 0 .74-4.24-3.28-5.29 0 0 2.74-4.37 7.54-1 0 0 1.37.49 4.12 5.26 0 0 1.04 1.37.18-1.7 0 0-3.02-11.94-9.99-11.89 0 0-5.19-.5-8.92 4.01 0 0-3.63 3.25-4.66 10.76 0 0-.47 3.9 0 6.63.02 0 .97 6.29 3.92 9.09" style="fill:#fff"/><path d="M533.68 241.25s5.05-10.75 15.85-9.54c0 0 7.76 1.12 11.27 9.96 0 0 2.15 4.96 1.54 13 0 0-.05 5-3.04 7.06l-4.16.33s-.84-.56.14-1.4c0 0 4.82-2.85 3.18-10.94 0 0-1.36-9.35-9.3-9.4 0 0-3.04.28-3.32.61 0 0-1.03.65.47 1.22 0 0 3.1 1.87 1.76 5.8 0 0-.73 2.34-3.21 2.29 0 0-1.54-.05-2.48-3.39 0 0-.89-2.41-1.45 1.99 0 0-1.22 6.73 3.18 11.31 0 0 3.18 3.63 4.91 3.48 0 0-6.87 2.98-7.29 3.77 0 0-6.22-2.13-9.21-9.08 0 0-.19-6.35-.75-8.14 0-.02-.03-6.35 1.91-8.93" style="fill:#fffffa"/><path d="M553.28 257.25s4.38-3.47 3.49-1.09c0 0-1.58 3.03-4.09 2.54 0 0-1.78-.37.6-1.45z" style="fill:none;stroke:#70bf44;stroke-miterlimit:10"/><path d="M479.34 258.37s-.54 1.67.67 2.37c0 0 1.22.12.82-2.1 0 0-.79-1.61-1.49-.27" style="fill:#c5c4ac"/><path d="M533.22 273.41s1.26 11.22-12.48 15.06c-.01 0 15.51-3.27 12.48-15.06" class="st111"/><path d="M474.91 271.2s-1.84 5.91 2.99 8.35c0 0-1.96-4.77-.26-8.35z" style="fill:#c9c9c9"/><path d="M475.15 276.72s2.28 5.34 5.21 8.73c0 0 1.41 4.18-2.95 0 0 0-4.46-3.25-5.77-7.25z" class="st110"/><path d="M530.53 258.03s-2.15-8.56 0-15.48c0 0 2.52-14.12 16.08-14.96 0 0 10.57.56 14.03 7.85 0 0 4.68 7.39 3.93 19.73 0 0 .37 3.27-2.9 4.11 0 0 2.24-12.81-1.31-18.52 0 0-2.99-8.79-14.21-8.98 0 0-6.57 0-12.4 8.98 0 0-2.75 6.36-1.53 12.81 0 0 .28 4.21.37 4.86-.01.02-.05 1.91-2.06-.4"/><path d="M542.28 246.38s1.51 4.94 3.68 3.61c0 0 3.05-.63 2.31-4.56 0 0-.94-2.98-2.94-3.54 0 0 .31-1.23 2.66-1.47 0 0 4.84-.28 6.56 1.86 0 0 3.12 1.93 4.17 8.1 0 0 1.05 4.59-1.23 8.14l-2.28 2.6s-1.02.84.53.74c0 0 7.26.67 8.24 2.35 0 0 .21.53-.98.32 0 0-9.78-2.1-20.72 4.98 0 0-.88-.21-.32-1.96 0 0 2.88-1.82 6.38-3.51 0 0-6.21-4-7.12-9.33 0 0-.88-6.17.28-8.03.01-.02.18-1.11.78-.3" style="fill:#0e0c09"/><path d="M552.33 258.04s4.25-3.34 4.35-2.36c0 0 .49.96-1.36 2.36 0 0-1.73 1.59-2.99.47 0 0-.24-.28 0-.47" style="fill:#fff7d7"/><path d="M436.51 362.22c0 .87-3.25 42.63 2.01 55.1.62.47 1.31.93 2.07 1.36 4.69 2.64 9.55 2.58 12.48 2.25 1.05-.85 3.85-2.86 7.98-3.2 5.03-.42 8.66 1.93 9.68 2.64 3.32 2.69 6.69 5.49 10.08 8.39 4.75 4.07 9.28 8.11 13.6 12.11.23-1.05.46-2.61.3-4.47-.19-2.25-.89-4.15-2.48-7.11a61 61 0 0 0-6.36-9.51c-3.23-3.42-6.46-7.17-9.85-11.08-5.06-5.85-10.38-12.3-11.42-14.73l-6.58-11.96s-3.56-4.93-1.93.07c0 0 2.86 6.81-1.32 1.59 0 0-15.24-16.09-17.06-22.29l-.7-1.41z" class="st53"/><path d="M439.29 366.64s2.63 7.68 6.73 13.48l7.74 9.06s3.56 2.97 4.95 6.23l11.99 17.83s11.3 3.62 15.01 8.63c0 0-.19-2.45-2.55-5.09l-11.57-13.3s-10.68-13.03-12.31-19.18c0 0-4.93-8.27-3.2-2.23 0 0 2.77 6.95-1 1.98 0 0-13.15-14.53-14.29-17.08 0 .02-2.01-1.72-1.5-.33" style="fill:#d59c29"/><path d="M478.6 200.49s11.91 3.3 16.61 9.1c0 0 8.9 9 25.61 2.3 0 0 16.81-10.8 21.41-10.3 0 0 11.91-2.8 20.21-.1 0 0 19.61 6.2 23.71 13.61 0 0-5.6-10.5-6.8-10.5 0 0-19.98-8.63-38.97-9.53 0 0-48.17-3.38-62.65 3.75-.01 0 .92.35.87 1.67" class="st123"/><path d="M488.23 200.77s10.17 12.66 21.7 10.81c.15-.02.29-.05.44-.08 11.7-2.25 21.83-8.63 28.51-11.18-.01 0-24.02-3.23-50.65.45" style="fill:#4b5050"/><path d="M477.72 198.82s-14.63 4.98-12.46 5.87c0 0 10.74-5.02 13.33-4.19.01-.01.03-1.46-.87-1.68" class="st123"/><path d="M571.88 204.68s26.74 14.4 27.21 34.51l1.5 25.06-4.58-5.79s-1.31 8.79 1.22 16.74c0 0 10.94 20.48 9.91 35.81l-2.43-5.61s2.62 10.75-5.61 28.9c0 0 3.55-16.74-1.59-28.52 0 0-2.37-5.81-3.11-6.79 0 0-7.57-17.71-13.75-18.97 0 0-8.21-4.84-12.06-5.4 0 0-1.61-1.12 2.17-2.24 0 0 9.63-5.21 14.45-14.05 0 0 4.35-9.73 3.02-26.63 0 0-4.14-17.6-9.33-20.9z" style="fill:#50514c"/><path d="M459.65 225.35s2.52-9.5 10.84-12.17c0 0 5.93-3.54 17.53-1.05 0 0 4.24.98 4.24 7.08-.21.4-.61 1-1.29 1.49-1.54 1.11-3.29.8-3.66.73-.68-.16-1.48-.38-2.37-.69-1.35-.47-1.79-.77-2.89-1.06-.98-.26-1.74-.32-2.44-.38-2.18-.17-3.86.11-4.32.19a15.8 15.8 0 0 0-4.66 1.61c-.95.47-1.94 1.01-2.95 1.65-1.74 1.1-4.02 2.75-6.16 4.94-.01.01-3.45 3.83-1.87-2.34" style="fill:#070705"/><path d="M531.33 214.48s-3.47 2.81-2.24 5.65c0 0 1.65 4.7 10.34 1.12 0 0 6.52-3.23 15.99-.74 0 0 7.01 1.65 11.47 6.28 0 0 5.37 3.61 4.14.81 0 0-2.91-8.91-10.48-13.11 0 0-5.65-2.67-9.68-3.09-.01 0-14.39-1.83-19.54 3.08" style="fill:#131411"/></svg>