<?xml version="1.0" encoding="utf-8"?>
<!-- Generator: Adobe Illustrator 24.0.2, SVG Export Plug-In . SVG Version: 6.00 Build 0)  -->
<svg version="1.1" id="Layer_1" xmlns="http://www.w3.org/2000/svg" xmlns:xlink="http://www.w3.org/1999/xlink" x="0px" y="0px"
	 viewBox="0 0 1080 1080" style="enable-background:new 0 0 1080 1080;" xml:space="preserve">
<style type="text/css">
	.st0{fill:#030202;}
	.st1{fill:#F4BD18;}
	.st2{fill:#4A4C45;}
	.st3{fill:#949386;}
	.st4{fill:#2C2E2E;}
	.st5{fill:#323430;}
	.st6{fill:#D9A96D;}
	.st7{fill:#E6BA78;}
	.st8{fill:#F3BE19;}
	.st9{fill:#CE942A;}
	.st10{fill:#FFF493;}
	.st11{fill:#FEE964;}
	.st12{fill:#F6C514;}
	.st13{fill:#CE922A;}
	.st14{fill:#CC962B;}
	.st15{fill:#FBD44B;}
	.st16{fill:#D39B2A;}
	.st17{fill:#C58F2C;}
	.st18{fill:#D49929;}
	.st19{fill:#FBF28A;}
	.st20{fill:#CF982A;}
	.st21{fill:#FECC08;}
	.st22{fill:#D0972A;}
	.st23{fill:#0D0607;}
	.st24{fill:#CB8B2A;}
	.st25{fill:#F6C221;}
	.st26{fill:#C78B2B;}
	.st27{fill:#908F87;}
	.st28{fill:#474842;}
	.st29{fill:#2D2F2E;}
	.st30{fill:#494C47;}
	.st31{fill:#FBD26C;}
	.st32{fill:#EFBC6B;}
	.st33{fill:#FEE665;}
	.st34{fill:#DBA727;}
	.st35{fill:#8E9696;}
	.st36{fill:#3E413D;}
	.st37{fill:#CFD2D0;}
	.st38{fill:#3A3B3A;}
	.st39{fill:#282827;}
	.st40{fill:#3C3F3E;}
	.st41{fill:#2E2D2A;}
	.st42{fill:#787D7B;}
	.st43{fill:#2C2D2B;}
	.st44{fill:#4D4E47;}
	.st45{fill:#D09B2A;}
	.st46{fill:#D0982A;}
	.st47{fill:#FAD032;}
	.st48{fill:#D29D2A;}
	.st49{fill:#D39E2A;}
	.st50{fill:#CD9A2B;}
	.st51{fill:#CD952B;}
	.st52{fill:#FCF286;}
	.st53{fill:#F9CB0E;}
	.st54{fill:#FDF5A2;}
	.st55{fill:#FEE754;}
	.st56{fill:#353633;}
	.st57{fill:#535451;}
	.st58{fill:#13110D;}
	.st59{fill:#7F807D;}
	.st60{fill:#AFAFA8;}
	.st61{fill:#FEE766;}
	.st62{fill:#383836;}
	.st63{fill:#585954;}
	.st64{fill:#949288;}
	.st65{fill:#F9F4EC;}
	.st66{fill:#ADAFA8;}
	.st67{fill:#7E7F77;}
	.st68{fill:#484940;}
	.st69{fill:#D0CBC2;}
	.st70{fill:#6D716B;}
	.st71{fill:#EBEBDC;}
	.st72{fill:#9C9C93;}
	.st73{fill:#999C95;}
	.st74{fill:#121F1A;}
	.st75{fill:#3B6E7A;}
	.st76{fill:#5B99A1;}
	.st77{fill:#ABACA7;}
	.st78{fill:#7E8179;}
	.st79{fill:#A6A7A2;}
	.st80{fill:#ECE1D1;}
	.st81{fill:#BDBDB3;}
	.st82{fill:#C3C9CA;}
	.st83{fill:#888883;}
	.st84{fill:#7A7B73;}
	.st85{fill:#F5C433;}
	.st86{fill:#D1912A;}
	.st87{fill:#FFEF4C;}
	.st88{fill:#FDE875;}
	.st89{fill:#DD9D27;}
	.st90{fill:#D8A045;}
	.st91{fill:#B3822C;}
	.st92{fill:#8E9492;}
	.st93{fill:#E5E9E5;}
	.st94{fill:#F8C215;}
	.st95{opacity:0.9;fill:#FEF493;}
	.st96{fill:#C4902C;}
	.st97{fill:#0B0506;}
	.st98{fill:#FEC243;}
	.st99{fill:#3D4243;}
	.st100{fill:#2E312E;}
	.st101{fill:#3B3F3B;}
	.st102{fill:#4C504A;}
	.st103{fill:#3B3D3A;}
	.st104{fill:#B1B3AD;}
	.st105{fill:#82837D;}
	.st106{fill:#8F8C85;}
	.st107{fill:#FFFDF9;}
	.st108{fill:#83827D;}
	.st109{fill:none;stroke:#70BF44;stroke-miterlimit:10;}
	.st110{fill:#10110D;}
	.st111{fill:#9A9991;}
	.st112{fill:#040303;}
	.st113{fill:#FFFBFB;}
	.st114{fill:#7D7D76;}
	.st115{fill:#767871;}
	.st116{fill:#FFFFFF;}
	.st117{fill:#FFFFFA;}
	.st118{fill:#C5C4AC;}
	.st119{fill:#C9C9C9;}
	.st120{fill:#0E0C09;}
	.st121{fill:#FFF7D7;}
	.st122{fill:#D59C29;}
	.st123{fill:#313834;}
	.st124{fill:#4B5050;}
	.st125{fill:#50514C;}
	.st126{fill:#070705;}
	.st127{fill:#131411;}
</style>
<path class="st0" d="M449.43,992c0,0-20.48,9.61-31.14,11.57c0,0-14.07,4.56-42.5,2.69c0,0-17.58,0.03-41.33-6.9
	c0,0-11.97-3.47-11.5-11.33c0,0-1.4-12.44,3.37-19.54c0,0,0.56-11.78,2.81-13.75c0,0,4.39-14.59,24.69-20.76
	c0,0,17.95-4.02,19.36-3.65c0,0,0.19,0.79,1.78-1.08c0,0,3.79-3.25,7.78-5.07c0,0,3.89-2.03,5.3-4.03c0,0,2.63-1.44,0.81-3.58
	c0,0-3.44-4.49-3.12-11.05c0,0-0.42-13.33,1.58-16.8c0,0,1.39-3.42,2.25-4.3c0.04-0.05,0.09-0.08,0.13-0.12
	c0.84-0.63-0.46-1.12-0.91-2.21c0,0-3.09-5.22-2.45-8.94c0,0,2.03-10.94,2.14-13.5c0,0,0.42-9.36-0.49-11.22
	c0,0-3.37-8.35-3.37-9.57c0,0-1.75-9.75-0.95-13.08l0.81-13.01l0.6-10.59l0.49-10.87l0.77-12.55l1.05-12.76l1.3-13.08l1.12-10.94
	l1.37-12.38l1.54-9.68l2.14-11.15l2.07-10.66c0,0,0.88-2.24,0.91-1.72c0,0,0.25-1.09-0.53-1.86c0,0-1.02-8.7-0.81-10.77
	c0,0-0.14-12.1,0.53-13.96v-2.77c0,0,0.07-1.23-1.09-1.89c0,0-3.33-4.66-2.91-8.38c0,0,0.11-6.59,2.74-9.85c0,0,1.86-3.02,0.04-9.71
	l-1.89-13.5l-1.4-10.59l-1.47-10.98l-1.65-11.54l-1.75-11.22l-1.51-9.82l-2.83-17.1c0,0-1.4-8-2.81-9.96l-0.94-1.4
	c0,0-0.84-1.36-3.09,0c0,0-13.47,8.46-16.83,9.12c0,0-7.29,4.49-16.08,5.05c0,0-5.52-0.28-6.45-1.22c0,0-1.31-1.59-4.3-0.19
	c0,0-22.91,9.91-57.98,6.45c0,0-1.22-0.19,0.65,2.34l3.46,4.49c0,0-14.77,2.43-38.9-12.16l-6.92-6.27c0,0-2.71-4.21-2.52-0.65
	c0,0,0.42,2.99-0.94,3.93c0,0-3.79-0.37-5.05-3.51c0,0-6.92-10.05-8.51-17.44c0,0-3.46-13.56-4.4-19.82c0,0-0.61-5.96-0.4-6.34
	c0,0-2.81-0.33-3.16-2.31c0,0-4.51-22.96-0.3-35.23c0,0,2.45-47.69,54.84-93.14l0.91,0.68c0,0,0.75,1.4,2.2-0.68
	c0,0,22.68-20.64,24.08-23.45c0,0,10.75-10.94,18.05-27.77c0,0,1.75-3.51,3.83-0.26l0.98,1.29c0,0,0.75,1.19,1.26-0.79
	c0,0,4.16-9.12,4.69-13.71c0,0,6.53-23.74,10.65-29.07c0,0,4.77-6.59,13-9.77c0,0,1.78-0.28,2.48-2.57c0,0,6.22-12.9,14.87-16.74
	c0,0,4.04-1.94,7.06-2.62c0,0,1.87,0.56,4.11-4.3c0,0,7.34-12.18,23.33-13.3c0,0,9.49-1.38,18.19,4.42c0,0,0.84,2.24,2.62-1.03
	c0,0,13.7-14.12,15.17-16.86c0,0,5.19-5.26,11.92-4.28l6.73,1.05c0,0,2.24,1.54,2.45-1.47c0,0,3.16-6.87,4.07-7.64
	c0,0,1.54-0.84,1.54-3.86c0,0,2.24-24.13,4.14-27.28c0,0,4.93-22.7,15.22-34.76c0,0,24.62-28.43,69.22-27.38c0,0,9.51-14.52,27-1.24
	c0,0,2.9,4.11,3.09,5.61c0,0,32.4,9.87,47.83,25.72c0,0,14.35,12.53,20.81,29.27c0,0,4.72,8.88,5.14,33.99v25.11
	c0,0-3.3,1.47,29.32,29.88c0,0,18.94,16.97,19.57,26.16c0,0,2.67,10.59-3.58,15.85c0,0-3.16,3.65-11.71,5.19
	c0,0-11.92,1.54-17.95,0.56l-8.63-0.91c0,0,1.54,1.89,1.89,2.88c0,0,5.61,12.83,7.78,15.22c0,0,4.84,9.12,7.71,9.68
	c0,0,25.53,12.62,26.23,15.29c0,0,17.25,9.68,21.04,9.68c0,0,39.42,15.57,56.25,45.59c0,0,10.38,16.55,16.83,40.96
	c0,0-1.68,3.93,14.87,30.86c0,0,8.98,19.08,11.08,26.23c0,0,3.23,4.21-2.81,12.9l8.42,35.63c0,0-0.14,6.03,4.49,13.19
	c0,0,22.93,32.75,18.09,60.53c0,0-5.68-7.36-5.26-2.95c0,0,9.47,31.77-3.16,75.11c0,0-17.67,52.32-18.52,65.22
	c0,0-2.24,12.2-7.57,9.26c0,0-4.21,37.87-6.31,40.61l-4.21,13.68c0,0-7.57,10.1-19.15,13.68c0,0-12.41,10.1-28.82,5.89
	c0,0-8.63,5.89-26.72-2.1c0,0-17.25,1.26-29.88-18.94c0,0-2.1-10.1-0.42-10.31c0,0-12.83-2.52-14.1-15.99c0,0,4-17.25,4.84-26.72
	c0,0,3.76-14.1,7.6-16.81l15.76-13.56c0,0,7.57-4.77,7.29-23c0,0,1.82-16.55-8.14-34.93c0,0-8.98-19.92-6.87-42.22
	c0,0,1.68-21.6,4.91-29.88c0,0,2.1-8.14-1.96-8c0,0-13.33-9.4-15.43-15.29c0,0-0.84-2.38-2.1,0.42c0,0-7.85,15.43-10.1,17.74
	c0,0-4.07,4.77-5.75,8.21l-3.23,4.14c0,0-1.47,1.33-1.96,4.84l-3.65,19.36c0,0-1.68,3.51,0,7.36c0,0,3.93,6.59-1.19,14.45l-3.51,4
	c0,0-0.49,0.7-0.07,4.07c0,0,1.19,19.01,0.63,21.18c0,0-1.12,3.93-0.42,6.17c0,0,5.96,14.03,10.59,60.03l5.61,53.72
	c0,0,1.68,12.2,3.65,15.99c0,0,1.96,6.17,1.82,12.9c0,0,7.71,19.78,8.84,22.3c0,0,2.81,9.96-1.82,18.23c0,0,8.14,4.07,6.87,24.41
	c0,0-1.12,9.26-7.15,14.03c0,0-1.96,1.4,0.98,4.49l6.59,11.64c0,0,0.98,3.37,9.26,9.26c0,0,11.5,7.29,14.59,22.86
	c0,0,1.54,7.71,3.51,11.36c0,0,2.38,12.34-0.98,19.36c0,0-2.38,8.56-23,12.2c0,0-42.08,6.31-54.84,2.95c0,0-22.44-2.67-25.11-5.19
	c0,0-12.2-6.31-13.33-11.78l-1.96-4.91c0,0,1.26-0.14-6.59-4.91c0,0-5.61-2.67-7.29-8.56v-16.55c0,0,0.42-3.79,0.98-3.79
	c0,0,0.42-23.99,0.7-25.11l0.42-2.24c0,0-7.86-3.37-10.66-11.92c0,0-2.81-16.76-1.05-20.9c0,0-7.5-6.03-8.21-17.67
	c0,0-0.21-16.97-6.45-26.23l-30.37-51.13c0,0-2.38-5.61-10.59-7.64l-20.34,42.55c0,0-1.12,2.34-0.47,4.3c0,0,1.4,6.17-3.09,11.5
	c0,0-1.22,1.31-0.19,3.55c0,0,4.21,12.34,4.3,15.8c0,0,2.62,12.62-3.74,17.21c0,0-0.37,1.12,0.84,2.99c0,0,1.03,4.68,1.5,8.32
	c0,0,0.09,8.88-1.03,13.09c0,0-2.34,8.42-6.83,10.29c0,0-0.56,0.56,0.75,2.9c0,0,3.46,11.97,3.18,20.39c0,0-0.09,7.29,0.75,9.16
	c0,0,3.46,8.88,1.5,15.71c0,0-0.75,7.86-3.46,10.1c0,0-1.12,2.62-10.85,5.14"/>
<path class="st1" d="M598.67,966.26v12.11c0,0-0.14,1.24,0.96,2.06c0,0,4.51,3.58,5.66,4c0,0,2.13,1.24,2.03-0.4l0.37-5.77
	c0,0,0.23-0.94,1.36,0.33c0,0,1.78,1.73,1.71,3.62c0,0,0.49,11.06,4.84,15.78c0,0,4.68,6.13,13.75,7.48c0,0,21.86,5.19,44.23,3.02
	c0,0,28.97-2.17,36.05-6.31c0,0,7.34-2.08,7.57-8.49l-0.33-8.28c0,0,0.23-1.54-1.78-0.19c0,0-21.66,10.98-62.04,9.16
	c0,0-31.3,0.21-39.23-11.36c-0.75-1.04-1.23-1.95-1.54-2.59c-0.56-1.17-0.59-1.57-1.24-2.65c-0.51-0.84-1.06-1.54-1.29-1.82
	c-0.49-0.62-0.89-1.05-1.05-1.22c-2.78-2.97-3.36-3.84-5.26-5.59c-0.87-0.81-4-3.68-4.65-3.15
	C598.71,966.08,598.68,966.18,598.67,966.26z"/>
<path class="st2" d="M610.57,942.63h13c0,0,1.26,2.17,4,2.52c0,0-2.1,3.3-0.42,5.47c0,0,1.96,4.35,3.93,4.77
	c0,0,0.98,0.05-1.17,1.78c0,0-6.03,6.13-6.69,10.75c0,0,0,2.15,3.93-2.95c0,0,8.51-10.66,21.09-13.75c0,0,15.1-5.05,28.66-2.29
	c0,0,13.51,1.82,16.53,18.16c0,0,3.23,16.27-5.47,19.01l-2.1,0.98c0,0-19.29,2.45-32.89,1.54c0,0-21.67-0.98-27.56-4.42
	c0,0-6.94-1.4-8.98-6.87c0,0-0.44-3.11,0.02-5.45c0,0,0-2.1-0.42-3.04c0,0-0.41,1.53-0.05,2.62c0,0-0.79,1.59-0.89-4.35
	C615.08,967.13,608.49,947.07,610.57,942.63z"/>
<path class="st3" d="M631.95,965.73c0,0-2.67,6.21,2.24,5.3c0,0,3.19-1.75,4.1-3.3c0,0,3.37-3.68,3.54-5.26c0,0,1.37-3.89-2.1-3.79
	c0,0-2.17,0.21-4.21,2.24C635.53,960.93,632.72,963.98,631.95,965.73z"/>
<path class="st4" d="M685.85,987.09c0,0,19.22-0.7,28.68-6.87c0,0-4.42-24.06-19.64-29.32c0,0-9.47-4.91-12.76-4.21
	c0,0-2.17,0.33-5.4-0.47c0,0-17.25-4.23-27.7,1.38c0,0,20.51-2.03,26.51,0.42c0,0,5.05,1.35,5.95,2.43c0,0,6.41,3.2,8.57,7.68
	c0,0,4.37,6.56,3.94,16.43c0,0-0.21,7.92-3.87,10.41C690.14,984.98,686.57,987,685.85,987.09z"/>
<path class="st5" d="M601.48,935.01l-1.17,23.99c0,0-0.37,1.92,1.17,2.15c0,0,10.01,6.54,10.99,9.98c0,0,0.84,1.05,1.82,3.86
	c0.29,0.5,0.52,0.72,0.68,0.69c0.34-0.08,0.41-1.33,0.2-3.75c-0.03-0.6-0.06-1.51-0.08-2.63c-0.01-1-0.01-1.65-0.01-1.86
	c0-1.08-0.28-2.76-1.54-5.31c-0.11-0.39-0.22-0.78-0.33-1.17c0,0-2.2-7.81-2.29-9.29c0-0.04,0-0.08,0-0.11
	c0.03-1.15-1.24-5.71-0.66-7.86l0.3-1.06h13c0,0-0.94-1.4-0.7-7.27L601.48,935.01z"/>
<path class="st6" d="M632.16,946.59c0,0,10.23-8.59,27.15-8.87c0,0,15.62-0.65,19.45,2.06c0,0,2.24,1.17,1.5,2.85l-7.2-0.51
	c0,0-4.72-0.85-19.03,1.07c0,0-8.7,1.5-19.73,7.57C634.3,950.76,631.24,948.26,632.16,946.59z"/>
<path class="st7" d="M628.27,935.01c0,0-1.31-0.19-1.08,1.73c0,0,0.19,4.58,3.04,3.46c7.62-2.8,11.7-4.3,11.7-4.3
	c0,0,9.46-2.28,17.24-2.91c3.78-0.31,9.18-0.39,15.86,0.75c0.02-0.49-0.13-1.28-0.37-2.25c-0.28-1.12-0.75-2.21-1.5-2.14
	l-24.13,2.38C649.03,931.73,628.55,935.24,628.27,935.01z"/>
<path class="st4" d="M679.06,928.05c0.42-0.41,1.25-0.41,1.83-0.13c0.64,0.3,0.9,0.9,0.97,1.08c0.43,1.13,0.93,2.33,1.53,3.58
	c0.82,1.73,1.69,3.27,2.53,4.62c0.63,1.13,1.27,2.33,1.89,3.58c0.68,1.35,1.29,2.66,1.86,3.93c0,0-0.07,0.35-1.4,0
	c-0.61-0.12-1.25-0.24-1.93-0.34c-0.71-0.1-1.39-0.18-2.04-0.24c0.04-0.44,0.06-0.94,0.02-1.49c-0.1-1.32-0.47-2.39-0.82-3.13
	c-0.35-0.5-0.69-1.03-1.04-1.59c-0.35-0.56-0.67-1.1-0.97-1.64c-0.36-0.68-0.86-1.69-1.37-2.95
	C679.11,930.85,678.28,928.81,679.06,928.05z"/>
<path class="st8" d="M590.68,902.23c0,0-1.47-0.77-1.47,1.4c0,0-0.98,10.03,1.47,16.69c0,0,0.91,4.63,7.86,5.89
	c0,0,15.36,3.37,51.41-1.4c0,0,30.51-5.05,33.87-9.33c0,0,4.21-1.89,3.86-12.9c0,0-0.7-8.7-1.89-10.24c0,0-0.35-2.74-2.74-0.56
	c0,0-10.38,7.36-36.47,12.55C646.57,904.33,614.1,909.45,590.68,902.23z"/>
<path class="st9" d="M589.85,902.14c0,0-4.74,23.81,10.42,24.36c0,0,35.12,3.9,72.24-6.42c0,0,7.43-0.98,9.28-5
	c0,0,3.44-10.85-1.8-20.57l-13.53,4.66c0,0-0.21,9.74-5.64,12.92c0,0-1.44,2.52-22.46,6.83c0,0-22.52,4.58-31.68-0.47
	c0,0-4.21-2.43,0.09-8.88l1.66-2.71C608.42,906.86,590.63,903.32,589.85,902.14z"/>
<path class="st10" d="M596.14,903.67c0,0,21.26,5.22,54.01,0c0,0,15.43-3.72,16.3-4.5c0,0-15.47,10.21-56.28,7.9
	C610.17,907.07,597.47,904.96,596.14,903.67z"/>
<path class="st11" d="M679.56,893.79c0,0,7.81,16.05,0,24.1c0,0,8-1.71,8.02-11.24c0,0,0.51-11.92-2.71-15.71
	C684.87,890.94,679.92,893.61,679.56,893.79z"/>
<path class="st12" d="M578.4,864.57c0,0,2.81,14.03,3.51,20.34c0,0,1.82,10.87,13.61,13.11c0,0,28.08,6.03,61.09-1.36
	c0,0,15.92-2.71,23.28-10.22l3.7-12.83c0,0,0.93-5.05-1.38-9.05c0,0-6.45-12.97-7.15-17.18c0,0-1.61-11.71-1.47-12.97
	c0,0-1.54-5.68-2.03-3.37c0,0-0.7,19.64-8.63,28.82c0,0-2.49,2.37,1.4-3.86c0,0,4.21-8.49,5.89-20.76l0.28-4.76
	c0,0,0.21-3.79-0.28-5.34l-4.35-35.91l-3.83-36.12l-2.71-20.11l-5.14-29.18c0,0,0-1.59-2.29-0.7c0,0-33.38,9.87-35.81,9.02
	c0,0-20.27,4.56-25.25,4.49c0,0-0.19,5.1-3.23,6.27c0,0-4.35,2.38-13.84,1.26c0,0-3.18,0.42-3.37-3.13l-0.12-3.04
	c0,0,0.26-0.7-1.66-0.21c0,0-30.2,4-35.3,3.06c0,0-4.54,7.11-16.22,6.08c0,0-28.59,0.02-38.41-2.22c0,0-4.56-0.21-10.12-6.99
	l-22.07-4.44c0,0-1.45-0.65-1.17,1.08c0,0,0.89,5.42-11.5,3.23c0,0-6.36-0.33-6.36-5.66c0,0,0.28-3.46-2.9-4.25
	c0,0-16.61-4.21-19.87-6.17c0,0-0.88-0.39-0.91,1.72c0,0-6.76,42.79-6.48,51.12l-4.68,53.63c0,0-2.38,23.42,0,25.67
	c0,0,3.88,16.04,6.78,19.5l3.81,7.5c0,0,4.77,6.94-1.68,1.47l-2.38-1.96c0,0-1.68-3.02-2.31-7.29c0,0-1.54-0.7-0.07,3.79
	c0,0,1.33,6.03-0.28,9.26l-1.33,5.33c0,0-0.91,3.72,0,5.12c0,0,1.54,6.94,7.78,10.52c0,0,32.75,14.52,76.38,9.05
	c0,0,16.83-1.4,18.09-10.1c0,0,1.12-4.42,0.91-6.52c0,0-3.44-18.94-4.7-20.06c-1.26-1.12,0.28-6.31,0.28-6.31s3.16-3.23,3.02-6.45
	l-0.91-3.16c0,0-0.84-1.05,0.49-2.95c0,0,10.87-25.39,12.2-26.65l9.61-18.3c0,0-29.92-7.41-44.6-21.81l-4.3-3.83
	c0,0,5.61,3.18,9.35,4.21l25.44,9.54l5.91,0.96l8.49,3.16c0,0,3.16,1.12,5.26,1.19c0,0,12.41,2.45,14.8,5.68
	c0,0,22.86,34.55,25.39,41.57c0,0,10.47,19.08,13.47,20.48l16.83,16.65l-15.8-9.44C578.52,863.75,578.11,863.07,578.4,864.57z"/>
<path class="st13" d="M578.52,863.75c0,0,14.89,7.83,14.26,10.85c0,0-1.82,1.12-1.75,4.14c0,0-0.24,3.72,1.77,7.93
	c0,0,0.68,2.45,4.89,3.44c0,0,11.5,5.12,28.47,5.47c0,0,7.78,0.56,8.84-4.07l2.38-7.29c0,0,1.19-2.1-1.37-1.75
	c0,0-16.94-3.37-22.76-6.59c0,0-11.22-6.31-14.24-11.08c0,0-5.12-4.49-10.24-5.33c0,0,4.61,9.07,6.01,10.1l-7.57-3.83l-9.09-8.54
	c-1.33-1.38-2.3-2.57-2.95-3.41c-0.61-0.78-0.77-1.06-2.2-2.95c-0.94-1.24-1.01-1.31-1.31-1.75c-0.7-1.05-0.92-1.57-1.73-3.01
	c-0.25-0.44-0.66-1.12-1.48-2.49c-0.73-1.21-1.7-2.81-2.89-4.73c-2.4-4.5-5.02-9.08-7.7-13.81c-3.94-6.95-8.05-13.99-8.74-14.33
	l-9.02-13.94c0,0-0.92-3.68-5.57-4.84l-9.95-2.94c0,0-2.8-0.34-4.41-0.85l-6.77-2.42l-2.72-1.01c0,0-5.77-6.42-6.8-8.29
	c0,0,1.08,0.37,0-1.22c0,0-3.32-5.66-0.7-4.07c0,0,6.08,1.92,7.48,3.74c0,0,4.35,3.88,7.9,2.48c0,0,5.47-2.09,6.17-1.88
	c0,0,20.13-3.24,23.78-4.62l24.62-6.64c0,0,12.62-5.89,7.08-2.03l-26.02,21.18c0,0-1.47,1.33,0.14,2.24l29.53,27.77
	c0,0,1.47,1.61-5.12-1.47c0,0-19.71-9.4-20.83-11.29c0,0-6.1-4.42-2.17,1.54c0,0,13.04,25.53,16.76,29.18
	c0,0,12.34,20.06,37.03,30.65c0,0,15.08,5.05,25.55-1.22c0,0,8.88-3.27,13-27.12c-0.69-6.88-1.58-13.99-2.71-21.32
	c-2.84-18.31-6.75-35.07-11.13-50.12c-0.04-0.66-0.31-1.66-0.78-2.83c-0.58-1.43-1.55-2.91-3.1-3.09c0,0,0.79-1.47,9.16,2.45
	c0,0,5.98,1.54,9.26,1.26c0,0,8.14-0.51,8.79,1.36l6.69,58.44c0,0,1.36,12.04,3.65,13.75c0,0,2.18,5.14,0.49,10.8
	c-1.7,5.66-1.7,5.66-1.7,5.66l-4.58,10.12c0,0,0.97,0.71,2.98-3.34c0,0,5.88-11.93,5.52-17.21c0,0,1.59-0.65,1.87,6.46
	c0,0-0.09,6.03,3.09,16.97c0,0,3.55,7.67,2.06,15.52c0,0-3.46,11.5-7.11,12.81l-2.8,2.25c0,0-20.2,7.44-46.1,6.76
	c0,0-27.09,0.2-34.18-5.83c0,0-4.72-4.92-5.02-7.74l-2.66-15.1l-1.36-7.12C578.4,864.57,578.04,863.13,578.52,863.75z"/>
<path class="st0" d="M616.27,712.21c0,0,4.38,15.3,9.48,19.74c0,0,8.42,12.13,30.16,15.01c0,0,1.19,0.14,1.31,0.51
	c0,0,1.54,0.61,3.74,0l0.3-0.07l0.56,4.15l0.33,2.64l-1.28-4.77c0,0-0.02-0.98-1.87-0.3c0,0-3.74,1.68-6.29,1.33
	c0,0-8.11,0.21-16.08-3.32c0,0-12.79-6.38-17.6-15.41c0,0-5.24-9.16-6.08-13.04c0,0-1.51-5.1-1.2-5.55L616.27,712.21z"/>
<path class="st14" d="M616.27,712.21c0,0,27.83-5.37,32.58-8.17c0,0,6.5,33.87,6.71,42.43c0,0-7.84,1.34-22.12-7.57
	c0,0-8.39-5.24-12.43-14.09C621,724.81,615.9,713.32,616.27,712.21z"/>
<path class="st0" d="M602.65,714.96c0,0,3.31,13.32,6.26,18.24c0,0,4.63,10.95,17.74,19.09c0,0,14.33,8.21,22.14,7.71
	c0,0,7.52-0.68,8.2,0.75c0,0,1.15-0.26-3.9-2.36c0,0-2.74,0.42-15.29-3.72c0,0-11.41-3.63-20.69-13.61c0,0-7.32-9.16-9.05-15.78
	c0,0-2.71-9.02-1.89-11.02L602.65,714.96z"/>
<path class="st11" d="M657.52,760.75c0,0-1.89-6.5-1.47-7.62c0,0-0.31-2.92-0.78-2.84c0,0-16.24,1.62-27.55-8.92
	c0,0-8.03-5.85-11.94-15.75c0,0-4.59-9.36-4.04-12.5l-5.55,1.15c0,0-0.14,1.69-0.11,2.01c0,0,1.1,10.66,8.42,21.23
	c0,0,5.38,9.05,19.07,15.42c0,0,8.87,3.85,11.83,4.04l7.08,1.42C652.47,758.39,655.31,758.97,657.52,760.75z"/>
<path class="st15" d="M606.53,717.36c0,0,3.13-1.59,3.37,0c0.23,1.59,0,0.23,0,0.23s4.82,13.19,7.95,16.46c0,0,6.59,7.81,7.39,8.56
	c0,0-3.23,1.31-2.11,3.93c0,0,6.48,4.7,8.41,5.33c0,0,6.68,3.34,10.52,4.15l8.02,1.9c0,0,3.49,0.65,3.61,0.83
	c0,0,3.2,1.29,3.83,2.02l-1.3-5.26c0,0-0.37-2-0.17-2.36c0,0-0.35-2.78-0.78-2.84c-0.43-0.06-10.24,0.41-18-2.88
	c0,0-8.64-4.49-11.8-7.85c0,0-2.62,0.43-7.34-6.81c0,0-6.84-12.5-6.43-14.49c0,0,0.92-4.86-1.8-3.41l-3.82,1.07L606.53,717.36z"/>
<path class="st16" d="M612.03,716.02c0,0-0.07-0.92-0.31,2.02c0,0-0.24,0.47,0.31,2.24c0,0,5.46,12.32,7.85,14.95
	c0,0,2.77,3.35,3.99,3.82c0,0,1.17,0.5,1.59,0.5l-4.49-4.84c0,0-5.81-9.32-5.97-10.74l-2.24-5.89L612.03,716.02z"/>
<path class="st16" d="M602.65,714.96l-11.84,1.7c0,0,0.48,6.44-5.77,7.14c0,0-9.54,1.45-12.52,0.29c0,0-2.44-0.44-2.19-4.34
	l-0.02-1.32c0,0,0.31-1.16-1.47-0.68c0,0-19.79,2.73-22.5,2.6c0,0-10.61,0.98-11.24,0.66c0,0-1.73,0.03-1.8-0.14
	c0,0-3.07,3.79-5.99,4.62c0,0-3.73,1.98-9.77,1.49l-18.18-0.38l-10.93-0.61c0,0-11.44-0.66-13.84-2.82c0,0-2.95-2.05-5.06-4.3
	l-0.98-1.14l-21.63-4.35c0,0-1.53-0.81-1.64,0.65c0,0,1.11,2.48-2.72,3.63c0,0-4.49,1.69-12.22-1.04c0,0-2.97-1.43-2.85-3.99
	c0,0-0.75-0.45-0.96,3.47c0,0-1.12,5.3-1.58,5.82c0,0,5.51,0.46,5.93,1.19c0,0,4.35,1.61,7.82-0.14l5.12-1.75
	c0,0,1.68-1.26,3.79-0.35l15.64,4.07l9.68,3.37l13.75,3.65h1.4l11.2,0.7c0,0,14.07,0,15.62,0.42c0,0,5.1-0.09,5.28-0.79l46.87-7.62
	c0,0,1.75,0,1.82,0.98c0,0,0.07,3.02,10.59,2.17c0,0,10.1-0.63,15.01-2.81l6.66-5.33c0,0,2.29-1.82,2.41-1.4L602.65,714.96z"/>
<path class="st0" d="M487.54,724.33l1.22,13c0,0,1.96,17.37,2.52,18.69c0,0,4.49,17.22,7.29,20.4c0,0,4.35,6.9,5.61,7.11l6.52,1.18
	c0,0-8.39-5.77-12.97-21.85c0,0-4.11-13.84-4.3-25.06l-0.94-13.47H487.54z"/>
<path class="st0" d="M514.24,724.79l1.25,22.3c0,0,2.45,23.64,3.86,26.09l3.86,11.52c0,0,3.65,5.04,2.17-2.05
	c0,0-4.14-11.5-4.28-16.69l-1.96-13.19l-0.49-4c0,0-0.35-2.03,2.52-1.05l15.59-0.44l6.83-1.26l9.56-2.36c0,0-9.92-0.44-15.49,0.68
	l-18.52-0.56c0,0-1.03,0.42-0.98-2.43l-0.61-8.28l-0.84-8.74L514.24,724.79z"/>
<path class="st0" d="M495.75,756.01c0,0,0.25,2.94,3.37,4.44c0,0,3.93,3.05,18.87,4.84l0.42,2.52c0,0-15.78-1.81-20.97-5.05
	L495.75,756.01z"/>
<path class="st17" d="M517.98,738.9c0,0,41.75,2.05,47.82,0.66c0,0-5.8,2.27-12.39,4.2c-3.53,1.03-7.29,1.96-10.49,2.39
	c0,0-4.54,1.16-11.85,1.57c-2.9,0.16-6.23,0.21-9.89,0.01c-0.51,0.02-0.91,0-1.18-0.02c-0.62-0.06-0.95-0.16-1.15,0.04
	c-0.15,0.14-0.14,0.37-0.13,0.53c0.03,0.81,0.09,1.55,0.14,2.13c-0.01,0.1-0.02,0.25,0.05,0.39c0.23,0.51,1.16,0.6,2.89,0.53
	c0.96-0.04,2.26-0.13,3.8-0.34c3.71-0.53,7.61-0.94,11.65-1.37c6.04-0.64,12.52-1.2,14.25-0.88c0,0-15.7-0.78-25.69,0.26
	c0,0,5.05-1.66,6.78-1.59c0,0,4.85-0.04,8.56-0.93l12-2.81c0,0-11.64-0.39-15.04,0.59l-2.52,0.02l-16.06-0.49
	c0,0-1.22,0.55-1.37-1.95L517.98,738.9z"/>
<path class="st0" d="M665.98,853.68c0,0,0.19,3.95,0,4.51c0,0,1.29-0.07,1.01-5.91L665.98,853.68z"/>
<path class="st18" d="M494.91,740.82c0,0-0.28,1.4,0,2.35c0,0,1.19,0.74,0.84,2.17c0,0,11.4,1.82,14.06,1.61v1.37l5.68,0.74v-0.91
	l-4.79-0.46v-1.02l4.78,0.21l-0.38-6.76c0,0-2.13-0.37-2.55,0.43c0,0-1.17,2.06-4.49,1.31
	C508.06,741.86,495.23,740.29,494.91,740.82z"/>
<path class="st19" d="M494.38,742.19c0,0-0.08,9.98,2.06,15.83c0,0-0.66-6.71-0.7-12.39c0,0,0.34-2.04-0.84-2.45L494.38,742.19z"/>
<path class="st0" d="M489.12,743.96c0,0-22.3-5.47-25.06-8.04l24.31,4.02c0,0,0.98,2.62,0.68,0l0.51,4.29L489.12,743.96z"/>
<path class="st9" d="M495.75,770.1c0,0-30.19-6.85-44.08-14.09c0,0-0.89,0.76,10.38,12.31c0,0,11.36,11.03,14.77,12.67
	c0,0,6.92,4.58,1.73,3.32c0,0-13.28-1.82-16.13-1.59c0,0,13.61,7.53,14.77,8.93l6.83,5.33c0,0,1.12-0.05,0.28,2.57
	c0,0-10.8,41.47-12.76,43.16c0,0-2.06,8.79-14.96,14.12c0,0-1.5,1.73,2.34,0c0,0,2.9,0.61,8.79-1.17c0,0,5.47-1.5,6.31-1.08
	c0,0,1.12,0.51,0,2.01c0,0-3.79,12.95-18.66,17.07c0,0-1.78,0.84,3.83,0.23l12.58-0.09c0,0,1.96-0.42,1.68,1.45
	c0,0,0.42,13.19-14.73,14.96c0,0-8.67,1.92-29.99-0.68c0,0-24.29-4.33-24.94-4.89l2.52,3.13c0,0,8.08,3.86,22.58,6.22
	c0,0,18.83,4.04,33.38,3.12c0,0,20.35-1.32,22.23-2.07c0,0,11.7-1.61,13.25-10.85c0,0,1.18-3.62,0.55-4.91c0,0-3.7-17.46-3.82-17.88
	l-0.88-2.17c0,0,0.35-0.53-1.05,0.25c0,0-9.36,4.17-13.12,5.15c0,0,0.14,1.89,1.26,4.21c0,0,2.95,9.05,2.17,12.83
	c0,0-0.63,6.1-3.58,11.08c0,0-3.44,4.49-1.4-0.56c0,0,2.45-5.54,1.33-14.94c0,0-1.89-10.73-2.95-12.55c0,0-1.05-2.1,0.14-4.49
	l5.05-11.99c0,0,0.21-1.19-0.98-0.7c0,0-2.95,0-1.82-3.79c0,0,7.93-21.18,10.1-22.93c0,0,8-17.18,9.26-18.02c0,0,3.65-5.89,4.7-6.03
	c0,0,2.45-2.81,0.56,1.47l-10.1,20.62c0,0-8.14,15.85-8.77,17.95l-2.59,6.52c0,0-0.7,1.12,0.91,1.4c0,0,2.38,1.19,1.19,3.79
	c0,0-0.77,4.42-2.52,6.52c0,0-2.24,5.19-2.31,6.59c0,0-1.05,2.03,1.26,0.63c0,0,11.78-6.29,13.37-8.7l0.17-0.62
	c0,0,2.49-2.85,2.8-4.69c0,0,0.24-1.69-0.07-2.76c0,0-0.69-2.2-0.75-2.4c0,0-0.36-0.99,0.13-1.85l2.47-5.45l6.24-14.09l7.68-15.01
	l5.91-11.27c0,0-25.08-9.67-26.71-9.85c0,0-16.3-9.06-18.74-12.71c0,0-7.32-5.82-2.33-2.47c0,0,7.56,4.1,10.55,4.46l16.51,6.19
	l6.59,2.47C504.18,783.52,496.42,775.01,495.75,770.1z"/>
<path class="st20" d="M396.13,853.54c0,0,0.49,2.36,0.63,3.1c0,0,0.49,3.45,0.5,4.14c0,0,4.41,7.43,8.12,8.06
	c0,0,10.31,3.09,19.08-1.68c0,0,14.73-8.91,18.23-16.27c0,0-21.98,14.52-38.9-0.63l-5.07-3.51c0,0,4.45,8.47,4.28,10.8
	c0,0,0,2.68-1.44-0.16l2.94,5.4c0,0,1.27,1.94-0.71,1.05l-4.65-3.7c0,0-1.89-4.86-2.1-6.08s0.21,1.22,0.21,1.22l-0.43-2.44
	C396.83,852.86,396.18,852.57,396.13,853.54z"/>
<path class="st21" d="M396.08,889.48c0,0-3.52,6.01-1.84,17.17c0,0,1.86,3.89,1.84,4.94c0,0,0.44,2.56,4.82,3.61
	c0,0,18.66,5.59,25.11,6.34c0,0,21.25,3.69,32.68,3.48c0,0,19.01,0,23.85-1.33l9.01-1.72c0,0,1.12,0.32,2.1-2.21
	c0,0,4.73-12.53,1.18-21.69c0,0-0.46-2.12-2.83-0.38c0,0-23.07,9.41-60.57,2.65c0,0-19.26-1.99-33.1-9.85
	C398.33,890.5,396.82,888.85,396.08,889.48z"/>
<path class="st22" d="M461.05,903.98c0,0,5.42,11.08-2.71,15.22c0,0-2.74,1.82-18.02-0.49c0,0-30.72-4.7-36.05-7.5
	c0,0-6.73-1.61-7.12-1.96l-2.14-0.89l1.06,3.06c0,0,0.05,1.8,2.7,3.04c0,0,25.47,8.74,45.19,9.63c0,0,19.22,1.99,33.67,0.31
	l12.19-2.09l1.73-0.33c0,0,0.76,0.31,1.73-1.38c0,0,3.27-10.32,2.88-12.42c0,0,0.24-6.8-0.73-8.26c0,0-0.33-4-2.94-2.53
	c0,0-8.04,3.51-20.46,4.66c0,0-11.51,0.73-11.65,0.74L461.05,903.98z"/>
<path class="st23" d="M477.16,903.07c0,0,0.07-1.78,1.15-0.94c0,0,1.31,1.05,1.03,4.11c0,0,0.12,6.78-1.47,8.46
	c0,0-1.5,3.51-1.59,4.77c0,0-1.31,3.04-2.2,2.99l-0.94,0c0,0,1.75-0.09,3.12-5.56c0,0,1.42-3.09,1.09-6.83L477.16,903.07z"/>
<path class="st24" d="M694.72,991.48c0,0-0.45,13.19-1.07,14.73c0,0,15.17-1.92,20.41-6.45c0,0,3.19-3.37,3.14-5.42l-0.33-8.93
	c0,0-0.05-1.64-1.78-0.19C715.1,985.22,710.2,988.25,694.72,991.48z"/>
<path class="st25" d="M331.09,976.15c0,0,0.37,1.78-0.65,3.65c0,0-0.94,10.29,5.7,11.13c0,0,14.87,4.96,33.66,6.92
	c0,0,17.3,2.06,41.71-1.5c0,0,17.49-2.9,23.85-7.29c0,0,16.74-7.48,18.42-7.11c0,0,2.34-1.45,3.55,1.03c0,0,2.99,6.27,9.96,4.54
	c0,0,22.07-4.72,24.36-6.08c0,0,3.27-0.98,3.27-4.07l0.56-11.03c0,0,0.56-4.07-1.17-2.81c0,0-28.33,8.98-33.31,8.77
	c0,0-16.27,4.42-17.6,5.12c0,0-28.43,10.15-65.46,7.34C377.94,984.75,361.93,984.64,331.09,976.15z"/>
<path class="st26" d="M335.18,984.25c0,0,0.15,2.38,0.04,3.15c-0.01,0.08-0.02,0.14-0.04,0.18c-0.18,0.46-0.83,1.24-0.66,2.9
	c0,0,22.88,6.85,31.09,6.87c0,0,34.06,2.53,49.47-1.67c0,0,14.75-3.25,20.06-6.48c0,0,16.51-6.92,18.64-7.25
	c0,0,2.67-1.41,3.41,0.77c0,0,2.95,7.65,12.04,4.38c0,0,20.24-4.03,22-5.59c0,0,3.13-0.61,3.69-3.91l0.65-12.41
	c0,0,0.24-2.89-1.61-1.53c0,0-22.88,7.09-24.69,7.14c0,0-7.07,1.78-8.01,1.52c-0.94-0.26-0.26,0-0.26,0s-5.91,1.63-7.09,1.96
	c0,0-10.76,3.25-11.29,3.43c-0.53,0.17-43.97,23.02-83.94,12.64C358.68,990.32,336.37,985.62,335.18,984.25z"/>
<path class="st27" d="M334.49,970.73c0,0,0.9-8.32,0.99-9.44c0,0,1.5-11.13,16.08-17.49c0,0,13.28-6.55,34.13-2.62
	c0,0,10.85,3.55,12.9,6.36c0,0-4.96-5.98-34.51-1.68c0,0-11.97,0.94-19.26,11.31c0,0-3.27,3.04-4.77,15.71
	C340.07,972.88,334.68,971.55,334.49,970.73z"/>
<path class="st28" d="M340.07,972.88c0,0,0.87-27.13,27.85-27.54c0,0,22.27-3.32,30.68,2.2c0,0,9.24,6.32,15.9,22.51
	c0,0,1.86,1.75,1.09-4c0,0-0.6-5.89-2.1-7.15c0,0,7.68,0.42,18.13-8.14c0,0,7.54-7.71,8.8-12.34l25.77,2.81c0,0,2.59,0.35,1.68,4.77
	l-8.77,20.62c0,0-14.24,4.84-30.79,8.63c0,0-21.88,5.82-47.2,4.21C381.12,979.45,348.53,977.04,340.07,972.88z"/>
<path class="st29" d="M459.11,966.61l8.77-20.62c0,0,0.99-4.12-1.06-4.52l-26.4-3.05c0,0-5.59,13.86-20.31,19.13
	c0,0-3.66,1.44-6.62,1.35c0,0-1.98-3.55-2.54-4.11c0,0,4.4,1.59,8.93-0.75c0,0,4.16-3.09,4.54-6.03c0,0,0.09-2.01-0.09-2.43
	c0,0,0.09-1.36,2.52-0.14c0,0,6.27,0.98,9.02-5.7c0,0,1.64-3.69-0.79-7.2c0,0-2.99-3.27,2.52-1.5c0,0,28.99,1.73,33.85,1.08
	c0,0,13.47-0.61,15.01-1.26l1.59-0.65c0,0,1.26-1.03,1.5,1.08c0,0,0.89,5.56,2.01,8.84c0,0,1.82,15.99,1.54,17.72
	c0,0-4.49,0.89-5.19,1.64C487.91,959.46,460.51,967.74,459.11,966.61z"/>
<path class="st30" d="M485.98,930.98c0,0,2.13,11.75,2.17,14.8c0,0,0.95,11.09,0.56,13.22l4.39-1.18l-1.39-16.31
	c0,0-0.16-1.41-0.27-1.74c0,0-1.37-4.91-1.47-6.11c0,0-0.48-2.45-0.49-2.8c0,0-0.13-1.46-1.33-0.85
	C488.15,930.03,486.26,931.09,485.98,930.98z"/>
<path class="st31" d="M381.82,934.7c0,0,15.64,2.24,18.97,5.72c0,0,6.1,3.61,7.57,5.08c0,0,2.31,3.61,7.36,4.42
	c0,0,3.26,0.18,4-3.37c0,0,0.39-1.68-2.88-4.24c0,0-9.43-7.05-10.34-6.73c0,0-2.45-2.24-14.48-4.8c0,0-5.47-0.81-6.91,0
	C385.12,930.78,380.56,933.51,381.82,934.7z"/>
<path class="st32" d="M394.16,926.03c0,0,20.2,4.86,23.85,8.23c0,0,7.34,4.3,8.04,5.19c0.7,0.89-0.23,0-0.23,0s2.48,1.54,3.97-0.61
	l1.12-2.01c0,0,0.33-2.71-1.73-2.99c0,0-7.67-4.96-12.62-5.98c0,0-18.92-4.97-20.71-5.28l-2.64,2.5
	C393.21,925.07,392.41,926.12,394.16,926.03z"/>
<path class="st0" d="M398.31,741.83c2.76-1.61,4.77-3.28,6.1-4.52c2.99-2.79,4.75-5.46,6.59-8.26c1.93-2.93,2.96-5.06,3.23-5.61
	c0.4-0.85,1.25-2.68,2.06-5.12c1.15-3.48,0.97-4.36,1.94-7.8c0.29-1.02,0.24-2.13,0.61-3.12c0.1-0.25,0.36-0.91,0.09-1.21
	c-0.11-0.12-0.26-0.13-0.5-0.17c-0.42-0.07-0.19-0.09-1.32-0.41c-0.89-0.25-1.69-0.44-2.2-0.54c0.23,0.55,0.47,1.06,0.46,1.53
	c-0.02,1.26-0.54,3.51-2.54,7.47c0,0-5.54,14.1-7.29,14.94c0,0-4.02,6.35-6.39,6.19L398.31,741.83z"/>
<path class="st0" d="M424.95,708.1l-1.4,6.66c0,0-2.24,12.06-3.72,12.48c0,0-4.7,11.78-16.48,18.73c0,0-8.91,6.17-1.89,4.21
	c0,0,6.64-3.23,10.4-7.5c0,0,7.76-8.1,9.8-13.34c0,0,3.63-7.05,4.9-13.65l0.9-3.75C427.45,711.94,427.76,708.59,424.95,708.1z"/>
<path class="st11" d="M400.91,856.11c0,0,2.3,5.01,2.05,0.81l-4.24-10.16l2.13,1.47c0,0-3.74-39.27-0.8-46.43l3.97-53.02
	c0,0-4.09,2.53-5.02,1.73c0,0-0.93-0.54,1.77-2.58l0.27-7.87l-2.73,1.77l-5.38,62.61c0,0-1.62,25.27-0.54,28.89
	C392.39,833.33,398.26,852.7,400.91,856.11z"/>
<path class="st33" d="M397.26,860.79l3.1,4.32c0,0-3.16,13.53,5.91,23.08c0,0-6.34-0.2-10.98-11.28c0,0-1.01-2.25-0.15-5.68
	C395.15,871.23,397.41,863.18,397.26,860.79z"/>
<path class="st34" d="M410.23,703.65c0,0-4.05,13.66-3.59,17.26c0,0-2.71,7.85-5.14,9.3c0,0-0.41,3.19,3.55-2.01l6.5-11.03
	l2.96-6.96c0,0,1.76-3.38,0.38-5.16L410.23,703.65z"/>
<path class="st35" d="M403.91,672.47c0,0-0.28,14.87,1.47,20.83c0,0,0.56,2.1,2.31,2.84l18.2,6.35c0,0-1.05-19.22,1.93-21.53
	c0,0-18.2-5.86-19.29-6.63c0,0-3.19-0.84-4-2.07C404.54,672.26,404.16,671.88,403.91,672.47z"/>
<path class="st36" d="M407.7,677.03c0,0-0.63,13.96,0,16.9c0,0,0.37,1.44,0.76,2.47l10.84,3.78l6.6,2.3c0,0-0.52-15.7,0.61-18.53
	C426.51,683.96,409.24,679,407.7,677.03z"/>
<path class="st36" d="M445.41,684.35c0,0-0.3,1.3-0.6,3.88c-0.41,3.49-0.8,9.34-0.43,17.49c0,0-0.42,1.36,3.41,1.78
	c0,0,11.5,2.1,13.93,2.76l5.47,1.31c0,0-0.23-22.12,1.4-24.17L445.41,684.35z"/>
<path class="st35" d="M444.84,687.95c0,0,21.25,3.34,22.95,3.09c0,0,0.3-3.66,0.81-3.66l-23.19-3.04L444.84,687.95z"/>
<path class="st35" d="M472.99,689.17c0,0-1.73,9.16-0.7,18.52c0,0,0.19,10.47,7.2,11.97c0,0,6.83,1.5,13.47,1.12l21.88,1.03
	c0,0,8.51,1.5,11.6-4.21c0,0,1.59-3.03,0.65-26.53c0,0,0.19-6.67-8.7-8.07l-37.31-0.94C481.08,682.06,473.87,681.5,472.99,689.17z"
	/>
<path class="st0" d="M475.52,703.75c0,0-2.7-2.52-0.74-6.24c0,0,1.05-2.03,3.86-2.35v-4.78c0,0,1.23-3.88,5.72-3.93l32.61,1.25
	c0,0,3.51,0.48,4.49,5.95c0,0,0.84,14.24,0,17.11c0,0,0.49,6.94-5.54,6.03c0,0-29.11-0.63-30.3-1.05c0,0-5.68-0.25-6.31-3.14
	c0,0-0.49-3.17-0.28-4.02c0,0,0.21-2.03-1.19-2.52C477.83,706.07,475.66,704.8,475.52,703.75z"/>
<path class="st37" d="M477.02,701.67c0,0-0.7-2.96,1.87-2.92l9.87,0.33c0,0,2.76,0.18,2.52,2.59c0,0,0.42,1.81-2.57,1.62
	l-10.52-0.89C478.18,702.4,477.1,702.43,477.02,701.67z"/>
<path class="st38" d="M482.53,694.57v-2.7c0,0-0.03-0.49,1.58-0.53l30.89,1.19c0,0,2.67-0.56,2.52,4l0.01,15.43
	c0,0,0.7,2.1-2.95,1.19l-25.02-1.59c0,0-5.56-0.37-7.03-1.36c0,0-1.1-3.12,0.37-3.8l7.73,0.6c0,0,3.21,0.08,4.03-3.27
	c0,0,1.26-5.24-2.6-6.8c0,0-2.44-1.21-8.53-1.36C483.54,695.57,482.42,695.52,482.53,694.57z"/>
<path class="st39" d="M506.52,692.2l4.18,3.65c0,0,1.66,0.51,1.75,4.02l1.59,13.24c0,0,3.34,0.92,3.54-0.71l-0.05-16.22
	c0,0,0.03-3.94-2.03-3.66L506.52,692.2z"/>
<path class="st40" d="M533.31,689.8c0,0,1.83,20.5,0.39,24.77l26.4-2.36c0,0,3.37-1.16,4.56-4.18l2.24-6.02c0,0,1.66-2.4-1.1-6.47
	l-5.77-5.75c0,0-1.75-1.4-4-0.98L533.31,689.8z"/>
<path class="st35" d="M533.6,693.38c0,0,27.87-1.51,28.82-1.2c0,0-3.69-4.04-5.83-3.43l-23.28,1.05L533.6,693.38z"/>
<path class="st12" d="M572.82,684.3c0,0,4.21,17.58,2.62,35.16c0,0,10.19,0.84,10.57-2.06c0,0,1.12-22.26-2.81-33.94L572.82,684.3z"
	/>
<path class="st16" d="M575.79,711.37l10.36-0.98l-0.15,7.01c0,0-0.12,3.04-10.21,1.95C575.79,719.36,575.79,711.53,575.79,711.37z"
	/>
<path class="st40" d="M588.08,685.87c0,0,4.32,14.23,3.3,24.06c0,0,19.29-2.52,21.18-9.12c0,0,3.09-5.05,1.26-11.64
	c0,0-1.89-5.68-8.21-4.91C605.62,684.26,589.35,686.22,588.08,685.87z"/>
<path class="st41" d="M591.52,707.6c0,0,14.58-2.87,19.7-8.2l2.96-3.43c0,0-1.44,5.6-2.76,6.79c0,0-2.31,4.07-17.49,6.76l-2.56,0.41
	L591.52,707.6z"/>
<path class="st42" d="M588.08,685.87c0,0,16.8-1.25,17.81-1.64c0,0,3.4,0.07,4.56,0.91c0,0-10.66,2.32-10.94,2.74
	c0,0-9.01,2.28-10.56,1.23L588.08,685.87z"/>
<path class="st43" d="M616.56,682.85c0,0,8.91,11.92-1.75,24.06l35.98-9.12l4.35-1.82l-0.18-12.7l-0.42-7.68
	c0,0,0.03-4.31-1.58-2.49c0,0-0.46,1.68-4.35,2.74C648.61,675.84,629.78,682.26,616.56,682.85z"/>
<path class="st44" d="M648.61,675.84c0,0,2.18,21.42,1.84,22.04l4.68-1.9c0,0-0.11-18.76-0.6-20.38c0,0-0.07-4.16-1.46-2.62
	C653.08,672.98,652.4,674.79,648.61,675.84z"/>
<path class="st12" d="M685.08,576.67c0,0-5.89,19.5-18.66,33.66c0,0-5.33,5.61-5.89,13.19c0,0-2.52,19.36-3.46,20.39
	c0,0-1.03,4.11,0.75,7.86c0,0,3.09,6.73-1.68,11.03c0,0-3.83,6.27-14.21,8.04l-53.4,8.88c0,0-2.01-1.73-3.6-1.73l-13.19,1.26
	c0,0-2.99,0.89-2.99,2.71l-25.11,1.5l-13,0.33c0,0-3.47-5.49-11.57-5.95c0,0-27.77-1.81-34.96-1.34c0,0-8.69-1.03-13.83,5.75
	l-16.88-2.76c0,0-6.22,0.19-7.81-2.45c0,0-1.22-2.24-5.07-2.28c0,0-6.21-1.09-7.29-2.1c0,0-3.09-0.81-4.35,2.24
	c0,0-0.51,0.55-2.55-0.62c0,0-17.02-5.12-19.54-8.39c0,0-4.86-6.5-5.52-6.83c0,0-1.59-3.32,0.33-6.03c0,0,3.96-6.46,2.81-12.43
	l-8.84-66.03l-2.81-17.11c0,0-1.05-5.47-1.47-6.59c0,0,0.07-1.68,1.75,0c0,0,8.42,6.17,11.36,5.33c0,0,0.77-0.07-3.02-2.95
	c0,0-7.22-5.33-12.62-14.03c0,0-11.2-22.49-10.45-37.64c0,0-0.47-18.7,5.52-49.37l4.4-20.29l-7.2,21.13l0.75-11.5
	c0,0-2.9,5.05-4.21,12.25c-1.31,7.2-12.44,49.37-0.87,76.94l-12.62,8c0,0,4.84-24.83,3.16-45.45c0,0-1.68-21.46-7.57-33.66
	l-6.31-16.41c0,0,3.37-19.36,16.2-39.13l7.5-10.73c0,0,2.52-1.68,5.05-1.54c0,0,16.55,0.14,33.52-20.2c0,0,12.34-6.45,11.64-4.49
	c0,0-4.91,25.67-0.98,49.94c0,0,1.96,12.76,3.65,18.09c0,0,1.96,6.45,4.91,7.15c0,0,1.54,1.4,7.71-3.37c0,0,18.23-15.85,27.49-10.24
	c0,0,15.99,10.94,17.67,14.87c0,0,6.59,3.51,2.81-5.19c0,0,0.98-3.37,2.38,3.93c0,0,0.84,3.51-2.1,6.17c0,0-5.19,10.8-5.89,22.02
	c0,0-1.96,24.27-1.4,28.89c0.56,4.63,0,0.7,0,0.7s0.56,5.33,6.03,5.05c0,0,14.03,2.67,18.94,1.12c0,0,4.49,0.42,3.93-4.77
	c0,0,1.54-36.75,11.08-56.95c0,0,19.78-19.5,40.68-1.68l16.6,11.31c0,0,5.52,4.86,11.88-1.12l30.72-30.53
	c0,0,15.01-17.25,16.97-21.04c0,0,18.8-32.54,38.15-23.56c0,0,11.13,3.46,13.93,9.87c0,0-17.77,18.42-22.26,34.13
	c0,0,11.62-22.82,24.94-31.02l-9.12,10.45c0,0,14.38-13.47,22.72-11.15c0,0,17.32,3.72,34.86,35c0,0,11.36,14.59,14.59,48.53
	c0,0,1.54,13.33-5.75,18.23c0,0,9.4,0,12.34-6.03c0,0-1.26-7.01,0.98,0l1.26,6.59c0,0-70.69,24.55-93,57.16
	c0,0-18.73-45.45-17.46-81.21c0,0-9.68,41.83,9.89,85C666.42,553.46,674.7,575.9,685.08,576.67z"/>
<path class="st45" d="M402.67,660.58c0,0-0.09-7.11,4.75-3.32c0,0,11.99,8,14.17,8.14c0,0,3.65,0.84,0-2.52
	c0,0-10.87-11.36-0.07-5.61c0,0,32.61,17.18,55.83,17.11c0,0,11.31,0.62,13.56,0.25c0,0-16.27,0.48-20.62,7.63l-15.98-2.61
	c0,0-7.27-0.18-8.5-2.31c0,0-1.73-2.74-5.55-2.62c0,0-5.92-1.36-6.47-1.71c0,0-1.84-1.12-3.4,0.07c0,0-1.46,1.44-1.49,1.83
	c0,0-0.01,0.62-2.66-0.65c-2.65-1.28-0.1-0.03-0.1-0.03s-14.27-4.62-15.72-5.89c0,0-3.6-1.75-3.98-2.93l-3.79-4.86L402.67,660.58z"
	/>
<path class="st46" d="M510.7,675.61c0,0,17.6,0.84,19.94,8.18l38.11-1.82c0,0,0.61-2.48,4.07-2.81c0,0,14.17-2.89,15.27,0.55
	c0,0,48.37-6.47,59.5-10.46c0,0,6.59-4.95,6.87-6.54c0,0-0.19-2.43-5.84,3.55c0,0-2.85,1.03,2.2-5.52c0,0,4.58-6.92,0.65-10.94
	c0,0-3.09-4.21,0.84-9.91c0,0,4.58-12.72,5.89-19.36c0,0,3.37-11.13-4.58,2.52l-5,6.64c0,0,1.54-4.3,5.28-9.91
	c0,0,11.06-17.72,13.02-18.91l11.78-20.13l2.29-5.47c0,0-7.31-3.9-13.13-18.36c0,0-10.05-29-10.58-31.65c0,0-6.89-28.22-0.74-56.81
	c0,0,1.24,36.82,9.07,56.81l8.39,24.41l5.8,14c0,0,1.96,4.96,5.05,1.22c0,0,9.07-8,13.56-10.52l15.29-11.64
	c0,0,24.69-14.38,28.12-15.36l-47.06,18.8c0,0-1.61-0.14-0.77-3.09l1.19-10.17l-3.65,3.16c0,0-6.78-10.17-9.49-15.03
	c0,0-15.24-20.01-17.67-35.81c0,0-5.8-31.7-2.81-39.37c0,0-3.55,3.46-8.42,16.46l-4.3,15.06c0,0-1.87,5.42-3.37-1.59
	c0,0-3.09-14.03-2.24-18.52c0,0-1.4,1.68-3.09,14.87c0,0-2.34,15.15-1.87,21.69c0,0-3.83,32.5-20.88,40.91
	c0,0-18.73,21.67-78.9,6.94c-8.26-2.57-15.51-4.07-21.22-4.97c-15.84-2.51-27.55-1.75-30.21-1.55c-3.25,0.24-5.96,0.57-7.9,0.84
	c-8.67,2.71-19.76,4.57-32.57,6.36c-17.23,2.42-36.37,3.31-43.97-2.79c0,0-17.52-7.78-19.83-19.99c0,0-0.04,10.32,10.18,25.46
	l11.42,11.15l-13.12-5.33c0,0,6.87,14.8,28.12,11.22l52.55-8.7c0,0,25.81-4.49,38.74,1.68c0,0,31.1,5.47,37.16,9.75
	c0,0,50.53,19.15,82.02,10.17c0,0,3.72,34.23-7.78,53.58c0,0-8.17,21.32-46.3,35.35c0,0,29.99-3.65,42.77-12.9
	c0,0-4.39,21.7-52.76,23.56c0,0-24.87,2.75-34.51,2.81C531.3,677.38,496.93,673.83,510.7,675.61z"/>
<path class="st0" d="M591.03,558.72c0,0,36.4-5.82,47.9-23.28c0,0,6.87-10.87,5.12-4.98c0,0-0.84,6.59-5.05,12.34
	c0,0-7.15,8.63-15.99,11.92C623.01,554.72,613.89,559.77,591.03,558.72z"/>
<path class="st0" d="M462.75,549.74c0,0,27.77-7.11,75,3.93c0,0,16.65,4.68-1.59-1.96c0,0-23.75-8.79-37.12-8.51
	C499.04,543.19,469.11,542.54,462.75,549.74z"/>
<path class="st0" d="M652.49,510.37c0,0-11.22-10.1-10.85-27.4c0,0,0.04-9.52-1.1-13.78c0,0,2.75,9.48,3.79,14.62
	C644.34,483.81,650.24,506.44,652.49,510.37z"/>
<path class="st0" d="M674,549.67c0,0,12.14-19.55,56.57-41.65c0,0,49.62-24.2,66.73-20.28l7.06-0.43l0.23,0.71l-6.31,0.84
	c0,0,0.7,0.42-7.06,1.31c0,0-45.68,7.11-87.9,36.98c0,0-24.46,17.08-28.71,23.97L674,549.67z"/>
<path class="st47" d="M695.18,532.91l-1.43,11.49c0,0-0.04,3.13,3.24,0.87l44.83-20.01l-5.7,4.38l10.54-4.38
	c0,0,28.75-11.29,35.21-13.12c0,0,18.8-4.21,24.13-4.07c0,0,6.59,1.68,5.05-2.81c0,0-5.4-16.07-6.94-17.19l0.49-0.07
	c0,0-1.92-5.56-6.27-13.89c0,0-4.68-8.14-6.01-9.47c0,0-4.84-8.21-5.54-12.34c0,0-4.63-19.36-7.36-24.41c0,0-7.32-20.88-28.82-41.26
	l-17.35-11.36c0,0-11.46-5.84-16.69-8.55c0,0-7.2-1.31-19.92-8.89c0,0-9.07-6.27-12.25-7.39c0,0-15.85-7.95-16.55-9.82l-2.38,5.61
	c0,0,27.82,18.23,29.88,18.33c0,0,16.69,9.44,24.97,8.88c0,0,3.93,3.65,3.37,4.02c0,0,17.95,9.75,21.39,13.82
	c0,0,18.16,15.45,26.67,34.15c0,0,11.69,24.41,12.81,48.95c0,0,1.54,6.03,3.79-6.03c0,0-0.14-3.51,2.81,5.05l5.05,12.34l2.1,3.09
	C798.27,488.86,748.34,494.05,695.18,532.91z"/>
<path class="st46" d="M767.77,496.09c0,0,0.7,2.74,1.19,2.81c0,0,6.8,11.92,7.15,14.8c0,0,24.83-6.52,29.88-5.61
	c0,0-4.09-17.29-9.34-19.01C796.65,489.07,774.29,493.07,767.77,496.09z"/>
<path class="st48" d="M523.49,444.54c0,0,6.22-16.65,8.18-17.49c0,0,11.31-7.27,16.22-4.4c0,0,28.85,17.86,30.86,24.69
	c0,0,2.95,5.33,11.78-5.05c0,0,50.22-42.92,60.03-67.75l14.87-28.29c0,0,42.03,28.99,54.84,27.21c0,0-20.06,5.24-27.87,14.31
	c0,0-14.95-17.66-30.43-8.88c0,0-8.54,2.78-22.95,24.58c0,0-17.96,22.5-45.71,48.89c0,0-5.56,7.44-13.36,1.25
	c0,0-23.51-17.96-30.8-18C549.16,435.63,535.48,433.25,523.49,444.54z"/>
<path class="st14" d="M695.11,390.89l-9.12,10.45c0,0,16.51-17.04,27.38-9.28c0,0,27.48,15.83,40.11,55.86
	c0,0,11.68,36.46-1.08,44.03c0,0,10.52,0.84,12.76-7.57l1.82,8.14c0,0,23.52-7.29,30.3-4.77l-7.44-17.75c0,0-1.41-5.39-1.96,0.52
	c0,0-2.03,10.77-3.44,2.36c0,0-3.15-29.5-13.08-48.18c0,0-14.99-31.89-47.71-47.2C723.65,377.49,714.35,375.95,695.11,390.89z"/>
<path class="st49" d="M345.21,545.81c0,0,8.84-33.66,5.33-49.37l-2.25-17.39c0,0-0.85-3.23,0-5.89c0,0,4.85-21.18,4.5-23.21
	c0,0,10,16.26,11.64,45.94c0,0,1.4,32.26-4.21,45.73C360.22,541.6,351.66,545.95,345.21,545.81z"/>
<path class="st50" d="M364.08,538.73l12.62-8c0,0-9.69-24.68-3.34-54.64c0,0,5.34-29.74,6.81-31.14c0,0,4.74-12.75,3.47-16.82
	c0,0-0.84-2.24-4.77,5.33c0,0-9.4,21.88-10.66,21.88c0,0-6.73-11.08-9.26-11.78c0,0-4.91-8.98,1.82-17.11c0,0-5.06,4.95-7.09,15.07
	l-0.34,1.69c0,0,9.71,22.07,9.87,26.4c0,0,5.35,20.27,4.29,28.28C367.5,497.88,367.89,524.07,364.08,538.73z"/>
<path class="st51" d="M430.31,436.23c0,0,3.55-0.81,4.18,0.52c0,0,1.47,0.91,5.61-4.77c0,0,11.22-11.43,15.71-12.27
	c0,0,6.24-4.7,13.47,0l17.32,13.61c0,0,4.25,2.85,4.96,8.06c0,0,1.68,5.03-3.84,2.18c0,0-3.93-5.31-4.86-5.2l-10.3-7.91
	c0,0-5.42-5.1-12.24-2.11c0,0-9.84,3.35-19.74,12.02c0,0-4.39,3.97-7.26,1.04C433.32,441.39,430.37,437.98,430.31,436.23z"/>
<path class="st52" d="M437.71,361.39c-0.76,3.77-1.64,9.16-1.96,15.68c-0.11,2.32-0.21,5.93,0.19,13.66
	c0.3,5.79,0.88,13.65,2.06,23.1c0.02,0.5,0.14,2.96,2.09,4.56c0.69,0.57,1.4,0.86,1.94,1.02c1.98-0.12,4-0.26,6.06-0.44
	c3.32-0.28,6.54-0.63,9.65-1.02c-2.25,0.66-5.55,1.86-9.05,4.14c-7.87,5.12-12.2,12.7-14.03,11.71c-0.21-0.11-0.47-0.38-0.56-1.12
	c-0.12-0.47-0.24-0.96-0.35-1.47c-0.24-1.14-0.41-2.22-0.52-3.23c0,0-4.29-33.41-2.51-42.28c0,0,2.51-23.95,4.73-25.57
	c0.05-0.72,0.18-1.12,0.41-1.18C436.22,358.83,436.84,359.65,437.71,361.39z"/>
<path class="st12" d="M496.23,449.78c0,0-8.23,16.18-9.63,43.11c0.08,0.84,0.14,2.07,0.04,3.54c-0.18,2.78-0.73,3.39-0.25,4.22
	c0.53,0.9,1.7,1.06,6.24,1.51c3.02,0.3,4.53,0.44,4.84,0.46c2.71,0.11,6.81,0.42,12.79,1.31c-0.06-0.8-0.08-1.65-0.11-2.52
	c-0.04-1.36-0.04-2.9,0.11-3.65c0,0,0.19-26.93,8.23-46.94c0,0,7.01-20.29,8.14-20.48c0,0,4.11-5.24-3.83,0
	c0,0-20.57,13.93-23.38,16.93L496.23,449.78z"/>
<path class="st0" d="M497.4,457.51c0,0,1.09,8.56,9.28,5.54c0,0,4.4-3.58,4.19-6.45c0,0-0.21-7.22-7.71-7.43
	C503.15,449.17,496.77,450.78,497.4,457.51z"/>
<path class="st12" d="M499.79,456.08c0,0,0.49,5.71,5.26,4.03c0,0,4.86-2.67,1.26-6.73C506.31,453.38,501.89,450.3,499.79,456.08z"
	/>
<path class="st0" d="M493.38,488.63c0.96,1.18,2.2,2.19,3.79,2.66c0.02,0,0.09,0.03,0.19,0.05c4.86,1.26,5.89-1.12,7.1-2.57
	c0.45-0.57,1.27-1.79,1.4-3.51c0.23-2.99-1.84-5-2.24-5.38c-0.36-0.33-1.21-1.12-2.59-1.51c-2.97-0.85-5.53,0.95-5.92,1.23
	c-1.42,1.03-1.99,2.45-2.25,3.23C491.91,485.67,493.12,488.12,493.38,488.63z"/>
<path class="st12" d="M495.39,483.63c0,0-1.01,3.2,2.71,5.33c0,0,3.2,0.79,4.4-1.82c0,0,2.15-2.9-0.21-5.26
	c-0.2-0.3-0.72-0.97-1.65-1.32c-1.59-0.61-3.03,0.23-3.21,0.34C496.75,481.8,496.07,482.72,495.39,483.63z"/>
<path class="st53" d="M543.27,413.96c0,0,13.33,1.68,38.29,28.47c0,0,20.34-13.89,45.59-45.87c0,0,24.83-30.58,31.84-50.92
	c0,0,5.61-10.52,3.23-12.76c0,0-8.84-11.92-9.96-17.95c0,0-2.1-6.45-5.89-6.45c0,0-4.49-2.95-1.96,2.52c0,0,6.87,5.33-21.53,41.94
	c0,0-41.45,39.98-56.39,46.29C566.48,399.23,553.93,413.33,543.27,413.96z"/>
<path class="st54" d="M496.23,449.78c3.38-5.13,6.6-9.26,9.2-12.37c3.23-3.86,7.27-8.64,13.62-13.72c1.15-0.92,2.13-1.65,2.81-2.15
	c1.66-1.25,3.55-2.51,5.65-3.75c3.4-2.02,7.96-4.34,12.59-5.51c0,0,24.35-10.91,24.77-11.33c0.41-0.42-0.41,0.42-0.41,0.42
	s-9.07,10.8-21.17,12.59c0,0,6.33,2.29,7.51,2.93c0,0-6.29-1.81-12.47,1.47c0,0-21.46,7.94-29.85,21.92L496.23,449.78z"/>
<path class="st48" d="M566.48,399.23c0,0,3.3,2.52,48.88-23.56c0,0,8.14-5.33,8.14-6.73c0,0,1.12,3-4.35,6.13
	c0,0,3.93,0.75,8.14-2.34c0,0,7.01-8.7,4.35-0.7c0,0-1.93,18.43-24.55,43.34c0,0,16.11-10.94,29.72-31.51
	c0,0,22.03-32.92,21.97-37.59c0,0,0.35-10.48-13.67-31.91c0,0,1.01,10.79-20.72,36.64C624.38,350.98,583.99,391.24,566.48,399.23z"
	/>
<path class="st55" d="M645.11,314.65c0,0,0.31-4.23-1.42-6.53c0,0,0.57-1.01,5.1,1.29c0,0,3.48,3.29,4.25,8.09
	c0,0,3.69,8.56,9.49,15.8c0,0,1.52,1.82-3.74,12.96C658.77,346.26,657.81,332.88,645.11,314.65z"/>
<path class="st56" d="M691.88,569.24c0,0,62.91-52.81,115.09-52.81c0,0,2.34,2.17,3.93,9.56c0,0,4.86,19.36,5.52,22.35
	c0,0,2.71,17.67,9.91,27.21c0,0,13.28,20.85,13.37,34.6c0,0-9.66-10.82-10.71-10.82c0,0,7.15,15.78,7.71,38.92
	c0,0,1.26,29.04-5.33,58.77c0,0-18.8,51.9-17.53,62.28c0,0-4.91-3.79-6.45-6.87c0,0-1.4-4.63-4.21,0.84c0,0-2.67,8.14-8.84,11.78
	c0,0-4.07-19.91-8.98-10.87c0,0-5.89,8.9-9.96,9.32c0,0-6.45-5.05-12.48-15.99c0,0-4.09-7.62-5.52-8.23c0,0-1.26-2.76-3.58,0.77
	l-4.56,5.21c0,0-1.59,1.78-2.62-1.5l-5.24-9.35c0,0-0.75-3.27-4.21-2.15l-12.16,3.46c0,0,4.91-29.74-2.38-44.32
	c0,0-16.48-39.27-8.91-61.16l4.21-22.3l13.54,2.57c0,0,1.79,0.13,1.72-1.31c0,0,0.32-2.14-1.33-1.72
	C731.89,607.49,699.31,597.06,691.88,569.24z"/>
<path class="st57" d="M709.44,565.73c0,0,41.78-31.63,69.13-33.31c0,0,9.47,17.25,9.47,21.67c0,0-2.1,1.68,12.62,20.62
	c0,0,15.99,22.72,14.1,59.12l-7.57-15.36c0,0,6.73,30.51-1.26,70.06c0,0-12.62,46.71-15.99,52.18l-5.26-9.05
	c0,0-6.02,21.33-9.89,24.35c0,0-8-8.99-7.78-16.14c0,0-7.75-14.51-4.82-2.94l2.68,13.87c0,0-6.84-12.8-8.36-12.45
	c0,0,0.04-1.78-5.81,5.31c0,0-2.28,5.32-4.63-0.95l-5.23-9.51c0,0-1.38-1.56-4.88-0.56c0,0,2.99-27.11,2.01-31.15
	c0,0,1.96-33.92,3.23-35.32l1.26-7.15c0,0-7.43,11.64-7.57,18.38c0,0-2.95-6.17-2.1-20.06c0,0-0.7-23.28,17.95-54.14
	c0,0,10.94-19.08,12.2-26.51c0,0,3.79-10.66-4.07-0.56c0,0-11.22,13.61-22.3,15.15c0,0-5.89,1.22-15.8-8.32
	c0,0-10.8-13.31-11.31-16.93V565.73z"/>
<path class="st58" d="M755.84,583.89c0,0-17.88,13.11-22.51,36.47c0,0,10.85-22.28,17.32-25.74
	C750.65,594.63,755.92,588.32,755.84,583.89z"/>
<path class="st59" d="M759,754.18c0,0,7.85,11.47,10.47,13.34l4.49,4.4c0,0,5.89-1.4,12.62-11.5l4.86,12.25c0,0,7.09-4.1,13-10.29
	c0,0,1.22,0.75,0.94,6.45c0,0-2.24,36.38-6.08,47.22c0,0-1.96,7.01-13.65,14.87c0,0,1.68-4.11,3.37-8.88c0,0-0.19-1.78-2.71,1.5
	l-4.63,8.23c0,0-8.44,9.58-21.27,7.76L773.45,822c0,0,0.56-3.02-1.4-0.63c0,0-15.29,16.2-18.19,17.04c0,0-3.83,2.43-7.57,2.06
	c0,0-8.79-0.61-11.78-2.85c0,0-0.05-0.94,1.36-1.54c0,0,10.94-10.99,12.69-15.69c0,0,4.7-6.31-0.84-1.96c0,0-11.43,11.76-13.68,12.6
	c0,0-6.27,6.92-16.46,1.59c0,0-9.26-4.3-12.34-13c0,0-0.23-8,1.64-9.63c0,0,3.6-9.7,8.14-12.64c0,0,5.61-6.95,2.85,1.32
	c0,0-3.25,8.39-3.18,15.97c0,0-0.07,3.37,1.75-1.4c0,0,6.76-10.08,6.48-15.03c0,0,1.68-5.98-0.75-13.93c0,0-3.83-11.6-4.58-2.52
	l0.28,7.29c0,0-7.57,3.74-10.29,9.73c0,0-4.4,5.89-4.96,7.76c0,0-2.52,2.06-9.16-2.24c0,0-3.18-3.46-1.4-9.07
	c0,0,4.49-7.29,4.58-15.62c0,0,2.71-17.3,7.11-20.67c0,0,16.26-12.19,17.38-14.06c0,0,13.03-5.98,14.64-6.26
	c1.47,3.43,1.99,5.27,2.83,7.23c0.85,2,2.07,4.86,4.56,7.71c0.97,1.11,1.51,1.51,2.2,1.6c1.58,0.23,2.8-1.3,5.52-3.85
	c1.15-1.07,2.79-2.55,4.91-4.21c0.12,0.28,0.23,0.56,0.35,0.84c0.33,0.68,0.65,1.36,0.98,2.03L759,754.18z"/>
<path class="st60" d="M725.33,784.83c0,0,8.28,14.59-3.65,27.63c0,0-6.03,12.06,4.91,10.8c0,0,12.62-7.29,14.87-7.29
	c0,0,6.17-1.68,8.14-4.91c0,0,3.93-8,4.63-1.96c0,0,0.56,12.62,10.24,9.4c0,0,7.57-1.82,9.4-6.03l0.84,6.31
	c0,0,5.75-4.91,7.15-10.94c0,0,5.19-17.11,4.07-26.09c0,0-0.14-8.98-3.51-7.15c-3.37,1.82-9.82,4.35-18.09-6.17l-9.54-14.23
	c0,0-10.24,10.44-15.01-0.92l-5.89-12.62c0,0-10.38,6.45-11.22,8c0,0-13.89,12.06-15.71,13.04c0,0-5.19,3.79-6.03,18.09
	c0,0-5.33,9.88,0.98,9.78c0,0,8.42-2.35,11.22-8.94c0,0,3.65-6.31,4.63-7.15C717.76,773.47,719.44,769.12,725.33,784.83z"/>
<path class="st0" d="M601.41,864.81c0.89,0.71,1.8,1.42,2.73,2.14c1.46,1.13,2.92,2.23,4.36,3.3c0,0,6.73,6.87,27.21,2.45
	c0,0,1.33-0.56-2.1-0.84c0,0-20.62-2.03-22.79-3.51c-1.04-0.14-2.22-0.37-3.48-0.75c-2.17-0.64-3.94-1.51-5.29-2.31
	C601.83,865.14,601.62,864.98,601.41,864.81z"/>
<path class="st35" d="M694.67,789.56c0,0,3.32-3.4,4.16-2.77c0,0,0.49-4.42,2.1-7.01c0,0,0.84-12.46,5.3-17.38l7.26-5.91l8.56-7.32
	l2.04-1.91l9.8-6.63c0,0,2.06-1.26,1.87-2.03l-14.64,6.26c0,0-9.32,8.42-17.38,14.06c0,0-4.54,2.31-7.11,20.67
	C696.63,779.59,696.45,786.67,694.67,789.56z"/>
<path class="st61" d="M391.29,550.86c0,0,4.62,7.93,8.03,8.24c0,0,18.52,86.54,8.1,97.24c0,0-5.58-2.29-4.79,4.19
	c0,0-3.17-2.46-1.64-6.35c0.07-0.18,0.15-0.36,0.24-0.54c2.07-4.21,3.95-7.08,3.36-11.6L391.29,550.86z"/>
<path class="st36" d="M463.04,388.29c0,0,29.6,29.15,35.07,50.64c2.81-4.12,6.51-8.84,11.32-13.61c6.73-6.68,13.46-11.3,18.89-14.45
	c5.06-2.82,10.51-5.65,16.33-8.42c6.94-3.29,13.61-6.11,19.92-8.54c-10.31,4.42-19.2,7.54-26.01,9.71
	c-10.33,3.3-15.71,4.36-21.47,4.72c-4.81,0.3-8.93,0.05-11.97-0.28c-8.41-0.91-15.12-3.17-19.64-5.05
	C482.12,401.24,478.57,399.18,463.04,388.29z"/>
<path class="st62" d="M342.83,489.07c0,0,5.89,28.62-4.21,52.6c0,0-23.99,18.25-77.85,7.55c0,0,6.17,7.53,4.77,8.93
	c0,0,0.56,1.54-7.29-2.24c0,0-17.25-7.57-20.76-13.61l-7.01-14.73c0,0-3.23,6.87-2.95,10.1c0,0-7.29-14.87-7.43-24.55
	c0,0-1.54-25.25,0-28.75c0,0,2.81-7.85-5.82,3.51c0,0-0.63-21.74,8-46.36c0,0,15.78-31.58,21.48-35.04c0,0,22.44-30.58,10.01-9.82
	c0,0-3.93,9.44,2.71-0.37c0,0,48.35-48.11,50.03-54.56c0,0,3.65-13.89,4.21-1.68c0,0,1.4,13.04,0.14,18.23c0,0-0.7,12.76,4.63,7.01
	l7.01-1.68c0,0,1.26,0.42,1.4,4.77l1.4,12.62c0,0-1.12,4.91,6.87,3.37l14.87-2.38l-0.84,14.17c0,0,15.88-6.31,18.39-5.47
	c0,0,6.09,0.56,4.02,2.38c0,0-15.89,21.11-17.78,31.21c0,0-5.96,24.83-5.61,32.19c0,0-3.86,30.09-23.85,53.65
	c0,0-16.83,16.41-18.09,16.41C302.01,526.53,332.31,513.26,342.83,489.07z"/>
<path class="st63" d="M338.62,388.29c0,0-14.1,31.56-15.57,47.76c0,0,6.94-16.9,6.1-9.61c0,0-2.74,24.34-15.99,50.85
	c0,0-9.26,22.93-34.51,39.35l1.47-10.38c0,0-11.57,13.61-27.98,15.01l1.15,8.09c0,0-9.73-1.4-16.08-7.11c0,0-5.14-5.61-6.83-11.41
	c0,0-0.56-1.87-1.78,2.71c0,0-3.3,10.39-3.01,19.83c0,0,0.98-15.62-0.02-22.26c0,0-2.28-10.1,0-17.39l2.12-19.49
	c0,0,0.46-3.82-1.47-1.3l-5.37,5.08c0,0,3.9-22.36,8.02-30.87c0,0,13.16-33.34,25.65-41.68l-3.93,17.25c0,0,14.87-28.89,22.37-33.45
	l21.57-24.44c0,0,15.11-16.03,15.96-23.74c0,0,0.35-0.84,0.31,0c0,0,1.06,13.2,0.18,16.49l-0.18,7.29c0,0-0.21,3.16,3.3,1.19
	l5.17-1.68l0.76,14.38c0,0-0.84,9.61,6.66,10.94C326.7,389.69,334.41,390.89,338.62,388.29z"/>
<path class="st64" d="M225.6,533.38l0.42-11.37c0,0-0.06-12.35-1.19-15.8l2.88-31.97c0,0,0.32-3.82-1.47-1.3
	c-1.79,2.52-0.31,0.29-0.31,0.29l-5.06,4.79l3.43-16.73c0,0,9.36-28.91,12.26-30.94c0,0,11.94-22.57,17.98-24.89l-3.93,17.25
	l11.28-19.75c0,0,8.84-12.91,10.5-13.31c0,0,2.89-3,5.19-5.61l23.14-26.34c0,0,9.67-11.7,9.71-16.12c0,0,0.18-1.74,0.39-0.51
	c0,0-0.82-8.28-2.09-5.37c0,0-1,5.85-3.24,7.96c0,0-23.31,27.92-28.71,30.44c0,0-14.82,14.35-17.23,19.1c0,0-2.83,2.57-3.81,4.96
	c-0.98,2.38-0.35-0.31-0.35-0.31s-3.63,6.83-2.13,0.13c0,0,2.72-6.71,4.04-7.69c0,0,0.95-2.67-3.45,2.96l-9.51,12.44
	c0,0-5,5.64-6.41,7.82c0,0-12.87,20.8-14.08,24.92s-0.17,0.33-0.17,0.33s-6.46,17.72-7.71,28.24L214.31,484l-0.04,3.88l4.79-5.55
	c0,0,2.25-2.35,1.03,2.04c0,0-1.75,16.97-0.24,24.22c0,0-0.62,6.42,2.69,16.65c0,0,2.7,7.29,2.98,7.94
	C225.79,533.84,225.6,533.38,225.6,533.38z"/>
<path class="st65" d="M319.96,328.68c0,0,12.76-42.08,16.55-44.18c0,0,5.61-10.48,31.85-7.79c0.22,0.02,0.45,0.05,0.67,0.07
	c0,0,4.65,0.84,6.06,2.95c0,0-15.85-3.23-31.14,2.38c0,0-6.17,4.35-7.01,11.5l-12.2,37.59c0,0-3.51,26.16-7.01,28.72
	c0,0-1.4,0.32,0-2.35c0,0,1.12-13.33,0.56-14.73C318.28,342.85,317.99,335.03,319.96,328.68z"/>
<path class="st66" d="M316.69,359.35c0,0,0.84-0.29,2-0.72c2.54-0.92,6.62-2.44,6.88-2.84c0,0,2.9,16.09,18.33,10.94
	c0,0,9.73-2.99,8.32-20.86c0,0-1.4-10.57-7.39-21.51c0,0-2.62-8.88-1.78-10.1c0,0-2.9-2.81,1.31-3.27c0,0,7.86-3.37,9.63-5.89
	c0,0-8.51-4.02-8.42-5.61c0,0-0.95-1.32,1.73-1.89c0.03-0.01,0.07-0.01,0.1-0.02c2.71-0.54,11.33-3.24,11.93-5.61
	c0.02-0.08,0.03-0.16,0.03-0.24c0.05-2.43,2.29-2.81,3.41,0.23c0,0,8.84,11.97,12.3,11.36c0.03-0.16,0.07-0.39,0.11-0.68
	c0.33-2.45-0.07-3.87-0.07-4.98c0-2.15,1.51-3.79,2.6-4.98c2.51-2.75,5.68-3.34,6.67-3.48c0,0-8.79-9.91-9.3-9.49
	c0,0-23.06-2.58-32.92,3.92c0,0-5.58,6.87-8.8,20.95l-8.64,26.61c0,0-3.54,24.07-5.01,24.97l-0.91,2.24
	C318.8,358.42,318.47,358.92,316.69,359.35z"/>
<path class="st67" d="M328.52,362.62c0,0,3.04,13.66,2.2,16.56l19.26-4.3c0,0,1.31,1.31,1.31,4.3v9.54c0,0,12.16-5.33,15.99-4.49
	c0,0,13.56,2.15,21.41-1.22c0,0,11.5-4.68,14.73-9.23c0,0,2.24-3.58,4.35-4.14l6.24-6.1c0,0,4.56-3.02,7.78-3.61
	c0,0,5.6-0.94,7.89-3.9c0.09-0.11,0.17-0.22,0.24-0.34l2.29-2.9l-3.18-10.73l-13.98,16.18l-7.01,9.02c0,0-6.38,9.89-18.45,7.57
	c0,0-4.56,1.22-10.31-8.09l-11.85-14.29c0,0-0.63,7.29-3.86,10.66c0,0-4.56,7.22-7.57,8.35c0,0-1.54,1.33,0.14-1.54
	c0,0,6.38-7.85,6.24-14.59c0,0,1.89-6.24-1.19-10.66c0,0-14.24-16.9-14.52-22.79c0,0-1.96-4.7,4.28-11.99l4.07-5.33l-3.49-0.68
	l2.47,1.24c0,0-1.54,2.43-9.63,5.89c0,0-2.63-0.02-2.05,2.28l0.74,0.99c0,0-0.05,5.52,1.78,10.1c0,0,2.72,5.45,3.46,7.42
	c0,0,4.84,13.23,4.03,19.05c0,0,1.02,16.29-13.71,16.91C338.62,367.76,334.41,369.55,328.52,362.62z"/>
<path class="st68" d="M352.79,323.49c0,0,3.51-1.47,4.21-0.49c0,0,2.45,5.12,13.68,18.59c0,0,16.97,22.09,21.74,26.79
	c0,0,2.81-0.28,3.58,0.63c0.77,0.91,0,0.42,0,0.42s-1.78-0.91-3.65-0.35c-0.7,0.21-3.23,1.96-5.47-0.07l-24.41-30.79
	C362.46,338.22,351.8,326.01,352.79,323.49z"/>
<path class="st69" d="M352.54,323.49c0,0-1.16-5.01,2.17-9.05c0,0,4.35-6.56,5.68-7.05c0,0,4.35-4.94,3.86-1.02
	c0,0-1.12,3.82-4.28,6.17c0,0-4.03,4.73-2.98,10.45C356.99,323,356.96,321.59,352.54,323.49z"/>
<path class="st70" d="M366.81,309.95c0,0-5.05,7.74-5.54,8.15c0,0-1.26,2.02-0.35,4.9l15.64,22.16l17.39,21.58
	c0,0,2.81,4.67,6.52,1.02l10.57-12.15v-3.74c0,0-7.48,8.04-10.01,2.43c0,0-5.33-8.51-8.04-11.03c0,0-9.36-11.77-11.97-15.55
	c-0.39-0.56-0.62-0.95-0.66-1.09c-0.28-1.12-5.33-4.3-7.2-10.94C373.17,315.68,373.08,313.95,366.81,309.95z"/>
<path class="st71" d="M411.04,351.87l16.33-19.3c0,0,0.91,1.12,0.18,3.26l-16.5,19.78V351.87z"/>
<path class="st0" d="M376.86,337.42c0,0-1.73,2.9,2.15,7.76c0,0,3.74,4.07,6.45,1.64c0,0,2.99-2.31,3.09-4.31
	c0,0,1.26-2.33-1.4-4.85c0,0-2.67-4.07-5.33-3.41C381.82,334.24,378.78,334.06,376.86,337.42z"/>
<path class="st70" d="M379.65,337.47c0,0-1.4,1.31,0.4,5.19c0,0,1.75,4.32,4.82,1.19c0,0,2.69-2.1,0.19-4.61
	C385.05,339.25,382.5,334.62,379.65,337.47z"/>
<path class="st72" d="M345.75,299.75c0,0,1.98,1.16,3.1,0.88l11.08-1.12c0,0,2.2-1.12,1.92-2.52l-2.15-4.96c0,0,0.33-2.81,2.18-1.03
	c0,0-2.28-0.75-1.29,1.03l1.97,4.3l1.73,2.9c0,0,5.84,6.41,8.09,7.01c0,0,5.52,3.88,12.81,2.01c0,0,5-2.95,5.56-5.56
	c0,0,0.75-2.1,0.33-3.74c0,0-4.96,7.9-11.64,5.47c0,0-3.77-0.73-4.27-5.97c0,0,0.28,4.88-0.08,4.9c0,0-0.76,1.65-7.6-5.63
	l-4.69-5.73c0,0-0.74-2.44-2.43-2.11c0,0-0.87,0.03-1.13,2.39c0,0-2.01,2.94-9.46,4.73c0,0-5.38,0.9-4.26,2.39
	C345.52,299.38,345.6,299.66,345.75,299.75z"/>
<path class="st73" d="M382.29,291.93c0,0-5.39,2.31-5.17,6.83c0,0,1.1,6.01,6.38,4.3c0,0,3.53-1.71,4.65-3.18
	c0,0,1.54-1.8,2.36-1.75c0,0,0.82-0.86-0.35-1.59l-5.14-5.17C385.02,291.37,383.25,291.18,382.29,291.93z"/>
<path class="st74" d="M375.09,314.89c0,0-1.12,1.79-0.56,4.21l2.59,3.83l2.06,2.22c0,0,0.79,0.64,1.34,1.77l5.35,7.25l3.53,4.53
	l4.67,5.7c0,0,4.22,4.86,4.93,6.75c0,0,2.06,3.01,2.47,3.9c0,0,1.73,2.44,4.65,0.55c0.73-0.48,1.79-1.23,3-2.24
	c2.61-2.18,4.22-4.19,4.92-5.04c2.46-3.03,7.14-8.5,13.33-15.75c-0.28-1.53-0.55-3.06-0.83-4.59c0,0-12.41,14.49-12.55,15.38
	c0,0-7.6,9.05-9.98,9.98c0,0-0.91,0.26-2.22-1.47c0,0-9.88-14.59-12.93-17.7c0,0,3.86,2.32,5.31,3.91
	C394.16,338.08,375.93,313.2,375.09,314.89z"/>
<path class="st75" d="M397.53,295.89c0,0,1.59,23.51-22.26,18.91c0,0,7.21,6.76,12.09,14.19c0,0,16.64,20.74,17.81,23.6
	c0,0,7.9-7.42,8.81-9.24c0.91-1.82,12.55-15.38,12.55-15.38l-0.19-10.63c0,0-0.14-2.81-2.14,0.91c0,0-2.05-6.6,0.85-20.91
	c0,0,8.74-20.43,14.87-27.4c0,0,1.13-2.43-0.47-6.03c0,0-1.65-8.05-1.12-11.8c0,0-0.75-13.13,5.89-18.5c0,0,2.95-3.51-3.93,1.87
	c0,0-4.91,4.93-5.19,6.45c0,0-3.96,6.08-6.42,7.48c0,0,2.42,4.07,1.37,8.98c0,0-2.14,9.96-13.19,12.69c0,0-5.43,0.74-6.82-0.07
	c0,0,7.87,7.01,1.98,18.3C412.05,289.33,406.4,298.17,397.53,295.89z"/>
<path class="st76" d="M410.69,271.67c0,0,3.69,2.8,3.54,9.74c0,0,0.13,5.13-2.89,8.88l-3.67,42.28c0,0,4.4,3.31,5.42-4.83l8.6-54.42
	l0.6-4.47c-0.9,0.59-2.04,1.19-3.41,1.67c-3.71,1.28-7.03,0.84-8.79,0.46c0.06,0.06,0.11,0.13,0.17,0.19
	C410.41,271.34,410.56,271.51,410.69,271.67z"/>
<path class="st77" d="M351.73,271.31c0,0,22.02-2.1,27.49,4.35c0,0,8.07,8.21,9.12,9.75c0,0,7.71,9.19,14.87,4
	c0,0,6.24-3.37,5.89-8.42c0,0,0.05-2.31-1.1-0.44c0,0-6.37,5.74-9,4.9c0,0-3.61-0.28-5.15-5.26c0,0-1.93-3.89,1.23-7.26
	c0,0,2.6-3.19,6.87-4.28c0,0,0.49-0.68-0.63-1.1c0,0-8.91-10.09-9.91-9.58c0,0-6.71-3.62-22.7-1.94
	C368.71,256.02,360.17,256.53,351.73,271.31z"/>
<path class="st73" d="M402.4,270.89c0,0-5.05,0.74-7.57,4.98c0,0-1.12,3.68,1.65,6.35c0,0,1.75,2.38,3.79,1.89
	c0,0,7.73-4.63,8.14-4.45c0,0,0.98,0.14-0.35-2.12C408.05,277.53,404.75,270.78,402.4,270.89z"/>
<path class="st65" d="M352.35,271.26c0,0,13.75-17.33,42.02-11.09c0,0-2.24-2.3-2.96-2.2c0,0-6.53-3.51-21.59-2.05
	c0,0-4.38-0.15-10.16,5.08c0,0-3.64,2.74-7.92,10.32L352.35,271.26z"/>
<path class="st78" d="M352.35,271.26c0,0,2.53-3.08,5.97-2.75c0,0,13.17-0.51,20.7,1.82c0,0,3.88,0.28,8.28,6.87
	c0,0,7.57,13.89,16.62,6.5c0,0,4.65-3.42,4.84-3.88c0,0,2.35,3.97-4.88,9.19c0,0-4.76,4.36-11.6-0.17c0,0-2.98-2.07-3.73-3.21
	l-5.59-6.13c0,0-6.27-7.05-8.14-6.58C374.8,272.91,365.34,269.52,352.35,271.26z"/>
<path class="st79" d="M377,250.08c0,0,11.17-1.12,19.03,4.25c0,0,3.88,3.27,4.72,5.38c0,0,4.49,7.06,15.99,4.72
	c0,0,5.84-1.63,8.09-6.99c0,0,0.28-3.44-1.12-5.21c0,0-0.56-0.51-0.94,1.22c0,0-4.72,7.11-9.49,5.89c0,0-4.82-0.51-5.61-4.3
	c0,0-1.03-5.89,7.06-9.12c0,0,0.28-0.51-0.98-1.12c0,0-8.18-6.87-18.75-6.5c0,0-8.46,0.23-12.11,4.16
	C382.9,242.46,375.27,249.33,377,250.08z"/>
<path class="st73" d="M415.87,246.73l6.07,3.79c0,0,1.26,0.74,0,1.75c0,0-4.07,5.79-9.26,5.54c0,0-3.79-1.05-3.19-4
	C409.49,253.81,409.77,250.06,415.87,246.73z"/>
<path class="st80" d="M422.5,236.91l-3.12,3.26c0,0-1.3,0.91,0,1.4l2.07,0.63c0,0,0.98,0.21,1.82-1.05l2.17-2.56
	c0,0,0.14-0.84-0.84-0.95c0,0-1.51-0.25-0.81-1.05c0,0,1.58-1.75,3.02,0l6.14-6.7c0,0,4.63-6.77,6.66-7.47c0,0,1.51-1.65,4-1.58
	c0,0,2.14-1.02-4.73-0.67c0,0-3.3,0.7-4.42,2.63c0,0-6.52,8.49-9.33,10.84c0,0-1.7,1.63-1.93,2.37
	C423.2,236.01,423.2,237.01,422.5,236.91z"/>
<path class="st81" d="M425.69,243.62c-0.36,0.42-0.58,0.8-0.71,1.08c-0.11,0.22-0.16,0.36-0.16,0.52c0,0.33,0.18,0.65,0.42,0.8
	c0.41,0.27,1.14,0.11,1.61-0.52l5.89-5.98c0,0,6.08-6.97,7.71-7.48c0,0,2.85-2.76,5.75,0c0,0-2.29,2.2-2.06,5.98
	c0,0,0.75,0.84,2.99-5.8c0,0,0.42-9.35,1.26-10.01c0,0-3.83-1.08-5.8,1.17c-0.95,1-2.33,2.5-3.9,4.4c-2.23,2.68-3.66,4.74-4.39,5.76
	C432.55,236,429.83,239.44,425.69,243.62z"/>
<path class="st82" d="M447.37,235.31c0,0-4.16,2.99-4.21,13.7c0,0,0.09,8.7,1.7,12.25c0,0,0.4,1.78,1.24-0.42
	c0,0,2.29-4.3,2.76-6.87l-0.47-12.86c0,0-1.12,1.03-0.51-2.15C447.89,238.95,448.07,235.54,447.37,235.31z"/>
<path class="st83" d="M447.77,239.66c-0.67,1.28-1.01,2.4-1.19,3.25c-0.35,1.6-0.19,2.4-0.44,4.56c-0.19,1.61-0.45,2.57-0.61,3.36
	c-0.38,1.87-0.63,4.75,0,9.12c1-1.83,1.58-3.44,1.94-4.63c1.03-3.4,1.08-6.27,1.11-9.38c0.02-1.98-0.07-3.64-0.17-4.83
	c-0.07,0.05-0.25,0.17-0.41,0.11c-0.16-0.06-0.29-0.29-0.28-0.94L447.77,239.66z"/>
<path class="st65" d="M377,250.08c0,0-0.91-0.4,0.78-2.33c0,0,5.92-8.84,13.59-9.05c0,0,9.8-1.89,17.38,2.91
	c0,0-24.76-1.88-25.53,8.54L377,250.08z"/>
<path class="st84" d="M383.99,247.61c0,0,13.31,0.09,20.83,8.46c0,0,11.13,9.77,17.67-2.22c0,0,0.71-2.57,1.55-1.11
	c0,0,1.97,4.28,0,6.23c0,0-3.46,6.83-13,5.94c0,0-7.43-0.83-10.29-5.2c0,0-2.77-6.25-11.51-8.46l-6.17-1.1
	C383.08,250.16,383.75,247.6,383.99,247.61z"/>
<path class="st85" d="M462.89,197.81c0,0,12.06-5.89,13.75-5.33c0,0-0.65-5.56,0-7.95c0,0,2.67-30.72,23.05-39.88
	c0,0,5.98-2.15,12.16-3.27c0,0,0.19-2.99,2.81-5.52l7.57-8.98l-7.67,13.84c0,0,24.22-1.22,30.77,8.98c0,0,2.9,2.34,6.55,7.95
	c0,0,4.4,8.7,4.86,20.76l-0.65,11.78c0,0,31.98,10.47,40.68,17.11c0,0,16.36,7.9,19.03,11.41c0,0,2.38-41.52-2.81-51.06
	c0,0-2.81-21.32-16.27-33.38c0,0-22.02-17.95-59.61-14.17c0,0-37.45,0.14-59.47,30.58C477.62,150.68,468.08,163.3,462.89,197.81z"/>
<path class="st86" d="M617.54,210.29c0,0,22.72,16.41,24.41,19.57c0,0,0.16-37.9-2.36-45.47c0,0-1.31-13.84-14.03-28.99
	c0,0-13.28-14.4-23.8-19.17c0,0,9.05,12.76,10.52,19.78c0,0,7.39,14.17,6.45,39.7C618.73,195.71,618.4,209.92,617.54,210.29z"/>
<path class="st87" d="M638.61,226.11l3.18,3.51l0.11-9.25l-0.52-19.51l-1.03-12.76l-2.19-10.04c0,0-2.55-7.73-4.54-10.81
	c0,0-5.31-11.1-19.85-22.98c0,0-9.91-7.87-12.01-8.05c2.4,2.2,4.85,4.54,7.31,7.02c4.33,4.36,8.23,8.68,11.74,12.85
	c4.26,4.83,7,9.09,8.7,12.06c1.65,2.89,2.53,4.94,2.9,5.84c1.28,3.12,2.02,5.88,2.46,7.95
	C634.86,181.96,639.14,206.11,638.61,226.11z"/>
<path class="st88" d="M462.89,197.81l7.75-3.52c0,0-1.16-8.76,8.8-33.65c0,0,13.19-28.02,38.71-34.51c0,0,13.61-5.89,26.72-5.61
	c0,0-9.33-2.48-31.6,4.23c0,0-26.02,8.54-37.39,28.71C475.9,153.47,465.75,171.02,462.89,197.81z"/>
<path class="st88" d="M585.25,131.65c0,0-37.4-15.71-63.96-1.87c0,0,2.19-5.15,8.33-7.36c0,0,12.52-2.93,15.89-1.81l-4.49-1.04
	c0,0,29.46-1.49,41.8,9.36L585.25,131.65z"/>
<path class="st89" d="M577.68,126.23c0,0,13.98,3.69,21.98,30.62c0,0,5.33,27.63-2.24,39.98c0,0-0.84,3.93-4.63,0.98
	c0,0-32.54-12.58-36.47-11.83l-0.23,4.21c0,0,27.48,9.46,36.49,14.5c0,0,21.2,10.93,23.21,14.02l0.49-14.45l-0.31-19.95
	c0,0-0.79-10.91-1.57-12.59c-0.26-1.43-0.53-2.86-0.79-4.3c-0.73-3.15-1.72-6.58-3.05-10.2c-2.61-7.07-5.81-12.88-8.79-17.42
	c0,0-5.05-6.49-11.47-9.67c-1.28-0.67-2.73-1.34-4.37-1.93C582.84,127.06,580.01,126.5,577.68,126.23z"/>
<path class="st90" d="M615.79,218.71c0,0,11.22,6.31,21.39,16.69l12.51,13.33l16.88,16.41c0,0,17.95,17.11,18.52,19.36
	c0,0,5.19,8,4.63,12.2c0,0,2.77,0.74,1.54-6.8c0,0,0-3.86-5.19-10.94l-16.55-16.48l-20.55-21.04c0,0-5.1-5.03-6.17-7.15
	c0,0-6.2-7.76-11.29-11.41c0,0-11.78-10.8-13.79-11.36c0,0-1.72-1.5-1.42-4.16L615.79,218.71z"/>
<path class="st91" d="M648.37,254.22c0,0,3.18,20.32-9.63,35.18c0,0,1.45,5.96,2.4,6.84c0,0,0.39,1.72,3.79,1.93
	c0,0,19.82,5.54,36.01,3.3c0,0,6.52-0.79,9.05-4.49c0,0-1.45,1.22-2.43,1.73c0,0,0.84-4.25-3.93-10.19l-13.75-14.26l-9.73-9.35
	L648.37,254.22z"/>
<path class="st92" d="M616.91,250.34c0,0-5.96,6.87-3.09,23.42l1.54,6.38c0,0,1.26,3.72,5.4,6.66c0,0,4.07,1.05,8.21-0.77
	c0,0,4.77-0.98,8.84-9.33c0,0,4.35-8.42,3.72-19.5c0,0,0.49-9.82-4.77-13.47c0,0-5.68-4.77-12.62-0.77
	C624.13,242.98,619.92,245.57,616.91,250.34z"/>
<path class="st93" d="M613.4,259.92c0,0,9.63-17.23,19.5-14.09c0,0,4.01,0.83,8.69,14.09c0,0-0.03-8.46-1.26-11.06
	c0,0-1.63-6.35-10.09-7.48c0,0-7.29-1.6-15.15,12.2L613.4,259.92z"/>
<path d="M621.54,278.11c0,0-2.57,1.15,0.28,1.47c0,0,7.11,0.23,8.6-8.18c0,0,1.64-7.57-1.92-9.91c0,0-1.17-1.88-3.6-1.57
	c0,0-1.08,0.78-0.05-1.33c0,0,2.06-5,6.22-4.82c0,0,5.38,0.79,5.98,8.46v8.23c0,0,1.31-8.18,0-12.76c0,0-1.17-5.05-3.97-6.41
	c0,0-1.45-1.72-4.72-0.67c0,0-5.28,1.65-7.01,7.03c0,0-0.51-0.89-2.52,10.57c0,0-0.84,4.72,1.4,1.08c0,0,2.81-4.39,3.74-4.68
	c0,0,2.2-1.4,2.43,1.73c0,0,0.28,4.3-1.12,6.5C625.28,272.85,623.87,276.87,621.54,278.11z"/>
<path class="st85" d="M552.63,114.63c0,0,15.08,1.3,16.73,2.91c0,0,0.91-0.42-1.61-2.56c0,0-4.17-3.79-9.85-3.3
	C557.89,111.69,552.35,111.62,552.63,114.63z"/>
<path class="st94" d="M484.29,174.38c0,0-2.38,0.63-2.38,2.24l-2.24,13.68c0,0-1.05,0.56,2.31-0.28c0,0,33.45-5.33,50.29-2.24
	c0,0,3.72-3.02,4.28-6.03c0,0,2.1-6.31-1.12-8.56c0,0-3.16-2.74-13.26-2.95c0,0-17.81,0-20.83,0.42L484.29,174.38z"/>
<path class="st95" d="M479.66,190.31l1.51-1.61c0,0-0.41-1.68,0.57-2.2l1.73-8.93c0,0,0.23-2.2,3.23-2.24l9.63-1.64l3.99-2.8
	l-15.16,3.31c0,0-2.89,0.18-3.34,2.95L479.66,190.31z"/>
<path class="st96" d="M536.54,181.75c0,0-33.36-2.36-54.8,4.75c0,0-0.82,0.42-0.57,2.2l-1.51,1.61c0,0,29.34-5.68,52.6-2.52
	C532.26,187.78,536.22,184.8,536.54,181.75z"/>
<path class="st97" d="M529.1,177.47c0,0-2.24,3.21,0.23,3.13c0,0,2.99,1.04,2.48-0.88C531.81,179.71,531.72,175.51,529.1,177.47z"/>
<path class="st98" d="M538.78,172.47c0,0,5.18,5.94-1.57,15.48c0,0,12.98,0.61,14.47,2.36c0,0,1.03-11.34,0-14.05
	c0,0-0.09-1.59-3.18-2.24L538.78,172.47z"/>
<path class="st96" d="M539.77,183.21l12.37,0.53l-0.46,6.56c0,0-2.77-1.53-7.01-1.75l-7.37-0.61
	C537.31,187.95,539.77,183.91,539.77,183.21z"/>
<path class="st99" d="M489.99,167.58c0,0,36.94-7.01,58.61,3.02c0,0,1.75,1.4,0.49-2.7c0,0-1.33-14.55-15.29-19.11
	c0,0-14.17-5.26-28.4-0.77c0,0,1.51,4,4.66,3.23c0,0,1.75,0.67-1.23,1.16C508.83,152.4,495.76,154.12,489.99,167.58z"/>
<path class="st100" d="M505.4,148.01c0,0,17.86-5.47,32.84,2.77c0,0,8.71,3.75,11.31,18.36c0,0,0.58,3.21-1.73,1.1
	c0,0-9.18-16.83-23.07-19.01c0,0-8.27-2.6-17.14-0.39C507.61,150.85,505.33,148.58,505.4,148.01z"/>
<path class="st101" d="M621.68,292.91c0,0,6.17,0.7,10.87-1.47c0,0,5.82,13.75,5.82,20.06c0,0,0.56,4.7-1.4,7.78
	c0,0-8.42,16.2-9.12,17.25c0,0,3.02-20.13,1.68-22.55C629.53,313.99,625.53,298.8,621.68,292.91z"/>
<path class="st102" d="M621.68,292.91c0,0,5.19,1.03,10.87-1.47c0,0,5.23,13.17,5.36,16.25l0.52,5.89l-11.07-6.95
	C627.37,306.63,623.69,295.95,621.68,292.91z"/>
<path class="st103" d="M574.03,202.53c0,0,34.79,14.96,51.81,31.33c0,0,2.71,1.96-0.56,2.99c0,0-15.15,2.62-16.27,21.79
	c0,0-0.84,10.66,2.06,24.22c0,0,9.73,12.72,10.61,21.13c0,0,2.57,14.68,1.64,20.48c0,0-1.03,8.98-2.06,3.55l-1.12-8.6l-5.98,21.23
	c0,0-3.55,15.62-22.16,32.17c0,0-9.91,7.85-4.96,1.4l7.11-14.68c0,0-18.33,21.88-38.46,31.21c0,0-37.85,21.55-69.48,6.01
	c0,0-16.34-6.83-28.12-23.1l-9.44-13v-4.33c0,0,20.29,28.73,49.94,33.69c0,0,46.66,10.75,83.55-35.96c0,0,13.19-18.09,14.31-38.99
	c0,0-0.28-13.33-2.03-16.1c0,0-4.35-13.85-13.75-18.97c0,0-9.75-5.89-12.06-5.4c0,0-1.61-1.47,2.17-2.24c0,0,12.34-5.75,15.64-17.6
	c0,0,3.37-12.13,1.82-23.08c0,0-3.1-13.5-6.21-17.2c0,0-3.91-5.36-10.13-9.8C571.88,204.68,571.45,201.38,574.03,202.53z"/>
<path class="st104" d="M510.16,215.48c0,0,7.15,0.28,13.33-4.35c0,0,15.99-9.82,30.58-7.85c0,0,16.41,1.54,23.28,13.33
	c0,0,7.71,9.4,6.87,26.23c0,0,0.56,13.33-6.73,20.34c0,0-10.38,10.1-14.59,11.36c0,0,19.34,8.14,24.82,19.78
	c0,0,6.6,14.19,2.39,32.76c0,0-2.52,14.79-15.85,30.22c0,0-20.69,24.13-46.82,28.05c0,0-29.21,5.52-53.62-10.28
	c0,0-22.44-17.48-26.79-35.51c0,0-8.74-21.55,1.59-47c0,0,2.34-8.06,17.07-18.3c0,0,1.4-0.84-1.68-2.24c0,0-4.25-2.81-5.24-8.04
	c0,0-5.56-24.48-4.16-31.47c0,0-0.35-9.86,2.6-13.79c0,0,5.54-14.87,20.69-14.87c0,0,4.49-2.1,14.73,5.05
	C492.63,208.89,499.52,218.13,510.16,215.48z"/>
<path class="st105" d="M573.25,280.05c0,0,14.03,7.29,17.41,24.59c0,0,3.09,14.63-2.66,29.64c0,0-7.77,20.02-23.52,32.45
	c0,0-22.91,23.42-56.15,19.54c0,0-29.35-0.96-45.53-21.42c0,0-9.87-10.93-10.53-15.88c0,0,32.57,37.64,76.96,23.96
	c0,0,30.98-8.88,46.5-36.4c0,0,9.2-14.82,8.11-31.61c0,0-0.84-13.75-6.73-19.36l-8.42-6.36
	C568.7,279.21,572.01,279.31,573.25,280.05z"/>
<path class="st106" d="M453.68,259.01c0,0,0.79,9.02,2.01,9.44c0,0,0.94,2.06,3.32,5.28c0,0,0.51,0.89-0.47,1.03
	c0,0-6.73,4.68-11.69,13.56c0,0-9.44,12.48-7.76,37.54c0,0,5.14,23.89,9.54,30.46l0.39,11.72c0,0-3.2-3.24-6.82-11.72
	c0,0-8.81-15.87-9.28-30.27c0,0-0.47-17.32,1.57-22.19l1.26-4.86c0,0,0.63-2.81-0.98-0.42c0,0-5.26,5.26-5.47,8.63
	c0,0,1.54-11.92,5.61-17.39l16.69-26.37L453.68,259.01z"/>
<path class="st107" d="M466,273.58c0,0,2.15,0.74,2.01,2.35c0,0-10.59,8.07-14.38,15.5c0,0-8,13.4-7.29,28.54
	c0,0,5,27.34,5.94,31.49c0,0-6.58-10.01-7.94-22.92c0,0-1.91-18.52,0.31-22.18c0,0,1.6-14.04,10.12-22.85c0,0,7.37-7.17,8.41-7.43
	c0,0,2.98-2.06,2.85-2.43L466,273.58z"/>
<path class="st0" d="M478.04,335.76c0,0-1.96-2.31,1.82-1.4c0,0,14.52,6.52,45.94,2.45c0,0-10.8,5.54-14.8,5.47
	c0,0-9.61,1.68-20.2-0.56C490.81,341.72,481.5,339.53,478.04,335.76z"/>
<path class="st108" d="M482.04,339.69c0,0,2.31,2.55,8.77,4.84c0,0,7.22,1.82,12.2,1.96c0,0,6.1,0.56,11.5-2.31l12.69-6.98
	c0,0-0.54-0.8-1.78-0.19c0,0-17.93,11.4-41.88,2.27C483.55,339.28,481.36,338.73,482.04,339.69z"/>
<path class="st109" d="M514.02,341.76"/>
<path class="st0" d="M451.18,308.69c0,0,1.72-2.38,4.61-0.49c0,0,12.19,10.38,33.61,11.31c0,0,15.34,2.9,40.96-2.43
	c0,0,13.65-2.81,22.16-8.6c0,0,5.47-2.67,9.05-7.5l3.16-3.23c0,0,0.7-0.98-1.19-1.19c0,0-6.31-2.31-8.21-1.47
	c0,0,0.42-2.17,4.49-2.59c0,0,6.38-1.19,11.08,3.16c0,0,5.4,5.96,3.72,11.57c0,0-0.77,0.77-1.47-1.26c0,0-1.96-6.17-4.42-6.38
	c0,0-8.98,15.99-36.19,22.58c0,0-25.11,6.52-46.71,2.38c0,0-23.63-4.55-28.9-10.45C456.93,314.09,451.32,310.93,451.18,308.69z"/>
<path class="st110" d="M528.96,282.72c-0.87,0.87-1.7,1.34-3.34,2.25c-3.2,1.76-6.07,2.71-8.06,3.25l3.48-4.09l-4.44-2.43
	l-7.95,0.42l-5.19,2.01l-10.99-0.61l-5-7.34l-6.36,1.92l-6.08-4.5l-0.46,0.53c0,0-0.69,1.02,4.05,9.2l-0.85-0.11
	c0,0,1.92,2.13,1.78,3.16c0,0-0.33,0.94-1.78-0.56c-1.45-1.49-4.52-3.13-6.38-8.25c-1.86-5.12,0.84-10.78,2.84-12.11
	c0,0,1.29-1.92,5.33-3.22c0,0,1.09-0.88-0.28-1.54c-1.37-0.67-4.56-5.93-3.05-13.54c0,0,0.32-2,1.54,0c0,0,2,3.4,4.84,0.46
	c0,0,1.05-3.82-3.22-5.54c0,0,2.95-4.14,7.26-1.19c0,0,2.58,1.5,4.17,5.38c0,0,1.36,1.78,0.47-1.45c0,0-2.66-9.54-7.95-11.78
	c0,0-6.87-2.1-11.97,4.91c0,0-3.46,3.09-4.16,13.65c0,0,1.18,8.56,4.21,11.08c0,0,0.84,2.01-1.4,0.7c0,0-2.29-0.52-4.3-7.62
	c0,0-2.17-7.86,1.4-17.53c0,0,6.38-12.2,16.27-9.4c0,0,8.7,1.96,10.1,15.08c0,0,1.82,11.08-2.38,17.18l-3.75-0.35
	c0,0,3.68-3.3,2.95-4.35c0,0-0.98-1.33-2.98,1.79c0,0-1.78,3.28-0.33,3.47c0,0,8.7,3.36,9.3,4.72c0,0,2.9,2.52,9.02-1.96
	c0,0,7.98-6.05,15.7-3c5.83,1.74,10.12,6.15,10.86,11.3C531.9,272.98,532.68,278.98,528.96,282.72z"/>
<path class="st111" d="M478.09,279.96c0,0-5.05-9.73,4.68-12.11c0,0,3.55-0.98,9.35,2.57c0,0,5.66,4.96,14.73-0.98
	c0,0,8.6-5.66,13.89-3.51c0,0,3.37,0.94,4.77,3.13c0,0,3.39,4.25,1.57,10.89c0,0-1.49,5.1-9.51,8.25c0,0,1.94-6.03-2.55-4.7
	c0,0-13.82,2.45-14.45,3.72c0,0-0.98,2.17-3.65,1.4c0,0-8.63-0.7-10.52-2.24l-3.79-3.65C482.6,282.74,479.82,284.12,478.09,279.96z"
	/>
<path class="st112" d="M482.6,282.18c0,0-4.87-4.28-2.14-4.87c0,0,1.51-0.74,4.24,1.51c0,0,3.05,2.28,3.82,3.82
	c0,0,3.75,1.75,3.93-0.88c0,0-1.12-6.52-5.12-9.22c0,0-2.31-2.6-6.59-1.3c-0.33,0.21-0.79,0.55-1.25,1.06
	c-0.37,0.4-1.1,1.23-1.4,2.52c-0.04,0.19-0.21,0.95-0.07,1.94c0.23,1.64,1.14,2.76,1.6,3.25
	C479.62,280.01,481.59,282.07,482.6,282.18z"/>
<path class="st110" d="M502.19,282.85c0,0,1.17-7.33,9.59-10.73c0,0,3.89-1.89,6.21-0.25c0.38,0.28,0.92,0.74,1.38,1.45
	c1.15,1.77,0.86,3.66,0.74,4.4c-0.11,0.63-0.48,2.88-1.58,3.02c-0.73,0.09-1.4-0.79-1.62-1.09c-0.21-0.26-0.52-0.58-0.97-0.79
	c-1.49-0.72-3.09,0.27-3.24,0.36c-1.56,0.59-2.8,1.15-3.66,1.57c-2.54,1.22-3.81,1.83-3.87,1.87c0,0-0.48,0.31-1.57,0.68
	c-0.63,0.21-0.97,0.25-1.18,0.08C502.24,283.26,502.2,283.01,502.19,282.85z"/>
<path class="st113" d="M474.91,271.2c0,0,4.35-10.03,15.06-5.36c0,0,7.57,5.98,13.47,1.5c0,0,9.16-6.04,16.32-2.74
	c0,0,3.14,1.55,4.56,3.17c0,0-3.9-4.2-11.52-1.26c0,0-10.66,5.85-11.92,5.56c0,0-4.31,1.83-10.13-2.43c0,0-8.14-5.33-13.2,1.75
	c0,0-2.5,0.88-2.72,0.26C474.77,271.54,474.8,271.4,474.91,271.2z"/>
<path class="st114" d="M490.85,261.05c0,0,10.51,1.28,24.5-3.77c0,0,0.95-1.3-3.72-0.95c0,0-18.23,1-18.65,0.48
	C492.99,256.82,491.98,260.29,490.85,261.05z"/>
<path class="st112" d="M509.84,256.43c0,0-5.75,0.38-10.29,4.48c0,0,10.36-1.11,15.8-3.63c0,0,0.69-1.26-2.83-1.01L509.84,256.43z"
	/>
<path class="st115" d="M466.02,273.66c0,0-4.58-3.99-5.12-4.8c0,0-2.16-2.39-2.72-7.66l-3.05-17.02c0,0,2.58-13.68,4.96-15.79
	c0,0,11.15-12.42,23.42-8.28c0,0,4.44,2.34,6.27,0.99c1.82-1.36,2.52-1.83,2.52-1.83s3.76,13.33,21.3,9.69c0,0,5.68-1.19,14.8-9.4
	c0,0,1.68,5.4,9.68,2.21c0,0,7.82-4.66,20.83-0.21c0,0,5.22,2.42,7.54,4.77c0,0,2.91,2.81,4.77,2.07c0,0,6.09,7.34,6,12.2
	c0,0,0.47,11.6-4.77,16.65c0,0-7.34,4.25-8.09,0.56c0,0,3.04-14.68-5.38-24.92c0,0-8.56-10.66-22.16-1.4c0,0-9.54,8.07-6.87,23.56
	c0,0-1.43,2.08-2.9-1.31c0,0-3.04-7.48-21.13-5.33c0,0-10.43,3.11-12.14,3.63c0,0,0.33-9.54-0.96-11.92c0,0-3.17-15.39-17.03-10.65
	c0,0-10.89,5.37-10.73,18.21c0,0-0.83,9.96,4.47,15.43c0,0,2.07,1.56,2.04,0.11c0,0,3.21,0.67,4.91,0.1c0,0-4.45,2.86-4.66,5.53
	c0,0-1.13,3.1-0.97,3.73C470.83,272.57,468.15,274.39,466.02,273.66z"/>
<path class="st116" d="M471.55,263.22c0,0,4.16,0.84,7.03-0.65c0,0,2.23-0.27,1.05-1.65c0,0-2.45-1.23-3.45-6.17
	c0,0-1-8.92,0.87-8.41c0,0,2.95,4.92,5.59,1.01c0,0,0.74-4.24-3.28-5.29c0,0,2.74-4.37,7.54-1c0,0,1.37,0.49,4.12,5.26
	c0,0,1.04,1.37,0.18-1.7c0,0-3.02-11.94-9.99-11.89c0,0-5.19-0.5-8.92,4.01c0,0-3.63,3.25-4.66,10.76c0,0-0.47,3.9,0,6.63
	C467.65,254.13,468.6,260.42,471.55,263.22z"/>
<path class="st117" d="M533.68,241.25c0,0,5.05-10.75,15.85-9.54c0,0,7.76,1.12,11.27,9.96c0,0,2.15,4.96,1.54,13
	c0,0-0.05,5-3.04,7.06l-4.16,0.33c0,0-0.84-0.56,0.14-1.4c0,0,4.82-2.85,3.18-10.94c0,0-1.36-9.35-9.3-9.4c0,0-3.04,0.28-3.32,0.61
	c0,0-1.03,0.65,0.47,1.22c0,0,3.1,1.87,1.76,5.8c0,0-0.73,2.34-3.21,2.29c0,0-1.54-0.05-2.48-3.39c0,0-0.89-2.41-1.45,1.99
	c0,0-1.22,6.73,3.18,11.31c0,0,3.18,3.63,4.91,3.48c0,0-6.87,2.98-7.29,3.77c0,0-6.22-2.13-9.21-9.08c0,0-0.19-6.35-0.75-8.14
	C531.77,250.16,531.74,243.83,533.68,241.25z"/>
<path class="st109" d="M553.28,257.25c0,0,4.38-3.47,3.49-1.09c0,0-1.58,3.03-4.09,2.54C552.68,258.7,550.9,258.33,553.28,257.25z"
	/>
<path class="st118" d="M479.34,258.37c0,0-0.54,1.67,0.67,2.37c0,0,1.22,0.12,0.82-2.1C480.83,258.64,480.04,257.03,479.34,258.37z"
	/>
<path class="st111" d="M533.22,273.41c0,0,1.26,11.22-12.48,15.06C520.73,288.47,536.25,285.2,533.22,273.41z"/>
<path class="st12" d="M434.9,677.74c0,0-1.47-0.56-1.54,0.84c0,0-4.84,17.84-2.45,26.49c0,0,0.56,5.53,2.24,7.55
	c0,0,6.8,1.49,6.87,0c0,0-0.77-18.6,0-20.92c0,0,0.91-11.08,2.03-12.06c0.03-0.05,0.06-0.11,0.04-0.18
	c-0.04-0.19-0.37-0.27-0.57-0.31c-0.31-0.07-0.88-0.18-1.72-0.28c-0.56-0.11-1.48-0.28-2.33-0.47c-0.57-0.12-0.61-0.14-1.11-0.25
	c-0.28-0.06-0.46-0.09-0.72-0.16C435.33,677.9,435.07,677.8,434.9,677.74z"/>
<path class="st16" d="M431.14,706.72l8.72,1.14l0.17,4.75c0,0,0.18,1-2.49,0.66l-4.38-0.66
	C433.15,712.61,431.58,710.38,431.14,706.72z"/>
<path class="st119" d="M474.91,271.2c0,0-1.84,5.91,2.99,8.35c0,0-1.96-4.77-0.26-8.35H474.91z"/>
<path class="st110" d="M475.15,276.72c0,0,2.28,5.34,5.21,8.73c0,0,1.41,4.18-2.95,0c0,0-4.46-3.25-5.77-7.25L475.15,276.72z"/>
<path d="M530.53,258.03c0,0-2.15-8.56,0-15.48c0,0,2.52-14.12,16.08-14.96c0,0,10.57,0.56,14.03,7.85c0,0,4.68,7.39,3.93,19.73
	c0,0,0.37,3.27-2.9,4.11c0,0,2.24-12.81-1.31-18.52c0,0-2.99-8.79-14.21-8.98c0,0-6.57,0-12.4,8.98c0,0-2.75,6.36-1.53,12.81
	c0,0,0.28,4.21,0.37,4.86C532.58,258.45,532.54,260.34,530.53,258.03z"/>
<path class="st120" d="M542.28,246.38c0,0,1.51,4.94,3.68,3.61c0,0,3.05-0.63,2.31-4.56c0,0-0.94-2.98-2.94-3.54
	c0,0,0.31-1.23,2.66-1.47c0,0,4.84-0.28,6.56,1.86c0,0,3.12,1.93,4.17,8.1c0,0,1.05,4.59-1.23,8.14l-2.28,2.6
	c0,0-1.02,0.84,0.53,0.74c0,0,7.26,0.67,8.24,2.35c0,0,0.21,0.53-0.98,0.32c0,0-9.78-2.1-20.72,4.98c0,0-0.88-0.21-0.32-1.96
	c0,0,2.88-1.82,6.38-3.51c0,0-6.21-4-7.12-9.33c0,0-0.88-6.17,0.28-8.03C541.51,246.66,541.68,245.57,542.28,246.38z"/>
<path class="st121" d="M552.33,258.04c0,0,4.25-3.34,4.35-2.36c0,0,0.49,0.96-1.36,2.36c0,0-1.73,1.59-2.99,0.47
	C552.33,258.51,552.09,258.23,552.33,258.04z"/>
<path class="st53" d="M436.51,362.22c0,0.87-3.25,42.63,2.01,55.1c0.62,0.47,1.31,0.93,2.07,1.36c4.69,2.64,9.55,2.58,12.48,2.25
	c1.05-0.85,3.85-2.86,7.98-3.2c5.03-0.42,8.66,1.93,9.68,2.64c3.32,2.69,6.69,5.49,10.08,8.39c4.75,4.07,9.28,8.11,13.6,12.11
	c0.23-1.05,0.46-2.61,0.3-4.47c-0.19-2.25-0.89-4.15-2.48-7.11c-1.33-2.47-3.36-5.81-6.36-9.51c-3.23-3.42-6.46-7.17-9.85-11.08
	c-5.06-5.85-10.38-12.3-11.42-14.73l-6.58-11.96c0,0-3.56-4.93-1.93,0.07c0,0,2.86,6.81-1.32,1.59c0,0-15.24-16.09-17.06-22.29
	l-0.7-1.41L436.51,362.22z"/>
<path class="st122" d="M439.29,366.64c0,0,2.63,7.68,6.73,13.48l7.74,9.06c0,0,3.56,2.97,4.95,6.23l11.99,17.83
	c0,0,11.3,3.62,15.01,8.63c0,0-0.19-2.45-2.55-5.09l-11.57-13.3c0,0-10.68-13.03-12.31-19.18c0,0-4.93-8.27-3.2-2.23
	c0,0,2.77,6.95-1,1.98c0,0-13.15-14.53-14.29-17.08C440.79,366.99,438.78,365.25,439.29,366.64z"/>
<path class="st123" d="M478.6,200.49c0,0,11.91,3.3,16.61,9.1c0,0,8.9,9,25.61,2.3c0,0,16.81-10.8,21.41-10.3
	c0,0,11.91-2.8,20.21-0.1c0,0,19.61,6.2,23.71,13.61c0,0-5.6-10.5-6.8-10.5c0,0-19.98-8.63-38.97-9.53c0,0-48.17-3.38-62.65,3.75
	C477.72,198.82,478.65,199.17,478.6,200.49z"/>
<path class="st124" d="M488.23,200.77c0,0,10.17,12.66,21.7,10.81c0.15-0.02,0.29-0.05,0.44-0.08c11.7-2.25,21.83-8.63,28.51-11.18
	C538.87,200.32,514.86,197.09,488.23,200.77z"/>
<path class="st123" d="M477.72,198.82c0,0-14.63,4.98-12.46,5.87c0,0,10.74-5.02,13.33-4.19
	C478.6,200.49,478.62,199.04,477.72,198.82z"/>
<path class="st125" d="M571.88,204.68c0,0,26.74,14.4,27.21,34.51l1.5,25.06l-4.58-5.79c0,0-1.31,8.79,1.22,16.74
	c0,0,10.94,20.48,9.91,35.81l-2.43-5.61c0,0,2.62,10.75-5.61,28.9c0,0,3.55-16.74-1.59-28.52c0,0-2.37-5.81-3.11-6.79
	c0,0-7.57-17.71-13.75-18.97c0,0-8.21-4.84-12.06-5.4c0,0-1.61-1.12,2.17-2.24c0,0,9.63-5.21,14.45-14.05c0,0,4.35-9.73,3.02-26.63
	c0,0-4.14-17.6-9.33-20.9L571.88,204.68z"/>
<path class="st126" d="M459.65,225.35c0,0,2.52-9.5,10.84-12.17c0,0,5.93-3.54,17.53-1.05c0,0,4.24,0.98,4.24,7.08
	c-0.21,0.4-0.61,1-1.29,1.49c-1.54,1.11-3.29,0.8-3.66,0.73c-0.68-0.16-1.48-0.38-2.37-0.69c-1.35-0.47-1.79-0.77-2.89-1.06
	c-0.98-0.26-1.74-0.32-2.44-0.38c-2.18-0.17-3.86,0.11-4.32,0.19c-1.96,0.35-3.54,1.01-4.66,1.61c-0.95,0.47-1.94,1.01-2.95,1.65
	c-1.74,1.1-4.02,2.75-6.16,4.94C461.51,227.7,458.07,231.52,459.65,225.35z"/>
<path class="st127" d="M531.33,214.48c0,0-3.47,2.81-2.24,5.65c0,0,1.65,4.7,10.34,1.12c0,0,6.52-3.23,15.99-0.74
	c0,0,7.01,1.65,11.47,6.28c0,0,5.37,3.61,4.14,0.81c0,0-2.91-8.91-10.48-13.11c0,0-5.65-2.67-9.68-3.09
	C550.86,211.4,536.48,209.57,531.33,214.48z"/>
<path class="st0" d="M502.78,799.27c-1.1,2.25-2.2,4.5-3.3,6.75c-0.87,1.77-1.73,3.54-2.6,5.31c-0.83,1.72-2.07,4.27-3.61,7.36
	c-1.89,3.8-3.28,6.48-3.7,7.29c-1.83,3.56-4.44,9.1-7.89,17.76c0.07,0.25,0.2,0.59,0.5,0.82c0.26,0.19,0.46,0.17,0.73,0.27
	c0.78,0.28,1.12,1.22,1.18,1.39c0.1,0.28,0.18,0.67-0.13,2.23c-0.18,0.91-0.27,1.36-0.52,2.13c-0.56,1.74-1.35,3.29-2.04,4.47
	c-0.69,1.82-1.38,3.65-2.08,5.47c0,0-0.53,1.98-0.3,2.23c0,0,4.23,14.12,3.85,18.96c0,0-1.39,9.98-5.23,12.83
	c0,0-0.85,0.73-0.05-1.53c0,0,2.64-5.84,1.69-15.2c0,0-1.75-10.61-2.47-11.69c0,0-1.71-2.81-0.58-5.46l5.06-12
	c0,0,0.67-1.43-0.59-1.19c0,0-2.49,0.38-2.27-2.66c0,0,6.82-19.1,7.89-19.8c0,0,1.92-4.16,2.43-4.19c0,0,9.1-19.58,11.35-21.19
	c0,0,2.07-2.82,2.6-2.87c0,0,2.06-2.45,0.9,0.67C503.35,798.04,503.06,798.65,502.78,799.27z"/>
<path class="st0" d="M493.7,853.75c0,0-3.58,3.75-14.61,9.19l0.35,1.71c0,0,12.19-4.24,14.17-5.57L493.7,853.75z"/>
</svg>
