<svg xmlns="http://www.w3.org/2000/svg" xml:space="preserve" id="Layer_1" x="0" y="0" version="1.1" viewBox="0 0 1080 1080"><style>.st0{fill:#0b0806}.st4{fill:#fac90e}.st8{fill:#f8ca10}.st9{fill:#d0972a}.st10{fill:#c78c2b}.st19{fill:#c98f2b}.st24{fill:#313332}.st32{fill:#94988d}.st33{fill:#41423e}.st41{fill:#fff272}.st50{fill:#fee171}.st57{fill:#767a77}.st58{fill:#a9aaa5}.st59{fill:#7a7c76}.st60{fill:#fffefe}.st63{fill:#575851}.st65{fill:#51524c}.st78{fill:#fff}.st81{fill:#fdf9f8}.st85{fill:#898a83}.st88{fill:#acaea8}.st94{fill:#fbcd15}.st95{fill:#d99a28}.st99{fill:#3b3b39}.st102{opacity:.78;fill:#fff}.st104{fill:#7a7c72}.st108{fill:#e1e2e0}.st113{fill:#f8c413}.st123{fill:#434441}</style><path d="M824.24 575.15c-1.7-3.29-.57-2.63-.57-2.63 2.92 3.66 2.73 1.12 2.73 1.12.66-4.79-7.33-27.91-7.33-27.91 3.85-5.36 1.22-11.85 1.22-11.85-6.21-23.12-27.92-53.01-27.92-53.01-1.13-22-12.97-44.28-12.97-44.28-22.84-34.4-48.51-43.71-48.51-43.71-12.54-3.52-26.5-13.11-26.5-13.11l-29.19-16.5c-6.35-1.83-7.9-7.75-7.9-7.75-3.24-2.54-10.29-19.6-10.29-19.6 14.81 3.52 30.03-.71 30.03-.71 12.41-4.79 10.58-14.94 10.58-14.94-.42-12.69-23.55-31.16-23.55-31.16-11.7-8.89-24.53-25.38-24.53-25.38 1.55-12.27-2.12-45.41-2.12-45.41-5.36-24.67-25.38-38.98-25.38-38.98-13.96-13.26-41.08-21.46-41.08-21.46-2.91-.66-2.53-1.88-2.53-1.88-11.47-16.73-25.95-4.89-25.95-4.89-2.35 2.54-4.04 2.64-4.04 2.64-49.63 2.25-65.28 27.63-65.28 27.63-16.5 23.69-18.1 57.81-18.1 57.81-8.74 9.87-8.9 22.91-8.9 22.91.63 1.98-1.34 2.33-1.34 2.33-8.74 3.74-8.67 16.36-8.67 16.36-1.27 3.73 3.5 20.07 3.5 20.07-5.88 5.17-14.85 24.86-14.85 24.86-2.97 5.45-2.97 20.14-2.97 20.14.36 3.03 3.11-.14 3.11-.14 1.83-1.91 1.27 0 1.27 0v8.18c-1.06 8.24 4.48 23.24 4.48 23.24-1.19 2.93-13.58 7.56-13.58 7.56l-25.27 11.35c-2.05 1.49-3.85 1.63-3.85 1.63 4.66-10.44 3.11-20.73 3.11-20.73-1.98-10.15-14.1-23.34-14.1-23.34-1.63-.98-.5-5.28-.5-5.28-5-10.93-13.46-14.95-13.46-14.95l-8.89-9.73c-1.55-1.48-.77-3.81-.77-3.81-5.43-10.08-12.34-13.46-12.34-13.46-7.82-1.48-9.3-5.43-9.3-5.43-1.13-2.11-3.53-4.02-3.53-4.02-1.55-.35-5.08-3.81-5.08-3.81-6.2-7.89-20.23-18.25-20.23-18.25-2.26-1.56-7.19-.57-7.19-.57-1.69-3.52-18.12-19.88-18.12-19.88-16.45-10.53-27.92-5.64-27.92-5.64-2.06.94-2.25.19-2.25.19l-11.56-13.07c-1.79-1.03-13.16-14.76-13.16-14.76-1.6-1.97-6.87-3-6.87-3-4.23-1.79-5.92 1.5-5.92 1.5-1.78 1.32.66 10.62.66 10.62.38 4.42 10.15 12.69 10.15 12.69.57.1 14.48 17.11 14.48 17.11-5.17 7.43-.19 24.91-.19 24.91 1.13 6.2 19.65 25.57 19.65 25.57l.28 5.73c0 6.02 13.91 22.19 13.91 22.19 2.63 1.5 1.88 2.82 1.88 2.82l-1.13 5.17c-2.07 3.19-.75 7.61-.75 7.61.66 2.07-.38 2.07-.38 2.07-6.86-2.16-13.53.47-13.53.47-21.53 11.94-11.19 34.68-11.19 34.68 1.69 2.26.19 1.88.19 1.88-19.27 2.73-17.01 23.13-17.01 23.13-10.44 6.39-9.87 14-9.87 14 .56 3.2-1.32 2.07-1.32 2.07-8.27-1.88-21.62 3.1-21.62 3.1-17.11 2.64-29.33 27.36-29.33 27.36-4.89 11 3.39 17.48 3.39 17.48l40.32 45.12c1.2 1.76 4.09 3.39 4.09 3.39l17.34 6.39c2.07.37 1.13 2.16 1.13 2.16l-1.13 22.18c0 20.73 5.08 34.6 5.08 34.6 1.13 4.32 2.91-.94 2.91-.94 1.88-4.05 2.17.65 2.17.65 3.1 15.7 11.42 27.17 11.42 27.17 4.79 8.53 12.12 14.1 12.12 14.1 2.26 2.11 1.84.78 1.84.78l.77-4.09c.35-1.77 5.29 5.28 5.29 5.28 17.55 16.5 32.78 18.47 32.78 18.47 4.58.5 2.75-1.9 2.75-1.9-1.83-1.9-1.62-3.95-1.62-3.95 1.41 1.77 21.5 1.48 21.5 1.48 11.07-1.05 12.48-3.38 12.48-3.38l-.14.42c.14-.42 3.52-3.45 3.52-3.45l-4.16-3.67c4.94-.14 16.6-7.68 16.6-7.68 20.21-13.82 33.46-28.95 33.46-28.95 1.5-3.29 1.97.47 1.97.47l3.01 27.16 3.39 22.37c.09 1.98-3.39 10.72-3.39 10.72-1.5 6.77 1.51 10.25 1.51 10.25 1.97 2.16 1.59 3.38 1.59 3.38l.1 22.94c-.19 3.85.94 5.64.94 5.64l-2.07 8.55-7.61 55.27-3.58 51.89c-1.78 16.73 1.6 25.38 1.6 25.38 4.42 8.65 1.79 22.09 1.79 22.09-3.76 10.25 1.41 15.79 1.41 15.79 2.21 1.83.89 2.73.89 2.73-1.41 1.36-2.68 5.45-2.68 5.45-4.79 17.34 1.48 23.9 1.48 23.9 2.47 1.76 1.2 2.18 1.2 2.18l-6.06 5.43.56-.21c-.56.21-11.7 7.19-11.7 7.19-12.41.85-21.65 4.87-21.65 4.87-7.47 2.53-15.53 11.25-15.53 11.25-7.5 7.28-6.34 16.41-6.34 16.41-.05 3.71-1.04 4.13-1.04 4.13-3.95 2.12-3.38 16.5-3.38 16.5.7 7.9 4.51 9.59 4.51 9.59 25.52 8.74 41.6 9.16 41.6 9.16 47.09 6.35 78.67-13.6 78.67-13.6 2.75 2.96 5.22 3.8 5.22 3.8 4.65 2.89 34.73-6.22 34.73-6.22 9.5-3.48 8.65-10.16 8.65-10.16l.19-13.91c.19-2.72-1.22-5.54-1.22-5.54-.19-12.98-3.86-29.71-3.86-29.71 2.54-1.97 4.8-6.58 4.8-6.58 4.37-7.89.56-23.12.56-23.12-.89-1.41-.47-2.63-.47-2.63 4.42-5.46 4.32-11.1 4.32-11.1.19-5.07-4.23-20.21-4.23-20.21-1.69-3-.18-4.79-.18-4.79 4.04-5.08 2.25-11.33 2.25-11.33-.42-1.31.28-2.39.28-2.39l19.56-41.74c3-2.54 8.83 3.95 8.83 3.95l12.88 21.24L570.44 861c6.58 12.6 5.26 21.81 5.26 21.81-1.03 12.97 8.27 21.24 8.27 21.24l-.28 7.81c-1.32 16.54 11.47 22.74 11.47 22.74l-.85 26.79-.94 2.64-.28 16.63c0 7.34 10.72 10.44 10.72 10.44 3.94.47 3.47 3.76 3.47 3.76.66 6.2 9.03 12.31 9.03 12.31 12.78 9.78 46.34 8.46 46.34 8.46 52.83-.56 58-13.44 58-13.44 4.51-13.72.28-23.69.28-23.69-1.13-1.5-2.63-9.12-2.63-9.12-3.76-12.59-16.73-22.09-16.73-22.09-4.87-1.48-13.54-20.21-13.54-20.21-.85-3.19.47-2.91.47-2.91 15.51-17.86-.38-36.38-.38-36.38 6.4-14 .26-22.35.26-22.35-6.06-10.22-6.69-16.78-6.69-16.78.63-9.51-2.12-15.44-2.12-15.44-2.33-2.11-2.96-13.74-2.96-13.74l-1.69-19.46-5.08-39.55c-.63-12.48-8.22-48.65-8.22-48.65-.76-2.72-.1-5.64-.1-5.64.47-1.88-.37-25.09-.37-25.09l3.47-4.61c3.11-7.05.66-11 .66-11-.56-3.1.38-2.82.38-2.82 11 7.9 41.64 22.19 41.64 22.19 37.22 15.51 67.3 2.58 67.3 2.58 3.95-2.4 4.52-1.13 4.52-1.13l-.71.14c-.7.14-1.83 3.95-1.83 3.95-1.27 1.13-.99 3.53-.99 3.53 18.19.98 36.94-24.68 36.94-24.68 2.12-4.65 2.82-3.1 2.82-3.1.99 5.36 2.96 2.54 2.96 2.54 10.58-12.97 10.02-43.71 10.02-43.71 0-4.8 1.97-2.12 1.97-2.12 2.26 5.92 3.1-6.91 3.1-6.91.57-17.48-9.16-40.79-9.16-40.79M359.4 432.61s-5.78 7.69-10.86 19.25c0 0-4.37 9.73-5.29 19.39 0 0-11.06 9.59-14.31 13.67 0 0-2.61-.35-.56-2.6 0 0 9.02-9.73 9.8-13.54 0 0 7.33-19.67 7.4-21.85 0 0 1.97-8.32.42-16.22 0 0-.63-9.59-6.55-16.36 0 0-.64-2.32 2.75 0 0 0 8.88 10.3 20.44 5.43 0 0 3.1-2.04 8.32-.98 0 0-10.01 9.94-11.56 13.81" class="st0"/><path d="M346.29 968.96s-.8 2.16 1.22 2.63c0 0 30.31 9.82 56.12 8.55 0 0 31.3-1.55 49.21-8.6 0 0 12.22-4.7 17.01-4.32l28.67-7.71s1.6 1.41.66-5.17l-2.63-22.37s-10.15 4.51-49.82.94c0 0-1.69 13.54-12.13 13.82 0 0-2.44 10.81-13.44 8.74 0 0-1.17-.14 0 1.6l3.24 6.16-.09 5.17s-.61 3.01-1.5-.94c0 0-7.19-13.68-11.47-15.74 0 0-10.57-9.31-24.86-10.72 0 0-20.4-1.69-34.4 12.6 0-.01-4.7 3.66-5.79 15.36" style="fill:#4c4e47"/><path d="M346.3 970.71s-.21-17.11 14.88-24c0 0 12.86-8.59 31.18-4.67 0 0 10.44 3.11 13.53 5.81 0 0-19.14-5.72-36.43.67 0 0-12.31 3.48-15.32 15.04l-1.22 9.63c.01-.01-6.46-1.39-6.62-2.48" style="fill:#8d8e84"/><path d="M422.81 955.69s-3.34-.69-1.64 1.38l1.64 3.12s.89.11 6.06-2.31c0 0 11.28-5.24 15.79-10.88 0 0 3.85-4.61 4.61-8.08l24.53 3.48s2.35-.28 1.5 2.73c0 0-1.6 8.15-4.04 10.98 0 0-2.91 9.18-5.4 11.2l3.99-.09 28.67-7.71s1.07.78.95-1.47l-2.93-26.07s-8.74 3.19-32.99 2.08l-16.83-1.14s-1.53 13.57-12.13 13.82c.02 0-2.05 9.68-11.78 8.96" style="fill:#2f2f2e"/><path d="M698.93 538.15s47.15-23.25 67.87-24.66c3.39-.23 6.07.12 7.73 1.26 11.75 8.08 2.63 9.96 2.63 9.96L753 531.26l-20.12 6.4-23.78 10.09s-8.74 0-8.74-1.13-1.43-8.47-1.43-8.47m-184.02-78.11s12.3-19.18 55.46-35.37l19.92-11.54 33.31-22.77h20.3l-7.74 15.91-27.08 34.07s-22.27 26.65-26.78 21.01c0 0-22.56-26.93-37.08-20.02l-14.09 9.4z" class="st4"/><path d="M391.54 936.54s18.22 2.68 24.5 10.08c0 0 6.27 6.66 9.69 4.12 0 0 3.6-1.83 2.71-4.16 0 0-1.45-4.76-14.21-10.22 0 0-6.17-3.45-16.07-3.98 0 0-3.38-.25-4.51 1.09.01.01-3.45 2.3-2.11 3.07" style="fill:#dfa858"/><path d="M407.91 925.2s-1.93-.8-2.49 0c0 0-2.4 2.26-1.32 2.73 0 0 14.01 2.34 16.87 4.44 0 0 8.51 4.06 11.56 8.65 0 0 4.42 3.74 6.86-.96 0 0 2.4-2.96-2.73-5.73 0 0-3.42-3.02-17.25-6.16.02-.01-10.51-2.12-11.5-2.97" style="fill:#eab671"/><path d="M407.79 893.78s-1.39-1.34-1.89-.28c0 0-3.89 6.84-1.56 17.55 0 0-.35 5.78 13.89 9.31 0 0 22 6.84 47.45 6.91 0 0 30.31 1.06 35.04-5.71 0 0 3.31-4.23 1.55-17.55 0 0 .35-4.44-4.23-2.26l-13.61 3.1s2.26 2.19 1.2 9.38c0 0-3.31 12.76-2.68 6.49 0 0 2.33-7.05 1.34-11.42l-1.06-4.09s-34.62 4.16-57.18-4.44c0-.01-16.02-4.66-18.26-6.99" class="st4"/><path d="M466.57 906.19s8.74 6.23 0 16.29c0 0-34.1 0-60.67-11 0 0-.74.87-.44 2.31 0 0 1.77 7.91 49.16 13.04 0 0 31.65 2.59 44.13-3.56 0 0 4.39-.86 4.03-13.06l-.5-6.63s.07-3.81-4.23-1.83l-13.61 3.1s3.85 4.16-.47 15.26c0 0-1.15 4.41-1.01.6 0 0 3.31-7.97.28-15.51z" style="fill:#d29329"/><path d="m486.02 869.56 13.46-5.92 5.43 19.65s.94 6.96-4.89 11.56c0 0-4.03 6.86-39.94 5.55 0 0-20.88-1.41-44.94-8.08 0 0-8.84-4.41-9.75-13.01 0 0 2-14.49 1.81-16.6 0 0 .61-.7 1.69 1.41 0 0 2.35.75 3.52 3.9 0 0 1.46-.24-2.91-9.96 0 0-7.29-12.83-7.57-24.82l5.78-73.88c3.8-1.38 9.18-3.92 14.29-8.69 11.52-10.77 13.11-24.9 13.42-29.02 0 0 1.34 3.95 3.1 4.51 0 0 .92.78 4.02 1.13 0 0 6.49.63 9.24-.21 0 0 1.51.63 1.67-3.38l22.72 3.74s4.86 7.05 11.28 7.26l7.19.92 1.81 21.74s4.51 30.93 14.76 34.4c0 0-29.52-10.43-30.74-12.03 0 0-.38 1.69 7.43 6.39 0 0 6.67 6.3 35.91 16.26 0 0 1.6-.38-1.03 2.54 0 0-13.16 22.65-17.67 35.53 0 0-4.32 6.58-2.91 11.66 0 0 2.26 4.23-3.67 8.46-5.9 4.21-13.28 6.21-13.04 8.26.02.21.17.47.53.73" class="st8"/><path d="M406.67 848.73s.92 3.31 2.04 6.06c0 0 2.13 4.61 2.75 7.95 0 0 1.5 3.24.96 5.26 0 0-2.14-3.83-3.52-3.9 0 0-1.58-2.46-1.68-.78-.11 1.68-.01.28-.01.28s.94 9.66 11.31 11.77c0 0 14.73-.56 22-7.97l13.58-13.68s-22.25 14.31-37.06 5.15c0 0-8.88-4.44-9.8-10.15-.01.01-.43-1.68-.57.01" class="st9"/><path d="M410.92 885.63s-2.91 7.43 46.91 9.4c0 0 18.42 0 21.06-8.37 0 0 4.51-8.55.47-8.65 0 0-10.9-.75-13.16 0 0 0-3.95.28 1.6-1.79 0 0 7.33-3.01 10.15-8.65l4.51-7.14s-13.82 4.37-18.42 1.25c0 0 11.66-3.88 15.04-14.59l12.41-39.86s1.97-1.79-1.79-3.67l-20.87-13.82 23.97 3.67s-28.86-18.42-33.93-28.2l43.9 14.48s3.5 9.91 7.86 11.82c0 0-28.45-10.12-30.14-11.82 0 0 .04 1.48 4.4 4.45 0 0 11.42 8.3 21.35 11.61l18.07 6.88-4.04 6.71s-13.9 25.41-15.84 32.26c0 0-2.83 5.06-2.5 8.45 0 0 1.61 5.13.14 6.54 0 0-4.44 5.89-16.56 12.2l.54.76 13.46-5.92 5.43 19.65s1.24 8.08-6.52 12.89c0 0-12.09 6.71-48.88 3.08-.02 0-39.16-3.73-38.62-13.62" class="st10"/><path d="M510.23 802.49s-8.19 4.52-21.85 39.9c0 0-4.23 7.19-1.55 9.16 0 0 1.69.56.14 3.38l-3.52 9.31s-.99 1.13 0 5.5c0 0 3.43 12.36 2.91 15.51 0 0 .33 7.19-2.26 12.6 0 0 .71 2.4 2.49-2.44 0 0 2.96-7.57 2.63-13.49 0 0-2.65-11.38-3.1-12.13 0 0-1.93-1.13.42-5.4 0 0 4.19-8.25 4.23-9.34 0 0 1.27-4.65-1.06-5.29 0 0-2.33-.21-1.23-1.9 0 0 8.82-19.28 9.81-19.89l9.35-18.38c0-.01 1.41-7.06 2.59-7.1" class="st0"/><path d="m407.72 759.34 7.05-2.11s-11.8 84.73-1.88 99.05c0 0-6.58-5.52-6.23-8.29l2.99 9.03s-4.82-4.78-6.26-14.29c0 0-2.38-9.77-1.45-15.57z" style="fill:#fbf49d"/><path d="m428.59 717.18 5.55 1.5s-3.74 30.64-25.89 39.48l.41-7.43c0 .01 14.48-6.85 19.93-33.55" style="fill:#efba43"/><path d="m414.26 712.34-4.65 31.82s0 1.6 1.88-.38c0 0 7.33-26.88 6.39-30.27-.35-.27-.92-.64-1.69-.89-.8-.26-1.49-.29-1.93-.28" style="fill:#fdf49b"/><path d="M417.88 713.52s7.43 1.97 7.14 2.63c-.95 3.81-1.92 7.18-2.8 10.06-1.49 4.81-2.55 7.57-4.69 10.48-.46.63-.87 1.12-1.15 1.46l-4.89 5.64c-.01-.01 6.76-26.42 6.39-30.27" style="fill:#e8b437"/><path d="M428.68 742.54s2.54.59 7.43-10.31c0 0 14.19 2.16 19.36-3.57 0 0 11.28 5.45 18.52 6.3 0 0 10.53 4.79 21.2 7.14l-.54-6.51s-11.58.63-15.98-5.31l-2.49-2.86-22.72-3.74s.95 4.26-3.22 3.68c0 0-10.68.6-12.3-1.53 0 0-3.06-3.84-2.68-4.6.01-.01-.91 14.17-6.58 21.31" style="fill:#d9a028"/><path d="M495.73 748.53c.02.22.45 5.46.45 5.46s-23.25-6.01-24.52-8.48z" class="st0"/><path d="M499.58 736.36v6.84s18.4-1.8 20.59-.65l-.35-5.48c-3.3-.05-6.65-.13-10.06-.25-3.46-.12-6.85-.28-10.18-.46" style="fill:#b8862c"/><path d="M499.58 743.2s19.11-1.83 20.59-.35c0 0 2.54 29.82 3.03 31.37 0 0-17.7-3.95-19.11-5.71 0 0-1.69-.99-1.76-2.61 0 0-1.83-10.01-2.75-22.7" style="fill:#f6c813"/><path d="M521.02 758s-17.45-2.11-20.48-6.13l20.27-1.7.34 5.22.19 2.85z" style="fill:#be892c"/><path d="M521.15 755.39s-16.03-2.43-17.51-2.88l17.38.88z" class="st0"/><path d="M683.1 875.81s-1.97 14.8-5.64 16.92c0 0-7.19 5.78-29.75 9.45 0 0-17.91 4.09-48.79 0 0 0-12.27-1.97-14.52-11.42 0 0-.85-19.74-1.97-22l14.66 8.46-20.44-20.02-24.67-43.85s-7.9-16.92-22.98-17.34c0 0-12.34-2.19-14.88-5.01 0 0-6.2-4.65-10.47-19.95 0 0 .25-1.13 2.01.56 0 0 4.96 5.01 18.02 4.16l3.69 15.65s3.24 3.03 2.96-.21c0 0-2.96-8.6-3.95-14.95l-2.08-17.15s-2.03-3.97 2.35-3.07c0 0 8.75.43 12.45-.13l11.37-2.86-14.18.82s-11.17.12-12.37-.54l-.23-3.9-.79-12.23s9.76.5 14.84-6.01l36.47-3.48s-1.2 4.16 1.27 5.05c0 0 1.34.93 10.39 1.06 0 0 3.16.03 4.82-1.93 0 0 2.8-2.87 3.27-4.76l11.56-1.68s3.01 17.18 10.97 25.22c0 0 4.37 7.47 17.84 13.18 0 0 7.54 5.5 22.49 4.02 0 0 .32-.81-3.56-.99 0 0-14.7-.78-25.98-9.09 0 0-11.07-7.97-15.02-16.71 0 0-4.86-12.97-4.16-16.07 0 0 5.92-2.26 6.06-.42 0 0 2.54 12.9 7.19 18.26 0 0 8.88 12.9 24.96 16.07 0 0 12.22.99 15.42-.52l8.41 74.37s3.24 8.49-7.19 32.32c0 0 7.9-6.35 8.88-27.21 0 0 1.69 1.06 2.33 10.29 0 0 .78 10.43 6.13 17.62-.01.01 3.37 6.57 2.81 10.02" class="st8"/><path d="m506.21 778.08 9.06 4.16s3.87 2.81 6.22 3.35c0 0 4.22 1.35 4.9 1.67l.95 4.04s2.93 2.79 3 .18l-2.08-6.96s.34-1.28 4.95-1.17c0 0 23.78-1.13 49.91-13.54l-23.88 20.59s-1.88 2.07.47 2.82c0 0 4.7 3.29 25.57 26.51l-27.92-14.01 4.51 6.86s14.48 30.64 29.05 40.98c0 0 31.49 26.23 48.6 8.93 0 0 12.69-12.78 9.02-31.96l-12.41-54s-4.58-12.89-5.62-14.46c0 0 11.69 7.69 26.28 5.79l.4.12 3.9 29.56s4.09 31.16 3.81 34.12c0 0 1.5 10.95 4.91 12.6 0 0-1.6 9.19-6.88 20.82 0 0 8.6-9.09 8.88-27.21 0 0 1.34 12.2.78 15.44 0 0 1.2 10.93 3.6 15.09 0 0 3.1 4.37 1.34 13.46 0 0-3.04 11.6-9.66 14.52 0 0-5.84 5.23-37.22 7.51 0 0-37.23 1.02-40.83-6.31 0 0-6.77-4.67-5.78-13.69 0 0-.84-13.95-1.62-15.15l14.66 8.46-19.16-18.77-1.28-1.26-20.89-37.13s-8.72-16.48-15.1-20.1c0 0-4.42-3.84-14.18-4.47 0 0-10.53-1.68-14.21-6.37 0 0-3.35-3.7-6.05-10.19 0 .03-.58-1.1 0-.83" class="st19"/><path d="M654.54 850.71s-3.84 15.65-10.43 21.4c0 0 8.46-2.86 11.21-20.9 0 0 .09-1.23-.85-.49m-51.89 18.27s6.72 3.99 7.8 5.73c0 0 7.57 6.2 26.7 1.27 0 0 3.24-.85-1.32-.52 0 0-19.32 2.44-32.85-7.28 0 0-2.06-.61-.33.8" class="st0"/><path d="M592.81 884.13s-1.27 6.63 5.4 8.79c0 0 5.64 3.44 20.16 5.52 0 0 14.8 4.09 16 .81l4.44-12.48s.7-.63-2.04-.53c0 0-19.56-3.95-24.96-7.86 0 0-4.32-4.65-9.93-3.56 0 0-4.94.53-3.99 2.61 0 0 2.43 3.63-.35 2.64 0 0-3.79-.32-4.73 4.06" class="st8"/><path d="M592.01 905.93s-.33 14.19 1.83 18.61c0 0 .38 3.95 14.19 5.26 0 0 30.64.28 54.8-5.17 0 0 16.64-.85 22.47-8.84 0 0 4.89-9.68-1.03-21.62 0 0-22.56 14.01-40.7 13.91 0 0-34.87 4.32-51.56-2.54" style="fill:#d69629"/><path d="M611.26 910.77s-6.63 1.2-4.3 8.18c0 0 .71 5.08 13.75 4.23 0 0 13.54 1.27 33.42-5.08 0 0 9.8-2.61 11.14-9.52 0 0 .51-5.33-1.14-4.75-.01.01-14.31 10.19-52.87 6.94" class="st8"/><path d="m601.69 907.91 9.02 3.01s-.13-.31 3.7.1c0 0 23.16 1.8 38.45-2.67 0 0 7.98-2.19 11.26-4.5 0 0-10.75 4.49-25.94 4.79.01 0-21.48 2.15-36.49-.73" style="opacity:.78;fill:#fbf49d"/><path d="M679.06 897.12s4 9.97 2.16 22.36c0 0 6.65-3.17 5.98-12.8 0 0-.39-8.93-2.93-12.5z" class="st8"/><path d="M613.96 958.76s-1.41-4.14-1.03-13.54c0 0-.56-1.69 5.17-1.03l5.85.28s1.9 2.47 4.79 2.33c0 0-2.26 3.1-.35 5.78 0 0 2.4 4.09 6.2 2.61 0 0-10.79 8.67-9.73 14.95 0 0 8.25-13.75 21.22-16.85 0 0 12.27-4.65 32.64-3.95 0 0 20.59-1.06 28.83 16 0 0 4.3 10.22 3.95 13.96 0 0-9.8 5.99-27.42 8.18 0 0-32.08 2.75-42.65 1.06 0 0-18.47-2.04-21.36-7.12 0 0-2.54-1.62-2.54-7.47 0-.01.26-12.04-3.57-15.19" style="fill:#4c4e48"/><path d="M631.49 968.09s3.81-7.75 8.42-8.71c0 0 4.19 1.87 2.54 5.04 0 0-5.57 7.75-8.71 6.73.01.01-3.73.89-2.25-3.06" style="fill:#969891"/><path d="M678.06 949.32s22.45 12.17 11.56 37.31c0 0 13.12-2.77 21.89-7.33 0 0-1.12-30.69-33.45-29.98" class="st24"/><path d="M601.36 966.56s-1.69 10.53 1.03 14.38c0 0 2.07 3.29 7.24 3.57 0 0-1.97-11.75 1.79-7.05 0 0 1.28 6.95 1.44 9.16 0 0 .25 10.01 9.18 14.9 0 0 8.65 6.02 35.72 6.11 0 0 27.26.47 39.01-2.82 0 0 15.89-2.82 16.83-8.08 0 0 2.82-.66.85-11.84 0 0-9.31 8.46-54.61 9.21 0 0-32.34 1.03-41.83-8.46 0 0-3.1-1.74-6.58-10.53-.01.01-1.33-3.28-10.07-8.55" style="fill:#edb31f"/><path d="M693.55 991.48s-.02 13.82-.56 14.19c0 0 15.43-2.61 18.54-6.1 0 0 1.71-1.33 2.23-2.9 0 0 1.94-2.18 1.31-6.98l-.62-4.79c-.01-.01-3.81 3.86-20.9 6.58" style="fill:#be7f2b"/><path d="M625.29 748.15s5.33 7.47 4.1 11.09c0 0 14.56 8.32 27.44 7.61l-.66-7.65s-15.84 2.25-30.08-11.05c-.01 0-.99-.98-.8 0" style="fill:#d49b36"/><path d="M618.28 722.92s3.57 29.7 37.88 32.99l-6.11-41.83s-22.84 6.67-31.77 8.84" style="fill:#d0962a"/><path d="m650.05 714.08 6.11 42.77 5.55.85-7.14-44.84zm6.11 45.13 8.5 68.26s.44 8 1.87 11.41c0 0 3.21 8.94 3.64 3.31 0 0 .74-6.71.2-8.36l-4-34.18-4.67-41.24c.01-.01-4.76 1.44-5.54.8" style="fill:#fee44e"/><path d="M628.81 939.44s5.88-4.61 16.92-4.89c0 0 18.24-2.3 19.08-2.91 0 0 6.72-.8 7.43.56 0 0 1.83 2.4 3.1 2.82 0 0 1.5 1.04-2.44.4 0 0-7.94-2.37-31.4 2.84l-10.76 4.04c0 .01-2.02.76-1.93-2.86" style="fill:#e9c378"/><path d="M632.43 949.08s6.35-6.44 15.18-7.52c0 0 14.57-2.82 25.1-1.32 0 0 7.38 1.79 7.8 3.34 0 0 1.27 2.19-2.63.86 0 0-10.66-1.52-21.31.27 0 0-8.21.09-22.02 7.71-.01 0-3.3-.38-2.12-3.34" style="fill:#dca858"/><path d="m413.55 685.6.85 18.14s-.14 1.5.66 2.11c0 0 8.98 5.5 19.08 7l2.16-21.71s-12.36-2.11-22.23-6.86c0 0-.59-.18-.52 1.32" class="st32"/><path d="M417.08 689.36v17.44s9.21 5.17 17.06 6.06l1.81-18.14z" class="st33"/><path d="M441.99 689.36s-3.45 8.06-3.31 22.98c0 0-.21 9 2.96 9.71 0 0 3.1 1.48 6.13.92 0 0-.56-28.34 2.91-31.35 0-.01-3.9-2.36-8.69-2.26" style="fill:#f6cb43"/><path d="m454.3 695.7-.99 6.63s-1.36 11.61-.42 14.48c0 0 20.77 3.62 22.04 5.59 0 0 .23-22.89.94-23.59 0-.01-21.42-4.12-21.57-3.11" class="st33"/><path d="m454.3 695.7-.5 3.39s21.64 3.57 21.61 4.1c0 0 .09-4.25.47-4.38-.01-.01-20.44-3.93-21.58-3.11" class="st32"/><path d="M479.28 708.44c-.02-2.4.14-4.42.32-5.92.42-3.68.98-4.72 1.45-5.39.95-1.36 2.14-2.04 2.78-2.4 2.59-1.44 5.19-1.25 6.31-1.09l32.15 1.2s10.5-.56 10.79 8.81v19.18c.01.73-.04 1.81-.39 3.05-.36 1.29-.91 3.26-2.71 4.53-1.81 1.27-3.85 1.12-4.58 1.02l-36.73-1.27c-.94-.14-2.38-.48-3.92-1.36-.48-.27-3.82-2.24-5.14-6.22-.39-1.17-.4-1.92-.39-5.68 0-3.19.03-6.03.06-8.46" style="fill:#e5e4e4"/><path d="M481.56 708.97s.47-2.5 3.67-2.69c0 0 1.32.7 1.13-2.26 0 0-1.46-5.17 3.48-5.83l26.55.56s9.12-1.41 10.1 4.04c0 0 1.86 9.8.59 17.77 0 0 .21 6.34-5.43 6.27l-30.03-.99s-4.58.07-5.57-3.1c0 0-.49-5.36-.35-5.99 0 0-.09-.85-1.3-.65 0 0-2.61-.44-2.83-2.34v-4.79z" class="st0"/><path d="M483.72 710.32c-.32.66.07 1.44.13 1.56.55 1.1 1.94 1.39 4.07 1.8.67.13 1.48.21 3.1.38 3.71.38 2.48 0 3.75.2.35.06.97.17 1.64-.11.42-.17.72-.44.89-.63.88-.53 1.21-1.61.85-2.49-.21-.51-.78-.95-2.03-1.17-2.36-.27-4.35-.39-5.83-.45-5.26-.23-6.25.25-6.57.91" style="fill:#c0c3bb"/><path d="M489.22 705.1s-.7-2.87 2.87-2.58l26.88.67s4.61-.81 4.37 4.22l.01 13.07s.32 3.95-4.47 2.91l-28.34-1.5-.42-4.79s9.35 1.55 11.04-1.74c0 0 3.29-5.64-1.08-7.85 0 0-2.49-1.79-8.69-1.65-.01-.01-1.93.23-2.17-.76" class="st33"/><path d="M493.83 702.56s15.32 2.54 18.14 3.48c0 0 6.72.8 6.91 7.71 0 0 .57 8.99-.28 9.62 0 0 3.82.85 4.49-1.4l.25-14.56s.05-4.87-4.37-4.22l-25.33-.69" style="fill:#262825"/><path d="M538.19 701.25s1.83 12.41 0 23.17c0 0-.38.61 1.13.42 0 0 22.89-.85 26.27-3.43 0 0 4.75-3.38 4.65-8.7 0 0 .28-6.86-4.42-9.82 0 0-3.24-2.82-7.05-2.68s-.23-.01-.23-.01-21.43.63-20.35 1.05" class="st33"/><path d="m538.19 701.25.31 2.62 27.32-.97s-3.22-2.78-6.89-2.68c-3.66.1-.16.01-.16.01z" class="st32"/><path d="M576.64 696.1s3.38 16.43 2.54 24.25l-.28 8.25s-.35 1.2.92 1.06l6.77-.42s1.55.21 1.76-1.48c0 0 2.12-13.11.99-18.75 0 0-1.48-12.55-2.33-13.47 0 0 .21-1.83-2.47-1.2 0 0-8.22.11-7.9 1.76" style="fill:#feea57"/><path d="m579.07 723.47 10.01-1.31s-.71 6.07-1.02 6.42c0 0-.46.92-3.05.75 0 0-5.77.41-5.94.17 0 0-.3-.45-.15-1.59z" class="st19"/><path d="M592.01 698.01s2.89 13.54 1.9 21.64l13.96-2.11s3.67.21 5.29-3.45c0 0 4.65-7.83 2.47-13.18 0 0-2.82-6.27-6.49-5.22 0 0-14.21 1.41-17.13 1.27 0-.01-.18.18 0 1.05" class="st33"/><path d="m592.01 696.95.44 3.3s19.7-7.47 22.73-.23c0 0-2.26-4.15-5.08-4.45-.01-.01-13.08 1.55-18.09 1.38" style="fill:#888e83"/><path d="M616.17 705.2s-4.99 10.71-22.06 11.77l-.19 2.68 14.56-2.14s3.17-.39 4.48-2.99c-.01 0 3.33-6.45 3.21-9.32" style="fill:#2f3030"/><path d="M616.68 692.86s8.74 5.78 3.74 19.56l-2.82 4.41s9.31-1.13 11-1.97l22.07-6.27 3.52-1.27s.78-.28.92-1.48c0 0-.42-18.4-.42-18.89 0 0-.07-2.19-2.19-.56 0-.02-30.1 9.29-35.82 6.47" class="st33"/><path d="m650.05 687.1.61 21.48s4.48-1.19 4.44-2.75l-.54-19.47s-.23-1.19-2.06.01c0 0-1.14.35-2.45.73" class="st32"/><path d="M403.59 577.97s8.08 46.72 7.8 51.93l3.24 25.52s.85 3.24-.92 5.29c0 0-4.86 7.05-2.47 10.22 0 0 3.9 11.66 25.99 15.42 0 0 .98.62 1.68-.89 0 0 6.17-2.96 16.6 3.9 0 0 1.46 1.6 3.9 1.5 0 0 15.7 2.3 17.25 3.48 0 0 .85.54 1.13-.81 0 0 4.45-6.2 12.07-5.23.11.01.22.03.34.05 7.83 1.2 29.82-.71 36.66 1.34 0 0 4.16.49 8.6 4.37 0 0 .16 1.2 2.73.92 0 0 27.38-.49 30.41-1.13 0 0 2.84.42 3.52-1.27 0 0 .66-3.41 14.9-2.51 0 0 1.93-.09 2.4 1.74 0 0 .52.52 1.69-.05l21.41-3.13s16.71-2.11 19.25-2.85c0 0 15.93-2.71 19.53-6.52 0 0 6.49-3.81 8.46-9.38 0 0-2.66-8.48-2.94-11.59 0 0-4.23-5.22-19.51-5.22 0 0-4.14-.19-3.01-2.63 0 0 3.29-2.63-.61-1.5 0 0-37.88 11-68.15-9.31 0 0-8.18-6.11-5.08-17.58 0 0 .59-1.18-1.67-2.02 0 0-6.7-4.93-5.5-18.47l.7-3.83s.71-1.06-.63-1.95c0 0-8.04-11.61-2.77-22.79l2.16-3.76s.52-1.03-.42-2.35c0 0-6.86-12.13 1.46-22.98 0 0 5.08-11.14 26.79-10.86l21.01 1.13-5.08-23.12s-1.55-17.06 9.87-28.76c0 0 16.92-14.8 26.65 2.68 0 0 1.6-2.21.09 15.09 0 0 .94 18.42 7.71 26.41 0 0 10.15 11.47 12.97 18.61l3.01 6.39s1.13 2.16 3.57 2.54l11.75 5.26s-9.87-23.03-9.87-24.72c0 0-3.85-14.48-6.11-16.17 0 0-6.67-10.81-7.05-27.82l-.47-7.43 2.07 9.78s6.3 19.55 7.99 23.03c0 0 1.13-25.29 2.54-27.26l4.79-23.22s-3.85 23.97-3.57 28.67c0 0 .56 25.29 6.2 39.57l8.65 19.08s34.4-31.49 61.95-36.57c0 0 38.63-12.5 63.92-1.6 0 0-8.18-16.78-16.92-28.76 0 0-4.51-26.32-9.68-35.91 0 0-9.21-22-28.67-36.94 0 0-9.54-9.54-19.06-7.36l-11 .99s-32.15 7.05-41.24 31.94c0 0 .92-13.89 25.24-28.27 0 0 14.03-9.94 30.74-7.4 0 0-7.1-4.65-14.1-7.1 0 0-21.43-10.39-28.55-15.6 0 0-22.07-11.77-22.84-12.69 0 0-16.38 38.16-36.97 60.44 0 0-33.28 38.54-45.59 41.92 0 0-20.49-19.18-28.2-22.75 0 0-9.49-7.71-21.9 4.23 0 0-10.39 23.88-12.36 40.37 0 0-3.52 14.8-4.37 31.72 0 0-.42 2.04-7.05 1.62 0 0-19.46-.14-19.25-4.51 0 0-1.25-18.45-.31-20.52 0 0 .09-8.18 1.32-11.56 0 0 5.19-21.85 8.01-22.91 0 0 1.41-1.41-1.27-5.22 0 0-2.89-7.31-5.95-11.44 0 0-7.59-12.1-10.2-14.43 0 0-11.42-12.83-15.3-20.66 0 0-6.74-12.76-5.24-7.03 0 0 7.29 13.44 1.64 4.84 0 0-18.09-20.4-18.99-28.11 0 0-6.11 19.22-5.08 38.02 0 0 1.32 18.52 3.01 27.73 0 0-.85 3.48 2.26.75 0 0 15.42-16.64 24.82-15.32 0 0 8.08-.28 13.35 8.08 0 0 6.59 6.17 7.67 9.13.06.16.1.32.13.46l-9.12-6.3s-5.64-7.05-14.48-5.55c0 0-5.83.42-15.74 10.76 0 0-8.08 8.08-10.53 7.43 0 0-2.4 1.08-3.01-5.22 0 0-5.17-25.31-3.69-34.69 0 0 1.34-28.2 3.6-31.23 0 0-1.27-.78-2.26.71 0 0-53.3 20.23-68.53 45.33 0 0-14.95 22.14-15.93 36.38 0 0-.56 2.59 1.32 2.59 0 0-21.76 14.33-20.91 25.05l6.27 11.35s2.75 4.02 6.34 4.3c0 0 23.76 9.87 41.95 33.84 0 0-5.12-23.88-3.95-25.43 0 0-.05-1.97-2.21-3.01 0 0-18.19-18.94-44.88-25.71 0 0 .66-1.88 5.08-.94 0 0 18.24 3.95 41.92 24.44 0 0 2.35-21.71 2.26-24.06 0 0-1.22-16.45.47-21.34l1.32-9.87s-1.41 22.47-.09 27.82c0 0 5.17-20.21 7.61-23.59 0 0 5.17-11.19 4.23-3.85l-.75 7.61s-7.33 28.48-7.14 32.99c0 0-1.79 24.06 2.35 36.38 0 0 4.51 20.68 13.25 26.32 0 0 17.11 14.29-2.07 2.63l-3.2-4.61z" class="st4"/><path d="M393.09 539.9s6.74 22.18 38.04 21.33c0 0 50.2-6.49 61.19-8.74 0 0 14.95-2.26 20.16-.14l37.52 7.47s1.21 6.27 2.61 7.51c0 0 1.09 1.29-.52 3.06l-2.66 5.81s-35.33-4.25-37.3-5.24c0 0-18.12-5.29-36.24-1.06 0 0-32.92 6.49-35.95 7.33 0 0-13.75 4.16-24.39.49 0 0-9.2-4.01-12.28-11.2l.7 1.01 5.72 3.3s4.61 2.47 3.17.6l-6.22-6.02s-8.73-8.79-9.72-13.79c-.01 0-3.61-9.44-3.83-11.72" class="st10"/><path d="M469.86 566.03s31.11-16.54 74.45 3.67c0 0-32.15-5.25-37.69-5.02 0 0-11.37-1.28-35.91 2.3-.01-.01-1.53-.62-.85-.95" class="st0"/><path d="M613.77 651.82s-22.93 20.34-31.02 22.88c0 0 18.99-.94 33.93-5.08 0 0 2.82.47-1.13 3.1 0 0-16.54 14.95-70.59 16.17 0 0-30.65-2.85-34.69-1.5l1.69 1.3s17.86-.03 21.1 3.57c0 0 2.11.92 3.06 2.53 0 0-.34.3 9.06 0l23.41-.93s3.17.14 3.31-1.48c0 0-.07-.67 2.75-1.13 0 0 6.52-2.08 13.44-.97 0 0 .97-.13 1.55 1.67l21.31-3.08s24.57-3.5 29.46-4.98c0 0 8.98-2.65 13.3-6.34 0 0 5.44-4.54 6.03-7.66l-2.1-7.39-.84-4.2s-.51-1.68-10.08-4.41c0 0-4.52-.91-10.38-.93 0 0-2.76-.33-2.19-2.15 0 0 .36-.88 1.16-1.36 0 0 .87-1-.74-.78 0 0-7.12 2.05-8.54 1.9.03-.02-11.32 1.78-12.26 1.25" class="st10"/><path d="M654.61 656.7s-.04 2.62-1.64 2.29c0 0 1.08 11 .33 12.17 0 0-3.29 5.83-5.45 7l3.38-1.13-5.31 4.86s9.21-3.83 12.45-9.33l1.39-2.7s-2.19-7.09-2.15-7.53l-.69-3.56-.1-.5c0 .02-1.51-1.37-2.21-1.57" class="st41"/><path d="M414.25 675.52s-4.2-7.16.17-6.31c0 0 1.87-.56 13.71 6.84l9.13 5.29s3.77 1.13 0-1.23l-11.58-12.67s-.83-1.67 2.44.85c0 0 18.87 10.9 37.76 15.13l10.68 3.56 21.73.6-9.14.66s-8.19-.41-11.36 5.3c0 0 .23 1.38-2.56.25 0 0-14.62-2.68-16.6-2.95 0 0-2.11-.35-2.9-1.28 0 0-6.71-4.9-15.8-4.43 0 0-1.41-.26-2.03 1.33 0 0-13.26-2.89-19.24-7.07.01 0-3.86-2.84-4.41-3.87" class="st10"/><path d="M403.27 566.53s5.53 8.38 10.28 34.05l6.16 49.21.99 11.42-2.82-8.32s-.76 10.52-4.33 14c0 0-1.45 1.25-1.11 1.93 0 0-.32 2.13.2 3 0 0 2.43 5.43-.45.97 0 0-2-2.8-1.57-4.78 0 0 1.74-5.82 2.57-6.48 0 0 2.01-2.1 1.62-4.94l-7.1-53.9-6.1-35.29s-.51-2.77 1.66-.87" class="st41"/><path d="M639.53 524.67s-6.91-5.31-4.79-32.66c0 0-.85 13.11 6.06 22.7 0 0 7.47 17.2 6.06 2.26 0 0-1.71-22.4.18-25.94l1.51-9.49 4.7 8.55s4.42 9.31 4.32-1.6c0 0 6.02-25.29 8.37-27.35l-.66 4.51s3.76-8.08 2.91-3.48c0 0-4.84 34.92 7 55.22 0 0 10.86 19.46 14.52 19.88 0 0 .85.71 5.22-2.54 0 0 40.47-27 70.5-26.16 0 0-33.13 4.98-62.78 24.59 0 0-23.94 16.51-25.35 19.61 0 0-9.96-20.21-10.72-27.64 0 0-6.15-27.62-3.64-38.02l2.82-20.43s-6.08 26.32-5.92 31.01l-1.16 18.23s-7.17-19.16-8.33-24.65c0 0-1.78-13.23-1.34-2.09 0 0 .43 8.77 1.27 12.51 0 0 1.89 10.41 4.16 13.33 0 0 3.22 5.41 4.03 7.61 0 0 3.12 9.33 3.56 11.07l4.29 11.71 5.81 13.85-13.26-5.78s-1.84-.33-2.59-3.16c0 0-6.6-15.06-11.22-18.78z" class="st10"/><path d="M680.33 555.35s-2.63 2.49-.73 4.68c0 0 3.44 4.17 11.04 4.46 0 0 3.65.95 5.26-1.1 0 0 18.2-17.76 45.75-25.51 0 0 29.65-9.02 55.09-6.88l11.79 1.65s-3.41-5.88-4.88-16.02c0 0-11.01-5.51-33.82-3.17l5.07 8.86s2.83 3.51-2.73 3.8c0 0-27.48 1.07-58.96 18.71 0 0-4.48 3.41-7.7-1.56l-4.86-5.85c.01 0-12.67 9.06-20.32 17.93" style="fill:#d89f28"/><path d="M749.88 512.92s11.06-3.29 15.56-4.34l.71-.16-3.85-5.92s.19-.85-2.54-.94c0 0-15.23.19-17.86 2.54 0 0-4.79 2.35 1.32-1.97 0 0 18.52-8.08 6.58-40.14 0 0-9.87-30.17-32.99-44.27 0 0-10.15-7.05-17.77 0 0 0-17.77 11.42-20.45 19.32 0 0-1.31-6.41 18.31-21.61 0 0 14.43-9.68 33.1-9.97l16.98 13.53s21.15 22 24.67 35.67c0 0 6.34 12.41 8.6 32.99 0 0 4.05 18.98 4.93 8.04 0 0 .7-4.23 1.27.99l8.04 14.24c0-.02-18.38-2.71-44.61 2" class="st10"/><path d="M665.37 371.34s41.84 27.61 54.67 30.15c0 0 .57 1.32 3.39 1.16 0 0-8.89.53-21.58 7.65 0 0-22-10.93-25.1-10.79 0 0-10.58-5.36-21.43 7.47 0 0-34.97 47.02-41.31 49.98 0 0-23.26 21.36-27.92 19.03 0 0-23.55-16.85-30.31-17.84 0 0-10.43-4.37-18.61 3.81l-8.18 6.35-.64-1.11 6.09-15.86s10.8-12.01 21.9-4.23c0 0 14.05 8.28 27.47 22.07 0 0-.03 1.93 4.19-.84 0 0 26.77-19.5 38.26-36.01-.01 0 35.06-43.9 39.11-60.99m-226.2 87.25s-2.47-.85 0 2.26c0 0 3.81 1.13 3.67 3.88 0 0 2.47.49 13.82-7.47 0 0 11.56-11.28 20.16-6.06 0 0 13.75 5.78 18.89 14.95 0 0-.59-7.26-4.42-13.75 0 0-6.25-3.59-7.26-5.02l-1.86-1.28s-6.8-8.04-16.42-5.03c0 0-8.07 4.22-13.57 10.01 0 0-5.95 5.95-8.15 6.82 0 0-1.77 1.46-3.7.71z" class="st10"/><path d="M448 390.36s.83 7.38 7.03 14.57c0 0 5.43 5.85 6.56 8.25 0 0 3.27 3.67 5.3 9.24l5.34 8.25s-9.24 3.03-9.59 3.17 7.5.87 7.5.87 5.83-.66 12.2 6.45l3.25 3.71s3.19 3.19 4.24 4.81c0 0 6.07 5.62 5.06 1.8l-6.84-10.46-7.09-8.92s-10.35-12-11.94-15.91l-3.88-7s-3.67-6.54-2.73-2.66l1.98 3.88s3.42 6.58.9 2.95l-6.87-8.5s-8.15-10.21-8.82-11.9z" class="st9"/><path d="M645.54 345.32s1.79-2.26 2.54 0c0 0 9.21 15.51 10.53 28.2 0 0-6.67 14.38-9.31 17.58 0 0-7.05 13.16-16.83 24.53l-23.41 24.72 12.31-18.42s9.4-13.44 11.09-20.96l2.96-7.52s-7.4 7.75-11.42 4.72c0 0-1.34-.7-.85-2.4 0 0 .07-1.2-2.89.85 0 0-16.29 13.37-27.1 16.29 0 0-10.81 4.23-15.42 7.99 0 0 .94-2.44 6.49-5.64 0 0 18.71-15.13 19.27-15.89 0 0 31.3-29.52 35.25-39.57.02-.01 7.17-11 6.79-14.48" style="fill:#d09a2a"/><path d="M645.54 345.32s1.79-4.61-1.64-9.82c0 0 .46-1.22 2.11.89 0 0 5.36 1.13 6.91 5.64 0 0 4.65 12.57 9.59 18.07 0 0 1.34 1.06.56 2.96l-4.47 10.79s-1.37-13.27-10.12-27.82c.01 0-.73-3.3-2.94-.71" style="fill:#fad338"/><path d="M448 390.36s-1.65-2.72-2.06 4.49c0 0-4.37 19.74 0 39.62 0 0 1.27 10.86 9.45 3.95 0 0 5.92-2.77 7.82-2.3 0 0-12.22 7.06-17.21 13.21 0 0-2.4 3.19-2.92-.05 0 0-4.22-32.57-3.07-35.11 0 0 2.64-25.99 4.01-26.6l.73-2.67.36-1.2c-.03 0 .71 3.08 2.89 6.66" style="fill:#fde972"/><path d="M359.02 521.39s3.53-4.99 6.68-12.7c0 0 1-.52 2.51-.06l.2.06c1.62.56 10.96 8.98 10.96 8.98s3.06 2.19 3.11 4.5c0 0 .6 12.73 4.09 24.97 0 0-14.77-19.98-27.55-25.75" style="fill:#d49b29"/><path d="M360.14 499.13s16.87 10.41 22.4 17.37l2.24-23.28-.38-8.67s0-10.97.56-12.29l1.62-11.02s-1.48 20.96 0 27.46c0 0 3.3-14 5.67-19.15 0 0 5.24-12.91 6.17-9.88l-.69 8.05s4.64-5.67 8.66-14.44c0 0 .92-6.3-3.52 2.02 0 0-3.95 10.15-1.76 1.97l2.19-6.28s1.13-4-2.61-.23l-8.6 8.84s-2.89 3.17-3.52 6.56c0 0-2.26 2.47-1.83-1.76 0 0 1.13-14.52-2.33-2.75l-2.8 8.62s-4.04 15.51-4.89 16.64c0 0-6.11 14.66-6.96 15.04-.01-.03-10.4-4.62-9.62-2.82" style="fill:#ce9a2b"/><path d="m405.33 457.88-7.59 9.59-3.8 16.48s-3.16 14.85-3.2 15.11c-.04.25-.68 12.11-.68 12.11l.17 10.86 1.12 10.73s2.41 10.65 4.17 12.12c0 0 5.61 7.98 10.77 10.57 0 0-18.17-20.45-9.71-55.98 0 .01 6.26-35.71 8.75-41.59" style="fill:#fee472"/><path d="M338.93 509.83s-4.74-8.8-2.2-12.67c0 0 2.23-2.55.37-3.74l-1.57-.42s.85-1.46 2.96-1.2l2.54.36s14.52-14.95 14.88-19.82c0 0-2.76-.01-5.15 1.77 0 0-9.03 6.95-11.74 10.08 0 0-6.63 7.25-7.03 10.99 0 0-.37 2.59 2.63 7.18-.01 0 3.5 6.59 4.31 7.47" style="fill:#fef07d"/><path d="M351.65 469.44s.05 3.86 1.74 2.17c0 0 .94-2.07 4.23-2.44 0 0 14.43-38.54 31.14-47.58 0 0 33.53-21.18 41.81-22.6 0 0 6.08-12.41 5.92-6.96v2.54l1.83-6.98s-28.06 11.88-43.01 21.04c0 0-18.39 11.29-28.84 26.63 0 0-14.02 22.63-14.82 34.18" class="st50"/><path d="M493.8 513.72v5.71s-.35.78 1.06.71.35 0 .35 0 16.81 1.76 19.15 1.19c0 0 1.5.78 1.64-.99 0 0 2.04-31.65 4.86-37.72 0 0 7.8-29.33 12.9-32.15 0 0-.99-1.13-4.16 1.2l-15.25 8.67-3.71 8.32-6.91.78s-5.97 10.2-8.04 30.78z" class="st4"/><path d="m671.11 633.15 52.87 23.56 47.59-2.19s32.34-8.8 31.61-9.58 4.98-23.62 4.98-24.89 2.33-22.21 2.54-24.32-7.52-36.45-7.52-36.45-7.78-14.52-8.69-15.16-29.05-3.26-29.05-3.26l-24.82 5.3-9.16 3.67-15.23 6.98 3.53 3.75s25.8-8.52 43.38 2.01c0 0 18.52 9.4 26.98 21.71 0 0-28.48-17.58-55.08-13.16 0 0-17.39 2.63-20.02 2.16 0 0 6.96 3.76 10.9 5.73 0 0-15.42-1.03-37.79-3.85 0 0-14.19-2.35-23.59-9.21 0 0-2.44-1.5-.85 1.32 0 0 4.98 8.27 7.8 11 .22.1.47.25.48.45.02.54-1.91 1-2.51 1.15-2.2.55-6.01 1.69-12.23 3.74 2.47 3.42 4.93 6.85 7.4 10.27 1 1 1.71 1.9 2.19 2.56.55.76.7 1.08.64 1.42-.17 1.04-2.07 1.43-2.26 1.47 0 0-10.01 4.93-11.42 8.46 1.49.95 2.67 1.86 3.52 2.56 1.54 1.28 3.16 2.65 4.57 4.86 1.12 1.75 1.67 2.62 1.54 3.7-.09.78.4 2.06-2.93 4.59-5.87 4.43 10.63 9.65 10.63 9.65" style="fill:#53544e"/><path d="m785.99 484.32-.28 9.76s1.02 2.01 1.2-.92c0 0 .62-.19.46-3.1l.03-2.64-1.13-1.58-.24-1.53" class="st0"/><path d="M352.71 473.02s10.46-3.44 18.45-3.76c0 0 1.83-.99-5.12-.66 0 0-5.71.02-8.28.22l-.13.34s-3.38.38-4.23 2.44c0 0-.82.87-1.15.25 0 0-1-.24.33.62z" style="fill:#a0712a"/><path d="M672.52 658.24s49.63 18.19 59.22 18.89c0 0 29.05 6.32 52.17-5.37 0 0 9.79-4.07 16.29-10.76.12-.12.23-.24.35-.37 6.49-6.91-6.34 14.95-6.34 14.95s12.97-16.36 16.5-24.67c0 0 10.86-21.85.99-68.1l4.14 9.8s-.41-12.34-3.09-18.75c0 0-2.89-18.4-3.31-18.96 0 0-4.79-13.11-3.81-14.03 0 0 3.24-.35 3.88 2.33l7.12 18.14s2.35 9.12-2.44 2.44c0 0-1.88-3.57-1.03 1.79l6.96 18.71s5.17 10.81 6.02 24.06l-4.89-6.49s-1.88-3.48-.85 1.69c0 0 3.1 14.66-1.6 50.48 0 0-.66.66-1.13-3.2 0 0-.09-10.06-2.63-.56 0 0-9.96 24.82-27.92 33.09 0 0-1.97 1.41.09-2.07l3.38-6.77s3.38-4.04-2.63-.38c0 0-25.1 15.7-64.67 8.18-.01 0-19.09-4.98-50.77-24.07" style="fill:#585952"/><path d="m644.23 647.15 17.2-8.65s1.41-1.6-2.35-2.07c0 0-8.08-2.54-9.96-4.61 0 0-1.5-1.79 2.63-3.01 0 0 8.65-4.7 8.72-5.33 0 0 6.91 3.6 12.76-.42 0 0 20.91 16.76 61.24 23.43 0 0 15.98.75 19.46-.56 0 0 3.48-.09-3.29-1.79 0 0-21.62-9.12-23.78-12.6 0 0 17.86 11 44.56 8.65 0 0 6.58-.68 17.67-5.09 0 0-3.85 6.59-9.21 8.85 0 0 6.67.47 17.01-15.98 0 0 8.08-26.88 5.64-38.54 0 0-6.11-36.28-18.24-41.92 0 0 1.6 10.81 1.97 12.97 0 0-3.48-11.47-6.39-12.97 0 0 3.95 12.41 5.92 15.51 0 0-.75.85-8.84-13.25l-4.14-6.02s-.19-1.5-4.89-.85c0 0-32.71 3.38-46.25 17.01 0 0-8.18 2.92-18.14 3.85 0 0 20.77-18.89 55.74-24.06 0 0 21.9-5.31 46.34 1.15 0 0-.45 1.21 1.88 8.42l2.05 5.97 1.83 10.16 1.36 8.44s1.73 5.1 1.78 6.51c0 0 1.24 6.63 1.31 12.24l-4.14-9.8s5.27 25.52 4.07 31.73c0 0-.47 29.88-4.31 34.59 0 0-5.57 12.55-17 26.16l5.46-9.93s4.73-9.23.9-4.97c0 0-9.57 9.32-18.05 11.96 0 0-21.14 11.45-55.49 3.99 0 0-52.96-15.73-54.75-18.08.01 0-12.3-8.08-28.28-11.09" style="fill:#383836"/><path d="M659.11 611.92s9.64-4.68 11.16-4.43c0 0 .62-.45-1.48-.78-1.13-.18-13.04-1.41-13.04-1.41s-1.84 1.76-1.98 2.46c0 .01 4.93 3.37 5.34 4.16m-1.72-28.1s12.43 6.32 13.91 6.06c0 0 .59 1.01-3.05 1.27 0 0-1.08.23 1.62 3.2 0 0-.35 3.21-3.13 1.97l-3.92-4.98z" style="fill:#373732"/><path d="M663.14 565.89s-3.1-5.85-.7-4.3c0 0 22.98 11.07 42.72 8.25 0 0 14.88-1.76 21.29-3.6 0 0 13.47-4.37 26.86-.78 0 0 14.99 3.56 33.23 16.8 0 0-23.48-13.91-49.29-11.47l-22.64 2.5 11.3 5.71s-41.02-2.43-47.35-6.29c0 0-10.04-3.08-13.34-6.28 0 0-1.82-1.58-2.08-.54" style="fill:#93978f"/><path d="M638.75 630.04s7.75 6.77 9.87 7.61c0 0-1.55.63-6.84 1.76 0 0-29.19 12.34-59.5.92 0 0-13.4-4.58-14.7-10.72 0 0-3.21-10.57 1.09-8.74 0 0 4.14 3.24 16.34 3.45 0 0 1.77-.28-2.17-1.41 0 0-11.35-2.96-19.6-7.76 0 0-4.58-3.1-2.96-14.38 0 0 3.1 13.23 20.4 17.08 0 0 7.33-.19 8.32 4.79 0 0-.42 7.66 10.15 9.12 0 0 20.77 6.3 39.81-4.42 0 0 8.88-7.05 8.53-11.49 0 0-.21-1.62-3.95-5.29 0 0-5.36-4.93-1.2-7.26l8.74-7.97s1.9-2.33 0-4.09l-5.99-10.5s-.42-2.19 1.76-2.61l9.02-4.86-3.81-14.38 2.33 2.42s4.79 11.12 8.25 14.5c0 0-.42.7-2.89.99 0 0-12.2 3.1-12.27 3.74 0 0 11 14.66 12.48 15.16 0 0 1.69.71-1.76 1.62 0 0-9.8 3.31-14.73 9.45 0 0-.49.59 2.16 2.07 0 0 9.31 6.16 10.1 7.33 0 0 2.73 1.32-.28 2.82.01.01-6.52 5.23-16.7 11.05" class="st57"/><path d="M561.55 598.84s-1.41-.53-1.37 2.67l2.02 8.09s7.71 5.45 8.13 5.59 12.31 5.17 12.5 5.26 4.75.47 4.98 5.83c0 0-6.44 7.57 6.91 9.07l38.3-.42 5.92-6.19 4.12-3.07s2.29-2.29 2.5-2.54 2.64-2.5 3.1-3.03.92-3.63.95-4.02c.04-.39-2.4-3.97-2.57-4.17s-1.59-1.05-1.97-1.3-1.27-.85-1.52-1.23-3.07-3.77 1.76-7.68l9.27-5.97-3.43-7.43-4.18-6.53s-1.93-2.68 3.38-3.95l7.57-3.34-3.91-13.54-1.97-2.04s-8.95-16.56-13.25-21.25c0 0-10.06-14.11-10.43-16.51 0 0-.52-.85-.23-1.27 0 0-3.2.33-.71-1.27l2.3-.89s-2.24-6.64-1.89-9.71c0 0-7.4.28-7.83-5.78 0 0-.49-13.99 5.85-17.27 0 0-5.01-3.74-10.54 2.04 0 0-6.46 5.71-7.92 19.72 0 0-1.13 5.36 1.27 10.62 0 0-1.08.66-2.16-1.27 0 0-2.4-2.82-1.65.99 0 0 1.79 6.04 2.84 18.66l9.94-.28 4.93.56s1.62 1.41 2.33 1.27c0 0 1.55.78-1.66 1.23 0 0 .14 1.2-6.91 1.8 0 0-1.48 2.89-2.57 3.03 0 0-10.65 1.34-12.76.71 0 0-10.43-1.83-27 .35 0 0-9.87 1.13-13.18 6.7 0 0-3.24 3.6-1.83 10.43 0 0 .28 5.71 5.64 5.15l14.24 1.2s8.6.99 4.79 2.19c0 0-2.19 1.2-8.32 2.47 0 0-12.55 0-13.75 2.4 0 0-5.85 5.12-2.47 12.36l25 6.86s2.16-.47 3.2 2.73c0 0 .66 3.29-1.6 2.35l-1.6-.75s-.56 4.23-20.68 1.03c.05-.01-1.77-.18-1.88-.66" class="st58"/><path d="M557.7 586.24s1.36 3.29 1.55 5.97c0 0 .28.47 4.79 1.74l6.44 1.64s8.18 2.02 13.16 2.4c0 0 .89.85 2.11 1.22 0 0 1.52.95 1.68-1.17 0 0 .07-3.58-2.86-3.93 0 0-22.28-4.47-26.62-8.03.01.01-.33-.04-.25.16m1.11-25.91 27.56 3.77s.61 4.66-1.74 5.43c0 0 .55-.99-4.26-1.47l-15.72-1.4s-3.14.62-4.72-2.17c.01 0-1.18-2.05-1.12-4.16" class="st59"/><path d="M559.25 592.21s-2.74-.69-3.27-8.59c0 0-1.52-11.14 7.05-12.13 0 0 16.25.11 20.02-.92 0 0-7.26 2.26-7.68 1.94 0 0-10.61-.2-13.13 1.79 0 0-3.79 2.63-4.03 7.07 0 0-.33 3.1.84 5.65 0 0-1.55-1.71-1.36-.58 0 0 1.37 3.57 1.56 5.77" class="st60"/><path d="M588.86 581.37s-3.48 13.39 11.09 11.38c0 0 7.33-1.16 1.32-1.34 0 0-11.09.46-11.19-10.02 0 0-1-1.19-1.22-.02m1.88 26.88s-2.4 5.58-1.06 8.68c0 0 2.33 5.01 10.22 2.47 0 0 3.88-1.06-.49-1.13 0 0-8.53-.35-7.97-4.93l.14-4.73c.01 0-.38-1.58-.84-.36m2.89-56.6s-5.36 4.79-2.4 9.24c0 0 2.11 2.96 10.93 3.17 0 0-13.82-4.02-8.53-12.41" class="st0"/><path d="M562.63 566.5s-2.81.91-3.82-1.83c0 0-6.77-16.06 6.97-22.12 0 0 10.43-5.85 37.86-1.2 0 0 3.95.62 5.43-1.45l7.3.4s-1.6 2.91-2.57 3.03-.35.04-.35.04l-10.23.83s-9.8-.83-10.3-.84c0 0-19.77.01-23.46 2.03 0 0-8.25 2.31-10.3 9.08.01 0-2.56 10.24 3.47 12.03" class="st60"/><path d="M605.38 515.11s7.07 4.81 8.48 7.13c0 0 2.11.35 2.96 6.77l.85 6.42-9.94.28s-1.6-15.39-2.84-18.66c0 .01-.34-2.51.49-1.94" class="st57"/><path d="M628.15 519.88s1.74-1.22 2.07-.28c0 0 3.62 10.27 5.69 11.67 0 0 3.81 4.64 6.25 7.04 0 0 4.59 5.13 9.59 16.59l2.66 6.44-2.33-2.42s-8.43-14.87-10.56-17.73c0 0-9.63-13.05-9.85-14.05-.01-.02-3.89-6.04-3.52-7.26m-19.46-2.54s-4.91-2.26-4.84-4.42c0 0-2.02-12.17 4.17-21.26 0 0 5.13-11.12 16.2-7.89 0 0-8.66-1.73-13.28 9.74 0 0-4.2 8.64-3.78 16.96.01 0 .88 5.62 1.53 6.87" style="fill:#f7f6f6"/><path d="M625.24 488.53s-3.38 4.7-3.24 10.25c0 0 .09 5.17 3.48 6.67 0 0 2.91 1.5 2.21-.42 0 0-.44-2.58.11-9.49 0 0 1.24-9.12 0-8.13-.01-.01-1.06-.86-2.56 1.12" class="st58"/><path d="M247.83 537.97s-1.03 29.47-.38 32.43l.38 7.85s.47 1.46 2.12-1.74l4.18-6.2s.68 34.43 18.59 53.32c0 0 .88-1.9 1.62-7.09 0 0 14.48 20.74 31.3 28.92l-2.82-7.85s15.16 9.35 40.11 6.25c0 0 .85-.25-.63-1.5l-3.49-2.93s-1.22-1.09 1.29-1.39c0 0 10.59-3.35 26.6-13.71 0 0 16.64-11 21.93-20.09l8.95-12.53s.09-2.14-1.08-.78c0 0-27.89 34.03-58.28 42.06 0 0-1.13.99 5.08.63 0 0-9.87 3.95-6.56 5.08 0 0 2.7 1.41-4.75 1.06 0 0-19.43-.21-30.29-7.83 0 0-1.2.28-.42 4.02 0 0-27.35-24.89-30.53-34.26 0 0 1.83 10.01 1.41 10.58 0 0 .14 3.52-3.95-5.57 0 0-9.38-15.93-10.01-37.29 0 0-.7-10.62.45-12.13l-4.04 6.51s-.42.68-.38-1.72l.05-22.37z" style="fill:#5c5f57"/><path d="M295.68 513.7c.03.02.07.05.12.1 1.04.87 2.41 2.47 2.5 3.8.1 1.39-1.24 1.69-2.27 3.56-1.23 2.25-.46 3.92-.53 7.65-.06 3.09-.64 4.64-1.18 7.36-.7 3.55-1.34 9.21-.89 18.21 0 0 .61 21.15 4.68 30.17 0 0 .21-13.25 1.34-6.67 0 0 4.23 24.16 18.33 33.09l-1.55-13.31s8.93 11.53 14.48 14.16l3.15 1.6s1.32.66 3.2-1.08c0 0 12.95-8.3 15.06-14.78 0 0 5.15-15.02 3.95-22.7 0 0-2.68-20.52-3.1-21.93 0 0 1.62-4.65-6.7-14.95 0 0-13.36-13.22-16.78-20.02 0 0-4.19-5.96-4.3-9.34 0 0 .39-6.77-3.88-12.34 0 0-4.48 12.62-8.53 16.21 0 0-3.69 2.17-6.84-3.14 0 0-1.74 7.8-2.54 8.65 0 0-2.44 4.09-3.43 1.83-.2-.63-.42-1.12-.57-1.44-.17-.37-1.02-2.12-2.86-3.92-.37-.35-.68-.62-.86-.77" class="st63"/><path d="M381.22 549.25s-8.04 17.27-17.48 17.84c0 0-3.76 25.83-10.43 37.48 0 0 7.8-23.59 5.08-38.07 0 0-2.57-16.32-7.54-21.79 0 0 2.52 4.46 2.21 8.66 0 0 2.3 12.62 2.17 15.18l1.01 7.07s-.45 7.58-.88 9.68l-3.42 12.71s-1.35 3.04-2.93 4.41c0 0-6.7 7.22-11.97 9.9 0 0-1.21 2.09-3.78.79 0 0-6.4-2.42-13.01-10.63l-4.03-4.83 1.55 13.31s-9.64-5.36-14.9-21.05c0 0-3.57-11.37-3.67-13.18 0 0-.29-1.66-.73.73l-.37 7.09s-2.76-7.37-3.18-12.9c0 0-2.67-23.65-1.45-28.99 0 0 .85-7.58 1.16-8.03 0 0 1.43-5.48.69-11.09 0 0 .23-2.13 2.38-4.49 0 0 1.67-1.25-1.35-4.73-3.01-3.48-.57-.52-.57-.52s-2.67-3.31-2.52-6.04c0 0-5.49 2.82-5.77 2.44 0 0-.85 9.87-3.85 13.54 0 0-7.14 7.71-7.43 8.55 0 0-4.79 8.65-16.17 8.65l-5.78-.75-.04 20.46s-.73 5.71.99 2.16l3.34-5.37s-.89 3.55-.34 12.43c0 0 1.14 23 9.62 36.16 0 0 5.23 11.81 4.27 4.24l-1.35-8.57s2.17 5.09 7.68 11.18 5.52 6.09 5.52 6.09l17.33 17s-1.62-6 1.91-3.05c0 0 9.08 6.26 31.08 6.91 0 0 3.33.17 2.81-.86 0 0-1.78-.32-.59-1.66 0 0 5.5-3.63 6.63-3.6 0 0-7.29.06-4.09-.93s3.19-.99 3.19-.99 14.89-5.66 20.64-10.51c0 0 20.79-15.03 22.26-18.22l11.65-12.4s.76.18.57-.95c0 0-2.08-22.09-7.27-28.29 0 0-6.6-10.62-8.85-12.17" style="fill:#3a3937"/><path d="M363.73 567.09s-.78-22.14-5.99-30.1c0 0-7.47-11.84-8.46-14.38 0 0 3.24 1.49 8.67 5.19l10.01 8.56s12.41 9.87 13.25 12.9l-3.49 6.21c0-.01-6.66 11.31-13.99 11.62" class="st65"/><path d="M293.27 507.75s10.16-10.34 9.88-7.29c0 0-.52 8.37-1.55 10.48 0 0-6.22-2.73-8.33-2.77zm13.33-3.57-.75 5.05s2.32 4.32 5.92 3.6c0 0 .97.08 2.2-1.66 0 .01-7.04-7.81-7.37-6.99" style="fill:#414340"/><path d="M322.4 489.04s.34 5.15-1.11 7.23c0 0 3.85 5.54 3.86 11 0 0-.23 3.09 1.18 5.26l6.75 10.84 9.22 10.55 4.58 4.86s4.01 4.52 4.24 6.51c0 0 4.26 4.9 5.99 15 0 0 .69-7.51-5.94-22.04 0 0-5.78-12.31-9.78-16.03 0 0-9.63-12.03-10.48-14.1 0 0-5.26-9.12-6.18-12.5 0 0-1.2-2.87-1.44-6.58.02 0-.29-1.92-.89 0" style="fill:#8d8f88"/><path d="m181.07 476.21 33.41 9.94 41.25 48.23-32.79-10.14z" style="fill:#353532"/><path d="M180.24 472.88s8.08-19.93 10.15-18.61c0 0 .19 2.28 3.08 3.05 0 0 25.49 8.14 28.8 7.72 0 0-9.13 5.63-8.85 17.9.01-.01-31.48-10.35-33.18-10.06" style="fill:#4e4f47"/><path d="M180.24 472.88s-3.87-.33-.34-7.48c0 0 4.24-7.93 8.24-12.26l2.54-2.54s-.33 2.58-.28 3.67c0 0-.87-.36-2.29 2.09l-6.56 13.42z" style="fill:#737471"/><path d="M189.83 450.88s5.59-9.54 25.38-12.41c0 0 3.48-1.41 13.63 2.3l13.72 5.64s3.81 1.32 3.9 4.79v11.04s-1.1 4.69 1.86 7.75l20.47 23.08 7.61 8.65s3.71 3.05 3.99 4.89c0 0 2.82 3.76 1.6 8.37 0 0-2.26 5.5-5.78 8.22 0 0-1.64.47-.52-1.55 0 0 3.71-5.59 1.32-10.72 0 0-.85-1.72-3.9-5.65l-11.33-12.73-14.19-15.93s-7.14-8.93-10.01-9.49c0 0-3.52-2.21-8.04.56 0 0-3.24-2.94-2.94-4.37 0 0 2.4-6.51 9.87-8.48 0 0-5.71-.49-11.49 7.83 0 0-.24.63-2-.49 0 0-5.64-2.91-8.04-.59 0 0-.33.31-2.09-.26l-20.07-5.9s-.94-1.32 0-2.58c0 0 1.5-2.35-1.03-2.26z" style="fill:#ffd12e"/><path d="M200.45 448.58s5.78.8 7.19 2.02c0 0 7.4 4.25 9.73 2.56 0 0 4.93-5.92 12.9-6.84 0 0 .49-1.13-2.26-1.76 0 0-8.32-3.74-11.7-3.17 0 0-7.34.14-15.06 5.64.01 0-1.01.98-.8 1.55" style="fill:#5e5f57"/><path d="M200.92 448.39s5.36-1.97 8.74.52c0 0 6.45 3.3 9.1 2.85 0 0-1.11 1.71-1.84 1.64 0 0-2.21.66-5.75-1.06 0 0-4.36-2.3-5.31-2.58 0 0-4.95-1.1-5.18-1.14s-.24-.03-.24-.03z" style="fill:#3a341f"/><path d="m224.94 465.03 3.43 3.1s-5.12 6.77-5.17 8.6c0 0-2.87 4.37 2.58 10.72l6.02 5.78s-8.08-9.4-7.94-11.98c0 0-.24-3.95 3.67-7.57 0 0 5.03-6.25 7.99-4.61 0 0 5.73 1.17 10.62 7.99 0 0-3.71.8-6.3 5.45 0 0-6.3 7.99-6.49 11.8 0 0-.89.66 2.35 4.51l16.54 19.08 7.14 7.9s5.17 5.92 8.55 1.69l9.12-9.78s.65-.47 0 1.09l-.89 2.04s-1.83 2.74.05 2.37c0 0 .38.85-3.24 5.26l-6.06 5.9s-3.99 3.03-6.96-.26l-21.78-24.84-21.15-24.89s-2.89-4.44.42-8.95c0 .01 5.83-10.45 7.5-10.4" style="fill:#40403a"/><path d="M235.05 493.18s-.51 1.36.52 2.14l22.7 26.44 4.04 4.56s1.93 2.73 4.51.33c0 0 7-6.96 8.46-9.78 0 0 1.55-2.13-.28-3.95l-28.39-33.18s-.89-1.41-1.59.42z" style="fill:#e1a226"/><path d="M243.13 443.08s7.1 2.26 7.19 9.21l-.52 10.48s-.56 2.49.99 4.42l12.92 15.23 10.43 12.08 5.69 5.84s2.44 2.69 3.15 0c0 0 2.63-3.02 3.95-7.11 0 0 1.74-4.51 0-6.63 0 0-5.03-9.07-6.72-11.42 0 0-4.04-5.88-7.71-8.41 0 0-7-6.96-8.37-9.16 0 0-6.53-6.67-7.66-8.46.01-.01-6.72-6.92-13.34-6.07" style="fill:#f4c11c"/><path d="M265.42 468.18s15.88 18.85 17.94 20.3c0 0 1.32-1.04-4.14-5.78.01 0-14.36-16.97-13.8-14.52" style="fill:#141412"/><path d="M232.88 436.12s.38-21.06 26.04-13.35c0 0-25.59-3.29-22.85 14.01 0 0-2.53.28-3.19-.66" class="st78"/><path d="M236.07 433.58s9.6-1.03 21.44 2.54c0 0 7.14-8.93 9.02-9.21s.56 0 .56 0-4.33-3.37-9.59-4.27c.01 0-20.6-2.78-21.43 10.94" style="fill:#ababa5"/><path d="M235.23 436.82s16.92.43 22.28 7.29c0 0 4.04 2.82 4.61 4.04 0 0 6.43 8.93 12.33 9.68 0 0 5.34.28 8.25-5.45 0 0 1.79-5.17-.94-8.46 0 0-1.88-6.02-5.87-4.14 0 0-5.97 4.51-3.43 10.15 0 0 5.36 6.11 9.31.66 0 0-2.16 6.77-10.15 1.32 0 0-4.23-3.15-.75-8.91 0 0 3.31-5.44 6.49-4.8 0 0-3.02-5.85-10.25-11.3 0 0-.56-1.57-9.59 9.21 0 0-10.93-3.36-21.44-2.54v3.2z" style="fill:#81827c"/><path d="M243.6 416.15s-1.55-12.69 10.36-16.29c0 0 8.32-2.68 23.41 4.02 0 0-12.13-6.63-24.96-.49 0 0-7.19 2.33-6.2 9.52z" class="st81"/><path d="m243.6 416.15 2.82-3.2s19.69-1.74 25.57 3.99c5.87 5.73 0 .23 0 .23s10.64 11.39 11.29 11.77c0 0 .86 9.03 9.53 7.17l.78-.31s1.83 1.47-.49 2.39c0 0-4.16 3.28-9.02-1.39 0 0-11.77-14-14.38-14.41-.02.02-7.35-6.42-26.1-6.24" style="fill:#7c7c77"/><path d="M246.21 412.9s-2.21-9.73 12.71-11.07c0 0 7.69-1.28 13.84.2l5.52 2.26s2.26-.92 5.57 4.02c0 0 7.61 8.39 6.77 10.5 0 0-5.38 1.7-7.34 10.12l-10.43-10.96s-2.23-4.64-15.07-5.14z" style="fill:#aeaea6"/><path d="M278.88 406.63s-4.65 9.59-5.82 9.02c0 0 0 2.5 1.9.32 0 0 4.41-5.43 4.55-8.07.01 0 .54-3.07-.63-1.27" class="st0"/><path d="M290.69 420.57s-5.64 4.32-5.54 9.35c0 0 1.08 7.28 8.22 5.22 0 0-3.21-4.7-2.68-9.12 0 0 1.1-4.2 0-5.45" style="fill:#9d9e93"/><path d="M261.18 391.43s-.42 2.4 2.07 2.16c0 0 8.79 1.5 9.82 2.54v-5.55s.7-.52-1.79-1.83c0 0-6.96-4.51-7.61-7.38 0 0 .52-.52 2.49.94 0 0 5.12 4.28 16.12 2.16 0 0 6.63-2.87 8.13-8.46 0 0 1.22-4.04-1.5-7.14 0 0-3.85-6.11-12.64-1.03 0 0-3.34 3.05-3.01 7.24 0 0 1.27 3.62 6.53.89 0 0 3.38-2.11 5.31-4.42 0 0 4.23-4.46 2.68-1.41 0 0-5.31 8.13-10.15 8.18 0 0-5.64 1.55-6.16-2.77 0 0 .05-9.02 4.93-10.39 0 0 4.61-1.41 7.52-.23 0 0-1.74-2.54-9.54-1.83 0 0-7.52.14-11.61 6.3 0 0-2.63 2.68-3.43 9.07 0 0-.33 4.42 2.3 11.42z" class="st85"/><path d="M261.29 391.04s-5.5-10.15-2.89-18.04c0 0 3.67-10.93 12.9-11.63 0 0 6.49.26 10.44 2.25 0 0-8.07-2.16-14.84 1.81 0 0-4.9 2.2-7.05 10.25 0 0-1.57 3.35.99 11.87l.8 2.34z" class="st81"/><path d="M279.2 390.2s-2.75-.23-.28.84c0 0 4.16 3.39 8.39 1.63 0 0 6.27-3.74 10.22-11 0 0 2.89-3.74 1.62-7.97 0 0-6.13-11.28-10.47-11.35 0 0 1.16 1.13 2.36 2.19 0 0 4.3 2.75 4.16 9.38 0 0-.99 7.75-4.23 10.22.01 0-3.52 4.69-11.77 6.06" style="fill:#4e5048"/><path d="M287.31 503.43s6.65-8.65 5.96-18.05c0 0 2.88-5.83 5.6-10.53l3.85 7.14s1.88 1.45-.38-3.79c0 0-3.04-5.05 1.11-13.7 0 0 8.57-14.95 8.67-18.14a26.4 26.4 0 0 0 7.88-2.27c7.45-3.48 11.21-9.56 12.64-12.21-.6 2.16-.77 3.97-.81 5.22 0 0-.09 2.76.46 4.32.01.02.32.9.32.9-2.8 1.26-6.12 3.06-9.57 5.66a50.3 50.3 0 0 0-11.39 12s-3.57 5.17-3.01 21.53l3.95 1.97s-7.24 3.85-7.43 5.45c0 0 10.43-.85 12.78-1.97 0 0-2.63 12.5-6.02 16.45l-8.78-8.18s-.71-.31-2.4 1.02l-6.49 4.62c.02.02-8.07 7.82-6.94 2.56" style="fill:#72716d"/><path d="M312.6 483.5s16.87-7.43 23.22-33.51c0 0 6.49-18.47-2.4-31.3 0 0-8.74-13.25-21.43-.85 0 0 9.31 5.08 3.52 12.83 0 0 9.59 3.24 17.77-4.65l-.66 6.16s-1.79 5.89 0 10.16c0 0-27.02 6.43-23.97 39.19z" class="st88"/><path d="m299.48 420.05-2.95 1.41s-.11 10.06 2.95 13.54c1.29 1.16 2.82 2.27 4.64 3.16 9.37 4.57 19.44.11 21.73-.98 5.33-3.87 6.76-5.17 6.76-5.47v-.56l.66-5.12s-7.05 7.66-17.77 4.65c0 0-4.22 4.78-11.56-.85 0 0-4.14-4.32-4.04-9.25z" style="fill:#87887e"/><path d="M299.48 420.05s1.37.23 1.98 1.55c0 0 1.36 5.22 5.17 7.85 0 0 3.52 3.62 6.96 0 0 0 2.58-3.15.75-5.97 0 0-2.26-3.67-5.55-5.31 0 0-5.19-.19-9.31 1.88" class="st88"/><path d="M299.65 419.96s5.66-2.37 9.4-1.66l1.2.76s-8.75 1.78-8.8 2.53c.01.01-1.06-1.43-1.8-1.63" style="opacity:.42;fill:#fdfefd"/><path d="m309.91 416.87 2.08.97s7.45-7.51 13.73-4.88c0 0 12.27 3.41 12.38 22.55 0 0-1.73 18.05-7.93 29.52 0 0-8.93 15.75-17.57 18.47 0 0 1.47 1.36 9.81-5.29 0 0 7.72-6.18 9.58-13.18 0 0 7.78-17.33 8.48-24.64 0 0 .74-16.17-5.55-23.17 0 0-7.1-16.1-25.01-.35" style="fill:#fdfefd"/><path d="M285.9 403.74s7.44 7.22 8.37 13.13c0 0 7.7-5.21 11.51-4.16 0 0 7.28-2.51 9.21-4.96 0 0 9.82-4.85 15.61-1.68 0 0 7.47-8.25 12.41-7.97l-2.51-7.06-8.51-7.34s-2.65-2.38-3.78.72c0 0-14.1 18.61-16.5 18.75 0 0-2.96 5.22-9.45.42l-5.73-4.27c-.01.01-6.12 6.25-10.63 4.42" style="fill:#4c4b42"/><path d="m340.89 392.16 8.08 8.24s7.61 6.86 3.38 0l-11.47-15.23 15.23 16.07 5.51 6.67s2.41 2.26 0 3.95c0 0-4.1 5.65-10.4.67 0 0-7.71-5.55-12.31-4.99 0 0-6.39.23-8.32-1.48 0 0 8.3-8.37 12.41-7.97z" style="fill:#3a3a35"/><path d="M277.37 396.83s-2.11-2.73 2.27-1.41c0 0 6.26 3.76 14.25-3.29 0 0 8.74-9.27 9.12-14.36 0 0 2.44-8.9-8.18-16.4l-6.67-4.68s-5.71-.09-4.88-4.04l2.62-9.49s3.2 3.67 13.16 2.82c0 0 3.2 2.16 4.89 5.26 0 0 8.18 8.55 14.85 1.79 0 0 4.54-6.89 1.22-2.63 0 0-10.34 9.02-19.27-5.55 0 0 15.18-4.84 23.15-15.06 0 0 12.9-13.18 12.2-26.08 0 0 7.54 1.62 8.39 14.95 0 0-.21 5.43-1.83 6.63 0 0 .49 2.33 2.33-1.41 0 0 1.84-5.92.85-12.83 0 0 .92-2.75 6.34 2.19 0 0 5.08 3.81 5.78 9.45 0 0 .76 3.52 4.75 6.91 0 0 4.41 7.05 8.5 9.59 0 0 6.49 3.67 8.18 7.47 0 0 2.82 4.23 2.4 7.75 0 0-.85 2.96-3.52-1.83 0 0-26.29-28.54-29.56-32.78-.2-.26-.31-.43-.33-.49-.28-1.13-.05 2.4 3.29 5.78l9.12 11.42 10.86 12.55s7.19 8.32 9.59 8.32c0 0 4.79 1.21 3.52 5.61 0 0-1.83 6.16 5.08 13.25 0 0 9.73 8.39 4.09 16.97 0 0-6.2 13.24-12.41 14.51 0 0-6.71 6.99-14.38.85-.7-.56-25.24-28.06-25.24-28.06s-5.5-8.04-12.97-.14l-17.62 20.99s-3.21 5.2-6.33 0l-7.77-4.63s-5.08 7.05-10.72 3.95c-.03-.04-7.08-2.02-9.12-3.85" class="st94"/><path d="M361.08 393.54c-1.47 0-2.78-.72-3.7-2.02-.4-.56-.69-.98-.89-1.28l-26.74-30.29 1.75-1.31c3.89-2.91 10.5-8.34 11.64-10.51l.07-.12.08-.11c5.63-7.8 7.3-9.48 8.22-9.89.37-.21.92-.42 1.62-.42 1.7 0 3.18 1.18 4.39 3.5l13 15.42 6.94 8.05c.7.61 3.23 3.02 3.47 6.14.13 1.7-.45 3.31-1.67 4.69-.69.84-9.49 11.65-11.44 13.98-.59.74-3.53 4.17-6.74 4.17" class="st0"/><path d="M332.71 360.26s10.43-7.8 12.22-11.19c0 0 6.58-9.12 7.43-9.21 0 0 1.6-1.41 3.48 2.35l13.16 15.6 7.05 8.18s5.17 4.23 1.69 8.08c0 0-9.49 11.66-11.47 14.01 0 0-4.7 5.87-7.24 2.27-2.54-3.59-.09-.39-.09-.39z" class="st94"/><path d="M332.71 360.26s10.88-8.19 10.94-9.45l26.95 32.02s-7.06 9.22-9.78 8.7z" class="st95"/><path d="M309.49 370.13s-.19-5.92 7.71-3.67c0 0 7.71 5.36 8.74 10.15 0 0-.85 8.59-9.59 1.15.01.01-6.29-4.43-6.86-7.63" class="st0"/><path d="M313.25 371.18s-4.66-6.59 2.46-2.36c0 0 7.95 4.64 7.53 8.95 0 0-1.45 3.18-6.71-2.56z" style="fill:#423625"/><path d="M299.48 346.63s-4.36 8.74-5.21 9.68c0 0 .13 2.63 2.6 3.29 0 0 9.52 3.59 10.18 11.57 0 0 3.76-8.28 10.15-4.71 0 0 8.74 6.05 8.74 11.3l2.96 2.57s5.42-6 9.19-2.93l2.39 2.14 4.53-3.11-13.04-14.64s-2.09-2.19 1.22-3.74c0 0 10.6-9.31 11.82-11.91l-2.02-4.96s-9.03 11.56-11.02 11.75c0 0-2.56 4.23-9.52-3.1 0 0-1.88-4.42 1.32-5.73 0 0 6.02-4.61 6.39-6.02 0 0-5.54 1.83-10.53-3.83 0 0-7.43 7.03-18.9 10.6 0 0 10.4 15.2 20.29 4.31 0 0-1.41 7.61-11.13 5.93 0 0-6.57-3.07-8.99-7.59.02-.01-1.38-2.09-1.42-.87" class="st95"/><path d="M365.35 397.68s.99-2.54 2.68-1.2l6.91 7.83s1.97 1.62-1.62 1.97c0 0-5.29-3.03-7.97-8.6m9.14-8.75s-3.38 2.3-2.11 4.7l6.56 7.94s1.52 2.35 3.12.99l1.6-1.38s-8.65-10.88-9.17-12.25m5.32-5.49s-3.05 2.19-1.93 3.98l6.97 7.93s2.19 3.28 3.38 1.37c0 0 1.87-1.34.56-3.1zm4.58-8.04s-.92 2.78-2.12 3.74c0 0-.14 1.06 1.06 2.19l7.4 7.12s.95 1.76 1.52-1.94c0-.01-4.51-9.46-7.86-11.11" style="fill:#321"/><path d="M386.43 361.44s-4.1 6.13 4.23 15.58c0 0 5.13 5.47 5.01 8.74 0 0 1.98-6.2-1.48-14.1 0 0-3.33-6.41-7.76-10.22" class="st63"/><path d="M324.32 345.29s14.5-12 16.78-16.5c0 0 7.12 3.45 2.4 9.52 0 0-11.14 13.39-13.25 12.9-.01.01-5.36-1.4-5.93-5.92" style="opacity:.83;fill:#d99a28"/><path d="M271.59 322.38s6.2 4.86 7.26 7.47c0 0 5.43 7.83 9.17 6.63 0 0 1.27-.56-2.12-3.6 0 0-7.68-9.45-7.33-10.5 0 0-6.42.35-6.98 0" class="st99"/><path d="M279.41 322.38s6.56 12.48 16 16.21l10.22-4.35s-15.51-13.63-15.51-16.1c.01.01-9.16 4.95-10.71 4.24m12.13-5.07 14.1 16s13.42-8.81 14.01-10.57L304.3 307.3s-9.73 9.94-12.76 10.01m13.72-11.28 14.76 15.37s8.41-9.59 6.72-13.68c0 0-2.16-5.55-13.63-14.05 0 0-5.54 11.18-7.85 12.36m9.26-22.85s.3 4.73-.94 8.37c0 0 10.48 8.08 12.6 12.15 0 0 .7-7.5 1.69-8.34 0 0-11.04-11.75-13.35-12.18" class="st99"/><path d="m314.38 287.74 12.59 9.4.9-1.79s-10.39-11.68-13.35-12.17z" style="opacity:.72;fill:#d0d3cf"/><path d="M327.87 296.06s-1.83 8.27-.42 11.47l-.78 3.27s-2.53 5.52-7.02 11.93c0 0-12.86 10.52-14.38 11.67 0 0-8.55 4.18-10.11 4.08h-9.25v4.67s10.86 5.55 17.77 0c0 0 13.1-3.92 20.23-13.37 0 0 11.83-13.68 12.18-23.75l.02-2.33c-.01 0-7.16-10.58-8.24-7.64" style="fill:#362d1b"/><circle cx="313.4" cy="333.33" r="1.64" class="st102"/><circle cx="304.7" cy="338.6" r="1.64" class="st102"/><ellipse cx="294.6" cy="342.07" class="st102" rx="1.64" ry=".82"/><circle cx="320" cy="327.82" r="1.64" class="st102"/><circle cx="325.94" cy="320.58" r="1.64" class="st102"/><circle cx="330.1" cy="311.32" r="1.4" class="st102"/><path d="M329.05 304.05s-.52-8.95 2.46-4.65c0 0 2.06 1.2 1.56 5.43 0 0 .11 5.4-1.99 2.7z" style="opacity:.8;fill:#efe7ca"/><path d="M269.68 314.13s-1.41 4.58 2.96 6.45c0 0 9.73.46 14.38-2.43 0 0 12.2-5.08 19.74-16.5 0 0 6.84-9.02 5.5-16.43 0 0-2.96-10.08-3.03-3.88 0 0 2.19 10.73-5.29 18.62 0 0-11.49 18.04-27.42 17.48 0 .01-6.27-.27-6.84-3.31" class="st104"/><path d="M252.62 288.07s20.4.09 31.02-21.53l2.26-6.77 13.07 14.57s7.9 6.58 7.14 10.15c0 0-1.03 11.39-5.83 15.47 0 0-5.03 6.91-9.33 8.31 0 0-11.26 6.44-17.37 4.44 0 0-6.77-4.07-10.25-10.46z" class="st104"/><path d="M261.65 291.29s-1.9-4.09 1.76.35l13.45 15.65s2.34 4.56-1.96.24zm9.94-2.56s-.92-5.92 3.5-.94c0 0 14.29 15.09 14.66 15.91 0 0-3.01 1.86-2.73 2.7l-1.83-4.71 1.83 4.71a.71.71 0 0 1-.57.47zm9.7-7.8 13.82 15.41s3.01.76 2.73-1.59l-14.19-16.17c-.01 0-2.54 1.22-2.36 2.35" class="st0"/><path d="m283.15 281.56 11.81 13.36s2.54 1.29.46-1.26l-10.65-12.42c0 .01-2.56-2.16-1.62.32" class="st99"/><path d="M283.64 266.55s2.58 3.85 5.22 6.77l7.9 8.84s8.74 9.68 4.61 2.16c0 0-9.02-11.37-10.41-14.15 0 0-4.77-6.81-6.42-6.3z" class="st0"/><path d="M284.73 263.56s-.9 1.04-.81 1.87l4.85 5.3 5.03 5.92-2-5.37s-5.19-7.69-7.26-7.69" class="st85"/><path d="M285.04 262.34s20.31 20.21 20.95 23.18-.04.27-.04.27.9-2.82-.58-4.27c0 0-3.81-5.31-5.53-6.41l-4.97-5.33-8.97-10.01z" style="fill:#acaba9"/><path d="M248.11 271.76s.28 9.64 2.4 12.97c0 0-.23 2.56 6.49 1.71 0 0 11.56-3.4 15.93-8.76 0 0 5.82-4.93 7.7-10.86l2.31-7.05s.77-1.55-1.66-2.12l-10.47-3.81s-1.85.99-1.35 3.38c.01.02-4.71 17.36-21.35 14.54" class="st59"/><path d="M249.66 263.02s-2.96 4.7 0 7.21c0 0 3.42 2.62 11-3.61 0 0 2.83-1.63 4.69-6.24.08-.2.16-.4.23-.61 1.84-5.08 2.12-5.36 2.12-5.36s-6.77-2.68-6.56 0c0 0 1.76 4.88-2.04 7.59.01.01-4.93 5.67-9.44 1.02" style="fill:#969892"/><path d="m249.1 271.47 5.36 14.71s8.22-1.45 13.56-4.95l-5.94-9.76 3.52-6.63c-.01 0-6.28 8.18-16.5 6.63" style="fill:#4c4f4d"/><path d="m239.93 245.54 13.61 16.85s4.75-2.04 5.02-5.36l-10.21-11.98s-3.05-1.62-3.62-3.31c0-.01-3.1 4.85-4.8 3.8" class="st85"/><path d="M246 243.42c.25.21 4.17 8.66 12.46 14.19l.09-.58-10.21-11.98z" class="st108"/><path d="M229.03 233.36s7.94 9.49 10.2 9.73c0 0 2.68.19 1.55-3.29 0 0-2.44-6.02-6.72-9.59z" style="fill:#a2a4a1"/><path d="M229.03 233.36s-6.3-6.93-5.87-10.53c0 0 5.71 8.62 6.63 10.06zm2.21-1.38s-1.11-5.69-6.68-10.34c0 0 1.25-1.06 3.34 2.33 0 0 4.04 3.34 4.69 7.17z" class="st108"/><path d="M471.31 232.71s1.13-2.4 1.41-5.64c0 0 3.52-35.11 26.08-51.18 0 0 19.32-17.34 59.08-15.79 0 0 34.12 3.24 44.98 17.62 0 0 16.21 15.37 15.09 54.99l.06 12.83 14.33 10.15 1.13 8.6s-37.36-28.48-55.13-31.44l-17.2-5.08s-.38-.19-.23-1.5l-.52-18.75s-1.88-19.83-21.43-25.47c0 0-12.78-4.51-30.36 1.03 0 0-15.35 8.88-17.6 17.55 0 0-7.54 19.81-6.63 27.42 0 0 .28.49-4.02 1.69-.01.01-10.07 6.19-9.04 2.97" style="fill:#f5c526"/><path d="M578.59 164.14s17.23 10.05 21.6 24.08c0 0 6.2 11 3.81 28.48l-1.41 11.14s-1.06 9.16-8.32 4.51l-33.5-10.86.37 6.28s16.01 3.83 22.51 6.48c0 0 23.92 10.71 28.34 15.05l21.48 14.98-1.13-8.6-14.33-10.15s.77-28.22-2.07-38.82c0 0-4.95-22.66-14.08-30.23-.01 0-9.06-9.63-23.27-12.34" style="fill:#d29729"/><path d="m471.83 233.08 7.77-2.9s.22-26.99 14.22-40.25c0 0 20.12-22.28 36.57-23.78 0 0 30.7-7.99 50.04-.85 0 0-8.44-7.6-45.17-3.99 0 0-27.88 2.96-44.01 21.33 0 0-14.82 17.5-17.82 39.75 0 0-.66 8.99-2.11 10.31 0 0 .13 1.19 2.3.38h-1.9" style="fill:#fff199"/><path d="M518.51 180.84s7.23-15.1 10.47-14.19c0 0-9.05 10.34-7.7 13.88z" class="st0"/><path d="M488.66 215.79s-.21-3.45 4.65-4.51c0 0 15.79-4.44 25.24-3.45 0 0 20.16.49 21.43 1.97 0 0 3.45 2.26 2.33 7.05-.11.54-1.3 6.02-3.77 6.77-.14.04-.62.17-1.23.27-1.38.22-2.55.13-3.32.02-5.28-.42-11.1-.47-17.39-.36-9.65.17-21.21 1.05-28.86 3.89 0-.02.21-6.3.92-11.65" class="st113"/><path d="M487.87 224.61s20.52-8.92 43.18-4.97c0 0 8.14 1.73 10.09.91 0 0-.5 3.31-3.83 3.33 0 0-29.24-2.87-49.57 3.54z" style="fill:#e3a929"/><path d="M487.87 224.61s5.36-3.61 4.94-9.25c0 0 13.96-8.04 38.77-4.16 0 0 5.48-.91 6.69-2.01 0 0-22.1-3.94-39.63.76 0 0-9.12 1.44-9.64 4.26z" style="fill:#fff490"/><path d="M532.72 213.44s-3.05 3.55 0 4.54c0 0 4.16 1.32 4.75-2.07 0-.01-.9-5.55-4.75-2.47" class="st0"/><path d="M533.19 214.68s-1.3 3.03.92 2.4c.16-.05 3.1-.33 1.27-2.77-.01 0-1.2-.99-2.19.37" class="st113"/><path d="M469.2 410.37s27.67 25.94 34.14 45.12l1.4 2.89s15.09-17.06 22.28-20.23c0 0 16.22-11.42 25.66-13.18 0 0-38.28 14.8-62.53.14-.01-.01-16.09-8.05-20.95-14.74" style="fill:#535550"/><path d="M457.78 381.04v8.6s15.68 26.79 45.56 35.11c0 0 34.81 4.93 60.47-11.56 0 0 26.51-16.07 30.88-25.66l-5.64 14.95 17.2-15.65s8.74-9.87 12.97-27.21l1.55-13.68 3.1 11.14s2.4-8.59.99-12.75l-1.55-6.99s2.4-1.83.42-4.79c-1.97-2.96-.28-.7-.28-.7s-7.33-16.21-11.14-19.03c0 0-4.37-28.62 3.95-35.53 0 0 6.2-7.61 12.41-8.32 0 0-26.93-20.87-36.8-24.11 0 0-17.63-7.33-19.18-8.04-1.55-.7-10.58-1.83-10.58-1.83s16.64 4.93 19.46 9.87c0 0 14.24 6.63 18.47 20.73l2.26 28.9-3.52-5.22.56 13.68s2.75 11.98 6.35 17.91c0 0 5.08 10.15 4.44 18.96l-3.38-7.12s.42 16.85-4.51 28.98c0 0 3.1-11.42-.14-14.8 0 0-2.54-11.49-3.1-8.74 0 0-.16 16.8-5.43 28.74 0 0-11 28.15-40.89 40.28 0 0-38.07 17.48-66.69-.85-.01-.03-22.43-13.62-28.21-25.27" style="fill:#373734"/><path d="M581.58 244.83s9.73 10.01 9.16 24.82c0 0 4.09 29.61-18.75 34.4 0 0 23.18 8.16 25.13 26.15 0 0 1.1 1.63 1.88 7.9 0 0 .45-3.22 3.1 8.74 0 0 1.54 2.05 1.47 4.82l-.07 2.77s-.76 6.51-1.25 7.22c0 0 3.09-8.21 3.59-14.45 0 0 1.35-12.76.93-14.31l3.38 6.91s.4-7.21-3.31-16.4c0 0-4.18-7.65-5.32-12.65 0 0-2.05-5.2-2.29-11.03l-.43-10.47 3.52 5.22-1.35-17.3-.91-11.6s-3.4-10.53-10.57-15.44c-.02-.01-6.82-5.09-7.91-5.3" class="st65"/><path d="M649.4 286.85s1.13 18.4-9.09 31.44c0 0-2.64 5.08 4.57 8.74 0 0 24.76 6.49 40.27 1.34 0 0 3.52-1.2 1.55-3.95 0 0-4.25-8.62-8.39-11.49-.01.01-26.47-25.14-28.91-26.08" style="fill:#a6742a"/><path d="M633.46 264.29s11.14 10.43 11.98 12.27c0 0 9.24 9.59 10.43 10.29l12.03 11.09 9.12 8.37s7.99 7.52 8.65 11c0 0 3.85 6.77 3.1 8.18 0 0 4.07-4.23-1.49-12.88-3.38-3.82-6.92-7.67-10.63-11.56-7.49-7.84-14.93-15-22.18-21.53-7.38-7.94-14.76-15.89-22.14-23.83z" style="fill:#e4c054"/><path d="m618.66 244.83 13.68 10.86s.16-2.96 9.45 8.6c0 0 3.14-28.76-1.95-44.56 0 0-1.57-18.89-21.17-33.84 0 0-16.64-14.1-12.55-7.9 0 0 14.38 18.89 13.96 53.86-.01.01-.82 14.68-1.42 12.98" style="fill:#d29a2a"/><path d="M618.27 185.56s.03.07.08.2c.51 1.29 3.52 8.46 9.34 14.72 0 0 7.83 10.65 7.54 21.57 0 0 4.23 31.4 2.61 37.55l3.95 4.68s2.29-26.75-.55-38.88-.3.1-.3.1-.28-12.26-8.6-25.02c0 0-7.03-9.87-9.69-11.29z" style="fill:#f3c92a"/><path d="M492.51 208.83s23.59-9.12 63.07 0c0 0-1.88-9.28-4.7-11.97 0 0-4.51-9.46-21.9-11.62 0 0-6.86-2.73-19.36 2.63l7.71.56s5.55 1.5-1.13 2.16l-10.62-.75s-9.4 5.08-13.07 18.99" style="fill:#60615f"/><path d="M497.07 205.26s3.05-9.12 15.27-12.88l3.85-1.79s2.92-.13 3.24-.89c.03-.06.04-.13.02-.2-.16-.93-2.04-1.06-3.73-1.19l-5.96-.44s4.78-2.47 11.84-3.23c0 0 12.54 3.6 17.71 7.55 0 0 4.94-.28 10.04 15.32.01 0-16.89-6.67-52.28-2.25" class="st123"/><path d="M545.15 210.24s-1.5-.28-.66.94c0 0 3.55 5.26-1.96 12.74 0 0-1.1 1.06.69.69l11.75 2.17s1.17.38 1.03-1.93l.52-11.61s.09-.51-.94-1.11c-.28-.15-10.43-1.89-10.43-1.89" style="fill:#fccd38"/><path d="m544.18 221.27 11.92 1.61s.34 4.61-1.42 3.85l-11.45-2.12s-1.45.41-.69-.69z" style="fill:#d39a3a"/><path d="M617.04 286.15c2.28-5.25 8.29-7.22 10.5-7.94 2.39-.78 4.95-1.62 7.92-.61 2.61.88 4.2 2.72 4.91 3.69 0 0 4.51 5.85 0 21.96 0 0-3.52 12.3-12.06 12.65 0 0-6.98 1.83-8.95-1.97 0 0-4.3-7.9-4.02-15.72.01-1.34.08-3.25.37-5.53.41-3.27.62-4.9 1.33-6.53" style="fill:#91928a"/><path d="M623.17 289.25s4.02-9.59 10.65-6.63c0 0 4.65 3.93 5.5 14.12 0 0-2.11-16.03-9.31-11.02 0 0-4.93 4.72-4.86 6.77 0 0 5.08-1.01 6.42 4.25 0 0 2.33 8.72-5.92 13.44 0 0-3.74 1.34-1.83-1.2 0 0 3.69-4.33 4.86-9.8 0 0-.71-4.66-4.37-2.89 0 0-4.02 3.67-3.95 4.44 0 0-1.34-3.81.42-6.49z"/><path d="M618.23 284.07s3.48-10.48 15.42-9.16c0 0 4.98.99 6.49 6.06 0 0-3.81-6.25-12.6-2.77 0 0-7.57 2.21-9.31 5.87" style="opacity:.86;fill:#fff"/><path d="M640.8 299.96s-10.08 15.88-14.03 16.22c0 0 7.39.43 11.27-7.58l2.88-7.43c0 .01.26-1.8-.12-1.21" style="opacity:.86;fill:#f3f2ed"/><path d="M623.59 322.38h10.57s1.69 7.47 3.03 8.39c0 0 3.95 10.93 0 17.98 0 0-6.42 12.83-8.53 14.95 0 0 4.43-17.13 2.6-23.26 0 0-4.93-12.97-5.99-15.3z" style="fill:#393a38"/><path d="M463.2 291.36s.12 3.31.81 6.61 1.94 6.57 4.2 6.5c0 0-8.32 5.36-10.43 11.14 0 0-11.39 14.8-9.78 35.25 0 0 6.12 27.92 9.78 30.17v8.6l.25 3.24s-16.32-25.24-13.78-47.66c0 0-4.94-15.23 18.96-46.67l.5-.61z" style="fill:#5e5e54"/><path d="M463.2 291.36s-23.05 30.74-23.14 42.39l4.98-7.24s-3.76 11.56-3.1 16.07c0 0-.19 14.85 1.88 21.81 0 0 6.86 21.24 14.85 30.55 0 0-13.73-24.52-14.23-37.96 0 0-2.24-21.21 1.67-28.14 0 0 11.62-24.14 17.59-30.91z" style="fill:#9f9e97"/><path d="M571.99 309.83s24.11 9.94 11.7 44.66c0 0-19.88 59.96-93.2 42.05 0 0-21.01-6.35-28.76-22.84 0 0-2.26-.74 3.52 9.99 0 0 16.21 23 41.74 26.67 0 0 29.33 6.2 55.69-13.25 0 0 20.49-12.97 28.38-35.46 0 0 7.51-19.67 0-35.04 0 0-8.36-15.37-19.07-16.78" style="fill:#7e807c"/><path d="M473.99 305.18s-14.66 6.75-19.6 25.02c0 0-4.37 19.25 1.62 36.74 0 0 4.74 12.79 7.41 13.22 0 0-21.07-41.42 8.08-71.87z" style="fill:#fffffa"/><path d="M485.41 239.76s-11.84-.85-18.33 10.01c0 0-5.5 11.14-3.38 26.37 0 0 2.54 11.7 1.83 13.68 0 0-.14 8.04 8.46 15.37 0 0-16.92 17.06-17.98 35.67 0 0-2.57 34.97 15.48 45.18 0 0 29.19 27.96 75.98 7.46 0 0 23.67-8.05 36.64-40.22 0 0 8.02-13.59 0-32.03 0 0-3.52-6.63-12.13-11.42 0 0 3.57-.21 7.57 3.27a28.4 28.4 0 0 0-5.09-3.75c-6.33-3.65-12.6-3.99-16.05-3.89 1.99.31 4.35.41 6.93-.02 10.52-1.73 16.34-10.8 17.64-12.95 0 0 7.47-8.04 3.24-30.31 0 0-5.5-23.72-31.58-22.43 0 0-10.58-2.66-24.82 6.5 0 0-15.79 11.56-28.62.14.01-.01-7.75-8.01-15.79-6.63" style="fill:#acaca6"/><path d="M484.85 361.79s16.07 16 46.88 2.04c0 0 .92-1.27-5.99.28 0 0-16.71 4.72-40.89-3.03 0 .01-.66.12 0 .71" class="st0"/><path d="M485.74 365.32s18.14 14.12 41.08 2.18c0 0 1.96-2.3-.43-1.48 0 0-15.45 7.87-34.07.45l3.66 1.89c.01-.01-6.85-.99-10.24-3.04" style="opacity:.42;fill:#4f514a"/><path d="M453.6 275.19s-1.39 2.44-.74 11c0 0 1.21 3.76 1.21 7.71 0 0 4.32-5.17 4.42-6.2 0 0-1.5-15.13-.7-16.92-.01 0-1.84-1.13-4.19 4.41" style="fill:#87877f"/><path d="M467.6 261.66s1.6-18.05 26.6-15.13c0 0 6.96.47 4.04 9.68 0 0-15.98-4.7-24.25 2.07 0-.01-6.95 5.91-6.39 3.38" style="fill:#070705"/><path d="M534.9 255.55s-2.07-6.86 6.86-8.65c0 0 16.92-3.38 25 3.48 0 0 6.11 4.51 7.61 12.31 0 0 .75 1.27-3.01-1.13 0 0-8.28-7.63-16.8-7.32 0 0-6.41-.96-16.75 2.99.01.01-2.95.67-2.91-1.68" style="fill:#0b0a08"/><path d="M459.56 337.19c.02.14 14.15 15.93 42.35 16.36 0 0 31.87 1.27 49.63-8.18 0 0 10.76-4.12 20.44-17.34 0 0 1.06-1.97 5.78 8.32 0 0 1.97 1.55 1.2-2.54 0 0-1.83-7.54-3.81-8.88 0 0-4.37-4.37-13.75-2.26 0 0-3.1.63-2.68 2.19 0 0 7.54.07 9.94 1.06 0 0 1.76 0 0 1.34 0 0-6.97 13.04-36.9 19.03 0 0-27.22 5.89-51.29-1.55 0 0-10.53-2.12-18.19-8.74.01-.01-2.83.41-2.72 1.19" class="st0"/><path d="M479.21 294.82s-8.11 2.19-10.58-3.45c0 0-3.03-10.57-3.03-11.7 0 0-1.43-10.77 1.96-17.37 0 0 .88.58 2.96-1.34 0 0 6.22-5.21 8.88-5.41 0 0 4.91-2.17 18.84.67 0 0 9.09 11.57 25.27 5.12 0 0 6.98-3.1 9.06-7.33l2.88-3.21s-1.53 2.6-.32 5.75c0 0 1.02 1.72 4.03.21 0 0 8.53-3.29 16.33-2.5 0 0 6.91-.33 16.5 7.7 0 0 3.44 2.41 2.28.2l-.9-2.91s2.25-.17 2.99 2.19c0 0 8.25 16.11 2.73 29.18 0 0-12.22 1.32-13.72 2.44 0 0-1.27.53-1.34.85s-20.75-.94-29.96-7.05c0 0-7.52-7.24-18.33-6.86 0 0-8.37.38-14.48 4.14z" style="fill:#7a7974"/><path d="M478.31 295s-7.77-6.6-3.47-20.91c0 0 4.02-12.6 13.82-11.8 0 0 9.24.17 12.13 13.07 0 0 2.47 13.32-3.81 19.25 0 0-5.22-1.88-6.91-1.13 0 0-6.98-2.75-6.63-9.69 0 0 .11-7.91 2.01-5.15 0 0 1.9 3.71 4.3.82 0 0 1.52-.95-.32-3.49 0 0-.88-1.06-2.29-1.55 0 0-.04-1.3 2.26-1.23 0 0 3.81-1.13 5.64 1.2 0 0 1.8 1.52 2.89 4.72 0 0 .32-8.14-3.35-10.72 0 0-2.84-3.4-9.52-2.15 0 0-5.22 1.73-8.28 9.24 0 0-1.59 4.66-.85 11.14 0 0 .78 5.38 3.55 8.08z" class="st0"/><path d="m482.08 295.83-2.73-.82s-4.57-5.36-3.46-14.91c0 0-.56-7.91 8.69-13.66 0 0 9.3-3 12.52 5.94 0 0 1.27 4.43.83 6.73 0 0-2.04-8.27-8.95-5.92 0 0-1.9.35-1.84 1.23 0 0 3.6 1.36 3.14 4.22 0 0-1.45 3.35-4.2.92 0 0-1.22-2.52-1.96-.92 0 0-2.34 6.71.67 10.45 0 0 2.16 2.9 5.27 4.4.01-.01-4.36-.39-7.98 2.34" class="st78"/><path d="M494.3 289.53s2.31-2.54 2.64-.58c0 0 .3 2.59-1.66 3.82 0 0-2.29-.92-1.9-2.28z" style="fill:#f2f1f8"/><path d="M537.65 290.73s-4.23-2.96-2.04-13.54c0 0 1.55-13.11 13.68-15.37 0 0 12.69-1.81 17.7 11.19 0 0 4.09 6.86 1.06 16.31 0 0-2.97 4.55-4.02 4.58h-1.83s4.76-2.01 4.09-12.9c0 0-.63-10.65-9.17-14.59 0 0-6.2-3.03-11-.21 0 0-5.85 3.31-7.83 9.59 0 0-1.89 7.49-.35 13.12 0 0 .42 3.45 1.19 4.44z" class="st0"/><path d="M554.06 291.57s-.19 1.67 2.54 1.02c0 0 .56-1.23-.44-1.16 0 0-2.06-.47-2.1.14z" style="fill:none;stroke:#ee265b;stroke-miterlimit:10"/><path d="M486.87 317.66s-7.16-5.64-8.08-8.74c0 0-2.16-7.28 3.29-13.09 0 0 5.88-4.82 14.9-1.22l4.44 2.86s3.67 3.24 8.67-.63c0 0 10.01-9.36 19.69-2.27 0 0 5.83 2.91 7.76 11.84 0 0 1.08 4.37-6.16 8.27l-5.59 4.04s-1.83-.7.09-1.79c0 0 7.94-3.48 7.76-10.06 0 0 .14-6.25-7.66-10.81 0 0-4.65-4.14-15.7 2.54 0 0-5.36 4.09-10.25.66 0 0-6.6-4.23-12.63-1.79 0 0-3.12.23-5.18 7.28 0 0-.28 4.37 1.6 6.2l3.62 6.02c-.01.01.61 1.66-.57.69" class="st0"/><path d="m487.43 316.98-1.58-2.62-2.04-3.39s-2.68-3.7-.98-8.06c0 0 1.77-7.06 9.17-6.18 0 0 4.62.28 9.25 3.24 0 0 3.69 2.24 9.52-1.67 0 0 7.55-4.81 13.85-2.96 0 0 4.22 1.89 6.63 5.33 0 0 2.04 2.38 2.37 6.12 0 0 .84 3.57-3.79 7.57 0 0-3.24 2.51-4.62 2.83l-3.3-3.37s-.23-.69-2.35.53c0 0-9.31 4.93-18.09 3.85 0 0-3.71.7-9.45-3.95l-2.91-3.1c.02 0-.01 4.97-1.68 5.83" style="fill:#8f8f88"/><path d="M487.4 309.3s-2.45-6.56 1.75-7.09c0 0 3.35-.97 7.19 4.42 0 0 3 2.92 2.96 5.84 0 0 .15 1.82-2.71.12 0 0-4.18-4.31-5.97-4.38 0 0-1.67-.53-1.45 2.66 0 0-1.14 1.06-1.77-1.57m23.22-.81s5.29-7.04 11.32-6.34c0 0 4.12.98 4.34 5.04 0 0-.88 4.41-3.95 4.76l-.11-3.31s.25-.56-.99 0c0 0-10.58 5.6-12.51 4.83-.01-.01-1.52-.32 1.9-4.98" class="st0"/><path d="M483.15 302.15s5.7-4.91 10.19-2.52c0 0 7.73 2.4 8.62 3.57 0 0-2.26 3.9 3.99 1.03 0 0 12.25-7.33 17.19-6.77 0 0 4.82-.1 9.23 4.95 0 0-4.77-9.09-14-7.28 0 0-7.35 2.7-8.1 3.46 0 0-3.08 2.78-7.32 1.91 0 0-1.64-.38-3.65-1.65 0 0-5.01-3.35-11.9-1.39 0 .01-2.29.5-4.25 4.69" style="opacity:.63;fill:#e0ded6"/><path d="M487.4 234.3s13.76 4.53 18.74 11.9c0 0 6.39 6.8 18.8-1.37 0 0 19.94-14.61 37.59-9.74l8.89 1.34s-33.13-12.37-81.44-5.03c-.01-.01-7.69 1.78-2.58 2.9" class="st123"/><path d="M486.42 232.6s-9.82 3-10.1 5.68c0 0 .1 1.2 3.17-1.55 0 0 4.75-2.8 7.91-2.42 0-.01-3.28-.84-.98-1.71" class="st123"/><path d="M493.73 234.96s23.74 8.84 40.68 3.57c0 0 8.2-3.56 8.81-5.17 0 0-36.05-3.89-43.19-.77 0 .01-8.51 1.62-6.3 2.37" style="opacity:.38;fill:#60615f"/><path d="m496.1 931.99 3.32 27.59s3.76.87 3.32-3.32l-3.3-24.84z" style="fill:#4e4f49"/><path d="M344.56 977.07s-1.13 4.32-.56 7.05c0 0 .4 6.96 3.07 6.67 0 0 19.96 10.43 64.05 7.71 0 0 16.26 0 43.05-11.84 0 0 8.93-4.61 10.81-3.67 0 0 3.2 3.1 4.04 4.61 0 0 1.13 1.69 6.11.85l22.75-5.17s3.38-.94 3.85-4.32v-12.31s.56-3.95-2.35-1.13c0 0-4.7 3.2-36.1 9.21 0 0-22.28 9.21-46.15 10.62 0-.01-38.54 4.69-72.57-8.28" style="fill:#f1ba1c"/><path d="m347.6 991.05-.7-4.11s27.16 11.66 74.55 3.01c0 0 16.79-5.51 21.89-8.86l14.71-4.41 5.24-1.95 15.8-3.27 15.62-4.1s4.21-1.43 4.68-1.85c0 0 2.06-1.77 2.39-.29l-.04 12.44s.49 3.32-2.65 5.08l-22.96 5.48s-4.58 1.39-7.1-.62l-3.46-4.03s-.31-1.36-3.09-.4c0 0-26.98 10.99-34.24 12.57 0 0-7.13 1.86-14.11 2.57 0 0-21.95 1.63-42.17-.98 0 0-22.5-4.1-24.36-6.28" style="fill:#c3852b"/><path d="M628.31 947.08s-10.9-4.89-15.42-2.44c0 0-.28 9.96.66 13.16 0 0 .66 12.03 3.1 15.6 0 0-11.94-11.84-13.91-11.94l.94-25 19.08.75c.01 0-1.03 8.93 5.55 9.87" class="st24"/><path d="M522.89 737.2c.15 2 .3 4 .46 6 0 0 20.4-5.57 48.97-7.05 0 0 11 3.13 21.43-.45 0 0 7.43-1.69 10.72-5.64l1.6-1.6s-.94-1.32-.56-3.01l-11.66 1.69s-2.54 6.67-7.61 6.67c0 0-8.46.19-10.9-1.13 0 0-1.69-.75-1.13-4.42l-36.47 2.91c-.83.96-1.92 1.99-3.3 2.94-4.54 3.1-9.37 3.19-11.55 3.09" style="fill:#c8942c"/><path d="M502.36 498.14s5.52-2.58 8.62 1.34c0 0 2.61 3.38 1.03 6.23 0 0-2.61 4.89-6.37 4.42 0 0-5.24-1.36-5.76-4.82.01 0-1.35-4.75 2.48-7.17" class="st0"/><path d="M503.23 500.86s-2.35 2.19-.87 4.61c0 0 2.49 4.3 6.81.54 0 0 3.17-3.6-1.79-6.09.01 0-2.81-.68-4.15.94" class="st4"/><path d="M506.67 471.17s-3.31 3.7-2.04 7.44c0 0 2.15 6.2 7.86 4.65 0 0 4.72-.74 4.55-6.8-.01 0-.96-8.28-10.37-5.29" class="st0"/><path d="M506.95 475.26s-.25 4.16 2.54 4.86c0 0 3.84.95 4.83-2.43 0 0 .92-5.75-5.22-4.72 0 0-1.83 1.27-2.15 2.29" class="st4"/><path d="m503.74 469.45 6.91-.78 4.25-8.63s19.71-18.56 31.46-23.36c0 0 27.07-11.75 30.74-17.3 0 0-15.6 8.74-15.89 8.18 0 0-9.78 4.89-24.72 11 0 0-15.13 8.46-23.97 19.18.01 0-6.76 7.35-8.78 11.71" class="st50"/><path d="M547.99 265.39s7.43-2.21 13.39 4.18c0 0 4.61 3.15 5.26 12.97 0 0 .33 7.28-3.62 11.28 0 0-11.75.75-17.01 5.26 0 0-5.08-.8-6.77-6.35 0 0-2.82-4.37-1.32-14.05.01.01 1.51-9.3 10.07-13.29" class="st78"/><path d="M553.94 278.81s-1.88-3.2-2.73-3.57c0 0-2.09-1.69.86-2.23 0 0 5.96-1.67 9.62 5.8 0 0 2.44 4.84 0 10.95l-2.16 3.05-.05 1.08s9.73-.42 9.87 1.55c0 0 1.55.85-4.23.94 0 0-13.16.33-18.66 2.63 0 0-.28-.94 3.1-2.26l3.43-1.22s1.55-.52.47-1.18c0 0-3.71.14-5.31-3.24 0 0-2.63-3.71-2.3-8.41 0 0 .66-6.81 1.97-3.95 0 0 .99 3.99 3.76 2.87 0 0 2.73-.38 2.54-1.6.01.02.12-.71-.18-1.21" class="st0"/><path d="M555.93 290.75s2.44.52 1.32-.33c-.01 0-1.09-.05-1.32.33" class="st78"/><path d="M262.04 253.23s-1.44.21-.66 2.02l5.41 1.33.93-2.15c-.01-.01-4.39-1.54-5.68-1.2" style="opacity:.58;fill:#e1e2e0"/><path d="M556.54 154.55c-.21-.77 1.94-1.94 2.18-2.08 3.24-1.76 6.73-.77 7.87-.39.67.15 1.6.44 2.6 1.03 1.36.81 2.2 1.82 2.66 2.46-1.58-.13-3.91-.28-6.76-.35-5.42-.12-8.32.18-8.55-.67" style="fill:#fcc80f"/><path d="M292.81 443.14s4.42-1.03 6.39-4.23c0 0 .56 1.97 8.74 5.17l-18.33 36-5.26-6.3z" style="fill:#36332d"/><path d="M275.89 465.7s.94-3.1 7.24-6.49c0 0 6.49-2.35 7.99-11.28 0 0-1.5-4.04 1.69-4.79 0 0 5.26 7.43-8.46 30.64z" style="fill:#4b4c48"/><path d="M523.67 749.42s36.14 2.4 45.45-.28c0 0-24.77 9.54-30.36 9.68l-14.47.28s-1.04-3.34.51-3.2c0 0 10.15.85 14.52-.05 0 0 9.96-2.35 11.14-2.82 0 0-6.3.23-9.96.66 0 0-11.23.66-16.59-.38z" style="opacity:.75;fill:#be892c"/></svg>