<svg xmlns="http://www.w3.org/2000/svg" xml:space="preserve" id="Layer_1" x="0" y="0" version="1.1" viewBox="0 0 1080 1080"><style>.st15{fill:#fccd0a}.st16{fill:#c3892b}.st17{opacity:.63;fill:#faf399}.st22{fill:none}.st36{fill:#484a43}.st37{fill:#72756e}.st38{fill:#fcd009}.st39{fill:#e6ebef}.st49{fill:#fcce08}.st54{fill:#d19a2a}.st56{fill:#fbf49f}.st57{fill:#d49a29}.st59{fill:#fded7b}.st65{fill:#c08e2c}.st66{fill:#fcef50}.st69{fill:#faf28d}.st82{fill:#c8c7c0}.st83{fill:#a6a7a1}.st87{fill:#81827d}.st88{fill:#343632}.st92{fill:#51534f}.st96{fill:#d89c29}.st98{stroke:#f9f9fa;stroke-miterlimit:10}.st102,.st98{fill:#fff}</style><path d="M868.55 563.02s-.52-20.91-21.44-49.02c0 0-5.39-25.41-15.74-39.13 0 0 2.7-8.54-3.82-17.53 0 0-13.04-19.79-26.98-33.28 0 0-6.3-28.56-27.21-52.17 0 0-21.36-23.39-55.99-27.66 0 0-38-26.31-42.72-26.76 0 0-.22-8.31-5.62-15.29l-8.32-13.94s-1.35-.67 4.27 0c0 0 20.91 7.42 34.85-9.22 0 0 5.63-9.66-16.64-29.9 0 0-28.78-28.78-28.78-29.91 0 0 5.4-45.87-7.64-64.31 0 0-9.9-28.55-58.24-43.17 0 0-2.4-9.92-14.49-11.02 0 0-9.99-1.2-13.29 6.8 0 0-32.58-4.7-60.46 18.69 0 0-12.99 11.19-18.69 30.38 0 0-3.77 7.02-5.72 28.6 0 0 .45 2.7-2.7 5.63 0 0-6.45 6.22-6.82 20.16 0 0-8.62 1.27-10.87 10.72 0 0-2.92 6.82 1.35 20.53 0 0 1.65 4.13.23 5.02 0 0-27.96 31.56-19.42 50.45 0 0 .41.6 1.84-2.18 0 0 .9-.6.86.64 0 0-.62 20.63 4.67 30.82 0 0-17.19 7.09-20.88 11.69 0 0-52.6-.27-82.28 47.85l-3.59 6.74s-24.06 7.65-32.83 16.87c-.88-2.89-1.63-6.34-1.91-10.26-.83-11.51 2.82-20.68 5.31-25.62.32-.67.8-1.47 1.48-2.26 1.61-1.87 3.5-2.74 4.59-3.14 0 0 8.69-6.19 10.09-10.99 0 0 6.8-11.39 12.09-13.99l7.85-6.75s6.14-4.35 4.64-15.14c0 0-2.39-11.69.75-17.69 0 0 2.7-8.99-5.09-13.49 0 0 1.05-6.44-1.95-10.34-1.64-1.66-2.44-3.21-2.87-4.31-.65-1.69-.66-2.91-1.65-5.17a18.4 18.4 0 0 0-1.33-2.51c-.36-.96-.84-2.06-1.61-3.15-1.27-1.8-3.48-4.05-7.23-5.85l-19.19-7.64s-7.8-1.95-13.04 3.14c0 0-6.75 5.25-6.9 7.5 0 0-2.1.75.45-7.5l4.35-15.44s5.85-11.09 7.19-21.58c.12-1.03.74-7.3-3.84-12.57-3.92-4.53-9.06-5.3-10.32-5.46-1.12-.07-3.66-.1-6.41 1.31-3.18 1.64-4.7 4.21-5.21 5.18l-11.09 21.88s-5.1 15.44-4.05 5.25c.75-3.48 1.69-10.43-1.5-17.64-1.19-2.7-2.8-6.34-6.82-8.57-4.05-2.24-8.16-1.73-9.74-1.45-1.68.42-4.19 1.3-6.41 3.34-3.54 3.25-4.38 7.66-5.62 20.46-.47 4.86-.96 10.48-1.39 16.75-.13-.39-3.37-9.46-11.92-11.02-4.16-.76-7.59.64-9.07 1.35-1.89 1.33-4.48 3.6-5.99 7.12-1.36 3.17-1.21 5.92-.38 14.17.57 5.52 1.11 10.31 1.58 14.16.4 3.01 1 6.27 1.91 9.71 1.54 5.81 4.23 13.53 8.88 21.17a35 35 0 0 1 2.4 7.46c.3 1.52.44 2.78.52 3.56.31 2.82.28 4.91.27 6.41-.03 2.99.07 5.98.08 8.96 0 1.63.07 5.51.22 13.19.06 3.47.15 8.31.22 11.95-.61-.58-1.6-1.36-3-1.95-2.08-.86-3.95-.81-4.91-.71 0 0 4.5 25.49-1.8 44.67 0 0-22.48 58.77-19.48 84.25 0 0-1.8 35 23.08 68.32 0 0 2.1-6.94 3.6 0 0 0 15.89 24.92 29.68 28.22l-1.2-6.9s25.49 12.89 44.07 3c0 0 .3-2-2.79-1.2 0 0-9.9-.9-1.6-2.3 8.29-1.4 34.07-3.17 62.26-20.82 0 0 7.04 3.33 15.74-2.21 0 0 14.39-7.8 22.93-15.74 0 0 .6 21.13 1.65 23.68l13.42 58.24s4.49 3.82-2.93 22.71c0 0-3.37 5.85 3.6 15.97-1.12 6.63-1.3 10.71-1.29 13.04.01 2.01.16 3.4.09 6.89-.03 1.45-.07 2.33.08 3.6.26 2.21.93 3.97 1.47 5.12-5.19 15.75-10.28 32-15.23 48.73-6.41 21.71-12.17 42.89-17.35 63.45 0 0-3.75 7.34.9 22.34l3 33.27s-9.89.6-8.54 20.54c0 0 0 11.99 4.49 17.39l-13.49 8.54s-10.34 3.9-11.09 6.75c0 0-2.85-1.72-5.25.04 0 0-34.03-3.11-43.77 22 0 0-2.92 7.87-2.17 14.61 0 0-3.53.6-4.13 6.67 0 0-2.02 13.72 1.13 17.54 0 0 5.32 8.25 33.8 11.69 0 0 18.89 4.5 56.96 0 0 0 16.19-2.4 41.68-13.19 0 0 1.25-1.1 3.45 1.9 0 0 1.19 2.3 5.14 2.3 0 0 16.84.3 40.63-6.7 0 0 11.11-3.57 10.74-12.41 0 0 .75-11.55-1.72-16.19 0 0-1.5-2.93-1.13-5.85 0 0-1.42-23.68-3.6-26.23 0 0-.75-1.88 1.13-2.33 0 0 7.64-2.84 7.79-20.01 0 0-.97-7.52-4.42-12.42 0 0-.5-1.22 1.62-2.59 0 0 4.33-3.65 3.73-12.1 0 0-.35-5.69-3.4-14.09 0 0-2.02-4.52.9-6.62 0 0 4.08-3.82 3-8.35l-.49-6.41s5.36-4.65 9.11-9.75l21.51-27.63s.67-1.75 2.96-.66c0 0 2.66.86 4.27.79 0 0 2.06 1.07 3.36 3.17l27.88 35.38s14.29 19.28 18.09 22.08c0 0 3.7 2 6 19.19 0 0 .6 11.99 6.29 16.09 0 0 3.2 1.6 3 3 0 0-2.4 5.19-1.5 8.69 0 0 1.5 11.79 4.4 16.09 0 0 3.1 5.1 9.89 7.8 0 0 1.48-.4.8 4.77 0 0-2.02 17.99-.52 23.76 0 0-2.48.6-1.8 8.47 0 0-1.05 12.81 2.85 15.74l13.64 10.19s1.5-.07 1.65 3.52c0 0 1.95 11.1 8.17 14.54 0 0 13.94 11.7 62.51 9.45 0 0 30.88-1.05 48.87-9.6 0 0 7.44-3.29 7.64-11.39 0 0 1-11.79-3.3-18.89 0 0-1.3-1.2-1.2-5.99 0 0-.5-15.99-17.09-24.39 0 0-13.59-7.79-21.48-28.18 0 0-3.2-4.7-1.1-6.59 0 0 8.99-5.8 6.99-21.09 0 0-.79-12.79-6.59-17.99 0 0-2.95-1.9-1.9-3.1 0 0 3.4-8.54-1.1-17.54l-9.44-18.43s1.95-5.1-1.8-12.75c0 0-3.45-6.14-3.6-11.99l-6.9-46.92s27.51-4.57 33.28-20.98c0 0 1.73-7.65-.75-12.3 0 0 5.93-6.59 8.85-12.21 0 0 1.72-1.05 1.65 2.54 0 0 .75.62 2.32-2.69 0 0 12.07-18.92 30.76-22.31 0 0 43.07-9.55 71.4-35.63 0 0 21.14-20.46 25.18-34.63l1.58 8.32s14.84-11.02 14.39-44.75c0 0 2.67-.85 3.27 3.85 0 0 2.2 4.2 1.3-8.79M304.21 294.99c.33-1.46 4.71-6.78 4.71-6.78 1.33-2.25 2.29-.72 2.29-.72 4.45 8.6 10.89 10.15 10.89 10.15-2.6 4.14-4.75 14.19-4.75 14.19-.25 0-4.99 3.15-4.99 3.15-3.3.6-6.6-3.35-6.6-3.35-2.9-3.7-1.55-16.64-1.55-16.64m398.32 250.4c1.4 1.6 5.09 2.48 5.09 2.48 4.6.09 12.4 6.61 12.4 6.61-3.45 1.5-17.84 24.28-17.84 24.28-3.15 6.9-11.39 16.54-11.39 16.54-9.37 9.27-23.61 18.02-23.61 18.02-5.78 3.67 7.23-27.51 7.23-27.51 25.26-27.63 28.12-40.42 28.12-40.42"/><path d="M468.16 898.88s-1.57 4.95-41.45 3.6l-3.97-.27s-5 19.89-40.97 30.78c0 0 .7 4.9-.45 6.8 0 0-1.25.5-2.15-3.7 0 0-1.55-3.45-2.6-4.15 0 0-4.7 13.28-51.87 7.86l-23.39-5.61s2.4 1.8-.6 7.4c0 0 1 4.2 35.58 8.49 0 0 29.28 2 44.07 0 0 0 34.18-9.69 37.98-10.39 0 0 28.58-6.5 40.67-7.4l6.5-1.8s6.9-1.9 6.4-3.8c0-.01-1.7-24.44-3.75-27.81" style="fill:#2f312f"/><path d="m462.51 901.16 3 29.33s6.05-1.43 6.41-3.47c0 0-1.52-23.23-3.21-26.69 0-.02.3-2.97-6.2.83" style="opacity:.72;fill:#93938c"/><path d="M300.72 941.57s-3.45-1.55-1.05-9.34c0 0 2.55-19.04 25.93-23.38 0 0 21.29-3.3 37.63 7.94 0 0-30.13-11.39-51.12 6.3 0 0-8.89 8.73-5.42 12.38l-5.37-1.29s1.64 2.05-.6 7.39" style="fill:#93938c"/><path d="M306.69 935.47s-3.78-3.37 6.26-13.08c0 0 11.82-10.47 31.72-9.14 0 0 10.81.34 18.55 3.53 0 0 9.24 5.3 13.34 15.14 0 0-4.93 12.65-46.68 8.4 0 .01-10.42-1.36-23.19-4.85" style="fill:#54574f"/><path d="M364.57 913.99s-3-2.4.7-.85l11.29 7.75s3.82 4.5 9.76.8c0 0 5.93-2.2 5.03-5.9 0 0-.6-4-4.1-7.4l-9.82-5.3s-3.37-3.2 2.63 0l14.69 10.04s5.1 3.15 9.09-1.65c0 0 5.8-4.2 2.7-8.49l-4.9-5.6s1.42 3.2 5.81 2.6l15.28 2.2s-4.74 13.69-20.16 21.84l-20.82 8.94c.01.01-5.38-15.78-17.18-18.98" style="fill:#50524b"/><path d="M354.46 903.52s-3.97 0-.67-1.8c0 0 3.07-2.25 7.57-1.05 0 0 13.94 2.92 18.21 7.72 0 0 7.67 4.42 6.76 7.65 0 0-1.44 3.9-5.41 2.47-.01 0-14.1-11.09-26.46-14.99m12.44-9.37s3.9-4.5 8.32-2.85l11.54 4.27s11.02 4.05 14.92 8.69c0 0 2.32.67-.82 4.57 0 0-2.1 3.45-3.75 1.2 0 0-1.8-4.5-17.61-11.17 0 0-5.85-3.37-11.69-3.37-.01.01-2.15-.18-.91-1.34" style="fill:#e3b74d"/><path d="M298.82 947c-.98-.43-3.66-1.5-4.51-.52-.23.26-.22.55-.22 1.46-.03 3.68-.2 1.03-.11 4.72.05 1.99.07 3 .15 3.26.52 1.75 1.86 2.88 2.85 3.52 4.18 1.65 8.66 3.35 13.55 4.55 9.46 2.32 24.3 4.74 45.81 5.12 0 0 30.58-.3 56.21-12.59 0 0 12.59-5.65 15.19-3.35 0 0 1.5 5.59 7.89 4.54 0 0 28.08-3.34 35.88-8.34 0 0 3.4-.5 2.8-5.7l.07-10.19s6.62.9-51.64 10.19c-2.55.79-6.12 1.88-10.42 3.1-5.98 1.7-14.66 4.15-24.21 6.07-7.17 1.44-16.96 3-28.93 3.72-.38.02-1.58.04-3.16.05-4.72.03-18.05-.08-35.32-3.65-5.86-1.2-13.34-3.05-21.88-5.96" style="fill:#e8a123"/><path d="M608.47 943.02s-2.25-2.4-2.1 0c0 0-3.01 10.94 1.05 13.34l9.3 5.4s-1.2-11.39.75-6.6c0 0 3.07 3.67 3.67 8.77 0 0 .82 14.02 8.92 18.51 0 0 16.79 8.84 43.62 7.94 0 0 26.83-.6 46.62-5.4 0 0 9.44-1.95 15.59-5.85 0 0 2.4-1.8 0-4.05l.3-8.9s-.3-3.5-3.15 0c0 0-12.89 12.34-77.5 9.35 0 0-22.79.15-30.88-11.99 0 0-3.75-11.39-8.54-14.99z" style="fill:#d2962a"/><path d="M608.69 909.74s-3.22 23.61 0 26.38c0 0 15.22 9.07 17.31 15.74 0 0 1.8 12.49 11.99 14.34 0 0 30.78 9.64 77.15 0 0 0 14.89-1.95 17.69-8.14 0 0 .5-16.69-14.99-25.28 0 0-18.99-8.59-44.87-5.4l-6.7 1.9s17.79-.1 20.69 2.4c0 0 17.39 1.3 23.38 8.89 0 0 5.9 8.29-.8 13.49 0 0-12.01 11.87-50.67 8.99 0 0-21.29-3.9-23.58-7.89 0 0-3.2-3.61 3.6-15.05 0 0 5.6-6.34 7.3-5.94 0 0-8.89-1-6.6-10.29 0 0-6.7-2.5-5.7-7l2.1-6c.01.01-21.23 1.41-27.3-1.14" style="fill:#292a29"/><path d="M635.3 955.17c2.25-6.72 5.63-11.07 8.21-13.72 17.1-17.54 46.67-8.92 48.15-8.46-1.26.16-3.16.41-5.47.67-11.87 1.37-13.9 1.01-18.15 1.66-3.67.56-15.28 2.32-22.99 11.31-3.51 4.09-5.11 8.4-5.88 11.13-.56-.27-1.16-.59-3.87-2.59" style="fill:#9a9c96"/><path d="M639.16 957.75s2.29-16.4 23.59-21.42l28.92-3.36-4.11-1.25s12.6 1.68 18.6 5.31c0 0 9.1 4.84 5.8 14.18 0 0-4.01 10.42-36.04 12.18 0 .01-17.71 2.35-36.76-5.64" style="fill:#53564f"/><path d="M633.9 916.89s-13.59 4.3-9.49 20.19c0 0 2.5 10.43 2.55 18.41 0 0 .81 3.5 4.48 7.34 0 0 1.06 2.03 6.56 3.38l1.16-8.45s-3.48-1.9-3.86-2.59c0 0-4.7-.9-4.6-3.1 0 0 2.1-7.81 8.19-11.95 0 0 4.6-6.24 7.3-5.94 0 0-8.59-1.02-6.6-10.29.01 0-6.56-2.1-5.69-7" style="fill:#434840"/><path d="m613.42 910.79-1.02 27.72-3.71-2.38s-1.54-1.82-1.3-4.39c0 0-.05-12.54 1.3-21.99 0-.01 3.71.93 4.73 1.04" style="fill:#4f534d"/><path d="M639.16 916.66s-1.54-1.95 1.69-3.6c0 0 11.32-4.5 18.44-5.55 0 0 13.42-2.85 20.61-1.95 0 0 8.24 0 9.22 4.12 0 0 1.27.97-3.52.45 0 0-15.89-1.72-23.98 1.27 0 0-9.52.97-20.31 7.65-.01.01-1.79-1.19-2.15-2.39m53.45-.49s-21.04-1.75-29.98.95c0 0-6.1 2.05-12.69 3.8 0 0-8.69 3.3-5.45 7.55 0 0 .95.95 4.05-1 0 0 15.24-7.05 24.88-6.75 0 0 8.14-.8 22.04-.1 0 0 2.85-1.1.7-3.05 0 0-2.47-1.32-3.55-1.4" style="fill:#fde496"/><path d="M693.16 897.3s5.2 17.54 12.24 24.38c0 0 2.4 2.2-.45 1.85l-3.95.04s-.7-.59 0-1.29c0 0 1.45-4.2-4.75-8.04 0 0-2.2.25-1.6-1 0 0 1.1-5.8-3-8.49l-4.3-3.15s-.5-.1.75-1.1c.02 0 4.35-5.44 5.06-3.2" style="fill:#545750"/><path d="M379.86 851.23s-3.3-26.18-3-26.98l8.79 10.99s1.9 1.4-3.1-8.39c0 0-5.5-10.59-7.1-18.69 0 0-2-7 .6-17.69l9.49-36.18 11.59-37.88s.82-1.67 3.07-1.55c0 0 8.52.2 12.72-5.5 0 0 6.7-6.6 8.39-14.44 0 0 .85-.9 1.8.95 0 0 .35 2 14.09 4.05l1.3-1.8-.3-2.85s12.44 4.05 19.29 3.75c0 0 3.7 5.6 6.65 6.35 0 0 .6 1.75 12.94 2.65 0 0 .9-.65.6 2.95 0 0 1.75 11.04 2.75 12.64 0 0 .9 13.09 3.05 15.99 0 0 3.55 10.09 16.94 14.49l7.7 1.65s.4-.8-11.44-6.5c0 0-9.19-4.2-10.74-11.34 0 0-1.55-4.6-1.8-8.49 0 0-1-9.29-1.7-10.89l-1.9-9.94 21.44 1.8 1.45 18.49 3.2 16.34s3.3 15.19 5.15 15.59c0 0 .55-.75 0-2.8l-2.85-18.59-2.15-13.24s-1.9-8.29-1.25-15.89l7.3-.32s1.75.25 3.42-1.95c0 0 1.72-2.85 4.72-2.57 0 0 25.85-.41 27.98-.94 0 0 3.39-1.8 3.34.34 0 0-.04 4.44 5.98 3.54 0 0 8.38-.47 9.87-1.32 0 0 3.45-1.05 2.02-5.15l32.18-5.12s.95-.55 1.3 1.52c0 0 8.37 25.31 32.55 30.01 0 0 9.14 2.2 15.94 2.15 0 0 3.1-.3 5.5 4.2 0 0 3.15 3.95 10.39 6.9 0 0 4.45 30.73 5.85 39.42 0 0 4 21.49 0 39.07l-3.2 17.89s8.89-26.48 8.99-30.68c0 0 .8-.8.8 2.8l.51 8.02-.52 9.29s.52 2.85 1.39-.86c0 0 .79-4.68 1.46-3.15.67 1.54 0 .19 0 .19s6.56 8.96 7.98 16.11c0 0 .97 14.39-6.97 26.83 0 0-2.25 4.2 1.5 0 0 0 5.7-4.97 6.6-7.37 0 0 1.4-1.75 2.8.5 0 0 5.65 4.9 3.4 21.29 0 0-.7 7.15-19.64 14.49 0 0-18.33 9.89-55.33 8.59 0 0-20.22.12-25.91-7.24 0 0-1.75-1.01-3.7-9.25 0 0-1.9-6.75-.1-9.69 0 0 .6-2.3 2.9-.65 0 0 17.64 10.62 49.94 4.32 0 0 20.99-3.97 28.56-10.12 0 0-16.64 6.6-49.54 7.57 0 0-16.41.37-23.61-3.45 0 0-13.87-10.12-14.77-12.59 0 0-1.8-4.57-2.77-10.79 0 0-1.42-10.19-2.17-11.62l20.31 10.79s1.05-1.2-2.77-3.07c0 0-19.79-14.24-26.61-22.26l-15.81-20.16s-20.91-26.83-23.24-28.71c0 0-5.1-8.24-9.07-9.22 0 0-38.53-9.59-58.46-23.24 0 0 1.27 2.92 8.02 8.17 0 0 16.79 11.92 29.23 15.52 0 0 2.85 1.35 5.85 1.12l-14.84 18.81s-16.64 22.19-22.79 27.36c0 0-6.6 5.47-10.72 5.1 0 0 4.57 1.65 9.89-1.5 0 0 4.42-3.9 5.17-2.02 0 0 3.15 4.05-2.47 8.24 0 0-6.45 5.17-7.5 7.12l-5.62 5.32s10.12-2.7 11.84-4.57c0 0 1.12-1.35 3.3 11.99 0 0 3.75 11.62-7.57 17.76 0 0-10.49 7.47-33.18 6.07l-24.08-3.6s-27.13-6.37-29.61-7.65c0 0 7.42 7.5 23.61 10.12 0 0 13.79 3.97 29.83 4.5l18.44.9s2.02.07 1.35 8.84c0 0-.3 6.45-2.25 9.67.17.14.32.18.45.19.72.03 1.48-1.19 1.95-3.01.17-.46.45-1.15.85-1.96.47-.93.71-1.23.97-1.87.23-.55.47-1.38.5-2.5v-10.12s15.66-4.05 16.34-4.72c0 0 3.82 8.09 0 19.11 0 0-1.12 4.05-11.62 6.67 0 0-19.04 4.4-52.62-.9 0 0-11.69-1.4-24.08-6.5 0 0-12.42-3.77-13.62-9.24 0 0-1.8-4.95-1.35-12.44 0 0 .75-6.07 5.47-8.77 0 0 2.02-2.92 1.95.75 0 0 1.12 1.65 2.02 1.05.01.02.26-3.76-.07-6.4" class="st15"/><path d="M597.1 877.32s-2.52-2.28-3.62 1.53c0 0-1.31 2.93 1.04 10.62 0 0 .52 6.75 6.48 10.04 0 0 5.16 3.83 22.05 4.49 0 0 21.6 1.64 43.55-4.18 0 0 14.33-3.82 26.69-12.06 0 0 3.31-4.57 1.89-11.11 0 0-1.16-10.12-2.25-13.29 0 0-1.36-3.71-2.97-.88l-6 5.82-8.65 3.09-13.94 7.25s12.29-1.1 19.89-5.4c0 0 2 6.25-2.95 10.99 0 0-14.54 13.99-38.43 14.29 0 0-17.69 1.6-20.09-3.5 0 0-4.59-3.14-3.1-9.69l17.58-2.11c.02-.02-20.01 2.2-37.17-5.9" class="st16"/><path d="M690.91 861.4s1.92-4.6 3.57-2.62c0 0 5.49 3.74 4.66 17.88 0 0 .37 6.01-3.05 8.53l-2.79 2.56s3.17-3.66 1.63-13.18c0 0-1.18-14.04-4.02-13.17" class="st17"/><path d="M600.15 878.71s-.46 17.74 2.62 21.72c0 0-7.68-2.84-8.34-11.27 0 0-2.79-8.89 0-12.22 0 0 .72-1.03 2.39.22z" style="fill:#d2a138"/><path d="M582.46 840.49s3.22 18.09 4.95 22.41c0 0 4.22 5.67 14.77 12.59 0 0 5.7 3.47 23.61 3.45 0 0 23.42-.46 36.48-4.02l13.06-3.55 8.65-3.09s-1.69.68 2.65-5.93l-1.86 1.48s2.5-18.39 1.4-22.09c0 0-1.8-6.4-4.7-9.89 0 0-3.6-8.65-2.9-15.39 0 0-.42-2.15-1.65 1.87l-6.06 18.53 1.9-10.61-15.43-8.69s-1.05 22.64-21.59 24.73c0 0-13.03 3.45-37.77-7.94 0 0-7.65-3.6-9.15-5l-6.37 5.6 20.05 15s2.07 2.3-2.75-.27z" style="fill:#dc9b27"/><path d="M617.61 857.13s2.7.3 9.79-2.3c0 0-21.09-7.7-24.64-2.3 0 0-3.54 5-.45 7.99 0 0 14.39 13.59 30.18 14.99l33.68-3.6s-39.77 3.3-45.97-6.3c.01.01-5.35-3.99-2.59-8.48" class="st15"/><path d="M610.22 846.04s4.7 4.5 19.99 6.9c0 0 15.89 1.8 24.88-6.9 0 0 5.3-5.5 6.1-11.19 0 0-6.9 15.39-18.29 14.29 0 0-12.99 1.2-31.18-4.1 0 0-2.5-.6-1.5 1" style="fill:#0f0708"/><path d="m677.53 816.27 2.14-9.01s.63-.7.72 1.17l.38 6.33s.56 4.29-.02 7.44l-.29 5.17s.62 2.35 1.16 0c0 0 .78-4.46 1.24-4.23 0 0 .33-.48 1.27 1.59 0 0 6.12 8.23 7.18 15.32 0 0 1.01 1.88-.61 8.94 0 0-1.36 8.4-4.07 13.37l-1.86 1.48s1.86-15.04 1.65-17.34c0 0 .6-4.18-.68-6.09 0 0-.36-2.41-3.74-7.86 0 0-.86-1.4-1.3-2.76 0 0-2.51-7.23-2.22-11.18l.05-1.8c.01 0 .1-1.78-1-.54" style="fill:#fef057"/><path d="m661.8 738.24 3.86 26.02s5.17 30.21 3.82 38.45c0 0 .14 17.98 1.42 22.48l1.87 1.05s3.1-13.9 2.88-22.79c0 0-.04-19.04-2.6-27.86l-5.01-34.05c-.01.01-5.93-2.07-6.24-3.3" class="st22"/><path d="M605.52 695.33s8.39-4.9 14.39 2.5c0 0 1.6 1.7 1.2 3.3 0 0 1.4 10.49 16.09 15.79 0 0 2.6 7.06 8.09 10.29 0 0 1 2.3-10.99-2.4 0 0-15.49-7.5-18.49-12.29 0 0-5.5-6.5-7.4-10.29.01 0-3.56-6.56-2.89-6.9" style="fill:#d8a337"/><path d="M657.34 817.55s-.9-10.12-1.95-11.47c0 0-.97-1.65-1.12-8.47 0 0-4.27-46.62-13.42-55.91 0 0-33.88-14.09-38.38-30.13 0 0 14.39 15.89 20.24 14.69 0 0-15.89-12.14-19.49-21.14 0 0-43.32 11.24-50.97 9.14 0 0-22.64-1.65-26.08.6 0 0-4.68 5-20.55 3.48l-.08-8.07 7.3-.32s2.21.63 4.44-3.15c0 0 1.18-1.91 8.15-1.46l23.54-.86s3.26-1.54 3.34.34c0 0-.39 4.83 6.87 3.49 0 0 8.35-.26 10.41-2.17 0 0 1.83-1.46.6-4.24l32.18-5.12s.98-.38 1.22 1.12c0 0 3.85 12.85 15.42 22.25 0 0 6.1 7.45 27.9 10 0 0 5.04.42 6.01.36 0 0 2.76.41 4.45 3.61 0 0 2.18 2.7 4.46 4.11l3.35 22.58s4.23 24.95 4.21 31.18c0 0 .8 8.43.13 10.72 0 0 .44 19.32 1.42 22.48z" class="st16"/><path d="M672.77 826.25s1.23-.77 1.29-6.68c0 0 1.61-13.71 1.58-16.11 0 0-.87-21.81-2.73-28.74l-3.82-25.97-1.06-7.2-6.23-3.31 2.59 17.48 3.53 22.8s2.44 18.27 1.74 23.22l-.17.98.79 17.77.62 4.71z" style="fill:#fee444"/><path d="m582.46 834.94 6.37-5.6s-13.04-8.49-24.28-25.28c0 0-8.99-14.26-19.19-21.82 0 0-5.4-6.06-.75-3.21l24.13 13.49s-7.2-12.44-22.94-22.34c0 0-4.95-4.25-8.24-5.1l29.08-21.29s-40.37 12.29-51.27 9.29l-4.47-.82s1.62 6.54.88 8.51c0 0-.92-.73-1.57-2.56l-1.78-5.67s-19.22-6.51-21.39-18.43c0 0-1.25 1.28.33 7.25 0 0 3.82 4.91 7.06 6.62l7.54 3.87s5.75 2.84 6.06 3.68c0 0 .46.27-.71.02s-.1-.02-.1-.02-8.55-1.08-13.53-4.56c0 0-6.39-4.19-7.43-6.66 0 0-9.4.75-44.7-17.31l10.79 12.22s19.11 15.14 20.31 22.64l-20.91 2.92s18.06 3.22 19.64 6.6c0 0 1.35 1.72-3.3 8.77l-15.86 26.11s2.4.9-20.39 15.19c0 0 1.3 3.2 16.29 5.7 0 0 2.5.97 8.87-1.2 0 0 1.2.75-1.57 1.65 0 0-8.99 1.72-17.99 9.29 0 0 6.6 1.95 8.84 9.14 0 0 3.9 11.24-1.12 14.09 0 0-15.89 7.12-26.91 4.8 0 0 5.33 2.44 17.54 4.22 0 0 12.43.35 20.49-1.41 0 0 9.08-1.4 15.39-6.75 0 0 5.93-4.73 5.07-12.39 0 0-1.83-11.63-2.84-13.84 0 0-1.05-2.02-1.01-1.46 0 0-2.36 2.06-11.84 4.57l5.62-5.32s4.85-5.62 7.24-6.91c0 0 4.5-3.26 3.52-6.55 0 0-.38-3.44-2.49-2.2 0 0-4.52 3.34-6.83 3.77 0 0-3.17 1.08-6.39.1 0 0 2.58.38 7.4-2.86 0 0 3.53-2.11 7.24-6.39l14.39-17.59 12.38-15.87 6.79-8.61s-5.73 1.66-28.31-12.18c0 0-10.81-5.96-14.79-12.63 0 0 12.48 8.58 35.06 16.17l23.4 7.07s3.03 1.3 5.13 3.91l8.02 9.93 12.22 15.23 11.69 14.9 11.07 14.11c-.02.01 9.09 8.59 9.05 9" class="st16"/><path d="M495.04 766.39s-7.05-1.9-21.54-1.5l-21.76-.1s7.67 2.25 22.51 2.55c0 0 20.19.05 20.79-.95m-1.25 2.69s-10.79 8.39-26.18 31.18c0 0-7.4 9.79-8.29 14.89 0 0 .1 5.2-.7 6.3 0 0 .65.65 2.65-4.85 0 0 1.8-4.75 3.4-6.3l8.49-12.22s10.74-14.37 12.34-17.06z"/><path d="M454.02 826.82s-4.41.59-1.38-.9c0 0 5.77-2.1 5.81-3.19 0 0 6.41-2.1 5.96.64 0 0 .4 1.95-5.8 5.55 0 0-2.44-.07-.61 6.75l.97 4.57s2.32 7.87 2.4 11.02c0 0 .56 4.46-1.69 9.07l-2.7 5.92s-2.17.34-1.8-.6c0 0 3.41-6.41 3.6-9.67 0 0 .26-6.37-.97-9.11 0 0-1.57-8.39-1.72-10.46 0 0-.71-3.6-.45-4.98 0 0-.19-2.51.45-3.11 0 0-4.79 2.77-10.08 2.85 0 0 6.99-3.38 10.26-3.88 0 0 1.73-.65.72-1.33z" style="fill:#030202"/><path d="m377.36 854.76-1.4 1.1s-6.52 2.57-5.46 13.76c0 0-1.44 9.7 7.16 13.36 0 0-4.8-13.06.89-19.65 0 0 2.9-3.45 6.55-2.82l-3.37-2.62-1.77-.74c.01-.02-1.3 2.73-2.6-2.39" style="fill:#fef275"/><path d="M385.11 860.5s14.62 11.55 60.9 12.52c0 0 8.14.03 8.29.98 0 0 1.42 1.74.67 8.24 0 0-.01 7.01-3.68 12.83 0 0-27.14 1.45-43.33-2.5 0 0-18.17-3.38-30.29-9.6 0 0-4.75-13.38.89-19.65.01 0 2.28-2.89 6.55-2.82" style="fill:#d29229"/><path d="M385.11 860.5s-11.38-1.14-8.86 16.73c0 0 22.5 12.07 54.78 10.47 0 0 12.59-.6 12.59-6.1 0 0 .2-7.39-6.8-7.44l-14.09-2.72c.01.01-29.77-3.57-37.62-10.94" style="fill:#fcce0b"/><path d="M468.97 869.52s8.49-.43 1.39 20.97c0 0 2.49-1.34 3.42-3.46 0 0 2.22-7.73 1.63-11.78 0 0-.46-5.09-1.63-7.34z" style="fill:#fbf5a9"/><path d="m376.87 824.25 5.08 6.35s-2.57.4.62 27.61l-2.6-1.07s.83-3.13-1.33-15.91z" style="fill:#fcf5a8"/><path d="M385.66 835.24s2 7.72 11.37 4.27c0 0 10.64-3.6 14.99-9.89l5.85-8.77s-14.47 9.55-29.23 1.1c0 0-10.19-8.23-8.17-4.1-.01 0 7.99 17.62 5.19 17.39" class="st16"/><path d="M385.93 834.46s-9.6-19.99-10.08-24.6c0 0-2.31-11.83-.35-16.76l11.79-44.48 9.19-30.03s.6-4.54 5.15-3.78c0 0 4.09 3.06 0 11.15 0 0-22.5 67.13-19.98 79.9 0 0 1.65 8.55 3.45 13.42 0 0-6.17-4.97-4.48-1.06.01-.01 6.66 13.51 5.31 16.24" class="st17"/><path d="M408.72 683.91s-1.95-1.87-2.47 1.65l-8.77 27.21s-.97 1.95 3.22-.3c0 0 9.29-2.77 11.99-6.9 0 0 3.75-3.67 6.75-11.84 0 0 2.55-3 .97-4.05 0 .01-2.55-.08-11.69-5.77" style="fill:#f2ce2e"/><path d="m438.23 695.28.18 3.02s14.54 5.59 22.07 9.82c0 0 8.66 5.55 12.44 5.17 0 0 3.99-.08 5.41 1.35 0 0-.64-3.21-.61-3.89 0 0 .31-2.75-.37-2.76 0 0-9.58-.16-12.73-2.22 0 0-2.97-.89-5.86-5.04l-1.24-1.71c-1.9-.06-3.94-.21-6.09-.49a60 60 0 0 1-13.2-3.25m41.56 26.45s-19.84-4.8-22.13-3.98c0 0 1.2 1.8 7.79 3.75 0 0 9.38 3.24 15.07 3.14zm.76-13.16 1.66 8.71h18.02s-1.1-1.87-.5-5.91l.04-1.18z" class="st16"/><path d="m499.78 710.19 2.21.19 1.32 16.9.12 1.59 5 23.7s-18.02-6.06-21.39-18.43c0 0-1.18 1.46.33 7.25 0 0-1.49-2.16-2.59-7.74l-.82-5.82s-1-7.48-1.3-8.62l-2.11-10.63z" style="fill:#f8ca33"/><path d="M499.78 710.19s-.64 5.26.46 7.1l3.12 10.61-1.37-17.53z" style="fill:#e8cd74"/><path d="m503.31 727.27-19.74-2.62s-.87 2.23 4.82 2.62c0 0 15.06 1.69 15.4 3.3zm3.17-2.63c.16.82 52.37 1.47 52.37 1.47s-34.71 7.45-51.35 4.46z" class="st16"/><path d="m511.86 731.1 1.93 21.7 1.59.3-.3-21.82z" class="st16"/><path d="m507.5 730.57 4.36.53 1.93 21.7-2.89-.52z" style="fill:#f2ca36"/><path d="M411.63 685.67s-11.69 20.95-2.28 22.94c0 0-11.17 6.26-11.97 4.61l9.41-29.32s.37-.94 1.93.01z" style="fill:#faf398"/><path d="M405.45 658.31s-.05-2.32 1.17-1.5c0 0 10.49 7.5 14.29 7.62l-.35 19.36s-12.72-4.8-13.84-6.52c0 0-1.15-1.07-1.27-4.3z" class="st36"/><path d="m409.15 658.54-.2 20.27s-3.5-1.18-3.5-4.97v-15.3s-.2-2.98 1.57-1.45z" class="st37"/><path d="M425.79 661.3s-.3-2.05 2.65-.95c0 0 7.55 1.75 6.25 4.45 0 0-1.75 3.4-1.85 13.44 0 0 0 13.15 1 16.47 0 0-7.7-.48-8.59-4.83 0 0-1.45-14.14-.75-16.49z" class="st38"/><path d="M437.93 670.15v18.79s-.1.71 1.65 1c.3.05 18.34 4.78 18.34 4.78l-1.15-21.12s-9.29-1.25-10.94-2.2c-.01 0-7.9-2.05-7.9-1.25" class="st36"/><path d="M461.99 677.34s-.5-9.54 7.35-8.54l37.78 2.75s6.2-.15 6.45 6.05l.95 23.43s1.65 5.45-9.84 4.35l-35.64-3.2s-5.39-.7-6.09-4.95c0 0-1.11-7.2-.96-12.34z" class="st39"/><path d="M468.23 676.94s-.56-3.22 2.89-3.11l31.85 2.14s3.07-.22 3.11 2.81c0 0 1.35 10.38.97 16.79 0 0 .15 4.05-3.04 3.9 0 0-17.88.67-31.48-2.02 0 0-3.82.17-3.56-2.84l-.04-4.47s.22-.56-1.12-.64c0 0-3.45-.34-3.34-3.26 0 0-.71-4.09 1.35-4.57 0 0 2.36-.11 2.36-1.68z"/><path d="M466.41 685.64c.22-.2.56-.46 1.03-.66.68-.29 1.22-.27 2.06-.32.57-.03 1.38-.09 2.37-.23 1.19-.05 2.19-.01 2.95.05 1.57.12 2.07.31 2.46.67.42.4.59.91.66 1.26.01.16.03.67-.32 1.06-.25.28-.57.36-.95.46-.45.11-.87.11-1.19.07-2.35-.09-4.28-.32-5.68-.52-2.27-.34-3.49-.68-3.59-1.29-.02-.2.09-.4.2-.55" class="st39"/><path d="M472.28 678.64h-1.05s-.44 3.05 1.38 2.9c0 0 6.32.1 7.79 2.92 0 0 1.25 3.5 0 7.37l-8.87-.25s-.32 1.55 2.57 1.47c0 0 7.87.12 8.27.82l21.26.83-.28-13.77s-2.04-1.52-9.38-1.3c.01.01-21.02-.6-21.69-.99m30.84 16.64c.13.05.35.15.54.35.41.43.38.99.37 1.11h-1.35s-21.04-1.01-22.44-1.46l-3.95-.9zm15.52-16.2.3 21.32 31.85-2.32s-1.35-19.52-.56-21.17c0 0-.19-.82-2.12.28 0 0-6.13 1.28-15.87 1.41z" class="st36"/><path d="m554.6 682.34-.7-10.19s-.45-.85 1.2-.85l8.54-.35s1.1-.15 1.1 2.6c0 0 1.15 7.6 1.25 18.79v10.74s0 1.2-1.95 1.1l-6.75.5s-.8.5-.85-1.4l-1.15-12.79z" class="st38"/><path d="m569.15 675.72 34.38-5.56s6.7-3.24 6-1.34c0 0-3.41 7.64-1.32 16.04 0 0 1.1 2.85 2.74 4.2 0 0-6.55 1.09-7.3 1.59 0 0-7.6 2.26-16.29 3.09l-16.94 2.98c.01 0-.87-20.5-1.27-21" class="st36"/><path d="M584 673.32s8.53 9.09 2.59 20.42l-16.16 2.97-1.27-20.99z" class="st37"/><path d="M617.33 667.69s-5.35 6.2-2.7 13.74c0 0 2.2 6.35 7.79 8.99 0 0 7.7-12.64 10.64-11.79 0 0 1-.3-1.35 2.8l-3.65 6.95s-1.4 2.9-1.75 9.14c0 0 .6 7 11.99 12.04 0 0 2.05-4 2.65-4.35 0 0 2.65-2.75 2.6-5.2 0 0 4.2-7.2 2.15-.95 0 0-2.8 4.3-2.75 12.29 0 0-.9 4.85 4.7 8.74l6.5 3.5s2.45 1.35 2.15 0c0 0 1.15-8.49 2-9.29l1.3-.05s-.55 13.64 3.25 15.44c0 0 5.65 8.14 17.24 4 0 0 12.44-4.15 17.59-9.04 0 0 4.4-3.55 4.6-8.09 0 0 .8-6.45-1.8-3.9l-5.6 4.4s-2.8-.7-3.95 2.1l-3.3 6.7s-1.3 1.85-1-.35c0 0 .9-3.65.85-4.5 0 0-.1-1.4-1.75-.9l-8.04 3s8.29-6.95 11.79-8.79c0 0 14.04-9.79 16.94-15.19 0 0 4.42-5.97 7.05-13.84 0 0 .85-3.4-1.1-1.3 0 0-3.15 3.1-17.39 7.3l3.15-19.99-19.29-.95s-2.15-.5-2.8 1.2c0 0-.65-1.5 1.95-2.2 0 0 1-1.4-.55-1.35l-7.94-.3.65-12.49s2-10.69 4-12.49c0 0-.4-.7-2.05 0 0 0-11.99 1.95-12.49 3.15 0 0-2.25 1.85-1.2-1 0 0 .25-3.4 2.4-6.25l5.85-10.19s2.05-1.8-.3-1.9c0 0-17.39-1.7-18.94-.35 0 0-6.7.65-11.49 6.7 0 0-8.89 13.29-6.75 14.04 0 0 1.05.2 1.65-.65 0 0 7.8-5.9 11.69-6.6 0 0 5.75-2.1 2.8.5l-14.19 11.94c-.01-.01-13.9 13.23-13.8 15.58" style="fill:#91938f"/><path d="M617.56 668.5s2.89 14.12 11.92 13.35c0 0-6.28 7.79-6.83 9.39 0 0-6.22-2.1-8.53-11.37.01 0-.81-5.97 3.44-11.37m12.54 17.27s-3.68 4.5-3.4 13.28c0 0 .56 5.55 11.85 11.32l1.94-3.45s3.86-3.94 3.31-6.09c0 0-14.54.95-13.14-13.54l.6-3.72zm14.12 18.34s4.12 9.98 14.32 11.01c0 0-1.55 3.63-1.97 9.52 0 0 .22.94-1.36.15 0 0-8.7-3.78-10.18-6.57 0 0-1.42-1.56-1.81-4.22 0 0-.5-2.99 1-9.89" style="fill:#82837d"/><path d="M676.47 670.54s-1.1 1.25-.55 5.1l21.66.77.77-4.92-19.29-.95s-2.3-.45-2.8 1.2c0 0-.55-.95.5-1.65s-.29.45-.29.45" style="fill:#929290"/><path d="M689.88 676.46s2.17-.14 2.32.98c0 0-.75 16.86-4.65 19.94 0 0-14.69 17.84-17.84 19.71 0 0-3.97 5.4-8.43-.3l-1.96-2.27s-.67 11.37 3.25 15.44c0 0 6.2 7.66 15.59 4.52 0 0 15.18-5.12 18.73-9.11 0 0 6.31-4.35 5.07-12.12 0 0-.07-1.66-1.77-.33s-.09.07-.09.07l-5.5 4.32s-2.58-.68-3.95 2.1l-3.3 6.7s-1.3 1.92-1-.35l.85-4.37s.13-1.72-2.22-.85c-2.35.88-7.57 2.82-7.57 2.82l4.87-3.93 6.92-4.87s12.81-9.36 14.27-11.76c0 0 7.89-10.16 8.84-14.88 0 0 2.3-5.7.25-4.15 0 0-2.4 3.1-17.87 7.75l2.37-15.07c.02.01-7.4-.55-7.18.01" style="fill:#7e7f7a"/><path d="M666.08 629.56s-21.87-7.02-27.37 5.58l-9.49 11.84s-1.49-.43 1.92-6.15c0 0 4.77-11.37 11.82-13.22 0 0 4.57-2.94 12.45-1.8l10.99.78s2.69-.38-.32 2.97" style="opacity:.71;fill:#fff"/><path d="M645.54 640.97s-.95 5.7-17.64 20.39c0 0-7.72 8.87-5.33 17.6 0 0-4.67-5.7-5.02-10.45 0 0 2.54-4.95 6.73-8.54 3.24-3.26 6.76-6.6 10.55-9.99 3.66-3.26 7.24-6.26 10.71-9.01" style="opacity:.64;fill:#fffdfb"/><path d="M639.08 635.47s2.85-7.42 14.85-7.13c0 0 4.11-.29 12.34 1.95l-4.92 8.59s-2.71 3.53-2.87 8.3c0 0 .8.26 1.56-.73 0 0 5.97-2.17 13-3.17 0 0 .93-.4 1.35.24 0 0-1.76 2.84-2.64 6.51l-1.36 5.98-.65 12.49 7.94.3s1.52-.06.55 1.35c0 0-1.71.34-2.09 1.65 0 0-.62 1.8-.21 4.45l14.56.52s2.43.22 2.21 1.61c0 0-.63 10.07-2.03 14.36 0 0-1.19 4.48-3.17 5.89 0 0-13.22 16.71-17.27 19.02 0 0-3.12 4.32-6.98 1.2l-3.41-3.77s-10.95-.08-15.62-10.96l2.07-5.38s.78-2.65-.38-1.05l-2.11 3.15s-9.33.61-12.11-6.11c0 0-2.12-3.73-.43-11.15 0 0 2.94-3.82 2.04-4.12 0 0-1.24-.42-3.82 2.4 0 0-8.93.37-7.22-8.52 0 0 2.24-10.16 7.52-13.65 0 0 11.11-9.88 14.87-16.65l.88-2.05s2.84-2.19-1.92-.79c0 0-7.45 2.71-12.8 7.15 0 0-1.12.87-1.42.39l7.51-9.36c.01-.03 2.25-2.29 2.18-2.91" style="fill:#a7a7a1"/><path d="M722.61 527.16s-6.75 12.44-5.4 14.24l8.24 7.01s25.78-21.1 55.01-17.05l8.39 2.55s-30.73 1.5-49.02 13.49c0 0-16.79 8.99-24.43 24.73 0 0-13.79 24.13-21.44 29.68 0 0-13.84 14.29-30.21 19.34l12.37 2.4-9.59 14.99 13.87-2.32s1.95-.23.3 2.32c0 0-6.82 14.84-6 24.06 0 0 10.19.82 14.54-.82 0 0-.39 3.07-2.63 3.37l18.59.37-2.4 17.26 16.56-9.82s1.72-.47.82 1.93c0 0-2.25 3.52.37 9.07 0 0 14.77-17.54 42.05-21.89 0 0 32.83-7.35 56.81-30.73 0 0 19.04-18.44 24.58-34.48l5.1-15.14s3.15 7.79 2.55 14.54c0 0 7.94-21.59 4.8-32.23l-5.85-19.94s6.3 3.3 8.54 10.04c0 0-3-15.44-10.79-25.03l-16.64-23.98 7.35 7.05s-8.54-30.43-17.99-38.97c0 0-.45-4.5-23.38.9.03-.01-50.19 13.93-75.07 53.06" style="fill:#525451"/><path d="M663.44 620.9s7.47 4.25 25.66-8.64c0 0 11.99-9.59 19.79-19.09 0 0 13.69-17.69 17.19-20.09 0 0 11.39-10.99 17.19-12.79 0 0-17.39 7.99-19.49 9.99 0 0 4.4-12.19 31.08-25.98 0 0 19.09-8.99 26.28-8.79 0 0-8.02-1.36-27.4 4.87 0 0-19.34 6.58-30.9 20.19 0 0-3.23 2.94-13.14 20.22 0 0-10.57 19.57-24.92 28.47 0 0-11.93 8.99-21.34 11.64" style="fill:#939292"/><path d="M392.29 420.63s-19.94 51.57-4.8 81.85c0 0 5.25 14.39 15.44 23.98 0 0-9.14-5.4-11.69-8.69 0 0-1.35 30.88 7.35 63.11L410.73 626l-4.2-7.2s0 9.59-3 14.99c0 0-5 12.49 8.24 19.79l9.29 3.82s2.7-3.22 5.77-2.02l10.32 4.22s1.23.78 1.45 0c0 0 1.35-.1.37 3.57l18.74 4.95s3.9-4.8 8.17-4.72l36.13 2.32s11.39-.55 14.29 4.6c0 0 .5 1.5.35 2.35l30.93-.65s.42.2.27-1.12c0 0-.76-3.93 5.87-4.08l9.93-.9s2.96-.41 3.75 2.89c0 0 .11 1.01 1.76.86l14.92-1.86 26.1-5.47s3.16.35 3.11-.85c0 0 4.3-6.1 7.24-7.25 0 0 1-1.55 0-2.7 0 0 1.85-35.95 33.25-31.75 0 0 1.5-3.3 3.49-3.49 0 0 2.81-17.58 6.41-23.2 0 0-1.05-.9-1.5.37l-17.01 9.59 8.99-8.54s22.26-19.86 26.23-26.83c0 0 14.62-20.99 16.26-27.36 0 0-1.65-6.37-7.35-12.74 0 0-11.62-14.32-15.81-23.39l-1.57-3.52s-2.25-1.5-5.1-4.5c0 0-13.04-12.22-13.64-19.19l13.87 13.72s-8.92-14.99-11.47-29.91c0 0-4.5-20.54-4.35-25.63 0 0 6.37 26.16 8.47 29.91l6.82 16.26s-4.87-30.66 1.35-49.17c0 0-3.67 16.86-1.05 29.31 0 0 1.07 22.46 15.76 45.35l11.99 16.19s9.79-30.58 45.47-53.52c0 0 34.18-25.33 69.71-23.38l-15.37-17.99.07 8.54s-1.5 1.57-1.5-.52c0 0 .22-8.92-2.55-16.04 0 0-6.75-24.96-21.44-39.95 0 0-9.74-14.17-31.85-21.74 0 0-42.2.6-62.73 50.22 0 0 6.73-30.42 33.88-45.42 0 0 13.11-6.82 22.71-5.17l5.25-.26s-.52-2.89-33.58-9.49l-13.34-1.5 8.62-1.8h7.57l-31.63-19.86s-3.45-2.1-4.57 0c0 0-3.75 20.69-61.54 72.85 0 0-35.83 27.21-44.67 31.25 0 0-.82 1.05-2.47-1.42 0 0-14.44-20.84-21.94-26.23 0 0-.55-.52-2.5 1.65 0 0-10.72 11.09-15.37 22.04 0 0-2.25 3.67-7.12 22.11 0 0-3.52 23.53-3.82 28.03 0 0 0 5.25-5.77 4.8 0 0-18.44-.9-19.49-2.1 0 0-1.27.15-1.27-2.7 0 0 .6-24.06 2.47-29.46 0 0 2.32-15.14 8.84-24.28l1.15-3.2s-6.1-11.49-9.79-15.59c0 0-4.6-8.39-8.79-8.79l-10.89 8.79s-8.69 7.1-10.69 10.79l-3.2 2.4s-3.7-9.69-6.6-21.89c0 0-4.85-28.28-.35-44.62 0 0 .75-7.35 2.4-10.34 0 0 1.85-7.2-2.35-5.15 0 0-19.79 9.84-21.99 13.19l-8.39 10.64 6.1-11.34s-.05-.95-1.7-.65c0 0-25.18 3.1-40.17 13.39 0 0-17.89 11.29-34.38 35.38 0 0 10.49 1.3 16.19 4.1 0 0-7-3.5-24.53 2.05l-13.79 6s-2.25 1.2 0 2.1c0 0 21.29 4.35 38.97 38.83 0 0 10.49 17.69 13.19 43.92 0 0 2.1 25.78-1.65 36.43 0 0-.4 2.2 1.6.4 0 0 7.99-5.5 8.59-9.49 0 0 .8-6.05-.75-9.29 0 0-6.25-12.64-7.1-20.19 0 0-1.35-11.99 0-16.44 0 0 2.05-24.23 3.25-27.43 0 0 6.2-18.89 6.7-28.08 0 0 1.8-12.09.8-18.59 0 0 1.9 7.5.8 21.79l14.89-25.58z" class="st49"/><path d="M309.82 422.37s23.87 9.03 37.81 40.96c0 0 12.59 22.79 10.34 64.76 0 0-.9 7.94-1.8 11.99 0 0 .4 1.3 2.45 0l9.99-6.65s2.35-1.4 3-4.95c0 0 2.95-19.44 2.05-30.53 0 0-1.5-22.79-11.59-43.97 0 0-11.51-28.36-34.88-39.77l-7.5-3.5s-2.12-.07-4.45 1.42l-8.62 6.3c.02 0-2.16 2.63 3.2 3.94" style="fill:#fbcf09"/><path d="M326.47 413.87s-10.91 2.77-9.74 12.15c0 0-6.47-3.9-7.88-3.93 0 0-4.32-1.49-1.9-3.88l8.11-5.93s2.02-1.52 4.64-1.57z" style="fill:#fbf49c;stroke:#f9f9fa;stroke-miterlimit:10"/><path d="M373.23 514.73s-12.24 13.3-16.19 20.5c0 0 3.14-28.39-1.71-47.97 0 0-3.53-21.46-17.38-41 0 0-8.95-13.32-21.22-20.23 0 0-4.47-6.39.77-2.72 0 0 13.87 7.72 17.54 13.34 0 0 3.45 1.5 13.64 20.46 0 0 5.62 8.92 8.84 16.79 0 0 6.77-5.9 6.64-15.2 0 0 4.18 9.12 7.88 27.3.01 0 3.29 13.28 1.19 28.73" style="fill:#d6a229"/><path d="m373.04 514.18-1.74 14.35s-.49 3.45-4.7 5.58l-8.74 5.75s-2.07 1.19-1.58-1.73l.73-3.73s6.1-8.64 16.03-20.22" style="opacity:.31;fill:#fded7b"/><path d="M374.54 522.46s-2.15 7.77-.67 6.73c0 0 6.84-4.73 9.02-8.63 0 0 2.68-7.11-1.13-12.74 0 0-7.49-15.27-6.59-23 0 0 .36-17.53 1.31-21.51 0 0 1.29-17.5 4.45-24.49 0 0 5.14-17.55 4.57-20.85 0 0 1.2-9.21 1.12-13.12 0 0-10.54 34.78-17.13 44.3 0 0-.97 2.77-3.6-.82 0 0-10.57-21.98-16.94-20.17 0 0 11.45 8.37 13.3 20.64 0 0 7.46 14.28 10.75 29.52 0 0 4.14 23.68 2.41 33.42z" class="st54"/><path d="M324.73 406.8s-4.19 1.76-.34 2.76c0 0 4.64 1.23 5.44 2.22 0 0 16.85-8.66 26.19-9.41 0 0-5.44-2-.35-4.22.01 0-12.21-.97-30.94 8.65" style="fill:#fdf49b"/><path d="M355.26 396.92s7.32-18.98 29.41-29.48c0 0 31.78-20.09 30.08-10.49 0 0 .69 3.57 1.74.39l2.74-5.1 2.81-5.23s-.05-1.07-1.7-.65c0 0-22.87 3-39.69 13.07 0 0-19.57 13.72-25.39 23.29l-9.47 12.41z" class="st56"/><path d="M416.34 356.97s4.65-9.52 9.97-12.22l19.94-10.94s3.9-.07 1.27 5.77c0 .01-20.01 11.02-31.18 17.39" class="st56"/><path d="M401.59 398.95s-22.49 76.83-5.17 106.73c0 0-7.62-4.77-12.32-13.57 0 0-2.5-16.74-.6-28.43 0 0 2.3-16.89 5.8-31.28-.01 0 11.09-33.33 12.29-33.45" class="st54"/><path d="M401.98 560.1v-14.29s-.2-1.9 2.3-2.5c0 0 35.38-22.39 89.94-17.79 0 0 35.48 5.55 60.81 15.74 0 0 42.27 15.14 59.06 12.59 0 0 15.74-2.33 20.99-5.58 0 0 3.3 26.51-4.5 35.99 0 0-12.74 25.66-32.23 31.81l22.73-4.8s3.66-1.35 1.26 2.85c0 0-6 24.88-24.88 33.58 0 0-11.09 9.05-25.78 11.35 0 0 16.39-11.8 17.41-20.49 0 0-21.38 20.47-74.68 28.76l30.88.75-29.18 1.77s.67 1.72.35 2.35l30.93-.65s.4.29.25-1.31c-.14-1.6 1.15-3.07 3.38-3.6l11.85-1.14s2.81-.68 4.09 2.08c0 0 .24 1.72 1.48 1.63 0 0 28.72-3.15 34-5.76l7.54-1.58s2.36.64 3.3-.72c0 0 4.45-6.12 7.05-7.37 0 0 1.67-.85 0-2.7 0 0 5-25.24 17.81-29.36 0 0 6.37-2.47 15.89-2.02 0 0-1.82 0-1.77-2.35 0 0 1.2-18.19 5.55-20.69l-13.74 6.65 8.74-8.15s6.03-13.01 11.12-16.91c0 0 24.72-30.65 27.8-42.72l4.39 5.38s1.7.62-1.95-6.5c0 0-15.95-21.95-17.48-24.51l-4.98-9.68s-11.02-9.21-16.98-18.81c0 0-3.1-7.28-.89-4.02l13 12.86s-12.11-19.75-14.58-45.59c0 0-3.56-19.74.33-6.35 0 0 6.15 28.58 13.72 42.57 0 0-4.28-33.75.25-45.31 0 0 5.43-15.76 4.23-11.66 0 0-6.13 6.84-4.31 36.4 0 0 3.61 25.46 12.71 36.36 0 0 7.96 13.63 18.22 18.76 0 0 9.21-19.15 27.58-35.24 0 0-15.22 5.8-18.51 9.19 0 0-5 9.19-10.09 3.3 0 0-5.6-.6-15.99-20.09 0 0-9.64-15.24-10.99-36.08 0 0-1.09-8.13.22-12.14 0 0-6.22 2.47-6.3 34.1 0 0-.52 3.45-2.17-2.25 0 0-5.32-17.46-8.54-20.91 0 0-3.22-5.62-2.25.67l4.57 39.95s-.52 1.27-2.25-1.05l-9.89-14.17s3.82 14.77 1.8 20.16c0 0-9.59 31.55-38.6 37.4 0 0-30.13 8.88-70.38-4.44 0 0-35.75-12.87-68.58-7.02 0 0-50.54 9.26-65.66 1.12 0 0-14.94-7.72-18.37-18.79 0 0 3.47 19.8 20.36 37.65l-12.34-9.49c0-.01-.75 27.72 10.95 42.81" class="st57"/><path d="M450.02 518.75s41.37-17.01 91.52 7.2c0 0 1.32 1.15-5.27-.55-1.69-.42-4.18-1.04-7.21-1.77-6.68-1.62-14.66-3.49-17.8-4.16-11.87-2.54-22.71-2.52-30.86-2.51-7.41.01-16.8.46-27.58 2.05-1.93.22-2.92.23-2.8-.26m111.94 11.84s54.56 17.39 96.94-27.08c0 0 2.2 0-1.2 4.3 0 0-15.99 24.18-43.27 28.88 0 0-24.08 5.7-52.47-5.7z"/><path d="M695.96 523.54s1.77-7.16 2.43-7.23c0 0-12.1-4.72-24.1-29.18 0 .01 7.08 21.12 21.67 36.41m-4.13 12.31 4.39 5.38s-10.25 26.12-43.32 54.25c0 0 8.05-15.24 10.22-16.14 0 0 23.66-28.43 28.71-43.49" style="opacity:.46;fill:#fcef50"/><path d="M657.54 596.89s8.45-7.02 5.68-2.52c0 0-5.7 15.44-5.25 21.81 0 0-3.3.37-3.75 3.52 0 0-2.02.22-1.74-2.77 0 0 1.1-15.42 5.06-20.04" class="st59"/><path d="M718.89 534.86c.12 1.29 1.39 1.3 4.41 3.82 2.39 1.99 2.88 3.06 5.77 5.16.69.5 1.27.88 1.65 1.13a89.6 89.6 0 0 1 28.88-12.3s-16.44 3.08-26.43-7.01l6.6-8.49s6.7-8.79 9.29-9.89c0 0 7.4-7 14.99-11.89l7.7-5s1.7-1.6 3.6.5c0 0 10.59 8.39 12.39 25.78 0 0 3.03-5.42 0-21.49l-2.3-6.7s10.89-6.2 14.89-1.5c0 0 10.99 9.29 13.09 16.19 0 0-10.97-9.34-12.54-7.55 0 0 12.82 6.97 17.76 22.94 0 0 18.66 26.31 11.69 52.17 0 0-2.25-18.89-5.4-21.92 0 0 2.47 20.8-10.79 35.19 0 0-22.49 24.28-50.14 37.1 0 0 29.23-6.75 35.53-12.82 0 0-24.28 25.63-39.35 29.46l12.14-11.84-47.89 27.8s-15.74 10.34-14.62 9.89 3.75-12.59 3.75-12.59l-19.94 8.57 4.37-6.77-23.48 8.32.07 1.87s9.07 1.07 14.54-.82c0 0-.44 3.05-2.63 3.37l18.59.37-2.4 17.26 16.56-9.82s1.58-.3.82 1.93c0 0-1.95 3.87.37 9.07 0 0 12.67-15.44 46.84-28.48 0 0 41.82-17.09 62.81-46.17L849 582.12s3.9 8.24 2.55 14.54c0 0 4.2-17.84 2.4-28.93 0 0-8.69-31.93-18.14-46.47l-10.04-17.84 6.88 3.59s-13.03-31.69-18.58-35.18c-4.38.4-9.13 1.09-14.14 2.22-15.92 3.59-28.4 10.2-37.16 16.02-2.07 1.28-18.76 11.68-27.35 21.24-2.97 3.31-5.22 6.79-9.14 11.19-.88.98-2.59 2.85-4.09 5.6-.48.87-.47.98-1.42 2.77-1.6 3.01-1.94 3.3-1.88 3.99" style="fill:#393b38"/><path d="M773.44 531.62s9.87-21.22 4.27-31.04c0 0 6 12.44 5.85 16.26 0 0-1.66 10.74-5.85 15.37 0 0-1.8-.63-4.27-.59" style="fill:#323433"/><path d="M701.56 518.2s-5.25 7.05-.75 13.19c0 0 5.4 9.74 8.99 10.04 0 0 11.99-28.03 22.34-34.03 0 0 30.28-31.18 62.81-37.18 0 0 14.54-5.1 28.63-1.8 0 0 1.72.56-.37-3.67 0 0-6.3-11.24-9.11-13.27 0 0-.31-1.75-9.81-1.5 0 0-18.43-.15-46.37 13.79 0 0-28.78 16.69-40.17 31.28 0 .01-15.49 19.5-16.19 23.15" style="fill:#fbca0c"/><path d="M701.56 518.2s9.23 14.16 12.71 13.8c0 0 14.13-27.71 32.75-37.66 0 0 35.01-29.2 71.04-26.81l-13.77-17.55s-11.64-.34-31.97 7.44c0 0 10.48-.84 7.48 13.55 0 0-25.18 9.14-46.62 28.93 0 0-11.69 17.24-13.64 7.5 0 0-3.9-8.42-.3-11.7 0 0 2.39-5.8-3.36 1.73.01 0-14.47 18.82-14.32 20.77" style="fill:#d29829"/><path d="m804.29 449.99 13.77 17.55 5.52.89s1.28.04.37-1.95c0 0-5.38-10.87-9.42-14.63 0 0-.45-1.38-5.19-1.77z" class="st22"/><path d="M701.56 518.2s9.31 14.04 12.71 13.8l-4.47 9.43s-8.21-5.4-10.82-14.62c.01.01-.94-3.74 2.58-8.61" style="fill:#d0992a"/><path d="M465.7 663.89s-16.58-1.79-39.14-21.05c0 0 5.25 9.29 7.35 11.32 0 0 .6 1.5-2.25.52 0 0-14.09-3.52-21.96-14.77 0 0-.93-.6-.54 4.2 0 0 .54 5.32 4.51 9.89l8.17 3.82s2.61-3.32 6.57-1.7l9.52 3.9s1.34.74 1.45 0c0 0 1.39.12.37 3.57l18.74 4.95c0 .01 4.08-4.18 7.21-4.65" class="st65"/><path d="M392.05 530.04s2.44 35.17 6.62 48.66l9.34 34.79 3.08 12.24s-2.89-7.99-3.4-5.83c0 0-.28 8.29-2.24 13.07 0 0-4.1 8.59 1.85 16.59 0 0 5.1 5 6.37 4.45 0 0-6.12-7.35-3.97-14.09 0 0 3.47 4.49 5.91 6.37 0 0 3.43-7.02-.46-20.81 0 0-4.4-28.68-6.6-33.43l-7.4-33.61c-.01 0-6.61-12-9.1-28.4" class="st59"/><path d="M697.72 376.39s25.58-20.09 34.57-13.5c0 0 26.98 6 43.77 37.63 0 0 13.4 25.04 15.14 37.93 0 0 3.1 3.7 6.55-4.7 0 0 .2 6.8 3.12 11.52 0 0 3.82 2.4-8.47 2.85 0 0-34.03 3.22-44.52 8.32 0 0-.47-1.34 1.7-2.5.13-.07.26-.13.4-.2 2.62-1.2 16.19-7.27 12.97-21.96 0 0-2.86-28.26-26.61-46.7 0 0-14.99-14.44-29.18-12.54-.01 0-9.43 5.96-9.44 3.85" class="st57"/><path d="M723.75 361.57s11.28-3.95 15.73-2.16c0 0 22.96 8.59 33.18 24.38 0 0 11.21 12.48 18.02 34.99 0 0 3.36 9.39 3.06 17.79 0 0 .22 2.4 1.5.52l-.07-8.54 15.37 17.99s-9.16-.51-9.72.31l.55-.82s-3-3.04-3.63-12.28c0 0-3.7 9.69-6.77 3.3 0 0-6.23-22.33-19.34-43.97 0 0-14.76-21.14-35.22-28.89l-4.12-1.3s-2.45-2.05-8.53-.84v-.48zm-26.79-13.02 27.44 9.85s5.66-.79 8.01-.18l5.25-.26s-.2-.74-3.19-1.81c0 0-23.34-7-31.36-7.6z" class="st66"/><path d="M699.29 368.54s-.51-4.38-4.48-5.73l-29.91-13.94s-3.37-2.02-5.85 2.47c0 0-27.06 35-44.37 48.94l-47.14 36.43s-3.6 2.4-8.24-3l-18.25-20.69s-2.43-3.3-7.38.45l-9.89 7.65s-1.29-3.13 7.08-12.36l6.18-7.07s1.48-1.67 4.02.85l19.75 24.42s1.12 2.76 3.26 1.04c0 0 27.32-16.53 37.44-26.03 0 0 27.35-22.16 42.07-40.04 0 0 19.71-21.65 23.64-31.98l1.27-2.75 25.3 17.83-4.29.9 33.66 11.42c-.02.02-10.54 1.78-23.87 11.19" style="fill:#d39d2a"/><path d="M668.71 327.55s1.15-4.85 3.59-3.76l33.62 20.68h-7.57l-4.33.9z" class="st66"/><path d="M657.33 301.75s6.4 9.17 4.3 25.42c0 0-14.89 29.64-58.16 65.32l-40.6 28.88s-12.97-18.89-20.46-24.58a229 229 0 0 0 29.01-14.99 228 228 0 0 0 29.31-21.29c9.45-6.14 17.19-12.19 23.24-17.39 0 0 9.08-7.8 20.69-20.39 0 0 3.54-3.84 7.87-9.74.61-.83 1.21-1.67 1.87-2.85 1.81-3.23 2.58-6.28 2.93-8.39" style="fill:#e0a726"/><path d="M657.23 302.42s.95-8.92 2.6-2.7c0 0 5.55 13.34 6.82 15.96 0 0 .6.9-.2 2.57l-4.92 9.58s1.06-10.95-.43-15.16c0 .01-.94-5.4-3.87-10.25" class="st69"/><path d="M487.09 476.21s-.22-1.5.6-1.72c0 0 1.57-38.68 11.54-50.22 0 0 8.54-8.69 16.41-11.62 0 0 11.84-1.55 10.87.3 0 0-6.97 11.09-10.34 20.31 0 0-4.87 13.64-6.37 28.18l-1.57 16.07z" style="fill:#eabb1f"/><path d="M495.54 454.35s6.63-3.64 9.56 3.3c0 0 .9 7.12-4.61 8.24 0 0-5.36 1.39-7.01-2.96 0 0-1.27-4.08.56-7.16 0 0 .86-1.46 1.5-1.42"/><path d="M494.54 459.16s1.93-5.73 6.67-3.6c0 0 3.39 2.17 1.78 6.09 0 0-.54 2.74-4.78 3.37 0 0-4.76-.94-3.67-5.86" class="st49"/><path d="M500.88 428.43s4.12-5.77 7.76-3.45c0 0 3.56 1.35 3.22 6.33 0 0-.27 5.28-5.08 6.41 0 0-6.39.61-6.39-4.68 0-.45-.23-2.96.49-4.61"/><path d="M503.14 428.57s2.67-2.92 4.87-.92c0 0 3.05 1.25 1.32 5.35 0 0-2.45 3.5-4.7 2.92 0 0-1.92-.42-2.57-3.2.01 0-.59-2.7 1.08-4.15" class="st49"/><path d="M498.84 424.13s13.09-19.94 32.48-29.63c0 0 48.11-17.93 64.54-30.6l32.2-15.32s8.39-3.41 0 11.56c0 0-13.07 23.57-27.31 33.7 0 0 27.63-21.84 35.86-33.7 0 0 20.03-21.58 24.33-33.06 0 0 2.7-13.88-4.3-25.42 0 0 1.18 1.14-1.09 4.28 0 0-7.2 13.53-30.16 35.21 0 0-27.93 21.49-30.13 23.25 0 0-23.62 17.15-31.39 21.34 0 0-21.55 11.11-22.15 10.96 0 0-4.45-3.7-30.18 17.56-.01 0-10.5 6.66-12.7 9.87" style="fill:#ffd108"/><path d="M511.88 414.21s8.18-7.82 16.8-9.39c0 0 5.32-3.75 5.32-2.85 0 0-6.45 5.77-8.17 11.32 0 0 .3-1.15-3.67-.9 0 0-6.32-.11-10.28 1.82" style="fill:#bf902d"/><path d="M461.78 358.44c-1.2-1.42-2.44-3.04-3.66-4.86a55.5 55.5 0 0 1-4.63-8.43c-.26-.99-.52-1.49-.8-1.5-.44-.01-.91 1.26-1.4 3.8-.7 4.18-1.24 8.76-1.5 13.69-.8 15.07.84 22.62 1.7 27.88.76 4.65 1.99 10.75 4.1 17.79 2.69-3 5.18-5.45 7.25-7.35 1.99-1.84 4.76-4.36 8.79-7.2.99-.7 1.84-1.26 2.45-1.65-1.7.61-3.54 1.36-5.42 2.41-3.27 1.84-7.67 4.93-12.17 9.98 0 0-4.8-39.07-.9-49.27z" style="fill:#faf398;stroke:#f9f9fa;stroke-miterlimit:10"/><path d="M455.52 353.77s-3.1 4.8.9 49.27c0 0 11.49-11.44 17.59-12.39 0 0 4.85-1.2 3.9-2.5 0 0-11.59-20.19-12.89-26.43-.01-.01-.71-2.06-9.5-7.95" style="fill:#f9d50e"/><path d="m452.85 416.21 2.77 4.7s21.44-14.84 24.83-16.19c0 0 .9-.75 2.15.9l11.33 10.37s-9.54-15.78-11.98-18.03c0 0-2.5-3.29-4.93-3.29 0 0-17.3 13.45-18.6 15.84 0 0-3.06 3.24-2.98 3.74z" class="st65"/><path d="M220.87 365.14s-3.9-7.2-3.2.6c0 0 2.4 16.39-4 32.98 0 0-14.49 49.17-15.29 58.56 0 0-6.43 22.57 2.3 55.66l8.39 20.59s0 .9.9-2.6l1.6-10.29 9.29 22.29s4.9 11.69 10.29 16.49c0 0-14.87-34.48-17.53-55.56l-3.96 13.79s-6.8-14.89-6.5-37.78c0 0 3.7-35.68 6.4-45.07 0 0 1.4 37.88 1.5 38.28s3.3-45.47 7-60.16c0 0 2-15.79 3-18.79 0 0 3.47-8.52 1.5-18.99l-3.4-10.49 6 6.8z" style="fill:#8f918d"/><path d="m225.16 371.44 10.49 9.99 1-9.99s11.49 8.49 16.79 17.99l15.69-9.79 6 38.73s6.7-14.25 6.3-16.85l.7 22.19s4.1 16.89 5.7 26.88c0 0 4 14.69 2.1 38.88 0 0-1.9 22.49-15.39 35.28 0 0-11.09 10.79-23.98 4.8l-6.9-2.6s5.2 8.48 5.6 8.29 3 2.8-3.8 1.21c0 0-17.29-6.6-24.88-28.98l-1.5-5.2s-.9 17.59-.6 19.09-4.78-11.09-4.84-16.79 0-.7 0-.7l-3.79 13.21s-5.82-11.62-6.54-30.31c0 0-.15-24.41 3.2-34.54l3.08-17.42 1.5 38.28s4.79-52.05 5.74-53.96l4.25-24.99s3.86-11 1.93-15.99l-3.83-13.49z" style="fill:#535352"/><path d="m231.16 559.42 5.85 4.05-2.92-10.19s16.82 17.76 40.7 16.04l-12.44-5.02 10.64.97-9.29-3.91-4.65-3.28s39.27 3.9 92.04-27.43c0 0 .5-41.82-2.15-38.97 0 0-9.62 10.79-27.04 9.74 0 0 16.8-2.25 27.04-17.24 0 0-9.54-37.18-29.78-47.74 0 0 21.59 14.62 17.99 49.24 0 0-4.95 9.89-19.11 1.12 0 0-6.07 26.31-15.52 33.5 0 0 11.69-16.52 5.85-53.23 0 0-15.07-42.78-15.29-66.84 0 0-2.02-12.14.45-19.34h-4.05l1.67-2.92-15.16 11.47-2.7-13.72-4.15 3.92 6 38.73 6.3-16.85.7 22.19s11.13 41.22 8.15 59.89c0 0-1.22 35.04-22.67 45.69 0 0-5.49 6.99-23.95-2.34l5.6 8.29s2.6 4.29-7.6 0c0 0-21.19-13.09-22.59-32.97l-.6 19.09c-.01-.02 1.59 20.97 12.68 38.06" style="fill:#383a37"/><path d="M318.03 486.79s2.87-32.9-5.02-44.7c0 0 7.78-4.32 15.63 4.63 0 0 9.01 13.16 8.88 33.04 0 0 1.15 6.57-4.29 9.58.01.01-3.38 4.27-15.2-2.55" style="fill:#515551"/><path d="m313.01 442.09-4.53-13.24s.79-1.09 3.34.9c0 0 8.8 5.13 13.51 10.42l-5.85-3.58s6.66 5.84 8.29 8.85c0 0-7.25-7.03-14.94-3.28" style="fill:#626964"/><path d="m290.43 380.13 10.13-4.42s-10.34 12.94-1.2 46.46c0 0 13.49 35.32 13.64 47.46 0 0 2.82 17.38-5.56 38.52 0 0 4.1-17.79 1.76-34.9l-.85-6.19s-22.04-59.87-14.84-86.18h-4.05z" style="fill:#4b4c47"/><path d="M232.21 369.49s1.05-6.3 0-14.09c0 0-5.55-8.99-3.3-35.08 0 0-.86-14.41-7.12-26.42-.12-.24-.25-.47-.38-.71-6.6-12.14-9.44-20.54-9.74-29.83 0 0-5.85-17.09 3.15-19.79 0 0 4.74.75 6.42 5.25-.08-.74-.29-1.86-.89-3.09-.41-.85-1.11-2.28-2.64-3.2-2.11-1.28-4.4-.76-4.99-.6-1.01.17-3.65.74-4.75 2.84-.26.49-.47 1.14-.49 3.66-.01 1.42.03 3.4.3 5.8.3 3.54.74 7.22 1.22 11.06.73 5.88 1.71 12.48 2.68 15.33 0 0 2.1 7.94 8.99 21.44 0 0 3.75 10.04 3 30.88-.01-.03-.9 31.75 8.54 36.55" class="st82"/><path d="M211.86 266.32s-6.79-24.28 4.51-22.29c0 0 4.25 2.19 4.87 4.79 0 0-.1-2.5.53-.65 0 0 5.5 10.24 2.2 14.74 0 0-4.98 4.58-8.69 3.41s-.6.19-.6.19 1.8 3 7.8-.9c0 0 3.3-4.5 3.3-3.75s.45 11.24 3.6 14.69c0 0-8.54 4.05-8.54 5.55 3.49.01 5.29-1.04 6.29-2.04 1.09-1.09 1.37-2.25 2.25-2.31 1.28-.09 2.37 2.25 3.16 3.79 1.27 2.49 3.26 5.85 6.43 9.7l-3.6 4.2-4.95 6.15s22.34-18.14 49.32-14.24c0 0 12.89-2.25 9.29 17.54 0 0-1.2 5.25-32.08 10.94 0 0-12.14 6.15-15.74 4.95 0 0 24.86 2.4 28.03 29.08 0 0 2.4 26.98-33.08 10.79l-3.95-5.25s-3.91-12.29-3.83-24.29l.49-11.31s-1.61-15.72-5.32-22.14c0 0-8.4-15.8-9.84-21.95 0 0-2.49-8.98-1.85-9.39" class="st83"/><path d="M232.47 357.82s3.78 4.92 4.18 6.82c0 0 8.59 8.44 13.69 11.07 0 0 3.61 4.12 4.8 8.02l20.49-15.19 1.8 14.29s6.56-11.97 14.49-8.99c0 0 .92-.86-5.22-1.99 0 0-3.68-.26-6.84-3.06-.04-.04-.09-.08-.13-.12-3.19-2.92 13.79 6.82 33.28-7.65 0 0 1.27-.07 6.9-7.65 0 0 2.92-9.67 11.77-15.52 0 0 8.97-4.6 10.72-9.59 0 0-1.2-18.94.75-24.53 0 0 2-2.65-.5-6.75 0 0-5.27 1.82-7.75 29.93 0 0-16.79 13.72-20.54 19.94 0 0-15.24 20.79-36.63 12.39 0 0-3.9-17.99 2.9-26.28 0 0 5.2-16.69 25.18-12.29 0 0-10.29-4.5-7.5-19.69l1-9.79s-5.84 0-7.75-2.6c-.14-.18-.25-.38-.34-.59-1.4-3.2.09.21.09.21s-7.68-2.43-7.38-.42c0 0 5.79 3.51 5.29 11.7 0 0 3.68 5.6-4.63 8.72 0 0-37.12 10.88-40.18 12.47l-3.21.09s16.89 2 23.66 15.39c0 0 5.96 8.33 3.72 19.95 0 0-1.98 13.82-20.55 8.78l-11.87-4.25-3.95-5.25z" style="fill:#7d7e7b"/><path d="M270.14 362.85s6.62-17.48-7.69-30.51c-2.45-3.83-5.03-5.48-6.96-6.27-.07-.03-3.39-1.62-10.03-4.8-.07-.03-.2-.1-.23-.22-.33-1.65 21.07-7.11 22.58-7.47 1.59-.38 18.88-4.3 20.25-5.8 0 0-6.32 4.8-.53 2.5l-26.28 7.8-10.39 3.6s12.89 6.2 16.79 11.69c0 0 7.3 11.69 7.2 20.59-1.58 2.96-3.15 5.92-4.71 8.89"/><path d="M278.28 337.16s1.3-18.54 18.74-19.83c0 0-4.38.16-2.21 3.08 0 0-8.92 1.85-12.85 9.65l-1.33 2.91z"/><path d="M305.81 320.67s-13.34-3.57-21.59 6.25l-5.95 9.74s-2.63 5.73-1.3 17.67l.75 4.92s15.02 5.42 26.72-3.3c0 0 6.89-4.73 11.02-10.69 0 0 14.1-15.04 19.42-18.33 0 0 2.15-19.39 3.43-21.46 0 0 3.36-9.24 4.31-8.47 0 0 2.27 1.79.18 7.88 0 0 2.11-5.38-1.11-8.98 0 0-5.32.67-8.99 2.62 0 0-3.07 0-5.4 2.85 0 0-6.07 8.77-3.15 14.54 0 0 1.27 5.7 4.57 8.69 0 0 .37 2.4-3.07-.9l-4.12-3.37s.22-4.5-1.72-2.32c0 0-3.07 3.37-6.15 3.82 0 0-2.34 5.32-.68 11.09 0 0-2.09-.75-1.79-6.9l.45-3.6s.67-.9-.82-.9z" style="fill:#a7a7a2"/><path d="M285.6 284.11v-7.99s.46-2.8 2.03-4.4c0 0 9.86-14.59 17.86-13.69 0 0 17.08 5.5 20.66 7.14.34.16.56.28.63.36.8.9-13.09-.5-21.79-4.3 0 0-6.5 1.9-8.39 8.09-.01 0-10.5 10.08-11 14.79" style="fill:#dddfd9"/><path d="M286.02 283.8s-.63 2.77 3.63 3.19c0 0 .77.57 1.91 1.61 1.14 1.03-.44-.71 1.46 0s2.8 4.2 5.8 1.31c0 0 4.47-5.6 5.08-5.5.59.1 3.13-.72.43-3.31-.13-.12-.27-.25-.43-.39-3.38-2.9-4.88-5.04-3.08-9.36 0 0 1.19 10.36 12.19 8.56l-.89-5s3.7 13.99 10.59 16.89c0 0 6.9 3.1 13.09-.8 0 0 5.5-2.6 1.6-6.1 0 0-9.19 4.5-12.29-.5 0 0-3.9-6.5.2-8.19 0 0 1.8-1.9 7-1 0 0-2.1-6.8-5.1-9.39 0 0-.61 1.23-17.04-2.58l-4.74-1.71s-6.6 2.05-8.39 8.09c-.02-.01-9.22 8.83-11.02 14.18" class="st87"/><path d="M287.97 286.63s.26-6.37 11.95-14.72l.7-4.1s7.38 8.99 12.39 6.7c0 0 4.75 4.9 6.52 11.72.07.25.13.51.18.76 1.6 7.21 18.72 2.44 18.2-1.57 0 0 3.87 3.38-3.82 6.48 0 0-11.87 4.45-16.36-4.51l-5.34-12.07v4.1s-4.63 2.96-9.15-2.52c0 0-2.62-4.82-2.42-5.55 0 0-2.64 5.01 1.68 8.09 0 0 3.59 3.35 3 4.03 0 0 .09.94-1.6.94l-6.01 6.24s-2.83.05-4.45-1.84c0 0-1.63-.2-1.43.13l.19.33-2.54-2.27z" class="st83"/><path d="M325.15 278.3s7.65-2.78 8.59-1.07c.95 1.71.3 0 .3 0l2.9 5.86s-.3 2.2-8.74 1.3c0 .01-3.65-1.24-3.05-6.09" class="st87"/><path d="M243.15 289.89s-5.85-12.83-6.75-18.56c0 0-1.8-35.26 1.35-51.75 0 0 .45-10.79 11.99-6.15 0 0-9.74-.15-9.29 13.64 0 .01-3.14 46.18 2.7 62.82" class="st82"/><path d="M249.75 213.44s5.1 2.5 4.1 21.19c0 0 1 3.2-3.1 5.2 0 0-4.5.9-5.3 2.1 0 0 .29.8-4.6.6 0 0 2 1.5 7.7.8 0 0 4.23-1.17 4.8-4.2l.63 15.89s1.77 2.8-2.63 5.4c0 0-4 2.2-7.6 1.7 0 0-.9 2.1 5.99 1.5l4.58-2.7s1.12-1.7 2.92 8.59l3.9 13.89s-17.95 6-18.32 7c0 0-3.56-19.37-3.21-36.48l.85-26.83c-.01-.01-.31-13.15 9.29-13.65" class="st83"/><path d="m255.16 285.44-4.55-22.35 3.88-2.29s.52.07.9 1.12l1.78 7.18 1.47 5.38 2.5 8.9zm-5.21-42.66.41 18.11s4.22-1.27 3.85-5.29c0 0-.24-.57-.27-1.5l-.59-14.96c0-.01-.35 2.09-3.4 3.64m-15.39 53.64s-1.86-8.48-8.75-15.33c0 0 3.6-2.65 3.65-4l10.12 14.69z" class="st87"/><path d="M291.62 209.34s-7.2-5.6-11.39 10.49c0 0-16.69 36.92-16.39 53.29 0 0 2.1 9.07 1.6 10.27 0 0 14.25-1.25 17.59 2.7l-1.7-1.7s-.1-25.58.7-27.98c0 0-9.69 1.8-12.19-1.9 0 0 8.59 1.7 11.39.6 0 0 5.6-15.49 5.6-15.99s1.35-3.05-1.5-2.05c0 0-4.85 2.3-7.94-1.1 0 0-2.5-2.45.55-1.25 0 0 8.54 2.3 9.39 1.05 0 0 5.4-5.8 6.35-15.94-.01.01 1.39-7.74-2.06-10.49" class="st83"/><path d="M291.62 209.34s-5.15-6.55-10.62.35l-7.12 13.94s-8.48 16.56-10.05 23.98c0 0-3.29 3.67-1.72 17.99l2.47 13.12-.75-5.6s.87-11.97 4.75-23.12l5.05-14.25 4.6-11.36 1.54-3.56s1.12-3.44 1.5-4.45c.02 0 3.36-11.06 10.35-7.04" class="st82"/><path d="M274.87 256.75s1.72.74 1.04 4.76l-1.87 19.61s-8.64-5.29-10.16-9.79l-.03 1.79s2 9.25 1.6 10.27c0 0 11.8-1.19 17.17 2.28l-1.28-1.28.7-27.98zm6.11-18.67s1.85-.05.55 2.2c0 0-3.38 14.72-8.04 14.83 0 0 5.04.66 7.74.01l5.51-15.63s1.59-3.54-1.03-2.52c-.01-.01-2.78.86-4.73 1.11m1.63-2.5s10.27-22.96 10.39-24.45c0 0 2.2 4.77.34 11.22 0 0-1.61 9.61-6.31 13.64-.01 0-2.29.44-4.42-.41" class="st87"/><path d="M484.2 376.94s1.4 4.4 3.3 6.1c0 0 6.9 7.79 8.19 15.59 0 0 1.34.68 5.4 13.42 0 0 20.09-22.22 32.48-24.51 0-.01-25.49 4.69-49.37-10.6" class="st88"/><path d="m495.83 418.48-6.08-10.46s2.24 2.5.45-2.7c0 0-2.39-10.63-12.59-16.16 0 0 .72-.26 0-1.53 0 0-12.29-21.85-12.6-25.91l9.06 7.83s.87.51 1.32 2.15c.04.14.08.29.11.45.4 2 8.02 14.79 11.55 19.79 0 0 6.23 7.5 7.33 16.09.01-.01 3.43 6.02 1.45 10.45" style="fill:#ebb430"/><path d="M472.73 244.47s2.24 3.08 3.57 3.65c0 0-26.98 20.39-22.89 47.67 0 0 .9 14.79 3.3 20.39l-3.1 6.1s-4.4-28.08-2.2-38.08c0 0 2.5-18.79 9.89-27.08.01-.01 7.76-11.22 11.43-12.65" style="fill:#52544e"/><path d="m469.36 237.8 2.92 6.67s-14.24 13.84-15.78 20.71c0 0-6.45 16.32-5.68 28.53 0 0 1.95 25.85 2.75 28.25s.05.3.05.3 4.27 15.29 6.3 20.16c0 0-6.9-11.24-9.89-23.61 0 0-3.6-9.22-3.67-16.71 0 0-.52-16.64 1.65-20.39l.82-4.12-4.5 6.82s-1.5 1.65-.97-1.05c0 0 .67-6.3 2.92-10.34 0 0 9.59-18.14 16.41-23.98 0 0 6.22-8.39 6.67-11.24" style="fill:#a1a099"/><path d="M456.72 316.18s18.09 44.65 55.16 45.54c0 0 29.6 8.53 68.27-24 0 0-26.84 44.37-80.21 28.78 0 0-29.33-10.41-43.22-33.61l-3.1-10.61" class="st92"/><path d="m456.82 333.36 2.83 8.62s18.34 35.13 57.24 38.9c0 0 20.23 4.2 51.71-13.04 0 0 30.88-18.37 34.33-24.85l5.85-39.16s-8.39 37.78-33.28 47.67l10.49-20.09-5.84 6.3s-25.49 41.55-76.23 29.84c0 0-25.2-8.56-35.44-20.42-.01.01-10.94-11.52-11.66-13.77" style="fill:#595d5a"/><path d="M629.1 273.3s7.89-1.5 11.29-5.1l7.5 37.08s-19.39 29.18-41.07 42.77c0 0 16.29-17.49 17.19-29.48 0 0 2.8 5.2 6.4-2.9 0 0 6.9-12.09 3-28.28-.01 0-2.81-13.79-4.31-14.09" style="fill:#393c37"/><path d="m640.4 268.21 4.9-5.2s1.9 15.99 3.1 20.49c0 0 2 11.99 2.4 12.69s2.9 5.6-2.9 9.09z" style="opacity:.75;fill:#a1a099"/><path d="M650.29 234.13s3.9 10.69-1.2 23.38c0 0 4 11.49 4.1 21.29 0 0-.95 1.69 3.6 1.7h.45c5.05-.1 10.45 6.8 32.23 0l2.9-2.1-2.8-3.2z" class="st96"/><path d="M585.98 331.42s20.09-26.83 15.44-51.87c0 0-3.3-14.49-8.54-16.54 0 0 6.3-5.99 17.84 20.49 0 0 1.65-15.49-10.79-30.04 0 0-4.39-4.35 2.3-1.5l2.49.9s-4.35-4.35-5.55-11.84l5.1 7.2s7.35-18.29.6-32.23c0 0-1.65-9.74-20.99-22.94l-8.09-5.1s5.62.15 17.5 4.65l41.86 26.38s-15.14 3.15-20.54 20.54c0 0-3.15 20.84 6.15 30.58 0 0 11.99 13.19 6.6 38.97l-3.94-12.59s-1.05 21.45-10.6 32.83l-9.89 13.68 5.85-39.16s-8.54 37.93-33.28 47.67z" class="st88"/><path d="M618.06 249.19s-.67-17.24 11.32-18.89c0 0 11.69-2.47 14.77 3.82 0 0 3.3 9.22 0 19.26 0 0-3.75 10.64-12.89 12.74 0 0-9.74 1.2-11.02-4.8 0 .02-2.33-6.06-2.18-12.13" style="fill:#868781"/><path d="M639.4 240.67s.65 4.45 1 .65c0 0 .95-6.4-5.6-8.74 0 0-4.45-.3-7.8 5.85 0 0-5.05 8.64-2.5 15.14 0 0 .6-.3.8-2.05 0 0 .55-5.15 2.35-5.95 0 0 2.1-.75 2.8 3.45 0 0 .45 4.1-.35 5.75 0 0-.2 2.05-3.65 4.75 0 0-.1 2 1.55.95 0 0 4.8-2.85 5.55-7.2 0 0 1.15-6-.5-9.84 0 0-.2-1.35-2.6-2.2 0 0-3.6-1-.65-2.2 0 0 3.65-1.95 6.55-1.4 0 0 1.9.15 3.05 3.04"/><path d="M618.95 241.39s2.79-17.2 17.37-15.32c0 0 7.18.97 8.07 8.8 0 0-1.02-6.82-14.4-4.87 0 0-8.32.25-11.21 11.39z" class="st98"/><path d="M468 329.83s26.18 42.51 74.4 25.42c0 0 27.69-4.35 47.18-38.08 0 0 14.24-26.23 4.65-44.67 0 0-3.3-8.89-13.49-13.99l-16.39-4.7s16.69-1.2 19.69-6.5c0 0 14.24-13.34 7.35-35.98 0 0-5.85-25.63-37.78-23.38 0 0-11.99 1.35-19.49 8.24 0 0-14.39 9.59-27.28-3 0 0-11.99-13.79-28.33.45 0 0-10.27 10.04-6.22 33.43 0 0-3.56 12.71 1.13 18.27 0 0 4.59 5.76 8.49 4.56l-6.4 3.85s-19.84 12.89-18.69 35.23c0 .01-1.57 17.98 11.18 40.85" style="fill:#a9aaa4"/><path d="M469.51 331.12s41.07 43.02 91.44 7.35c0 0 23.24-15.44 31.78-44.97 0 0 4.59-16-6.1-31.09 0 0 15.31 11.13 9.52 36.69 0 0-3.56 23.92-28.15 43.49 0 0-37.39 28.66-74.07 10.39 0-.01-17.28-8.65-24.42-21.86" style="fill:#8e9089"/><path d="M554.88 243.06s-12.97 4.84-15.03-8.15c-.27-1.23-.55-3.03-.47-5.18.07-1.8.5-7.01 4.3-11.87 1.08-1.38 2.66-3.35 5.5-4.79 3.22-1.62 6.25-1.63 7.73-1.53 1.6.13 8.5.72 13.25 6.49 3.24 3.93 5.28 10.25 3.31 20.38l-3.75 2.35-7.5.42zm-86.1 41.44c-1.48-1.35-2.96-2.7-4.45-4.05l2.21-3.45s1.46-1.5 1.39 1.35c0 0 1.42 4.72 23.38 7.8 0 0 40.85 6.78 69.93-6.6 0 0 8.99-3.65 11.19-6.6l-7.7-5.05s-1.45-1.45.85-1.05c0 0 13.64-.15 17.94 7.55 0 0 2.65 3.05 3.2 10.34 0 0 .15 1.35-1.5-1.5 0 0-1-4.7-5.3-8.39-2.55 11.56-6.9 19.98-10.14 25.21-2.66 4.29-5.62 8.99-11.17 13.67-1.75 1.47-7.52 6.11-16.46 9.04a51.5 51.5 0 0 1-13.62 2.5c-5.27.95-12.57 1.18-21.16.22-11.63-1.3-25.36-5.42-33.78-16.71-.21-.3-.21-.51-.18-.63.05-.27.31-.51 1.97-1.17.38-.15.69-.27.91-.35-.03-.38-.3-4.41-.69-5.93-.14-.54-.34-1.27-.34-1.27-.17-.62-.31-1.1-.38-1.33-.13-.46-.25-.83-.34-1.12-.35-1.13-.61-1.91-.86-2.7-.64-1.99-.55-1.86-.8-2.56-.78-2.19-1.8-3.8-2.6-5.05-.54-.88-1.07-1.62-1.5-2.17"/><path d="M532.07 291.79s-31.28 3.8-55.76-4.4c0 0 1.7 9.19 7.3 12.29 0 0 5 3.6 16.89 4.7 0 0-6.5 3.2-17.19-1.9 0 0-1 .38-1.2 2.89 0 0-1.5 5.41.4 6.9 0 0 21.79 13.19 51.97 7.1 0 0 15.29-2.8 24.98-12.89l6.38-8.27s1.19-1.57-1.59-.6l-6.15 2.62s-1.05 5.51-4.27 1.52c0 0-7.64 5.6-28.29 3.73 0 0 21.62-.22 28.14-8.47 0 0 .72 4.02 4.62 1.47 0 0 3.75-2.65 7.05-3.65 0 0 4.8-2.35 5.65-7.2l4.5-11.64-11.99 7.89c-.01.02-19.2 7.41-31.44 7.91z" class="st98"/><path d="m562.71 284.19-2.72 13.2 5.35-2.55s4.1-2.2 5.65-7.2l4.5-11.64s-11.78 7.83-12.98 8.27" style="opacity:.5;fill:#a6a7a1"/><path d="M481.87 326.92s24.43 16.34 55.31 8.99c0 0-22.96 13.84-50.34-2.95.01 0-6.44-5.84-4.97-6.04"/><path d="M486 328.07s22.09 12.44 44.77 7.84c0 0-24.89 2.1-44.77-7.84" class="st92"/><path d="M492.49 261.71s-6.9-.05-8.74-7.94c0 0-2.8-11.14 11.49-14.29 0 0-4.05.6-6.2.25l-5.52-.25-2.8 1.6s-2.28.85-.63-.6c0 0 1.95-.7 1.6-2.3 0 0-2.15-11.09-1.25-13.99 0 0 2-9.54 11.39-12.49 0 0 7.2-2.55 11.69 2.05 0 0 4.45 2.05 5.65 9.79 0 0 .75 7.75 0 9.79 0 0-2.87 3.61-.36 5.07 0 0 2.06 1.69 5.17 0 0 0 11.39-5.43 16.23-2.51l3.64 1.95s-9.89-2.25-17.91 1.05c0 0-4.46 3.26-8.13.52 0 0-1.76-1.46-2.7-.71l-4.31 2.06s-.07.64 1.61 1.01c0 0 4.68 1.57 7.05 3.9 0 0 .75.75 2.77-.82 0 0 11.59-8.12 22.49-3.12 0 0 3.71 2.07 6.03 6.61 0 0 3.37 5.25 0 10.31 0 0-4.57 4.68-8.28 4.5 0 0 6.18-3.15 6.26-9.48 0 0-1.39-5.73-5.66-8.73 0 0-2.77-3.26-13.72-.52l-6.07 3.22s-3.97 2.81-7.94-1.35c0 0-3.67-3.45-10.23-3.34 0 0-4.95.49-6.6 4.68 0 0-2.29 3.07-.34 7.94 0-.01.92 2.43 4.32 6.14"/><path d="M487.42 252.49s2.33-9.37 13.72-4.35c0 0 5.92 5.19 13.12 1.43 0 0 14.06-7.18 23.37 1.09 0 0-2-7.02-10.02-7.36 0 0-6.71.27-8.25 1.09 0 0-7.45 5.06-9.98 4.1 0 0-1.54.46-4.44-2.56 0 0-4.86-4.2-11.98-2.46 0 .01-5.32 1.5-5.54 9.02" class="st102"/><path d="M487.42 253.02s1.13 6.41 9.75 9.39c0 0 9.44 5.09 18.89.74 0 0 7.35-1.88 11.77-1.13 0 0 5.19 1.77 9.23-3.05 0 0 2.27-3.52 1.68-5.31l-1.1-2.98s-6.28-6.12-17.07-3.27c0 0-6.31 1.66-7.43 2.7 0 0-4.41 2.11-9.5-.4 0 0-4.58-3.1-8.85-3.06-.02-.01-6.17.07-7.37 6.37" style="fill:#9b9c95"/><path d="M493.27 254.22s-2.17-1.5-.82-4.12c0 0 .6-2.92 3.75-1.05 0 0 7.65 3.22 7.65 11.02 0 0 .79 1.5-1.69.37-.01 0-8.03-4.61-8.89-6.22m29.75-4s-12.21 5.88-10.5 10.64l8.75-2.64s3.35-.7 3.65.85c0 0 4.1 2 6.55-5.2 0 0 .6-6-8.45-3.65"/><path d="M522.87 263.81s11.77 1.95 17.88-5.17c0 0 6.31-7.92-6.03-16.91 0 0-7.3-4.48-20.37 1.86l-3.47 2.08s-.6 1.29-2.6-.98c0 0-5.06-2.63-7.15-3.43l-.33-.5 4.31-2.06s.91-.5 2.17.34c0 0 2.83 2.87 7.41.57l1.25-.72s7.81-3.37 17.53-1.13l1.25.42s-4.55-3.25-8.25-3.15c0 0-6.57.64-10.57 2.55 0 0-3.56 2.29-5.92 1.39 0 0-2.89-.43-2.05-3.27l1.25-2.37 22.89-.55s-22.48 1.14-22.69-.29c0 0 2.19-13.25-5.42-18.51 0 0-6.36-7.21-17.14.32 0 0-6.97 6.18-6.56 13.08l1.44 10.79s.46 1.55-1.89 2.58c0 0-4.3 3.42-4.9-5.95 0 0-1.62-18.02 1.4-23.81 0 0-.8 3.13 3.62-1.97 0 0 7.5-6.22 17.46-4.05 0 0 8.32 3.37 9.74 2.85 0 0 17.01 10.57 32.15-.9 0 0 .52 2.08 4.12.92 0 0 6.37-2.04 7.72-3.02 0 0 10.87-2.47 20.24 2.32l9.29 6s9.59 11.77 8.54 2.02c0 0-2.17-13.57-6.07-15.74 0 0 6.45 6.5 8.81 13.93 0 0 4.32 12.73-2.96 27.13l-9.56-2.28-6.07-.15s3.07-8.54-1.61-16.45c0 0-4.5-11.39-17.69-9.97 0 0-9.89.15-13.79 13.34 0 0-2.77 7.2 1.35 14.32 0 0 4.57 7.87 2.1 18.21 0 0-.59 6.07-10.23 8.17.01.01-6.92 1.59-10.6-1.86" style="fill:#848580"/><path d="M509.18 233.33s-3.4 4.77 1.22 5.76c0 0 2.2.09 3.59-.69 0 0 7.95-3.83 11.27-3.23 0 0 2.43-1.27 7.67 1.89l-1.45-4.26z" style="fill:#c6c6be"/><path d="M503.49 190.4s-21.28-8.58-29.02 18.4l-2.33 17.44s-1.9-16.77.73-21.56c0 0 3.06-18.44 23.23-17.24 0-.01 5.63 1.65 7.39 2.96" class="st102"/><path d="M486.67 219.81s-5.7 5.1-2.85 15.81c0 0-.22 2.4 1.5 2.55 0 0 7.8-.49 8.32.92h1.35s-4.42-2.94-4.12-9.01c0 0-.37-4.92 2.55-3.85 0 0-.82 3.77 2.25 2.72 0 0 5.17-1.65 3.67-3.67l-2.47-2.32s-.22-2.4 3.82-1.5c0 0 3.97.47 4.95 4.77 0 0 2.25-2.67-2.62-7.92 0 0-4.2-5.4-11.77-1.95zm54.94 19.49s-1.67-16.81 8.34-22.11c0 0 8.94-3.8 16.34 3.3l3 5.25-1.45-.15s-5.3-5.5-10.44-3.1c0 0-.9.65.7 1.85 0 0 3.55 2.65 1 4.25 0 0-1.55 2.7-4.65.95 0 0-1.85-1.6-1.9-2.8 0 0-1.15-.24-1.3 1 0 0-1.8 8.84 2.25 12.14 0 0 .95 1.6 3.95 2 0-.01-13.09 4.74-15.84-2.58z" class="st98"/><path d="M567.84 225.58s6.1 8.79-.85 14.54c0 0 1.1 2.5 4.55-2.5 0 0 1.03-4.14-.8-8.34l-1.45-3.55z" style="fill:#f4d4b1"/><path d="M557.75 241.92s-10.64 3.36-11.09 5.85c0 0-.75 2.19 1.75.54l11.19-5.5s13.69-1.05 19.84 3c0 0 1.2.25-.5-1.3 0 0-3.9-2.9-6.65-3.45 0 0-.7-1.45 1.45-1.45 0 0 7.94.3 8.64.35 0 0-.7-1.71-3.45-1.77l-5.58-.14-1.97-.21s-2.34 4.42-4.39 2.27z"/><path d="m559.6 242.82-7.24 3.55 3.62 1.92s14.81-1.6 21.94-1.84c0 0 3.27.18 1.69-.62 0 .01-4.72-3.72-20.01-3.01" style="opacity:.6;fill:#fff"/><path d="M483.03 180.91s-3.32 2.85-1.98-1.2c0 0 4.5-59.06 58.76-66.26 0 0 30.53-4.65 50.22 4.55 0 0 16.19 4.15 21.29 26.78 0 0 3.45 27.28-2.7 41.67 0 0-37.23-13.64-41.62-11.39 0 0 3.85-16.34-6.5-33.28 0 0-22.75-25.48-52.52-3.75 0 0-16.13 15.89-14.63 38.23z" style="fill:#f9d147"/><path d="M595 120.25s12.99 7.7 16 23.21c0 0 4.21 27.1-2.38 42.99 0 0-33.98-12.99-41.62-11.39 0 0-.95 3.3 1.15 3.3 0 0 30.78 8.89 52.07 24.38l21.29 17.29 13.09 7.4s-9.19-13.09-12.79-15.49-11.19-10.39-15.69-12.99c0 0-.9-.9-.9-2.9 0 0 2.5-38.78-3.2-48.87-.01 0-4.77-20.48-27.02-26.93" class="st96"/><path d="m626.91 197.1 17.47 15.59s.67-38.38-2.03-42.57c0 0-4.96-22.71-28.18-40.17-.01 0 20.98 19.33 12.74 67.15" style="fill:#ca912b"/><path d="M615.7 131.13s26.59 19.51 28.34 51.28l.34 30.28 3.21 3.48s1.65-25.37 0-40.06c0 .01-6.21-32.7-31.89-44.98" class="st69"/><path d="M503.49 156.48s2-12.67 14.74-18.21c0 0 16.26-7.2 30.36 1.05 0 0 13.72 10.27 12.89 19.56l-19.64-5.17 6.3-.15s-27.28-1.95-31.48-.07z" style="fill:#464b4e"/><path d="M497.39 164.67s.3-4.3 6.1-4.8c0 0 25.98-6.1 50.37.5 0 0 8.29.9 8.89 4.9v11.99s-10.19-2.9-11.89-2.9c0 0-30.38-5.5-52.07.2 0 0-2.2 1.3-2.2-1.6 0 .01.05-6.26.8-8.29" style="fill:#fcca11"/><path d="m549.87 174.1.09-.44 2.09-9.87-1.09-.8s2.89-1.1 2.79 2.5c0 0-2.67 10.03-3.88 8.61" style="opacity:.65"/><path d="M551.55 163.97c0 .64-3.1 8.39-3.1 8.39s-17.09-4.7-46.57-.4c0 0 28.68-5.1 46.17-1.4.01.01 3.5-11.26 3.5-6.59" style="fill:#af742a"/><path d="M562.75 165.27s-34.73-12.09-65.53 0c0 0 .48-4.85 7.67-5.37 0 0 23.57-5.08 39.11-1.54-.01 0 19.45 2.32 18.75 6.91" style="fill:#fef37f"/><path d="M566.39 107.46s1.5-3.4 7.5-2.2c0 0 4.55.9 7.25 3.6 0 0 .65 1.4-4.1.55 0 0-11.69-1.2-10.65-1.95" style="fill:#fdfbe4"/><path d="m480.55 708.57 19.39 1.72s-.97 4.83.3 6.99l-18.25-1.14z" class="st16"/><path d="m480.73 254.67-5.23-.9s-18.12 9.32-18.69 35.23c0 0-1.37 20.39 11.96 42.12 0 0-10.12-22.49-5.22-47.74l-4.24 18.28s-3.91-24.01 9.44-35.42z" style="fill:#e8eae3"/><path d="M501.09 264.31s7.1 2.5 14.34-.5c0 0-6.4 3.44-14.34.5" style="opacity:.64"/><path d="M591.23 261.57s12.59 1.95 19.34 21.14c0 0 3.75 7.2 0-7.05 0 0-1.5-11.24-10.19-22.04l6.6 2.25-7.79-13.79 5.7 7.79s10.94-28.33-4.8-43.62c0 0-11.09-12.74-22.34-18.89l7.8 8.24s15.14 9.29 11.39 36.58c0 0-.3 14.54-16.49 22.49l-4.95 1.2c-.01.01 9.88-.74 15.73 5.7" style="fill:#575854"/><path d="M489.59 184.04s11.84-1.5 17.84 6c0 0 9.59 10.04 22.94 4.2 0 0 14.24-9.29 20.39-9.14 0 0 21.14-3.75 31.63 5.7v-3c-.01-.01-54.72-21.59-92.8-3.76" style="fill:#4d4e4b"/><path d="M489.59 184.04s45.66-8.83 85.34 2.48l7.45 4.27v-3s-52.01-21.88-92.79-3.75" style="fill:#27292e"/><path d="M459.75 224.71c.15-2.53 1-4.24 1.57-5.17.9-1.45 2.76-3.62 3.78-3.2.37.15.55.61.64 1.03 0 0 1.57 10.04-2.55 21.51 0 0-2.1 1.8-3-3.67.01-.01-1.04-7.88-.44-10.5" style="fill:#b8b7b0"/><path d="m463.55 225.58 2.19 2.14s-.86-2.89-1.1-3.49c-.23-.6-1.34-.29-1.09 1.35" style="opacity:.42"/><path d="M623.91 204.78c3.88 2.79 8.03 6.07 12.28 9.92a137.6 137.6 0 0 1 14.33 15.11l29.01 30.81s10.34 9.54 11.04 15.44l1.8 2.3s4.2-2.3 1.9-6.7c0 0-6.1-12.09-17.99-21.79 0 0-16.19-15.19-25.78-28.38-1.41-2.31-2.9-4.22-4.31-5.78-1.21-1.34-2.1-2.14-5.63-5.35-1.93-1.75-3.72-3.38-5.35-4.86-2.67-1.96-5.35-3.92-8.02-5.88-1.1 1.73-2.19 3.44-3.28 5.16" style="fill:#e3ac26"/><path d="M494.8 231.84s-2.55-5.8-1.65.7c0 0 2 5.4 6.65 6 0 0 4.05.3 5.45-4 0 0 .1-5.65-3.45-3.25 0 0-1.5.45-1.1 2.4 0-.01-1.2 4.19-5.9-1.85" style="fill:#6f5f40"/><path d="M559.86 224.09s6.05 6.4 5.65 8.49c0 0-4.05 8.54-12.54 0 0 0-.8 5.55 5.8 6.7 0 0 5.25 2.15 9.79-2.6 0 0 .65-1.7 0-2.35 0 0-7.5-15.09-8.64-10.49" style="fill:#74451e"/></svg>