<?xml version="1.0" encoding="utf-8"?>
<!-- Generator: Adobe Illustrator 24.0.2, SVG Export Plug-In . SVG Version: 6.00 Build 0)  -->
<svg version="1.1" id="Layer_1" xmlns="http://www.w3.org/2000/svg" xmlns:xlink="http://www.w3.org/1999/xlink" x="0px" y="0px"
	 viewBox="0 0 1080 1080" style="enable-background:new 0 0 1080 1080;" xml:space="preserve">
<style type="text/css">
	.st0{fill:#0F0C0A;}
	.st1{fill:#96948F;}
	.st2{fill:#565753;}
	.st3{fill:#353632;}
	.st4{fill:#3A372B;}
	.st5{fill:#3A3836;}
	.st6{fill:#F6D365;}
	.st7{fill:#656054;}
	.st8{fill:#FFD52E;}
	.st9{fill:#DAA528;}
	.st10{fill:#908E89;}
	.st11{fill:#575553;}
	.st12{fill:#3B3B3A;}
	.st13{fill:#E2C46D;}
	.st14{fill:#DAC369;}
	.st15{fill:#D69629;}
	.st16{fill:#FEE556;}
	.st17{fill:#F9CB0E;}
	.st18{fill:#F6C813;}
	.st19{fill:#FEDE4B;}
	.st20{fill:#FAD121;}
	.st21{opacity:0.38;fill:#FBD31E;}
	.st22{fill:#FCF060;}
	.st23{fill:#F9C313;}
	.st24{fill:#44190D;}
	.st25{fill:#D4A746;}
	.st26{fill:#42423D;}
	.st27{fill:#898659;}
	.st28{fill:#94928F;}
	.st29{fill:#838382;}
	.st30{fill:#B4B3B0;}
	.st31{fill:#AF9F78;}
	.st32{fill:#DFAA35;}
	.st33{fill:#51514E;}
	.st34{fill:#5E605E;}
	.st35{fill:#59595C;}
	.st36{fill:#8E8F8C;}
	.st37{fill:#868785;}
	.st38{fill:#FECE08;}
	.st39{fill:#FCCC0A;}
	.st40{fill:#DB9A28;}
	.st41{fill:#FEE12F;}
	.st42{fill:#DBA027;}
	.st43{fill:#FEE033;}
	.st44{fill:none;stroke:#FCCD0A;stroke-miterlimit:10;}
	.st45{fill:#D0992A;}
	.st46{fill:#FEEF7A;}
	.st47{fill:#DDA027;}
	.st48{fill:#F9DA5F;}
	.st49{fill:#FFCD07;}
	.st50{fill:#474748;}
	.st51{fill:#7F8084;}
	.st52{fill:#595955;}
	.st53{fill:#3D3E39;}
	.st54{fill:#373836;}
	.st55{fill:#5F615B;}
	.st56{fill:#383A36;}
	.st57{fill:#928F8B;}
	.st58{opacity:0.51;fill:#0F0C0A;}
	.st59{fill:#A3772B;}
	.st60{fill:#AFAEAB;}
	.st61{fill:#474745;}
	.st62{fill:#E5E3DF;}
	.st63{fill:#FFFFFF;}
	.st64{fill:#EDEDEB;}
	.st65{fill:#959490;}
	.st66{fill:#767572;}
	.st67{fill:#211B16;}
	.st68{fill:#080806;}
	.st69{fill:#DBD7D5;}
	.st70{fill:#31302F;}
	.st71{fill:#5D5E5B;}
	.st72{fill:#FAC90E;}
	.st73{fill:#FCF6AB;}
	.st74{fill:#FBCC10;}
	.st75{fill:#DD9B27;}
	.st76{fill:#62625E;}
	.st77{fill:#FCFBE3;}
	.st78{fill:#DEA026;}
	.st79{fill:#D79828;}
	.st80{fill:#FFF16C;}
	.st81{fill:#FEDF52;}
	.st82{fill:#C4C1B8;}
	.st83{fill:#7E5C36;}
	.st84{fill:#68482D;}
	.st85{fill:#583A26;}
	.st86{fill:#664630;}
	.st87{fill:#40261A;}
	.st88{fill:#775734;}
	.st89{fill:#5F452F;}
	.st90{fill:#9C825F;}
	.st91{fill:#513526;}
	.st92{fill:#090606;}
	.st93{opacity:0.57;fill:#9F7B4D;}
	.st94{fill:#7F7058;}
	.st95{fill:#281F15;}
	.st96{fill:#B4A37C;}
	.st97{fill:#F0ECD9;}
	.st98{fill:#8E7D5F;}
	.st99{fill:#C0A576;}
	.st100{opacity:0.63;fill:#E2D4BA;}
	.st101{fill:#726049;}
	.st102{fill:#746546;}
	.st103{opacity:0.92;fill:#DECBAC;}
	.st104{opacity:0.96;fill:#C5B694;}
	.st105{fill:#C2B191;}
	.st106{fill:#7E6C49;}
	.st107{fill:#AF9F7E;}
	.st108{opacity:0.66;fill:#050303;}
	.st109{fill:#685337;}
	.st110{opacity:0.53;fill:#43321E;}
	.st111{fill:#B29D79;}
	.st112{opacity:0.61;fill:#C6B89E;}
	.st113{fill:#D2BC8D;}
	.st114{fill:#806F54;}
	.st115{fill:#AE9B78;}
	.st116{opacity:0.55;fill:#0A0706;}
	.st117{opacity:0.72;}
	.st118{opacity:0.98;fill:#EADBC4;}
	.st119{opacity:0.32;fill:#0F0C0A;}
	.st120{fill:#030202;}
	.st121{fill:#C3B294;}
	.st122{opacity:0.35;fill:#4F3B25;}
	.st123{opacity:0.25;fill:#1A140D;}
	.st124{opacity:0.43;fill:#2A1F12;}
	.st125{opacity:0.21;fill:#22150C;}
	.st126{opacity:0.21;fill:#231910;}
	.st127{fill:#837357;}
	.st128{fill:#1D150B;}
	.st129{fill:#332312;}
	.st130{fill:#B0A07D;}
	.st131{fill:#B8A480;}
	.st132{opacity:0.56;fill:#6F5C3D;}
	.st133{fill:#817052;}
	.st134{fill:#968666;}
	.st135{opacity:0.29;fill:#5D4930;}
	.st136{fill:#8A7657;}
</style>
<g>
	<path class="st0" d="M459.3,940.41c0,0,26.79,2.61,62.82-7.32c0,0,10.06-3.35,12.86-2.46c0,0,7.73,2.94,13.14,2.43
		c0,0,18.93-0.43,26.4-3.83c0,0,11.07-2.46,12.6-9.97c0,0,2.25-10.93,0-16.27c0,0-0.66-3.5-0.5-5.31c0,0-1.75-25.11-5.82-30.52
		c0,0,4.16-2.93,5.26-4.96c0,0,4.99-4.58,4.09-16.74c0,0-0.7-7.06-3.69-11.01l-1.88-2.74c0,0-0.16-1.11,0.83-2.04
		c0,0,4.38-6.22,1.33-17.59l-1.87-7.51c0,0-0.68-2.25,1.23-3.31c0,0,3.52-2.5,3.48-6.15c0,0-0.85-2.59,0.25-3.05
		c0,0,8.87-4.84,17.78-10.78l25.12-15.53c0,0,6.45-6.45,11.2-2.38c0,0,12.64,9.33,23.25,26.56c0,0,14.68,21.72,19.6,31.48
		c0,0,11.24,22.06,32.75,32.63l14.89,8.15c0,0,1.65-0.51,5.6,10.06c0,0,2.55,7.76,14.19,10.56c0,0,5.37,0.3,4.6,4.45
		c0,0-0.55-0.04-1.06-1.95c0,0,0.81,7.55-1.48,9.42c0,0-16.76,6.28-20.2,29.19c0,0-2.93,19.47,3.18,24.69
		c0,0,23.55,15.21,76.43,7.38c0,0,20.43-2.55,28.32-12.98c0,0,6.02-7.81,6.79-16.12l1.7-20.37c0,0,8.74-4.16,10.27-21.72
		c0,0,2.46-10.78-1.61-18.75c0,0-0.59-2.89-8.66-11.88c0,0-5.6-10.35-8.23-12.73l-7.04-8.4c0,0-1.27-11.63-3.31-15.27
		c0,0-6.13-14.32-18.8-18.07c0,0-4.9-0.7-6.36-6.17c0,0-3.5-11.26-6.3-12.09l-2.99-2.16c0,0-0.51-0.19-0.19-2.48
		c0,0,0.06-14.26-0.38-16.36c0,0-1.53-13.75,0.83-18.58c0,0,3.95-19.92,3.12-27.62c0,0-0.76-12.86-2.35-16.67c0,0-1.46-2.67-0.64-7
		l1.08-12.79c0,0,0.19-1.97,1.72-2.23c1.53-0.25,7.06-7.7,7.64-13.11c0,0,3.25-12.86,2.93-14.77c0,0,0.64-4.96,3.05-6.81
		c0,0,10.06-11.84,14.32-14.38l14.45-14.64l0.38-0.51c0,0,6.43,0.76,9.23-1.91c0,0,23.68-31.82,33.99-49
		c0,0,21.38-36.85,22.15-72.55c0,0,1.34-28.26-12.98-56.13l-8.02-11.46c0,0-5.73-12.79-19.47-27.68c0,0-14.51-16.61-18.71-19.86
		c0,0,0.38-6.3-0.95-8.97L843,341.79c0,0,25.2,8.78,33.22-2.29c0,0,8.59-7.45-4.58-22.72l-28.83-38.19c0,0,9.16-32.84,1.72-54.41
		c0,0-7.26-28.64-40.29-45.44c0,0-9.1-3.25-10.18-7c0,0-2.48-9.93-15.21-9.48c0,0-5.69,0.34-7.38,4.33c0,0-24.01-5.6-47.27,4.67
		c0,0-17.4,6.7-27.75,25.63c0,0-5.26,7.21-10.1,25.8c0,0-1.02,6.79-3.99,9.33c0,0-5.77,8.74-7.64,14.77c0,0-8.49,2.55-11.46,10.35
		c0,0-1.61,2.29-1.7,20.03c0,0,0.17,7.3-9.33,0.93c0,0-40.39-18.16-46.33-19.94s-6.98-0.74-12.58-4.5c0,0-4.2-1.59-5.35-2.99
		c0,0-1.27-1.85-2.35-0.83c0,0-4.65-1.08-7.45-3.05c0,0-69.94-19.77-77.24-18.41c0,0-19.69-6.28-57.62-6.02
		c0,0-36.91-22.66-62.62-3.69c0,0-9.67,3.95-25.2,38.31c0,0-11.96,22.15-23.17,60.08l-7.04,29.02c0,0-1.36,0.85-2.21-0.08
		c0,0-35.17-7.3-49.3-15.95c0,0-6.87-2.04-11.46-1.91c0,0-22.53-1.27-43.91-10.56c0,0-3.82,0.51-1.02,2.55
		c0,0-37.68-10.69-54.35-1.15c0,0-36.15,16.93-30.8,65.04c0,0,0.64,19.09,18.97,35.39c0,0,0.89,1.4-1.4,13.62l-9.93,47.99
		c0,0-14.26,50.66-17.31,61.86c0,0-8.15,23.42,0,35.64l6.24,3.56l-3.69,44.42c0,0-1.27,1.53,3.56,3.69c0,0,9.67,5.6,13.36,6.11
		l4.33,1.4c0,0,5.47,2.29,10.18-0.38l7.26-0.64c0,0,3.44-1.02,4.45-3.44l1.15-3.95c0,0,1.91,0.51,2.55-4.33c0,0,1.78-0.25,2.42-4.46
		c0,0,2.04-0.64,2.04-4.2c0,0,0.89,0.76,2.04-2.04c0,0,4.84-9.93,5.6-11.96c0,0,1.02,0.25,1.4,5.09c0,0,0.76,11.33,9.08,17.18
		c0,0,7.04-9.84,9.16-16.89c0,0,73.66,32.67,90.33,34.71l0.64,19.22c0,0,1.78,1.44,2.21,2.76c0,0,7.93,4.24,11.33,4.45
		c0,0,7.93,3.27,18.2,1.48l4.84-0.68c0,0,1.36-2.58,1.8-2.83l2.61-9.86l3.69,0.27c0,0-0.3,1.06,2.55,1.65l42.32,14.4
		c0,0,1.91-0.76,0.38,10.31l-0.38,36.47c0,0,1.85,0.72,2.67,2.4c0,0,21.64,9.06,24.95,7.72c0,0,16.48-0.64,17.63-4.65
		c0,0,3.18-7.81,4.5-10.56l9.89-22.15c0,0,0.16-5.57,4.65-5.54l54.24,0.78c0,0,1.78-0.34,1.87,0.89c0,0,1.15,7.26,7.13,11.46
		c0,0,0.71,0.6-0.65,1.63c0,0-12.25,11.01-29.18,36.09c0,0-14.13,18.97-13.49,37.17c0,0-1.78,16.42,9.55,45.31
		c0,0,1.91,1.91-4.07,8.02c0,0-4.84,14.89,1.4,23.68l4.71,7.64c0,0,1.27-2.42-17.06,10.18c0,0-29.28,0.51-38.31,9.29
		c0,0-6.87,5.47-6.87,7.64c0,0-1.4,0-2.04,2.67c0,0-2.55,6.87-2.67,12.98c0,0-3.18,1.91-3.82,7.38c0,0-2.16,12.98,1.15,17.44
		c0,0,2.16,4.45,19.22,8.66C429.58,936.15,452.23,940.98,459.3,940.41z"/>
	<path class="st1" d="M421.11,904.39c0,0-1.65-0.06-0.7-4.96c0,0,1.53-16.4,22.23-20.05c0,0,19.26-5.01,30.72,4.24l11.2,6.36
		c0,0-23.42-12.13-46.16-2.89c0,0-9.67,4.33-11.03,18.33L421.11,904.39z"/>
	<path class="st2" d="M427.37,905.43c0,0,50.24,9.84,65.17-3.82c0,0-0.42-5.35-7.98-11.63c0,0-27.24-12.84-48.5-1.42
		C436.07,888.57,428.64,892.96,427.37,905.43z"/>
	<path class="st3" d="M492.54,901.61c0,0,3.1,3.64,2.59,7.25c0,0,2.42-0.21,2.42-9.62c0,0,10.31,2.55,25.97-12.73
		c0,0,1.15-2.74-2.29-6.87c0,0-3.82-9.16-11.54-10.95c0,0,21.72,12.22,64.75,0.89c0,0,5.22,12.35,5.35,28.51l-8.91,3.27
		c0,0-22.78,6.15-32.84,6.41c0,0-20.37,3.56-30.68,7.13c0,0-44.49,5.98-73.51-4.14c0,0-7.32-3.12-6.47-4.9v-0.42
		C427.37,905.43,476.46,915.31,492.54,901.61z"/>
	<path class="st4" d="M420.58,904.04c0,0-3,5.15,12.63,6.43c0,0-6.22-2.38-5.84-5.04C427.37,905.43,420.82,904.5,420.58,904.04z"/>
	<path class="st5" d="M472.22,880.59c0,0,29.01,8.63,23.58,27.83c0,0,1.94-2.75,1.75-9.18c0,0,10.76,2.67,25.97-12.73
		c0,0,1.08-2.55-2.29-6.87c0,0-4.52-9.41-11.27-10.88c0,0,13.3,7.06,8.72,13.49c0,0-7.7,7.13-11.26,3.69c0,0-4.84-8.46-16.29-11.77
		c0,0,14.26,9.93,14.64,13.56c0,0-5.57,6.85-9.99,5.47C495.76,893.19,482.53,879.25,472.22,880.59z"/>
	<path class="st6" d="M473.04,869.9c0,0-8.91,1.53-3.05,4.26c0,0,6.56,0.45,14.19,5.47c0,0,6.94,3.37,10.69,9.8
		c0,0,5.43,2.64,6.11-2.16c0,0,1.25-1.46-3.04-5.54C497.95,881.73,487.55,871.3,473.04,869.9z"/>
	<path class="st6" d="M482.59,866.11c0,0-2-0.35-0.25-1.91c0,0,2.45-2.13,4.45-1.11c0,0,21.16,7.54,27.3,12.35
		c0,0,3.54,1.5,0.78,5.63c0,0-2.95,3.63-5.84-0.25c0,0-9.32-7.96-14.7-10.02C494.33,870.79,483.29,866.01,482.59,866.11z"/>
	<path class="st7" d="M569.38,870.82c0,0,6.34,19.57,3.63,29.75l6.77-2.48c0,0-0.32-16.93-5.35-28.51L569.38,870.82z"/>
	<path class="st8" d="M415.96,911.71c0,0-0.51-4.7,4.96-1.24c0,0,28.66,16,82.62,9.51c0,0,19.34-2.8,23.03-5.09l53.21-10.85
		c0,0,3.05-0.73,1.87,7.5c0,0-0.17,10.35-7.89,11.2c0,0-12.9,3.31-30.46,3.82c0,0-6.28-5.35-15.27-1.78c0,0-26.67,11.37-68.06,8.51
		c0,0-31.52-1.85-42.85-8.97c-0.16-0.04-0.39-0.12-0.62-0.3c-0.33-0.27-0.54-0.7-0.66-2.21c-0.04-0.54-0.07-1.28-0.04-2.16
		C415.84,917,415.9,914.35,415.96,911.71z"/>
	<path class="st9" d="M741.81,928c0,0-2.55,13.87,3.69,16.8c0,0,15.91,9.8,65.17,4.84c0,0,25.08-1.27,30.93-16.04
		c0,0,4.96-13.87,5.35-31.82l0.76-11.46c0,0,2.67,13.75,5.22,4.96c0,0,4.15-4.52,3.95-20.37c0,0,0.32-5.54-3.05-9.55
		c0,0-4.65-7.89-4.52-5.66c0,0-0.06,11.46-5.73,28.38l-4.73,23.61c0,0-2.63,15.78-10.78,20.11c0,0-8.91,5.52-40.22,4.33
		C787.84,936.15,758.1,935.96,741.81,928z"/>
	<path class="st10" d="M744.65,922.23c0,0,3.14-30.89,43.96-23.42c1.22,0.3,11.89,2.96,14.03,6.12c0.13,0.19,0.25,0.42,0.18,0.62
		c-0.43,1.29-7.44-0.58-16.04-1.43c-14.44-1.42-21.08,1.28-23.21,2.24c-1.58,0.71-2.83,1.44-3.65,1.95
		c-1.25,1.02-2.66,2.32-3.9,4.04c-2.04,2.81-4.24,7.2-4.92,13.52C751.1,925.88,745.75,924.1,744.65,922.23z"/>
	<path class="st11" d="M751.1,925.88c0,0,43.45,9.08,66.36-2.29c0,0,9.25-5.77-2.46-14.51c0,0-11.51-8.39-15.3-6.4
		c0,0,4.92,2.67,2.44,3.27l-16.66-1.94c0,0-15.84-2.1-24.85,3.89C760.62,907.89,752.63,912.49,751.1,925.88z"/>
	<path class="st12" d="M835.7,841.53c0,0-0.72-1.95-1.15,0.81c0,0-0.04,16-22.27,33.39c0,0,9.93,4.75,5.69,13.83
		c0,0,2.38,6.45-2.63,9.76l-19.26-4.84l18.41,7.38l-26.48-7.81c0,0,10.81,7.84,12.07,8.46c0,0,4.91-0.45,11.78,4.78
		c0,0,10.88,3.8,8.28,13.4c0,0,0.08,4.27-16.49,7.19c0,0-24.77,3.53-44.3-0.59l-8.25-1.41c0,0-6.75-1.91-6.45-3.65
		c0,0-0.53,3.48-0.01,4.58c0,0,21.14,9.42,61.02,5.18c0,0,23.76,0.68,28.09-12.9l9.25-49.51c0,0,4.45-8.21,2.48-12.86
		C845.48,856.72,836.16,842.19,835.7,841.53z"/>
	<path class="st7" d="M842.72,871.07c0,0-3.88-15.92-5.41-17.24c0,0-3.2-5.73-3.04-9.1c0,0,0.23-5.22,1.2-3.65l9.5,14.84
		c0,0,2.02,2.06,0.07,8.77C845.04,864.7,842.74,869.51,842.72,871.07z"/>
	<path class="st13" d="M785.21,890.96c0,0,12.28,0.06,22.72,5.22c0,0,7,4.2,7.38-1.65c0,0,0.7-3.82-4.2-4.07
		c0,0-14.77-6.17-32.27-3.88c0,0-11.84,1.27-12.92,4.2c0,0-2.93,2.8,0.7,1.97C766.63,892.74,777.7,889.82,785.21,890.96z"/>
	<path class="st14" d="M796.5,881.63c0,0,6.62-4.84,14.13-3.56c0,0,6.39,0.59,4.72,6.36c0,0,0.11,1.78-3.62,0.42
		C811.73,884.85,797.01,881.88,796.5,881.63z"/>
	<path class="st15" d="M483.48,847.62c-0.5-0.52-1.03-1.16-1.55-1.93c-0.3-0.44-0.55-0.87-0.76-1.27c-0.38-0.45-1.1-1.25-1.36-1.1
		c-0.31,0.18,0.23,1.65,0.42,2.13c0.27,1.18,0.78,2.71,1.79,4.28c2.09,3.23,5.16,4.77,9.74,7c1.37,0.67,3.12,1.45,5.22,2.23
		c3.96,1.2,8.13,2.36,12.51,3.34c8.04,1.8,19.66,3.85,33.95,4.87c0,0,24.8,0.76,35.24-7.64c0,0,7.09-4.96,4.19-15.85
		c0,0-1.27-8.31-4.77-6.75c0,0-27.16,17.25-37.86,9.86c0,0,16.34,0.93,34.35-13.83c0,0,8.59-7.64,6.55-12.9l-5.09-16.46
		c0,0-2.29,3.22-17.06,5.01c0,0,9.16,19.35,4.24,24.78c0,0-0.25,0.85-0.17-3.9c0,0-1.19-6.02-2.97-11.37l-3.05-8.91
		c0,0-4.92-0.68,0.42-3.39c0,0,13.67-1.87,26.1-11.63c0,0,2.07-1.87-1.66-1.53l-19.69-0.04l-4.16,12.35l1.53-11.54
		c0,0-9.25,1.36-11.2-1.87c0,0-8.91-2.46-9.42-5.26c0,0,17.27,6.79,20.64,5.58c0,0,3.5-3.44,8.85-3.25c0,0,14.81,2.42,40.09-17.01
		l23.84-14.26c0,0-11.54-6.11-16.21-4.67c0,0-4.84,2.04-13.32-1.61l-25.2-7.72c0,0,11.46,0.42,24.86,5.35c0,0,8.32,3.14,16.29,2.38
		c0,0-1.61-2.04-3.82-3.22c0,0-8.06-4.58-9.25-5.6c0,0-6.7-5.52-7.55-5.69c0,0,0.42-1.7,10.78,3.9c0,0,9.76,6.36,14.43,6.11
		c0,0,16.21,8.57,19.77,8.99c0,0,15.06,4.6,30.31,30.75c0.11,0.19,0.11,0.19,0.11,0.19l10.57,15.92c0,0,11.77,21.38,18.33,29.02
		c0,0,7.51,13.05,37.93,24.5c0,0,20.62,3.75,23.48,4.01c0,0-18.58,1.85-22.27,0c0,0,2.67,19.03,30.36,19.09
		c0,0,23.04,0.06,37.68-11.01c0,0,15.36-10.65,18.75-25.33c0,0,5.3-17.31-6.28-30.29c0,0-5.35-5.73-13.75-6.49
		c0,0,7.13,12.22,0.64,19.22c0,0-0.64-12.09-1.85-14.89l-4.9-16.42c0,0-1.46-5.73-5.28-8.08c0,0-1.02,25.84-4.39,31.5
		c0,0,2.1-16.93,1.02-19.41c0,0-0.83-1.97-1.53,1.34l-5.98,13.62c0,0,1.02-6.24,4.71-15.02c0,0,1.15-1.65,1.66-5.6l0.05-22.97
		c0,0-0.06-11.58-1.02-14.45c0,0-0.89-7.38,0.45-10.12c0,0,2.74-8.4,3.56-17.63c0,0,0.89-19.03-0.13-22.85c0,0-0.38-8.97-2.48-7.57
		c0,0,0.11,2.97-39.27,7.98c0,0-1.61,17.23,16.63,27.15c0,0,4.5,3.05,9.84,3.99c0,0-12.73,1.61-23.42-12.47
		c0,0-5.69-8.74-5.18-17.99l-14.17,1.27c0,0-0.17,1.95,0.25,2.89c0,0-7.21,2.21-6.19,0.34c0,0,0.93-1.02,3.05-1.61l1.02-9.5
		c0,0,1.95-11.2-1.87-8.49l-9.84,2.21c0,0-1.19-0.42-0.93,3.14c0,0,0.21,10.52-1.57,11.63c0,0-0.08,5.73-3.69,4.03
		c0,0,3.31-4.54,0.81-4.41c0,0-37.17-0.59-60.59-5.05l-16.04,4.33c0,0-2.93,8.85,0.64,9.74c0,0,19.92,2.1,26.03,1.78l13.87,0.32
		c0,0-4.14,3.75-29.15,2.04c0,0-12.22-1.59-12.79-2.42c0,0,0,6.81,0.89,10.44l37.74-1.34c0,0,30.36-2.74,45.12-6.81
		c0,0,12.79-3.5,16.42-5.86c0,0,2.93-2.1,3.44,0.19c0,0,5.35,18.31,20.37,27.3c0,0-4.07,20.17,1.53,42.99c0,0,4.71,18.36-4.96,34.02
		c0,0-11.2,17.57-43.28,7.51c0,0-14.64-2.67-24.31-22.02c0,0-14.64-28-22.91-34.88l24.31,12.35c0,0-21.64-28.26-29.53-33.86
		c0,0,20.24-2.55,27.88-6.49c0,0-50.15-9.55-50.66-10.95c0,0-1.15-1.15-1.18-1.56c0,0,2.64,15.85,7.51,22.97c0,0,1.3,3.4-2.58,0.25
		c0,0-1.81-0.8-2.58-4.96l-3.53-12.25c0,0-0.28-1.15-2.02-0.85c0,0-19.54-3.19-20-8.49c0-0.03,0-0.06-0.01-0.08
		c0,0,1.68,2.76,18.94,6.36c0,0,2.98,0.92,2.31-0.83c0,0-1.75-10.21-1.15-14.29c0,0,0.19-0.92-2.1-1.08l-9.39-2.55
		c0,0-2.42-0.99-4.49,1.81l-5.28,4.49c0,0-1.42,1.88,0.91,9.18c0,0,5.94,12.69,10.73,19.01c0,0-10.14-6.7-13.24-19.3
		c0,0-2.42-4.58-1.53-7.64c0,0-22.02,17.57-45.95,7c0,0,0.25-1.72-10.88-2.04c0,0-10.25,0.32-14.32-3.95c0,0-5.79-3.75-7.26-7.19
		c0,0-1.46-1.27-6.68-1.02c0,0-8.27-1.85-12.98-7.26l-19.35,36.91c0,0,7.74-16.87,24.63-10.59c0,0,18.58,6.96,24.18,12.73
		c0,0,10.61,7.55,12.13,8.66c1.53,1.1-1.53-1.1-1.53-1.1s15.02,7.89,11.8,10.44c0,0-8.91,9.84-17.4,13.32c0,0-20.8,8.49-5.9,14.43
		l3.78,1.06c0,0,1.7,2.93,8.4,2.59l-26.39,11.12c0,0,18.92,7.13,17.48,18.5c0,0,0.93,9.08-6.96,12.47c0,0,13.92,5.52,16.72,6.11
		c0,0-4.18,4.2-17.23,3.95c0,0-1.53,0.98,5.86,2.42c0,0,7.72,0.13,17.73-4.16c0,0-0.17,10.2-7.93,11.29c0,0-15.53,7.26-53.08-0.25
		c-2.02-0.18-4.38-0.58-6.95-1.37C490.06,852.6,485.99,849.75,483.48,847.62z"/>
	<path class="st0" d="M563.65,844.67c0,0,2.04,1.15,1.02,10.44c0,0,1.53,1.32,1.99-1.49c0,0,0.72-6.41-1.19-9.33
		C565.47,844.29,564.16,843.53,563.65,844.67z"/>
	<path class="st16" d="M515.68,705.82c0,0-12.92,16.1-18.9,23.61l-15.91,25.46c0,0-7.89,13.24-4.33,31.44c0,0,0.64,11.58,7.13,30.17
		l3.18,11.01c0,0-0.19,3.44,1.08,6.68c0,0-4.07-1.59-3.5-5.66c0,0-6.66,2.82-4.62,14.79c0,0-0.07-0.92,1.03,0.73
		c0,0,0.93-12.35,3.13-10.99c0,0,6.36,6.45,4.75,0.08c0,0,0.76-6.7-1.95-13.49c0,0-5.94-18.75-5.69-33.86c0,0-1.9-20.72,7.98-34.37
		l12.56-18.76L515.68,705.82z"/>
	<path class="st17" d="M496.34,742.74c0,0,6.26-14.03,20.24-11.76c0,0,14.89,4.91,23.6,10.17c0,0,3.46,2.12,5.21,3.9l11.21,7.99
		c0,0,4.8,2.29,6.68,3.94l3.41,2.77c0,0,2.57,2.17,0.55,3.46c0,0-7.81,7.99-11.34,9.81c0,0-4.56,2.74-5.91,3.24
		c-1.35,0.5-5,2.54-5,2.54s-4.94,3.16-5.65,5.06c-0.71,1.9-0.35,2.51-0.35,2.51s0.74,3.45,8.07,5.03s0.98,0.28,0.98,0.28
		s0.77,2.12,6.63,2.6c0,0,1.55,0.01,1.58,0c0.03-0.01-5.64,2.44-5.64,2.44l-20.56,8.66c0,0,17.51,7.17,17.55,17.74
		c0,0,0.7,6.05-2,8.98c-2.7,2.93-2.67,3.23-5.02,4.25l16.72,6.11c0,0-3.22,4.2-17.23,3.95c0,0,0.54,1.83,5.86,2.36
		c0.18,0.02,0.37,0.04,0.57,0.05c5.85,0.45,15.03-2.97,17.16-4.15c0,0,0.42,7.6-5.92,10.75l-4.45,1.39c0,0-13.91,4.67-40.78,0.62
		l-10.32-1.77c0,0-8.67-1.06-13.43-4.34c0,0-6.37-3.51-7.92-7.28c0,0,0.67-8.43,2.03-10.51c0.06-0.09,0.12-0.18,0.19-0.24
		c0,0,0.35-0.92,1.41,0.23c1.06,1.15,1.32,1.14,1.32,1.14s2.22,2.12,3.1,0.83c0,0,0.13-0.66-0.14-2.59c0,0,0.11-5.74-0.43-7.77
		c0,0-0.71-3.25-1.66-5.89c-0.02-0.05-0.03-0.09-0.05-0.14c-0.98-2.66-2.15-8.03-2.15-8.03l-1.39-6.39l-1.49-9.6l-0.5-8.29l-0.14-5
		c0,0,0.22-8.39,0.51-8.75c0,0,1.45-8.49,1.63-8.55s1.82-6.61,2.51-7.05c0.68-0.44,1.52-3.84,3.94-6.73
		c2.42-2.89,5.31-7.93,5.31-7.93l4.44-6.63l1.92-2.69L496.34,742.74z"/>
	<path class="st15" d="M482.65,771.63c0,0-2.86,12.22,3.63,18.2c0,0,3.37,5.92,12.92,4.39c0,0,2.74-2.23-7-9.83
		c0,0-7.76-8.18-8.46-12.06C483.74,772.33,483.03,769.38,482.65,771.63z"/>
	<path class="st18" d="M641.22,728.51l0.03-0.6c0,0,34-0.74,45.61-2.14c0,0,41.73-4.68,52.6-11.26c0,0,3.93-3.08,4.5-0.41
		c0,0,4.84,18.65,20.37,27.3c0,0-3.4,16.21-0.09,34.96c0,0,4.71,18.38,2.27,26.04c0,0-1.32,19.79-17.45,24.45
		c0,0-14.11,6.41-36.72-2.86c0,0-13.05-6.47-18.04-18.18c0,0-12.46-22.94-17.13-28.85l-6.78-7.94l24.31,12.35
		c0,0-18.8-24.78-29.53-33.86c0,0,22.27-3.31,27.88-6.49c0,0-46.81-9.03-49.92-10.56c0,0-0.63-0.2-0.72-0.35
		c-0.09-0.16-0.02-0.03-0.02-0.03S641.25,728.75,641.22,728.51z"/>
	<path class="st19" d="M787.02,698.73c0,0,2.77,11.17,2.2,19.19c0,0,0.06,18.07-3.75,26.86c0,0-2.16,4.71-0.57,11.46
		c0,0,1.46,15.47,1.59,22.91c0,0,0.32,25.08-1.15,29.66c0,0,1.62,0.43,3.96-7.17c0,0,3.17-6.39,3.18-12.18l-0.14-27.18
		c0,0-1.95-12.46-0.85-16.11l2-7.16c0,0,1.95-10.12,2.04-12.27l0.35-13.11c0,0,0.11-7.19-0.37-8.88s-0.12-0.57-0.12-0.57
		s-0.53-8.51-2.18-7.71c-1.64,0.8-0.31,0.13-0.31,0.13S792.66,698.03,787.02,698.73z"/>
	<path class="st20" d="M786.66,811.53l5.12-11.66c0,0,1.37-4.47,1.95-1.62c0,0,0.58,9.42-0.28,10.87
		C793.45,809.13,788.56,815.41,786.66,811.53z"/>
	<path class="st21" d="M796.98,785.76c0,0,4.6,2.47,8.02,17.2c0.02,0.08,0.04,0.16,0.06,0.24c3.43,14.94,3.89,9.48,3.44,21.06
		c0,0-0.7,2.93-2.04-0.7c0,0-4.62-10.73-7.96-13.68c0,0-2.55,6.68-5.92,7.38c0,0,4.17-11.9,3.9-23.16L796.98,785.76z"/>
	<path class="st22" d="M810.48,810.71c0,0,8.78-0.38,10.75,10.31c0,0,7.76,5.03,1.72,26.35c0,0-2.72,11.17-5.66,14.01
		c0,0,17.43-15.56,10.97-37.9c0,0-3.5-15.89-19.88-17.54L810.48,810.71z"/>
	<path class="st23" d="M764.25,865.21c0,0,37.93-0.99,44.13-31.55c0,0,2.8,0.15,2.12,6.01C810.5,839.66,805.58,872.5,764.25,865.21z
		"/>
	<path class="st24" d="M749.57,861.75c0,0,17.66,8.57,42.5-4.91c0,0,7.65-5.01,10.45-9.62c0,0-1.84-2.29-7.32,4.84
		C795.2,852.05,785.72,864.49,749.57,861.75z"/>
	<path class="st0" d="M712.34,829.29c0,0,23.23,16.99,47.54-1.27c0,0-2.23,5.66-7.32,7.7c0,0-6.36,3.69-21.89,3.5
		C730.67,839.22,713.22,835.07,712.34,829.29z"/>
	<path class="st0" d="M491.35,832.03c0,0,18.07,14.93,45.06,10.18c0,0-27.66-2.63-43.87-10.18
		C492.54,832.03,491.18,831.54,491.35,832.03z"/>
	<path class="st25" d="M626.17,711.17c0,0,12.22,2.35,12.54,3.56c0,0,0.45-9.36,0.95-9.74c0,0-3.5-2.8-7.19,1.08L626.17,711.17z"/>
	<path class="st26" d="M673.84,698.25c0,0,38.95-2.16,45.7-4.71v8.78C719.53,702.32,672.05,700.8,673.84,698.25z"/>
	<path class="st26" d="M739.01,689.72l-0.32,11.2c0,0,31.95-1.85,48.88-7.83l0.7-11.52c-8.31,2.44-15.16,3.5-19.92,4.01
		c-7.13,0.77-13.71,0.76-24.31,2.93c-2.27,0.47-4.13,0.91-5.35,1.21"/>
	<path class="st27" d="M787.57,693.1c0,0,6.27-1.4,6.21-2.64l0.64-11.26l-6.14,2.39L787.57,693.1z"/>
	<path class="st28" d="M512.18,687.69c0,0,19.6,1.78,26.48-0.64c0,0-12.6,6.75,0.89,11.71c0,0,26.73,0.76,31.18,0.89
		c0,0-14.89,3.31-23.55,6.17c0,0-9.67,3.5-21.89-0.95C525.29,704.87,516.26,698.76,512.18,687.69z"/>
	<path class="st29" d="M565.96,704.02c0,0-19.35,8.8-24.76,7.66c0,0,3.63,8.02,23.04,7.38l21.77-5.6c0,0,3.37-1.08,0,1.72
		l-10.95,4.9c0,0-2.93,2.23,1.21,2.67c0,0,12.03,3.12,28-4.01c0,0,20.17-12.79,22.85-16.29c0,0,10.25-8.02,14.43-10.26
		c0.12-0.06,0.23-0.12,0.33-0.17c3.95-1.97,2.16-2.93-1.65-1.59c0,0-7.32,3.95-8.4,1.46c0,0-1.85,0.45-4.39-10.88
		c0,0-2.29-18.01-3.63-14.26l-1.46,2.67c0,0,1.27,10.44-0.83,14.19c0,0-7.51,12.6-32.33,22.21c0,0-1.05-1.18-4.58,0.29
		C584.61,706.11,571.16,712.8,565.96,704.02z"/>
	<path class="st30" d="M538.66,687.05c0,0,26.86-15.27,32.08-30.93c0,0,3.69-5.98-15.15-11.07c0,0-20.24-3.82-13.49-21.89
		c0,0,6.11-3.05,14.26,6.49c0,0,5.86,6.11,21.26,2.29c0,0,12.73-4.58,31.82,6.62c0,0,2.67,1.02,5.73,0.25l6.75,2.67
		c0,0,1.4,0.13,0,3.56c0,0-4.97,18.28,0.51,24.92c0,0,2.41,11.1-2.98,16.4c0,0-8.34,10.61-30.24,19.46c0,0-1.46-1.21-4.58,0.29
		c0,0-13.68,6.8-18.65-2.09l5.35-3.22c0,0,1.21-1.27-1.4-0.64l-4.18,0.65l5.39-1.16l-30.87-0.87c0,0-10.48-2.18-5.69-8.45
		L538.66,687.05z"/>
	<path class="st31" d="M543.11,622.69c0,0,2.55-6.22,8.91-2.53c0,0,7.96,10.12,27.81,6.75c0,0,11.52-1.85,16.04,1.21l14.32,5.03
		l4.96,5.66c0,0-3.87,1.75-12.47-3.71c0,0-12.77-5.91-22.36-3.78c0,0-12.73,4.46-21.7-0.14c0,0-1.86-1.07-2.41-1.69
		C556.22,629.49,551.01,622.35,543.11,622.69z"/>
	<path class="st32" d="M761.66,679.19c0,0-4.14,2.26,0.89,1.18c0,0,23.87-2.93,30.48-6.56c0,0,5.41-1.97,8.08-7
		c0,0,2.99-9.8,4.52-12.16l-15.66,14c0,0-9.1,5.6-7.76,0c0,0,1.4-6.62-2.16-1.91C780.06,666.75,773.63,673.56,761.66,679.19z"/>
	<path class="st33" d="M681.77,692.52c13.1-3.44,26.19-6.87,39.29-10.31c0,0,36.66-10.69,57.91-30.17l12.6-6.87l5.73-5.73
		c0,0,2.29,3.44-2.29,9.8c0,0-4.36,6.87-4.03,9.93c0,0-4.12,3.95-1.96-2.29l3.05-9.55c0,0-25.46,25.46-42.64,29.53
		c-7.26,2.58-15.07,5.05-23.42,7.28C710.01,688.42,695.1,691.01,681.77,692.52z"/>
	<path class="st34" d="M792.93,657.99c0,0,17.48-26.31,20.37-37.51c0,0,22.32-16.8,28.85-27.15c0,0,1.36,6.96,0,10.1l-25.46,25.97
		c0,0-1.02-1.27,2.12-5.86c0,0,9.16-8.49,8.83-8.49S815,621.58,815,621.58s-1.95,1.95-3.05,7.47
		C811.94,629.05,805.32,650.86,792.93,657.99z"/>
	<path class="st12" d="M637.94,671.14c0,0-5.1,10.25-4.2,17.95c0,0,9.42,1.78,13.49-3.95c0,0,2.86,3.18-6.01,14.26
		c0,0,5.76-0.12,11.87-2.99c0,0,7.13-3.76,24.06-3.31c0,0,3.61,0.28,4.62-0.57l38.78-10.18c0,0,24.08-7.62,34.53-14.12
		c0,0,15.87-8.54,23.89-16.18l12.6-6.87l5.73-5.73c0,0,2.23,3.56-2.29,9.8c0,0-4.49,6.62-4.03,9.93l1.95-1.19l9.71-15.59
		c0,0,10.36-17.27,10.65-21.92c0,0,22.4-16.89,28.85-27.15c-2.14-5.17-5.45-12.12-10.52-19.69c-11.44-17.06-24.55-26.41-33.75-32.84
		c-11.92-8.33-22.02-15.21-36.98-16.89c-4.81-0.54-8.85-0.4-11.65-0.17c0,0-3.42,1.4,3.37,3.05c0,0,57.36,17.48,63.98,48.62
		c0,0-5.43-2.93-2.76,6.11c0,0-3.69,12.47-3.05,3.31c0,0-1.78-15.66-2.16-7.38c0,0-0.76,32.25-20.49,48.2
		c0,0,11.63-27.71,4.79-19.69c0,0-1.23,9.29-13.45,21.51c0,0,6.24-27.24,2.67-20.24c0,0-4.71,19.22-23.93,35
		c0,0-20.37,12.09-15.53,8.78c0,0,13.49-9.93,16.04-17.18l6.49-7c0,0-21.38,22.53-39.97,27.81c0,0-50.15,19.16-63.52,16.61
		c0,0,49.64-11.58,60.33-19.6c0,0-16.55,5.22-17.31,5.6c-0.76,0.38,15.4-9.04,15.4-9.04s-34.76,23.54-76.06,18.01
		C644.11,666.23,639.72,666.92,637.94,671.14z"/>
	<path class="st35" d="M613.89,632.11c0,0,10.1,5.09,16.89,4.58c0,0-5.18,8.15-5.09,25.97c0,0-0.08-4.41,5.09-6.53
		c0,0-0.13,24.35,2.86,30.12c0,0,2.34-21.09,11.49-19.88c0,0,31.5,4.5,64.35-12.16l-4.25,2.89l16.56-5.21c0,0-24.46,12-60.03,19.38
		c0,0,9.96,2.89,50.55-11.92c0,0,22.05-8.06,26.4-10.86c0,0,17.83-11.7,22.72-17.52l-6.38,8.78l-12.92,11.71
		c0,0,15.8-7.82,19.69-12.01c0,0,16.21-16.17,20.37-32.2c0,0,2.82-5.36-0.29,8.99l-2.39,11.25c0,0,9.21-7.26,13.45-21.51
		c0,0,3.55-4.17,1.81,1.45l-6.61,18.24c0,0,11.65-10.9,16.33-25.6c0,0,4.3-16.2,4.27-24.07c0,0-0.18-3.25,1,1.4
		c0,0,1.08,7.88,1.09,10.51c0,0,0.51,1.23,1.76-2.57l1.26-3.8c0,0-2.67-8.4,2.76-6.11c0,0-2.25-13.98-20.51-27.18
		c0,0-17.1-12.05-32.67-17.54l-15.45-5.68c0,0-16.48,26.6-15.91,30.99c0,0,25.97,11.84,26.92,16.04c0,0,4.77,2.86-10.31,1.15
		c0,0-24.82-6.17-54.61,6.05c0,0-28,15.02-45.95,33.35C648.13,612.59,624.96,634.69,613.89,632.11z"/>
	<path class="st36" d="M614.38,632.35c0,0-1.17-1.18-0.81-2.56c0.32-1.23,1.86-2.61,6.55-3.45c0,0,3.82,4.07,40.99-31.57
		c0,0,28.38-29.15,65.68-30.55c0,0,16.39-0.9,30.54,5.72c0,0,3.33,3.19,1.9,3.46c0,0-32.1-3.38-40.61-0.81
		c0,0-19.44,1.24-39.17,15.39l-23.9,17.64c0,0-21.4,20.92-30.14,23.79C625.42,629.42,619.84,632.76,614.38,632.35z"/>
	<path class="st37" d="M749.25,523.74c0,0-4.96-3.82-27.68,35.7c0,0,17.84-1.03,26.8,4.73l-16.3-8.17c0,0,1.88-7.56,4.62-11.43
		C736.69,544.58,746.77,525.59,749.25,523.74z"/>
	<path class="st38" d="M741.84,518.91c0,0,42.35-11.86,91.04,45.27c0,0,16.99,18.5,16.48,36.19c0,0-0.06,6.17,2.16,2.48
		c0,0,11.24-12.24,9.89-18.1c0,0-5.69-45.48-64.49-71.96c0,0-36.98-16.17-49-5.09C747.92,507.71,741.23,517.29,741.84,518.91z"/>
	<path class="st39" d="M862.6,586.54l9.42-14.3c0,0,15.91-24.06,20.49-36.02c0,0,13.87-32.71,10.69-60.46
		c0,0-1.82-35.26-20.06-47.99c0,0-13.28-18.33-52.87-11.46l-8.53,3.31c0,0,29.15-19.86,60.97,2.55c0,0,3.05,1.78-1.65-4.96
		c0,0-23.8-32.33-34.37-39.08c0,0-17.95,25.46-63.26,54.73c0,0-34.62,21.38-52.57,27.62c0,0-14.64-29.02-17.57-26.73l-16.67,26.22
		c0,0-6.36,15.27-10.06,34.49c0,0-0.78,2.35-3.67,1.46c0,0-16.76-2.99-17.71-7.19c0,0-0.51-2.8,0.64-6.92c0,0,2.38-19.69,11.8-35.13
		c0,0,6.53-6.07,5.3-8.57c0,0-6.75-18.84-10.99-26.31c0,0-1.95-9.42-4.75-11.29c0,0-6.79-10.69-6.62-5.18l-8.83,32.42
		c0,0-0.25,2.46,2.04-0.68c0,0,12.13-12.3,16.46-8.32c0,0,6.36,8.49,9.84,21.47c0,0-0.68,0.34-3.73-6.36c0,0-8.4-14-9.67-10.86
		c0,0-23,16.38-23.17,21.64c0,0,14.43,10.69,17.06,23.93c0,0,6.89,12.77-0.4,38.9c-0.04,0.13-0.07,0.26-0.11,0.39
		c-7.47,26.39-29.19,29.87-29.19,29.87l-11.37,46.76c0,0-6.62,30.51-8.52,36.5c-0.05,0.15-0.09,0.29-0.14,0.41
		c-1.7,4.84,3.99,0.08,9.16-2.42c5.18-2.5,13.15-8.69,35.72-29.91c0,0,22.4-22.33,44.8-27.15l14.72-2.89
		c0,0,10.32-25.71,18.46-32.92c0,0,0.68-14.26,5.94-18.24c0,0,10.18-14.09,16.29-18.33c0,0,4.75-4.33,6.7-11.46
		c1.95-7.13,0.17-0.85,0.08-0.42s4.41-18.16,13.66-28.6l-2.89,7.81l9.33-11.63c0,0-10.95,8.23-14.17,30.8
		c0,0,12.22-25.88,25.97-30.29c0,0-8.99,5.35-21.21,25.63c-0.54,1.01-1.35,2.62-2.21,4.67c-1.47,3.5-1.64,4.91-2.72,7.09
		c-0.75,1.53-2.07,3.7-4.5,5.98c-1.7,1.41-3.47,3.13-5.35,5.07c-2.82,2.92-5.94,6.59-7.13,9.63c0,0,16.63-8.09,53.29,10.41
		c0,0,19.86,9.7,28.09,20.11c4.64,3.77,7.87,7.37,9.98,10.02c1.83,2.3,3.13,4.25,5.64,8.03c2.76,4.17,4.94,7.7,6.45,10.2
		C856.41,564.81,857.95,567.55,862.6,586.54z"/>
	<path class="st40" d="M839.48,540.75c0,0,38.88-35.03,33.11-93.57c0,0-6.3-29.91-26.92-31.25l-9.1-0.53c0,0,28.64-5.21,45.6,11.25
		c0,0,13.97,24.48,14.22,44.84c0.17,3.41,0.27,8.05,0.03,13.56c-0.24,5.45-0.73,15.39-3.92,27.79c-1.55,6.02-4.06,13.86-8.26,22.61
		c-2.19,4.32-4.54,8.72-7.05,13.21c-4.3,7.69-10.14,17.55-16.33,26.24c-1.99-4.69-4.51-9.85-7.72-15.26
		C848.62,552.02,843.84,545.75,839.48,540.75z"/>
	<path class="st41" d="M862.6,586.54l10.56-16.04c0,0,25.68-31.29,30.15-77.78c0,0,3.43-38.39-15.01-60.32l-5.8-5.15
		c0,0,5.94,11.87,7.7,16.75c0,0,8.73,21.97,6.16,41.7c0,0-1.94,34.23-12.5,50.53c0,0-19.01,36.12-23,38.68
		C860.86,574.9,862.98,584.29,862.6,586.54z"/>
	<path class="st42" d="M839.94,544.45l-10.51,15.79c0,0,20.2,19.94,19.94,40.73c0,0,0.25,5.87,3.17,0.72c0,0,10.3-10.65,8.87-16.94
		C861.41,584.76,857.39,561.3,839.94,544.45z"/>
	<path class="st43" d="M859.17,576.28l-9.8,21.2c0,0-0.44,9.06,2.07,5.8c0,0,11.76-13.7,9.98-18.53c0,0-1.82-7.96-2.29-8.6"/>
	<path class="st44" d="M872.23,416.18c0,0,9.48,5.3,9.98,5.64s3.5,1.87-0.2-3.2c0,0-21.96-31.75-35.32-40.49l-3.62,4.57
		C843.07,382.7,865.99,405.44,872.23,416.18z"/>
	<path class="st45" d="M845.68,411.73c0,0,15.18-1.66,26.55,4.45c0,0-12.21-17.8-29.16-33.48c0,0-30.27,32.74-50.68,44.19
		c0,0-37.3,25.15-61.52,33.59c0,0-14.98-29.74-17.57-26.73c0,0-7.7,8.78-16.67,26.22c0,0,15.85-12.73,18.97-13.17
		c0,0,1.27-0.95,2.67,2.8l10.69,19.41c0,0,1.15,2.8,3.5,0.7c0,0,32.39-17.5,35.36-20.39c0,0,17.82-13.24,23.51-16.55
		c0,0,11.37-7.45,14-10.47c0,0,11.37-8.2,12.64-8.2c0,0,14.34-11.12,16.55-14.93C834.51,399.17,847.25,406.47,845.68,411.73z"/>
	<path class="st44" d="M751.52,503.83c0,0,8.01-2.21,15.5-1.58c0,0,8.6-11.51,9.95-22.03c0,0,7.72-26.35,22.11-34.88
		c0,0-7.88,0.28-18.96,15.86c0,0-10.19,14.57-11.14,20.87c0,0-0.81,4.91-6.77,8.62C762.21,490.69,753.67,498.8,751.52,503.83z"/>
	<path class="st45" d="M610.74,621.68l5.99-24.7l8.66-36.74l5.47-22.5c0,0,20.42-4.75,27.52-24.9c0,0,11.5-30.11-1.44-53.31
		c0,0-7.67-11.06-13.44-14.88c0,0-4.07-0.68,23.17-21.64c0,0,0.36-1.03,1.86,0.21c0,0,9.17,10.19,11.68,18.67
		c0,0-1.48,2.16-4.92-3.56c0,0-5.35-7.55-7.04-4.96c0,0-10.39,8.7-9.12,13.15c0,0,5.73,16.12,6.36,19.26c0,0,1.18,6.13,2.54,4.91
		c0,0-4.5,17.35-2.34,19.01c0,0,6.67,5.02,5.65,8.08c0,0-2.38,15.95-3.9,19.47c0,0-4.92,11.67-7.55,15.66c0,0,3.39,1.15,4.07,1.53
		c0,0,20.11,10.35,41.92,8.32c0,0,12.81-2.72,21.64-17.74c0,0,3.16-15.97,8.63-21.77c0,0,11.52-12.47,14.64-19.03
		c0,0,18.99-34.22,23.91-35.49l-7.24,15.3l-4.53,12.93c0,0-2.61,9.73-8.91,14.13c0,0-13.17,13.23-15.12,17.47
		c0,0-5.18,6.45-4.58,17.39c0,0-7.98,6.53-19.05,33.52c0,0-27.18,0.35-51.77,22.72c0,0-26.76,24.55-33.47,30.66
		C630.01,612.84,607.51,628.23,610.74,621.68z"/>
	<path class="st39" d="M643.42,575.93l6.11-24.44c0,0,6.24-4.2,8.78-3.56l28.89,12.31c0,0,2.04,1.05-3.82,3.09
		c0,0-33.6,17.95-41.11,25.2C642.27,588.53,640.98,585.66,643.42,575.93z"/>
	<path class="st0" d="M653.26,537.32c0,0,34.54,13.07,38.02,15.36c0,0-13.92-9.25-27.58-14.09c0,0-3.56-2.38-6.96-2.21l-4.07-0.01
		L653.26,537.32z"/>
	<path class="st39" d="M666.52,486c0,0-0.95,3.15,0.29,3.37c0,0,16.13,4.55,17.12,5.16c0,0,4.93-19.28,6.01-21.26
		c0,0,8.85-21.77,9.74-22.91c0,0,6.68-12.22,12.47-16.48c0,0-12.73,1.59-20.11,9.67c0,0,4.45-8.27,4.58-9.67l-7.96,7.51
		c0,0-7.64,3.95-12.92,17.69C675.75,459.08,668.43,479.38,666.52,486z"/>
	<path class="st44" d="M670.98,472.54c0,0-1.02,13.12-2.12,17.42c0,0-2.72-0.41-2.7-1.35l0.35-2.61L670.98,472.54z"/>
	<path class="st0" d="M673.92,475.88c0,0-2.93,4.71,3.56,8.19c0,0,7.34,1.23,6.83-6.36c0,0-0.08-7.04-7.04-5.39
		C677.27,472.32,674.57,473.51,673.92,475.88z"/>
	<path class="st39" d="M674.92,476.88c0,0-0.4,4.96,4.5,5.39c0,0,3.01,0.08,3.08-4.54c0,0-0.7-4.91-4.54-3.65
		C677.95,474.08,676.19,473.89,674.92,476.88z"/>
	<path class="st0" d="M682.21,453.13c0,0-2,6.17,2.8,8.37c0,0,5.35,1.65,7.32-3.15c0,0,2.55-5.98-3.75-8.81
		C688.57,449.54,684.05,448.58,682.21,453.13z"/>
	<path class="st39" d="M683.47,454.78c0,0-1.08,4.92,3.54,5.07c0,0,4.54-0.23,3.61-5.07c0,0-0.7-3.16-4.99-2.78
		C685.63,452,683.72,452.78,683.47,454.78z"/>
	<path class="st46" d="M696.62,433.88c0,0,5.86-6.96,21.47-10.61c0,0,45.14-12.39,59.74-21.72c0,0-8.15,5.86-0.85,4.33
		c0,0-41.83,18.67-55.58,22.91c0,0,12.13,17.9,13.66,24.95l-1.87,0.76c0,0-9.76-21.04-16.12-24.69c0,0-5.05-3.57-18.99,8.95
		c0,0-4.37,2.48-5.97,4.66C692.11,443.41,696.45,435.11,696.62,433.88z"/>
	<path class="st47" d="M777.83,401.55c0,0,45.19-22.53,60.33-44.17c0.75,2.07,1.46,4.6,1.87,7.52c0.86,6.18-0.04,11.38-0.93,14.76
		c-3.45,4.1-7.37,8.39-11.83,12.74c-6.85,6.68-13.59,12.18-19.78,16.66l-31.06,19.98c0,0,14.01-8.58,28.64-31.06
		c0,0,4.39-5.41-2.61-2.99c0,0-21.77,7.81-26.03,11.13C776.43,406.12,769.75,406.77,777.83,401.55z"/>
	<path class="st48" d="M840.03,350.51c0,0,0.38-1.4,0.89,0.55l4.37,17.18c0,0,0.33,0.75,0.36,1.72c0.06,1.69-1.39,3.09-1.38,3.1
		c0.01,0.01,0.34-0.45,0.31-0.47c-0.04-0.03-0.85,1.01-2.16,2.7c-0.82,1.05-1.96,2.53-3.33,4.36c0.35-1.44,0.64-3.03,0.89-4.76
		c0.39-2.7,0.66-6.05,0.21-8.64c0,0-0.76-6.5-2.03-8.87C838.16,357.38,840.2,352.63,840.03,350.51z"/>
	<path class="st49" d="M721.4,428.79c0,0,47.52-17.9,55.58-22.91c0,0,20.38-10.06,25.13-10.76c0,0,7.71-3.16,2.96,2.86
		c0,0-7.13,15.02-28.64,31.06l30.68-19.74c0,0-13.47,11.47-32.42,22.86c0,0-32.88,19.6-39.63,21.57
		C735.06,453.74,730.08,440.69,721.4,428.79z"/>
	<path class="st44" d="M661.62,393.88c0,0-4.33,12.38,7.19,19.76c0,0,6.27,5.53,7.72,7.99l-4.7-10.28c0,0-1.21-7.15-4.34-10.57
		c0,0-0.73-0.74-1.35-1.8C666.13,398.97,663.41,394.87,661.62,393.88z"/>
	<path class="st50" d="M687.97,436.6l-12.39-28.84c0,0,21.38,11.96,47.77,9.83C723.35,417.59,702.05,416.15,687.97,436.6z"/>
	<path class="st51" d="M673.45,272.57c0,0,0.76,3.22-7.13,10.86c0,0-26.98,19.6-18.58,68.48c0,0,2.8,12.98,7.19,21.57
		c0,0-21.34-66.06,20.64-92.03C675.58,281.46,674.85,271,673.45,272.57z"/>
	<path class="st52" d="M675.58,281.46c0,0-1.1,3.84,4.67,4.94c0,0-16.29,1.36-22.74,19.52c0,0-10.35,23.08-0.51,49.13
		c0,0,10.18,30.55,44.63,37c0,0,27.07,4.92,56.85-12.39c0,0,16.76-10.95,25.94-34.37c0,0,4.35-15.66-1.38-27.37
		c0,0-4.79-10.56-16.25-15.66c0,0,12.64-2.21,18.75-14.43c0,0,8.49-17.14,1.36-31.06l-4.67-7.47c0,0,19.18,8.99,18.24,33.09
		c0,0-2.04,13.24-10.35,22.74c0,0,10.1,18.24,3.73,42.3c0,0-2.42,9.04,2.93-0.38c0,0,3.82-29.66,10.31-21.13
		c0,0,4.45,0.76,4.58,15.78c0,0-0.76,16.55-9.93,27.11c0,0,8.4-15.91,4.58-23.29c0,0-4.24,22.88-21.91,37.15
		c0,0,7.28-6.73,5.88-12.33c0,0,0-2.04-2.42,0.25c0,0-27.62,19.98-39.97,20.87c0,0-24.06,15.27-57.79,5.6c0,0-18.07-9.04-25.2-16.55
		c0,0-12.36-11.36-14.39-28.21c0,0-5.03-26.83,5.7-49.2C656.23,303.14,659.62,291.45,675.58,281.46z"/>
	<path class="st53" d="M651.27,357.38l3.4,15.57c0,0,11.91,27.58,43.35,35.6c0,0,27.24,7.38,65.04-11.2c0,0,16.58-8.39,21.36-14.65
		c0,0,9.57-11.82,4.61-12.97c0,0-19.28,14.6-32.45,19.34c0,0-4.04,1.81-8.14,2.37c0,0-38.27,20.9-71.33-1.68
		C677.11,389.76,656.96,378.51,651.27,357.38z"/>
	<path class="st54" d="M778.85,394.29c0,0,17.44-14.25,24.95-25.46c0,0,8.4-6.24,10.06-12.86c0,0,6.49-20.08-2.16-31.17
		c0,0,9.8,3.55,19.86-3.32l1.91,32.08c0,0-1.4,3.05-4.96,5.98C828.49,359.55,803.29,380.93,778.85,394.29z"/>
	<path class="st55" d="M828.51,323.27l-0.7,36.85c0,0,5.01-4.31,5.65-6.55l-1.91-32.08L828.51,323.27z"/>
	<path class="st56" d="M765.61,239.01c0,0,3.31-3.69,10.56,0c0,0,25.71,13.87,34.11,23.42c0,0,17.95,14.89,21.64,22.02
		c0,0-9.04-10.95-20.24-1.27c0,0-10.31,8.78-8.15,28.13c0,0,1.17,7.85,5.74,16.78c0,0-4.77-6.71-6.91-1.9c0,0-3.02,4.47-4.44,14.04
		l-1.22,7.02c0,0-4.46,7.41-3.24,2.05c0,0,3.08-9.25,2.4-21.68c0,0-0.55-12.14-5.73-22.45c0,0,10.23-12.3,10.38-25.2
		c0,0-0.01-11.21-6.11-19.69c0,0-4.86-7.29-12.16-10.94C782.24,249.32,770.45,238.46,765.61,239.01z"/>
	<path class="st57" d="M813.13,287.59c0,0,9.93-10.69,16.72-1.1c0,0,4.5,3.56,2.89,17.74c0,0-1.87,11.96-13.32,15.7
		c0,0-11.29,2.72-12.64-6.11c0,0-1.7-9.76,2.8-21.64L813.13,287.59z"/>
	<path class="st0" d="M828.17,297.18c0,0-3.63-9.61-10.18-1.97c0,0,3.5,0.19,3.69,8.78c0,0-0.83,9.39-7.76,10.12
		c0,0,7.19-4.65,4.33-13.81c0,0-0.76-3.75-1.4-1.91c0,0-4.26,8.97-3.44,2.55c0,0,0.51-7.64,8.34-10.69
		C821.74,290.24,828.68,288.52,828.17,297.18z"/>
	<path class="st58" d="M821.52,301.6c0,0,1.87,8.53,0.28,13.59c0,0-1.1,0.92-1.06-1.21c0,0,0.09-4.87,0-5.82
		C820.75,308.15,822.19,304.18,821.52,301.6z"/>
	<path class="st59" d="M836.89,314.93c0,0-0.19,19.22,3.75,20.81c0,0,12.79,6.62,29.98,2.48l-3.18-5.73c0,0-20.43-28.96-25.27-34.49
		l-8.72-13.49c0,0-0.64,3.5,5.16,11.65C838.61,296.16,836.32,310.41,836.89,314.93z"/>
	<path class="st60" d="M681.57,286.39c0,0-6.23,0.32-5.99-4.93c0,0-0.64-9.78,0.55-14.23c0,0,3.35-25.2,10.99-32.08
		c0,0,11.2-10.69,20.28-2.04c0,0,4.2,2.46,7.64,8.83c0,0,6.07,7.59,19.01,3.35c0,0,14.13-8.32,28.7-5.13c0,0,10.36,1.34,17.82,10.25
		c0,0,7.06,5.86,6.36,22.4c0,0-0.76,11.33-6.36,18.39c0,0-9.55,11.9-17.95,10.82c0,0,16.54,7.28,19.67,22.8
		c0,0,2.29,9.97-3.44,25.21c0,0-16.93,33.96-51.93,39.18c0,0-38.95,7.89-59.19-21.64c0,0-11.2-14.26-11.96-32.46
		c0,0-0.89-22.02,8.78-35.89c0,0,3.18-7.26,16.55-11.58C681.09,287.63,682.6,286.43,681.57,286.39z"/>
	<path class="st61" d="M779.87,317.98c0,0,3.89,71.47-89.44,67.69c0,0,25.88,13.26,57.6-3.76c0,0,22.74-10.04,32.45-36.76
		C780.47,345.15,786.05,329.49,779.87,317.98z"/>
	<path class="st62" d="M681.09,287.63c0,0-38.44,20.49-13.36,79.94c0,0-20.04-23.98-8.4-57.62
		C659.33,309.94,662.57,293.61,681.09,287.63z"/>
	<path class="st0" d="M673.71,356.62c0,0,11.07,20.87,45.44,14.38c0,0,2.42-1.72-5.03-1.15c0,0-24.06,1.97-39.52-13.56
		C674.6,356.3,673.78,355.47,673.71,356.62z"/>
	<path class="st0" d="M665.22,313.47c0,0-1.36-1.19,1.19-2.89c0,0,3.14,4.99,9.16,6.32c0,0,17.23,10.06,57.96,9.55
		c0,0,18.77-0.83,26.16-4.96c0,0,1.38-0.95-1.89-3.33c0,0-4.65-4.18-1.91-4.01c0,0,6.22,1.2,12.36,6.45c0,0,4.96,3.31,4.49,11.9
		c0,0-0.8,1.81-1.69-3.34c0,0-2.39-7.26-4.71-5.89c0,0-0.54,6.36-5.95,13.21c0,0-9.74,16.52-27.81,20.91c0,0-25.48,7.42-49.2-5.86
		c0,0-11.71-6.49-14.13-13.75c0,0-0.25-2.67,1.27-1.91c0,0,3.37,1.85,2.42-1.21c0,0-1.61-12.34-3.99-16.68
		C668.96,317.98,667.94,315.91,665.22,313.47z"/>
	<path class="st63" d="M676.51,328.93c0.02-0.19-1.02-7.13-3.56-10.18c0,0-0.38-1.34,1.46,0.76c0,0,11.14,9.42,43.85,11.46
		c0,0,33.29,1.27,40.86-5.54l2.74-1.27c0,0-4.96,5.41-5.28,7.45c0,0-2.55,7.26-13.3,8.59c0,0-6.15,0.89-6.67,1.72l-14.46,0.64
		c0,0-2.29,1.46,4.58,1.85c0,0,13.22-0.08,15.93-0.85c0,0,7.98-3.01,5.86-0.38c0,0-11.54,11.58-28.21,12.05
		c0,0-21.64,1.85-37.87-9.48c0,0-6.43-3.46-6.3-5.79c0,0,1.4-5.26,1.1-6.79l5.94,2.46l-4.41-0.98c0,0,0.68,0.76,9.67,3.65
		c0,0,0.55-2.25-1.23-2.5C687.2,335.79,676.3,331.42,676.51,328.93z"/>
	<path class="st0" d="M689.49,297.3c0,0-10.42-9.86,0.93-14.07c0,0,7.47-4.9,11.8,0c0,0,3.56,1.4,4.84,3.37c0,0,1.34,1.15,5.6,0
		c0,0,10.44-3.31,16.1,1.02c0,0,10.69,6.87,2.8,14.77c0,0-2.93,3.18-7.19,2.42c0,0,7.83-0.57,8.08-7.96c0,0-0.38-8.46-10.18-10.06
		c0,0-5.28-0.57-10.76,1.65c0,0-3.05,1.85-8.21-2.48c0,0-3.31-6.05-12.22-2.48c0,0-1.5,1.11-1.27,2.55c0,0-2.51,2.13-2.45,4.96
		C687.36,291,691.82,300.68,689.49,297.3z"/>
	<path class="st64" d="M689.81,286.04c0,0,7.89-2.42,11.71,3.05c0,0,5.98,5.73,13.36,1.72c0,0,6.24-4.84,12.54,2.55
		c0,0,2.8,3.88-1.59,6.68c0,0,3.25,2.29,6.62-3.18c0,0-0.64-9.04-10.18-10.06c0,0-6.26-0.49-10.76,1.65c0,0-2.85,1.66-7.61-2
		c0,0-2.8-4.49-9.03-3.99c0,0-4.01,0.12-4.63,1.94C690.24,284.41,689.58,285.38,689.81,286.04z"/>
	<path class="st65" d="M690.1,297.58c0,0,1.94,3.92,14.73,4.37c0,0,2.74-0.45,7.26,1.78c0,0,8.21,3.05,12.28,1.08l-0.57-0.02
		c0,0,8.34-0.21,8.66-7.81c0,0-2.93,5.09-6.62,3.05c0,0,5.92-3.75-0.32-8.57c0,0-4.47-4.4-10.38-0.83c0,0-7.56,4.76-14.29-2.39
		c0,0-3.59-4.27-11.03-2.21c0,0-2.55,2.23-2.45,4.96C687.36,291,689.82,296.4,690.1,297.58z"/>
	<path class="st0" d="M691.23,286.61c0,0,3.69,2.46,4.88,6.75c0,0-0.17,0.89,2.97,2.12l1.4,0.3c0,0-2.63-6.41-5.39-8.57
		C695.09,287.21,693.27,285.34,691.23,286.61z"/>
	<path class="st0" d="M710.54,297.47c0,0,6.92-5.86,10.1-1.7c0,0,1.53,0.72,1.87,3.05c0,0,0.64,1.7,3.01-2.76
		c0,0-1.82-6.08-12.3-1.79C713.21,294.28,710.96,295.69,710.54,297.47z"/>
	<path class="st66" d="M704.55,284.41c0,0,15.56-2.23,18.55,1.07c0,0,10.07,1.77,11.37,10.93c0,0-0.55,9.42-10.1,8.4
		c0,0,0.72,6.11,10.1-1.02c0,0,5.88-5.98-0.29-12.82c0,0-1.97-3.41-7.83-6.46c0,0-1.85-4.9-16.02-2.91l-8.96,0.82l0.85,0.81
		L704.55,284.41z"/>
	<path d="M686.06,278.89c0,0-6.66-5.98-2.5-15.19c0,0,3.65-11.54,14.47-12.47c0,0,8.19,0.38,9.76,11.8c0,0,0.93,5.41-1.32,9.39
		l-2.21,4.32c0,0-4.29,5.86-9.42,5.3c0,0-2.8,0.21,1.02-1.7c0,0,0.51-0.89-2.29-1.82c0,0-3.27-2.29-3.01-4.62l0.55-5.18
		c0,0,1.44-4.75,2.42-3.05c0,0,2.16,4.62,4.03,3.61c0,0,2.29-0.54,0.24-6.06c-0.02-0.06-0.04-0.12-0.07-0.18c0,0-2.04-2.8,2.59-1.44
		c0,0,3.39,0.25,4.75,8.61l0.13,2.22c0,0,0.72,0.29,0.76-1.49c0,0-0.21-10.61-3.14-13.7c0,0-2.63-5.77-9.25-2.93
		c0,0-4.54,2.04-8.23,10.06C685.33,264.34,682.07,271.21,686.06,278.89z"/>
	<path class="st67" d="M708.76,237.37c0,0-10.38-11.55-21.4,0.92c0,0-1.51,3.86-1.85,5.73c0,0,7.55-7.47,16.59-3.05
		c0,0,8.57,6.15,9.16,5.09c0,0-1.53-2.59,0-3.18C711.26,242.87,712.62,242.64,708.76,237.37z"/>
	<path class="st68" d="M743.59,245.46c0,0,5.77-4.96,17.57-2.93c0,0,9.76,2.84,12.52,11.63c0,0,3.52,9.08,0.85,5.05
		c0,0-9.84-12.01-22.87-10.18c0,0-8.19,0.68-9.08,1.23L743.59,245.46z"/>
	<path class="st63" d="M693.89,281.64c0,0-8.55,1.6-9.57-7.88c0,0-2.63-8.19,6.34-17.29c0,0,5.36-5.98,10.71-1.2
		c0,0,3.88,2.31,4.38,12.31c0,0,0.81,5.38-0.57,4.57c0,0-0.58-9.8-4.86-10.57c0,0-3.4-1.23-3.02,0.51c0,0,2.43,4.66,0.71,6.89
		c0,0-1.49,1.41-3.16-1.13c0,0-1.8-3.83-2.13-2.42c0,0-2.14,2.49-2.02,9.61c0,0,1.51,2.89,2.87,3.47c0,0,2.4,0.97,2.29,1.82
		C695.86,280.33,693.91,281.43,693.89,281.64z"/>
	<path class="st69" d="M710.2,235.4l-2.23,1.2c0,0-9.37-8.78-17.56-1.2l-3.05,2.89c0,0-7.45,17.31-8.3,39.63
		c0,0-3.56-7.85-2.48-13.61c0,0,3.27-24.77,12.61-30.83c0,0,8.42-7.94,17.6-0.92L710.2,235.4z"/>
	<path class="st0" d="M738.2,276.39c0,0,4.58-17.31,19.35-11.63c0,0,7.64,2.97,8.49,14.43c0,0-0.59,12.13-5.86,12.73
		c0,0-3.14,0.89-4.07-0.44c0,0,10.29-7.53,2.94-17.89c0,0-4.64-4.58-5.4-1.53c0,0-1.02,1.27,0.51,4.84c0,0,0.08,4.41-3.31,1.02
		c0,0-2.72-4.67-3.48-2.63c0,0-5.01,9.1,0.85,14.82c0,0,2.69,4.39,14.21,2.11c0,0,5.54-1.74,5.41-14.29c0,0-1.27-16.38-15.53-18.1
		c0,0-12.33,0.11-16.06,15.21c0,0-1.48,6.28,0.74,12.6C736.99,287.63,738.03,280.54,738.2,276.39z"/>
	<path class="st63" d="M764.91,295.14c0,0-22.46,3.46-27.62-9.66l0.91-9.09c0,0,4.41-16.45,18.6-11.9c0,0,7.07,2.15,9.06,13.09
		c0,0,0.47,8.7-3.48,13.23c0,0-2.63,2.46-6.28,0.66c0,0,7.32-4.81,5.25-13.07c0,0-1.38-6.86-6.9-7.35c0,0-2.32,1.32-0.67,4.87
		c0,0,1.27,4.44-1.98,2.81c0,0-3.43-5.14-4.3-3.73c0,0-3.44,5.4-1.47,11.79c0,0,1.48,4.49,5.39,5.37
		C751.43,292.16,764.5,294.47,764.91,295.14z"/>
	<path class="st70" d="M692.46,228.78c0,0,13.32-3.14,20.2,7.04c0,0,4.08,7.64,8.7,8.06c0,0,5.77,1.95,14.41-1.02
		c0,0,9.14-6.19,23.9-4.5l5.94,0.64c0,0,1.65-3,7.91-1.1c0,0-20.64-10.06-46.52-12.44C727,225.47,703.58,221.82,692.46,228.78z"/>
	<path class="st71" d="M700.26,228.52c0,0-1.09-1.77,3.32-1.18c0,0,63.28,7.67,64.99,10.03c0,0-2.79,1.17-2.96,1.64
		c0,0-15.61-2.93-24.31,1.27c0,0-9.2,5.18-16.95,4.14c0,0-6.69,0.45-10.43-6.56C713.92,237.87,710.14,229.4,700.26,228.52z"/>
	<path class="st72" d="M701.97,218.64c0,0,6.87-32.29,33.01-34.24c0,0,30.8-4.07,35.13,27.58c0,0,1.23,6.72-2.33,18.18
		c0,0,13.62,1.25,36.36,15.25c0,0,8.57-10.27,8.32-39.03c0,0-2.29-16.72-11.71-23.59c0,0-33.18-18.41-74.08-3.73
		c0,0-22.83,6.74-32.84,45.46l7-1.89c0,0,1.32-0.25,1.02-1.91C701.84,220.72,701.67,218.98,701.97,218.64z"/>
	<path class="st73" d="M693.82,224.52c0,0-4.24,1.47-3.14-1.84c2.25-8.92,5.59-15.69,8.22-20.17c3.49-5.97,10.45-17.53,24.45-25.14
		c1.09-0.59,5.43-2.91,11.8-4.77c13.63-3.99,25.9-2.82,34.02-1.17c0,0,20.51,3.44,30.96,11.05c0,0-22.11-11.58-50.3-8.64
		c0,0-24.84,1.89-35.76,13.36c0,0-9.07,7.95-14.45,20.74C699.63,207.93,693.65,222.2,693.82,224.52z"/>
	<path class="st74" d="M704.64,215.9c0,0-2.4,5.66,1.35,5.54c0,0,29.77-0.99,46.77,5.78l12.54,4.15c0,0,0.45,0.06,0.32-2.86
		c0,0,3.44-9.23-0.32-10.37c0,0-15.53-8.15-28.51-9.23c0,0-13.89-2.78-26.58-0.36c0,0-2.97,0-3.78,2.38L704.64,215.9z"/>
	<path class="st75" d="M717.11,215.97c0,0,0.89-1.27,1.91-1.08c0,0,2.35-4.71-1.46-2.04l-3.37,5.92l19.39,4.01
		c0,0,14.23,1.71,21.7,5.28l10.01,3.32c0,0,0.41-0.92,0.32-2.86c0,0,2.08-6.5,1.2-8.73l-9.38-3.59c0,0-2.32,2.07-3.02,7.99
		c0,0,0.06,1.4-3.66-0.51c0,0-15.77-4.65-34.19-5.75C716.56,217.92,715.95,217.56,717.11,215.97z"/>
	<path class="st74" d="M755.28,228.05c0,0,2.1-11.18,4.03-11.14l7.5,2.87c0,0,1.05,2.09-1.2,8.73c0,0,0.21,2.31-0.32,2.86
		L755.28,228.05z"/>
	<path class="st76" d="M711.49,205.47c0,0,7.47-18.33,26.12-16.93c0,0,13.81,0,23.99,12.28c0,0,3.12,3.82,4.33,12.92
		c0,0-14.77-7.83-32.94-8.72C732.99,205.02,725.72,204.19,711.49,205.47z"/>
	<path class="st77" d="M776,168.32c0,0-0.93-3.22,4.16-2.5c0,0,5.9-0.06,5.9,1.2c0,0-0.64,1.01,0.47,2.15c0,0,0.51,0.93,1.99,2.29
		c0,0,0.04,0.47,1.06,0.51C789.58,171.97,775.74,169.99,776,168.32z"/>
	<path class="st78" d="M800.13,182.47c0,0,16.64,8.8,17.53,15.42c0,0,7.77,18.64,4.78,36.62l-3.5,21.67L836,275.41l-4.07,4.21
		c0,0-22.53-25.21-35.39-31.71c0,0-16.42-11.02-25.97-13.4c0,0-3.52-1.88-2.8-4.36c0,0,9.46-0.11,36.36,15.25
		c0,0,8.2-9.21,8.32-34.79C812.46,210.62,812.89,192.25,800.13,182.47z"/>
	<path class="st79" d="M817.54,194.58c0,0,12.47,22.66,4.71,55.62c0,0-1.62,6.27-0.6,7.51l17.06,18.74c0,0,3.87-34.31,2.77-40.57
		c0,0-1.75-19.92-11.87-29.85C829.61,206.04,818.05,191.61,817.54,194.58z"/>
	<path class="st80" d="M818.97,197.66c3.79,3.52,6.37,6.92,8.06,9.44c5.52,8.25,7.35,15.99,8.2,19.75c0.22,0.97,0.93,4.2,1.38,9.08
		c0.58,6.2,0.79,15.42-1.38,26.88l-1.32,8.39l4.79,5.26l1.64-16.23c0,0,2.09-18.7,1.07-24.91c0,0-2.01-14.92-6.05-21.17
		c0,0-2.36-6.39-14.35-17.82C821,196.34,814.67,190.56,818.97,197.66z"/>
	<path class="st81" d="M831.92,279.62l16.17,22.48c0,0,16.67,19.19,18.97,26.51c0,0,1.65,3.15,0.76,4.57l2.8,5.04
		c0,0,5-2.35,1.61-10.25c0,0-7.85-14.28-12.81-19.49l-10.06-12.08c0,0-13.11-18.2-13.36-21L831.92,279.62z"/>
	<path class="st82" d="M665.78,267.14c0,0,3.27-16.08,7.17-14.17c0,0,1.53-0.04-0.72,8.44l-1.36,9.16l-5.09,6.58
		c0,0-0.51,0.25-0.3-2.76L665.78,267.14z"/>
	<path class="st83" d="M390.12,714.03c0.03-0.4,1.91-38.44,1.91-38.44s20.87,8.78,25.97,8.27l-7,31.44c0,0-1.78,8.78-3.31,7.68
		l-16.72-6.53C390.97,716.45,389.94,716.79,390.12,714.03z"/>
	<path class="st84" d="M391.5,686.24c0,0,23.01,5.12,23.97,8.97l2.52-11.34c0,0-8.61-0.59-25.97-8.27L391.5,686.24z"/>
	<polygon class="st85" points="422.7,684.89 412.39,723.08 422.7,723.43 437.09,687.05 	"/>
	<path class="st86" d="M300.59,644.32l0.76,15.44c0,0,10.52,2.97,12.81,5.35c0,0,5.94,2.21,12.13,0.85l3.99-11.71
		c0,0-2.55-2.8-12.05-3.05L300.59,644.32z"/>
	<path class="st87" d="M317.16,650.77l-0.86,14.95c0,0,7.47,1.6,10.02,0.24l3.99-11.71c0,0-2.38-2.72-12.05-3.05L317.16,650.77z"/>
	<path class="st88" d="M134.28,584.71l-2.67,39.2c0,0,11.84,7.51,15.27,6.49c0,0,9.29-33.99,11.71-37.04
		C158.59,593.37,134.39,583.07,134.28,584.71z"/>
	<path class="st89" d="M133.85,590.96c0,0,19.32,10.23,21.84,9.63c0,0,2.01-6.71,2.9-7.22c0,0-21.89-9.8-24.31-8.66L133.85,590.96z"
		/>
	<path class="st90" d="M131.72,622.2c0,0.05,14.55,6.92,15.62,6.55l-0.46,1.66c0,0-1.78,0.27-4.03-0.65c0,0-11.28-5.39-11.25-5.84
		L131.72,622.2z"/>
	<path class="st91" d="M164.12,595.21c0,0,13.24,4.07,13.56,4.07c0,0-0.06,1.15-2.48,7l-10.76,23.29c0,0-3.43,4.01-11.58,1.21
		c0,0-0.25-0.51,0.32-2.55L164.12,595.21z"/>
	<path class="st31" d="M173.22,565.17c0,0,11.07-52.89,13.94-55.18l3.08-5.43c0,0,0.64-1.4,2.8-0.3c0,0,158.32,61.1,201.66,66.06
		c0,0-16.23,65.11-17.76,77.13c0,0-1.72,7.76-0.32,16.29l-124.74-44.17c0,0-47.73-18.97-49-19.47c0,0-7.76,0.89-8.27,18.07
		c0,0-3.69,0.51-3.44-7.51c0,0,0.38-3.86-1.32-7.51c0,0,0.93-3.22-0.76-7.21c0,0-1.53-2.8-1.36-4.75c0,0-1.7-3.84-1.78-6.58
		c0,0-1.87-13.61,3.56-12.08c0,0,4.67,0.68,5.6,3.48c0,0,2.72,0.93,3.39-2.55c0,0,12.13-17.57,16.55-15.53c0,0,2.97-1.1,2.89,14.51
		c0,0-0.59,12.13,5.94,16.46c0,0,3.65,1.53,9.08-0.76c0,0,2.97-1.53,2.72,4.92c0,0-2.97,6.87,1.53,7.21c0,0,2.97-0.59,1.61-3.22
		c0,0-0.68-9.76-3.31-9.93l-1.44-1.95l-8.4,0.76c0,0-1.7,0.85-2.12-3.56c0,0-1.7-12.05-2.63-14.17l-1.36-8.91
		c0,0-0.68-8.15-6.53-4.33c0,0-12.73,6.36-15.87,13.32c0,0,0,1.72-4.14,1.02c0,0-8.85-0.83-10.82,5.22c0,0-0.51,2.29,0.32,7.7
		c0,0-0.32,8.21-1.34,9.36c0,0-0.64,2.8-3.5-0.06l-7.57-1.53C170.11,590,171.82,569.12,173.22,565.17z"/>
	<path class="st92" d="M244.31,607.75c0,0,9.55,7.64,13.43,8.59c0,0,3.18,1.85,5.03,0.83c0,0,1.97-2.86-2.35-2.42
		c0,0-1.65,1.72-2.61-0.51C257.81,614.24,247.18,607.62,244.31,607.75z"/>
	<path class="st93" d="M246.46,607.75c0,0-6-9.22-7.45-8.68c0,0-2.12,3.07-4.12-0.53c0,0-0.31-3.09,0.8-5.47
		c0,0,0.33-5.88-2.72-4.92c0,0-9.42,4.82-12.69-3.48c0,0-3.28-5.05-2.41-16.76c0,0-0.16-11.28-3.33-10.12c0,0-2.96-0.06-7,4.52
		c0,0-9,9.65-9.02,11.15c0,0-0.02,3.24-3.39,2.55c0,0-1.64-3.12-5.34-3.43c0,0-2.92-0.91-3.48,2.05c0,0-1.91,6.46,0.44,13.9l1,2.68
		c0,0-0.06,1.88,1.66,5.52c0,0,1.15,3.04,0.46,6.44c0,0,1.7,3.35,1.32,7.51c0,0-0.3,7.47,3.44,7.51c0,0,0-15.97,8.27-18.07
		l31.45,12.5c0,0,9.83,0.4,12.12-2.83l-2.14-2.04C244.31,607.75,246.24,608.09,246.46,607.75z"/>
	<path class="st94" d="M193.04,504.27c0,0,1.15,4.2-0.72,9.55c0,0,2.97,2.04,3.9,4.67c0,0-0.25,2.55,10.1,1.78
		c0,0,32.39,17.99,61.61,26.58l10.12,4.39c0,0,7.45-5.35,23.68,3.82c0,0,16.1,6.28,29.17,8.66l33.09,9.76c0,0,2.46,4.88,2.84,11.75
		l7.83-8.59c0,0,4.77-2.29,2.67,1.91c0,0,9.16,0.95,4.96,4.01c-4.2,3.05-1.34,1.25-1.34,1.25s1.15,13.07-5.54,26.05
		c0,0-3.63,20.24-11.65,27.49c0,0,8.4,9.74,6.49,14.7l-8.08,6.6l14.45,5.12c0,0-1.62-14.13,2.31-26.86l15.77-66.57
		C394.7,570.33,306.03,550.47,193.04,504.27z"/>
	<path class="st95" d="M189.43,520.69c0,0-5.43-0.51-1.44-1.53h2.21c0,0,1.36-6.79,2.55-4.07c0,0,0.42,10.78-1.95,16.46l-7.13,22.06
		c0,0-1.7,0,0-4.41c0,0,2.92-10.18,4.18-12.05c0,0,3.37-8.83,2.1-13.41C189.94,523.74,191.38,519.33,189.43,520.69z"/>
	<path class="st96" d="M127.4,562.69c0,0-0.95-7.45,1.91-14.13c0,0,2.86-12.79,3.44-13.75c0.57-0.95-0.57,0.95-0.57,0.95
		s5.54-16.42,7.83-24.63l6.87-29.21l6.87-33.22c0,0,5.54-26.35,5.16-28.83c0,0,0.66-6.36-3.75-8.32c0,0-16.1-12.3-16.29-33.31
		c0,0-1.53-39.52,28.45-53.27c0,0,20.3-9.23,32.78,9.86c0,0,13.87,11.33,10.69,44.68l-6.61,43.32l-1.08,4.47c0,0,0.04,4.22-1.54,5.3
		c0,0-9.12,8.47-11.21,21.23l-5.02,17.88c0,0-0.99,4.82-1.08,5.89l-0.43,11.96c0,0-0.14,5.22,2.5,7.16c0,0,1.8,0.43,1.65,2.24
		c0,0-2.6,1.5-3.09,3.4c0,0-6.65,12.61-8.98,25.49l-11.81,59.27l-32.46-13.94C131.6,573.19,127.49,573.38,127.4,562.69z"/>
	<path class="st97" d="M226.18,339.94c0,0-21.77-9.16-25.71-8.53c0,0-7.43-5.6-9.82-5.66c0,0-22.12-4.01-34.85,14.19
		c0,0-13.75,15.4-13.11,40.22c0,0,0.76,16.01,13.68,32.13l-5.93-5.3c0,0-11.99-11.56-11.57-28.74c0,0-0.66-20.35,7.69-33.23
		c0,0,9.88-27.4,46.79-22.27l19.18,4.29c0,0,1.7,0.59,2.89,2.89L226.18,339.94z"/>
	<path class="st98" d="M200.46,331.42c0,0,12.86,8.91,13.62,23.55c0,0,2.8,18.07,0.64,38.95c0,0-4.07,29.91-5.86,32.97
		c0,0,59.7-8.02,123.85,7c0,0,0.81-2.63,3.01-4.16c0,0-1.02-1.44,0-4.16c0,0,13.92-39.54-7.21-66.78c0,0-2.38-5.26-6.45-6.02
		c0,0-38.36-12.05-40.26-10.52c0,0,5.09,2.93,12.22,24.31c0,0-10.18,7.26-10.44-3.31c0,0-1.15-2.1-1.15,4.39
		c0,0,1.27,11.58,0.32,17.25c0,0-2.74,12.54-5.54,13.56c0,0-2.35,1.65-4.33-5.98l-6.75-21.32c0,0-0.64-4.26-4.96-5.6
		c0,0-2.1-1.15-2.42-2.16c0,0-1.15-3.44-5.28-4.14c0,0-1.72,0.38-1.46,3.82c0,0-0.06,8.46-5.54,5.09c0,0-5.09-5.16-8.4-14.26
		l-4.2-8.91c0,0-1.53-2.61-4.58-2.23c0,0-1.08,0.51-2.8-2.48c0,0-15.81-6.94-21.47-8.1c0,0-3.65-1.04-4.66-0.74"/>
	<path class="st99" d="M221.97,330.19c0,0-8.61-2.38-3.86-4.45l19.3,5.43c0,0,13.07,3.56,33.94,5.6c0,0,5.98,1.15,9.5,9.46
		l4.71,9.55c0,0,1.02,1.7,3.39,3.01c0,0,6.39,9.73,0.51,7.34c0,0-6.45-6.07-7.81-3.56c0,0-1.4,0.13-0.93,7.55
		c0,0,0.04,20.92-2.29,25.5c0,0-1.27,0.51-2.59-4.29c0,0-4.58-15.02-7.81-20.24c0,0-4.5-6.49-5.3-7.51c0,0-4.62-6.24-10.39-5.64
		c0,0-3.05,0.98-2.29,7.64c0,0-0.81,3.78-3.39-1.27c0,0-2.8-2.97-9.04-17.35c0,0-2.99-7.64-6.75-9.04c0,0-5.13-1.53-7-4.5
		C223.88,333.41,221.59,331.92,221.97,330.19z"/>
	<path class="st100" d="M281.8,342.23c0,0,7.89,7.97,7.92,12.9l35.86,7.85l-3.18-4.96c0,0,2.56-2.76,5.54-0.3
		c0,0-2.22-3.6-4.05-4.28C323.9,353.44,284.06,340.88,281.8,342.23z"/>
	<path class="st101" d="M322.4,358.02c0,0,12.35,19.47,8.4,40.35c0,0-1.27,4.96-6.24,3.05c0,0,7,6.62-2.8,8.66
		c0,0-2.82,13.06-1.09,21.23l12.04,2.57c0,0,1.82-4.24,3.01-4.16c0,0-0.45-2.77,0-4.16c0,0,7.28-23.08,3.47-41.56
		c0,0-2.01-15-11.25-26.29C327.95,357.72,325.31,355.24,322.4,358.02z"/>
	<path class="st102" d="M214.82,392.9c0,0,8.94-0.71,11.35,3.68c0,0,6.81-1.72,4.71-9.55c0,0,21.32,2.57,10.31,4.77
		c-2.86,0.57-8.59,0.95-8.59,0.95s13.56,4.96,16.8,9.36c0,0,1.44,4.2,4.92-0.95c0,0,7.21,4.96,0,9.74c0,0,11.69-3.82,12.07-9.16
		c0,0,5.09,12.03,16.01,5.35c0,0,6.28-15.52,12.06-11.46c1.91,1.34,8.4,9.74,8.4,9.74s1.34-3.63,0-7.83
		c-1.34-4.2,4.77-11.18,9.16-2.25c4.39,8.93-1.34,18.29-1.34,18.29l6.68,14.13l-2.24,2.58c0,0-63.56-9.97-106.27-3.41
		C208.86,426.88,214.67,394.54,214.82,392.9z"/>
	<path class="st103" d="M337.04,358.02c-0.17-0.04-0.22-0.39-0.38-1.1c-1-4.35-2.9-7.59-4.58-9.84c0,0,19.6-82.23,42.26-110.48
		c0,0,17.31-33.86,63.39-8.66c0,0-15.19,6.36-17.82,22.66c0,0,0.34-15.02,1.1-16.8c0,0-1.02-1.87-2.55,1.44l-2.38,3.56
		c0,0,4.5-6.28,4.07-6.28c0,0-11.54-9.59-22.83-2.55c0,0-7.21-1.53-27.58,33.86c-4.5,8.57-8.99,17.14-13.49,25.71
		C342.58,344.69,338.14,358.25,337.04,358.02z"/>
	<path class="st104" d="M426.97,240.79c0,0,8.4-14.29,23.48-11.06c0,0,30.55-0.78,73.89,9.92c0,0,50.6,12.6,58.81,16.8
		c0,0-15.47,5.92-9.74,5.35l14.13,1.91c0,0-11.26,4.19-12.6,13.46c0,0-29.59-15.56-31.31-15.56c-1.72,0-34.37-10.52-42-8.79
		c0,0-36.3,9.41-37.04-6.64c0,0-0.57-2.32,2.86-1.66C467.44,244.52,460.57,239.26,426.97,240.79z"/>
	<path class="st105" d="M500.86,241.55c0,0,53.08,22.53,75.99,21.77l1.41-0.87l-6.12-0.84l11.01-5.16c0,0-57.86-17.42-75-20.41
		C508.15,236.03,496.15,238.88,500.86,241.55z"/>
	<path class="st106" d="M431.17,674.39c0,0-3.44,4.58,5.92,4.77l92.79,2.48c0,0,19.47-3.37,33.6-26.54c0,0,1.74-2.12-6.19-2.97
		c0,0-19.9-1.99-22.32-16.7c0,0-3.63-14.51,6.24-20.43c0,0,7.76-7.45,19.98,1.91c0,0,4.77,6.49,18.9,3.44c0,0,18.9-2.87,23.29,3.15
		c0,0,3.82-0.66,3.82-10.21l16.61-76.91l-152.17-19.51l-8.97,35.32l-18.71,70.5L431.17,674.39z"/>
	<path class="st107" d="M456.69,564.73l-9.49,45.77l6.06-9.49l-1.31,7.13l2.2-7.26c0,0-7,14.77,3.56,3.44c0,0,1.27-4.71,4.71-6.24
		l4.2-2.93c0,0,1.53-0.89-1.91-3.69l0.25-3.85c0,0,0.25-0.74-2.16-3.6c0,0-2.93-4.65,0.51-10.12c0,0,1.65-2.29,1.4-11.33
		c0,0-0.38-14.77,3.82-16.93l-2.84-5.29C465.68,540.34,458.09,565.17,456.69,564.73z"/>
	<path class="st108" d="M465.48,551.91c0,0,3.18-11.43,4.64-5.2c0,0-2.92,7.13-2.32,17.95c0,0-0.09,7.51-2.32,12.16
		c0,0-1.02-0.95,1.39,7.06l2.04,8.4c0,0,2.1,4.96-2.23,6.97c0,0-4.71,1.75-4.45,5.31c0,0-1.02,10.31-1.53,1.78v-2.86
		c0,0-8.97,11.65-10.56,9.48c0,0,0.26-3.01,1.97-4.01l5.6-4.65c0,0,1.75-5.19,4.71-6.24l4.2-2.93c0,0,1.35-0.96-1.06-2.95
		l-0.85-0.75l0.25-3.85c0,0-0.52-2.26-1.76-3.11c0,0-2.21-3.27-1.23-7.63l1.33-2.99c0,0,1.75-3.25,1.37-7.03
		c0,0,0.13-9.44,0.23-10.47L465.48,551.91z"/>
	<path class="st109" d="M465.68,540.34l14.68,5.44c0,0,12.73,0.75,20.75-6c0,0,11.2-6.65,10.69,5.08c0,0,3.44-0.03,4.96,0.95
		c0,0,6.11,13.51,6.11,14.43s3.56,4.87,3.56,4.87l2.16-13.6l6.87-6.65l-4.84,19.49c0,0,4.33-2.42,5.47-9.55l1.91-9.42l7.51,23.17
		c0,0,6.75-7.38,8.4-9.04c1.65-1.65,4.84-7,5.35,5.47l1.02,5.6c0,0,1.15,3.44,4.07-0.76c0,0,6.24-6.64,5.35,2.09L569.8,590
		c0,0,6.47-2.48,6.47-9.74s-0.95,0.38-0.95,0.38s-2.48-0.38-2.67,1.91c-0.19,2.29,0.19-20.24,3.63-15.47c3.44,4.77,0,1.11,0,1.11
		s6.3,0.8,4.2,12.06l3.05-13.56c0,0-0.76,17.95,0,18.71c0.76,0.76,3.25-16.1,3.25-16.1s0.57,6.23,1.34,9.74
		c0.76,3.5,2.1-6.04,2.1-6.04s2.67,4.39,2.48,7.83c-0.19,3.44,4.77-7.83,4.77-7.83s-1.28,34.56-10.11,46.71
		c0,0,12.57-1.09,16.03,3.78c0,0,3.08-0.01,3.82-10.21l16.61-76.91l-152.17-19.51L465.68,540.34z"/>
	<path class="st110" d="M519.02,593.5c0,0-2.12,7.13,7.04,8.91c0,0-12.9,9.93-13.75,5.6c0,0-3.05-4.69,0.85-8.75L519.02,593.5z"/>
	<path class="st111" d="M381.21,663.76c0,0,38.95,16.87,50.28,14.64c0,0-1.97-2.48-3.5-2.23l12.35-58.69l11.84-49.82
		c0,0,2.95-3.27,4.52-2.93l4.3-9.9c0,0-7.05,6.84-5.7,1.75l13.24-42.14c0,0,3.9-3.86,11.63-5.38c0,0,38.78-5.18,38.78-55.84
		c0,0-2.72-19.35-18.33-34.11c0,0-3.39-4.84,2.38-0.85c0,0,9.25,8.99,11.37,13.75c0,0-3.14-7.04-1.02-4.41
		c0,0,10.27,15.27,10.35,25.29c0,0,2.19,41.07-26.45,55.58l-20.24,4.01l118.76,14.51l30.1,4.9c0,0,12.09-2.04,18.71-11.33
		c0,0,13.87-9.8,11.2-41.62c0,0-2.93-26.98-25.84-33.48c0,0-54.35-19.6-54.22-17.69c0,0,17.18,7.51,21.51,35.39
		c0,0,2.29,3.05-0.89,4.03l-3.05,1.02c0,0,3.73-1.06,1.53-6.96c0,0-0.64-22.15-24.06-33.73c0,0-68.61-18.33-84.64-17.69
		c0,0-32.58,0.33-44.42,20.47c0,0-22.91,47.82-27.68,80.85l-22.91,100.24C391.07,611.38,380.32,656.18,381.21,663.76z"/>
	<path class="st112" d="M414.76,506.49c0,0,31.23-78.21,43.11-81.65c0,0,21.2-12.95,43.84-4.66c0,0-4.22-6.54-0.04-2.77l26.69,11.82
		c0,0,8.59,18.9,18.33,21.77l5.92-6.68l7.26,3.44c0,0,6.11-4.01,10.12-2.29c4.01,1.72-5.16-6.11-4.58-6.3
		c0.57-0.19,1.91-4.2,7.06-2.48l16.78,7.57c0,0-7.84-15.86-21.19-17.45l-72.94-16.3c0,0-29.4-4.62-47.91,12.11
		C447.2,422.62,426.41,443.8,414.76,506.49z"/>
	<path class="st113" d="M582.49,270.28c0,0,8.99-9.67,23.93-4.07c0,0,25.03,8.49,41.75,17.74c0,0,0.59,4.75-19.35-1.87
		c0,0-17.9,2.55-22.66,10.1l-7.3,10.86c0,0-1.78,0.76-1.7-1.61l0.85-10.52c0,0,1.02-6.96-7.98-3.27l-11.58,10.69
		c0,0-2.89,1.65-1.48-1.02l5.47-13.5l1.15-4.07c0,0,0.64-2.21-1.91-0.89c0,0-7.09,3.52-4.92,0.72
		C576.76,279.57,581.3,271.85,582.49,270.28z"/>
	<path class="st114" d="M337.04,358.02c0,0,15.15,32.08,2.04,75.86c0,0-0.8,1.4,1.15,1.53c0,0,69.16,17.82,81.72,24.35
		c0,0,4.45-25.24-11.46-25.88c0,0-15.15-0.38-20.49-13.87c0,0-14.89-11.33-23.8-1.91c0,0-1.91,2.16-2.42-2.42
		c0,0-4.07-22.53-8.91-30.29c0,0-4.07-11.46-4.2-16.04c0,0-2.04-1.4-4.2-7.26c0,0-3.31-8.94-4.07-1.41L337.04,358.02z"/>
	<path class="st115" d="M421.94,459.76c0,0,8.85-54.01,59.63-56.88c0,0,66.12,8.21,92.22,17.25l9.29,2.48c0,0,4.26-20.49,9.99-30.04
		l13.56-30.55l-6.3-2.58c0,0,7.59-3.53,10.09-11.93c0,0,4.99-2.48,3.27-6.3c0,0-0.62-4,0.36-4.39c0,0,7.28-11.65,4.99-15.28
		l-0.76-3.22l4.58-3.65c0,0,3.08-13.6,10.2-15.38l-7.72-4.41c0,0,7.21,1.36,14.09-3.65l-15.61-5.26c0,0-10.56,0.64-25.2,19.73
		c0,0-1.53,2.78-3.82-2.56c0,0-1.13-4.47,1.02-9.15c0,0,1.4-7.76-4.84-3.95l-15.91,15.02c0,0-3.46,2.01-2.65-1.92
		c0.06-0.27,0.13-0.56,0.23-0.88c1.53-5.09,7.38-20.11,7.38-20.11s3.05-1.91-2.42-0.89c0,0-7.76,3.95-3.56-1.78l0.89-2.33
		l-30.56-15.34c0,0-35.99-10.39-41.95-9.14c0,0-15.13,3.72-28.27,2.28c0,0-15.69-6.32-7.06-10.66l-40.13-3.51
		c0,0-8.34,15.63-7.83,8.9c0.51-6.73-0.02-0.37-0.02-0.37s2.23-9.42-2.61-10.1l4.04-5.88c0,0-6.87-9.9-21.96-4.09
		c0,0-12.63,3.66-30.98,38.65l-11.62,22.71c0,0-15.13,64.47-18.95,67.4l5.35,2.66c0,0,0.8-6.75,3.71,0.51c0,0,2.57,7.14,4.56,8.15
		c0,0,0.37,4.86,3.75,14.73l0.45,1.31c0,0,5.45,9.15,7.85,24.97l1.35,6.87c0,0,0.82,2.87,2.71,0.3c0,0,7.25-8.34,23.23,2.48
		c0,0,5.5,13.33,21.2,13.92c0,0,9.47-1.13,11.32,14.59L421.94,459.76z"/>
	<path class="st116" d="M408.26,305.9c0,0-9.29,9.67,0,14.07c0,0,6.56,2.61,9.86-5.35c0,0,2.74-8.08-3.63-9.04
		c0,0-3.69,1.15-4.45-1.46c0,0-3.56-9.23-3.88-10.31C405.84,292.72,408.83,302.52,408.26,305.9z"/>
	<path class="st103" d="M406.45,312.24c0,0,0.42,5.69,2.89,4.92c0,0-0.59-4.71,1.4-1.4c0,0-0.59,3.69,1.65,2.42
		c0,0,5.34-2.44,4.16-7.42c0,0-0.93-4.84-5.98-3.31C410.57,307.44,406.41,308.93,406.45,312.24z"/>
	<path class="st116" d="M402.08,317.54c0,0-6.62,8.53-7.83,6.56c0,0-1.53,4.67,4.2,0.3C398.46,324.39,406.73,317.48,402.08,317.54z"
		/>
	<path class="st116" d="M413.75,330.36c0,0,3.95,8.66,3.48,1.19c0,0-3.65-6.64-2.63-9.64C414.6,321.9,412.27,321.74,413.75,330.36z"
		/>
	<path class="st116" d="M424.29,312.8c0,0,7.76-6.01,13.75-3.46C438.04,309.33,429.19,316.51,424.29,312.8z"/>
	<path class="st117" d="M534.97,347.2c0,0,2.48-8.34,9.99-5.73c7.51,2.61,5.66,8.85,2.35,11.14c0,0-6.56,12.22-13.17,2.04
		C534.14,354.65,534.01,348.28,534.97,347.2z"/>
	<path class="st118" d="M541.16,344.65c0,0-4.33-1.91-4.58,3.69c0,0-0.3,7.59,4.58,5.9c0,0,3.95-0.64,4.54-4.16
		c0,0,0.76-4.67-0.89-6.49c0,0-0.51-1.53-1.27,0C543.54,343.59,542.18,345.42,541.16,344.65z"/>
	<path class="st119" d="M541.5,341l0.26-17.43c0,0,1.77-2.67,1.78,1.48c0,0.07,0,0.14,0,0.21c-0.04,4.45,0.14,13.23,2.34,16.56
		C545.88,341.83,542,340.62,541.5,341z"/>
	<path class="st120" d="M528.76,468.22c0,0,1.46,4.9-1.5,1.78c0,0-0.01-6.3,1.86-7.35c0,0,2.15-0.92,5.21,7.19
		c0,0,0.99,7.29,3.98,5.51l4.38-3.45c0,0,0.53-0.49,0.93,1.19c0.4,1.68-0.08,4.05,0.13,10.1c0,0,0.51,1.4,1.85-0.88
		c0,0,4.39-12.95,10.29-11.98c0,0,1.36-1.19,0.89-2.67c0,0,1.36-4.16,3.22-2.59c0,0,11.03,8.02,14.47,20.41
		c0,0,2.72,11.46,2.63,13.79c0,0,0.72,1.23,1.02-1.53c0,0,3.71-11.67,4.26-12.71c0,0,2.93-7.68,2.55-13.28
		c0,0-0.95-12.09,1.59-10.31c0,0,5.09-2.23,7.51,5.79c0,0-0.7,2.55-3.37-2.42c0,0-3.69-3.88-3.75-2.35c0,0,0.32,12.66-0.32,15.4
		c0,0-2.55,12.47-7.13,21c0,0-2.74,4.71-3.31,2.8c0,0-6.11-22.78-10.25-25.65c0,0-5.94-11.58-7.13-6.58c0,0-2.08,4.5,2.97,5.35
		c0,0-1.78,2.93-5.18-1.7c0,0-1.99-2.33-4.24,1.4l-4.12,7.15c0,0-3.39,7.02-5.81,3.46c0,0-0.55-0.3-0.34-3.73
		c0,0,0.3-6.66-0.64-6.96c0,0-4.2,3.56-4.58,4.75c0,0-2.84,0.98-3.1-1.65c0,0-1.06-10.35-2.63-11.16
		C531.11,466.34,528.71,463.01,528.76,468.22z"/>
	<path class="st121" d="M591.12,444.07c0,0,23.7,8.82,34.39,3.3c0,0,19.39,8.3,24.08,13.78c0,0-5.69-12.17-23.92-17.22
		c0,0-46.52-16.7-49.97-16.17C575.7,427.77,586.93,433.62,591.12,444.07z"/>
	<path class="st122" d="M523.64,492.69c0,0,5.22-7.76,3.63,0c0,0-1.62,10.31,0.3,10.31c0,0,4.22,3.95,6.13-4.07
		c0,0,1.78-6.98,1.27-8.96c0,0,4.07,2.75,1.53,12.15c0,0-5.47,12.07-5.09,4.38c0,0-1.78-0.82-2.67,0.7c0,0-5.22,6.01-9.55,1.86
		c0,0-8.91,2.72-7.76-1.61c0,0-0.09-3.18,3.46-3.56c0,0,6.85-1.53,7.74-5.6L523.64,492.69z"/>
	<path class="st119" d="M534.14,350.3c0,0-12.66,14.51-12.49,17.82c0,0,2.77,7.21,14.49-11.03
		C536.14,357.08,532.68,354.9,534.14,350.3z"/>
	<path class="st119" d="M548.29,342.91c0,0,22.83,7.04,34.2,2.97c0,0-22.23,6.02-24.27,10.1c0,0-7.81,9.5-8.02,9.84
		c-0.21,0.34-1.06-10.52,5.22-12.73c0,0-6.68-1.49-9.24,1.28C546.18,354.37,552.96,348.69,548.29,342.91z"/>
	<path class="st123" d="M145.99,500.92c0,0,2.29-9.33,1.78-0.59c0,0,0.89,13.53-1.78,20.41c0,0-2.29,3.73-1.61-0.34
		c0,0,2.42-4.12,0.3-5.39c0,0-0.93-0.34-0.42-2.67C144.25,512.33,146.32,501.64,145.99,500.92z"/>
	<path class="st124" d="M136.82,557.71c0,0-6.11-9.97-4.01-12.14c0,0,1.85-1.4,2.16,2.29c0,0,0.38,3.18,2.86,5.28L136.82,557.71z"/>
	<path class="st125" d="M141.85,554.29c-0.25-0.45-0.38-4.14,1.27-4.26c0,0,0.38,4.07,1.46,5.47c0,0,2.1,1.85,4.9,0l-1.06,14.52
		l-0.17,2.32c0,0-2.98-5.95-3.55-9.26L141.85,554.29z"/>
	<path class="st126" d="M153.24,555.56l-0.58,17.27c0,0-1.62,6.44-4.61-0.93L153.24,555.56z"/>
	<path class="st127" d="M192.77,468.76c0,0-3.11,20.11,0,24.44l77.52,33.09c0,0,113.46,38.95,125.68,37.17l15.02-63.58
		c0,0-5.09-4.12-8.91,2.24c0,0-8.15,9.15-17.06,44.03L341.5,532.4c0,0,1.02,9.42-30.55-3.82c0,0-22.66-10.63-26.48-12.44
		c0,0-16.29-3.35-19.35-1.69c0,0,4.84-3.18-16.55-10.18l-23.93-2.15c0,0,19.09,2.03,32.08-10.7c0,0-3.44-2.55-12.41,2.55
		c0,0-10.5-13.27-13.56-4.72v3.2l-21.13-10.8C209.63,481.63,207.99,489.12,192.77,468.76z"/>
	<path class="st128" d="M200.36,490.14c0,0,6.53-3.05,8.51,0c0,0,10.37,8.21,25.27,8.21c0,0-19.99,1.91-22.88-0.76
		C211.25,497.59,199.23,496.06,200.36,490.14z"/>
	<path class="st129" d="M216.01,498.83c0,0,26.85,3.62,36.75-4.07c0.09-0.07,0.18-0.14,0.27-0.21c9.68-7.97-2.41,12.27-33.6,5.78
		l-3.94-1.54"/>
	<path class="st130" d="M192.77,468.76c0,0,6.42-28,16.86-34.88c0,0,23.93,12.73,35.64,15.15c0,0,17.69,1.65,16.67,6.62
		c0,0-6.49,11.2-4.71,14.64c0,0,6.24-14.61,15.78-12.08c0,0,43.15,6.22,63.13,18.95c0,0,4.33-2.93,5.35,1.65
		c0,0,36.91,15.91,57.79,18.33c0,0,8.91,1.14,11.71-1.53l-0.59,3.87c0,0-5.97-4.12-11.17,7.01c0,0-10.9,23.74-14.21,39.65
		L341.5,532.4c0,0,0.87,8.19-21.46-0.3l-35.56-15.97c0,0-13.48-3.07-19-2.1c0,0,1.07-3.15-12.42-8.22l-4.48-1.55l-23.26-2.1
		c0,0,25.18-0.32,30.97-8.97c0,0-0.88-1.04-1.43-0.34l1.87-1.44c0,0-3.52-2.55-12.41,2.55c0,0-13.9-15.78-13.56-1.53l-21.13-10.8
		c0,0-0.06,4.54-7.37-1.88L192.77,468.76z"/>
	<path class="st131" d="M209.63,433.88c0,0,40.54-6.94,98.58,3.56c0,0,84.77,15.85,110.74,26.35l-7.96,31.82c0,0-2.55-3.69-6.75,0
		c0,0-4.96,2.99-8.4,0l-28.45-10.63c0,0-21.83-8.85-27.18-11.39c0,0-26.47-13.34-44.42-15.39c0,0-15.64-3.71-25.51-3.26
		c0,0-5.67-0.19-6.18-4.01c0,0-37.8-11.58-39.33-13.11c0,0-10.3-4.1-12.72-2.68L209.63,433.88z"/>
	<path class="st0" d="M353.65,467.04l3.44-6.56c0,0,3.63,1.85,1.46,3.28C358.55,463.76,354.35,469.01,353.65,467.04z"/>
	<path class="st132" d="M352.44,458.79c0,0-3.86-1.32,0-2.04c0,0,27.03-2.42,33.94,4.5l-26.77-2.8c0,0,5.59,3.75,11.63,2.8
		c0,0,4.54-0.51,6.87,2.46c0,0,1.61,1.1,4.75-0.59c0,0,8.53-0.93,11.54,3.52c0,0-12.83,0.08-13.25,1.53l8.45,9.8
		c0,0-0.34,3.14-4.71-1.44l-4.16-5.01c0,0-1.53-1.36-4.29-0.98c0,0-2.97-0.17-4.58-2.67l-11.88-5.43l-2.91-1.95
		c0,0,0.09-1.1-0.64-1.57L352.44,458.79z"/>
	<path class="st133" d="M583.08,422.62l9.04,2.99c0,0,8.4-16.8,7.64-21.57l14.89-41.05c0,0,3.99-3.01,4.84-8.7
		c0,0,4.33-27.31,12.73-38.9c0,0,15.27-25.08,21.38-29.22l-5.43-2.23c0,0-0.02,5.24-19.35-1.87l-5.01,3.9l15.61,5.26
		c0,0-5.43,5.01-14.09,3.65l7.72,4.41c0,0-5.98,0.55-10.2,15.38l-4.58,3.65l0.76,3.22c0,0,0.98,2.63-0.43,6.05
		c0,0-3.9,8.58-4.9,9.66c0,0-0.58,2.52,0.35,5.66c0,0,0.12,2.5-3.63,4.6c0,0-1.76,7.68-10.09,11.93l6.3,2.58
		C606.63,362.03,584.61,406.9,583.08,422.62z"/>
	<path class="st134" d="M594.03,425.61c0,0,5.75-9.98,6.49-17.85c0,0,15.85-36.37,16.61-45.34L630.5,329c0,0,18.14-40.95,19.09-34.7
		c0,0-13.94,19.87-9.36,37.98c0,0-1.61,25.99,15.46,55.53l-17.37,53.84C638.32,441.64,600.71,425.22,594.03,425.61z"/>
	<path class="st135" d="M617.01,432.82c0,0-0.2-12.31,2.48-13.71c0,0-0.13-1.02-1.91-2.29c0,0,0.64-4.33,4.46-4.96
		c0,0,3.12-7.32,2.42-8.78c0,0-0.51-0.13,1.53-0.76c0,0,3.95-0.51,2.48-5.28c-1.46-4.77-0.32,0-0.32,0s2.16-2.16,2.04-5.28
		c0,0,0.51-3.95-1.91-3.37c0,0-1.4-1.02-0.45-2.67l0.95-2.01c0,0,0.83,4.81,3.18,3.41l3.82-3.05c0,0,0.89,3.75,2.8,4.39
		c0,0,5.47,8.65,0.57,5.44c0,0-3.25-4.99-3.69-2.51c0,0-1.21,2.99,4.96,8.66c0,0,2.35,11.2-2.42,7c0,0,0.45,12.22-1.02,16.1
		l-1.35,17.36L617.01,432.82z"/>
	<path class="st136" d="M194.04,348.28c0,0,13.17,21.19-4.01,82.67c0,0-19.28,72.36-22.91,88.78c0,0-5.41,5.83-4.96,42.96
		c0,0-0.45,19.67-3.56,14.7l-5.78-5.35c0,0-1.19,9.16-5.47-1.91l-7.87-9.9c0,0-4.05,4.51-6.53-2.53l0.91,6.51l-6.45-1.53
		c0,0-0.38,9.93,4.2,10.5l32.46,13.94c0,0,7.26-37.61,7.26-38.19c0-0.57,8.42-46.01,16.52-49.64c0,0,0.85-1.65-1.54-2.58
		c0,0-3.15-1.94-2.39-8.94c0,0-0.19-10.82,1.08-14.77c0,0,7.4-31.42,13.43-36.76l3.48-4.07c0,0,0.93-0.17,0.93-3.9
		c0,0,6.79-26.73,6.79-36.4c0,0-2.07-27.64-6.62-16.67C203.01,375.2,196.52,341.6,194.04,348.28z"/>
</g>
</svg>
