<svg xmlns="http://www.w3.org/2000/svg" xml:space="preserve" id="Layer_1" x="0" y="0" viewBox="0 0 1080 1080"><style>.st0{fill:#0f0c0a}.st7{fill:#656054}.st12{fill:#3b3b3a}.st15{fill:#d69629}.st31{fill:#af9f78}.st39{fill:#fccc0a}.st44{fill:none;stroke:#fccd0a;stroke-miterlimit:10}.st45{fill:#d0992a}.st63{fill:#fff}.st74{fill:#fbcc10}.st103{opacity:.92;fill:#decbac}.st116{opacity:.55;fill:#0a0706}.st119{opacity:.32;fill:#0f0c0a}</style><path d="M459.3 940.41s26.79 2.61 62.82-7.32c0 0 10.06-3.35 12.86-2.46 0 0 7.73 2.94 13.14 2.43 0 0 18.93-.43 26.4-3.83 0 0 11.07-2.46 12.6-9.97 0 0 2.25-10.93 0-16.27 0 0-.66-3.5-.5-5.31 0 0-1.75-25.11-5.82-30.52 0 0 4.16-2.93 5.26-4.96 0 0 4.99-4.58 4.09-16.74 0 0-.7-7.06-3.69-11.01l-1.88-2.74s-.16-1.11.83-2.04c0 0 4.38-6.22 1.33-17.59l-1.87-7.51s-.68-2.25 1.23-3.31c0 0 3.52-2.5 3.48-6.15 0 0-.85-2.59.25-3.05 0 0 8.87-4.84 17.78-10.78l25.12-15.53s6.45-6.45 11.2-2.38c0 0 12.64 9.33 23.25 26.56 0 0 14.68 21.72 19.6 31.48 0 0 11.24 22.06 32.75 32.63l14.89 8.15s1.65-.51 5.6 10.06c0 0 2.55 7.76 14.19 10.56 0 0 5.37.3 4.6 4.45 0 0-.55-.04-1.06-1.95 0 0 .81 7.55-1.48 9.42 0 0-16.76 6.28-20.2 29.19 0 0-2.93 19.47 3.18 24.69 0 0 23.55 15.21 76.43 7.38 0 0 20.43-2.55 28.32-12.98 0 0 6.02-7.81 6.79-16.12l1.7-20.37s8.74-4.16 10.27-21.72c0 0 2.46-10.78-1.61-18.75 0 0-.59-2.89-8.66-11.88 0 0-5.6-10.35-8.23-12.73l-7.04-8.4s-1.27-11.63-3.31-15.27c0 0-6.13-14.32-18.8-18.07 0 0-4.9-.7-6.36-6.17 0 0-3.5-11.26-6.3-12.09l-2.99-2.16s-.51-.19-.19-2.48c0 0 .06-14.26-.38-16.36 0 0-1.53-13.75.83-18.58 0 0 3.95-19.92 3.12-27.62 0 0-.76-12.86-2.35-16.67 0 0-1.46-2.67-.64-7l1.08-12.79s.19-1.97 1.72-2.23c1.53-.25 7.06-7.7 7.64-13.11 0 0 3.25-12.86 2.93-14.77 0 0 .64-4.96 3.05-6.81 0 0 10.06-11.84 14.32-14.38l14.45-14.64.38-.51s6.43.76 9.23-1.91c0 0 23.68-31.82 33.99-49 0 0 21.38-36.85 22.15-72.55 0 0 1.34-28.26-12.98-56.13l-8.02-11.46s-5.73-12.79-19.47-27.68c0 0-14.51-16.61-18.71-19.86 0 0 .38-6.3-.95-8.97L843 341.79s25.2 8.78 33.22-2.29c0 0 8.59-7.45-4.58-22.72l-28.83-38.19s9.16-32.84 1.72-54.41c0 0-7.26-28.64-40.29-45.44 0 0-9.1-3.25-10.18-7 0 0-2.48-9.93-15.21-9.48 0 0-5.69.34-7.38 4.33 0 0-24.01-5.6-47.27 4.67 0 0-17.4 6.7-27.75 25.63 0 0-5.26 7.21-10.1 25.8 0 0-1.02 6.79-3.99 9.33 0 0-5.77 8.74-7.64 14.77 0 0-8.49 2.55-11.46 10.35 0 0-1.61 2.29-1.7 20.03 0 0 .17 7.3-9.33.93 0 0-40.39-18.16-46.33-19.94s-6.98-.74-12.58-4.5c0 0-4.2-1.59-5.35-2.99 0 0-1.27-1.85-2.35-.83 0 0-4.65-1.08-7.45-3.05 0 0-69.94-19.77-77.24-18.41 0 0-19.69-6.28-57.62-6.02 0 0-36.91-22.66-62.62-3.69 0 0-9.67 3.95-25.2 38.31 0 0-11.96 22.15-23.17 60.08l-7.04 29.02s-1.36.85-2.21-.08c0 0-35.17-7.3-49.3-15.95 0 0-6.87-2.04-11.46-1.91 0 0-22.53-1.27-43.91-10.56 0 0-3.82.51-1.02 2.55 0 0-37.68-10.69-54.35-1.15 0 0-36.15 16.93-30.8 65.04 0 0 .64 19.09 18.97 35.39 0 0 .89 1.4-1.4 13.62l-9.93 47.99s-14.26 50.66-17.31 61.86c0 0-8.15 23.42 0 35.64l6.24 3.56-3.69 44.42s-1.27 1.53 3.56 3.69c0 0 9.67 5.6 13.36 6.11l4.33 1.4s5.47 2.29 10.18-.38l7.26-.64s3.44-1.02 4.45-3.44l1.15-3.95s1.91.51 2.55-4.33c0 0 1.78-.25 2.42-4.46 0 0 2.04-.64 2.04-4.2 0 0 .89.76 2.04-2.04 0 0 4.84-9.93 5.6-11.96 0 0 1.02.25 1.4 5.09 0 0 .76 11.33 9.08 17.18 0 0 7.04-9.84 9.16-16.89 0 0 73.66 32.67 90.33 34.71l.64 19.22s1.78 1.44 2.21 2.76c0 0 7.93 4.24 11.33 4.45 0 0 7.93 3.27 18.2 1.48l4.84-.68s1.36-2.58 1.8-2.83l2.61-9.86 3.69.27s-.3 1.06 2.55 1.65l42.32 14.4s1.91-.76.38 10.31l-.38 36.47s1.85.72 2.67 2.4c0 0 21.64 9.06 24.95 7.72 0 0 16.48-.64 17.63-4.65 0 0 3.18-7.81 4.5-10.56l9.89-22.15s.16-5.57 4.65-5.54l54.24.78s1.78-.34 1.87.89c0 0 1.15 7.26 7.13 11.46 0 0 .71.6-.65 1.63 0 0-12.25 11.01-29.18 36.09 0 0-14.13 18.97-13.49 37.17 0 0-1.78 16.42 9.55 45.31 0 0 1.91 1.91-4.07 8.02 0 0-4.84 14.89 1.4 23.68l4.71 7.64s1.27-2.42-17.06 10.18c0 0-29.28.51-38.31 9.29 0 0-6.87 5.47-6.87 7.64 0 0-1.4 0-2.04 2.67 0 0-2.55 6.87-2.67 12.98 0 0-3.18 1.91-3.82 7.38 0 0-2.16 12.98 1.15 17.44 0 0 2.16 4.45 19.22 8.66-.03-.01 22.62 4.82 29.69 4.25" class="st0"/><path fill="#96948f" d="M421.11 904.39s-1.65-.06-.7-4.96c0 0 1.53-16.4 22.23-20.05 0 0 19.26-5.01 30.72 4.24l11.2 6.36s-23.42-12.13-46.16-2.89c0 0-9.67 4.33-11.03 18.33z"/><path fill="#565753" d="M427.37 905.43s50.24 9.84 65.17-3.82c0 0-.42-5.35-7.98-11.63 0 0-27.24-12.84-48.5-1.42.01.01-7.42 4.4-8.69 16.87"/><path fill="#353632" d="M492.54 901.61s3.1 3.64 2.59 7.25c0 0 2.42-.21 2.42-9.62 0 0 10.31 2.55 25.97-12.73 0 0 1.15-2.74-2.29-6.87 0 0-3.82-9.16-11.54-10.95 0 0 21.72 12.22 64.75.89 0 0 5.22 12.35 5.35 28.51l-8.91 3.27s-22.78 6.15-32.84 6.41c0 0-20.37 3.56-30.68 7.13 0 0-44.49 5.98-73.51-4.14 0 0-7.32-3.12-6.47-4.9v-.42c-.01-.01 49.08 9.87 65.16-3.83"/><path fill="#3a372b" d="M420.58 904.04s-3 5.15 12.63 6.43c0 0-6.22-2.38-5.84-5.04 0 0-6.55-.93-6.79-1.39"/><path fill="#3a3836" d="M472.22 880.59s29.01 8.63 23.58 27.83c0 0 1.94-2.75 1.75-9.18 0 0 10.76 2.67 25.97-12.73 0 0 1.08-2.55-2.29-6.87 0 0-4.52-9.41-11.27-10.88 0 0 13.3 7.06 8.72 13.49 0 0-7.7 7.13-11.26 3.69 0 0-4.84-8.46-16.29-11.77 0 0 14.26 9.93 14.64 13.56 0 0-5.57 6.85-9.99 5.47-.02-.01-13.25-13.95-23.56-12.61"/><path fill="#f6d365" d="M473.04 869.9s-8.91 1.53-3.05 4.26c0 0 6.56.45 14.19 5.47 0 0 6.94 3.37 10.69 9.8 0 0 5.43 2.64 6.11-2.16 0 0 1.25-1.46-3.04-5.54.01 0-10.39-10.43-24.9-11.83m9.55-3.79s-2-.35-.25-1.91c0 0 2.45-2.13 4.45-1.11 0 0 21.16 7.54 27.3 12.35 0 0 3.54 1.5.78 5.63 0 0-2.95 3.63-5.84-.25 0 0-9.32-7.96-14.7-10.02 0-.01-11.04-4.79-11.74-4.69"/><path d="M569.38 870.82s6.34 19.57 3.63 29.75l6.77-2.48s-.32-16.93-5.35-28.51z" class="st7"/><path fill="#ffd52e" d="M415.96 911.71s-.51-4.7 4.96-1.24c0 0 28.66 16 82.62 9.51 0 0 19.34-2.8 23.03-5.09l53.21-10.85s3.05-.73 1.87 7.5c0 0-.17 10.35-7.89 11.2 0 0-12.9 3.31-30.46 3.82 0 0-6.28-5.35-15.27-1.78 0 0-26.67 11.37-68.06 8.51 0 0-31.52-1.85-42.85-8.97-.16-.04-.39-.12-.62-.3-.33-.27-.54-.7-.66-2.21-.04-.54-.07-1.28-.04-2.16.04-2.65.1-5.3.16-7.94"/><path fill="#daa528" d="M741.81 928s-2.55 13.87 3.69 16.8c0 0 15.91 9.8 65.17 4.84 0 0 25.08-1.27 30.93-16.04 0 0 4.96-13.87 5.35-31.82l.76-11.46s2.67 13.75 5.22 4.96c0 0 4.15-4.52 3.95-20.37 0 0 .32-5.54-3.05-9.55 0 0-4.65-7.89-4.52-5.66 0 0-.06 11.46-5.73 28.38l-4.73 23.61s-2.63 15.78-10.78 20.11c0 0-8.91 5.52-40.22 4.33-.01.02-29.75-.17-46.04-8.13"/><path fill="#908e89" d="M744.65 922.23s3.14-30.89 43.96-23.42c1.22.3 11.89 2.96 14.03 6.12.13.19.25.42.18.62-.43 1.29-7.44-.58-16.04-1.43-14.44-1.42-21.08 1.28-23.21 2.24-1.58.71-2.83 1.44-3.65 1.95-1.25 1.02-2.66 2.32-3.9 4.04-2.04 2.81-4.24 7.2-4.92 13.52 0 .01-5.35-1.77-6.45-3.64"/><path fill="#575553" d="M751.1 925.88s43.45 9.08 66.36-2.29c0 0 9.25-5.77-2.46-14.51 0 0-11.51-8.39-15.3-6.4 0 0 4.92 2.67 2.44 3.27l-16.66-1.94s-15.84-2.1-24.85 3.89c-.01-.01-8 4.59-9.53 17.98"/><path d="M835.7 841.53s-.72-1.95-1.15.81c0 0-.04 16-22.27 33.39 0 0 9.93 4.75 5.69 13.83 0 0 2.38 6.45-2.63 9.76l-19.26-4.84 18.41 7.38-26.48-7.81s10.81 7.84 12.07 8.46c0 0 4.91-.45 11.78 4.78 0 0 10.88 3.8 8.28 13.4 0 0 .08 4.27-16.49 7.19 0 0-24.77 3.53-44.3-.59l-8.25-1.41s-6.75-1.91-6.45-3.65c0 0-.53 3.48-.01 4.58 0 0 21.14 9.42 61.02 5.18 0 0 23.76.68 28.09-12.9l9.25-49.51s4.45-8.21 2.48-12.86c0 0-9.32-14.53-9.78-15.19" class="st12"/><path d="M842.72 871.07s-3.88-15.92-5.41-17.24c0 0-3.2-5.73-3.04-9.1 0 0 .23-5.22 1.2-3.65l9.5 14.84s2.02 2.06.07 8.77c0 .01-2.3 4.82-2.32 6.38" class="st7"/><path fill="#e2c46d" d="M785.21 890.96s12.28.06 22.72 5.22c0 0 7 4.2 7.38-1.65 0 0 .7-3.82-4.2-4.07 0 0-14.77-6.17-32.27-3.88 0 0-11.84 1.27-12.92 4.2 0 0-2.93 2.8.7 1.97.01-.01 11.08-2.93 18.59-1.79"/><path fill="#dac369" d="M796.5 881.63s6.62-4.84 14.13-3.56c0 0 6.39.59 4.72 6.36 0 0 .11 1.78-3.62.42 0 0-14.72-2.97-15.23-3.22"/><path d="M483.48 847.62a14.5 14.5 0 0 1-2.31-3.2c-.38-.45-1.1-1.25-1.36-1.1-.31.18.23 1.65.42 2.13.27 1.18.78 2.71 1.79 4.28 2.09 3.23 5.16 4.77 9.74 7 1.37.67 3.12 1.45 5.22 2.23 3.96 1.2 8.13 2.36 12.51 3.34 8.04 1.8 19.66 3.85 33.95 4.87 0 0 24.8.76 35.24-7.64 0 0 7.09-4.96 4.19-15.85 0 0-1.27-8.31-4.77-6.75 0 0-27.16 17.25-37.86 9.86 0 0 16.34.93 34.35-13.83 0 0 8.59-7.64 6.55-12.9l-5.09-16.46s-2.29 3.22-17.06 5.01c0 0 9.16 19.35 4.24 24.78 0 0-.25.85-.17-3.9 0 0-1.19-6.02-2.97-11.37l-3.05-8.91s-4.92-.68.42-3.39c0 0 13.67-1.87 26.1-11.63 0 0 2.07-1.87-1.66-1.53l-19.69-.04-4.16 12.35 1.53-11.54s-9.25 1.36-11.2-1.87c0 0-8.91-2.46-9.42-5.26 0 0 17.27 6.79 20.64 5.58 0 0 3.5-3.44 8.85-3.25 0 0 14.81 2.42 40.09-17.01l23.84-14.26s-11.54-6.11-16.21-4.67c0 0-4.84 2.04-13.32-1.61l-25.2-7.72s11.46.42 24.86 5.35c0 0 8.32 3.14 16.29 2.38 0 0-1.61-2.04-3.82-3.22 0 0-8.06-4.58-9.25-5.6 0 0-6.7-5.52-7.55-5.69 0 0 .42-1.7 10.78 3.9 0 0 9.76 6.36 14.43 6.11 0 0 16.21 8.57 19.77 8.99 0 0 15.06 4.6 30.31 30.75l.11.19 10.57 15.92s11.77 21.38 18.33 29.02c0 0 7.51 13.05 37.93 24.5 0 0 20.62 3.75 23.48 4.01 0 0-18.58 1.85-22.27 0 0 0 2.67 19.03 30.36 19.09 0 0 23.04.06 37.68-11.01 0 0 15.36-10.65 18.75-25.33 0 0 5.3-17.31-6.28-30.29 0 0-5.35-5.73-13.75-6.49 0 0 7.13 12.22.64 19.22 0 0-.64-12.09-1.85-14.89l-4.9-16.42s-1.46-5.73-5.28-8.08c0 0-1.02 25.84-4.39 31.5 0 0 2.1-16.93 1.02-19.41 0 0-.83-1.97-1.53 1.34l-5.98 13.62s1.02-6.24 4.71-15.02c0 0 1.15-1.65 1.66-5.6l.05-22.97s-.06-11.58-1.02-14.45c0 0-.89-7.38.45-10.12 0 0 2.74-8.4 3.56-17.63 0 0 .89-19.03-.13-22.85 0 0-.38-8.97-2.48-7.57 0 0 .11 2.97-39.27 7.98 0 0-1.61 17.23 16.63 27.15 0 0 4.5 3.05 9.84 3.99 0 0-12.73 1.61-23.42-12.47 0 0-5.69-8.74-5.18-17.99l-14.17 1.27s-.17 1.95.25 2.89c0 0-7.21 2.21-6.19.34 0 0 .93-1.02 3.05-1.61l1.02-9.5s1.95-11.2-1.87-8.49l-9.84 2.21s-1.19-.42-.93 3.14c0 0 .21 10.52-1.57 11.63 0 0-.08 5.73-3.69 4.03 0 0 3.31-4.54.81-4.41 0 0-37.17-.59-60.59-5.05l-16.04 4.33s-2.93 8.85.64 9.74c0 0 19.92 2.1 26.03 1.78l13.87.32s-4.14 3.75-29.15 2.04c0 0-12.22-1.59-12.79-2.42 0 0 0 6.81.89 10.44l37.74-1.34s30.36-2.74 45.12-6.81c0 0 12.79-3.5 16.42-5.86 0 0 2.93-2.1 3.44.19 0 0 5.35 18.31 20.37 27.3 0 0-4.07 20.17 1.53 42.99 0 0 4.71 18.36-4.96 34.02 0 0-11.2 17.57-43.28 7.51 0 0-14.64-2.67-24.31-22.02 0 0-14.64-28-22.91-34.88l24.31 12.35s-21.64-28.26-29.53-33.86c0 0 20.24-2.55 27.88-6.49 0 0-50.15-9.55-50.66-10.95 0 0-1.15-1.15-1.18-1.56 0 0 2.64 15.85 7.51 22.97 0 0 1.3 3.4-2.58.25 0 0-1.81-.8-2.58-4.96l-3.53-12.25s-.28-1.15-2.02-.85c0 0-19.54-3.19-20-8.49 0-.03 0-.06-.01-.08 0 0 1.68 2.76 18.94 6.36 0 0 2.98.92 2.31-.83 0 0-1.75-10.21-1.15-14.29 0 0 .19-.92-2.1-1.08l-9.39-2.55s-2.42-.99-4.49 1.81l-5.28 4.49s-1.42 1.88.91 9.18c0 0 5.94 12.69 10.73 19.01 0 0-10.14-6.7-13.24-19.3 0 0-2.42-4.58-1.53-7.64 0 0-22.02 17.57-45.95 7 0 0 .25-1.72-10.88-2.04 0 0-10.25.32-14.32-3.95 0 0-5.79-3.75-7.26-7.19 0 0-1.46-1.27-6.68-1.02 0 0-8.27-1.85-12.98-7.26l-19.35 36.91s7.74-16.87 24.63-10.59c0 0 18.58 6.96 24.18 12.73 0 0 10.61 7.55 12.13 8.66l-1.53-1.1s15.02 7.89 11.8 10.44c0 0-8.91 9.84-17.4 13.32 0 0-20.8 8.49-5.9 14.43l3.78 1.06s1.7 2.93 8.4 2.59L530 805.4s18.92 7.13 17.48 18.5c0 0 .93 9.08-6.96 12.47 0 0 13.92 5.52 16.72 6.11 0 0-4.18 4.2-17.23 3.95 0 0-1.53.98 5.86 2.42 0 0 7.72.13 17.73-4.16 0 0-.17 10.2-7.93 11.29 0 0-15.53 7.26-53.08-.25-2.02-.18-4.38-.58-6.95-1.37-5.58-1.76-9.65-4.61-12.16-6.74" class="st15"/><path d="M563.65 844.67s2.04 1.15 1.02 10.44c0 0 1.53 1.32 1.99-1.49 0 0 .72-6.41-1.19-9.33 0 0-1.31-.76-1.82.38" class="st0"/><path fill="#fee556" d="M515.68 705.82s-12.92 16.1-18.9 23.61l-15.91 25.46s-7.89 13.24-4.33 31.44c0 0 .64 11.58 7.13 30.17l3.18 11.01s-.19 3.44 1.08 6.68c0 0-4.07-1.59-3.5-5.66 0 0-6.66 2.82-4.62 14.79 0 0-.07-.92 1.03.73 0 0 .93-12.35 3.13-10.99 0 0 6.36 6.45 4.75.08 0 0 .76-6.7-1.95-13.49 0 0-5.94-18.75-5.69-33.86 0 0-1.9-20.72 7.98-34.37l12.56-18.76z"/><path fill="#f9cb0e" d="M496.34 742.74s6.26-14.03 20.24-11.76c0 0 14.89 4.91 23.6 10.17 0 0 3.46 2.12 5.21 3.9l11.21 7.99s4.8 2.29 6.68 3.94l3.41 2.77s2.57 2.17.55 3.46c0 0-7.81 7.99-11.34 9.81 0 0-4.56 2.74-5.91 3.24s-5 2.54-5 2.54-4.94 3.16-5.65 5.06-.35 2.51-.35 2.51.74 3.45 8.07 5.03.98.28.98.28.77 2.12 6.63 2.6c0 0 1.55.01 1.58 0s-5.64 2.44-5.64 2.44l-20.56 8.66s17.51 7.17 17.55 17.74c0 0 .7 6.05-2 8.98s-2.67 3.23-5.02 4.25l16.72 6.11s-3.22 4.2-17.23 3.95c0 0 .54 1.83 5.86 2.36.18.02.37.04.57.05 5.85.45 15.03-2.97 17.16-4.15 0 0 .42 7.6-5.92 10.75l-4.45 1.39s-13.91 4.67-40.78.62l-10.32-1.77s-8.67-1.06-13.43-4.34c0 0-6.37-3.51-7.92-7.28 0 0 .67-8.43 2.03-10.51.06-.09.12-.18.19-.24 0 0 .35-.92 1.41.23s1.32 1.14 1.32 1.14 2.22 2.12 3.1.83c0 0 .13-.66-.14-2.59 0 0 .11-5.74-.43-7.77 0 0-.71-3.25-1.66-5.89-.02-.05-.03-.09-.05-.14-.98-2.66-2.15-8.03-2.15-8.03l-1.39-6.39-1.49-9.6-.5-8.29-.14-5s.22-8.39.51-8.75c0 0 1.45-8.49 1.63-8.55s1.82-6.61 2.51-7.05c.68-.44 1.52-3.84 3.94-6.73s5.31-7.93 5.31-7.93l4.44-6.63 1.92-2.69z"/><path d="M482.65 771.63s-2.86 12.22 3.63 18.2c0 0 3.37 5.92 12.92 4.39 0 0 2.74-2.23-7-9.83 0 0-7.76-8.18-8.46-12.06 0 0-.71-2.95-1.09-.7" class="st15"/><path fill="#f6c813" d="m641.22 728.51.03-.6s34-.74 45.61-2.14c0 0 41.73-4.68 52.6-11.26 0 0 3.93-3.08 4.5-.41 0 0 4.84 18.65 20.37 27.3 0 0-3.4 16.21-.09 34.96 0 0 4.71 18.38 2.27 26.04 0 0-1.32 19.79-17.45 24.45 0 0-14.11 6.41-36.72-2.86 0 0-13.05-6.47-18.04-18.18 0 0-12.46-22.94-17.13-28.85l-6.78-7.94 24.31 12.35s-18.8-24.78-29.53-33.86c0 0 22.27-3.31 27.88-6.49 0 0-46.81-9.03-49.92-10.56 0 0-.63-.2-.72-.35-.09-.16-.02-.03-.02-.03s-1.14-1.33-1.17-1.57"/><path fill="#fede4b" d="M787.02 698.73s2.77 11.17 2.2 19.19c0 0 .06 18.07-3.75 26.86 0 0-2.16 4.71-.57 11.46 0 0 1.46 15.47 1.59 22.91 0 0 .32 25.08-1.15 29.66 0 0 1.62.43 3.96-7.17 0 0 3.17-6.39 3.18-12.18l-.14-27.18s-1.95-12.46-.85-16.11l2-7.16s1.95-10.12 2.04-12.27l.35-13.11s.11-7.19-.37-8.88-.12-.57-.12-.57-.53-8.51-2.18-7.71c-1.64.8-.31.13-.31.13s-.24 1.43-5.88 2.13"/><path fill="#fad121" d="m786.66 811.53 5.12-11.66s1.37-4.47 1.95-1.62c0 0 .58 9.42-.28 10.87 0 .01-4.89 6.29-6.79 2.41"/><path fill="#fbd31e" d="M796.98 785.76s4.6 2.47 8.02 17.2l.06.24c3.43 14.94 3.89 9.48 3.44 21.06 0 0-.7 2.93-2.04-.7 0 0-4.62-10.73-7.96-13.68 0 0-2.55 6.68-5.92 7.38 0 0 4.17-11.9 3.9-23.16z" opacity=".38"/><path fill="#fcf060" d="M810.48 810.71s8.78-.38 10.75 10.31c0 0 7.76 5.03 1.72 26.35 0 0-2.72 11.17-5.66 14.01 0 0 17.43-15.56 10.97-37.9 0 0-3.5-15.89-19.88-17.54z"/><path fill="#f9c313" d="M764.25 865.21s37.93-.99 44.13-31.55c0 0 2.8.15 2.12 6.01 0-.01-4.92 32.83-46.25 25.54"/><path fill="#44190d" d="M749.57 861.75s17.66 8.57 42.5-4.91c0 0 7.65-5.01 10.45-9.62 0 0-1.84-2.29-7.32 4.84 0-.01-9.48 12.43-45.63 9.69"/><path d="M712.34 829.29s23.23 16.99 47.54-1.27c0 0-2.23 5.66-7.32 7.7 0 0-6.36 3.69-21.89 3.5 0 0-17.45-4.15-18.33-9.93m-220.99 2.74s18.07 14.93 45.06 10.18c0 0-27.66-2.63-43.87-10.18 0 0-1.36-.49-1.19 0" class="st0"/><path fill="#d4a746" d="M626.17 711.17s12.22 2.35 12.54 3.56c0 0 .45-9.36.95-9.74 0 0-3.5-2.8-7.19 1.08z"/><path fill="#42423d" d="M673.84 698.25s38.95-2.16 45.7-4.71v8.78c-.01 0-47.49-1.52-45.7-4.07m65.17-8.53-.32 11.2s31.95-1.85 48.88-7.83l.7-11.52c-8.31 2.44-15.16 3.5-19.92 4.01-7.13.77-13.71.76-24.31 2.93-2.27.47-4.13.91-5.35 1.21"/><path fill="#898659" d="M787.57 693.1s6.27-1.4 6.21-2.64l.64-11.26-6.14 2.39z"/><path fill="#94928f" d="M512.18 687.69s19.6 1.78 26.48-.64c0 0-12.6 6.75.89 11.71 0 0 26.73.76 31.18.89 0 0-14.89 3.31-23.55 6.17 0 0-9.67 3.5-21.89-.95 0 0-9.03-6.11-13.11-17.18"/><path fill="#838382" d="M565.96 704.02s-19.35 8.8-24.76 7.66c0 0 3.63 8.02 23.04 7.38l21.77-5.6s3.37-1.08 0 1.72l-10.95 4.9s-2.93 2.23 1.21 2.67c0 0 12.03 3.12 28-4.01 0 0 20.17-12.79 22.85-16.29 0 0 10.25-8.02 14.43-10.26.12-.06.23-.12.33-.17 3.95-1.97 2.16-2.93-1.65-1.59 0 0-7.32 3.95-8.4 1.46 0 0-1.85.45-4.39-10.88 0 0-2.29-18.01-3.63-14.26l-1.46 2.67s1.27 10.44-.83 14.19c0 0-7.51 12.6-32.33 22.21 0 0-1.05-1.18-4.58.29 0 0-13.45 6.69-18.65-2.09"/><path fill="#b4b3b0" d="M538.66 687.05s26.86-15.27 32.08-30.93c0 0 3.69-5.98-15.15-11.07 0 0-20.24-3.82-13.49-21.89 0 0 6.11-3.05 14.26 6.49 0 0 5.86 6.11 21.26 2.29 0 0 12.73-4.58 31.82 6.62 0 0 2.67 1.02 5.73.25l6.75 2.67s1.4.13 0 3.56c0 0-4.97 18.28.51 24.92 0 0 2.41 11.1-2.98 16.4 0 0-8.34 10.61-30.24 19.46 0 0-1.46-1.21-4.58.29 0 0-13.68 6.8-18.65-2.09l5.35-3.22s1.21-1.27-1.4-.64l-4.18.65 5.39-1.16-30.87-.87s-10.48-2.18-5.69-8.45z"/><path d="M543.11 622.69s2.55-6.22 8.91-2.53c0 0 7.96 10.12 27.81 6.75 0 0 11.52-1.85 16.04 1.21l14.32 5.03 4.96 5.66s-3.87 1.75-12.47-3.71c0 0-12.77-5.91-22.36-3.78 0 0-12.73 4.46-21.7-.14 0 0-1.86-1.07-2.41-1.69.01 0-5.2-7.14-13.1-6.8" class="st31"/><path fill="#dfaa35" d="M761.66 679.19s-4.14 2.26.89 1.18c0 0 23.87-2.93 30.48-6.56 0 0 5.41-1.97 8.08-7 0 0 2.99-9.8 4.52-12.16l-15.66 14s-9.1 5.6-7.76 0c0 0 1.4-6.62-2.16-1.91.01.01-6.42 6.82-18.39 12.45"/><path fill="#51514e" d="M681.77 692.52c13.1-3.44 26.19-6.87 39.29-10.31 0 0 36.66-10.69 57.91-30.17l12.6-6.87 5.73-5.73s2.29 3.44-2.29 9.8c0 0-4.36 6.87-4.03 9.93 0 0-4.12 3.95-1.96-2.29l3.05-9.55s-25.46 25.46-42.64 29.53c-7.26 2.58-15.07 5.05-23.42 7.28-16 4.28-30.91 6.87-44.24 8.38"/><path fill="#5e605e" d="M792.93 657.99s17.48-26.31 20.37-37.51c0 0 22.32-16.8 28.85-27.15 0 0 1.36 6.96 0 10.1l-25.46 25.97s-1.02-1.27 2.12-5.86c0 0 9.16-8.49 8.83-8.49S815 621.58 815 621.58s-1.95 1.95-3.05 7.47c-.01 0-6.63 21.81-19.02 28.94"/><path d="M637.94 671.14s-5.1 10.25-4.2 17.95c0 0 9.42 1.78 13.49-3.95 0 0 2.86 3.18-6.01 14.26 0 0 5.76-.12 11.87-2.99 0 0 7.13-3.76 24.06-3.31 0 0 3.61.28 4.62-.57l38.78-10.18s24.08-7.62 34.53-14.12c0 0 15.87-8.54 23.89-16.18l12.6-6.87 5.73-5.73s2.23 3.56-2.29 9.8c0 0-4.49 6.62-4.03 9.93l1.95-1.19 9.71-15.59s10.36-17.27 10.65-21.92c0 0 22.4-16.89 28.85-27.15-2.14-5.17-5.45-12.12-10.52-19.69-11.44-17.06-24.55-26.41-33.75-32.84-11.92-8.33-22.02-15.21-36.98-16.89-4.81-.54-8.85-.4-11.65-.17 0 0-3.42 1.4 3.37 3.05 0 0 57.36 17.48 63.98 48.62 0 0-5.43-2.93-2.76 6.11 0 0-3.69 12.47-3.05 3.31 0 0-1.78-15.66-2.16-7.38 0 0-.76 32.25-20.49 48.2 0 0 11.63-27.71 4.79-19.69 0 0-1.23 9.29-13.45 21.51 0 0 6.24-27.24 2.67-20.24 0 0-4.71 19.22-23.93 35 0 0-20.37 12.09-15.53 8.78 0 0 13.49-9.93 16.04-17.18l6.49-7s-21.38 22.53-39.97 27.81c0 0-50.15 19.16-63.52 16.61 0 0 49.64-11.58 60.33-19.6 0 0-16.55 5.22-17.31 5.6s15.4-9.04 15.4-9.04-34.76 23.54-76.06 18.01c.03.01-4.36.7-6.14 4.92" class="st12"/><path fill="#59595c" d="M613.89 632.11s10.1 5.09 16.89 4.58c0 0-5.18 8.15-5.09 25.97 0 0-.08-4.41 5.09-6.53 0 0-.13 24.35 2.86 30.12 0 0 2.34-21.09 11.49-19.88 0 0 31.5 4.5 64.35-12.16l-4.25 2.89 16.56-5.21s-24.46 12-60.03 19.38c0 0 9.96 2.89 50.55-11.92 0 0 22.05-8.06 26.4-10.86 0 0 17.83-11.7 22.72-17.52l-6.38 8.78-12.92 11.71s15.8-7.82 19.69-12.01c0 0 16.21-16.17 20.37-32.2 0 0 2.82-5.36-.29 8.99l-2.39 11.25s9.21-7.26 13.45-21.51c0 0 3.55-4.17 1.81 1.45l-6.61 18.24s11.65-10.9 16.33-25.6c0 0 4.3-16.2 4.27-24.07 0 0-.18-3.25 1 1.4 0 0 1.08 7.88 1.09 10.51 0 0 .51 1.23 1.76-2.57l1.26-3.8s-2.67-8.4 2.76-6.11c0 0-2.25-13.98-20.51-27.18 0 0-17.1-12.05-32.67-17.54L748 525.03s-16.48 26.6-15.91 30.99c0 0 25.97 11.84 26.92 16.04 0 0 4.77 2.86-10.31 1.15 0 0-24.82-6.17-54.61 6.05 0 0-28 15.02-45.95 33.35-.01-.02-23.18 22.08-34.25 19.5"/><path fill="#8e8f8c" d="M614.38 632.35s-1.17-1.18-.81-2.56c.32-1.23 1.86-2.61 6.55-3.45 0 0 3.82 4.07 40.99-31.57 0 0 28.38-29.15 65.68-30.55 0 0 16.39-.9 30.54 5.72 0 0 3.33 3.19 1.9 3.46 0 0-32.1-3.38-40.61-.81 0 0-19.44 1.24-39.17 15.39l-23.9 17.64s-21.4 20.92-30.14 23.79c.01.01-5.57 3.35-11.03 2.94"/><path fill="#868785" d="M749.25 523.74s-4.96-3.82-27.68 35.7c0 0 17.84-1.03 26.8 4.73l-16.3-8.17s1.88-7.56 4.62-11.43c0 .01 10.08-18.98 12.56-20.83"/><path fill="#fece08" d="M741.84 518.91s42.35-11.86 91.04 45.27c0 0 16.99 18.5 16.48 36.19 0 0-.06 6.17 2.16 2.48 0 0 11.24-12.24 9.89-18.1 0 0-5.69-45.48-64.49-71.96 0 0-36.98-16.17-49-5.09 0 .01-6.69 9.59-6.08 11.21"/><path d="m862.6 586.54 9.42-14.3s15.91-24.06 20.49-36.02c0 0 13.87-32.71 10.69-60.46 0 0-1.82-35.26-20.06-47.99 0 0-13.28-18.33-52.87-11.46l-8.53 3.31s29.15-19.86 60.97 2.55c0 0 3.05 1.78-1.65-4.96 0 0-23.8-32.33-34.37-39.08 0 0-17.95 25.46-63.26 54.73 0 0-34.62 21.38-52.57 27.62 0 0-14.64-29.02-17.57-26.73l-16.67 26.22s-6.36 15.27-10.06 34.49c0 0-.78 2.35-3.67 1.46 0 0-16.76-2.99-17.71-7.19 0 0-.51-2.8.64-6.92 0 0 2.38-19.69 11.8-35.13 0 0 6.53-6.07 5.3-8.57 0 0-6.75-18.84-10.99-26.31 0 0-1.95-9.42-4.75-11.29 0 0-6.79-10.69-6.62-5.18l-8.83 32.42s-.25 2.46 2.04-.68c0 0 12.13-12.3 16.46-8.32 0 0 6.36 8.49 9.84 21.47 0 0-.68.34-3.73-6.36 0 0-8.4-14-9.67-10.86 0 0-23 16.38-23.17 21.64 0 0 14.43 10.69 17.06 23.93 0 0 6.89 12.77-.4 38.9-.04.13-.07.26-.11.39-7.47 26.39-29.19 29.87-29.19 29.87l-11.37 46.76s-6.62 30.51-8.52 36.5c-.05.15-.09.29-.14.41-1.7 4.84 3.99.08 9.16-2.42 5.18-2.5 13.15-8.69 35.72-29.91 0 0 22.4-22.33 44.8-27.15l14.72-2.89s10.32-25.71 18.46-32.92c0 0 .68-14.26 5.94-18.24 0 0 10.18-14.09 16.29-18.33 0 0 4.75-4.33 6.7-11.46s.17-.85.08-.42 4.41-18.16 13.66-28.6l-2.89 7.81 9.33-11.63s-10.95 8.23-14.17 30.8c0 0 12.22-25.88 25.97-30.29 0 0-8.99 5.35-21.21 25.63a56 56 0 0 0-2.21 4.67c-1.47 3.5-1.64 4.91-2.72 7.09-.75 1.53-2.07 3.7-4.5 5.98-1.7 1.41-3.47 3.13-5.35 5.07-2.82 2.92-5.94 6.59-7.13 9.63 0 0 16.63-8.09 53.29 10.41 0 0 19.86 9.7 28.09 20.11 4.64 3.77 7.87 7.37 9.98 10.02 1.83 2.3 3.13 4.25 5.64 8.03 2.76 4.17 4.94 7.7 6.45 10.2 1.48 2.22 3.02 4.96 7.67 23.95" class="st39"/><path fill="#db9a28" d="M839.48 540.75s38.88-35.03 33.11-93.57c0 0-6.3-29.91-26.92-31.25l-9.1-.53s28.64-5.21 45.6 11.25c0 0 13.97 24.48 14.22 44.84.17 3.41.27 8.05.03 13.56-.24 5.45-.73 15.39-3.92 27.79-1.55 6.02-4.06 13.86-8.26 22.61-2.19 4.32-4.54 8.72-7.05 13.21-4.3 7.69-10.14 17.55-16.33 26.24-1.99-4.69-4.51-9.85-7.72-15.26-4.52-7.62-9.3-13.89-13.66-18.89"/><path fill="#fee12f" d="m862.6 586.54 10.56-16.04s25.68-31.29 30.15-77.78c0 0 3.43-38.39-15.01-60.32l-5.8-5.15s5.94 11.87 7.7 16.75c0 0 8.73 21.97 6.16 41.7 0 0-1.94 34.23-12.5 50.53 0 0-19.01 36.12-23 38.68 0-.01 2.12 9.38 1.74 11.63"/><path fill="#dba027" d="m839.94 544.45-10.51 15.79s20.2 19.94 19.94 40.73c0 0 .25 5.87 3.17.72 0 0 10.3-10.65 8.87-16.94 0 .01-4.02-23.45-21.47-40.3"/><path fill="#fee033" d="m859.17 576.28-9.8 21.2s-.44 9.06 2.07 5.8c0 0 11.76-13.7 9.98-18.53 0 0-1.82-7.96-2.29-8.6"/><path d="M872.23 416.18s9.48 5.3 9.98 5.64 3.5 1.87-.2-3.2c0 0-21.96-31.75-35.32-40.49l-3.62 4.57s22.92 22.74 29.16 33.48z" class="st44"/><path d="M845.68 411.73s15.18-1.66 26.55 4.45c0 0-12.21-17.8-29.16-33.48 0 0-30.27 32.74-50.68 44.19 0 0-37.3 25.15-61.52 33.59 0 0-14.98-29.74-17.57-26.73 0 0-7.7 8.78-16.67 26.22 0 0 15.85-12.73 18.97-13.17 0 0 1.27-.95 2.67 2.8l10.69 19.41s1.15 2.8 3.5.7c0 0 32.39-17.5 35.36-20.39 0 0 17.82-13.24 23.51-16.55 0 0 11.37-7.45 14-10.47 0 0 11.37-8.2 12.64-8.2 0 0 14.34-11.12 16.55-14.93-.01 0 12.73 7.3 11.16 12.56" class="st45"/><path d="M751.52 503.83s8.01-2.21 15.5-1.58c0 0 8.6-11.51 9.95-22.03 0 0 7.72-26.35 22.11-34.88 0 0-7.88.28-18.96 15.86 0 0-10.19 14.57-11.14 20.87 0 0-.81 4.91-6.77 8.62 0 0-8.54 8.11-10.69 13.14z" class="st44"/><path d="m610.74 621.68 5.99-24.7 8.66-36.74 5.47-22.5s20.42-4.75 27.52-24.9c0 0 11.5-30.11-1.44-53.31 0 0-7.67-11.06-13.44-14.88 0 0-4.07-.68 23.17-21.64 0 0 .36-1.03 1.86.21 0 0 9.17 10.19 11.68 18.67 0 0-1.48 2.16-4.92-3.56 0 0-5.35-7.55-7.04-4.96 0 0-10.39 8.7-9.12 13.15 0 0 5.73 16.12 6.36 19.26 0 0 1.18 6.13 2.54 4.91 0 0-4.5 17.35-2.34 19.01 0 0 6.67 5.02 5.65 8.08 0 0-2.38 15.95-3.9 19.47 0 0-4.92 11.67-7.55 15.66 0 0 3.39 1.15 4.07 1.53 0 0 20.11 10.35 41.92 8.32 0 0 12.81-2.72 21.64-17.74 0 0 3.16-15.97 8.63-21.77 0 0 11.52-12.47 14.64-19.03 0 0 18.99-34.22 23.91-35.49l-7.24 15.3-4.53 12.93s-2.61 9.73-8.91 14.13c0 0-13.17 13.23-15.12 17.47 0 0-5.18 6.45-4.58 17.39 0 0-7.98 6.53-19.05 33.52 0 0-27.18.35-51.77 22.72 0 0-26.76 24.55-33.47 30.66-.02-.01-22.52 15.38-19.29 8.83" class="st45"/><path d="m643.42 575.93 6.11-24.44s6.24-4.2 8.78-3.56l28.89 12.31s2.04 1.05-3.82 3.09c0 0-33.6 17.95-41.11 25.2 0 0-1.29-2.87 1.15-12.6" class="st39"/><path d="M653.26 537.32s34.54 13.07 38.02 15.36c0 0-13.92-9.25-27.58-14.09 0 0-3.56-2.38-6.96-2.21l-4.07-.01z" class="st0"/><path d="M666.52 486s-.95 3.15.29 3.37c0 0 16.13 4.55 17.12 5.16 0 0 4.93-19.28 6.01-21.26 0 0 8.85-21.77 9.74-22.91 0 0 6.68-12.22 12.47-16.48 0 0-12.73 1.59-20.11 9.67 0 0 4.45-8.27 4.58-9.67l-7.96 7.51s-7.64 3.95-12.92 17.69c.01 0-7.31 20.3-9.22 26.92" class="st39"/><path d="M670.98 472.54s-1.02 13.12-2.12 17.42c0 0-2.72-.41-2.7-1.35l.35-2.61z" class="st44"/><path d="M673.92 475.88s-2.93 4.71 3.56 8.19c0 0 7.34 1.23 6.83-6.36 0 0-.08-7.04-7.04-5.39 0 0-2.7 1.19-3.35 3.56" class="st0"/><path d="M674.92 476.88s-.4 4.96 4.5 5.39c0 0 3.01.08 3.08-4.54 0 0-.7-4.91-4.54-3.65-.01 0-1.77-.19-3.04 2.8" class="st39"/><path d="M682.21 453.13s-2 6.17 2.8 8.37c0 0 5.35 1.65 7.32-3.15 0 0 2.55-5.98-3.75-8.81-.01 0-4.53-.96-6.37 3.59" class="st0"/><path d="M683.47 454.78s-1.08 4.92 3.54 5.07c0 0 4.54-.23 3.61-5.07 0 0-.7-3.16-4.99-2.78 0 0-1.91.78-2.16 2.78" class="st39"/><path fill="#feef7a" d="M696.62 433.88s5.86-6.96 21.47-10.61c0 0 45.14-12.39 59.74-21.72 0 0-8.15 5.86-.85 4.33 0 0-41.83 18.67-55.58 22.91 0 0 12.13 17.9 13.66 24.95l-1.87.76s-9.76-21.04-16.12-24.69c0 0-5.05-3.57-18.99 8.95 0 0-4.37 2.48-5.97 4.66 0-.01 4.34-8.31 4.51-9.54"/><path fill="#dda027" d="M777.83 401.55s45.19-22.53 60.33-44.17c.75 2.07 1.46 4.6 1.87 7.52.86 6.18-.04 11.38-.93 14.76a176.6 176.6 0 0 1-31.61 29.4l-31.06 19.98s14.01-8.58 28.64-31.06c0 0 4.39-5.41-2.61-2.99 0 0-21.77 7.81-26.03 11.13 0 0-6.68.65 1.4-4.57"/><path fill="#f9da5f" d="M840.03 350.51s.38-1.4.89.55l4.37 17.18s.33.75.36 1.72c.06 1.69-1.39 3.09-1.38 3.1s.34-.45.31-.47c-.04-.03-.85 1.01-2.16 2.7-.82 1.05-1.96 2.53-3.33 4.36.35-1.44.64-3.03.89-4.76.39-2.7.66-6.05.21-8.64 0 0-.76-6.5-2.03-8.87 0 0 2.04-4.75 1.87-6.87"/><path fill="#ffcd07" d="M721.4 428.79s47.52-17.9 55.58-22.91c0 0 20.38-10.06 25.13-10.76 0 0 7.71-3.16 2.96 2.86 0 0-7.13 15.02-28.64 31.06l30.68-19.74s-13.47 11.47-32.42 22.86c0 0-32.88 19.6-39.63 21.57 0 .01-4.98-13.04-13.66-24.94"/><path d="M661.62 393.88s-4.33 12.38 7.19 19.76c0 0 6.27 5.53 7.72 7.99l-4.7-10.28s-1.21-7.15-4.34-10.57c0 0-.73-.74-1.35-1.8-.01-.01-2.73-4.11-4.52-5.1z" class="st44"/><path fill="#474748" d="m687.97 436.6-12.39-28.84s21.38 11.96 47.77 9.83c0 0-21.3-1.44-35.38 19.01"/><path fill="#7f8084" d="M673.45 272.57s.76 3.22-7.13 10.86c0 0-26.98 19.6-18.58 68.48 0 0 2.8 12.98 7.19 21.57 0 0-21.34-66.06 20.64-92.03.01.01-.72-10.45-2.12-8.88"/><path fill="#595955" d="M675.58 281.46s-1.1 3.84 4.67 4.94c0 0-16.29 1.36-22.74 19.52 0 0-10.35 23.08-.51 49.13 0 0 10.18 30.55 44.63 37 0 0 27.07 4.92 56.85-12.39 0 0 16.76-10.95 25.94-34.37 0 0 4.35-15.66-1.38-27.37 0 0-4.79-10.56-16.25-15.66 0 0 12.64-2.21 18.75-14.43 0 0 8.49-17.14 1.36-31.06l-4.67-7.47s19.18 8.99 18.24 33.09c0 0-2.04 13.24-10.35 22.74 0 0 10.1 18.24 3.73 42.3 0 0-2.42 9.04 2.93-.38 0 0 3.82-29.66 10.31-21.13 0 0 4.45.76 4.58 15.78 0 0-.76 16.55-9.93 27.11 0 0 8.4-15.91 4.58-23.29 0 0-4.24 22.88-21.91 37.15 0 0 7.28-6.73 5.88-12.33 0 0 0-2.04-2.42.25 0 0-27.62 19.98-39.97 20.87 0 0-24.06 15.27-57.79 5.6 0 0-18.07-9.04-25.2-16.55 0 0-12.36-11.36-14.39-28.21 0 0-5.03-26.83 5.7-49.2.01.04 3.4-11.65 19.36-21.64"/><path fill="#3d3e39" d="m651.27 357.38 3.4 15.57s11.91 27.58 43.35 35.6c0 0 27.24 7.38 65.04-11.2 0 0 16.58-8.39 21.36-14.65 0 0 9.57-11.82 4.61-12.97 0 0-19.28 14.6-32.45 19.34 0 0-4.04 1.81-8.14 2.37 0 0-38.27 20.9-71.33-1.68 0 0-20.15-11.25-25.84-32.38"/><path fill="#373836" d="M778.85 394.29s17.44-14.25 24.95-25.46c0 0 8.4-6.24 10.06-12.86 0 0 6.49-20.08-2.16-31.17 0 0 9.8 3.55 19.86-3.32l1.91 32.08s-1.4 3.05-4.96 5.98c-.02.01-25.22 21.39-49.66 34.75"/><path fill="#5f615b" d="m828.51 323.27-.7 36.85s5.01-4.31 5.65-6.55l-1.91-32.08z"/><path fill="#383a36" d="M765.61 239.01s3.31-3.69 10.56 0c0 0 25.71 13.87 34.11 23.42 0 0 17.95 14.89 21.64 22.02 0 0-9.04-10.95-20.24-1.27 0 0-10.31 8.78-8.15 28.13 0 0 1.17 7.85 5.74 16.78 0 0-4.77-6.71-6.91-1.9 0 0-3.02 4.47-4.44 14.04l-1.22 7.02s-4.46 7.41-3.24 2.05c0 0 3.08-9.25 2.4-21.68 0 0-.55-12.14-5.73-22.45 0 0 10.23-12.3 10.38-25.2 0 0-.01-11.21-6.11-19.69 0 0-4.86-7.29-12.16-10.94 0-.02-11.79-10.88-16.63-10.33"/><path fill="#928f8b" d="M813.13 287.59s9.93-10.69 16.72-1.1c0 0 4.5 3.56 2.89 17.74 0 0-1.87 11.96-13.32 15.7 0 0-11.29 2.72-12.64-6.11 0 0-1.7-9.76 2.8-21.64z"/><path d="M828.17 297.18s-3.63-9.61-10.18-1.97c0 0 3.5.19 3.69 8.78 0 0-.83 9.39-7.76 10.12 0 0 7.19-4.65 4.33-13.81 0 0-.76-3.75-1.4-1.91 0 0-4.26 8.97-3.44 2.55 0 0 .51-7.64 8.34-10.69-.01-.01 6.93-1.73 6.42 6.93" class="st0"/><path fill="#0f0c0a" d="M821.52 301.6s1.87 8.53.28 13.59c0 0-1.1.92-1.06-1.21 0 0 .09-4.87 0-5.82.01-.01 1.45-3.98.78-6.56" opacity=".51"/><path fill="#a3772b" d="M836.89 314.93s-.19 19.22 3.75 20.81c0 0 12.79 6.62 29.98 2.48l-3.18-5.73s-20.43-28.96-25.27-34.49l-8.72-13.49s-.64 3.5 5.16 11.65c0 0-2.29 14.25-1.72 18.77"/><path fill="#afaeab" d="M681.57 286.39s-6.23.32-5.99-4.93c0 0-.64-9.78.55-14.23 0 0 3.35-25.2 10.99-32.08 0 0 11.2-10.69 20.28-2.04 0 0 4.2 2.46 7.64 8.83 0 0 6.07 7.59 19.01 3.35 0 0 14.13-8.32 28.7-5.13 0 0 10.36 1.34 17.82 10.25 0 0 7.06 5.86 6.36 22.4 0 0-.76 11.33-6.36 18.39 0 0-9.55 11.9-17.95 10.82 0 0 16.54 7.28 19.67 22.8 0 0 2.29 9.97-3.44 25.21 0 0-16.93 33.96-51.93 39.18 0 0-38.95 7.89-59.19-21.64 0 0-11.2-14.26-11.96-32.46 0 0-.89-22.02 8.78-35.89 0 0 3.18-7.26 16.55-11.58-.01-.01 1.5-1.21.47-1.25"/><path fill="#474745" d="M779.87 317.98s3.89 71.47-89.44 67.69c0 0 25.88 13.26 57.6-3.76 0 0 22.74-10.04 32.45-36.76-.01 0 5.57-15.66-.61-27.17"/><path fill="#e5e3df" d="M681.09 287.63s-38.44 20.49-13.36 79.94c0 0-20.04-23.98-8.4-57.62 0-.01 3.24-16.34 21.76-22.32"/><path d="M673.71 356.62s11.07 20.87 45.44 14.38c0 0 2.42-1.72-5.03-1.15 0 0-24.06 1.97-39.52-13.56 0 .01-.82-.82-.89.33m-8.49-43.15s-1.36-1.19 1.19-2.89c0 0 3.14 4.99 9.16 6.32 0 0 17.23 10.06 57.96 9.55 0 0 18.77-.83 26.16-4.96 0 0 1.38-.95-1.89-3.33 0 0-4.65-4.18-1.91-4.01 0 0 6.22 1.2 12.36 6.45 0 0 4.96 3.31 4.49 11.9 0 0-.8 1.81-1.69-3.34 0 0-2.39-7.26-4.71-5.89 0 0-.54 6.36-5.95 13.21 0 0-9.74 16.52-27.81 20.91 0 0-25.48 7.42-49.2-5.86 0 0-11.71-6.49-14.13-13.75 0 0-.25-2.67 1.27-1.91 0 0 3.37 1.85 2.42-1.21 0 0-1.61-12.34-3.99-16.68.01 0-1.01-2.07-3.73-4.51" class="st0"/><path d="M676.51 328.93c.02-.19-1.02-7.13-3.56-10.18 0 0-.38-1.34 1.46.76 0 0 11.14 9.42 43.85 11.46 0 0 33.29 1.27 40.86-5.54l2.74-1.27s-4.96 5.41-5.28 7.45c0 0-2.55 7.26-13.3 8.59 0 0-6.15.89-6.67 1.72l-14.46.64s-2.29 1.46 4.58 1.85c0 0 13.22-.08 15.93-.85 0 0 7.98-3.01 5.86-.38 0 0-11.54 11.58-28.21 12.05 0 0-21.64 1.85-37.87-9.48 0 0-6.43-3.46-6.3-5.79 0 0 1.4-5.26 1.1-6.79l5.94 2.46-4.41-.98s.68.76 9.67 3.65c0 0 .55-2.25-1.23-2.5-.01-.01-10.91-4.38-10.7-6.87" class="st63"/><path d="M689.49 297.3s-10.42-9.86.93-14.07c0 0 7.47-4.9 11.8 0 0 0 3.56 1.4 4.84 3.37 0 0 1.34 1.15 5.6 0 0 0 10.44-3.31 16.1 1.02 0 0 10.69 6.87 2.8 14.77 0 0-2.93 3.18-7.19 2.42 0 0 7.83-.57 8.08-7.96 0 0-.38-8.46-10.18-10.06 0 0-5.28-.57-10.76 1.65 0 0-3.05 1.85-8.21-2.48 0 0-3.31-6.05-12.22-2.48 0 0-1.5 1.11-1.27 2.55 0 0-2.51 2.13-2.45 4.96 0 .01 4.46 9.69 2.13 6.31" class="st0"/><path fill="#ededeb" d="M689.81 286.04s7.89-2.42 11.71 3.05c0 0 5.98 5.73 13.36 1.72 0 0 6.24-4.84 12.54 2.55 0 0 2.8 3.88-1.59 6.68 0 0 3.25 2.29 6.62-3.18 0 0-.64-9.04-10.18-10.06 0 0-6.26-.49-10.76 1.65 0 0-2.85 1.66-7.61-2 0 0-2.8-4.49-9.03-3.99 0 0-4.01.12-4.63 1.94 0 .01-.66.98-.43 1.64"/><path fill="#959490" d="M690.1 297.58s1.94 3.92 14.73 4.37c0 0 2.74-.45 7.26 1.78 0 0 8.21 3.05 12.28 1.08l-.57-.02s8.34-.21 8.66-7.81c0 0-2.93 5.09-6.62 3.05 0 0 5.92-3.75-.32-8.57 0 0-4.47-4.4-10.38-.83 0 0-7.56 4.76-14.29-2.39 0 0-3.59-4.27-11.03-2.21 0 0-2.55 2.23-2.45 4.96-.01.01 2.45 5.41 2.73 6.59"/><path d="M691.23 286.61s3.69 2.46 4.88 6.75c0 0-.17.89 2.97 2.12l1.4.3s-2.63-6.41-5.39-8.57c0 0-1.82-1.87-3.86-.6m19.31 10.86s6.92-5.86 10.1-1.7c0 0 1.53.72 1.87 3.05 0 0 .64 1.7 3.01-2.76 0 0-1.82-6.08-12.3-1.79-.01.01-2.26 1.42-2.68 3.2" class="st0"/><path fill="#767572" d="M704.55 284.41s15.56-2.23 18.55 1.07c0 0 10.07 1.77 11.37 10.93 0 0-.55 9.42-10.1 8.4 0 0 .72 6.11 10.1-1.02 0 0 5.88-5.98-.29-12.82 0 0-1.97-3.41-7.83-6.46 0 0-1.85-4.9-16.02-2.91l-8.96.82.85.81z"/><path d="M686.06 278.89s-6.66-5.98-2.5-15.19c0 0 3.65-11.54 14.47-12.47 0 0 8.19.38 9.76 11.8 0 0 .93 5.41-1.32 9.39l-2.21 4.32s-4.29 5.86-9.42 5.3c0 0-2.8.21 1.02-1.7 0 0 .51-.89-2.29-1.82 0 0-3.27-2.29-3.01-4.62l.55-5.18s1.44-4.75 2.42-3.05c0 0 2.16 4.62 4.03 3.61 0 0 2.29-.54.24-6.06-.02-.06-.04-.12-.07-.18 0 0-2.04-2.8 2.59-1.44 0 0 3.39.25 4.75 8.61l.13 2.22s.72.29.76-1.49c0 0-.21-10.61-3.14-13.7 0 0-2.63-5.77-9.25-2.93 0 0-4.54 2.04-8.23 10.06-.01-.03-3.27 6.84.72 14.52"/><path fill="#211b16" d="M708.76 237.37s-10.38-11.55-21.4.92c0 0-1.51 3.86-1.85 5.73 0 0 7.55-7.47 16.59-3.05 0 0 8.57 6.15 9.16 5.09 0 0-1.53-2.59 0-3.18 0-.01 1.36-.24-2.5-5.51"/><path fill="#080806" d="M743.59 245.46s5.77-4.96 17.57-2.93c0 0 9.76 2.84 12.52 11.63 0 0 3.52 9.08.85 5.05 0 0-9.84-12.01-22.87-10.18 0 0-8.19.68-9.08 1.23z"/><path d="M693.89 281.64s-8.55 1.6-9.57-7.88c0 0-2.63-8.19 6.34-17.29 0 0 5.36-5.98 10.71-1.2 0 0 3.88 2.31 4.38 12.31 0 0 .81 5.38-.57 4.57 0 0-.58-9.8-4.86-10.57 0 0-3.4-1.23-3.02.51 0 0 2.43 4.66.71 6.89 0 0-1.49 1.41-3.16-1.13 0 0-1.8-3.83-2.13-2.42 0 0-2.14 2.49-2.02 9.61 0 0 1.51 2.89 2.87 3.47 0 0 2.4.97 2.29 1.82 0 0-1.95 1.1-1.97 1.31" class="st63"/><path fill="#dbd7d5" d="m710.2 235.4-2.23 1.2s-9.37-8.78-17.56-1.2l-3.05 2.89s-7.45 17.31-8.3 39.63c0 0-3.56-7.85-2.48-13.61 0 0 3.27-24.77 12.61-30.83 0 0 8.42-7.94 17.6-.92z"/><path d="M738.2 276.39s4.58-17.31 19.35-11.63c0 0 7.64 2.97 8.49 14.43 0 0-.59 12.13-5.86 12.73 0 0-3.14.89-4.07-.44 0 0 10.29-7.53 2.94-17.89 0 0-4.64-4.58-5.4-1.53 0 0-1.02 1.27.51 4.84 0 0 .08 4.41-3.31 1.02 0 0-2.72-4.67-3.48-2.63 0 0-5.01 9.1.85 14.82 0 0 2.69 4.39 14.21 2.11 0 0 5.54-1.74 5.41-14.29 0 0-1.27-16.38-15.53-18.1 0 0-12.33.11-16.06 15.21 0 0-1.48 6.28.74 12.6 0-.01 1.04-7.1 1.21-11.25" class="st0"/><path d="M764.91 295.14s-22.46 3.46-27.62-9.66l.91-9.09s4.41-16.45 18.6-11.9c0 0 7.07 2.15 9.06 13.09 0 0 .47 8.7-3.48 13.23 0 0-2.63 2.46-6.28.66 0 0 7.32-4.81 5.25-13.07 0 0-1.38-6.86-6.9-7.35 0 0-2.32 1.32-.67 4.87 0 0 1.27 4.44-1.98 2.81 0 0-3.43-5.14-4.3-3.73 0 0-3.44 5.4-1.47 11.79 0 0 1.48 4.49 5.39 5.37.01 0 13.08 2.31 13.49 2.98" class="st63"/><path fill="#31302f" d="M692.46 228.78s13.32-3.14 20.2 7.04c0 0 4.08 7.64 8.7 8.06 0 0 5.77 1.95 14.41-1.02 0 0 9.14-6.19 23.9-4.5l5.94.64s1.65-3 7.91-1.1c0 0-20.64-10.06-46.52-12.44 0 .01-23.42-3.64-34.54 3.32"/><path fill="#5d5e5b" d="M700.26 228.52s-1.09-1.77 3.32-1.18c0 0 63.28 7.67 64.99 10.03 0 0-2.79 1.17-2.96 1.64 0 0-15.61-2.93-24.31 1.27 0 0-9.2 5.18-16.95 4.14 0 0-6.69.45-10.43-6.56 0 .01-3.78-8.46-13.66-9.34"/><path fill="#fac90e" d="M701.97 218.64s6.87-32.29 33.01-34.24c0 0 30.8-4.07 35.13 27.58 0 0 1.23 6.72-2.33 18.18 0 0 13.62 1.25 36.36 15.25 0 0 8.57-10.27 8.32-39.03 0 0-2.29-16.72-11.71-23.59 0 0-33.18-18.41-74.08-3.73 0 0-22.83 6.74-32.84 45.46l7-1.89s1.32-.25 1.02-1.91c-.01 0-.18-1.74.12-2.08"/><path fill="#fcf6ab" d="M693.82 224.52s-4.24 1.47-3.14-1.84c2.25-8.92 5.59-15.69 8.22-20.17 3.49-5.97 10.45-17.53 24.45-25.14 1.09-.59 5.43-2.91 11.8-4.77 13.63-3.99 25.9-2.82 34.02-1.17 0 0 20.51 3.44 30.96 11.05 0 0-22.11-11.58-50.3-8.64 0 0-24.84 1.89-35.76 13.36 0 0-9.07 7.95-14.45 20.74.01-.01-5.97 14.26-5.8 16.58"/><path d="M704.64 215.9s-2.4 5.66 1.35 5.54c0 0 29.77-.99 46.77 5.78l12.54 4.15s.45.06.32-2.86c0 0 3.44-9.23-.32-10.37 0 0-15.53-8.15-28.51-9.23 0 0-13.89-2.78-26.58-.36 0 0-2.97 0-3.78 2.38z" class="st74"/><path fill="#dd9b27" d="M717.11 215.97s.89-1.27 1.91-1.08c0 0 2.35-4.71-1.46-2.04l-3.37 5.92 19.39 4.01s14.23 1.71 21.7 5.28l10.01 3.32s.41-.92.32-2.86c0 0 2.08-6.5 1.2-8.73l-9.38-3.59s-2.32 2.07-3.02 7.99c0 0 .06 1.4-3.66-.51 0 0-15.77-4.65-34.19-5.75 0-.01-.61-.37.55-1.96"/><path d="M755.28 228.05s2.1-11.18 4.03-11.14l7.5 2.87s1.05 2.09-1.2 8.73c0 0 .21 2.31-.32 2.86z" class="st74"/><path fill="#62625e" d="M711.49 205.47s7.47-18.33 26.12-16.93c0 0 13.81 0 23.99 12.28 0 0 3.12 3.82 4.33 12.92 0 0-14.77-7.83-32.94-8.72 0 0-7.27-.83-21.5.45"/><path fill="#fcfbe3" d="M776 168.32s-.93-3.22 4.16-2.5c0 0 5.9-.06 5.9 1.2 0 0-.64 1.01.47 2.15 0 0 .51.93 1.99 2.29 0 0 .04.47 1.06.51 0 0-13.84-1.98-13.58-3.65"/><path fill="#dea026" d="M800.13 182.47s16.64 8.8 17.53 15.42c0 0 7.77 18.64 4.78 36.62l-3.5 21.67L836 275.41l-4.07 4.21s-22.53-25.21-35.39-31.71c0 0-16.42-11.02-25.97-13.4 0 0-3.52-1.88-2.8-4.36 0 0 9.46-.11 36.36 15.25 0 0 8.2-9.21 8.32-34.79.01.01.44-18.36-12.32-28.14"/><path fill="#d79828" d="M817.54 194.58s12.47 22.66 4.71 55.62c0 0-1.62 6.27-.6 7.51l17.06 18.74s3.87-34.31 2.77-40.57c0 0-1.75-19.92-11.87-29.85 0 .01-11.56-14.42-12.07-11.45"/><path fill="#fff16c" d="M818.97 197.66c3.79 3.52 6.37 6.92 8.06 9.44 5.52 8.25 7.35 15.99 8.2 19.75.22.97.93 4.2 1.38 9.08.58 6.2.79 15.42-1.38 26.88l-1.32 8.39 4.79 5.26 1.64-16.23s2.09-18.7 1.07-24.91c0 0-2.01-14.92-6.05-21.17 0 0-2.36-6.39-14.35-17.82-.01.01-6.34-5.77-2.04 1.33"/><path fill="#fedf52" d="m831.92 279.62 16.17 22.48s16.67 19.19 18.97 26.51c0 0 1.65 3.15.76 4.57l2.8 5.04s5-2.35 1.61-10.25c0 0-7.85-14.28-12.81-19.49l-10.06-12.08s-13.11-18.2-13.36-21z"/><path fill="#c4c1b8" d="M665.78 267.14s3.27-16.08 7.17-14.17c0 0 1.53-.04-.72 8.44l-1.36 9.16-5.09 6.58s-.51.25-.3-2.76z"/><path fill="#7e5c36" d="M390.12 714.03c.03-.4 1.91-38.44 1.91-38.44s20.87 8.78 25.97 8.27l-7 31.44s-1.78 8.78-3.31 7.68l-16.72-6.53s-1.03.34-.85-2.42"/><path fill="#68482d" d="M391.5 686.24s23.01 5.12 23.97 8.97l2.52-11.34s-8.61-.59-25.97-8.27z"/><path fill="#583a26" d="m422.7 684.89-10.31 38.19 10.31.35 14.39-36.38z"/><path fill="#664630" d="m300.59 644.32.76 15.44s10.52 2.97 12.81 5.35c0 0 5.94 2.21 12.13.85l3.99-11.71s-2.55-2.8-12.05-3.05z"/><path fill="#40261a" d="m317.16 650.77-.86 14.95s7.47 1.6 10.02.24l3.99-11.71s-2.38-2.72-12.05-3.05z"/><path fill="#775734" d="m134.28 584.71-2.67 39.2s11.84 7.51 15.27 6.49c0 0 9.29-33.99 11.71-37.04 0 .01-24.2-10.29-24.31-8.65"/><path fill="#5f452f" d="M133.85 590.96s19.32 10.23 21.84 9.63c0 0 2.01-6.71 2.9-7.22 0 0-21.89-9.8-24.31-8.66z"/><path fill="#9c825f" d="M131.72 622.2c0 .05 14.55 6.92 15.62 6.55l-.46 1.66s-1.78.27-4.03-.65c0 0-11.28-5.39-11.25-5.84z"/><path fill="#513526" d="M164.12 595.21s13.24 4.07 13.56 4.07c0 0-.06 1.15-2.48 7l-10.76 23.29s-3.43 4.01-11.58 1.21c0 0-.25-.51.32-2.55z"/><path d="M173.22 565.17s11.07-52.89 13.94-55.18l3.08-5.43s.64-1.4 2.8-.3c0 0 158.32 61.1 201.66 66.06 0 0-16.23 65.11-17.76 77.13 0 0-1.72 7.76-.32 16.29l-124.74-44.17s-47.73-18.97-49-19.47c0 0-7.76.89-8.27 18.07 0 0-3.69.51-3.44-7.51 0 0 .38-3.86-1.32-7.51 0 0 .93-3.22-.76-7.21 0 0-1.53-2.8-1.36-4.75 0 0-1.7-3.84-1.78-6.58 0 0-1.87-13.61 3.56-12.08 0 0 4.67.68 5.6 3.48 0 0 2.72.93 3.39-2.55 0 0 12.13-17.57 16.55-15.53 0 0 2.97-1.1 2.89 14.51 0 0-.59 12.13 5.94 16.46 0 0 3.65 1.53 9.08-.76 0 0 2.97-1.53 2.72 4.92 0 0-2.97 6.87 1.53 7.21 0 0 2.97-.59 1.61-3.22 0 0-.68-9.76-3.31-9.93l-1.44-1.95-8.4.76s-1.7.85-2.12-3.56c0 0-1.7-12.05-2.63-14.17l-1.36-8.91s-.68-8.15-6.53-4.33c0 0-12.73 6.36-15.87 13.32 0 0 0 1.72-4.14 1.02 0 0-8.85-.83-10.82 5.22 0 0-.51 2.29.32 7.7 0 0-.32 8.21-1.34 9.36 0 0-.64 2.8-3.5-.06l-7.57-1.53c0 .01 1.71-20.87 3.11-24.82" class="st31"/><path fill="#090606" d="M244.31 607.75s9.55 7.64 13.43 8.59c0 0 3.18 1.85 5.03.83 0 0 1.97-2.86-2.35-2.42 0 0-1.65 1.72-2.61-.51 0 0-10.63-6.62-13.5-6.49"/><path fill="#9f7b4d" d="M246.46 607.75s-6-9.22-7.45-8.68c0 0-2.12 3.07-4.12-.53 0 0-.31-3.09.8-5.47 0 0 .33-5.88-2.72-4.92 0 0-9.42 4.82-12.69-3.48 0 0-3.28-5.05-2.41-16.76 0 0-.16-11.28-3.33-10.12 0 0-2.96-.06-7 4.52 0 0-9 9.65-9.02 11.15 0 0-.02 3.24-3.39 2.55 0 0-1.64-3.12-5.34-3.43 0 0-2.92-.91-3.48 2.05 0 0-1.91 6.46.44 13.9l1 2.68s-.06 1.88 1.66 5.52c0 0 1.15 3.04.46 6.44 0 0 1.7 3.35 1.32 7.51 0 0-.3 7.47 3.44 7.51 0 0 0-15.97 8.27-18.07l31.45 12.5s9.83.4 12.12-2.83l-2.14-2.04c-.02 0 1.91.34 2.13 0" opacity=".57"/><path fill="#7f7058" d="M193.04 504.27s1.15 4.2-.72 9.55c0 0 2.97 2.04 3.9 4.67 0 0-.25 2.55 10.1 1.78 0 0 32.39 17.99 61.61 26.58l10.12 4.39s7.45-5.35 23.68 3.82c0 0 16.1 6.28 29.17 8.66l33.09 9.76s2.46 4.88 2.84 11.75l7.83-8.59s4.77-2.29 2.67 1.91c0 0 9.16.95 4.96 4.01-4.2 3.05-1.34 1.25-1.34 1.25s1.15 13.07-5.54 26.05c0 0-3.63 20.24-11.65 27.49 0 0 8.4 9.74 6.49 14.7l-8.08 6.6 14.45 5.12s-1.62-14.13 2.31-26.86l15.77-66.57c0-.01-88.67-19.87-201.66-66.07"/><path fill="#281f15" d="M189.43 520.69s-5.43-.51-1.44-1.53h2.21s1.36-6.79 2.55-4.07c0 0 .42 10.78-1.95 16.46l-7.13 22.06s-1.7 0 0-4.41c0 0 2.92-10.18 4.18-12.05 0 0 3.37-8.83 2.1-13.41-.01 0 1.43-4.41-.52-3.05"/><path fill="#b4a37c" d="M127.4 562.69s-.95-7.45 1.91-14.13c0 0 2.86-12.79 3.44-13.75l-.57.95s5.54-16.42 7.83-24.63l6.87-29.21 6.87-33.22s5.54-26.35 5.16-28.83c0 0 .66-6.36-3.75-8.32 0 0-16.1-12.3-16.29-33.31 0 0-1.53-39.52 28.45-53.27 0 0 20.3-9.23 32.78 9.86 0 0 13.87 11.33 10.69 44.68l-6.61 43.32-1.08 4.47s.04 4.22-1.54 5.3c0 0-9.12 8.47-11.21 21.23l-5.02 17.88s-.99 4.82-1.08 5.89l-.43 11.96s-.14 5.22 2.5 7.16c0 0 1.8.43 1.65 2.24 0 0-2.6 1.5-3.09 3.4 0 0-6.65 12.61-8.98 25.49l-11.81 59.27-32.46-13.94c-.03.01-4.14.2-4.23-10.49"/><path fill="#f0ecd9" d="M226.18 339.94s-21.77-9.16-25.71-8.53c0 0-7.43-5.6-9.82-5.66 0 0-22.12-4.01-34.85 14.19 0 0-13.75 15.4-13.11 40.22 0 0 .76 16.01 13.68 32.13l-5.93-5.3s-11.99-11.56-11.57-28.74c0 0-.66-20.35 7.69-33.23 0 0 9.88-27.4 46.79-22.27l19.18 4.29s1.7.59 2.89 2.89z"/><path fill="#8e7d5f" d="M200.46 331.42s12.86 8.91 13.62 23.55c0 0 2.8 18.07.64 38.95 0 0-4.07 29.91-5.86 32.97 0 0 59.7-8.02 123.85 7 0 0 .81-2.63 3.01-4.16 0 0-1.02-1.44 0-4.16 0 0 13.92-39.54-7.21-66.78 0 0-2.38-5.26-6.45-6.02 0 0-38.36-12.05-40.26-10.52 0 0 5.09 2.93 12.22 24.31 0 0-10.18 7.26-10.44-3.31 0 0-1.15-2.1-1.15 4.39 0 0 1.27 11.58.32 17.25 0 0-2.74 12.54-5.54 13.56 0 0-2.35 1.65-4.33-5.98l-6.75-21.32s-.64-4.26-4.96-5.6c0 0-2.1-1.15-2.42-2.16 0 0-1.15-3.44-5.28-4.14 0 0-1.72.38-1.46 3.82 0 0-.06 8.46-5.54 5.09 0 0-5.09-5.16-8.4-14.26l-4.2-8.91s-1.53-2.61-4.58-2.23c0 0-1.08.51-2.8-2.48 0 0-15.81-6.94-21.47-8.1 0 0-3.65-1.04-4.66-.74"/><path fill="#c0a576" d="M221.97 330.19s-8.61-2.38-3.86-4.45l19.3 5.43s13.07 3.56 33.94 5.6c0 0 5.98 1.15 9.5 9.46l4.71 9.55s1.02 1.7 3.39 3.01c0 0 6.39 9.73.51 7.34 0 0-6.45-6.07-7.81-3.56 0 0-1.4.13-.93 7.55 0 0 .04 20.92-2.29 25.5 0 0-1.27.51-2.59-4.29 0 0-4.58-15.02-7.81-20.24 0 0-4.5-6.49-5.3-7.51 0 0-4.62-6.24-10.39-5.64 0 0-3.05.98-2.29 7.64 0 0-.81 3.78-3.39-1.27 0 0-2.8-2.97-9.04-17.35 0 0-2.99-7.64-6.75-9.04 0 0-5.13-1.53-7-4.5.01-.01-2.28-1.5-1.9-3.23"/><path fill="#e2d4ba" d="M281.8 342.23s7.89 7.97 7.92 12.9l35.86 7.85-3.18-4.96s2.56-2.76 5.54-.3c0 0-2.22-3.6-4.05-4.28.01 0-39.83-12.56-42.09-11.21" opacity=".63"/><path fill="#726049" d="M322.4 358.02s12.35 19.47 8.4 40.35c0 0-1.27 4.96-6.24 3.05 0 0 7 6.62-2.8 8.66 0 0-2.82 13.06-1.09 21.23l12.04 2.57s1.82-4.24 3.01-4.16c0 0-.45-2.77 0-4.16 0 0 7.28-23.08 3.47-41.56 0 0-2.01-15-11.25-26.29.01.01-2.63-2.47-5.54.31"/><path fill="#746546" d="M214.82 392.9s8.94-.71 11.35 3.68c0 0 6.81-1.72 4.71-9.55 0 0 21.32 2.57 10.31 4.77-2.86.57-8.59.95-8.59.95s13.56 4.96 16.8 9.36c0 0 1.44 4.2 4.92-.95 0 0 7.21 4.96 0 9.74 0 0 11.69-3.82 12.07-9.16 0 0 5.09 12.03 16.01 5.35 0 0 6.28-15.52 12.06-11.46 1.91 1.34 8.4 9.74 8.4 9.74s1.34-3.63 0-7.83 4.77-11.18 9.16-2.25-1.34 18.29-1.34 18.29l6.68 14.13-2.24 2.58s-63.56-9.97-106.27-3.41c.01 0 5.82-32.34 5.97-33.98"/><path d="M337.04 358.02c-.17-.04-.22-.39-.38-1.1-1-4.35-2.9-7.59-4.58-9.84 0 0 19.6-82.23 42.26-110.48 0 0 17.31-33.86 63.39-8.66 0 0-15.19 6.36-17.82 22.66 0 0 .34-15.02 1.1-16.8 0 0-1.02-1.87-2.55 1.44l-2.38 3.56s4.5-6.28 4.07-6.28c0 0-11.54-9.59-22.83-2.55 0 0-7.21-1.53-27.58 33.86-4.5 8.57-8.99 17.14-13.49 25.71-13.67 55.15-18.11 68.71-19.21 68.48" class="st103"/><path fill="#c5b694" d="M426.97 240.79s8.4-14.29 23.48-11.06c0 0 30.55-.78 73.89 9.92 0 0 50.6 12.6 58.81 16.8 0 0-15.47 5.92-9.74 5.35l14.13 1.91s-11.26 4.19-12.6 13.46c0 0-29.59-15.56-31.31-15.56s-34.37-10.52-42-8.79c0 0-36.3 9.41-37.04-6.64 0 0-.57-2.32 2.86-1.66-.01 0-6.88-5.26-40.48-3.73" opacity=".96"/><path fill="#c2b191" d="M500.86 241.55s53.08 22.53 75.99 21.77l1.41-.87-6.12-.84 11.01-5.16s-57.86-17.42-75-20.41c0-.01-12 2.84-7.29 5.51"/><path fill="#7e6c49" d="M431.17 674.39s-3.44 4.58 5.92 4.77l92.79 2.48s19.47-3.37 33.6-26.54c0 0 1.74-2.12-6.19-2.97 0 0-19.9-1.99-22.32-16.7 0 0-3.63-14.51 6.24-20.43 0 0 7.76-7.45 19.98 1.91 0 0 4.77 6.49 18.9 3.44 0 0 18.9-2.87 23.29 3.15 0 0 3.82-.66 3.82-10.21l16.61-76.91-152.17-19.51-8.97 35.32-18.71 70.5z"/><path fill="#af9f7e" d="m456.69 564.73-9.49 45.77 6.06-9.49-1.31 7.13 2.2-7.26s-7 14.77 3.56 3.44c0 0 1.27-4.71 4.71-6.24l4.2-2.93s1.53-.89-1.91-3.69l.25-3.85s.25-.74-2.16-3.6c0 0-2.93-4.65.51-10.12 0 0 1.65-2.29 1.4-11.33 0 0-.38-14.77 3.82-16.93l-2.84-5.29c-.01 0-7.6 24.83-9 24.39"/><path fill="#050303" d="M465.48 551.91s3.18-11.43 4.64-5.2c0 0-2.92 7.13-2.32 17.95 0 0-.09 7.51-2.32 12.16 0 0-1.02-.95 1.39 7.06l2.04 8.4s2.1 4.96-2.23 6.97c0 0-4.71 1.75-4.45 5.31 0 0-1.02 10.31-1.53 1.78v-2.86s-8.97 11.65-10.56 9.48c0 0 .26-3.01 1.97-4.01l5.6-4.65s1.75-5.19 4.71-6.24l4.2-2.93s1.35-.96-1.06-2.95l-.85-.75.25-3.85s-.52-2.26-1.76-3.11c0 0-2.21-3.27-1.23-7.63l1.33-2.99s1.75-3.25 1.37-7.03c0 0 .13-9.44.23-10.47z" opacity=".66"/><path fill="#685337" d="m465.68 540.34 14.68 5.44s12.73.75 20.75-6c0 0 11.2-6.65 10.69 5.08 0 0 3.44-.03 4.96.95 0 0 6.11 13.51 6.11 14.43s3.56 4.87 3.56 4.87l2.16-13.6 6.87-6.65-4.84 19.49s4.33-2.42 5.47-9.55l1.91-9.42 7.51 23.17s6.75-7.38 8.4-9.04c1.65-1.65 4.84-7 5.35 5.47l1.02 5.6s1.15 3.44 4.07-.76c0 0 6.24-6.64 5.35 2.09l.1 18.09s6.47-2.48 6.47-9.74-.95.38-.95.38-2.48-.38-2.67 1.91.19-20.24 3.63-15.47 0 1.11 0 1.11 6.3.8 4.2 12.06l3.05-13.56s-.76 17.95 0 18.71 3.25-16.1 3.25-16.1.57 6.23 1.34 9.74c.76 3.5 2.1-6.04 2.1-6.04s2.67 4.39 2.48 7.83 4.77-7.83 4.77-7.83-1.28 34.56-10.11 46.71c0 0 12.57-1.09 16.03 3.78 0 0 3.08-.01 3.82-10.21l16.61-76.91-152.17-19.51z"/><path fill="#43321e" d="M519.02 593.5s-2.12 7.13 7.04 8.91c0 0-12.9 9.93-13.75 5.6 0 0-3.05-4.69.85-8.75z" opacity=".53"/><path fill="#b29d79" d="M381.21 663.76s38.95 16.87 50.28 14.64c0 0-1.97-2.48-3.5-2.23l12.35-58.69 11.84-49.82s2.95-3.27 4.52-2.93l4.3-9.9s-7.05 6.84-5.7 1.75l13.24-42.14s3.9-3.86 11.63-5.38c0 0 38.78-5.18 38.78-55.84 0 0-2.72-19.35-18.33-34.11 0 0-3.39-4.84 2.38-.85 0 0 9.25 8.99 11.37 13.75 0 0-3.14-7.04-1.02-4.41 0 0 10.27 15.27 10.35 25.29 0 0 2.19 41.07-26.45 55.58l-20.24 4.01 118.76 14.51 30.1 4.9s12.09-2.04 18.71-11.33c0 0 13.87-9.8 11.2-41.62 0 0-2.93-26.98-25.84-33.48 0 0-54.35-19.6-54.22-17.69 0 0 17.18 7.51 21.51 35.39 0 0 2.29 3.05-.89 4.03l-3.05 1.02s3.73-1.06 1.53-6.96c0 0-.64-22.15-24.06-33.73 0 0-68.61-18.33-84.64-17.69 0 0-32.58.33-44.42 20.47 0 0-22.91 47.82-27.68 80.85l-22.91 100.24c-.04-.01-10.79 44.79-9.9 52.37"/><path fill="#c6b89e" d="M414.76 506.49s31.23-78.21 43.11-81.65c0 0 21.2-12.95 43.84-4.66 0 0-4.22-6.54-.04-2.77l26.69 11.82s8.59 18.9 18.33 21.77l5.92-6.68 7.26 3.44s6.11-4.01 10.12-2.29-5.16-6.11-4.58-6.3c.57-.19 1.91-4.2 7.06-2.48l16.78 7.57s-7.84-15.86-21.19-17.45l-72.94-16.3s-29.4-4.62-47.91 12.11c-.01 0-20.8 21.18-32.45 83.87" opacity=".61"/><path fill="#d2bc8d" d="M582.49 270.28s8.99-9.67 23.93-4.07c0 0 25.03 8.49 41.75 17.74 0 0 .59 4.75-19.35-1.87 0 0-17.9 2.55-22.66 10.1l-7.3 10.86s-1.78.76-1.7-1.61l.85-10.52s1.02-6.96-7.98-3.27l-11.58 10.69s-2.89 1.65-1.48-1.02l5.47-13.5 1.15-4.07s.64-2.21-1.91-.89c0 0-7.09 3.52-4.92.72 0 0 4.54-7.72 5.73-9.29"/><path fill="#806f54" d="M337.04 358.02s15.15 32.08 2.04 75.86c0 0-.8 1.4 1.15 1.53 0 0 69.16 17.82 81.72 24.35 0 0 4.45-25.24-11.46-25.88 0 0-15.15-.38-20.49-13.87 0 0-14.89-11.33-23.8-1.91 0 0-1.91 2.16-2.42-2.42 0 0-4.07-22.53-8.91-30.29 0 0-4.07-11.46-4.2-16.04 0 0-2.04-1.4-4.2-7.26 0 0-3.31-8.94-4.07-1.41z"/><path fill="#ae9b78" d="M421.94 459.76s8.85-54.01 59.63-56.88c0 0 66.12 8.21 92.22 17.25l9.29 2.48s4.26-20.49 9.99-30.04l13.56-30.55-6.3-2.58s7.59-3.53 10.09-11.93c0 0 4.99-2.48 3.27-6.3 0 0-.62-4 .36-4.39 0 0 7.28-11.65 4.99-15.28l-.76-3.22 4.58-3.65s3.08-13.6 10.2-15.38l-7.72-4.41s7.21 1.36 14.09-3.65l-15.61-5.26s-10.56.64-25.2 19.73c0 0-1.53 2.78-3.82-2.56 0 0-1.13-4.47 1.02-9.15 0 0 1.4-7.76-4.84-3.95l-15.91 15.02s-3.46 2.01-2.65-1.92c.06-.27.13-.56.23-.88 1.53-5.09 7.38-20.11 7.38-20.11s3.05-1.91-2.42-.89c0 0-7.76 3.95-3.56-1.78l.89-2.33-30.56-15.34s-35.99-10.39-41.95-9.14c0 0-15.13 3.72-28.27 2.28 0 0-15.69-6.32-7.06-10.66l-40.13-3.51s-8.34 15.63-7.83 8.9-.02-.37-.02-.37 2.23-9.42-2.61-10.1l4.04-5.88s-6.87-9.9-21.96-4.09c0 0-12.63 3.66-30.98 38.65l-11.62 22.71s-15.13 64.47-18.95 67.4l5.35 2.66s.8-6.75 3.71.51c0 0 2.57 7.14 4.56 8.15 0 0 .37 4.86 3.75 14.73l.45 1.31s5.45 9.15 7.85 24.97l1.35 6.87s.82 2.87 2.71.3c0 0 7.25-8.34 23.23 2.48 0 0 5.5 13.33 21.2 13.92 0 0 9.47-1.13 11.32 14.59z"/><path d="M408.26 305.9s-9.29 9.67 0 14.07c0 0 6.56 2.61 9.86-5.35 0 0 2.74-8.08-3.63-9.04 0 0-3.69 1.15-4.45-1.46 0 0-3.56-9.23-3.88-10.31-.32-1.09 2.67 8.71 2.1 12.09" class="st116"/><path d="M406.45 312.24s.42 5.69 2.89 4.92c0 0-.59-4.71 1.4-1.4 0 0-.59 3.69 1.65 2.42 0 0 5.34-2.44 4.16-7.42 0 0-.93-4.84-5.98-3.31 0-.01-4.16 1.48-4.12 4.79" class="st103"/><path d="M402.08 317.54s-6.62 8.53-7.83 6.56c0 0-1.53 4.67 4.2.3.01-.01 8.28-6.92 3.63-6.86m11.67 12.82s3.95 8.66 3.48 1.19c0 0-3.65-6.64-2.63-9.64 0-.01-2.33-.17-.85 8.45m10.54-17.56s7.76-6.01 13.75-3.46c0-.01-8.85 7.17-13.75 3.46" class="st116"/><path d="M534.97 347.2s2.48-8.34 9.99-5.73 5.66 8.85 2.35 11.14c0 0-6.56 12.22-13.17 2.04 0 0-.13-6.37.83-7.45" opacity=".72"/><path fill="#eadbc4" d="M541.16 344.65s-4.33-1.91-4.58 3.69c0 0-.3 7.59 4.58 5.9 0 0 3.95-.64 4.54-4.16 0 0 .76-4.67-.89-6.49 0 0-.51-1.53-1.27 0 0 0-1.36 1.83-2.38 1.06" opacity=".98"/><path d="m541.5 341 .26-17.43s1.77-2.67 1.78 1.48v.21c-.04 4.45.14 13.23 2.34 16.56 0 .01-3.88-1.2-4.38-.82" class="st119"/><path fill="#030202" d="M528.76 468.22s1.46 4.9-1.5 1.78c0 0-.01-6.3 1.86-7.35 0 0 2.15-.92 5.21 7.19 0 0 .99 7.29 3.98 5.51l4.38-3.45s.53-.49.93 1.19-.08 4.05.13 10.1c0 0 .51 1.4 1.85-.88 0 0 4.39-12.95 10.29-11.98 0 0 1.36-1.19.89-2.67 0 0 1.36-4.16 3.22-2.59 0 0 11.03 8.02 14.47 20.41 0 0 2.72 11.46 2.63 13.79 0 0 .72 1.23 1.02-1.53 0 0 3.71-11.67 4.26-12.71 0 0 2.93-7.68 2.55-13.28 0 0-.95-12.09 1.59-10.31 0 0 5.09-2.23 7.51 5.79 0 0-.7 2.55-3.37-2.42 0 0-3.69-3.88-3.75-2.35 0 0 .32 12.66-.32 15.4 0 0-2.55 12.47-7.13 21 0 0-2.74 4.71-3.31 2.8 0 0-6.11-22.78-10.25-25.65 0 0-5.94-11.58-7.13-6.58 0 0-2.08 4.5 2.97 5.35 0 0-1.78 2.93-5.18-1.7 0 0-1.99-2.33-4.24 1.4l-4.12 7.15s-3.39 7.02-5.81 3.46c0 0-.55-.3-.34-3.73 0 0 .3-6.66-.64-6.96 0 0-4.2 3.56-4.58 4.75 0 0-2.84.98-3.1-1.65 0 0-1.06-10.35-2.63-11.16.01 0-2.39-3.33-2.34 1.88"/><path fill="#c3b294" d="M591.12 444.07s23.7 8.82 34.39 3.3c0 0 19.39 8.3 24.08 13.78 0 0-5.69-12.17-23.92-17.22 0 0-46.52-16.7-49.97-16.17 0 .01 11.23 5.86 15.42 16.31"/><path fill="#4f3b25" d="M523.64 492.69s5.22-7.76 3.63 0c0 0-1.62 10.31.3 10.31 0 0 4.22 3.95 6.13-4.07 0 0 1.78-6.98 1.27-8.96 0 0 4.07 2.75 1.53 12.15 0 0-5.47 12.07-5.09 4.38 0 0-1.78-.82-2.67.7 0 0-5.22 6.01-9.55 1.86 0 0-8.91 2.72-7.76-1.61 0 0-.09-3.18 3.46-3.56 0 0 6.85-1.53 7.74-5.6z" opacity=".35"/><path d="M534.14 350.3s-12.66 14.51-12.49 17.82c0 0 2.77 7.21 14.49-11.03 0-.01-3.46-2.19-2-6.79m14.15-7.39s22.83 7.04 34.2 2.97c0 0-22.23 6.02-24.27 10.1 0 0-7.81 9.5-8.02 9.84s-1.06-10.52 5.22-12.73c0 0-6.68-1.49-9.24 1.28 0 0 6.78-5.68 2.11-11.46" class="st119"/><path fill="#1a140d" d="M145.99 500.92s2.29-9.33 1.78-.59c0 0 .89 13.53-1.78 20.41 0 0-2.29 3.73-1.61-.34 0 0 2.42-4.12.3-5.39 0 0-.93-.34-.42-2.67-.01-.01 2.06-10.7 1.73-11.42" opacity=".25"/><path fill="#2a1f12" d="M136.82 557.71s-6.11-9.97-4.01-12.14c0 0 1.85-1.4 2.16 2.29 0 0 .38 3.18 2.86 5.28z" opacity=".43"/><path fill="#22150c" d="M141.85 554.29c-.25-.45-.38-4.14 1.27-4.26 0 0 .38 4.07 1.46 5.47 0 0 2.1 1.85 4.9 0l-1.06 14.52-.17 2.32s-2.98-5.95-3.55-9.26z" opacity=".21"/><path fill="#231910" d="m153.24 555.56-.58 17.27s-1.62 6.44-4.61-.93z" opacity=".21"/><path fill="#837357" d="M192.77 468.76s-3.11 20.11 0 24.44l77.52 33.09s113.46 38.95 125.68 37.17l15.02-63.58s-5.09-4.12-8.91 2.24c0 0-8.15 9.15-17.06 44.03L341.5 532.4s1.02 9.42-30.55-3.82c0 0-22.66-10.63-26.48-12.44 0 0-16.29-3.35-19.35-1.69 0 0 4.84-3.18-16.55-10.18l-23.93-2.15s19.09 2.03 32.08-10.7c0 0-3.44-2.55-12.41 2.55 0 0-10.5-13.27-13.56-4.72v3.2l-21.13-10.8c.01-.02-1.63 7.47-16.85-12.89"/><path fill="#1d150b" d="M200.36 490.14s6.53-3.05 8.51 0c0 0 10.37 8.21 25.27 8.21 0 0-19.99 1.91-22.88-.76-.01 0-12.03-1.53-10.9-7.45"/><path fill="#332312" d="M216.01 498.83s26.85 3.62 36.75-4.07l.27-.21c9.68-7.97-2.41 12.27-33.6 5.78l-3.94-1.54"/><path fill="#b0a07d" d="M192.77 468.76s6.42-28 16.86-34.88c0 0 23.93 12.73 35.64 15.15 0 0 17.69 1.65 16.67 6.62 0 0-6.49 11.2-4.71 14.64 0 0 6.24-14.61 15.78-12.08 0 0 43.15 6.22 63.13 18.95 0 0 4.33-2.93 5.35 1.65 0 0 36.91 15.91 57.79 18.33 0 0 8.91 1.14 11.71-1.53l-.59 3.87s-5.97-4.12-11.17 7.01c0 0-10.9 23.74-14.21 39.65L341.5 532.4s.87 8.19-21.46-.3l-35.56-15.97s-13.48-3.07-19-2.1c0 0 1.07-3.15-12.42-8.22l-4.48-1.55-23.26-2.1s25.18-.32 30.97-8.97c0 0-.88-1.04-1.43-.34l1.87-1.44s-3.52-2.55-12.41 2.55c0 0-13.9-15.78-13.56-1.53l-21.13-10.8s-.06 4.54-7.37-1.88z"/><path fill="#b8a480" d="M209.63 433.88s40.54-6.94 98.58 3.56c0 0 84.77 15.85 110.74 26.35l-7.96 31.82s-2.55-3.69-6.75 0c0 0-4.96 2.99-8.4 0l-28.45-10.63s-21.83-8.85-27.18-11.39c0 0-26.47-13.34-44.42-15.39 0 0-15.64-3.71-25.51-3.26 0 0-5.67-.19-6.18-4.01 0 0-37.8-11.58-39.33-13.11 0 0-10.3-4.1-12.72-2.68z"/><path d="m353.65 467.04 3.44-6.56s3.63 1.85 1.46 3.28c0 0-4.2 5.25-4.9 3.28" class="st0"/><path fill="#6f5c3d" d="M352.44 458.79s-3.86-1.32 0-2.04c0 0 27.03-2.42 33.94 4.5l-26.77-2.8s5.59 3.75 11.63 2.8c0 0 4.54-.51 6.87 2.46 0 0 1.61 1.1 4.75-.59 0 0 8.53-.93 11.54 3.52 0 0-12.83.08-13.25 1.53l8.45 9.8s-.34 3.14-4.71-1.44l-4.16-5.01s-1.53-1.36-4.29-.98c0 0-2.97-.17-4.58-2.67l-11.88-5.43-2.91-1.95s.09-1.1-.64-1.57z" opacity=".56"/><path fill="#817052" d="m583.08 422.62 9.04 2.99s8.4-16.8 7.64-21.57l14.89-41.05s3.99-3.01 4.84-8.7c0 0 4.33-27.31 12.73-38.9 0 0 15.27-25.08 21.38-29.22l-5.43-2.23s-.02 5.24-19.35-1.87l-5.01 3.9 15.61 5.26s-5.43 5.01-14.09 3.65l7.72 4.41s-5.98.55-10.2 15.38l-4.58 3.65.76 3.22s.98 2.63-.43 6.05c0 0-3.9 8.58-4.9 9.66 0 0-.58 2.52.35 5.66 0 0 .12 2.5-3.63 4.6 0 0-1.76 7.68-10.09 11.93l6.3 2.58c0 .01-22.02 44.88-23.55 60.6"/><path fill="#968666" d="M594.03 425.61s5.75-9.98 6.49-17.85c0 0 15.85-36.37 16.61-45.34L630.5 329s18.14-40.95 19.09-34.7c0 0-13.94 19.87-9.36 37.98 0 0-1.61 25.99 15.46 55.53l-17.37 53.84c0-.01-37.61-16.43-44.29-16.04"/><path fill="#5d4930" d="M617.01 432.82s-.2-12.31 2.48-13.71c0 0-.13-1.02-1.91-2.29 0 0 .64-4.33 4.46-4.96 0 0 3.12-7.32 2.42-8.78 0 0-.51-.13 1.53-.76 0 0 3.95-.51 2.48-5.28-1.46-4.77-.32 0-.32 0s2.16-2.16 2.04-5.28c0 0 .51-3.95-1.91-3.37 0 0-1.4-1.02-.45-2.67l.95-2.01s.83 4.81 3.18 3.41l3.82-3.05s.89 3.75 2.8 4.39c0 0 5.47 8.65.57 5.44 0 0-3.25-4.99-3.69-2.51 0 0-1.21 2.99 4.96 8.66 0 0 2.35 11.2-2.42 7 0 0 .45 12.22-1.02 16.1l-1.35 17.36z" opacity=".29"/><path fill="#8a7657" d="M194.04 348.28s13.17 21.19-4.01 82.67c0 0-19.28 72.36-22.91 88.78 0 0-5.41 5.83-4.96 42.96 0 0-.45 19.67-3.56 14.7l-5.78-5.35s-1.19 9.16-5.47-1.91l-7.87-9.9s-4.05 4.51-6.53-2.53l.91 6.51-6.45-1.53s-.38 9.93 4.2 10.5l32.46 13.94s7.26-37.61 7.26-38.19c0-.57 8.42-46.01 16.52-49.64 0 0 .85-1.65-1.54-2.58 0 0-3.15-1.94-2.39-8.94 0 0-.19-10.82 1.08-14.77 0 0 7.4-31.42 13.43-36.76l3.48-4.07s.93-.17.93-3.9c0 0 6.79-26.73 6.79-36.4 0 0-2.07-27.64-6.62-16.67 0 0-6.49-33.6-8.97-26.92"/></svg>