<svg xmlns="http://www.w3.org/2000/svg" width="330" height="330" fill="none" viewBox="0 0 330 330"><path fill="#000" d="M95.757 24.565a48 48 0 0 1 1.642-.178c8.239-.742 16.965-.15 25.259-.153l50.181-.018 45.157-.004c7.412 0 15.41-.585 22.766.188 2.725.287 5.057 1.586 7.108 3.342 3.655 3.119 5.442 7.044 5.722 11.812.842 14.62.12 29.728.12 44.393l.008 86.9.016 71.587c0 12.809.762 26.162-.352 38.906-.329 3.796-1.25 6.731-3.871 9.586-3.967 4.332-9.256 5.126-14.833 5.353.184.699.321 1.361.409 2.08.352 2.967 1.082 6.824-1.066 9.297-1.282 1.468-3.109 1.497-4.904 1.653-4.68.072-13.191 1.335-17.406-.399-2.949-2.828-1.771-8.675-3.085-12.365-.048-.138-.104-.274-.16-.412-26.581-.506-53.275 0-79.872.004.305.488.529.85.69 1.408.681 2.332 1.194 6.368-.233 8.45-1.514 2.211-4.287 3.124-6.811 3.499-4.183.623-13.167 1.031-16.701-1.844-2.54-2.065-1.923-8.213-2.187-11.318-1.932-.142-3.975-.244-5.85-.719-4.111-1.041-7.926-3.26-10.057-7.002-1.932-3.383-1.892-7.121-2.02-10.916-.569-16.743-.072-33.668-.064-50.425l.008-97.016c-.008-12.826-1.186-90.116.697-96.065 1.507-4.748 5.474-7.468 9.689-9.624"/><path fill="#fefefe" d="M93.72 139.987c5.25-.811 11.123-.359 16.444-.351l29.114.053 103.928-.01c.665 1.159.921 2.186.97 3.512.416 11.505.088 23.113.08 34.632l-.04 64.485-.017 26.716c0 3.788.658 8.01-.096 11.703-.472 2.31-1.21 2.872-3.021 4.144-.545.731-.649.979-1.514 1.277-3.823 1.311-123.946.97-135.838.562-1.972-.069-4.16-.098-5.906-1.123-1.403-.822-2.765-2.37-3.118-3.984-1.562-7.186-.392-24.759-.392-32.965l.048-83.074c.008-6.503 1.138-19.454-.53-25.225-.04-.118-.08-.235-.111-.352"/><path fill="#000" d="M113.059 156.218c.833-.142 1.699-.294 2.556-.305 1.651-.02 2.637.622 3.791 1.722 1.49 2.855 1.771 37.569.32 41.525-.689 1.869-1.547 2.019-3.245 2.752-.129.043-.249.104-.377.127-1.571.278-2.26-.065-3.566-.802-1.499-1.961-1.667-4.258-1.819-6.639-.465-7.196-.946-28.739.368-35.11.273-1.318 1.098-2.285 1.972-3.27"/><path fill="#fefefe" d="M97.496 34.183c8.053-1.742 35.131-.577 45.012-.58 29.273-.011 60.478-.982 89.544.08a58 58 0 0 1 9.744 1.167c1.755 2.198 2.228 4.722 2.452 7.453.946 11.352-.064 23.497-.048 34.925.032 17.192 1.026 35.046-.2 52.154-1.675.905-3.478.68-5.329.66l-145.318.012c2.412-3.993.937-60.18.881-69.047-.048-6.922-.994-15.465.497-22.236.4-1.846 1.579-3.182 2.765-4.588"/><path fill="#000" d="M112.513 76.263c1.137-.26 2.332-.599 3.493-.417 1.411.22 2.661.911 3.422 2.172 1.411 2.336 1.435 31.389.593 34.903-.432 1.801-1.514 2.159-2.965 3.025-1.33.646-2.452.51-3.798.098-1.106-.919-1.659-1.624-2.028-3.035-1.338-5.085-1.29-28.122-.256-33.226.264-1.3.857-2.396 1.539-3.52"/></svg>