<svg xmlns="http://www.w3.org/2000/svg" width="330" height="330" fill="none" viewBox="0 0 330 330"><path fill="#080807" d="M162.171 18.311c1.483-.238 3.397-.497 4.861-.121 3.121.799 33.757 28.984 36.059 32.927l52.399-.034c9.196-.014 19.074-.811 28.187.297 3.149.384 6.168 1.03 8.773 2.914 1.142 2.18 1.298 4.707 1.326 7.128.598 51.575-.193 103.287-.175 154.881l.037 58.894c.009 10.159.552 20.676-.166 30.8-.129 1.855-.635 2.788-1.951 4.09-1.271 1.256-5.68 1.326-7.402 1.417-13.173.696-26.623.123-39.842.121l-77.319-.045-85.732.037c-11.6.001-29.182 1.427-40.257-.818-1.74-1.127-2.706-2.422-3.258-4.45-1.381-5.048-.323-53.004-.332-61.236l-.027-119.026c0-20.335-.46-40.782.055-61.106.083-3.474.193-9.08 1.85-12.117 7.448-3.52 73.821-1.78 87.16-1.763 6.066-2.87 28.602-26.55 35.754-32.79"/><path fill="#fefefe" d="M74.764 90.824c18.255-1.415 41.582-.216 60.288-.214l120.042.025c.415.69.691 1.177.884 1.966 1.335 5.69.258 27.826.258 34.788l.009 57.107c0 9.777.35 19.706-.092 29.47-.074 1.694-.396 2.964-1.224 4.458-.028-.133-.046-.269-.092-.397-1.142-3.311-36.823-36.234-40.312-37.582-2.9-1.124-6.49.955-9.022 2.227-1.758 3.81-14.066 14.201-17.785 16.549-.019-.178-.028-.361-.074-.535-.81-3.043-36.602-44.466-40.855-48.932-1.675-1.768-3.36-3.334-5.532-4.482-2.661-.289-4.437.87-6.426 2.503-6.02 4.961-11.185 12.165-16.34 18.101l-32.1 37.115c-3.333 3.861-7.448 10.163-11.719 12.687-.12.069-.24.13-.359.196 1.353-3.829 1.832-116.397.451-125.05"/><path fill="#080807" d="M195.018 114.724c15.208-1.014 28.418 10.357 29.679 25.549s-9.887 28.592-25.049 30.105a27.93 27.93 0 0 1-25.628-11.742 27.93 27.93 0 0 1-2.329-28.093 27.91 27.91 0 0 1 23.327-15.819"/><path fill="#ffd026" d="M196.353 124.975c9.648-.288 17.73 7.237 18.135 16.881s-7.024 17.821-16.662 18.341a17.62 17.62 0 0 1-15.788-8.097 17.624 17.624 0 0 1 14.315-27.125"/><path fill="#fefefe" d="M139.157 157.812c4.382 1.881 11.194 11.946 14.471 15.781l36.86 43.197c5.376 6.335 10.375 13.455 16.202 19.332 1.326 1.333 2.495 2.375 4.391 2.783 2.136-.284 2.688-.349 4.391-1.619.497-1.235.663-2.005.387-3.337-1.169-5.626-15.926-23.505-20.86-26.832-.138-.095-.285-.183-.433-.274 4.051-1.849 14.877-11.263 16.534-15.263 4.188 1.826 42.935 37.819 44.233 40.892.203.445.396.811.525 1.276 1.178 4.152 1.086 32.839-.857 35.949.58 1.081.719 1.66.7 2.887-6.278.848-13.127.312-19.488.307l-36.648-.014-125.658.022c.157-.263.332-.518.47-.789 1.703-3.166 1.335-35.942-.055-40.012 4.124-2.461 57.204-65.394 64.835-74.286M53.351 61.816c7.392-1.207 15.76-.486 23.272-.474l42.705.035 156.368.045c-.046.258-.046.529-.147.775-1.013 2.676-6.868 7.66-9.261 9.29-.037.164-.046.34-.12.494-1.335 2.887-5.477 6.92-8.257 8.48-20.667 1.08-41.84.103-62.562.105L71.726 80.56c-.774-3.024-15.282-16.586-18.375-18.744M70.87 283.499c6.223-1.043 13.302-.444 19.617-.433l36.16.065 131.2-.035c.23.116.46.227.681.348 3.24 1.748 16.331 15.018 17.104 17.911-5.579.257-11.249.103-16.846.133l-205.72.033c.166-.083.331-.161.497-.249 3.885-2.1 16.1-14.094 17.307-17.773M47.018 71.479c.57.051 1.242.059 1.767.276 2.697 1.105 14.407 13.37 15.245 15.785.101.245.211.486.303.734 1.455 4.032 1.197 166.37.553 183.921-.046 1.322-.295 2.358-.838 3.572-.755 2.93-5.496 6.851-8.018 8.446-1.298 3.586-6.462 7.734-9.694 9.666.083-.15.175-.297.258-.451.82-1.659 1.013-3.099 1.077-4.925.525-16.571.065-33.304.065-49.889v-97.209c0-10.409 1.26-63.397-.718-69.926m234.828-.683c1.04.19 1.04.188 1.73.993-.773 18.596-.119 37.443-.119 56.075v107.102c.027 18.355 1.206 37.395-.056 55.657-.082 1.271-.543 2.323-1.178 3.418-.939-3.552-3.737-5.805-6.674-7.778-1.114-3.41-6.867-8.434-9.887-10.285.506-1.25.718-2.256.773-3.612.728-17.77 1.022-179.884-.727-184.807 4.465-2.377 13.146-12.513 16.138-16.763M164.731 30.052c.267.072.728.18 1.004.31 3.028 1.448 20.197 17.498 21.642 20.742l-22.489.002-23.07.014c7.116-4.494 16.488-15.005 22.913-21.068"/></svg>