<svg xmlns="http://www.w3.org/2000/svg" width="330" height="330" fill="none" viewBox="0 0 330 330"><path fill="#000" d="m140.622 38.5 16.371-.053c16.669-.047 41.387-3.473 54.081 9.408 9.151 9.287 9.944 20.684 9.862 32.981l35.219-.123c6.866-.018 14.697-.708 21.429.686 4.222.875 8.522 2.685 11.646 5.729 7.172 6.99 7.671 14.491 7.716 23.946l-.021 103.653-.013 28.618c0 6.291.439 13.119-.646 19.311-.932 5.318-3.877 10.508-7.686 14.286-3.681 3.65-7.338 5.527-12.393 6.6-10.021 2.126-21.753 1.06-31.999 1.068l-53.594.005-89.605.019c-13.62 0-31.442 1.31-44.658-.739-5.768-.895-10.366-2.538-14.575-6.681-3.69-3.632-6.7-8.877-7.711-13.979-1.864-9.398-.665-33.998-.668-44.917l.018-102.7c.012-10.097-.518-20.685 7.362-28.338 3.052-2.963 7.18-4.892 11.309-5.783 9.715-2.1 45.038-.701 57.284-.65-.177-11.668-.175-22.971 8.059-32.232 6.136-6.902 14.245-9.54 23.213-10.114"/><path fill="#fefefe" d="M190.854 176.084c22.052-.503 75.252-8.552 94.318-17.681.435 23.229.088 46.526.1 69.763-.03 9.775 2.747 32.146-4.152 39.577-4.467 4.81-11.368 4.571-17.373 4.598l-137.546-.003-43.52.057c-7.913.007-16.27.53-24.129-.391-3.794-.444-7.02-1.976-9.699-4.705-2.699-2.748-3.347-6.587-3.755-10.293-1.085-9.843.043-20.496.054-30.455l-.034-68.039c22.023 9.334 69.576 15.951 94.293 17.716-.068 7.484.433 13.994 5.76 19.766 4.885 5.294 11.663 7.274 18.684 7.492 7.377.229 14.653-1.336 20.132-6.577 6.191-5.922 6.674-12.798 6.867-20.825"/><path fill="#fefefe" d="m57.468 92.863 142.351.034 45.19-.017c8.471-.04 17.141-.499 25.586-.026 3.059.171 6.191.289 8.85 1.995 2.911 1.867 4.533 4.272 5.244 7.64 1.121 5.32 1.218 31.043.61 36.538a10.6 10.6 0 0 1-1.823 4.814c-5.418 7.774-28.586 10.647-37.822 12.627-18.333 3.419-36.414 6.033-54.996 7.742.092-5.105 1.18-13.217-2.784-17.103-2.38-2.333-8.782-2.448-11.944-2.49-6.177-.082-30.505-1.387-34.268 2.903-3.324 3.788-2.261 11.938-2.19 16.658-19.645-2.08-76.598-8.694-91.632-18.409-1.426-1.995-2.057-4.566-2.448-6.96-1.062-6.504-1.17-27.267-.088-33.737.459-2.739 1.485-5.453 3.146-7.692 2.33-3.139 5.383-3.932 9.018-4.517m79.276-41.548c7-.764 14.341-.147 21.379-.038 7.813.12 15.617-.081 23.429-.09 7.626-.01 15.675.147 21.372 5.992 6.167 6.327 5.751 15.48 5.55 23.653l-14.174-.001-72.779.023c-.023-6.37-.464-13.257 2.326-19.16 2.658-5.623 7.232-8.377 12.897-10.38"/><path fill="#fed515" d="m151.28 156.974 27.825.026c-.057 8.866 2.494 23.714-3.036 30.939-3.14 2.243-5.705 2.853-9.518 2.986-4.179.146-8.825.191-12.003-3.015-5.792-5.844-3.376-22.9-3.268-30.936"/></svg>