<svg xmlns="http://www.w3.org/2000/svg" width="330" height="330" fill="none" viewBox="0 0 330 330"><path fill="#000" d="M149.034 71.785c2.334-3.818.573-9.618 2.864-13.906 1.841-3.457 5.284-6.238 9.046-7.296a14.6 14.6 0 0 1 11.338 1.485 15.34 15.34 0 0 1 7.097 9.425c.718 2.867.913 7.764-.653 10.31l41.654-.02c2.283-3.935.688-9.889 3.153-14.417 1.812-3.321 4.741-5.854 8.402-6.87 3.805-1.054 7.988-.387 11.381 1.602a15.85 15.85 0 0 1 7.263 9.755c.674 2.814.906 7.434-.63 9.947 5.784-.066 12.417-.724 18.093.36 4.437.847 8.344 3.166 10.881 6.964 1.957 2.944 2.827 6.142 3.11 9.63.848 10.352.196 21.13.275 31.536q.284 37.144.174 74.29l.087 41.854c.037 8.642 1.001 18.413-.775 26.879-.791 3.785-2.24 7.569-5.582 9.769-.189.606-.094.548-.45.965-3.486 4.154-9.242 4.444-14.222 4.625-15.455.561-31.041.152-46.503.131l-79.189-.021-44.509-.032c-8.786.027-18.21.754-26.887-.405-3.748-.5-6.988-2.169-9.72-4.767-4.706-4.475-6.228-10.59-6.337-16.906-.68-38.355-.014-76.872.03-115.242a2311 2311 0 0 0-.182-33.199c-.065-6.369-.623-13.206.21-19.518.602-4.502 2.255-8.953 5.503-12.217 6.132-6.152 16.375-4.783 24.342-4.71 2.08-3.344.812-10.421 2.972-14.63 1.805-3.52 5.966-5.64 9.518-6.884 3.574-.441 6.807-.18 10.011 1.596 3.639 2.022 6.473 5.342 7.59 9.396.79 2.866.957 7.902-.479 10.53z"/><path fill="#fefefe" d="M57.442 128.034c5.865-1.165 13.397-.382 19.406-.383l40.863.03 154.05.029c.551.904.739 1.724.805 2.772.543 8.458.072 17.26.072 25.743l.007 52.118-.007 34.199c0 5.783.508 12.184-.254 17.894-.282 2.158-.92 3.39-2.653 4.694-.036.125-.058.257-.116.375-.449.95-1.616 1.812-2.609 2.125-5.415 1.724-102.647.592-116.783.581-12.512-.009-83.748 1.237-87.916-1.29-2.683-1.631-3.77-6.88-4.11-9.776-1.226-10.437-.24-23.784-.218-34.626l.087-71.575c0-6.008.978-17.188-.508-22.549-.036-.121-.08-.24-.116-.361"/><path fill="#000" d="M94.123 206.89c4.712-.591 22.704-1.283 26.502.575 1.356 1.487 1.929 3.066 2.342 4.997.964 4.573 1.377 22.607-1.196 26.404-1.001 1.476-2.161 1.759-3.835 2.097-.725.292-1.428.307-2.197.361-3.878.274-20.311.804-22.805-1.64-4.03-3.946-2.537-18.922-2.226-24.33.21-3.677.551-5.894 3.415-8.464m.13-54.381c4.835-.651 22.458-1.266 26.473.63 1.276 1.407 1.813 2.844 2.204 4.662.979 4.544 1.435 22.888-1.167 26.67-1.008 1.467-2.153 1.762-3.827 2.108-3.081 1.217-12.353.33-16.028.404-2.747.056-6.96.368-9.01-1.846-3.69-3.984-2.596-20.462-2.052-25.88.312-3.046.964-4.779 3.407-6.748m116.789 0c4.343-.556 22.233-1.217 25.713.322 1.348.596 2.08 2.077 2.501 3.424 1.493 4.726 1.812 23.79-.479 27.84-.833 1.467-1.855 1.893-3.414 2.363-2.428 1.218-15.832.703-19.239.601-2.052-.061-5.118-.448-6.488-2.13-3.269-3.996-1.848-19.087-1.653-24.234.138-3.58.326-5.648 3.059-8.186m-.014 54.382c5.676-.729 20.667-1.199 25.901.347.885.661 1.378 1.182 1.842 2.206 2.008 4.457 2.276 24.047.253 28.52-.841 1.853-1.906 2.198-3.668 2.885-2.37 1.044-15.839.69-19.224.597-2.03-.056-5.133-.464-6.488-2.11-3.262-3.939-1.827-17.816-1.704-22.903.102-3.959.044-6.641 3.088-9.542m-58.529-54.382c5.132-.693 20.442-1.264 25.017.087 1.399.414 2.087 1.342 2.682 2.624 1.914 4.15 2.073 24.441.145 28.46-.841 1.75-1.914 2.259-3.705 2.791-.942.381-1.797.432-2.798.489-4.211.241-19.652.9-22.204-1.662-3.653-3.66-2.464-14.295-2.414-19.112.051-5.012-.55-9.917 3.277-13.677m-.065 54.381c4.023-.546 22.682-1.251 25.879.429 1.225.644 1.892 2.182 2.291 3.443 1.457 4.574 1.689 23.849-.537 27.729-.841 1.46-1.863 1.881-3.421 2.351-.907.445-1.769.46-2.77.514-4.175.226-19.739.856-22.254-1.669-3.559-3.573-2.436-13.683-2.407-18.376.036-5.1-.681-10.581 3.219-14.421"/><path fill="#fed515" d="m178.712 82.06 41.993-.028c1.987 3.523.631 8.932 2.066 12.93 1.102 3.069 4.111 5.87 7.025 7.237a14.7 14.7 0 0 0 11.468.356c3.545-1.355 6.872-4.38 8.307-7.93 1.095-2.699 1.733-7.453.508-10.095.398-1.085.652-1.572 1.5-2.358 4.582-.417 12.962-1.23 17.043.98 1.921 1.039 2.74 3.302 3.269 5.299 1.153 4.365 1.921 25.49-.138 29.045l-214.717-.012.13-.279c2.93-5.806-.355-19.385.856-26.537.66-3.925 2.218-6.03 5.415-8.312 4.879-.59 10.018-.294 14.933-.277 2.305 3.864.776 9.754 3.095 14.18 1.66 3.172 4.654 5.784 8.09 6.834 3.748 1.146 7.945.598 11.352-1.32a15.7 15.7 0 0 0 7.322-9.376c.797-2.869 1.029-7.704-.428-10.315l41.269-.018c2.421 3.782.798 9.585 2.98 13.83 1.739 3.38 5.284 6.226 8.945 7.215a14.5 14.5 0 0 0 11.301-1.613c3.458-2.08 6.089-5.632 6.981-9.583.616-2.744.95-7.423-.565-9.853"/><path fill="#fefefe" d="M91.172 60.604c1.094-.165 2.428-.411 3.537-.31 1.5.136 2.35.87 3.284 1.98 1.146 3.247 1.523 25.201.493 28.248-.565 1.698-1.776 2-3.255 2.715-.08.03-.152.07-.232.092-1.34.381-2.305.269-3.559-.278-1.167-1.044-1.631-2.05-1.964-3.574-1.052-4.838-1.19-20.92.058-25.715.29-1.13 1-2.19 1.638-3.158m142.198.001c1.131-.172 2.407-.433 3.552-.3 1.348.157 2.595 1 3.284 2.163 1.16 1.944 1.094 26.324.246 28.426-.558 1.38-1.776 1.812-3.066 2.342-1.421.445-2.458.369-3.799-.236-1.391-1.233-1.834-2.479-2.131-4.292-.884-5.472-.87-19.406.174-24.725.254-1.297.972-2.329 1.74-3.378m-71.121-.001c1.182-.227 2.487-.408 3.683-.267 1.544.182 2.348 1.205 3.24 2.364 1.138 5.063.986 22.834.087 28.216-.877 1.408-1.587 1.725-3.11 2.319-1.42.358-2.182.371-3.552-.157-1.74-1.416-2.087-2.964-2.348-5.104-.609-4.914-.921-20.218.318-24.581.29-1.024 1.044-1.968 1.682-2.79"/></svg>