<svg xmlns="http://www.w3.org/2000/svg" width="330" height="330" fill="none" viewBox="0 0 330 330"><path fill="#080807" d="M98.75 79.27c42.056-3.195 78.769 28.239 82.095 70.292 3.334 42.054-27.966 78.881-70.006 82.352-42.227 3.488-79.254-28.003-82.595-70.253C24.893 119.412 56.5 82.479 98.75 79.27"/><path fill="#ffd026" d="M99.26 87.945c37.302-2.907 69.92 24.912 72.956 62.21 3.028 37.298-24.672 70.021-61.957 73.177-37.45 3.171-70.358-24.698-73.402-62.173-3.044-37.474 24.93-70.293 62.404-73.214"/><path fill="#080807" d="M103.034 99.599c1.584-.23 2.502-.075 3.977.527.808.74 1.545 1.479 1.875 2.552.627 2.025.204 4.97-.753 6.816 6.212 1.104 11.006 3.434 15.328 8.07 2.785 2.981 6.181 9.291 5.679 13.498-.156 1.33-.737 2.709-1.953 3.403-5.295 3.015-8.676-9.808-12.763-13.127-1.828-1.481-4.158-2.138-6.362-2.854.212.386.322.527.463.921 1.271 3.562.949 28.1-.392 31.016 3.671 1.066 7.625 2.506 10.974 4.392 5.899 3.327 10.645 8.639 12.403 15.269a24.53 24.53 0 0 1-2.55 18.7c-4.526 7.654-11.728 10.821-19.988 12.873.196 1.631.392 4.676-.62 6.023-1.247 1.653-2.926 1.581-4.777 1.801-3.734-2.284-2.063-3.339-3.303-6.652-1.106-2.952-6.103-3.188-8.692-4.456-6.016-2.944-11.735-9.142-13.822-15.541-.8-2.456-1.176-4.913.024-7.304.682-.57 1.286-1.068 2.173-1.272 5.836-1.349 6.809 8.482 9.704 11.834 2.463 2.849 6.605 4.14 9.805 5.945.322-.595.62-1.137.777-1.804.926-4.025.941-30.993-.62-33.836-1.2-.955-3.185-1.612-4.573-2.315-6.762-3.432-11.963-7.28-14.348-14.862-1.71-5.463-.98-11.544 1.655-16.594 3.868-7.44 9.978-10.846 17.666-13.275.808-1.243.455-3.846.534-5.336.11-2.169.902-2.99 2.479-4.412"/><path fill="#ffd026" d="M108.447 160.801c.643-.081 1.106-.131 1.757-.018 4.158.723 8.37 3.72 10.661 7.2 2.259 3.43 3.185 7.76 2.243 11.781-.659 2.853-2.133 5.535-4.659 7.097-.102.337-.094.405-.33.736-1.937 2.747-7.256 3.912-10.261 4.768.071-.114.142-.224.204-.341 1.852-3.628 1.569-26.732.385-31.223m-11.085-41.196 2.644-.054c.07.097.157.183.212.288 1.019 1.933.502 24.151-.479 26.723-1.145-1.263-4.409-2.3-6.009-3.006-.298-.381-.588-.778-.902-1.142-.675-.77-1.412-1.492-1.977-2.354-1.796-2.739-2.746-6.821-2.016-10.013 1.083-4.707 4.722-7.865 8.527-10.442"/><path fill="#080807" d="M202.958 197.288c9.798-.941 20.224-.677 29.92 1.025 8.15 1.431 19.384 4.051 24.294 11.28 1.507 2.229 2.15 4.674 2.409 7.326.918 9.255-.008 19.296-.032 28.652-.023 9.643 1.499 24.823-.376 33.638-.996 4.684-4.079 8.228-8.064 10.72-16.129 10.076-42.557 8.553-60.333 4.258.07 3.388-1.271 6.796-3.397 9.403-7.092 8.709-20.875 11.09-31.465 12.221-10.684 1.031-23.196.838-33.645-1.813-7.264-1.844-16.168-5.282-20.114-12.158-1.192-2.079-1.781-4.383-2.039-6.752-.605-5.482-.51-37.926.721-42.252 1.287-4.51 4.731-7.511 8.716-9.71 14.465-7.983 42.745-10.134 58.505-5.571 3.483-8.142-3.036-19.185 3.64-28.096 6.416-8.571 21.282-10.719 31.26-12.171"/><path fill="#ffd026" d="M139.786 244.365c11.084-.728 28.327-.992 37.568 5.872 1.937 1.436 3.6 3.368 3.82 5.859.141 1.579-.58 3.064-1.6 4.228-6.174 7.035-21.942 7.79-30.861 8.028-7.397.18-14.732-.099-21.981-1.721-5.577-1.248-14.936-3.923-18.176-9.055-.156-1.316-.321-2.029.55-3.188 5.302-7.071 22.255-9.051 30.68-10.023m66.671-38.837c11.336-.912 31.496-.45 40.62 6.984 1.514 1.23 2.98 2.918 3.082 4.957.063 1.317-.455 2.457-1.317 3.427-5.178 5.795-21.573 7.692-29.449 8.042-11.022 1.201-28.264-.085-37.701-6.144-2.001-1.286-3.405-2.689-3.899-5.085.11-1.149.314-2.053 1.035-2.99 5.107-6.7 19.651-8.274 27.629-9.191"/><path fill="#fefefe" d="m248.99 230.245 1.71-.026c.283.443.51.808.62 1.332.526 2.652-.345 5.313-1.726 7.55-2.91 4.718-9.899 6.329-15.038 7.573-17.14 4.147-40.768 3.572-56.026-5.775-1.969-3.45-.549-7.465-2.338-10.996 11.846 4.351 18.537 7.217 31.489 7.828 10.535.497 33.3-.167 41.309-7.486m-140.575 58.847c3.02-.057 10.543 4.278 14.089 5.251 6.174 1.694 13.155 2.121 19.533 2.233 10.206.179 31.433-.445 39.019-7.755.824 1.478.981 2.755.996 4.417.024 2.415-.745 3.514-2.369 5.161l-.361.908c-4.746 4.292-10.496 5.699-16.646 6.804-14.261 2.565-37.764 3.043-49.97-5.64-4.291-3.05-3.522-6.838-4.291-11.379m-.031-19.419c3.028.019 10.308 4.197 13.846 5.226 9.453 2.752 21.078 2.868 30.853 2.257 8.001-.5 22.396-1.691 27.887-7.92.863 1.351 1.169 3.265 1.114 4.871-.07 2.013-.525 2.805-1.867 4.154l-.345 1.026c-5.64 5.353-14.544 6.935-22.051 7.839-12.041 1.45-37.027 1.2-46.723-7.003-2.926-2.472-2.314-6.967-2.714-10.45m140.199-18.832c.831-.114 1.341-.072 2.149.152q.08.202.149.406c.832 2.49.447 5.072-.753 7.378-.596 1.7-2.244 2.826-3.703 3.766-13.249 8.546-39.623 7.095-54.504 3.901-2.424-2.106-1.161-7.787-1.914-11.045 5.538.997 11.092 1.798 16.717 2.113 9.931.555 34.383-.003 41.859-6.671m.172 20.009c1.028-.093 1.255-.154 2.157.286.848 1.537.644 1.945.369 3.652-.58 3.665-3.687 6.951-6.676 9.007-2.071 1.427-5.358 1.988-7.813 2.577-15.266 3.658-29.676 2.55-44.887-.673-3.569-2.967-.353-6.544-2.024-10.418 9.437 1.84 18.521 2.662 28.139 2.515 7.797-.119 25.299-1.333 30.735-6.946"/><path fill="#080807" d="M149.027 13.68c5.797-.777 14.097-1.395 19.47 1.139 2.887 1.363 4.88 3.538 5.845 6.607 1.059 3.351 1.373 11.992-.283 14.924l43.255.015c2.354-4.237.118-10.265 2.574-15.048 1.765-3.42 5.248-6.145 8.903-7.239a16.2 16.2 0 0 1 12.395 1.398c3.828 2.127 6.848 5.762 7.97 10.028.816 3.097.941 8.102-.698 10.897 6.103.016 12.551-.17 18.019 2.963 4.212 2.411 7.122 6.33 8.354 11.014 2.11 8.05.714 40.791.738 51.259l.062 40.588c.008 7.309.385 14.858-.172 22.139-.228 2.93-.934 5.678-2.464 8.21-3.326 5.513-8.809 8.612-15.045 9.818-7.233 1.396-20.2.301-27.896.312-11.822.017-24.059.83-35.826.016-1.569-.107-3.883-.231-5.115-1.28-.729-.624-1.318-1.896-1.349-2.854-.047-1.209.439-2.341 1.286-3.191 2.644-2.663 47.86-1.679 55.564-1.7 6.087.124 14.379 1.281 19.274-3.219 3.404-3.131 2.973-8.781 3.036-13.162.321-23.544.047-47.13.039-70.678-.008-9.434 1.028-24.96-.306-33.8-.267-1.81-1.255-3.288-2.573-4.535-3.797-3.598-10.01-3.027-14.85-3.036 1.043 1.806.612 5.388.063 7.36-1.043 3.772-4.001 6.629-7.374 8.422a17.3 17.3 0 0 1-13.273 1.268c-5.562-1.732-9.108-5.854-9.978-11.65-.228-1.517-.142-3.64-.903-4.979a15 15 0 0 0-.337-.545c-14.457.17-28.939.018-43.396.015 1.255 2.05 1.349 6.628.761 8.95-.722 2.846-2.911 5.112-5.413 6.524-5.617 3.173-15.022 3.228-21.079 1.553-11.68-3.23-6.275-10.015-10.26-16.717a6 6 0 0 0-.196-.296c-2.636-.01-5.845-.285-8.402.338-13.603 3.319-4.401 17.882-8.37 23.886-.636.968-1.601 1.508-2.754 1.671-1.482.21-2.737-.234-3.851-1.186-2.095-1.784-1.718-8.37-1.765-11.092-.11-6.204.69-12.255 5.248-16.842 5.499-5.532 12.622-5.658 19.878-5.61 2.643-4.432.11-11.313 2.369-16.04 1.828-3.826 5.146-5.171 8.825-6.615"/><path fill="#fefefe" d="M156.589 22.509c2.291-.072 6.017-.517 7.947.908 1.279.95 1.482 3.156 1.647 4.664.557 5.311 1.655 20.525-1.647 24.658-2.385.992-5.601.636-8.174.61-1.985.059-5.052.366-6.754-.744-1.146-.753-1.428-2.286-1.632-3.589-.902-5.674-1.898-20.798 1.498-25.493 2.095-1.166 4.77-.95 7.115-1.014m73.715.587c1.695-.276 3.507-.656 5.209-.23 1.844.465 3.075 1.758 3.946 3.402 2.667 5.03 2.675 19.223.573 24.447-.808 2.009-2.087 2.395-3.93 3.134a8.6 8.6 0 0 1-1.365.189c-1.938.086-3.719-.123-5.123-1.586-2.087-2.184-2.557-6.221-2.644-9.114-.18-6.309-1.239-15.391 3.334-20.242"/><path fill="#080807" d="M230.274 92.54c4.322-.086 15.148-1.369 18.529.888 1.467.979 2.173 2.827 2.573 4.469 1.082 4.468 1.412 13.843-1.153 17.798-1.052 1.614-2.401 1.932-4.197 2.343-4.55.407-12.191 1.665-16.293-.42-1.813-.919-2.801-2.485-3.381-4.377-1.091-3.503-1.326-15.54.329-18.532.784-1.435 2.102-1.752 3.593-2.17"/><path fill="#fefefe" d="M233.945 101.366c2.62-.341 5.381-.228 8.025-.265.541.898.839 1.796.996 2.831.29 1.924.094 3.681-1.09 5.248-2.503.627-5.907.255-8.52.267 1.444-2.538 1.091-5.328.589-8.081"/><path fill="#080807" d="M228.642 128.436c4.989-.847 15.32-1.602 19.964.344 1.161.489 1.671 1.332 2.15 2.444 1.835 4.261 1.835 15.079-.102 19.249-.793 1.712-1.789 1.889-3.428 2.541-.683.442-1.64.57-2.44.627-3.561.251-14.528.886-16.819-1.443-2.189-2.229-2.29-6.727-2.338-9.663-.086-4.7-.4-10.564 3.013-14.099"/><path fill="#fefefe" d="M233.944 136.675c2.628-.336 5.397-.212 8.057-.24.682 1.094.957 2.389 1.082 3.664.204 2.144-.274 3.228-1.569 4.816-2.573.414-5.569.159-8.189.181 1.498-2.556 1.137-5.623.619-8.421"/><path fill="#080807" d="M197.216 92.54c3.828-.08 14.026-1.258 16.944.83 1.765 1.263 2.307 4.667 2.511 6.694.384 3.858 1.09 13.773-1.962 16.826-1.404 1.397-2.98 1.24-4.808 1.402-4.966.107-10.669.81-15.391-.99-1.06-.935-1.491-1.684-1.907-3.043-1.208-4.015-1.592-16.35.73-19.755 1.027-1.518 2.236-1.56 3.883-1.965"/><path fill="#fefefe" d="M199.718 101.366c2.652-.357 5.46-.23 8.143-.261.29.465.502.907.636 1.441.557 2.184.549 4.533-.659 6.478-2.424.845-6.049.405-8.653.401 1.341-2.668 1.114-5.218.533-8.059"/><path fill="#080807" d="M194.588 128.436c4.77-.8 14.568-1.507 19.016.234 1.294.507 1.741 1.313 2.235 2.545 1.522 3.766 1.765 16.494-.188 20.01-.91 1.648-2.079 1.72-3.742 2.212-4.581.724-14.395 1.244-18.184-1.207-1.6-2.343-1.725-5.136-1.827-7.895-.165-4.793-.683-12.281 2.69-15.899"/><path fill="#fefefe" d="M199.774 136.675c2.605-.336 5.366-.215 7.994-.242.628 1.033.824 2.09 1.012 3.266.329 2.14-.118 3.538-1.349 5.216-2.55.449-5.641.158-8.253.184 1.475-2.556 1.091-5.633.596-8.424"/></svg>