<svg xmlns="http://www.w3.org/2000/svg" width="330" height="330" fill="none" viewBox="0 0 330 330"><g clip-path="url(#a)"><path fill="#000" d="M45.497 43.736c11.173-1.331 23.16-.45 34.442-.447l65.226.017 91.05-.008c16.707-.004 33.757-.742 50.418.345 2.004 1.311 3.701 2.622 5.131 4.559 4.449 6.027 7.747 13.249 11.306 19.84l17.452 32.11c2.785-.044 5.982-.392 8.252 1.514 1.701 1.429 1.69 4.45 1.801 6.539.252 4.76 1.479 22.173-1.89 25.674-2.247 2.336-6.453 1.794-9.434 1.816-2.904 24.607-7.407 49.259-11.174 73.759-2.564 16.665-4.122 34.466-8.197 50.798-.907 3.631-2.14 7.002-4.384 10.027-4.783 6.446-11.512 8.839-19.152 10.024 2.451 4.708 3.44 9.928 2.284 15.155a20.5 20.5 0 0 1-9.086 12.876c-5.683 3.589-11.128 3.631-17.48 2.202-5.27-2.571-9.662-5.865-12.117-11.369-2.942-6.596-1.453-12.647.928-19.11-50.3-.663-100.727-.115-151.034-.008 2.606 5.69 3.98 11.68 1.861 17.797-1.8 5.192-5.91 9.254-10.866 11.504-5.013 2.275-10.605 2.548-15.753.539-4.948-1.931-9.176-5.606-11.29-10.534-2.748-6.405-1.477-12.818.972-19.063-5.128-.781-9.693-2.011-13.956-5.099a21.74 21.74 0 0 1-7.85-10.541c-4.144-12.122-4.97-28.339-6.853-41.188-4.288-29.262-8.325-58.586-12.996-87.788-1.557-.018-3.122-.037-4.676-.155-2.116-.16-3.255-.959-4.596-2.533-1.775-5.282-2.578-23.619-.963-29.044 1.573-5.284 7.478-1.856 9.38-5.407l17.14-31.7c3.407-6.275 6.659-13.478 11.096-19.082 1.344-1.698 3.204-2.868 5.008-4.02"/><path fill="#fed300" d="M23.865 135.5c32.217.416 64.487.037 96.709.04l188.322-.023c-2.89 13.638-4.449 27.85-6.57 41.638l-11.299 74.019c-.687 4.479-1.254 9.216-3.996 12.986-1.782 2.451-4.454 4.277-7.465 4.752-9.018 1.42-19.42.471-28.6.474l-56.991.01-92.898-.015c-15.421-.006-31.338.809-46.712-.13-2.787-.171-4.958-1.028-7.19-2.7-2.946-2.205-4.099-5.355-5.051-8.796-3.377-12.203-4.224-26.478-6.065-39.041z"/><path fill="#000" d="M82.3 155.601c1.812.259 4.024.831 5.207 2.333.886 1.126 1.055 2.674 1.23 4.053 1.9 14.996 2.394 30.416 3.623 45.505.775 9.517 3.212 24.094 2.29 32.9-.225 2.151-2.065 3.424-3.602 4.748-1.838-.214-3.885-.725-5.163-2.134-1.005-1.109-1.235-2.685-1.442-4.139-2.12-14.884-2.528-30.459-3.687-45.465-.794-10.274-2.823-21.975-2.145-32.209.189-2.857 1.655-3.838 3.69-5.592m163.805.012c1.603.211 3.593.635 4.789 1.785 2.079 1.999 1.687 5.18 1.614 7.841-.374 13.668-2.198 27.585-3.254 41.241-.817 10.589-.609 23.881-3.062 33.967-.479 1.972-1.423 3.098-2.872 4.473-.544.012-1.097.024-1.639-.018-2.179-.169-3.256-.882-4.649-2.396-.855-2.606-.661-5.337-.513-8.045.921-16.863 2.7-33.786 4.055-50.625.561-6.97.326-18.084 2.324-24.518.444-1.432 2.12-2.725 3.207-3.705m-55.148-.019c2.093.31 3.403.706 5.139 1.933 1.127 1.551 1.533 2.793 1.624 4.71.797 16.779.069 33.92.063 50.75-.004 7.752 1.15 18.989-.281 26.462-.319 1.664-1.863 3.149-2.974 4.36-1.664-.05-4.175-.146-5.396-1.469-.938-1.014-1.341-1.848-1.478-3.226-.867-8.754-.217-18.09-.22-26.911-.007-15.887-.245-31.826.078-47.707.092-4.536.151-5.731 3.445-8.902m-51.649-.079c2.026.318 3.891.906 5.277 2.471 1.449 1.636 1.442 73.749.796 81.204-.203 2.343-2.049 3.483-3.739 4.874-1.607-.244-3.89-.617-5.009-1.938-.786-.93-1.13-1.838-1.252-3.046-1.22-12.062-.105-25.238-.078-37.428.03-13.29-1.078-27.722.34-40.893.286-2.659 1.71-3.692 3.665-5.244"/><path fill="#fed300" d="m13.284 110.909 306.515.025-.015 13.801-306.448.063c-.13-4.624-.05-9.264-.052-13.889M241.676 53.86l41.627.002c9.007 14.917 16.966 30.917 25.059 46.359l-53.896.125c-4.68-15.359-8.067-31.116-12.79-46.487m-96.782-.049 37.843.066c1.003 5.563 5.478 43.71 3.876 46.254l-2.219.13-44.607.01c1.879-15.427 2.591-31.131 5.107-46.46m-49.377.007c12.866.184 25.754.044 38.623.057-1.021 15.433-3.185 30.923-4.862 46.305l-8.659.06-37.698.016a2179 2179 0 0 1 12.596-46.438m-46.757.006 35.951.048-12.275 46.425-14.155-.045-34.467.019c7.072-15.847 16.563-31.217 24.946-46.447m144.795.043 37.96.016a4265 4265 0 0 1 12.164 46.376l-45.738.032a3371 3371 0 0 1-4.386-46.425"/><path fill="#fefefe" d="M69.907 281.269a9.94 9.94 0 0 1 11.968 7.067 9.94 9.94 0 0 1-6.796 12.126 9.94 9.94 0 0 1-9.765-2.445 9.943 9.943 0 0 1 4.593-16.748m186.234.122c5.263-1.423 10.685 1.683 12.122 6.944s-1.657 10.693-6.914 12.143c-5.273 1.454-10.727-1.653-12.167-6.932-1.441-5.279 1.677-10.726 6.959-12.155"/></g><defs><clipPath id="a"><path fill="#fff" d="M0 0h330v330H0z"/></clipPath></defs></svg>