<svg xmlns="http://www.w3.org/2000/svg" width="330" height="330" fill="none" viewBox="0 0 330 330"><path fill="#000" d="M102.089 22.088c6.226-.106 13.225-.337 19.325.92 1.374 1.273 1.333 1.965 1.906 3.616.835 2.404 2.796 2.428 4.986 3.108a8162 8162 0 0 1 80.975 25.377c7.362 2.328 14.755 4.59 22.079 7.032 3.879 1.293 7.89 3.146 11.896 3.927 9.092 1.775 29.265-1.409 35.857 1.783 1.972 2.118 2.266 4.66 2.417 7.456.295 5.446.681 20.854-.451 25.571-.265 1.106-.839 1.771-1.59 2.594-5.034 2.24-28.038.622-34.912.637.165.332.337.661.489 1 1.143 2.569.933 19.721-.047 22.046 3.875 1.636 6.771 3.501 9.201 6.998 3.928 5.65 5.326 16.123 3.924 22.8-2.052 9.766-8.978 4.497-13.1 7.217.311 4.051 7.039 6.122 9.202 9.764 2.836 4.774 1.599 10.167.34 15.193.104.072.221.127.311.215 2.029 1.957 6.233 8.476 6.456 11.19 5.015.231 17.766-1.622 21.224 1.784 1.72 1.693 2.211 4.443 2.285 6.764.292 9.149-.206 18.496-.169 27.679.038 9.388.782 19.448-.194 28.76-.188 1.793-.347 3.652-1.626 5.019-6.878 2.166-75.122 1.571-85.581.431l.358-.535-1.171.247c-.037-.047-.09-.087-.111-.144-1.751-4.658-1.661-64.892.413-68.566 4.306-2.607 11.662-1.52 16.584-1.438 3.386-1.691 9.315-7.267 11.28-10.543-.04-3.749-3.207-5.976-2.148-10.375.948-1.372 1.547-1.933 3.071-2.627 5.209.671 6.55 9.405 11.514 11.78 1.557.745 3.241.747 4.856.187 1.836-.636 3.641-1.768 4.487-3.577.905-1.935 1.309-5.144.468-7.148-1.377-3.285-5.414-1.917-7.992-3.252-2.587-1.34-2.816-8.122-3.879-10.945-.724-.021-1.451-.056-2.175-.065-1.723-.025-3.776.222-5.18-1-1.474-1.282-1.823-3.36-2.064-5.211-.823-6.366-1.421-18.799 3.295-23.661 2.037-2.1 5.227-3.769 6.881-6.06q.159-.226.314-.456c.091-.249.188-.496.273-.747 1.099-3.267.939-20.004-.407-22.693l-101.27-.025c.277.466.409.636.595 1.109.911 2.307 7.681 143.914 7.867 158.16.019 1.472-.04 2.392-.694 3.734 5.098.058 17.893-1.7 21.89.991 1.368.921 1.938 2.501 2.228 4.057.641 3.438.621 25.534.212 29.791-.153 1.598-.424 2.676-1.29 4.025-2.405.65-4.916.728-7.396.774-23.682.442-47.429-.045-71.118-.058-6.82-.005-23.499 1.406-29.15-.236-.917-1.136-1.332-2.17-1.703-3.585-1.592-6.047-1.9-30.097.967-35.042 4.061-2.177 17.259-.929 22.364-.866.603-6.07.501-12.321.79-18.422l1.959-37.951 5.767-106.457c-9.39-.088-29.62 1.516-37.38.051-1.366-.258-2.17-.24-2.897-1.537-2.576-4.6-1.873-28.583-.208-33.766 2.537-2.377 7.69-1.547 11.044-1.506 8.476-8.193 16.532-16.767 24.745-25.217 6.365-6.55 13.12-12.92 18.808-20.076"/><path fill="#fece00" d="M263.053 209.233c4.039-.137 8.044-.089 12.082.008.224.421.38.663.523 1.099 1.165 3.57.798 44.394.225 50.15-.1 1.004-.438 1.693-.919 2.559-19.835.42-39.676.54-59.514.36l-12.339-.043c.208-.403.397-.714.531-1.14 1.222-3.856.83-44.126.255-50.158-.101-1.055-.446-1.766-.949-2.679q30.053.183 60.105-.156"/><path fill="#fefefe" d="m163.032 75.827 108.52-.346c.409.772.836 1.5.973 2.375.619 3.967 1.151 14.07-.934 17.372-7.75-.324-15.594-.084-23.355-.09l-109.027.048c.193-.364.511-.902.647-1.321 1.16-3.557 1.032-14.71-.683-17.883zM64.09 275.758l92.942.023c.237.476.526.959.677 1.472.929 3.166.887 17.661-.666 20.422-2.879 1.364-82.651.339-92.974.329zm65.435-88.552 1.055.451c1.066 3.472 3.331 60.947 3.372 67.182.015 2.168-.048 4.116-.734 6.197-1.019-3.404-13.848-14.307-17.107-17.418-7.29-7.004-14.261-14.353-21.312-21.596 8.067-8.466 16.905-16.383 25.211-24.636 3.184-3.163 7.079-6.421 9.515-10.18m-4.592-149.314c8.889 2.508 88.442 26.83 90.318 28.366.315.257.514.63.771.946-6.742 1.098-19.186.165-26.449.17l-61.411.068c1.04-5.45-2.445-23.19-3.229-29.55M94.234 145.913c4.571 2.483 26.841 26.131 32.942 31.982l-18.912 18.687-16.993 16.709c.708-22.433 2.845-44.969 2.963-67.378m32.013-35.387.581.906 1.995 36.726c.294 5.688 1.109 11.858.696 17.523-.074 1.014-.431 1.691-.934 2.549-.772-3.654-9.602-10.701-12.588-13.624l-17.503-17.442q13.725-13.476 27.753-26.638m-24.791-34.125 29.208-.237c.278.565.527 1.032.609 1.667.51 3.925.963 14.234-1.094 17.4l-8.343-.03q-15.658 0-31.315.22c.11-6.295.063-12.597.085-18.893zM89.845 230.469c6.892 6.125 13.26 13.047 19.901 19.464 5.418 5.235 12.525 10.58 16.925 16.641l-.751.438-37.982.018c1.383-12.028 1.52-24.455 1.907-36.561M54.943 76.629l26.82-.013-.032 18.942-26.806.07zm52.29-45.58 8.069.26c1.106 11.592 4.403 23.758 4.4 35.347-1.417 1.023-2.332.758-4.051.774l-13.995.098c2.022-12.126 3.723-24.325 5.577-36.48M95.957 42.151l.156.172c.977 2.628-2.708 20.615-3.066 25.151l-20.598.006-.527-.518 1.702-1.978-.9-.455 1.113.171a1585 1585 0 0 0 22.12-22.549m3.318 61.859 20.944-.082a764 764 0 0 0-15.042 14.361 791 791 0 0 1-9.803 9.565c.752-5.322-.422-19.6 2.144-23.527zm139.856 32.193c2.145-.385 3.956-.375 5.925.684 1.756.944 2.71 2.318 3.202 4.206 1.228 3.094 1.266 9.613.466 12.87-1.88.82-4.734.498-6.789.527l-8.431.474c1.245-2.504.659-6.158.654-8.919-.011-4.674 1.833-6.712 4.973-9.842m7.218 59.801c1.23-.037 1.694-.23 2.69.583 1.218.995 1.514 2.462 1.699 3.935l-21.484-.016-1.309-.209c-.093-1.144 2.056-2.377 2.745-3.482.104-.168.2-.341.3-.511 2.501.709 4.987 1.376 7.589 1.576 2.622.201 5.685-.145 7.77-1.876"/></svg>