<svg xmlns="http://www.w3.org/2000/svg" width="330" height="330" fill="none" viewBox="0 0 330 330"><path fill="#000" d="M14.089 27.442c22.882-.702 46.006-.05 68.905-.048l135.448.01c13.804 0 94.777-1.296 101.178.757 2.345.75 4.198 1.752 5.38 3.982-.081 1.431-.269 2.143-1.334 3.18-4.512 4.416-13.473 2.905-19.373 2.798.126.258.269.51.385.774 1.37 3.077 1.164 230.412.618 252.632-.036 1.557-.215 2.759-.814 4.218-.162 1.309-.932 2.664-1.863 3.601-5.084 5.13-28.62 3.16-36.399 3.091-5.425.107-14.53 1.457-19.167-1.633-10.447-6.967 1.495-32.544-.967-42.045-.027-.12-.072-.238-.107-.357-18.299-.472-36.722-.047-55.039-.053l-110.005.03a10.2 10.2 0 0 1 1.182 2.054c2.462 5.634 5.255 30.522 2.945 36.056-.779 1.842-2.202 3.913-4.136 4.643-7.027 2.659-45.468 2.207-52.21-.831-3.276-1.479-4.019-4.274-4.448-7.622-.842-6.595-.081-13.865-.072-20.539l-.036-42.4.027-146.318c0-8.659 1.334-39.28-.949-45.387-2.65.068-6.257.47-8.8-.3-2.336-.709-4.297-2.019-5.398-4.22-.036-1.316-.197-1.955.537-3.141 1.083-1.742 2.614-2.424 4.512-2.932"/><path fill="#fefefe" d="M168.211 65.05c12.623-1.395 27.17-.261 39.972-.266 3.16 5.476 3.223 19.495 4.234 26.254 4.038 26.938 14.727 55.859 35.478 74.418 4.951 4.427 15.102 9.847 18.45 13.478.171.177.323.361.484.541l.161.354c1.844 4.466 1.737 20.567-.134 24.815-.108 2.223-3.957 6.937-5.148 9.15-2.766 5.125-5.738 14.784-9.337 18.727.045.171.116.336.143.511.502 3.089-2.533 12.118-4.53 14.587l-80.534-.008c.77-1.509 1.164-2.548 1.236-4.278.599-13.642.116-27.514.116-41.179v-78.201l-.009-37.763c.009-6.595.859-14.734-.582-21.14m-50.06 0c12.909-.8 26.105-.256 39.05-.243a7.4 7.4 0 0 1 .94 2.312c1.271 5.72.188 40.664.188 48.878.018 42.143 1.092 84.582-.036 126.694-.054 1.909-.17 3.224-1.146 4.902l-56.766-.002-21.396.084c.448-1.289.26-2.353-.027-3.65-2.113-9.573-10.223-33.695-18.486-39.032.053-.109.116-.217.17-.328 1.844-3.775 1.396-21.145-.063-25.07 11.826-4.375 23.446-15.994 30.948-25.938 15.165-20.079 22.219-45.765 25.514-70.354.77-5.696 1.916-12.543 1.11-18.254"/><path fill="#fed300" d="M246.095 38.187c6.248-.372 12.658-.09 18.934-.094.161.36.224.475.367.886 1.334 3.855.949 46.57 1.549 54.834a410 410 0 0 0 11.799 72.833c.761 2.92 1.844 4.707.42 7.49-.403.083-.51.122-.975.112-1.119-.022-1.898-.205-2.686-.999-4.118-4.142-6.67-11.46-9.024-16.714-17.063-37.956-20.08-77.32-20.384-118.348m-183.959-.001c6.087-.39 12.354-.096 18.46-.084 3.437 6.638.42 36.114-.493 45.421-1.495 15.108-11.54 72.51-22.631 81.592.367 2.724-2.892 6.467-4.396 8.578-1.495.748-2.605.572-4.234.416-.116-.288-.358-.55-.367-.862-.027-2.431 1.978-7.047 2.57-9.576 2.05-8.837 4.028-17.801 5.415-26.765 4.843-31.213 8.03-67.175 5.676-98.72m213.565.001c6.141-.352 12.408-.077 18.549-.046.296.523.34.538.502 1.22 1.074 4.506.062 26.852.062 33.817l-.027 64.101c-.009 10.896.403 21.935-.098 32.808-.072 1.491-.322 2.492-1.128 3.763l-1.343.387-1.083-.7c-9.821-32.422-14.216-66.643-15.237-100.453-.349-11.626.331-23.283-.197-34.897m-241.684-.001c5.757-.349 11.665-.086 17.43-.074.448.953.734 1.894.86 2.944.904 8.014.474 16.502.277 24.565a466.5 466.5 0 0 1-8.37 81.498c-.824 4.225-1.585 11.961-4.306 15.352.054.146.125.285.17.437.734 3.081-2.014 9.818-3.653 12.365l-.733-.453c-3.17-9.289-1.433-24.535-1.424-34.623l.036-66.962c.009-11.54.779-23.586-.287-35.049m57.759.001c5.219-.296 10.572-.076 15.809-.074 4.199 8.342-1.154 47.62-3.249 57.723-2.623 12.655-12.444 45.973-23.366 53.154-.009.154.01.31-.017.463-.663 3.611-7.18 7.77-10.09 9.514.457-.44.904-.884 1.334-1.349 3.966-4.285 6.079-13.437 7.663-19.05a328.8 328.8 0 0 0 11.916-100.38m127.472-.001c5.246-.33 10.653-.077 15.917-.07 2.489 5.136.833 24.57 1.307 31.6 1.253 18.702 3.841 36.999 8.469 55.185a229 229 0 0 0 6.401 21.309c.868 2.386 3.518 7.235 3.617 9.493.026.592-.251 1.157-.376 1.737-3.895-4.69-8.371-8.911-11.808-13.976-20.823-30.686-23.393-69.398-23.527-105.278"/><path fill="#fefefe" d="M118.758 38.187c29.614-.549 59.327-.073 88.949-.065.448.883.753 1.608.869 2.601.439 3.609 1.003 10.299-1.271 13.209-5.515 1.529-19.624.351-25.881.345l-63.382-.003c2.238-4.49 1.128-11.145.716-16.087"/><path fill="#fed300" d="M286.881 213.469c2.318-.314 5.461-.93 7.645-.027.743 8.66 1.235 74.24-.85 78.183l-10 .011c-1.594.042-3.142-.068-4.736-.197-3.411-5.334 2.516-48.638 3.948-56.691 1.048-5.877 4.467-15.746 3.993-21.279m-253.168-.003c2.337-.299 4.342-.556 6.679-.064 1.656 2.03 2.202 5.064 2.766 7.57 2.515 11.111 11.423 62.535 6.472 70.405-5.174.831-11.244.26-16.525.237.062-.108.134-.214.196-.325.529-.928.77-1.803.878-2.863.725-7.152.984-70.019-.466-74.96m239.918.001c1.137-.149 1.764-.227 2.829.222.063.251.135.499.179.752.233 1.213-3.545 17.254-4.001 20.189-2.874 18.602-2.928 35.635-4.423 54.047-.089 1.141-.447 2.017-1.047 2.971l-11.647-.014-1.396-.393c-.108-.224-.224-.442-.314-.672-.832-2.096.224-6.58.439-8.86 1.746-17.923 4.727-35.672 11.19-52.556 2.059-5.371 5.685-10.089 8.039-15.332zm-222.64-.005 2.56-.168c6.795 4.026 11.585 20.056 13.796 27.556 2.381 8.074 10.608 43.593 7.108 50.029-.072.073-.134.162-.215.218-2.256 1.452-11.432.573-14.449.55.332-.541.609-1.017.788-1.633 2.9-10.41-4.834-68.6-9.588-76.552m226.348-28.199c5.273-.707 10.957-.334 16.293-.331.412.7.707 1.239.913 2.029 1.029 3.964.94 12.237-1.379 15.517-5.362.409-11.011.069-16.409.079.143-.227.295-.449.421-.683 1.611-2.937 1.092-13.263.161-16.611m-243.59-.003c5.174-.721 10.796-.329 16.033-.323 1.092 1.785 1.155 3.416 1.253 5.47.17 3.281.824 9.393-1.522 11.959-4.96.84-11.127.193-16.221.187.116-.192.242-.379.358-.576 1.611-2.868.886-13.4.099-16.717"/></svg>