<svg xmlns="http://www.w3.org/2000/svg" width="330" height="330" fill="none" viewBox="0 0 330 330"><path fill="#000" d="M238.887 157.966c38.678-2.563 72.161 26.61 74.929 65.285s-26.219 72.32-64.869 75.294c-38.941 2.996-72.888-26.265-75.676-65.231-2.789-38.966 26.645-72.765 65.616-75.348"/><path fill="#fed300" d="M235.038 167.781c33.489-4.703 64.396 18.785 68.844 52.318 4.447 33.532-19.268 64.268-52.826 68.462-33.198 4.148-63.527-19.265-67.928-52.439-4.399-33.175 18.778-63.689 51.91-68.341"/><path fill="#000" d="M271.396 197.343c1.49-.018 3.071.089 4.409.828 1.383.762 1.59 1.625 2.038 2.997-.163 2-.879 3.622-1.918 5.306-3.028 4.906-7 9.496-10.367 14.203-6.06 8.474-19.934 30.287-26.97 36.117-1.678 1.392-3.062 2.049-5.254 1.835-6.75-4.588-14.663-17.166-19.788-23.892-2.096-2.695-4.617-5.441-5.056-8.954-.264-2.108.006-3.649 1.284-5.347.636-.278 1.337-.749 2.03-.664 6.142.752 19.665 21.215 23.968 26.862l21.617-30.816c4.175-5.938 8.556-13.747 14.007-18.475"/><path fill="#000" d="M55.777 24.198c10.023-.4 20.171-.071 30.213-.072l57.605-.013 41.234-.014c8.449-.008 17.025-.35 25.447.343 9.702 7.92 18.522 18.21 27.409 27.091 10.227 10.221 21.772 20.304 30.97 31.421.48 11.22.11 22.613.163 33.856.037 7.812.767 16.244-.136 23.965-.227 1.939-.734 4.355-2.009 5.866-.731.867-1.441 1.394-2.623 1.407-1.386.014-2.696-.652-3.642-1.627-.732-.753-1.112-1.418-1.312-2.457-.928-4.834-.232-11.104-.229-16.051l.058-36.662c-10.566.03-31.446 1.308-40.657-.517-3.715-.736-7.387-2.142-10.126-4.85-2.513-2.488-4.021-5.716-4.837-9.124-2.402-10.028-.939-31.627-.895-42.848l-99.278.056-28.273-.073c-5.796-.041-11.888-.448-17.658.139-2.068.21-3.364.716-4.804 2.267-1.395 1.503-1.649 3.096-1.874 5.057-1.164 10.127-.287 21.24-.281 31.47l.048 61.818.01 100.694c-.004 16.378-.77 33.081-.01 49.423.095 2.085.08 5.204 1.331 6.977.782 1.109 1.93 2.345 3.267 2.744 6.191 1.843 18.234.621 24.972.611l73.702-.077c9.726-.034 31.59-1.4 39.496.67 2.193.574 3.377 2.259 4.371 4.161.001.765.117 1.18-.271 1.871-.83 1.477-2.955 2.235-4.496 2.618-8.547 2.126-40.605.596-51.156.62l-55.354.102c-9.815.012-19.856.499-29.633-.172-2.917-.201-5.628-.884-8.13-2.441-3.916-2.437-6.388-6.205-7.375-10.672-1.848-8.361-.563-18.82-.564-27.433l-.017-57.059.024-108.862c-.02-18.31-.99-37.064-.042-55.307.2-3.84.62-8.145 2.79-11.425 2.927-4.424 7.534-6.52 12.572-7.49"/><path fill="#fefefe" d="M212.388 40.563c4.862 3.56 9.393 9.085 13.659 13.376l27.343 27.318c-9.474.03-24.726 1.555-33.537-.367-3.927-.857-5.376-2.73-7.405-5.955-.461-11.4-.071-22.957-.06-34.372"/><path fill="#000" d="M83.71 120.431c31.464-.371 62.992-.085 94.461.034 13.798.052 27.757-.616 41.532-.187 3.136.098 6.548.681 8.772 3.083.668 1.436.908 2.484.393 4.039-.614 1.849-2.176 2.627-3.784 3.504l-94.471.002c-14.95-.001-30.65 1.01-45.507-.079-1.584-.117-3.193-.833-4.163-2.128-.814-1.087-1.016-2.437-.81-3.759.347-2.243 1.808-3.306 3.577-4.509m1.038 34.371 73.29.056c7.279.027 17.319-1.458 24.284.358 2.076.542 3.234 1.148 4.349 2.992.256 1.469.208 2.435-.373 3.836-.77 1.85-2.146 2.372-3.927 3.023l-69.007-.105c-8.848-.01-19.714 1.512-28.323-.296-2.198-.461-3.886-1.184-5.115-3.106-.367-1.67.04-2.884.903-4.356.904-1.542 2.29-1.942 3.919-2.402m-.406-68.492c17.944-.308 35.936-.023 53.885-.06 11.424-.025 23.253-.677 34.638.078 2.726.181 4.853.347 6.739 2.52.518 1.367.719 2.395.331 3.838-.597 2.222-1.838 3.11-3.756 4.216l-65.148.046c-7.109.005-21.117 1.205-27.484-.483-1.205-.32-2.3-1.298-2.878-2.386-.746-1.403-.87-3.06-.26-4.529.75-1.807 2.254-2.458 3.933-3.24m-.91 102.624 43.8-.096c7.411-.014 15.342-.595 22.704.259 1.936.224 3.524.636 4.654 2.344.725 1.094.882 2.642.606 3.898-.417 1.899-1.886 2.74-3.441 3.678-20.973.049-42.433 1.018-63.36.05-2.887-.134-5.676-.145-7.74-2.414-.56-1.315-.8-2.218-.504-3.65.416-2.015 1.612-3.029 3.281-4.069"/></svg>