<svg xmlns="http://www.w3.org/2000/svg" width="330" height="330" fill="none" viewBox="0 0 330 330"><g clip-path="url(#a)"><path fill="#000" d="M130.731 19.993c17.8.066 66.95-3.243 81.01 3.419 6.88 3.262 12.59 8.98 15.02 16.284 2.08 6.222 3.79 15.248.75 21.361 16.37.098 61.43-2.638 74.26 1.877 6.97 2.45 12.23 7.281 15.28 14.036 1.92 4.256 2.11 9.06 2.32 13.663.56 12.26.03 24.754-.02 37.032l-.02 63.06.05 60.819c.01 10.607.51 21.515-.1 32.096-.15 2.589-.84 5.192-1.78 7.601-2.75 7.04-8.54 13.548-15.61 16.44-4.09 1.674-8.71 2.083-13.09 2.319-23.29 1.256-47.24.094-70.59.058-19.66-.03-41.66 1.049-60.99.337-2.77-.103-5.67-.631-8.23-1.743-2.45-1.066-3.51-2.305-4.49-4.699 1.25-2.366 2.55-3.133 5.16-3.783 8.6-2.141 20.24-.73 29.25-.718l73.84.137c12.14.021 24.97.877 37.05-.192 3.25-.287 6.44-.862 9.28-2.54 4.32-2.557 7.77-6.73 8.89-11.663 3.16-13.883.86-48.076.89-64.044.04-20.736 1.66-42.626.01-63.255-.18-2.165-.61-3.726-1.74-5.576-2.99 2.991-74.16 32.301-78.27 32.542-1.97.115-2.73-.038-4.14-1.325-.12-.786-.26-1.536-.14-2.333.49-3.109 3.6-6.35 6.17-8.018 3.87-2.513 9.24-3.796 13.53-5.559 12.67-5.206 52.55-19.592 60.93-27.592 3.44-3.289 3.71-9.421 3.8-13.912.23-11.063 2.47-41.749-5.06-49.345-8.34-8.419-27.4-5.414-38.34-5.455q-3.66-.103-7.32-.169c-46.71-.809-93.58-.079-140.31-.06l-49.08.054c-9.91.029-20.12-.402-29.97.732-4.81.553-7.74 1.082-11.24 4.558-8.47 8.409-5.57 21.476-5.55 32.213.01 6.574-.44 13.14-.37 19.715.04 3.273-.13 7.581 1.91 10.335 8.79 11.835 73.59 28.677 82.59 38.733 1.6 1.785 1.53 2.552 1.27 4.737l-1.93 1.472c-13.26 2.648-67.53-26.187-85.22-31.066 5.45 9.351-1.41 110.238 2 130.568.64 3.837 2.14 7.737 4.91 10.549 2.94 2.993 6.83 4.499 10.89 5.276 7.67 1.468 16.42.585 24.24.559l43.7-.109c4.72.002 8.63-.322 12.14 3.182.11 2.606-.16 3.148-1.38 5.489-2.16 1.972-4.91 1.956-7.68 2.016-15.09.326-65.39 1.622-77.65-1.337-4.14-1-8.19-3.718-11.2-6.661-8.33-8.128-9.06-15.556-9.26-26.491-.82-43.255-.08-86.669-.06-129.938 0-15.208-1.61-49.338.61-62.339.94-5.535 3.94-10.662 7.87-14.618 3.87-3.889 9.13-6.227 14.45-7.326 10.14-2.092 21.7-.715 32-.518 11.5.142 23.01.195 34.51.159 4.26-7.752-.4-20.5 8.96-31.561 5.03-5.942 13.8-8.77 21.29-9.483"/><path fill="#fefefe" d="M131.761 30.623c14.91.363 65.14-2.107 75.47 2.995 4.49 2.214 8.79 5.866 10.25 10.818 1.17 3.97.74 12.44-1.31 15.966l-18.17-.071-86.46.033c3.58-6.042.67-15.315 5.24-21.988 3.38-4.945 9.37-6.774 14.98-7.753"/><path fill="#000" d="M182.181 97.057c1.92-.291 3.49-.032 5.39.305 1.51 1.342 2.29 1.829 2.42 4.013.42 6.937-11.76 64.642-14.39 74.016-.49 1.751-1.23 3.05-2.37 4.456l22.22-.15c6.12-.021 17.42-1.172 22.1 3.475.46 2.786-.65 4.802-2.03 7.198-9.42 16.296-23.04 31.71-34.15 46.983-14.01 19.237-28.86 42.538-43.98 60.383-1.38 1.632-2.53 2.51-4.65 3.062-1.79.103-2.31-.315-3.88-1.102-7.81-9.542 17.38-70.859 13.28-83.414-10.17.083-27.37 1.946-36.72-.96-2.12-.659-3.28-1.187-4.39-3.159.68-3.972 2.65-7.477 4.8-10.839 9.85-15.408 21.85-30.074 32.72-44.832 14.56-19.766 28.62-40.017 43.63-59.435"/><path fill="#fed100" d="M172.48 127.173c.21.189 1.49 1.264 1.52 1.408.29 1.469-1.2 6.242-1.52 7.839-2.25 11.292-10.93 42.305-6.87 51.833 3.38 3.204 29.55 1.646 36.25 1.638-.06.574-.15 1.214-.35 1.758-1.45 4.048-51.74 72.536-57.87 79.385-.79.879-1.8 1.501-2.83 2.049.33-.569.62-1.067.84-1.691 3.75-10.352 11.82-44.171 12.7-54.831.26-3.236.18-5.85-1.21-8.838-3.4-2.982-32.9-1.648-39.05-1.797 4.76-3.319 55.04-71.457 58.39-78.753"/></g><defs><clipPath id="a"><path fill="#fff" d="M0 0h330v330H0z"/></clipPath></defs></svg>