<svg xmlns="http://www.w3.org/2000/svg" width="330" height="330" fill="none" viewBox="0 0 330 330"><path fill="#000" d="M74.098 41.745c5.423-.605 9.962-.648 14.634 2.48 4.01 2.686 21.298 14.95 22.106 18.999-2.858 2.052-7.247 1.67-10.763 2.547-3.574 4.866-2.342 9.566-4.858 14.277-2.475 4.635-9.728 6.953-14.367 8.713 2.632 6.04 4.76 12.015 6.174 18.459 1.475 6.717 2.12 29.079 5.448 32.897 2.703.379 4.864.634 7.578-.012 2.306-5.059-.195-11.864 1.496-17.405.807-2.64 2.178-4.485 4.657-5.751 3.332-1.701 7.25-2.521 10.954-2.834 15.738-1.329 32.222.048 48.047.049 17.598 0 35.647-1.253 53.188-.299 3.604.196 7.301.605 10.729 1.794 12.672 4.399 5.237 16.397 9.737 25.374 2.297-1.511 2.643-6.72 3.286-9.478 5.024-21.537 11.39-36.287 25.67-53.236-1.922-5.785-4.021-11.875-3.669-18.044.341-6 3.395-10.714 7.893-14.544 3.542-3.016 7.532-5.11 12.304-4.674 9.232.843 16.004 10.368 23.192 15.36 2.185 1.519 6.149 2.44 7.698 4.512.833 1.115.416 1.484.199 2.781-3.162 1.798-7.857 1.316-11.457 1.364-.61 4.229-.962 8.864-2.829 12.75-3.117 6.494-8.818 8.55-15.232 10.823 4.361 9.945 8.556 21.472 8.544 32.503-.008 6.301-3.893 17.967-1.927 23.489 4.046 11.373 22.537 9.09 31.53 12.752 2.398.976 4.499 2.609 5.397 5.113.974 2.714.59 6.901-.767 9.456-1.284 2.418-3.645 3.913-6.24 4.59-10.906 2.84-22.82-3.238-32.063-8.412-.902 1.619-3.061 4.465-3.43 6.151-.385 1.761 22.253 71.852 23.61 81.827.457 3.362-1.526 4.913-3.396 7.459l.553.926c4.882-2.677 9.799-5.475 15.522-5.197 2.054 1.01 2.854 1.147 3.8 3.352.996 2.319.553 5.267-.521 7.488-3.292 6.807-14.671 14.215-21.695 16.738-3.574 1.284-7.456 1.257-10.865-.496-14.163-7.282-19.626-35.582-23.921-49.575-.265-.817-.928-1.702-1.362-2.457-6.338 1.523-20.012 19.929-26.659 25.185-3.195 2.525-7.606 2.379-10.291 4.958.68 8.249 11.233 8.249 12.892 16.672.44 2.238-.188 3.038-1.417 4.718-3.098 1.606-5.912 1.96-9.361 1.574-8.947-1.003-16.552-7.129-21.829-14.104-13.127-17.351 1.377-17.426 2.539-27.377.98-8.381 16.806-18.763 23.465-24.321-48.834-.571-97.753.059-146.596.115 7.24 11.457 15.029 23.148 20.564 35.539l-5.613 8.719c4.831-3.207 10.576-6.686 16.536-7.112 2.297-.164 3.424.266 5.17 1.665.79 1.96.86 3.218.443 5.307-1.521 7.601-9.29 14.446-15.592 18.241-4.118 2.48-9.347 4.674-14.206 3.194-12.367-3.765-32.148-44.065-38.515-55.823-5.808 9.864-12.727 19.755-21.512 27.204-3.247 2.752-12.178 5.442-13.507 7.958 2.904 5.028 10.805 6.75 12.795 12.295.579 1.613.56 3.04-.379 4.536-1.546 2.462-4.334 4.131-7.188 4.452-6.34.714-12.86-3.36-17.544-7.187-4.66-3.806-15.482-14.197-12.301-21.171 1.152-2.525 4.256-5.134 4.89-7.795.304-1.275-.493-4.5-.65-5.945 4.289-6.15 10.089-11.563 15.044-17.224 5.594-6.39 10.198-13.209 14.746-20.369-.793-5.484-1.61-10.994-2.005-16.523-2.137-29.979 4.956-72.674 19.813-98.967 3.19-5.647 7.506-10.457 11.734-15.336-2.86-7.357-5.604-14.938-2.969-22.84 2.15-6.448 7.084-9.946 12.92-12.847"/><path fill="#fefefe" d="M120.195 119.481c19.203.002 98.572-3.009 109.805 2.977 3.877 5.012 1.761 39.651 1.708 47.695l-12.162-.03-113.255-.069c.298-10.054-3.342-41.549 3.403-48.085 2.84-2.753 6.809-2.389 10.501-2.488m-34.352 79.213c55.446.25 110.954-.822 166.386.12l-.087 17.079-166.04.157c-.216-5.776-.189-11.576-.26-17.356m8.944-22.509c18.027-.801 36.254-.299 54.302-.313l93.334.098c3.793 2.345 6.893 5.118 8.936 9.146 1.279 2.522 1.089 3.981.194 6.5-2.842 1.969-4.28 1.595-7.681 1.658l-108.411.002c-12.774.027-34.557 1.702-46.472-.182-2.225-.352-2.56-.826-3.849-2.503-.028-1.107.026-2.158.301-3.238 1.234-4.84 5.256-8.698 9.346-11.168"/><path fill="#fdce01" d="M60.283 91.663c4.938-.22 9.373-.843 13.45 2.534 8.407 6.963 10.205 22.394 10.93 32.672.574 8.145-.24 16.011-5.743 22.366-3.102 1.218-7.197.211-10.463-.21-2.177-6.881-3.52-28.216-8.531-31.953l-1.735 1.673c-1.007 3.98.062 9.129.428 13.224 2.234 14.877 3.47 23.312 3.253 38.6-7.816-1.246-15.43-3.052-23.111-4.943 2.578-21.475 7.756-56.675 21.522-73.963"/><path fill="#fefefe" d="M38.01 171.415c7.815 2.013 15.63 3.905 23.656 4.824.205 12.459 1.858 27.205-.955 39.359-3.663 15.822-17.879 34.429-31.684 42.906a23 23 0 0 1-2.126.256c-3.293.212-10.7-1.055-13.068-3.439-8.218-8.269 22.489-36.16 27.022-42.984.32-.481.816-1.444.882-2.023.495-4.322-2.722-15.411-3.31-20.426-.722-6.152-.604-12.294-.416-18.473"/><path fill="#fdce01" d="M265.144 91.44c2.963-.204 6.175-.215 9.088.436 4.222.943 7.473 3.874 9.648 7.513 7.022 11.745 4.494 31.532 1.339 44.267 1.236 2.378 2.145 4.502 2.835 7.111-.564 1.557-.46 2.126-2.009 2.879-7.417 3.605-7.933-6.942-11.616-10.518-1.588-1.541-4.673-2.395-6.747-3.138l-.813-2.178c-.235-5.847.723-13.147-1.264-18.618l-1.584-.577-1.828 1.451c-2.463 6.388-.943 14.654-.334 21.332-5.324-.271-10.681-.263-16.013-.36 3.909-16.541 7.761-36.435 19.298-49.6"/><path fill="#fefefe" d="M277.514 176.492c.603.317 1.175.643 1.721 1.057 7.985 6.059 23.32 68.657 25.284 81.58-2.285 1.368-4.71 2.55-7.065 3.798-3.769 1.838-7.68 3.454-11.512 5.166-4.814-13.261-8.217-27.262-12.635-40.707 7.337-13.69 4.173-35.568 4.207-50.894M66.259 221.829l19.023-.001c5.776 12.483 14.53 23.626 20.556 36.107l-6.95 5.72c-3.553 2.081-6.97 3.709-10.84 5.114a1300 1300 0 0 1-14.808-25.311c-3.82-6.701-9.117-13.817-6.981-21.629m191.676-74.775c4.542-.215 9.15.059 13.696.172.744 22.805.051 45.899.036 68.728l-13.65.018zm-11.538 74.727c7.64-.2 15.326.057 22.968.154-8.462 11.749-19.49 23.14-30.531 32.495-1.948 1.401-3.601 2.378-6.064 2.452-3.36.101-7.347-1.321-9.588-3.854a7.57 7.57 0 0 1-1.9-5.674c.696-7.97 19.032-19.973 25.115-25.573m-179.21-66.688 13.226.117c-1.176 20.083-.449 40.63-.082 60.75l-13.171.127q.191-30.497.027-60.994m202.827-89.85c6.079-.103 21.026-2.204 26.024.927 1.791 1.123 1.685 1.719 2.049 3.654-1.777 5.755-3.199 8.36-8.325 11.74l-5.158.295c-2.025 2.152-4.119 4.54-7.111 5.27-2.708.661-4.765-.618-6.99-1.952.497-.914.983-1.829 1.414-2.776 2.567-5.628.105-11.787-1.903-17.158m-203.579.061c6.545.046 15.314-1.66 21.58-.294 2.715.591 3.447 1.372 4.912 3.537.07 1.521-.009 2.828-.528 4.278-1.479 4.122-4.43 6.664-8.308 8.422a21 21 0 0 0-5.011.255c-2.04 2.75-3.498 4.226-6.613 5.729-2.828.304-4.236-.632-6.508-2.12l-.329-1.763c2.06-2.043 2.897-4.302 3.951-6.932-.722-3.756-2.025-7.455-3.146-11.112m19.855 81.097 14.4.151c.115 5.103 1.744 19.452-1.347 23.311l-2.392.008c-4.588 1.215-7.528 3.057-11.197 6.039a549 549 0 0 1 .536-29.509m151.247.295 14.724.352.103 29.123c-4.938-4.128-8.738-5.636-15.099-6.639-.014-7.609.168-15.227.272-22.836m55.756 8.206c8.404 4.567 15.976 4.862 24.969 7.039 2.985.722 4.231 1.535 5.806 4.07-.685 3.105-1.685 3.522-4.041 5.493-.733.082-1.459.146-2.197.165-7.707.201-21.279-4.153-26.687-9.729-1.535-1.585-2.025-2.168-1.938-4.327zm-76.851 99.775c2.07 1.015 6.432 3.672 7.661 5.547 2.228 3.395 1.84 8.313 4.233 11.905 2.356 3.535 6.884 4.876 9.15 8.442l-1.41 2.579c-3.513-.842-6.805-1.839-9.745-4.019-5.384-3.992-13.035-11.363-13.362-18.609-.128-2.861 1.67-3.993 3.473-5.845"/><path fill="#fdce01" d="M279.358 47.473c5.869-.126 9.051.445 13.842 4.026 2.441 1.826 3.801 3.369 4.245 6.387-2.205 2.207-3.833 1.621-6.834 1.718-5.714.17-12.763 1.078-18.187-.911-1.706-.627-1.58-.907-2.355-2.556 1.365-3.87 6.005-6.476 9.289-8.664m-204.461.141c6.75-.506 10.459.122 15.615 4.858 1.974 1.814 2.283 2.87 2.399 5.387-2.317 2.005-4.097 1.489-7.063 1.583l-10.826.097c-3.34.003-6.173-.133-8.618-2.557.909-4.625 4.763-6.838 8.493-9.368"/><path fill="#fefefe" d="m318.476 265.835 2.357.358c.075.946.366 1.621-.171 2.444-3.771 5.768-12.837 11.636-19.542 12.904-3.123.59-4.563-.205-7.074-1.847-2.225-3.119-3.291-5.117-2.891-8.917 6.452-3.756 10.347 1.815 16.121.595 3.507-.741 7.982-3.819 11.2-5.537M8.395 257.489c3.33 1.98 7.533 3.999 9.683 7.287 3.77 5.767 11.61 12.669 13.576 15.967l-1.231 2.544c-3.148-.789-6.174-1.645-8.933-3.409-5.546-3.546-14.268-10.277-15.437-17.11-.372-2.176 1.174-3.592 2.342-5.279m113.295 7.308.791 1.444c-.13 1.252-.285 2.196-.986 3.275-3.329 5.134-12.932 11.548-19.129 12.117-3.046.28-3.893-.62-6.254-2.323-1.482-2.39-2.559-3.995-2.395-6.942 4.072-4.697 8.829.231 13.771-.695 4.294-.804 10.008-5.003 14.202-6.876m155.021-106.158c2.312 1.227 4.436 2.613 6.592 4.085 1.316 3.195.725 3.994-.235 7.179-2.526.637-2.449.643-4.697-.674-1.77-3.182-1.515-7.043-1.66-10.59"/></svg>