<svg xmlns="http://www.w3.org/2000/svg" width="330" height="330" fill="none" viewBox="0 0 330 330"><path fill="#000" d="M152.177 20.006q.952-.095 1.906-.141a52.9 52.9 0 0 1 38.39 13.607c11.949 10.895 16.659 24.471 17.43 40.222 3.703 2.13 13.982 11.193 15.553 11.74.325-2.454.312-3.724 1.825-5.755 1.83-1.044 3.444-1.545 5.537-1.715 1.872-.151 32.37-.258 33.837.074 2.167.49 4.015 1.458 5.175 3.424 2.995 5.083 2.039 19.188.476 24.861-2.119 7.691-7.335 11.947-14.051 15.725l.12 101.435c9.62-.034 19.262-.204 28.871.304.92 12.202 1.071 25.978.043 38.19-1.468 17.433-10.669 29.119-23.516 39.893 4.225-.045 11.116-1.12 14.972.104 2.091.664 4.07 1.66 5.05 3.719.533 1.119.324 1.241-.078 2.401-1.157.814-2.215 1.147-3.619 1.271-12.86 1.134-26.458.266-39.384.273l-77.798-.002c-10.283.008-75.278 1.172-79.31-.707-1.467-.683-2.082-1.008-2.575-2.526.382-1.06.5-1.526 1.338-2.288 3.37-3.064 8.19-2.293 12.408-2.139a81 81 0 0 1 7.336-9.638c12.828-14.564 31.479-21.897 50.542-23.147l-.125-69.491c-6.637 3.235-12.941 5.491-20.426 5.874a43.87 43.87 0 0 1-31.921-11.388c-10.638-9.702-13.982-21.587-14.64-35.46a62.5 62.5 0 0 1-8.354-5.702c-10.177-8.163-16.529-20.65-17.901-33.544a51.2 51.2 0 0 1 11.378-37.955c9.159-11.244 21.02-16.4 35.113-17.956 1.729-8.356 4.599-16.12 9.726-23.03 9.049-12.196 21.989-18.245 36.672-20.533"/><path fill="#fed100" d="M148.93 28.322c2.848-.247 5.735-.528 8.595-.56a44.08 44.08 0 0 1 31.271 12.636c10.9 10.84 13.019 23.373 12.936 38.025 5.56 2.888 10.495 5.629 14.968 10.137a41.2 41.2 0 0 1 12.017 29.575c-.182 13.587-6.808 22.549-16.145 31.551 1.497 10.278 1.629 19.608-3.55 28.97a33.7 33.7 0 0 1-20.386 16.331c-10.139 2.808-19.34.299-28.297-4.644.115-12.316-.1-24.654-.158-36.972 5.414-5.093 30.206-26.493 31.866-31.219-.451-1.808-.914-2.573-2.379-3.731-6.584.051-24.064 19.113-29.537 24.238-.053-9.885 1.924-34.15-.385-42.528-.471-1.71-1.361-1.874-2.775-2.712-1.239.094-2.077-.134-2.981.813-2.538 2.661-1.555 10.156-1.482 13.682l.038 49.707c-5.412-5.481-27.808-30.536-33.428-31.061-2.084.781-2.169.74-3.218 2.685.244 4.847 31.202 33.824 36.683 39.349l-.016 17.628c-6.861 4.573-14.181 7.653-22.548 7.724a35.63 35.63 0 0 1-25.898-10.671c-9.254-9.402-10.862-20.543-10.652-33.113-4.229-2.342-8.495-4.703-12.137-7.918-8.595-7.586-13.907-18.004-14.582-29.49a43.2 43.2 0 0 1 11.212-31.727c9.682-10.611 20.953-13.211 34.659-13.862 1.298-7.748 2.7-15.18 6.62-22.11 6.602-11.67 17.194-17.313 29.689-20.733"/><path fill="#fefefe" d="M236.917 119.856c1.028.451 1.664.808 2.459 1.618 1.73 1.76.895 92.038.757 102.04-8.452-.035-17.759-.961-26.06.583-1.582 1.36-2.051 1.965-2.682 4.058-1.326 4.399-.712 10.017-.647 14.573.232 15.94.542 28.809 8.205 43.198-4.384-.051-8.791.138-13.174.227-7.368-5.829-15.262-10.109-24.067-13.307-6.942-2.215-13.84-3.214-21.087-3.661l-.13-69.548c7.932 3.013 15.381 4.889 23.961 3.872a42.12 42.12 0 0 0 28.203-16.126c7.832-10.165 9.889-21.9 8.287-34.397 9.536-10.304 13.593-19.399 15.975-33.13"/><path fill="#fefefe" d="m258.398 231.142 21.225.015c.025 13.377 1.363 27.614-2.139 40.636-5.273 14.225-15.467 22.058-28.219 29.16-6.453-3.463-12.471-7.092-17.664-12.354-15.617-15.827-12.848-37.095-12.746-57.444l21.18.001c-.11 5.413-.909 11.99.917 17.154.194.546.383 1.097.583 1.641 1.31 3.561 3.149 6.042 6.668 7.704.86.007 1.785.168 2.569-.203 3.343-1.581 5.077-4.366 6.283-7.729l.198-.561c2.018-5.622 1.286-12.133 1.145-18.02"/><path fill="#fed100" d="M148.826 277.179c.413-.084.553-.12 1.024-.161 20.923-1.777 37.495 4.589 53.569 17.539q2.162-.243 4.325-.454c11.301-1.155 18.542.601 27.393 7.793l-42.266.014-88.812.004c11.781-14.698 26.285-21.999 44.767-24.735M261.977 85.948c1.051-.09 1.782.183 2.772.492 1.305 2.4.654 6.336.53 9.044l-28.1-.013c-1.907-.085-2.438.17-3.891-1.146-.223-2.323-.722-4.601.355-6.758 5.218-3.721 21.823-1.561 28.334-1.619"/><path fill="#fefefe" d="M233.864 103.013c9.979-.065 20.029-.37 29.993.215l.756.968c-.503 2.597-2.116 4.656-3.572 6.801-2.161 1.748-4.291 3.175-6.955 4.051-3.887 1.278-8.381 1.07-12.011-.876-4.726-2.535-6.723-6.188-8.211-11.159"/></svg>