<svg xmlns="http://www.w3.org/2000/svg" width="330" height="330" fill="none" viewBox="0 0 330 330"><path fill="#000" d="M151.577 24.65c77.498-7.41 146.335 49.376 153.769 126.847S255.995 297.8 178.502 305.252c-77.524 7.457-146.411-49.337-153.848-126.839-7.436-77.501 49.395-146.35 126.923-153.763"/><path fill="#fece00" d="M273.501 91.6c1.091.176.692-.05 1.479.701 2.267 2.163 3.977 5.965 5.587 8.729a119.9 119.9 0 0 1 16.461 59.14l-39.162-.018q-9.234.004-18.468.146c-1.483-18.594-2.737-36.31-7.039-54.532 14.262-3.526 27.844-7.877 41.142-14.166m-34.724 77.82c19.398-.424 38.902-.024 58.31-.019-.272 20.589-6.99 41.641-16.857 59.553-1.808 3.258-3.964 6.385-5.957 9.537-13.232-7.279-27.508-11.131-42.094-14.696 3.913-18.27 6.121-35.693 6.598-54.375M55.382 91.43c14.044 5.623 27.346 10.495 42.089 14.074-4.35 18.144-5.794 36.158-6.84 54.722l-15.59-.066-42.31-.038c.289-24.96 9.362-47.897 22.651-68.692m-22.694 77.976c19.306-.368 38.692-.027 58.006-.031.015 18.152 2.594 36.699 7.084 54.265-3.915.789-7.787 1.949-11.647 2.978-10.503 2.812-20.98 6.525-30.58 11.662-13.77-21.595-21.403-43.226-22.863-68.874m73.926-62.266c17.799 3.887 35.513 5.264 53.699 5.822l-.049 47.267-5.816-.068-54.692.006c.893-18.144 2.512-35.344 6.858-53.027m113.961.755c.765-.172 1.618-.196 2.399-.282.102.089.217.164.305.268 4.006 4.718 6.288 44.099 6.522 52.311l-50.61-.029-9.44.009-.053-47.248c17.251-.823 33.849-1.913 50.877-5.029M99.72 169.33l60.672.094c-.217 9.892-.079 19.837-.021 29.732.032 5.426.399 11.037-.258 16.42-1.312.942-2.192.69-3.781.703-16.602.021-33.481 2.172-49.666 5.75a244 244 0 0 1-6.945-52.699m70.052.021 60.073.032c-.6 16.242-2.176 31.507-5.582 47.415l-1.442 5.395a286 286 0 0 0-52.956-5.961zm-11.569 56.171 1.553.01c.222.282.576.499.666.846.854 3.315.01 12.154.008 16.076l.061 51.822c-13.106-3.211-20.475-8.873-29.347-18.729-10.535-13.27-16.729-28.7-22.107-44.596 15.804-4.305 32.893-4.652 49.166-5.429m11.663-190.186c6.558 1.496 12.41 3.769 17.878 7.773 13.986 10.245 23.29 28.017 29.41 43.872 1.346 3.486 2.978 6.935 3.558 10.65-1.016 1.283-2.692 1.306-4.262 1.668-15.624 2.407-30.997 3.65-46.775 4.321.292-22.75.055-45.529.191-68.284m-10.251.154c.23.237.55.415.692.714.79 1.669-.017 60.235-.026 67.456-15.373.161-31.083-1.841-46.215-4.38l-4.954-1.036c4.15-12.777 9.175-25.064 16.634-36.3 8.416-12.68 18.394-23.317 33.869-26.455m10.23 190.042c17.309.748 33.85 2.059 50.846 5.513-4.966 15.667-11.363 29.851-21.112 43.126-7.809 10.661-16.837 16.944-29.662 19.848zm-70.026 7.018c2.356 2.936 3.75 10.89 5.127 14.738 6.094 17.028 16.667 33.402 30.154 45.448-10.082-2.263-19.154-5.565-28.477-9.957-17.405-8.791-33.62-21.711-45.595-37.147 12.713-5.67 25.318-9.621 38.791-13.082m130 .115c13.469 3.163 26.537 6.921 38.898 13.222-12.129 15.582-27.743 27.143-44.92 36.546-9.565 4.616-19.3 7.952-29.554 10.659 18.63-14.347 28.396-38.843 35.576-60.427M134.17 37.232l.216.201-.094.732c-17.529 14.767-27.599 37.076-34.225 58.479-9.727-2.385-19.151-4.884-28.496-8.507-3.472-1.29-6.877-2.824-10.294-4.26 22.012-25.805 40.067-37.794 72.893-46.645m62.094.502c29.709 6.145 53.537 23.532 72.758 46.28-3.076 1.37-6.255 2.561-9.377 3.827-9.754 3.717-19.552 6.415-29.673 8.953a125.5 125.5 0 0 0-33.708-59.06"/></svg>