<svg xmlns="http://www.w3.org/2000/svg" width="330" height="330" fill="none" viewBox="0 0 330 330"><path fill="#000" d="M145.044 27.129c20.275-.965 41.25 3.364 56.637 17.326 7.057 6.404 43.355 41.562 46.069 47.162 1.5 3.096.912 8.495 1.068 11.907 2.805 3.456 5.464 7.535 9.857 8.985 2.353.176 3.81-.99 5.766-2.097 2.981-1.687 6.842-3.049 10.26-1.884 3.957 1.347 14.007 12.048 15.641 16.024.925 2.248.858 4.464-.096 6.691-.689 1.61-1.909 3.121-3.086 4.395-4.223 4.57-9.22 8.573-13.592 13.04-7.064 7.219-13.842 15.383-21.465 21.969-1.593 1.376-3.363 2.642-5.37 3.336-2.029.701-4.383.645-6.282-.407-3.723-2.064-16.22-14.9-17.16-18.99-1.149-4.995 4.675-6.846 6.579-10.491.485-.927.609-2.01.316-3.001-1.242-4.203-7.97-8.52-11.573-10.649-6.523.794-13.151 2.559-18.655 6.282-12.033 8.142-23.875 23.976-33.708 35.027l-45.992 51.736-24.956 28.214c-4.943 5.573-9.784 11.713-15.35 16.672-2.442 2.176-5.326 4.291-8.534 5.136-3.992 1.053-7.95.447-11.506-1.611-6.177-3.573-18.777-17.119-20.51-23.928-1.041-4.09.025-7.153 2.225-10.639 6.084-9.643 20.974-22.708 29.298-31.089l71.795-71.598c7.163-7.238 18.665-16.828 23.582-25.544 5.379-9.535 8.658-21.802 5.527-32.55-1.961-6.728-6.094-12.441-11.356-16.997-22.073-19.11-48.769-4.76-56.21-9.934-.997-.694-1.382-1.883-1.464-3.039-.135-1.899.537-3.412 1.755-4.84 7.606-8.924 29.241-13.54 40.49-14.614"/><path fill="#fed100" d="M165.774 123.044c4.223 1.223 14.268 13.415 17.83 17.32-26.45 28.211-51.77 57.704-77.408 86.663-9.043 10.214-23.176 28.394-32.936 36.508-2.11 1.754-4.35 1.98-6.978 2.278-1.713-.8-3.182-1.566-4.615-2.835-5.21-4.612-13.594-12-14.049-19.219.619-2.557 2.644-4.664 4.349-6.588 12.223-13.798 26.227-26.569 39.275-39.61z"/><path fill="#000" d="M234.967 184.671c4.453-.01 9.461-.009 13.62 1.798 1.676.729 2.678 1.653 3.375 3.341 1.005 8.252-13.488 17.728-17.837 24.088l-.388.578q.401 1.013.844 2.009c3.68 8.268 8.908 13.813 17.414 17.079 5.255-4.053 9.569-9.213 14.316-13.829 2.208-2.147 5.182-5.223 8.537-4.978 1.654.121 3.03 1.114 4.017 2.394 3.288 4.264 3.213 11.477 2.652 16.535a35.92 35.92 0 0 1-13.386 24.197c-9.524 7.5-19.514 7.502-30.931 6.173l-24.674 24.577c-9.013 9.114-19.017 22.75-32.932 22.86-7.483.059-14.66-3.384-19.846-8.679-5.651-5.77-9.163-13.781-9.012-21.908.076-4.08 1.184-8.36 3.406-11.812 4.8-7.459 13.503-13.928 19.984-20.009a3029 3029 0 0 0 28.497-27.141c-.133-9.155.821-17.091 6.724-24.505 6.485-8.145 15.582-11.58 25.62-12.768"/><path fill="#fed100" d="M233.345 193.212c2.823-.282 5.84-.049 8.683-.029-4.517 4.547-16.29 14.084-16.426 20.627-.141 6.751 5.142 14.034 9.639 18.611 4.014 4.084 10.676 9.4 16.793 9.175 6.951-.255 16.023-11.905 20.823-16.762.737 5.045.47 9.534-1.114 14.42-7.803 24.061-31.384 13.99-37.908 17.67-.187.106-.365.227-.549.339-8.67 5.308-16.492 15.202-23.617 22.435-7.316 7.029-16.74 20.382-26.647 23.029-4.424 1.182-9.14.243-13.02-2.108-5.374-3.259-8.955-8.53-10.336-14.627-.842-3.721-.795-7.972.973-11.436 2.562-5.017 8.116-9.316 12.204-13.109 8.721-8.092 29.667-25.849 35.568-34.329 4.768-6.851 1.821-16.31 6.565-23.635 3.974-6.136 11.551-8.846 18.369-10.271"/></svg>