<svg xmlns="http://www.w3.org/2000/svg" width="330" height="330" fill="none" viewBox="0 0 330 330"><path fill="#000" d="M157.042 33.17c.433-.047.865-.098 1.301-.12 6.819-.365 13.535 1.265 18.658 5.99 5.933 5.474 17.266 27.294 21.9 35.12l39.995 67.512 43.224 72.662c7.824 13.156 16.286 26.261 23.339 39.839 1.695 3.263 2.236 6.435 2.312 10.089a29.22 29.22 0 0 1-8.577 21.428c-3.406 3.414-7.796 6.082-12.557 7.031-11.249 2.244-27.947.853-39.747.851l-81.272-.041-83.265.036c-13.79.013-28.523 1.029-42.203-.269-4.372-.414-8.565-1.261-12.376-3.515a27.98 27.98 0 0 1-12.904-17.225c-1.217-4.862-1.289-9.808.635-14.48 4.034-9.79 10.52-19.191 15.913-28.307l27.055-45.945 60.203-102.444c6.988-11.837 13.526-24.04 20.738-35.727 4.37-7.083 9.625-10.6 17.628-12.486"/><path fill="#fed300" d="M158.667 43.19c4.533-.079 8.484.503 11.97 3.707 5.69 5.227 16.251 25.725 20.749 33.372l33.946 57.63 47.49 79.964c7.216 12.168 14.98 24.213 21.746 36.628 1.75 3.213 3.254 6.197 3.374 9.925.16 4.983-1.58 9.973-5.097 13.536a17.37 17.37 0 0 1-9.616 5.036c-10.261 1.735-26.2.496-37.035.493l-82.449-.04-79.984.045c-13.858.014-28.25.811-42.052-.22-2.67-.198-5.26-.577-7.689-1.764-3.975-1.943-7.423-5.727-8.79-9.953-1.98-6.126-.445-10.574 2.417-16.052 6.193-11.854 13.71-23.157 20.357-34.776a9186 9186 0 0 1 65.069-110.783c7.758-13.046 15.615-26.046 23.218-39.184 4.156-7.181 8.15-16.169 13.407-22.556 2.357-2.864 5.553-3.948 8.969-5.009"/><path fill="#000" d="M157.55 96.299c3.361-.312 6.721-.086 9.952.914 5.663 1.753 9.774 5.383 12.496 10.612 1.75 3.361 1.67 7.27 1.566 10.97-.265 9.378-7.882 79.726-10.11 85.852-1.4 3.847-4.435 5.65-7.923 7.317-2.889.498-5.712.058-8.29-1.339a10.18 10.18 0 0 1-4.941-6.147c-3.369-11.333-3.913-28.125-5.332-40.322-1.651-14.193-5.323-34.804-5.01-48.577.071-3.093.9-5.685 2.401-8.372 3.379-6.046 8.713-9.093 15.191-10.908m.549 130.814a17.793 17.793 0 0 1 19.172 24.283 17.79 17.79 0 0 1-14.156 10.949c-9.67 1.277-18.565-5.473-19.94-15.133s5.282-18.624 14.924-20.099"/></svg>