<svg xmlns="http://www.w3.org/2000/svg" width="330" height="330" fill="none" viewBox="0 0 330 330"><path fill="#080807" d="M281.003 146.489c1.457-.032 2.879-.039 4.287.389 4.311 1.306 8.178 4.081 10.259 8.138 2.01 3.92 1.718 7.118.415 11.207 2.87 9.995 6.723 19.782 10.223 29.574 3.829 10.715 7.434 21.6 11.583 32.19 1.602 4.09 5.388 6.787 6.524 11.181 1.999 7.735-1.265 13.418-.965 20.623.13 3.13 1.953 5.914 1.537 9.174-.462 3.618-2.146 7.454-4.017 10.553-4.593 7.607-12.652 14.153-21.362 16.284-2.996.733-6.048.87-9.113.585-4.404-.41-25.461-4.685-28.82-6.939-1.347-.903-2.271-2.029-2.607-3.613.259-.64.372-1.24.92-1.68 2.075-1.667 3.258-2.062 5.845-1.738l.545.072a5252 5252 0 0 1 34.756-41.775c-5.207-11.705-10.791-23.244-16.071-34.917-2.857-6.316-5.048-13.017-8.515-19.028-14.217 15.414-28.399 31.111-43.15 46.006-4.264 4.306-7.325 5.145-13.319 5.187-1.239 2.791-2.517 5.3-4.739 7.454-5.399 5.229-12.483 5.006-19.478 4.944l.002 7.711c8.505-.06 18.078-.898 26.469.402a26.73 26.73 0 0 1 17.696 10.883 26.9 26.9 0 0 1 4.543 20.351c-1.453 8.127-6.074 14.211-12.673 18.907-5.967 3.004-10.322 3.824-16.902 3.982-25.586.613-51.329.062-76.931.053-13.05-.005-34.515 1.266-46.427-.999-4.893-.93-9.306-3.557-12.86-7.017-5.386-5.242-8.68-12.63-8.666-20.177a26.36 26.36 0 0 1 7.963-18.706c8.97-8.789 20.83-7.812 32.371-7.684l-.013-7.736c-5.209.112-12.523.67-16.658-3.207-4.937-4.63-4.701-12.408-4.701-18.614 0-11.811-.366-23.416 8.739-32.356 8.972-8.81 19.813-8.104 31.453-8.06l18.897.038c.006-8.729-1.754-22.587 1.708-30.549 1.78-4.097 5.627-7.926 9.827-9.497 5.194-1.941 39.628-1.469 46.676-.795 2.07.198 3.927.526 5.828 1.399.816 1.231 1.106 1.855 1.097 3.344-1.077 1.974-3.875 2.614-5.895 3.369-.203.33-.51.614-.608.989-.201.774 2.245 6.986 2.581 8.228 3.208 11.845 6.017 23.86 8.843 35.802 12.51-11.973 26.3-22.979 39.429-34.279 6.754-5.813 16.122-15.19 23.474-19.653"/><path fill="#fefefe" d="M96.93 265.968c25.932-.579 51.974.004 77.918-.043l28.514-.058c5.703-.007 11.64-.345 17.302.395 3.525.46 6.678 1.729 9.451 3.977a19.1 19.1 0 0 1 6.996 13.094c.427 5.135-1.724 10.927-5.068 14.794-3.74 4.324-8.609 6.154-14.188 6.585-26.993.299-54.024.005-81.021.006-12.367.001-30.346 1.104-42.086-.424-3.607-.469-6.333-1.599-9.161-3.899a21.3 21.3 0 0 1-7.672-14.294c-.447-4.783.864-9.387 3.968-13.078 3.989-4.743 9.043-6.603 15.048-7.055"/><path fill="#080807" d="M127.72 276.806c9.575-.213 54.874-1.025 60.602.55 2.025.556 3.646 2.04 4.652 3.853 1.347 2.427 1.658 5.597.782 8.234-1.156 3.479-3.736 5.104-6.81 6.63-9.375.548-55.037 1.266-61.361-1.096-2.088-.781-3.79-2.891-4.656-4.884-1.001-2.303-.912-4.829.016-7.136 1.314-3.266 3.644-4.843 6.775-6.151"/><path fill="#fefefe" d="M128.662 284.691c7.292.007 53.367-.93 56.634.389.825.333.686.55.992 1.328l-.855 1.954c-6.289.524-54.053.912-56.69-.555-.602-1.376-.386-1.686-.081-3.116"/><path fill="#080807" d="M92.923 272.284c7.152-2.055 14.615 2.082 16.663 9.238s-2.094 14.617-9.25 16.66c-7.147 2.04-14.595-2.098-16.64-9.245-2.047-7.147 2.083-14.6 9.227-16.653"/><path fill="#fefefe" d="M95.288 279.654a5.761 5.761 0 1 1 2.79 11.18 5.761 5.761 0 0 1-2.79-11.18"/><path fill="#080807" d="M214.457 272.275a13.464 13.464 0 0 1 16.778 16.365 13.47 13.47 0 0 1-9.591 9.593c-7.126 1.878-14.44-2.324-16.406-9.429-1.968-7.105 2.141-14.472 9.219-16.529"/><path fill="#fefefe" d="M216.797 279.636a5.765 5.765 0 1 1 2.83 11.177 5.765 5.765 0 0 1-2.83-11.177M115.95 195.857c10.592-.222 21.242.029 31.841.049.666 3.631 1.26 7.124 3.998 9.833 3.886 3.846 9.503 3.405 14.529 3.304-.108 5.387-1.028 12.402 1.833 17.218 5.407 9.1 33.526 2.064 43.031 4.744.993.944.936 1.696.955 3.049.028 1.986-.179 3.626-1.671 5.068-1.772 1.711-4.551 2.606-6.928 3.029-5.136.914-10.777.478-15.987.469l-26.793-.081c-17.521.027-35.062.219-52.581.03-2.725-.03-7.922.316-9.798-1.964-2.311-2.809-1.493-8.97-1.438-12.426 6.169.028 25.139 1.044 29.97-.327 1.148-.326 2.21-1.413 2.675-2.506.516-1.217.274-1.714-.29-2.831-4.767-3.928-25.422-2.23-32.385-2.165.028-5.884.541-11.485 4.157-16.37 3.605-4.87 9.036-7.242 14.882-8.123m57.966-40.901c5.402.016 18.577-1.279 22.716 1.613 2.019 1.411 3.368 4.084 4.245 6.325 1.636 4.183 2.465 8.941 3.53 13.314a1482 1482 0 0 1 5.824 24.519c-12.061.412-24.236.093-36.309.114.191-15.287.016-30.596-.006-45.885m91.742 14.404c2.751 1.741 5.408 7.239 7.237 10.003a5315 5315 0 0 1-47.215 49.972c-.244.148-.47.298-.731.412-1.509.655-2.838.779-4.326.162-1.838-3.136-1.055-11.959-.864-15.657.131-2.539.802-4.761 2.374-6.779 4.458-5.726 11.61-10.664 17.186-15.402a2721 2721 0 0 0 26.339-22.711m37.952 80.147c3.393 3.261 7.159 6.52 10.075 10.221 2.288 2.904 3.616 5.917 3.119 9.668-.771 5.8-5.487 10.954-10.014 14.285-5.731 4.219-10.982 5.527-17.943 4.422-4.807-.906-9.544-2.148-14.288-3.331zm-185.68.911 70.187.033.021 7.622c-23.384-.329-46.813-.031-70.202-.032z"/><path fill="#fefefe" d="M173.92 208.893c12.718.146 25.453-.009 38.172-.031l.009 14.08c-5.828.018-34.75 1.253-37.738-1.478-1.009-3.854-.478-8.581-.443-12.571m-10.412-54.128c1.108.037 1.714.049 2.632.765.676 4.823.181 10.126.175 15.018l-.017 30.285-8.092-.008c-.537-.245-1.073-.681-1.571-1.007-1.946-3.9-1.713-33.981-.147-38.561 1.061-3.102 4.236-5.122 7.02-6.492m125.964 18.254c2.361 2.579 18.075 49.48 20.748 56.989a48 48 0 0 1-3.731 3l-.777-.362c-5.52-12.823-20.571-40.548-22.675-52.166zm-6.384-18.594c1.33.774 2.796 1.591 3.998 2.548.915.728 1.504 1.73 1.608 2.907.384 4.32-7.239 10.755-10.019 13.803-2.319-3.126-4.467-6.411-6.674-9.619 3.466-3.404 7.391-6.478 11.087-9.639m30.75 82.39c.492.341.762.557 1.135 1.015 2.034 2.503 2.886 7.366 2.457 10.526-.168 1.247-.313 1.839-1.325 2.538l-1.529-1.157c-2.315-2.217-4.461-4.582-6.626-6.943 1.811-2.116 3.9-4.029 5.888-5.979"/><path fill="#ffd026" d="M82.514 100.124c1.6-4.632 1.802-10.395 4.169-14.646.799-1.434 1.804-1.905 3.328-2.363 5.09-1.53 17.843-1.666 22.566.738 3.279 3.606 4.194 11.469 5.335 16.244 5.237.626 9.342 2.247 14.047 4.476 4.816-4.001 9.727-8.656 15.204-11.686 4.095 2.507 16.647 11.345 18.243 15.461 1.931 4.98-2.91 13.67-4.875 18.455 4.181 4.479 6.765 8.783 9.263 14.314l-8.766-.028c-5.022.361-9.966 1.808-13.356 5.755-1.848 2.151-2.615 4.644-3.311 7.341-1.226 4.267-1.782 8.607-2.176 13.021-4.658-12.049-12.225-21.744-24.291-27.049a43 43 0 0 0-33.39-.51 44.7 44.7 0 0 0-24.699 24.237c-4.71 11.325-4.421 24.908.4 36.159 4.358 10.172 11.875 16.939 21.57 21.931l-.03 8.22c.437 7.692 1.897 15.112 5.35 22.063l-7.402 3.146c-2.571 1.362-4.9 3.181-7.256 4.882l-4.696-2.555c-3.726 3.146-7.423 7.103-11.562 9.653-.995.613-1.783 1.083-2.94.79-3.822-.967-17.187-10.852-18.85-14.239-1.63-3.321 3.656-13.868 5.119-17.476-3.323-3.553-5.5-7.239-7.646-11.555-5.094-.041-13.6 1.501-18.165-.724-3.585-4.766-7.35-18.129-7.697-24.217 1.125-3.548 11.32-8.968 14.54-11.104-.803-4.599-.538-9.426-.195-14.059-4.516-2.803-11.66-6.558-14.295-11.231-.348-5.673 4.299-19.242 7.558-23.999 3.113-2.126 13.819-.847 17.827-.837 2.274-4.615 5-8.313 8.357-12.163-2.016-4.233-5.295-10.498-5.963-15.087-.27-1.859.311-2.67 1.47-4.032 2.47-2.898 15.559-13.647 19.189-13.667 3.117-.016 11.555 8.57 14.065 10.732 4.626-2.196 8.837-3.693 13.961-4.391"/><path fill="#080807" d="M82.514 100.124c1.6-4.632 1.802-10.395 4.169-14.646.799-1.434 1.804-1.905 3.328-2.363 5.09-1.53 17.843-1.666 22.566.738 3.279 3.606 4.194 11.469 5.335 16.244 5.237.626 9.342 2.247 14.047 4.476 4.816-4.001 9.727-8.656 15.204-11.686 4.095 2.507 16.647 11.345 18.243 15.461 1.931 4.98-2.91 13.67-4.875 18.455 4.181 4.479 6.765 8.783 9.263 14.314l-8.766-.028-.215-.543c-3.11-7.652-10.476-10.098-6.862-18.979a635 635 0 0 1 4.384-10.229c-3.842-2.993-7.791-5.913-11.501-9.065-2.915 2.366-10.48 10.125-14.201 9.888-3.953-.251-8.095-2.465-11.928-3.494-2.038-.546-4.264-.653-6.254-1.3-.836-.271-1.726-.855-2.288-1.537-3.006-3.644-3.461-11.211-5.001-15.754l-13.926-.037c-1.093 4.384-2.148 12.786-5.077 16.082-6.057 2.4-15.215 5.736-21.641 6.41-4.578-2.427-8.858-6.894-12.887-10.21-3.79 3.125-7.603 6.176-11.547 9.105 1.025 2.531 6.4 13.441 5.594 15.405-1.276 3.113-10.464 17.415-12.738 19.144-5.231 1.252-11.247.367-16.62.383l-4.448 14.503c4.547 3.202 10.152 6.088 14.155 9.862-.181 7.283-.23 14.396.349 21.663-4.27 4.092-9.632 7.158-14.423 10.615l4.349 14.11c5.776-.021 11.736-.348 17.49.061 1.995 3.117 9.679 13.601 10.642 16.001.707 1.763.788 3.566.405 5.413-.895 4.312-3.174 8.657-4.905 12.694 3.756 2.877 7.6 5.69 11.17 8.794 4-3.57 9.841-10.339 15.51-9.962 3.92.261 7.852 3.244 11.08 5.291-2.572 1.362-4.901 3.181-7.257 4.882l-4.696-2.555c-3.726 3.146-7.423 7.103-11.562 9.653-.995.613-1.783 1.083-2.94.79-3.822-.967-17.187-10.852-18.85-14.239-1.63-3.321 3.656-13.868 5.119-17.476-3.323-3.553-5.5-7.239-7.646-11.555-5.094-.041-13.6 1.501-18.165-.724-3.585-4.766-7.35-18.129-7.697-24.217 1.125-3.548 11.32-8.968 14.54-11.104-.803-4.599-.538-9.426-.195-14.059-4.516-2.803-11.66-6.558-14.295-11.231-.348-5.673 4.299-19.242 7.558-23.999 3.113-2.126 13.819-.847 17.827-.837 2.274-4.615 5-8.313 8.357-12.163-2.016-4.233-5.295-10.498-5.963-15.087-.27-1.859.311-2.67 1.47-4.032 2.47-2.898 15.559-13.647 19.189-13.667 3.117-.016 11.555 8.57 14.065 10.732 4.626-2.196 8.837-3.693 13.961-4.391"/><path fill="#080807" d="M81.745 230.194c-11.079-4.646-19.7-11.29-25.806-21.831a54.3 54.3 0 0 1-5.279-41.334 52.64 52.64 0 0 1 25.422-31.95c12.069-6.611 26.087-7.694 39.208-3.889 12.042 3.492 23.004 11.957 29.071 22.995-1.226 4.267-1.782 8.607-2.175 13.021-4.659-12.05-12.225-21.744-24.292-27.049a43 43 0 0 0-33.39-.51 44.72 44.72 0 0 0-24.699 24.237c-4.71 11.325-4.42 24.908.4 36.159 4.358 10.172 11.875 16.939 21.57 21.931z"/></svg>