<svg xmlns="http://www.w3.org/2000/svg" width="330" height="330" fill="none" viewBox="0 0 330 330"><path fill="#000" d="M164.155 25c1.771.228 3.437.448 4.976 1.415 6.734 4.23 12.929 10.56 18.943 15.797l33.506 29.07c-.128-6.482-1.92-19.224 2.437-24.12 1.864-.91 3.703-1.06 5.742-1.161 6.689-.334 31.557-1.672 36.205 2.968.979.978 1.012 1.623 1.182 2.934.725 5.627.053 12.139.044 17.858l-.057 40.58c5.754 4.628 45.652 38.698 46.867 42.149-.099 2.094-.747 3.78-1.769 5.582-2.993 5.276-15.774 20.522-21.303 22.02-5.228-.686-10.623-6.857-14.51-10.316.676 27.018.097 54.179.085 81.214-.007 15.012 1.063 31.761.074 46.496-.116 1.717-.267 3.434-1.516 4.744-1.232 1.289-3.071 1.514-4.758 1.7-8.408.928-17.495.22-25.991.217l-51.974-.023-85.774.012c-14.215.008-28.758.698-42.941-.02-2.837-.144-6.422-.226-8.958-1.609-2.28-9.241-.992-32.826-.988-43.635l-.003-87.433c-3.259 3.029-8.287 8.93-12.9 9.294-1.683.132-3.048-.484-4.29-1.568-5.076-4.43-19.946-20.148-20.484-26.401 5.026-7.029 13.466-12.869 20.031-18.498l31.91-27.356 71.994-62.085c6.798-5.837 13.371-12.047 20.243-17.77 1.255-1.047 2.419-1.593 3.977-2.055"/><path fill="#fefefe" d="M165.303 74.44c3.047 1.008 91.961 79.141 101.818 87.942l-.011 132.426c-36.519-.497-73.127-.172-109.651.01l.061-102.071c-.255-1.667-.715-3.294-1.904-4.542-1.723-1.809-4.201-2.337-6.581-2.669-5.68-.793-12.078.108-17.861.148-8.629.062-17.261-.272-25.89-.275-3.798-.001-8.574.095-11.346 3.045-1.182 1.257-1.738 2.436-1.955 4.134-1.385 10.819-.262 23.646-.225 34.638l.01 67.589c-9.39-.166-18.805.008-28.197.045-.486-28.382-.038-56.833-.026-85.224.007-15.511.264-31.041-.719-46.529 6.712-7.886 22.917-20.166 31.366-27.447z"/><path fill="#000" d="M192.081 183.583c10.404-.155 20.826-.019 31.23-.043 5.048-.011 10.414-.531 15.424-.065 1.847.172 3.896.597 5.391 1.757 1.997 1.55 2.016 4.273 2.217 6.654.677 7.981 1.007 41.645-.168 48.261-.307 1.73-.926 2.884-2.107 4.173-1.758 1.921-3.613 2.348-6.126 2.486-8.85-.06-47.356 1.747-52.379-1.888-1.901-3.043-2.507-6.572-2.687-10.108-.438-8.577-.037-17.351-.016-25.947.016-6.664-.698-14.1.467-20.63.186-1.047.681-1.838 1.423-2.593 2.028-2.055 4.647-1.92 7.331-2.057"/><path fill="#fefefe" d="m192.523 192.762 44.121.011-.027 44.412-44.067.067z"/><path fill="#fece00" d="M165.357 34.847c13.413 10.745 26.213 22.53 39.277 33.728l99.737 86.132c-4.442 5.405-9.363 10.533-14.027 15.758-7.864-7.791-16.728-14.842-25.102-22.093l-44.959-38.979-33.6-29.159c-6.427-5.592-12.771-11.843-19.741-16.708-1.824-.051-2.878.437-4.36 1.456-4.554 3.13-8.76 7.249-12.963 10.858L124.23 97.717a4413 4413 0 0 0-83.466 72.818l-13.54-15.333c5.991-6.204 12.858-11.817 19.3-17.558a1421 1421 0 0 1 38.343-33.467z"/><path fill="#fefefe" d="m100.925 195.073 46.886-.005c-.351 33.232-.028 66.5-.032 99.737h-46.875zM231.221 55.226c8.804-.144 17.626-.004 26.431.02l-.07 46.546c-5.758-3.402-20.608-17.648-26.324-22.762z"/></svg>