<svg xmlns="http://www.w3.org/2000/svg" width="330" height="330" fill="none" viewBox="0 0 330 330"><path fill="#080807" d="M163.626 12c1.753.065 3.901.214 5.237 1.518 1.771 1.727 1.406 4.708 1.302 6.952 3.147.14 6.261.358 9.379.825 23.897 3.568 44.555 16.156 58.836 35.583 5.134 6.985 17.403 27.275 15.764 35.733-.321 1.653-1.176 2.424-2.511 3.345-4.643.885-11.504-5.736-15.627-7.938a34.7 34.7 0 0 0-9.158-3.242c-14.103-2.773-20.942 7.862-31.134 13.823-.347.203-1.695.973-2.13.933-2.082-.187-10.123-8.598-12.8-10.314-3.371-2.16-6.908-3.186-10.725-4.244l-.035 29.596c19.338 9.792 39.36 16.971 60.834 20.346 6.338.997 18.575 1.121 23.703 2.758.989.316 1.744.908 2.237 1.806 1.921 3.507.971 11.251.941 15.222-.163 21.71-.562 42.623-6.919 63.618-12.964 42.822-45.53 77.793-84.623 98.734a14 14 0 0 1-1.1-.202c-5.185-1.227-11.351-5.781-15.766-8.786-21.823-14.855-40.881-32.93-54.615-55.64-17.58-29.066-22.02-58.175-22.298-91.56-.048-5.845-1.19-14.727.516-20.276.935-3.04 4.435-3.432 7.191-3.712 4.421-.449 8.876-.49 13.286-1.095 23.88-3.273 45.896-11.081 67.372-21.855l-.026-28.688c-13.315 3.649-16.56 11.78-22.79 14.09-2.186.809-14.655-9.819-17.402-11.227-12.241-6.275-21.884-3.303-32.89 3.692-2.3 1.46-5.288 3.8-7.987 4.337-.95.19-1.276.064-1.962-.516-1.13-.958-1.516-2.043-1.612-3.504-.697-10.55 13.393-32.346 20.28-40.365 16.634-19.361 38.809-29.475 64.052-31.448.159-3.834.401-5.535 3.18-8.299"/><path fill="#fefefe" d="M164.161 122.401c4.344.183 10.641 4.757 14.824 6.588 22.472 9.84 45.586 14.536 69.792 17.454.062 19.649.3 39.477-3.998 58.764-10.448 46.881-39.434 76.467-78.853 101.464l-.603.175c-7.795-1.493-33.859-23.596-40.306-30.079a147.18 147.18 0 0 1-42.178-87.765c-1.545-14.378-1.129-28.971-1.111-43.416 29.542-1.704 55.91-10.483 82.433-23.185"/><path fill="#080807" d="M199.993 173.962c3.556-.21 6.516-.08 9.498 2.202 2.292 1.753 3.826 4.092 4.174 6.985.34 2.833-.35 5.792-2.118 8.037-7.739 9.824-17.861 18.939-26.61 27.94-7.786 8.011-15.612 17.329-24.187 24.45-2.092 1.736-4.707 3.702-7.457 4.055-8.103-1.683-14.95-11.813-20.423-17.648-4.351-4.421-12.016-10.397-12.389-17.09a9.8 9.8 0 0 1 2.82-7.387 10.7 10.7 0 0 1 7.613-3.233c7.926.004 17.294 12.602 22.635 18.198 9.418-9.115 38.512-42.231 46.444-46.509"/><path fill="#fefefe" d="M201.914 182.707c1.424.308 1.877.487 2.864 1.56-.013.503.098 1.025-.04 1.509-.528 1.862-46.229 48.081-51.211 53.088-7.114-7.084-13.967-14.487-20.931-21.724-.876-.889-1.69-1.88-2.523-2.811-.336-1.483-.628-1.811.076-3.207 4.39.345 19.017 17.282 23.438 21.353 6.395-5.324 12.155-11.843 17.943-17.833a2502 2502 0 0 0 30.384-31.935"/><path fill="#ffd026" d="M158.995 29.552c11.225-1.196 23.618.626 34.235 4.352 23.041 8.088 38.079 24.755 48.443 46.357-5.377-2.382-10.63-4.17-16.555-4.483-12.232-.647-21.794 4.26-30.664 12.188-6.361-6.007-12.437-9.233-20.88-11.424-2.257-.436-4.602-.599-6.897-.68-11.605-.407-21.115 4.375-29.475 12.063-4.414-3.534-8.769-6.697-14.031-8.903-11.481-4.815-22.764-3.857-34.057.737 3.444-7.485 7.64-14.481 12.893-20.842 14.578-17.655 34.402-27.189 56.988-29.365"/></svg>