<svg xmlns="http://www.w3.org/2000/svg" width="330" height="330" fill="none" viewBox="0 0 330 330"><path fill="#000" d="M247.808 151.358c1.01-.088 1.965-.121 2.965.091 1.605.337 2.857 1.316 3.686 2.72 1.55 2.623 1.046 6.786.18 9.587l17.051-.002c4.56 0 9.922-1.008 13.383 2.457.712 2.027.658 3.079.009 5.116-.433.407-1.136 1.279-1.631 1.529-4.11 2.082-46.304.624-53.973.584.171.49.343 1.039.388 1.552.441 4.788-4.515 25.198-7.688 28.682 13.509.008 75.593-1.893 83.307.934 1.361.499 2.046 1.036 2.695 2.32.883 1.754 1.216 3.507 1.351 5.457.766 10.979.748 91.714-1.234 97.602-2.478 2.116-3.749 2.097-6.957 2.326-9.796.699-19.908.24-29.731.241l-54.757.001-171.007-.027c-6.401.058-19.963 1.861-25.067-1.99l.329-.946-.717-.039c-.636-3.484-.726-7.333-.764-10.871-.112-10.542-1.182-90.021 1.854-93.002 4.115-4.04 58.128-2.026 66.958-1.998-.123-9.455-1.334-20.657.984-29.802 1.379-5.44 4.416-10.117 9.373-12.909 4.849-2.732 10.691-3.615 16.065-2.089a21.28 21.28 0 0 1 12.865 10.063c2.254 4.084 3.758 9.099 2.485 13.721-1.461 1.661-2.311 2.765-4.561 3.315-5.523-2.299-4.123-9.851-7.794-13.985-2.108-2.374-4.631-3.859-7.863-4.035-2.911-.158-5.803.674-7.881 2.785-6.61 6.713-4.155 23.887-4.046 32.927l94.104.081c6.146-.022 15.996.111 21.268-3.161 5.218-3.241 3.569-27.912 10.706-34.642 3.983-3.757 14.617-2.27 19.727-2.171 2.533-4.025.063-8.085 3.938-12.422"/><path fill="#fefefe" d="m122.421 213.207 83.562-.001c.45.729.748 1.228.946 2.069 1.352 5.698.937 75.377.135 84.284-.108 1.263-.514 2.211-1.217 3.265-3.722 1.968-73.056.557-83.359.543z"/><path fill="#000" d="M134.546 240.065c1.942.059 3.191.168 4.93 1.066 1.384 1.492 1.905 2.988 2.266 4.943 1.214 6.588 1.7 20.041-2.204 25.658-1.892-.004-3.128-.245-4.844-1.05-1.424-1.445-1.935-2.927-2.296-4.87-1.201-6.455-1.665-20.271 2.148-25.747"/><path fill="#fefefe" d="m28.293 213.19 84.629.024c-1.309 29.82-.166 60.195-.121 90.074-28.016 1.05-56.426.074-84.484.074z"/><path fill="#000" d="M95.082 240.105c2.062-.005 3.515.016 5.41.877 1.565 1.515 1.981 3.265 2.375 5.329 1.193 6.257 1.539 19.691-2.053 25.061-1.743-.072-3.133-.185-4.746-.896-1.07-.472-1.864-2.069-2.233-3.108-2.268-6.365-1.77-21.241 1.247-27.263"/><path fill="#fefefe" d="M215.743 251.15c9.932-.695 20.133-.269 30.1-.271l53.432.01c.487.727.82 1.436 1.028 2.292.874 3.571 1.018 45.216.018 47.809-.253.645-.983 1.464-1.379 2.061-7.723 1.612-18.258.383-26.198.367l-57.992-.048c2.64-4.237 1.793-45.1.991-52.22"/><path fill="#fed100" d="M215.22 213.619c8.444-1.609 18.664-.537 27.361-.531l56.793.064c.369.6.739 1.272.919 1.957 1.289 5.036 1.514 21.346-1.036 25.677-3.245 1.665-74.538.489-84.65.476.082-.138.172-.272.253-.414 2.739-4.94 1.928-21.915.36-27.229"/><path fill="#000" d="M258.595 222.421c3.722-.077 7.831-.429 11.508.141 2.658.413 5.858 1.651 7.444 3.894-.036 1.383-.018 1.708-1.046 2.694-4.722 4.559-14.013 3.36-19.925 3.227-4.263.063-9.345.622-13.221-1.48-1.892-1.025-2.55-1.584-3.154-3.631.334-.69.739-1.388 1.325-1.901 4.524-3.966 11.508-3.041 17.069-2.944M24.4 21.981l204.393-.05c15.392-.008 67.193-1.697 77.313.908.901.684 1.658 1.398 2.154 2.438.919 1.933 1.235 4.235 1.361 6.35.577 9.857.46 91.383-.892 94.379-1.055 2.346-3.118 3.214-5.407 3.969-.433.082-.577.119-1.055.156-13.148.999-26.991.17-40.211.154l-78.17-.067-105.73.012c-16.587.003-33.55.786-50.09.077-2.546-.109-4.496-.525-6.494-2.236-1.302-1.967-1.767-3.721-1.96-6.043-1.127-13.58.007-28.33-.022-42.049-.03-14.92-1.605-40.906.518-54.523 1.084-2.02 2.234-2.577 4.292-3.475"/><path fill="#fefefe" d="m122.441 31.176 83.551.009c.442.729.739 1.239.938 2.075 1.261 5.207.928 75.865.135 84.319-.117 1.209-.514 2.093-1.208 3.084-3.28 1.756-72.911.526-83.386.525z"/><path fill="#000" d="M134.286 71.516c2.021.042 3.394.09 5.206 1.03 1.571 1.688 2.017 3.464 2.382 5.667 1.036 6.256 1.516 19.084-2.264 24.315-1.678-.03-3.099-.283-4.716-.722-1.575-1.395-2.099-2.82-2.498-4.819-1.216-6.113-1.616-20.295 1.89-25.471"/><path fill="#fefefe" d="M215.428 31.613c8.435-1.52 18.493-.493 27.144-.488l56.785.062c.441.731.748 1.232.937 2.073 1.334 5.687.973 75.533.153 84.321-.108 1.194-.505 2.054-1.198 3.027-3.092 1.763-74.998.59-84.316.605 1.784-3.375 2.316-81.792.495-89.6M28.32 31.17l84.561.021c-.886 29.858-.304 60.072-.019 89.948l-84.569.028z"/><path fill="#000" d="M95.048 71.599c2.068-.02 3.548-.007 5.48.845 1.493 1.54 1.969 3.067 2.357 5.113 1.167 6.14 1.462 19.828-2.118 25.048-1.755-.067-3.184-.316-4.854-.86-1.114-1.089-1.781-2.066-2.244-3.568-1.913-6.21-1.758-20.586 1.38-26.578"/></svg>