<svg xmlns="http://www.w3.org/2000/svg" width="330" height="330" fill="none" viewBox="0 0 330 330"><path fill="#080807" d="M76.378 55.48a38.5 38.5 0 0 1 18.639-23.375c9.826-5.406 21.024-6.517 31.748-3.34a43.13 43.13 0 0 1 26.056 21.137c2.593 4.877 4.437 10.547 4.883 16.07 10.886 2.638 19.651 8.728 25.551 18.341a42.47 42.47 0 0 1 5.091 32.127c-2.452 9.796-8.525 17.245-16.585 23.089-2.597 11.615-7.309 20.888-17.622 27.521-9.2 5.918-19.934 7.607-30.547 5.124-1.786-.418-3.544-.971-5.291-1.528l-.017 33.563c26.234 2.577 49.306 10.398 72.844 21.987 17.347-5.745 33.995-9.885 52.177-12.122l-.035-19.269-28.17.051c-4.923.008-10.303.46-15.165-.276-1.923-.291-4.178-.86-5.599-2.246-.922-.899-1.321-2.029-1.318-3.306.005-1.829.752-3.574 1.63-5.146 2.804-5.01 6.779-9.708 10.133-14.382 3.936-5.483 7.619-11.186 11.661-16.585-3.537.063-10.508.957-13.27-1.555-.821-.747-.885-1.468-.794-2.523.531-6.158 21.034-31.41 25.864-39.05-2.417.056-5.382.417-7.622-.557-1.094-1.269-1.62-2.292-1.503-4.08.084-1.298.575-2.52 1.204-3.642 1.541-2.751 22.093-32.296 23.067-33.04 1.463-1.119 3.548-1.454 5.334-1.145 1.425.246 2.488 1.354 3.381 2.411 5.079 6.013 9.12 13.447 13.561 19.974 2.589 3.806 5.767 7.291 8.208 11.158 1.02 1.615 2.003 3.592 1.582 5.538-.229 1.056-1.079 2.032-2.004 2.578-1.422.84-2.994.754-4.58.792-.638.016-1.274.05-1.911.067 4.985 6.937 26.002 33.325 25.647 39.587-1.107 1.729-2.378 2.747-4.401 3.264-2.944.754-6.847.203-9.886.209l14.401 20.633c2.463 3.533 5.444 7.166 7.365 11.011.795 1.59 1.498 3.595 1.241 5.378-.196 1.375-.926 2.378-2.084 3.121-5.242 3.366-39.329 1.731-47.745 1.758l.006 18.627c9.344-.417 42.084-1.764 48.973 3.037.919 1.37 1.52 2.193 1.524 3.875-.909 1.477-1.697 2.019-3.451 2.399-5.79 1.254-12.971-.696-18.88-1.136-3.777-.282-7.603-.259-11.389-.258-39.978.017-78.44 10.173-112.117 32.043-15.729 10.215-31.537 22.672-43.704 37.043-3.34 3.944-6.157 8.377-9.327 12.463-1.745 2.251-4.569 5.399-7.617 3.484-.937-.588-1.608-1.803-2.14-2.756-8.216.028-35.33 1.499-41.307-.867-1.542-1.916-2.02-4.177-2.319-6.566-.804-6.434-.26-13.468-.241-19.959l.049-36.882c-1.011 0-2.305-.024-3.254-.428-1.259-.536-1.818-1.642-2.255-2.855-.016-1.262.06-2.231.801-3.296 1.195-1.717 2.794-1.929 4.707-2.256l-.088-13.067c-1.694-.038-3.386.054-4.646-1.281-1.004-1.065-1.269-2.045-1.267-3.474.65-1.759 1.712-2.499 3.373-3.316 11.75-5.783 49.502-6.332 63.432-5.99l-.026-31.278c-11.16 4.972-22.374 6.778-34.11 2.239-9.556-3.696-17.769-11.311-21.832-20.761-2.93-6.811-3.123-13.33-2.54-20.571-8.708-9.765-13.453-21.701-12.79-34.892a45.8 45.8 0 0 1 15.041-31.697 45.36 45.36 0 0 1 22.275-10.947"/><path fill="#ffd026" d="M49.557 239.349c6.163-1.1 12.904-.859 19.134-.449 23.664 1.556 45.082 8.617 65.956 19.66-10.236 7.946-37.984 32.731-41.272 45.063-8.217.028-35.331 1.499-41.307-.867-1.542-1.916-2.02-4.177-2.32-6.566-.804-6.434-.26-13.468-.24-19.958zm-.089-21.902c6.54-2.559 14.341-3.297 21.29-4.249a191.1 191.1 0 0 1 104.726 14.455q3.046 1.341 6.064 2.742c-14.02 6.463-27.239 13.763-39.75 22.861-22.64-12.497-45.178-20.183-71.015-22.391-6.939-.593-14.443.686-21.227-.352zm61.106-182.131a35.03 35.03 0 0 1 19.657 3.57c7.553 3.75 16.215 12.196 18.092 20.72.72 3.271.559 6.96 1.772 10.087 1.654 4.258 9.722 5.358 13.572 7.143 7.348 3.407 12.905 10.26 15.66 17.767 4.275 11.648 1.989 25.207-7.093 33.936-2.077 1.996-5.624 3.07-7.208 5.356-2.658 3.84-2.375 10.019-4.474 14.376-3.393 7.042-9.855 12.462-17.194 15.012-8.618 2.997-16.928 1.973-25.039-1.923q-.082-9.509.134-19.015c8.358-9.48 20.117-17.714 26.938-28.302.976-1.514.833-2.224.497-3.878-.904-1.293-1.542-1.688-3.045-2.144-1.413.084-2.391.467-3.536 1.304-4.703 3.437-16.263 16.473-21.028 21.322q.038-.837.062-1.674c.188-7.827 1.347-27.831-.263-34.442-.302-1.243-1.174-2.164-2.029-3.07-1.843.071-3.317.23-4.685 1.534-2.41 5.221-1.013 32.902-1.012 39.979-4.716-4.124-18.546-19.316-23.785-19.938-1.46-.173-1.913.319-2.915 1.192-.298.798-.675 1.713-.665 2.574.045 3.99 23.306 23.492 27.402 27.578l.016 17.943a108 108 0 0 1-3.223 1.904c-7.836 4.422-16.942 5.784-25.633 3.259a31.4 31.4 0 0 1-18.756-15.101c-3.972-7.345-3.846-14.206-1.521-22.011a132 132 0 0 1-2.184-2.027 38.68 38.68 0 0 1-11.95-27.182c-.23-13.456 7.814-28.906 20.62-34.357 3.407-1.45 11.71-1.937 13.94-4.498.11-.129.208-.268.315-.399 2.886-3.587 3.588-8.532 5.951-12.491 4.986-8.355 13.57-11.92 22.61-14.104"/><path fill="#fefefe" d="M246.765 77.513c3.519 2.21 14.642 19.764 18.155 24.682-1.886.04-4.899-.226-6.577.655-1.44.756-2.006 1.863-2.366 3.373 1.595 6.678 20.897 31.208 26.259 38.639-3.381-.093-7.402-.576-10.704.163-1.716.384-2.505.944-3.471 2.343-.619 6.764 18.812 32.059 23.663 39.103l-43.873.027-45.379.002c5.424-7.04 21.551-28.032 23.987-35.556.569-1.758.818-3.287-.064-4.968-3.195-2.222-9.524-1.206-13.312-1.085 5.027-5.864 23.294-30.147 25.223-36.219.466-1.468.609-2.425-.258-3.78-1.4-2.19-4.574-2.738-6.947-3.048l-.648-.082c2.299-5.47 12.402-18.28 16.312-24.25"/><path fill="#080807" d="M266.771 251.133c5.731-1.052 27.313-1.021 32.286 1.105 1.708.73 2.134 1.504 2.727 3.121-.267 2.004-.836 3.433-2.884 4.148-3.791 1.324-13.638-.742-18.224-.768-4.83-.027-9.764.268-14.569.749-27.701 2.781-52.902 14.136-74.212 31.875-3.565 3.152-12.219 13.974-15.701 15.119-1.144.377-2.397.141-3.373-.56-.893-.641-1.412-1.465-1.519-2.551-.203-2.058 1.443-4.309 2.678-5.847 21.41-26.668 59.498-42.843 92.791-46.391"/></svg>