<svg xmlns="http://www.w3.org/2000/svg" width="330" height="330" fill="none" viewBox="0 0 330 330"><path fill="#000" d="m114.266 39.431 104.666-.048c18.606 0 37.842-.988 56.376.21 2.316.15 6.051.07 7.766 1.839 1.694 1.745 2.313 3.536 2.536 5.894.686 7.28.262 14.891.245 22.206l-.087 40.569-.015 126.624c-6.96 9.211-15.141 17.822-22.71 26.552-6.802 7.843-13.453 16.453-20.906 23.665-6.818 6.598-16.715 4.676-25.495 4.528l-122.068.024c-8.907 0-39.554 1.178-45.525-.59-1.432-.425-2.484-1.688-3.209-2.959-1.142-2.003-1.521-4.526-1.604-6.809-.383-10.494.233-21.325.232-31.862l-.014-76.582c-.005-13.332-1.494-77.23.948-85.796 1.002-3.513 61.177-43.103 68.864-47.465"/><path fill="#fed200" d="m173.054 94.05 57.831.006c-1.051 40.182-.042 80.676-.038 120.889l-.007 67.15-177.503-.025.056-188.006 62.211-.016c-.01 10.418-1.666 56.253 1.482 63.029 1.057.48 1.984.77 3.138.892 7.436.786 15.311-.038 22.803-.028 8.01.01 16.405.863 24.351.067 1.863-.186 2.97-.302 4.462-1.489 2.941-8.74 1.253-50.408 1.214-62.469"/><path fill="#000" d="M201.232 200.711c3.9 3.811 9.35 10.422 11.985 15.169 1.078 1.943 1.091 3.169.534 5.263-2.031 1.487-3.847 1.197-6.308 1.356-.425.349-.98.582-1.276 1.046-1.244 1.954.93 17.601-.497 22.563-.71 2.467-2.192 3.226-4.357 4.393-9.545-6.158-.814-21.648-4.689-28.955-1.432.823-2.99 1.622-4.694 1.147-1.814-.506-2.36-1.437-3.34-2.891-.298-5.525 9.135-14.74 12.642-19.091m-47.568 57.099c10.794-.075 52.11-1.677 59.555.81 1.205 1.134 2.038 1.707 2.039 3.537.002 2.058-1.15 3.469-2.495 4.872-8.024.075-56.302 1.479-59.93-1.129-1.127-.811-1.598-1.789-1.644-3.193-.069-2.074 1.131-3.489 2.475-4.897m10.401-56.55c3.866 2.225 11.394 12.296 13.053 16.465-.084 1.904-.005 2.365-1.1 3.998-2.161 1.074-4.223.667-6.547.468-2.59 3.061 2.644 21.183-2.618 27.407-2.088.072-3.869-.002-5.394-1.567-3.659-3.751-.855-16.708-1.044-21.865-.056-1.531-.194-3.14-1.336-4.207l-.634.814.491-.803c-1.431.172-3.526.45-4.917.015-1.334-.417-1.53-1.099-2.194-2.19-.376-5.093 9.03-14.465 12.24-18.535"/><path fill="#fed200" d="M276.256 56.066c.971 5.273.381 11.594.375 16.984l-.095 33.588.004 126.39c-11.031 14.455-24.196 28.104-36.25 41.772-1.547-5.168-.399-38.215-.398-46.487l-.001-137.339c11.968-11.784 24.273-23.25 36.365-34.908"/><path fill="#fefefe" d="m124.438 94.07 39.808.013-.003 54.755-39.823.009z"/><path fill="#fed200" d="M116.388 48.925c14.94-.47 30.027-.029 44.983-.028l-42.667 35.397-9.334.069q-23.1-.127-46.198.09zm106.064-.04 48.182.021c-7.998 6.694-31.97 32.668-38.42 35.472l-49.262-.044z"/><path fill="#fefefe" d="m176.198 48.95 31.646.003c-5.177 4.907-36.292 34.784-40.203 35.405l-34.244.106c14.472-11.558 28.076-24.285 42.801-35.514"/></svg>