<svg xmlns="http://www.w3.org/2000/svg" width="330" height="330" fill="none" viewBox="0 0 330 330"><path fill="#000" d="M204.542 26c3.509.107 6.862.436 10.183 1.635 20.551 7.417 13.887 27.586 9.281 43.364-3.916 13.416-13.925 41.454-14.787 53.99-.223 3.263.424 6.776 1.876 9.714 5.841 11.809 22.518 10.274 33.226 14.12 5.743 2.062 10.061 5.545 12.563 11.187 3.093 6.973-.87 28.406-4.262 35.107-.969 1.916-2.623 1.914-4.514 2.407-2.966 2.837-4.444 15.865-5.459 20.313-4.303 18.871-14.288 73.527-31 83.683-6.097 3.705-12.877 2.893-19.498 1.332-4.283-1.009-11.119-1.737-13.58-5.715-.506-3.694 1.547-8.568 2.569-12.152a834 834 0 0 1-10.676 11.34l-14.814-4.065c-13.293-3.623-82.675-20.093-88.65-23.928 1.442-9.761 10.293-23.072 14.315-32.53 3.296-7.753 23.462-64.571 21.882-68.521-.796-1.991-3.54-2.668-3.811-4.984-.793-6.762 4.629-24.729 8.44-30.306 11.189-16.373 32.539-.473 47.442-3.587 5.359-1.12 9.3-4.835 11.837-9.566 3.199-5.962 4.161-13.237 5.509-19.81 2.945-14.374 8.583-53.44 15.812-63.892 4.027-5.823 9.383-7.864 16.116-9.136"/><path fill="#fed100" d="M204.6 34.026q1.312.058 2.619.183c3.993.394 8.068 1.936 10.551 5.243 2.348 3.13 3.025 7.123 2.794 10.944-.381 6.323-2.946 13.097-4.715 19.178-4.866 16.725-11.509 34.315-14.457 51.45-6.513 37.865 38.465 27.76 46.703 40.218 4.457 6.74-.38 20.135-2.067 27.521-20.261-5.227-41.146-9.05-61.606-13.51l-76.554-16.445c1.598-6.194 2.121-13.751 4.991-19.465 7.3-14.533 32.899 1.256 48.326-4.255 5.78-2.065 10.153-6.35 13.046-11.696 5.811-10.741 11.25-46.8 14.25-61.333 1.351-6.541 2.327-13.502 5.34-19.523 2.503-4.998 5.59-6.829 10.779-8.51m-104.108 173.12c1.624-.02 3.247-.077 4.872-.018 9.068.33 11.829 11.943 17.172 17.508 2.61 2.719 5.912 4.459 9.539 5.397 15.509 4.011 21.679-11.978 34.935-11.347 9.5.452 12.568 14.735 18.251 20.771 12.846 13.64 22.029 1.274 34.783 1.984 2.546.142 5.607 1.123 7.253 3.018a61 61 0 0 1-.79 4.422c-2.347 10.834-9.843 39.799-18.82 45.336-6.147 3.792-14.066.709-20.414-.936 1.504-5.909 2.694-11.837 3.82-17.828.343-2.027.807-4.184.859-6.238.052-2.023-.578-3.034-1.874-4.472-6.203-.092-17.137 17.522-22.342 22.479-19.241-6.151-39.466-10.78-59.065-15.73 3.179-5.743 10.164-17.31 8.679-23.835-1.222-1.456-1.283-1.671-3.213-2.167-5.874 3.9-10.246 17.431-13.798 23.821-7.866-1.974-15.83-3.655-23.736-5.469 10.025-18.392 17.098-36.947 23.889-56.696"/><path fill="#fefefe" d="M111.234 167.824c42.27 10.238 85.309 18.441 127.832 27.668a1678 1678 0 0 1-9.247 40.62c-4.553-2.128-8.531-3.114-13.566-3.365-4.475 1.356-8.81 4.136-13.582 4.228-1.461.029-2.914.055-4.371-.085-12.543-1.208-10.944-12.762-17.429-20.238-2.618-3.018-6.171-4.634-10.025-5.451-16.394-3.475-22.294 12.35-34.824 11.009-9.895-1.06-11.747-10.17-17.087-16.733-4.308-5.295-9.211-6.269-15.742-6.878 3.199-10.133 6.23-20.291 8.041-30.775"/></svg>