<svg xmlns="http://www.w3.org/2000/svg" width="330" height="330" fill="none" viewBox="0 0 330 330"><path fill="#000" d="M122.557 22.859c11.249-.112 23.192.707 34.329-.298 3.663-.33 6.806-2.885 10.339-3.018 2.031-.076 4.331.874 6.139 1.762 7.149 3.523 34.866 1.032 44.557 1.56 3.866 1.897 7.362 4.374 8.809 8.65 1.103 3.28.742 7.58-.909 10.617-1.864 3.421-5.295 5.494-8.967 6.494-9.022 2.451-20.614.569-30.044.903-5.657.2-10.729 1.379-16.256 2.44 1.929 3.428.241 7.728 2.244 10.603l.9.247c3.737 1.046 7.353 2.407 9.375 5.992 2.364 4.181 1.205 12.805-.204 17.28-.204.62-.51 1.14-.835 1.694 5.647-.14 11.156-.893 15.941 2.692 2.002 2.644 1.53 5.727 1.335 8.867 16.691.006 33.41-.222 50.102.029.065-.128.139-.252.204-.383 2.299-4.817-1.53-11.575 4.97-13.982 4.534-1.676 35.441-2.124 39.354-.21.974.477 2.077 1.197 2.356 2.27 2.383 9.09 2.262 75.372-.334 84.325-4.739 3.617-33.411 3.018-39.651 2.347-1.271-.137-2.606-.325-3.422-1.411-2.865-3.813-1.215-10.52-3.403-14.153l-51.669-.041c-.028 4.032-3.626 9.203-6.473 11.971-6.444 6.279-16.765 8.681-25.51 8.484-8.123-.184-17.145-2.076-22.848-8.286-3.45-3.752-5.666-8.591-9.134-12.156-7.724-.042-26.929-2.233-32.465 3.553-6.417 6.699-3.227 21.624-4.627 30.201 2.773.852 5.657 1.423 7.613 3.705 2.856 6.775 2.569 26.757-.232 33.488-.436 1.066-1.047 2.016-2.17 2.432-4.061 1.492-9.208.736-13.51.748.732 1.151 1.168 2.22 1.289 3.579.77 8.962 1.353 65.489-.102 71.577-.371 1.519-1.493 2.007-2.662 2.91-2.28.331-4.006.197-6.259-.285-8.902.841-18.407.212-27.374-.011-2.401.206-3.162.359-5.322-.621-5.86-6.661 2.188-63.846-2.717-77.147-3.635.048-8.763.702-11.592-1.994-4.015-3.836-2.485-21.352-2.197-27.308.12-2.661.204-5.676 1.734-7.946 1.771-1.042 5.87-2.441 6.305-4.303 1.707-7.208.112-16.727.353-24.184.686-21.692 12.027-43.145 29.96-55.404 19.289-13.185 41.08-11.76 63.381-11.725.149-.242.306-.48.446-.727.547-.954.584-1.735.686-2.805.194-2.036 1.27-5.618 2.828-6.965 2.374-2.058 8.624-1.234 11.545-1.127 3.116-6.254-1.994-21.76 6.213-24.069 1.224-.346 2.819-.304 4.089-.368 1.604-1.595 2.142-2.82 2.124-5.173-.019-2.153-.093-4.387-1.234-6.252-.194-.103-.38-.21-.575-.31-10.84-5.645-39.799 3.576-44.074-10.738-.927-3.082-.408-8.49 1.298-11.243 1.54-2.488 4.868-4.346 5.953-6.777"/><path fill="#fed100" d="m55.013 232.217 23.545.014c3.709 6.132.472 65.098 2.17 77.825-8.903.841-18.407.212-27.374-.011 2.28-2.071 2.633-2.854 2.846-5.937.659-9.681 1.558-67.42-1.187-71.891"/><path fill="#fefefe" d="M98.262 110.281c11.359-1.118 23.247-.602 34.681-.672.399.644.742 1.206.955 1.944 1.474 5.27 1.187 32.684-.872 36.88-10.116.008-24.387-2.297-33.605 2.212-18.722 9.156-8.522 29.053-12.824 41.147l-2.216.822c-11.963-.163-23.953.003-35.924.011 3.681-5.358-2.745-34.873 11.415-56.931 9.115-14.213 22.264-21.778 38.39-25.413m45.28-11.5c13.557-2.033 30.517-.492 44.436-.46.074.12.157.24.222.365 2.346 4.229 1.53 50.799-.111 56.788-.946 3.44-2.513 5.6-5.61 7.379-.084.197-.139.404-.241.591-1.104 2.021-4.572 3.673-6.705 4.275-7.112 2.007-16.042 1.002-22.422-2.75-2.744-1.618-5.508-3.993-6.917-6.912-6.612-13.67 1.669-43.143-2.513-58.795-.037-.16-.093-.32-.139-.48m55.303 10.678c16.302-1.758 34.078-.335 50.538-.311.714 1.223.955 2.086 1.029 3.516.288 5.372 1.243 32.555-1.344 35.403-5.712 1.777-42.804.397-50.983.393 2.773-4.884 1.808-32.683.76-39.001m60.859-14.786c8.698-1.168 17.934-.55 26.697-.517.213.347.491.756.63 1.15 1.512 4.153 1.011 63.79-.714 67.548-2.197 1.796-22.978.834-27.17.821.093-.138.177-.272.26-.413 2.522-4.531 2.086-62.94.297-68.589M40.78 203.101c15.281-1.972 37.397-.411 53.347-.364.686 1.051 1.048 1.962 1.205 3.204.622 4.953 1.308 12.118-1.817 16.054-13.056 1.679-38.928.209-53.338.155 2.17-4.168 1.873-14.479.602-19.049"/><path fill="#fed100" d="M175.979 32.248c11.442-.63 24.341-1.224 35.738-.074 2.086.21 3.903.546 5.313 2.224-.056 2.461-.371 2.542-2.021 4.422-5.518 2.016-31.473.897-38.122.364-1.177-1.65-.844-4.928-.908-6.936m-48.295.001c8.327-.178 16.988-.843 25.288-.384 2.299.128 3.737-.094 5.341 1.682.12 1.872.297 3.242-.529 4.967l-3.078.96c-7.326.052-19.993 1.767-26.836-.612-1.855-.644-2.077-1.065-2.875-2.797.594-2.32.761-2.365 2.689-3.816"/><path fill="#fefefe" d="M159.938 73.319c3.997-.402 8.16-.235 12.185-.288.705 1.153 1.02 2.105 1.205 3.431.473 3.338.844 8.006-1.252 10.822-3.848 1.191-9.069.54-13.121.516 2.365-4.035 1.725-10.029.983-14.481"/></svg>