<svg xmlns="http://www.w3.org/2000/svg" width="330" height="330" fill="none" viewBox="0 0 330 330"><path fill="#000" d="M132.412 30.573c10.161-.579 20.445-.192 30.622-.192 11.767 0 25.717-1.522 37.103 1.517 13.604 3.631 18.153 13.529 24.518 24.931q4.828 8.512 9.756 16.966c4.722-2.665 11.605-7.718 16.929-8.502 1.504-.221 2.24.09 3.384 1.007.955.765 1.301 1.721 1.332 2.917.118 4.665-15.94 55.355-18.287 61.689-.499 1.342-1.056 2.843-2.101 3.853-1.142 1.106-2.46 1.135-3.97 1.065-8.478-.392-20.543-4.621-29.074-6.665-9.935-2.381-20.508-4.023-30.196-7.215-2.062-.679-4.679-1.554-6.093-3.27-1.139-1.383-.904-2.886-.746-4.563 3.954-4.104 10.23-6.574 15.23-9.201-5.601-9.084-10.511-18.561-16.232-27.591-5.682 9.036-28.74 51.219-33.679 55.116-1.844.1-3.45-.405-5.156-1.042-7.745-2.888-34.737-18.869-41.763-24.201-1.895-1.437-3.63-2.949-4.636-5.144.631-6.176 25.128-48.261 30.297-56.55 5.492-8.806 12.828-12.595 22.762-14.925"/><path fill="#fece00" d="M152.771 39.307c11.875.201 36.629-1.532 46.853 1.463 14.579 4.269 23.239 39.617 32.126 42.706 3.133 1.089 10.608-4.117 13.534-5.797-4.37 13.36-8.444 26.83-12.706 40.226l-2.753 8.805a2213 2213 0 0 1-49.291-11.718c3.227-1.696 9.597-4.113 11.107-7.521-1.541-7.77-19.585-35.084-24.247-42.976-4.936-8.357-9.381-17.019-14.623-25.188m-20.508.793c2.01-.17 4.203-.225 6.18.233 8.753 2.031 16.004 20.509 20.757 28.012-10.123 18.334-21.247 36.29-31.799 54.399-2.066-.988-4.082-2.204-6.092-3.307-10.801-6.229-21.738-12.378-32.136-19.26q.938-1.784 1.902-3.554c5.607-10.282 23.961-45.04 30.208-51.002 3.132-2.987 6.903-4.325 10.98-5.522"/><path fill="#000" d="M97.006 130.852c2.083-.023 4.042.512 5.687 1.845 3.568 2.89 19.925 57.985 20.823 65.322l-.093-.19-.35 1.245.348.225c-.4.412-.769.724-1.317.927-4.762 1.754-15.084-5.646-19.633-7.928-4.427 8.487-9.28 16.781-13.959 25.132 8.708.026 57.974-1.168 62.412.716 1.493.635 3.188 2.304 3.607 3.904 1.069 4.085.675 43.839.066 49.546-.248 2.326-.644 4.739-1.901 6.741-5.282 3.119-30.42 1.578-38.117 1.536-12.41.097-25.837 1.519-37.37-3.877-4.568-2.137-8.446-6.493-11.525-10.386-4.28-5.41-7.562-11.696-11.26-17.516-6.517-10.253-20.223-29.652-23.95-40.305-6.716-19.197 4.763-30.754 12.536-46.861-4.744-3.755-12.28-6.096-15.787-11.025-.294-1.519-.447-2.891.528-4.214 2.844-3.858 59.571-13.446 69.255-14.837"/><path fill="#fece00" d="m95.922 139.829.669-.064c2.121 1.642 14.097 42.389 15.91 48.109-3.654-2.1-9.378-6.458-13.638-5.34-4.094 3.335-27.992 47.337-31.358 54.82-1.685 3.743-2.762 7.245-3.564 11.271-2.335-3.23-3.686-6.939-5.18-10.605-6.263-10.097-15.189-21.433-19.526-32.317-7.075-17.754 8.417-31.172 14.855-46.354l.273-.654c-3.227-4.651-7.48-6.571-12.282-9.228 7.144-.827 14.143-2.5 21.208-3.803zm4.186 86.211 46.151-.029-.024 45.244-25.041-.034c-11.452.083-28.368 2.001-38.743-3.003-4.193-2.023-7.694-5.228-9.116-9.787-3.53-11.311 5.25-22.744 10.012-32.34z"/><path fill="#000" d="M264.886 128.847c1.613.249 3.109.628 4.262 1.86 3.56 3.803 28.356 46.934 31.123 53.123 1.654 3.7 3.407 8.419 3.382 12.523-.035 5.705-1.439 12.021-3.554 17.31-3.656 9.143-9.621 17.701-14.469 26.277-4.353 7.701-8.231 15.932-13.113 23.297a47.6 47.6 0 0 1-6.317 7.747c-2.249 2.202-4.856 4.354-7.715 5.712-10.952 5.202-30.341 3.053-42.704 2.944.076 3.791 1.293 15.511-1.142 18.015-.997 1.026-2.166 1.436-3.587 1.328-6.67-.509-24.91-22.967-30.155-28.74-4.706-4.786-14.923-13.449-17.389-19.219-.639-1.494-.205-2.751.402-4.183 2.126-5.016 35.6-41.11 41.378-46.391 1.851-1.691 3.674-3.083 5.998-4.057 1.289.176 2.007.381 2.909 1.389 3.08 3.439 1.698 14.429 1.615 18.906l30.857-.001-18.987-32.126c-3.39-5.757-7.558-11.747-10.12-17.905-.937-2.25-1.521-4.502-1.019-6.924 3.393-4.629 40.989-27.291 48.345-30.885"/><path fill="#fece00" d="M206.487 212.212c.591.839.459.801.436 1.755-.082 3.273-.868 7.645 1.603 10.144 2.064 2.088 66.138 1.159 75.085 1.135-5.907 10.374-16.129 31.644-23.905 39.314-6.963 6.87-15.198 5.947-24.285 5.866-6.711.111-13.457-.59-20.131-.395-2.34.068-5.026.721-6.578 2.609-2.898 3.524-1.814 8.594-1.45 12.773-11.813-11.934-22.969-24.667-34.454-36.931 11.516-11.782 22.51-24.155 33.679-36.27m57.435-73.16c4.282 5.127 28.517 47.486 29.796 52.77 1.382 5.711.479 12.514-2.663 17.516-7.373 11.739-21.858 5.392-32.842 8.183l-.636.168c-4.598-6.878-8.6-14.342-12.793-21.481a1812 1812 0 0 1-19.391-33.39z"/></svg>