<svg xmlns="http://www.w3.org/2000/svg" width="330" height="330" fill="none" viewBox="0 0 330 330"><path fill="#000" d="M93.728 37.018c2.745-.129 5.829.456 8.553.88 15.018 2.34 28.909 9.324 37.947 21.883 10.609 14.745 10.695 30.357 8.036 47.477l27.827 27.142c8.885-9.34 42.476-40.827 46.789-49.93 2.649-5.591 3.032-13.362 4.797-19.458 6.997-6.613 25.302-23.153 33.482-26.082 1.089-.034 1.741.057 2.718.577 3.83 2.04 19.995 18.39 21.225 22.23-.233 3.859-18.335 30.334-21.631 33.628-6.413 6.41-16.874 5.985-23.905 11.768-4.813 3.959-8.99 9.539-13.329 14.076a2847 2847 0 0 1-31.74 32.806L259.67 218.8c8.022 8.027 18.959 16.756 25.356 26.038A27.7 27.7 0 0 1 290 260.697a28.7 28.7 0 0 1-8.773 20.311c-4.738 4.623-10.987 7.456-17.668 7.253-4.501-.137-8.785-1.629-12.549-4.061-12.052-7.786-38.15-38.506-49.688-50.689l-38.253-40.914c-1.445-1.53-2.038-1.57-4.044-1.608-3.006 4.154 7.543 10.665 6.248 16.677-.827 3.842-4.646 8.084-7.78 10.287-5.25 3.688-8.377.516-13.592-.372l-1.421 1.157c-1.233 3.597-.87 7.407-1.018 11.183-6.033 10.477-17.44 19.786-25.817 28.466-8.486 8.794-16.747 18.137-25.712 26.437-5.364 4.967-10.145 8.088-17.74 7.708-10.337-.517-18.487-8.696-24.986-15.995-4.943-5.552-8.694-11.471-8.156-19.161.294-4.199 1.651-8.672 4.053-12.15 4.823-6.986 47.11-50.42 54.12-55.075 4.399-2.921 11.172-.663 15.143-4.174.456-3.461-3.437-5.687-3.575-9.206-.103-2.628 1.891-4.706 3.579-6.465 15.72-16.375 20.003 2.159 26.971 2.073l.557-1.476c-8.558-10.031-18.103-19.434-27.168-29.021-3.205.779-6.526 1.403-9.82 1.634-14.042.987-27.34-2.928-37.998-12.307-13.773-12.123-17.185-27.437-18.24-44.906 2.55-3.126 5.967-8.34 9.83-9.8 5.733 1.716 23.685 21.674 29.222 27.103l22.453-4.225c.988-7.468 2.311-14.874 3.615-22.292-9.454-9.74-18.556-19.878-27.775-29.845 2.616-3.74 6.475-6.995 9.71-10.226"/><path fill="#fed100" d="M122.831 172.897c5.501.872 28.094 27.04 32.685 33.114-.074 1.609-.285 1.58-1.366 2.679-3.823 1.236-8.068-1.096-11.992-1.092-2.472.002-4.795.71-6.486 2.591-3.962 4.404-3.5 11.381-3.024 16.841-16.29 18.814-34.698 37.076-52.5 54.505-1.804.847-4.06 1.561-6.068 1.675-5.82.331-11.188-3.871-15.209-7.638-4.682-4.384-10.453-10.677-10.503-17.535-.027-3.751 1.817-7.031 4-9.96 4.455-5.97 10.608-11.025 15.865-16.325l34.184-34.406c6.797.146 10.85-.479 16.559-4.51 2.346-1.657 4.34-4.086 4.688-7.019.441-3.718-1.627-5.747-3.798-8.468.017-2.255 1.418-2.917 2.965-4.452"/><path fill="#000" d="M109.038 209.609c1.051.134 2.491.204 3.463.622 1.775.765 2.055 1.576 2.692 3.237-.102.573-.148 1.736-.396 2.215-3.073 5.919-39.894 42.268-47.72 50.077-1.281-.15-2.939-.492-3.998-1.252-1.629-1.169-1.56-2.174-1.645-3.972 2.68-6.967 39.727-43.381 47.604-50.927m9.166 17.095c1.28.414 2.863.802 3.856 1.747 1.309 1.247 1.124 2.114 1.253 3.82-1.926 6.135-37.167 41.287-43.51 46.369-.438-.11-.98-.231-1.419-.389-2.302-.834-3.145-1.849-4.049-3.952.668-5.094 37.281-40.955 43.869-47.595"/><path fill="#fefefe" d="M188.143 160.519q.166.141.327.287c18.388 16.681 35.602 35.502 53.21 53.095 10.279 10.272 27.467 25.299 35.826 36.642 2.233 3.031 3.581 6.622 3.695 10.409.136 4.527-1.683 8.809-4.832 12.027-4.504 4.603-9.056 5.749-15.318 5.809-3.037-.984-5.327-2.058-7.777-4.131-10.832-9.167-20.405-20.844-30.112-31.196l-56.563-60.535c7.287-7.355 14.729-14.609 21.544-22.407"/><path fill="#000" d="M259.064 247.089a12.954 12.954 0 1 1 7.993 24.643 12.954 12.954 0 0 1-7.993-24.643"/><path fill="#fefefe" d="M261.814 255.664a4.033 4.033 0 1 1 2.474 7.677 4.033 4.033 0 0 1-2.474-7.677M95.791 46.463c2.453.026 4.952.356 7.363.794 21.141 3.83 36.644 18.803 37.583 40.792.28 6.548-3.468 18.838.278 24.072l.29.401c6.473 9.051 20.057 20.251 28.307 28.452-7.369 7.921-15.029 15.601-22.574 23.358-9.651-9.42-18.483-20.974-28.827-29.474-2.211-1.817-3.666-2.423-6.59-2.168-4.47.977-8.932 1.989-13.532 2.003a41.25 41.25 0 0 1-29.613-12.152c-10.01-10.097-12.256-22.063-12.22-35.68 8.901 8.915 17.596 18.406 27.18 26.576 7.467-1.359 22.752-2.616 28.81-6.74 7.103-4.836 7.67-23.615 9.13-31.963-7.345-9.96-17.181-19.136-25.585-28.271m165.138 3.205c4.871 2.85 9.952 9.227 14.049 13.284q-9.375 13.14-18.542 26.424c-6.176 2.977-13.74 4.3-19.332 8.307-9.461 6.78-17.642 17.442-25.784 25.895l-56.163 58.231-4.396 4.55-6.533-6.912c13.085-12.025 25.207-25.372 37.582-38.123a4348 4348 0 0 0 49.412-50.791l4.477-20.235c7.942-7.266 16.856-13.841 25.23-20.63"/></svg>