<svg xmlns="http://www.w3.org/2000/svg" width="330" height="330" fill="none" viewBox="0 0 330 330"><path fill="#080807" d="m41.481 20.395.59-.02c18.265-.573 36.704-.075 54.987-.072l106.004.009 56.201-.082c10.508-.017 21.766-.82 32.176.679 5.8.835 11.038 3.58 15.271 7.619 6.587 6.286 7.948 14.668 8.075 23.442.699 48.415-.075 96.927-.017 145.355l.04 48.464c0 9.123.667 18.794-.655 27.804-.978 6.664-2.948 11.148-7.701 15.951-7.354 7.433-16.475 8.453-26.371 8.42-.966 6.303-.427 17.348-5.041 22.01-2.584 2.611-5.895 2.505-9.285 2.485-6.873-.094-26.366 2.087-31.165-1.697-5.347-4.216-5.622-16.372-6.635-22.807l-126.161-.026c-.871 6.651-.576 15.448-4.017 21.349-1.627 1.382-3.3 2.035-5.348 2.507-6.677 1.543-32.551 1.995-37.68-1.734-4.003-2.909-4.584-17.508-5.15-22.096-8.241.181-15.825-.634-22.688-5.654-6.468-4.731-9.656-10.903-10.794-18.681-1.747-11.943-.794-24.994-.801-37.07l-.024-64.889.014-82.363c.007-14.062-.875-28.789.325-42.786.498-5.807 1.312-10.545 4.896-15.29 5.17-6.844 12.717-9.734 20.954-10.827"/><path fill="#fefefe" d="M39.336 31.124c12.807-.647 25.888-.143 38.725-.142l73.174.016 86.928-.035c15.487-.018 31.125-.47 46.598.035 3.175.104 6.372.16 9.346 1.39 4.068 1.68 7.025 4.233 8.666 8.413 1.447 3.688 1.838 7.733 2.009 11.657.503 11.618.044 23.451.013 35.096l-.054 64.878.068 73.895c.005 13.115.43 26.388-.141 39.479-.167 3.814-.378 7.889-1.929 11.429-2.221 5.067-6.549 7.741-11.523 9.61-9.576 2.323-22.345.869-32.242.865l-60.509-.04-100.936.035c-17.35.009-34.91.647-52.223-.104-3.5-.152-6.421-.435-9.611-1.998-4.5-2.206-7.325-5.655-8.889-10.402-3.364-10.209-1.417-40.88-1.399-53.215l-.018-67-.023-69.337c-.003-12.177-.442-24.51.097-36.668.142-3.226.419-6.302 1.915-9.218 2.541-4.954 6.888-7.02 11.958-8.639"/><path fill="#080807" d="M63.657 53.64c2.869-.281 5.787-.39 8.67-.412l129.647.024 40.848-.049c7.545-.006 15.762-.593 23.216.534 3.853.582 7.775 3 10.496 5.759 2.916 2.956 5.085 7.107 5.674 11.231 1.006 7.056.577 14.494.562 21.617l-.083 35.122.049 109.741c-.077 8.231-.071 16.579-6.522 22.715-6.291 5.984-15.179 5.464-23.217 5.372l-127.294.025-37.32.004c-7.439 0-15.19.454-22.577-.493-4.612-.591-7.905-1.608-11.232-5.002-6.184-6.31-5.573-15.345-5.453-23.496q-.236-.01-.47-.025c-.26-.018-.52-.043-.781-.063-1.23-.093-2.596-.074-3.7-.683-1.183-.654-1.672-1.287-1.943-2.622-1.297-6.369-1.244-36.904-.433-43.746.238-2.01.744-4.579 1.937-6.242 1.176-1.641 2.07-1.727 3.912-2.079.844-.776 1.047-1.412 1.272-2.501.582-2.805.191-39.794-.156-40.202-1.437-1.689-4.831-.752-6.473-3.717-1.586-2.867-1.036-45.82.256-49.91 1.44-1.83 3.728-2.299 5.86-3.026 1.897-6.22.134-13.554 3.12-19.397 2.267-4.437 7.68-6.92 12.135-8.48"/><path fill="#fefefe" d="M65.98 63.84c40.902-1.336 82.215-.18 123.161-.174l46.271-.06c8.728-.03 17.777-.587 26.45.215 2.861.264 5.027.983 7.237 2.928 3.386 2.977 3.348 8.35 3.47 12.547 1.007 34.735-.045 69.781-.083 104.548l.151 38.579c.034 6.692.475 13.715-.153 20.37-.297 3.141-1.156 7.61-3.539 9.872-3.938 3.737-12.444 2.61-17.48 2.513l-132.673-.084c-10.851.013-43.539 1.632-52.148-.331-2.697-.615-4.597-1.853-6.035-4.273-2.423-4.079-2.31-9.326-1.072-13.754 1.737-.457 3.838-.92 5.112-2.291 1.102-1.185 1.596-3.019 1.788-4.584.422-3.434-.253-7.427-.245-10.936.018-9.018.3-18.054.178-27.068-.194-14.214-2.118-6.755-7.347-11.83-.261-13.488-1.512-28.25.2-41.578 1.43-.463 2.91-.894 4.236-1.609 1.395-.753 2.1-1.217 2.504-2.835.851-3.403.688-46.446-.522-49.228-1.391-3.2-4.909-2.338-6.275-4.633-1.49-2.5-.366-7.915.504-10.571 1.008-3.082 3.56-4.486 6.31-5.733"/><path fill="#080807" d="M160.795 99.397c33.581-2.342 62.741 22.898 65.249 56.474 2.507 33.578-22.582 62.87-56.138 65.544-33.791 2.692-63.326-22.617-65.851-56.43-2.525-33.811 22.923-63.229 56.74-65.588"/><path fill="#fefefe" d="M160.054 108.915c1.884 3.216-.797 8.478 1.603 11.769 1.085 1.488 2.167 2.04 3.936 2.391 1.259-.389 1.988-.486 2.93-1.454 3.023-3.097 2.045-8.781 1.973-12.835 9.038 1.909 16.715 5.029 24.502 9.94-2.746 2.766-6.583 5.861-6.566 10.136.008 1.915.523 2.53 1.712 3.868.937.312 1.822.54 2.819.389 4.229-.645 6.61-4.669 9.042-7.79 7.462 8.593 10.793 17.356 13.098 28.332-2.61-.074-5.506-.361-8.086.048-2.473.392-4.279 1.783-5.688 3.775-.147 1.572-.324 2.356.844 3.647 3.271 3.614 8.65 2.731 13.033 2.634-1.963 12.28-5.552 21.304-12.855 31.388-1.804-2.049-3.828-4.741-6.084-6.261-1.967-1.325-4.234-1.843-6.547-1.372-1.216 1.121-1.603 1.595-1.58 3.322.066 4.632 4.041 7.919 7.046 10.942-7.559 5.593-15.442 8.633-24.662 10.194.061-3.467.688-8.128-.957-11.268-1.092-2.084-2.112-2.776-4.239-3.348-1.01.368-1.707.641-2.426 1.474-3.206 3.716-2.411 8.712-2.322 13.273-9.732-1.902-16.997-4.734-25.209-10.238 1.836-1.976 4.548-4.405 5.686-6.833.993-2.117.935-4.157.069-6.278-1.387-1.141-2.019-1.57-3.945-1.447-4.072.26-6.967 4.814-9.22 7.696-7.566-9.808-10.885-19.066-12.625-31.231 2.595.067 5.528.362 8.082-.129 2.436-.47 4.029-1.762 5.453-3.719.179-1.746.221-2.432-1.027-3.779-3.08-3.318-8.509-2.548-12.617-2.48 2.016-11.544 5.684-20.012 13.234-29.016 1.66 2.226 3.465 5.159 5.806 6.712 1.812 1.201 3.479 1.51 5.587 1.129 1.375-1.189 1.941-1.671 2.058-3.632.263-4.398-3.747-7.86-6.476-10.818 8.031-4.677 15.425-7.614 24.618-9.131"/><path fill="#080807" d="M162.855 135.019c13.959-1.233 26.31 9.002 27.695 22.95s-8.71 26.413-22.639 27.952a25.57 25.57 0 0 1-23.525-10.431 25.58 25.58 0 0 1 18.469-40.471"/><path fill="#fefefe" d="M162.286 145.212c8.347-1.56 16.405 3.854 18.118 12.173s-3.55 16.478-11.834 18.344a15.582 15.582 0 1 1-6.284-30.517"/><path fill="#080807" d="M252.692 126.12c1.859.269 3.009.646 4.558 1.72.776.944 1.223 1.831 1.42 3.053 1.064 6.607.222 14.64.223 21.372.001 11.409.619 23.273-.205 34.634-.152 2.081-1.673 3.186-3.127 4.498-2.027-.382-3.587-.63-5.089-2.152-2.414-2.447-1.414-45.84-1.35-52.373.049-4.959-.115-7.146 3.57-10.752"/><path fill="#fefefe" d="M51.69 91.975c1.892.01 3.606-.168 5.248.93 1.398 11.14.325 23.565.264 34.846-1.756.006-3.806.19-5.183-.903-1.5-11.091-.33-23.599-.33-34.873m.036 98.926c1.781-.038 3.158-.012 4.862.538 1.981 4.526.653 28.668.615 34.927-1.725.071-3.38-.088-5.096-.26-1.4-11.265-.385-23.797-.381-35.205m8.031 107.06 31.888-.003-1.927 13.294c-2.444 1.643-23.131.707-27.953.708q-.966-7.005-2.008-13.999m178.581-.022 31.446.029c-.677 4.591-1.134 9.241-1.688 13.851-9.127.333-18.402.064-27.542.092-.832-4.633-1.481-9.322-2.216-13.972"/></svg>