<svg xmlns="http://www.w3.org/2000/svg" width="330" height="330" fill="none" viewBox="0 0 330 330"><path fill="#000" d="M144.692 25.903q.551-.052 1.105-.08c11.026-.613 35.334-3.013 43.611 4.883 2.306 2.199 3.52 5.363 3.6 8.525 20.58 5.374 39.07 16.79 52.321 33.53 13.999 17.701 22.967 43.054 20.307 65.762 4.251.135 8.381.371 11.829 3.185 4.251 3.465 4.653 9.394 5.183 14.454.57 5.43.916 11.409-2.837 15.86-3.11 3.692-8.823 5.594-13.315 6.877-11.001 3.141-22.645 3.943-33.943 5.432-18.177 2.395-35.953 4.962-54.25 6.325-12.295 1.107-25.868.555-38.205-.245-16.833-1.091-83.933-8.181-94.83-16.653-3.19-2.479-4.605-6.231-5.059-10.142-.7-6.04.262-15.8 4.296-20.684 2.977-3.604 7.464-4.113 11.828-4.516-.184-18.052 3.275-35.838 11.85-51.837 13.093-24.433 34.584-39.198 60.68-47.057.636-2.589 1.35-5.255 2.919-7.449 3.173-4.435 7.792-5.38 12.91-6.17"/><path fill="#fed100" d="M147.201 34.459c8.931-.587 25.782-1.879 33.761 1.048 8.759 3.21-4.122 54.357.579 64.486 1.527 1.205 1.511 1.145 3.447.962 2.146-1.334 3.126-2.864 3.97-5.175 1.061-2.904 3.311-39.176 3.166-44.001-.048-1.39-.321-2.496-.892-3.768 7.031 1.374 14.191 4.466 20.483 7.84a85.23 85.23 0 0 1 41.722 51.03c2.226 7.414 6.518 25.507 2.725 32.56-4.235 1.31-8.968.691-13.219 2.045-1.945.619-2.411 1.697-3.215 3.372.265 2.054.33 2.514 1.567 4.145 6.397 3.131 18.041-2.554 25.369-1.821 2.114.211 4.139 1.031 5.408 2.8 2.283 3.171 2.243 9.918 1.752 13.709-.225 1.747-.819 2.985-2.306 3.992-6.308 4.274-39.11 9.827-45.965 6.227-3.15-1.653-5.898-6.635-8.494-9.257-10.848-10.961-25.996-16.47-40.886-19.065a109 109 0 0 0-5.111-.653c-20.433-2.078-45.511 2.346-61.68 15.876-4.357 3.646-7.176 9.015-11.65 12.535-4.71 3.708-14.917 1.263-20.466.521-7.23-.968-22.106-1.718-26.711-8.293-2.005-2.863-2.668-6.618-2.058-10.038 3.1-17.374 24.09-.924 33.499-7.504.784-1.659.68-2.023.44-3.869-3.75-4.397-11.826-3.798-17.4-4.491-.262-16.445 2.385-32.65 9.965-47.378 11.548-22.437 30.792-36.25 54.464-43.78.301 7.776 1.993 47.85 4.676 51.62.897 1.261 1.324 1.216 2.752 1.494 1.414-.534 3.218-1.414 3.937-2.852 2.862-5.725-6.163-56.46-1.799-61.541 2.052-2.391 5.271-2.485 8.17-2.776"/><path fill="#fed100" d="m153.678 153.396.622-.061c17.742-1.675 40.138 3.066 54.032 14.773 2.7 2.279 6.79 5.99 7.08 9.728-14.183 3.194-30.625 3.91-45.178 4.406-21.776.181-42.868-1.025-64.383-4.414a99 99 0 0 1 2.829-3.778c10.631-13.388 28.718-18.697 44.998-20.654"/><path fill="#000" d="M153.895 199.87c31.31-3.071 59.13 19.939 61.983 51.269 2.86 31.33-20.339 58.994-51.687 61.636-31.045 2.616-58.382-20.312-61.211-51.34-2.829-31.027 19.91-58.523 50.915-61.565"/><path fill="#fed100" d="M155.354 208.349c26.564-2.234 49.876 17.59 51.933 44.173s-17.92 49.761-44.51 51.645c-26.348 1.865-49.262-17.886-51.301-44.222s17.558-49.381 43.878-51.596"/><path fill="#000" d="M180.368 235.248c1.06.017 2.073.214 3.118.381 1.583 1.299 1.832 1.61 2.539 3.523-.096.997-.233 2.009-.755 2.884-3.255 5.438-30.88 34.902-35.361 36.318-4.086-2.015-8.91-9.01-12.15-12.456-2.353-2.161-5.765-5.446-5.836-8.88-.013-.635-.023-1.259.442-1.717.669-.66 1.397-.678 2.279-.619 6.719.451 12.357 7.964 16.533 12.482 9.776-10.593 19.218-21.506 29.191-31.916"/></svg>