<svg xmlns="http://www.w3.org/2000/svg" width="330" height="330" fill="none" viewBox="0 0 330 330"><path fill="#000" d="M64.008 50.381q3.116-.135 6.233-.18l134.262-.017 39.733-.024c7.569 0 15.895-.62 23.365.582 6.819 1.098 12.96 4.418 17.828 9.265 13.951 13.888 11.33 34.551 11.225 52.51 6.056.265 11.773 1.242 16.851 4.807 5.932 4.166 8.618 10.137 9.722 17.125 1.942 12.28.717 35.625.721 48.866.004 13.522 1.199 34.478-.524 47.295-.583 4.336-1.581 8.091-4.248 11.63-3.96 5.255-9.53 7.283-15.823 8.222-.082 6.487 1.037 13.682.13 20.036-.357 2.501-1.289 4.857-3.447 6.337-4.015 2.752-15.944 2.498-20.611 1.339-9.01-2.236-6.405-21.446-10.374-28.429l-1.572-.208-207.768.174c-1.424 6.173-2.624 21.441-6.517 25.7-2.025 2.216-5.009 2.971-7.892 3.198-4.832.382-13.179 1.24-17.04-2.388-4.806-4.515-2.903-19.357-2.87-25.498-4.576-1.089-8.631-2.227-12.33-5.257-5.228-4.282-6.673-10.152-7.341-16.61-.606-5.85-.3-11.954-.307-17.837l-.017-30.373c.001-12.865-1.204-34.375.58-46.393.742-4.994 2.037-8.954 5.299-12.868 5.572-6.686 13.159-8.056 21.328-8.856-.102-15.689-2.478-34.246 7.042-47.768 5.97-8.48 14.324-12.694 24.362-14.38"/><path fill="#fefefe" d="m169.695 61.492 63.275-.051c9.913-.005 23.252-1.28 32.82.791 4.474.969 8.785 3.422 12.03 6.636 10.486 10.386 7.753 29.65 7.781 43.254-3.159.645-6.271 1.307-9.175 2.758-7.197 3.595-10.554 9.116-13.05 16.535-1.185 7.127-.876 14.445-.852 21.647-11.638-2.403-24.564-1.31-36.428-1.299l-56.118.086q.155-45.18-.283-90.357m-104.105.316c10.388-.874 21.324-.22 31.775-.232l61.752-.06.066 90.306-21.821-.011-42.376-.02c-9.517 0-19.17-.359-28.638.689.033-10.031 1.48-22.129-4.728-30.719-4.575-6.331-10.95-8.168-18.285-9.295-.062-12.298-2.236-29.047 4.693-39.789 4.146-6.427 10.3-9.346 17.563-10.87"/><path fill="#fed515" d="M249.089 163.409c.142-.005.284-.014.425-.017 3.573-.065 7.337-.118 10.042 2.595 5.173 5.19 2.976 22.887 2.972 29.959l-180.545.035-15.784-.001q.003-2.192-.036-4.383c-.07-5.699-1.734-22.157 2.441-25.911 1.785-1.605 7.182-1.896 9.502-2.024 18.758-1.033 38.104-.114 56.932-.12z"/><path fill="#fefefe" d="m66.31 207.051 196.144-.046.013 31.229-195.993.062zm-34.837-82.675 3.358-.073c6.016-.129 12.762-.858 17.348 3.935 2.365 2.471 3.016 7.287 3.369 10.537 1.19 10.975.326 22.826.316 33.881l.04 65.584-15.191.006c-6.318.01-16.109 1.664-21.23-2.514-2.22-1.81-2.571-6.225-2.862-8.94-1.401-13.098-.323-30.842-.322-44.357 0-13.739-1.192-33.926.61-47.06.346-2.521 1.076-4.529 2.797-6.479 3.114-3.527 7.335-4.18 11.767-4.52m254.558-.105c4.116-.101 8.351-.275 12.461.021 3.868.278 8.506 1.735 11.016 4.898 2.127 2.682 2.796 7.799 3.102 11.094 1.303 14.046.246 30.147.233 44.387-.014 14.948 1.194 32.85-.664 47.433-.813 1.174-1.636 2.402-2.65 3.413-2.351 2.346-4.704 2.664-7.833 2.741l-28.026.007-.117-65.665c.004-11.697-.771-24.336.511-35.951.283-2.558.997-4.801 2.42-6.963 2.335-3.551 5.61-4.654 9.547-5.415m-5.263 125.936 11.907-.077.006 16.988-8.385-.043a692 692 0 0 0-3.528-16.868m-244.123-.008 11.995-.082c-1.311 4.718-2.302 9.567-3.413 14.338-.157.755-.494 1.391-.817 2.086-2.264 1.086-5.261.632-7.743.545z"/></svg>