<svg xmlns="http://www.w3.org/2000/svg" width="330" height="330" fill="none" viewBox="0 0 330 330"><path fill="#000" d="M10.363 72.333c3.026-.176 6.032-.228 9.061-.232l129.429-.032 38.058-.008c6.563 0 13.75-.553 20.254.294 2.521.33 5.428 1.822 7.159 3.676 5.903 6.32 3.659 21.332 3.6 29.4l41.245-.153c7.689-.02 18.051-1.456 23.873 4.44a34.4 34.4 0 0 1 4.481 5.642c5.425 8.46 40.442 69.037 41.649 74.908 1.259 6.117.707 13.1.711 19.35l-.058 29.806c-.058 6.208.209 12.186-4.761 16.809-6.101 5.674-16.047 4.113-23.721 3.985-.144 2.628-.402 5.168-1.059 7.726-2.652 10.335-8.929 17.332-17.898 22.739-5.069 2.337-10.187 3.934-15.796 4.188a37.62 37.62 0 0 1-26.905-9.954c-7.093-6.649-10.186-15.049-10.498-24.609l-118.752.045c-.636 8.499-2.65 15.646-8.34 22.226a35.52 35.52 0 0 1-24.902 12.434 37.4 37.4 0 0 1-27.374-9.129c-7.513-6.64-11.014-15.693-11.679-25.525-8.043.042-20.087 1.402-27.72-.833-4.237-1.241-7.015-3.604-8.961-7.572-.827-1.684-.877-3.74-.945-5.583-1.07-28.872-.14-58.057-.135-86.974l-.02-46.981c-.017-9.146-.326-18.39.097-27.522.084-1.808.284-3.529.992-5.22 1.697-4.05 5.087-5.794 8.915-7.341"/><path fill="#fefefe" d="M11.91 81.459c14.94-.518 30.033-.094 44.985-.095l84.716-.024 41.883-.015c7.287 0 15.932-.876 23.02.664 1.531 1.29 1.828 1.57 2.199 3.623.647 3.576.618 128.583.295 129.443-.139.37-.441.657-.663.986l-1.553.159-197.298-.019-.1-123.115c.027-4.6-.9-8.23 2.517-11.607m206.003 33.311c19.067-.487 38.307-.168 57.385.047 3.994 3.87 6.359 8.952 8.995 13.785-10.099.128-29.465-1.465-38.306.41-4.202.892-5.779 2.663-7.989 6.096-.194 11.537-1.06 31.137.467 41.825.666 4.659 2.034 6.728 5.705 9.535 16.575.634 33.373.076 49.972.079 7.787.003 16.699-.891 24.25.939 3.926 4.699 2.124 39.351 2.103 47.56.052 4.067 1.111 11.373-1.984 14.508-3.14 3.181-13.26 1.846-17.601 1.767-1.169-5.038-3.182-9.951-6.245-14.142-5.767-7.89-15.075-12.928-24.67-14.335a36.88 36.88 0 0 0-27.22 6.887 32.7 32.7 0 0 0-13.028 21.597l-11.826.007zM90.198 225.194c13.809-.474 27.743-.118 41.566-.121l77.268.042-.026 26.22-98.716.018c-.398-1.873-.79-3.78-1.376-5.605-3.05-9.493-10.025-16.115-18.716-20.554m-17.71 5.901c14.978-1.077 28.046 10.07 29.34 25.025 1.294 14.957-9.665 28.18-24.606 29.691a27.47 27.47 0 0 1-25.207-11.486 27.45 27.45 0 0 1-2.386-27.588 27.47 27.47 0 0 1 22.859-15.642"/><path fill="#000" d="M71.86 242.936c8.58-1.385 16.646 4.476 17.975 13.061s-4.586 16.612-13.181 17.886c-8.518 1.262-16.458-4.586-17.776-13.092-1.318-8.508 4.481-16.483 12.981-17.855"/><path fill="#fefefe" d="M71.666 252.273a6.874 6.874 0 1 1 4.947 12.823 6.88 6.88 0 0 1-8.694-4.013 6.873 6.873 0 0 1 3.746-8.81m192.138-21.205c14.959-.751 27.746 10.655 28.696 25.598.949 14.945-10.291 27.877-25.226 29.024a27.38 27.38 0 0 1-24.823-12.028 27.36 27.36 0 0 1-1.749-27.523 27.38 27.38 0 0 1 23.102-15.071"/><path fill="#000" d="M263.308 242.846c8.489-.875 16.093 5.262 17.027 13.742s-5.152 16.125-13.628 17.117c-8.56 1.003-16.299-5.155-17.242-13.718-.943-8.564 5.27-16.258 13.843-17.141"/><path fill="#fefefe" d="M262.824 251.649a6.947 6.947 0 1 1 3.857 13.345 6.948 6.948 0 0 1-3.857-13.345"/><path fill="#fece00" d="m247.091 137.18 42.184.009c7.776 13.43 16.428 26.891 23.205 40.851-21.633-.247-43.296-.004-64.931.003.068-13.623-.368-27.241-.458-40.863"/><path fill="#fefefe" d="m9.504 225.09 50.854.01c-6.11 3.111-10.826 6.622-15.286 11.848-3.22 4.658-4.985 8.921-6.447 14.384-6.339-.045-12.657.145-18.992.226-2.73.035-6.289.251-8.316-1.922-3.566-3.818-1.882-19.018-1.813-24.546"/></svg>