<svg xmlns="http://www.w3.org/2000/svg" width="330" height="330" fill="none" viewBox="0 0 330 330"><path fill="#000" d="m44.113 32.066.112-.002 98.992-.01 31.649-.011 9.982-.01c1.823-.002 3.714-.102 5.529.056.907.08 1.661.36 2.301 1.022.416.43.699.944.807 1.533.331 1.8.132 3.854.123 5.688l-.056 10.456c4.708-.88 9.932-.906 14.529.553 6.144 1.949 10.382 6.416 13.309 12.01 2.821.378 9.916-.188 11.904.865.778.413 1.301 1.213 1.505 2.056.213.88.081 1.819-.421 2.58-.4.606-.995.975-1.661 1.24-2.229.89-8.91 1.674-11.717 2.206a27.5 27.5 0 0 1 1.161 6.978c.242 6.403-1.236 14.634-5.769 19.473-3.053 3.259-7.054 4.875-11.469 5.008-.683 1.579-1.192 3.077-1.522 4.77.646 1.8 1.267 3.592 1.649 5.47 2.234 10.98-.854 22.7-3.499 33.328.593 2.078 1.296 4.123 1.979 6.174q1.955.764 3.92 1.501l.005-19.405c-.002-3.116-.307-6.506.073-9.59.091-.74.385-1.383.848-1.965.742-.931 1.982-1.212 3.115-1.316 3.161-.291 6.886-.025 10.116-.017l20.171.006 28.4-.007c4.958-.003 10.011-.223 14.959.043.811.044 1.62.272 2.239.818.911.801 1.3 1.786 1.383 2.98.269 3.9.033 7.947.032 11.862l-.002 23.4.002 19.65c.002 3.332.244 6.832-.066 10.146-.094 1.009-.355 1.73-1.052 2.482-.871.938-2.317 1.008-3.537 1.054-4.765.182-9.602.015-14.376.012l-27.74-.008-20.803-.001c-3.254 0-6.644.221-9.878.003-.867-.059-2.002-.265-2.644-.899-.605-.597-.959-1.432-1.123-2.257-.307-1.546-.149-3.319-.147-4.892q-.005-4.242.047-8.484c-4.366-1.198-8.772-2.171-13.115-3.474-.563 2.682-.933 5.403-1.511 8.086a2679 2679 0 0 0 18.194 27.468c1.711 2.471 3.61 5.012 4.769 7.797 2.44 5.868 4.194 12.063 5.931 18.169l5.278 18.82 2.188 7.758c.872 3.025 2.142 6.23 2.035 9.413.351.486.753.929 1.146 1.381 4.286-.42 10.609-2.112 14.674-.876 1.74.529 3.058 1.691 3.903 3.288.757 1.431 1.051 2.999.52 4.559-1.474 4.323-7.271 7.173-11.119 9.049-4.793 2.337-19.958 8.422-24.791 6.617-1.248-.466-1.931-1.436-2.428-2.631-1.386-3.332-2.171-7.13-3.03-10.626-.308-1.249-.555-2.571-.975-3.787-.661-1.917-1.746-3.712-2.446-5.643-3.88-10.703-7.908-22.154-12.695-32.475l.028 1.556c.135 8.274.034 16.566.042 24.843l.006 8.634c0 1.694.081 3.434-.077 5.121-.088.945-.168 1.824-.866 2.519-.672.67-1.36.964-2.292 1.075-1.969.234-4.055.101-6.038.098l-10.131-.011-34.712.04c.525 1.005.776 1.925.762 3.07a5.6 5.6 0 0 1-1.761 4.057c-3.026 2.896-8.05 3.436-12.024 3.256-8.107-.367-11.926-4.725-17.042-10.365l-44.332-.006-13.448.013c-2.44.002-4.947.116-7.378-.063-.79-.058-1.506-.249-2.164-.706-.894-.623-1.188-1.376-1.368-2.427-.36-2.109-.138-4.537-.136-6.682l.015-12.727-.006-48.284-.023-176.61c-.002-1.47-.22-3.343.704-4.588.586-.789 1.423-1.085 2.354-1.255"/><path fill="#fefefe" d="M48.203 40.805c7.144 2.986 13.9 6.91 20.798 10.413a3588 3588 0 0 1 36.096 18.396c-.184 12.604.017 25.231-.012 37.838l-.037 98.672-.003 38.877v10.212c.002 1.855-.175 3.915.163 5.736-2.319 1.66-5.908 4.361-6.447 7.356-.412 2.287.9 4.049 2.153 5.797.945 1.36 1.964 2.68 2.949 4.012-6.21-.12-12.445-.012-18.658-.013l-36.985-.002z"/><path fill="#000" d="M91.87 153.329c.89-.068 1.81-.121 2.675.145.951.292 1.972 1.016 2.396 1.941.333.726.451 1.712.51 2.509.176 2.346.282 15.905-.298 17.368-.529 1.335-1.559 2.008-2.803 2.583-1.104.156-2.093.173-3.141-.274-.828-.353-1.686-1.083-2-1.949-.573-1.579-.593-18.823-.032-20.041.576-1.252 1.428-1.826 2.692-2.282"/><path fill="#fefefe" d="M61.416 39.635c4.638-.275 9.428-.047 14.078-.047h27.037l83.731.006.005 14.162a26.2 26.2 0 0 0-4.585 3.566c-4.43 4.367-7.142 10.73-7.17 16.96-.009 1.937.014 4.567 1.506 6.003.869.837 1.602.9 2.741.883.929 6.061 3.227 8.638 2.103 15.069-4.087.433-8.025 2.266-11.317 4.661-13.01 9.468-17.079 28.217-20.053 43.017a628 628 0 0 0-3.869 21.496c-.503 3.158-1.58 7.651-.529 10.735.197.579.569 1.07.924 1.56-1.485 3.87-1.309 10.043-1.623 14.296a293 293 0 0 1-1.05 10.751c-.661 5.24-1.298 12.654-3.187 17.555-2.315 6.006-11.07 15.205-15.626 20.318l-12.178 13.542-.009-141.312V72.891c-.001-2.452.203-5.086-.408-7.477-.661-.72-1.482-1.272-2.323-1.761-1.807-1.05-3.756-1.925-5.626-2.859l-9.935-4.982a2022 2022 0 0 0-32.637-16.177"/><path fill="#fecd00" d="M214.436 129.56c22.466-.245 44.967-.008 67.437-.004l-.012 58.529-43.982-.007h-23.438l.003-7.816c4.445 1.207 8.011 3.088 12.219 4.565 4.781 1.678 11.356 2.145 16.031-.124a14.1 14.1 0 0 0 7.11-8.111c.676-1.973.922-4.593-.07-6.488-1.235-2.359-4.061-2.98-6.407-3.675a9.3 9.3 0 0 0-.345-2.068c-.426-1.487-1.291-2.789-2.679-3.527-3.681-1.954-9.289-.017-12.947 1.18-4.347-1.21-8.638-2.932-12.911-4.404z"/><path fill="#fefefe" d="M172.743 210.415q.69.588 1.325 1.235c2.922 2.936 11.183 12.286 12.509 15.712.625 1.615.281 16.18.281 19.148l-.005 31.384-44.456.079-10.966.021c-1.131-1.945-2.148-3.973-3.245-5.941 4.059-3.941 8.359-7.61 12.523-11.439a475 475 0 0 0 14.234-13.793c3.282-3.303 7.651-7.282 9.817-11.413 3.568-6.803 5.991-17.49 7.983-24.993"/><path fill="#fecd00" d="M182.56 102.731c.677.105 11.741 11.38 13.422 13.155.754.007 1.448-.034 2.197-.137.8 6.294.751 10.619.008 16.917-.699-2.245-2.097-9.874-3.682-11.024-.586-.425-1.31-.557-2.016-.43-.778.14-1.523.592-1.957 1.26a3.1 3.1 0 0 0-.48 1.894c.076 1.118.606 2.405.875 3.51l2.566 10.514c-5.255 1.553-10.692 2.718-16.01 4.054-.485-3.391-1.532-6.811-2.295-10.157-.591-2.591-.973-5.344-1.724-7.884-.246-.829-.506-1.596-1.324-2-1.052-.519-2.439-.314-3.49.099-.687.27-1.141.68-1.4 1.381-.292.79-.274 1.718-.173 2.543.545 4.442 1.911 9.001 2.949 13.355.624 2.617 1.234 6.513 2.358 8.862.347.724.958 1.03 1.682 1.286.239.084.479.157.707.268.819.397 1.26 2.538 1.546 3.425 2.375 6.908 4.794 15.852 11.775 19.469-.461 1.665-.802 3.377-1.186 5.062-2.716-.501-5.502-.782-8.238-1.166q-7.405-1.097-14.797-2.282c-4.091-.647-8.204-1.207-12.227-2.213.494-6.35 1.775-12.749 2.924-19.014 2.381-12.986 5.118-30.329 13.069-41.137 3.757-5.107 8.572-8.659 14.921-9.61"/><path fill="#fefefe" d="M193.764 145.292c1.294.106 2.558 11.69 5.694 13.524 2.105 1.231 26.093 10.174 27.971 10.202 2.038.03 5.117-1.604 7.253-2.144-.043.782-.144 1.662.023 2.429.667 3.061 6.259 2.435 8.334 3.965.321.238.526.548.542.959.043 1.072-1.19 2.393-1.933 3.109-2.116 2.039-4.883 2.114-7.628 2.04-1.532-.119-3.017-.342-4.5-.759-3.285-.923-6.328-2.533-9.628-3.476a516 516 0 0 0-18.495-4.937c-2.589-.667-7.522-1.614-9.773-2.745-4.266-2.144-5.96-7.537-7.484-11.712q-1.322-3.671-2.601-7.357c4.091-.95 8.156-2.059 12.225-3.098m21.162-71.968.211.161c1.099 4.496-.382 14.874-2.744 18.78-3.466 5.731-7.175 3.387-12.111 4.676l-.188.051c-1.593 2.894-2.659 6.45-3.592 9.624-1.816-1.715-3.559-3.517-5.327-5.282a468 468 0 0 1-3.481-3.466c.379-2.82.788-5.646.285-8.48-.32-1.798-1.003-3.53-1.511-5.282-.417-1.436-.659-2.89-.866-4.368 3.749-.63 7.482-1.55 11.194-2.373z"/><path fill="#fecd00" d="M198.664 57.163a17.3 17.3 0 0 1 5.347.456c4.776 1.18 7.959 4.187 10.465 8.29a1716 1716 0 0 0-19.95 4.75 861 861 0 0 0-12.904 3.13c.359-3.767 1.359-7.14 3.787-10.122 3.357-4.121 8.091-5.974 13.255-6.504"/><path fill="#fefefe" d="M113.833 262.48c.697.356 6.144 5.88 7.383 6.986-.349 1.77-.478 3.445.373 5.104.932 1.817 4.79 9.365 6.037 10.291 1.133.842 2.803 1.223 4.12 1.662.686.228 1.724.496 2.069 1.185l-.169.336c-1.656 1.1-4.444 1.053-6.352 1-.563-.035-1.136-.062-1.693-.148-1.368-.212-2.667-.8-3.79-1.599-4.654-3.309-11.937-12.943-15.464-17.85 2.396-2.416 5.104-4.505 7.486-6.967m110.062 13.288c.098-.018.195-.052.295-.055.449-.017 3.717 4.1 4.331 4.641.551.485 1.133.908 1.871 1.016 2.027.298 4.604-.497 6.622-.816 2.367-.373 4.728-.718 7.125-.823-3.092 2.379-6.812 3.999-10.386 5.517-4.72 1.951-9.515 3.32-14.47 4.524-1.289-3.961-2.348-7.978-3.414-12.003 2.629-.789 5.357-1.352 8.026-2.001"/></svg>