<svg xmlns="http://www.w3.org/2000/svg" width="330" height="330" fill="none" viewBox="0 0 330 330"><path fill="#000" d="M248.566 38.018c.468-.014.942-.03 1.409-.005 1.626.088 2.263.663 3.266 1.798 1.622 6.648-12.14 19.082-13.777 26.582-.337 1.543-.27 2.813.545 4.165 2.433-.693 3.391-4.828 6.163-6.004 1.505.152 1.763.253 2.977 1.154 1.934 3.522-.661 5.147-1.335 8.477-.181.892-.082.74.372 1.434 6.25-3.881 15.003-23.66 18.791-24.677 1.339-.359 1.95.01 3.096.597.766 1.332 1.197 2.185.74 3.79-1.298 4.564-13.248 22.961-17.598 25.531-3.911 2.31-6.965 1.55-11.078.49l-3.148 4.656c2.2 3.266 4.125 6.343 4.044 10.413-.115 5.906-12.776 25.591-17.42 29.73-3.049 2.717-7.056 1.634-10.744 1.429-1.962-.109-2.534.267-3.91 1.486-.453 3.276 3.718 8.836 4.498 12.567 2.063 9.871-.689 18.149-5.988 26.373a95.5 95.5 0 0 1 8.446 42.114c-.864 23.417-10.113 46.35-27.501 62.345-16.878 15.527-36.703 21.353-59.256 20.42a76 76 0 0 1-18.298-4.161 80.7 80.7 0 0 1-45.15-42.241c-10.212-21.939-11.616-48.485-3.302-71.272 7.486-20.515 22.39-37.998 42.356-47.177 20.161-9.269 40.455-8.591 60.956-.976a36 36 0 0 1 4.551-3.707c7.828-5.277 18.621-6.024 27.242-2.309 1.923.829 3.923 2.775 5.896 3.142l.789-.955c.081-2.557-1.938-4.485-2.401-6.954-1.561-8.325 7.676-20.525 12.194-27.202 7.623-11.264 8.713-5.383 16.897-7.571 1.368-.367 2.553-2.6 3.309-3.732-1.556-2.19-2.973-4.459-3.497-7.129-1.837-9.365 10.701-24.91 15.866-32.62"/><path fill="#fed200" d="M136.97 128.381c15.985-.453 32.278 5.661 44.649 15.633 16.513 13.31 26.499 33.086 28.682 54.06 2.244 21.556-3.551 44.133-17.318 61.076-13.105 16.128-30.48 24.605-50.952 26.734-18.736.545-36.29-5.766-50.237-18.379-15.582-14.093-24.49-35.12-25.528-55.945-1.083-21.726 5.62-43.514 20.382-59.746 13.355-14.685 30.587-22.449 50.322-23.433"/><path fill="#000" d="M190.379 228.828c1.619.049 2.575.098 3.957.981.351.595.885 1.241.952 1.931.642 6.697-6.094 15.783-10.263 20.855-12.089 14.709-27.555 21.241-46.285 23.116-.829.015-1.761.083-2.576-.066-1.308-.238-2.189-1.308-2.668-2.495-.513-1.271-.141-1.936.407-3.034 4.015-3.092 10.329-2.108 15.106-3.213 14.17-3.277 27.163-12.071 34.624-24.693 2.461-4.165 3.869-8.899 6.477-12.969z"/><path fill="#fefefe" d="M186.606 126.167c3.568-.156 7.172.396 10.429 1.884 4.889 2.234 8.464 6.37 10.326 11.382 2.765 7.444 1.421 14.478-1.757 21.496l-3.341-5.152c-7.478-10.484-16.43-18.858-27.631-25.213 4.066-2.459 7.245-3.813 11.974-4.397m39.049-37.905 2.102.55c.431 1.858-1.974 3.595-1.943 5.916.524 1.53.992 2.367 2.214 3.436 3.915.58 4.289-3.997 7.426-4.658.666 1.445.635 2.005.286 3.578-1.079 4.855-11.997 21.967-16.284 24.595l-1.491-.717c-.261-2.176 2.419-3.798 2.481-6.057.044-1.589-.739-3.063-1.737-4.232-3.134-.405-4.759 3.502-7.206 5.128l-.808-.542c-.151-.56-.298-1.072-.282-1.659.133-4.874 11.662-22.01 15.242-25.338"/></svg>