<svg xmlns="http://www.w3.org/2000/svg" width="330" height="330" fill="none" viewBox="0 0 330 330"><path fill="#000" d="M177.389 36.32c4.9-.362 9.92-.551 14.796.18 2.981.447 6.958 1.376 8.736 4.02.61.907.688 1.216.439 2.276-.462 1.969-1.802 4.047-3.001 5.662-3.491 4.701-26.575 32.167-29.908 34.283 1.924 1.618 13.536 24.042 13.823 26.717 9.313 2.316 19.212 4.019 28.294 7.037 4.967-2.868 26.403-33.778 32.878-40.925 1.132-1.249 2.335-2.361 4.124-2.326 1.313.026 2.508.773 3.385 1.706 5.681 6.046 7.395 21.043 6.988 29.066-1.281 25.283-16.96 48.618-40.714 57.955-7.93 3.118-19.961 3.058-25.528 10.157-4.058 5.175-6.992 11.687-10.122 17.461l-16.519 30.448c-2.206 4.052-4.75 10.338-8.122 13.394-.29 2.271-21.367 40.843-24.141 45.062-5.142 7.821-12.308 13.763-21.64 15.64a33.05 33.05 0 0 1-25.122-4.938c-12.469-8.321-17.017-22.709-14.257-37.099 2.023-10.55 16.716-33.572 22.687-44.249l25.523-45.927c3.691-6.661 9.673-15.158 10.636-22.773 1.156-9.13-5.351-19.447-7.156-28.558-3.14-15.846.604-33.328 9.664-46.642 10.323-15.17 26.452-24.333 44.257-27.626"/><path fill="#fefefe" d="M179.66 44.142c2.836-.277 8.457-1.046 10.953.536-.71 2.184-3.593 4.767-5.14 6.575-4.694 5.484-22.306 24.127-23.798 29.796-1.331 5.054 8.963 23.263 11.829 28.439 2.622 4.736 6.095 7.446 11.321 8.877 5.089 1.393 26.335 7.682 30.216 5.185 3.382-2.176 30.966-37.357 31.498-40.13 3.343 4.438 3.287 16.42 2.962 22.101a55.78 55.78 0 0 1-36.115 49.104c-9.836 3.684-21.15 3.683-28.174 12.655-4.151 5.3-7.081 11.91-10.298 17.822l-16.415 30.078c-2.129 3.885-4.541 9.857-7.789 12.775-.055 2.177-22.366 42.619-25.228 46.904-4.021 6.019-9.505 10.216-16.757 11.582-6.46 1.216-13.216-.561-18.578-4.273-9.847-6.816-12.638-18.57-10.069-29.827 1.777-7.786 7.243-15.052 11.087-22.007l29.825-53.598c5.063-9.15 10.896-18.414 15.036-28.018 1.28-2.968 2.279-6.016 2.658-9.237 1.304-11.096-5.393-19.675-7.321-30.173a55.9 55.9 0 0 1 8.921-41.45c9.297-13.345 23.663-20.883 39.376-23.717"/><path fill="#000" d="M101.063 246.189c8.158-1.883 16.318 3.124 18.334 11.247 2.015 8.124-2.859 16.362-10.952 18.508a15.34 15.34 0 0 1-14.92-4.122 15.326 15.326 0 0 1 7.538-25.633"/><path fill="#fefefe" d="M102.147 253.684c1.301-.145 2.597-.273 3.885.037 2.17.524 4.289 2.03 5.426 3.955a6.85 6.85 0 0 1 .709 5.438c-.798 2.768-2.935 4.028-5.315 5.263-1.178.302-2.269.499-3.488.312-1.95-.299-3.898-1.303-5.051-2.933-1.27-1.795-1.557-4.062-1.113-6.185.624-2.987 2.554-4.355 4.947-5.887"/></svg>